<svg width="500" height="500" viewBox="0 0 500 500" fill="none" xmlns="http://www.w3.org/2000/svg">
<g clip-path="url(#clip0_1427_2723)">
<path fill-rule="evenodd" clip-rule="evenodd" d="M17.488 0.5C18.599 0.5 19.5 1.4 19.5 2.512V17.488C19.5 18.599 18.6 19.5 17.488 19.5H2.512C1.4 19.5 0.5 18.6 0.5 17.488V2.512C0.5 1.4 1.4 0.5 2.512 0.5H17.488ZM11.006 12.77H4.076V14.807H11.006V12.77ZM14.582 9.378H4.076V11.414H14.582V9.378Z" fill="#5C43F5"/>
<path fill-rule="evenodd" clip-rule="evenodd" d="M17.488 25.5C18.599 25.5 19.5 26.4 19.5 27.512V42.488C19.5 43.599 18.6 44.5 17.488 44.5H2.512C1.4 44.5 0.5 43.6 0.5 42.488V27.512C0.5 26.4 1.4 25.5 2.512 25.5H17.488ZM11.006 37.77H4.076V39.807H11.006V37.77ZM14.582 34.378H4.076V36.414H14.582V34.378Z" fill="white"/>
<path d="M42.3571 1L45.6771 4.333L42.3571 7.666" stroke="white" stroke-width="1.331" stroke-linejoin="round"/>
<path d="M44.9471 4.409H40.7171C39.0899 4.409 37.5293 5.05533 36.3786 6.20584C35.2279 7.35634 34.5813 8.9168 34.5811 10.544V10.544" stroke="white" stroke-width="1.536"/>
<path d="M43.692 12.182V17.476H27V3.18201H32.385" stroke="white" stroke-width="1.5" stroke-linecap="round" stroke-linejoin="round"/>
<path d="M42.3571 27L45.6771 30.333L42.3571 33.667" stroke="black" stroke-width="1.331" stroke-linejoin="round"/>
<path d="M44.9471 30.409H40.7171C39.9113 30.4089 39.1134 30.5675 38.369 30.8757C37.6245 31.184 36.9481 31.6358 36.3783 32.2055C35.8085 32.7752 35.3565 33.4516 35.0481 34.196C34.7398 34.9404 34.5811 35.7383 34.5811 36.544" stroke="black" stroke-width="1.536"/>
<path d="M43.692 38.182V43.476H27V29.182H32.385" stroke="#222222" stroke-width="1.5" stroke-linecap="round" stroke-linejoin="round"/>
<path fill-rule="evenodd" clip-rule="evenodd" d="M50 18.538H70V19.938H50V18.538Z" fill="white"/>
<path d="M66.75 8.366L60 15.272L53.25 8.366M60 1V15.323V1Z" stroke="white" stroke-width="1.4"/>
<path fill-rule="evenodd" clip-rule="evenodd" d="M50 43.538H70V44.938H50V43.538Z" fill="black"/>
<path d="M66.75 33.366L60 40.272L53.25 33.366M60 26V40.323V26Z" stroke="black" stroke-width="1.4"/>
<path d="M76 26H82V28H79.4617L84.3047 32.843L82.8905 34.2572L78 29.3667V32H76V26Z" fill="black"/>
<path d="M76 44H82V42H79.3764L84.3046 37.0718L82.8904 35.6576L78 40.548V38H76V44Z" fill="black"/>
<path d="M88 44H94V38H92V40.5244L87.1332 35.6576L85.719 37.0718L90.6472 42H88V44Z" fill="black"/>
<path d="M94 26H88V28H90.5619L85.7189 32.843L87.1331 34.2572L92 29.3903V32H94V26Z" fill="black"/>
<path d="M76 1H82V3H79.4617L84.3047 7.84298L82.8905 9.2572L78 4.3667V7H76V1Z" fill="white"/>
<path d="M76 19H82V17H79.3764L84.3046 12.0718L82.8904 10.6576L78 15.548V13H76V19Z" fill="white"/>
<path d="M88 19H94V13H92V15.5244L87.1332 10.6576L85.719 12.0718L90.6472 17H88V19Z" fill="white"/>
<path d="M94 1H88V3H90.5619L85.7189 7.84301L87.1331 9.25723L92 4.39032V7H94V1Z" fill="white"/>
<path d="M101 26H107V28H103V32H101V26Z" fill="black"/>
<path d="M101 44H107V42H103V38H101V44Z" fill="black"/>
<path d="M113 44H119V38H117V42H113V44Z" fill="black"/>
<path d="M119 26H113V28H117V32H119V26Z" fill="black"/>
<path d="M101 1H107V3H103V7H101V1Z" fill="white"/>
<path d="M101 19H107V17H103V13H101V19Z" fill="white"/>
<path d="M113 19H119V13H117V17H113V19Z" fill="white"/>
<path d="M119 1H113V3H117V7H119V1Z" fill="white"/>
<path opacity="0.5" d="M39.7919 64.794L44.9789 69.98M39.7299 54.185C40.4308 54.8756 40.9881 55.6981 41.3696 56.605C41.7511 57.5119 41.9494 58.4854 41.953 59.4693C41.9566 60.4532 41.7655 61.4282 41.3906 62.3379C41.0157 63.2476 40.4645 64.0741 39.7687 64.7698C39.073 65.4655 38.2464 66.0166 37.3366 66.3914C36.4269 66.7662 35.452 66.9573 34.4681 66.9536C33.4841 66.9499 32.5107 66.7515 31.6038 66.3699C30.6969 65.9883 29.8745 65.4309 29.1839 64.73C27.8269 63.3231 27.0764 61.4396 27.0941 59.4849C27.1117 57.5302 27.8961 55.6606 29.2784 54.2785C30.6607 52.8963 32.5304 52.1121 34.4851 52.0946C36.4397 52.0771 38.3232 52.8278 39.7299 54.185V54.185Z" stroke="#6A6B6A" stroke-width="1.95"/>
<path d="M39.7919 89.793L44.9789 94.98M39.7299 79.185C40.4308 79.8756 40.9881 80.698 41.3696 81.605C41.7511 82.5119 41.9494 83.4854 41.953 84.4693C41.9566 85.4532 41.7655 86.4281 41.3906 87.3378C41.0157 88.2476 40.4645 89.0741 39.7687 89.7698C39.073 90.4655 38.2464 91.0166 37.3366 91.3914C36.4269 91.7662 35.452 91.9573 34.4681 91.9536C33.4841 91.9499 32.5107 91.7515 31.6038 91.3699C30.6969 90.9882 29.8745 90.4309 29.1839 89.73C27.8269 88.3231 27.0764 86.4396 27.0941 84.4849C27.1117 82.5302 27.8961 80.6606 29.2784 79.2785C30.6607 77.8963 32.5304 77.1121 34.4851 77.0946C36.4397 77.0771 38.3232 77.8278 39.7299 79.185V79.185Z" stroke="white" stroke-width="1.95"/>
<path fill-rule="evenodd" clip-rule="evenodd" d="M6.5 100.5V102H13.5V100.5H15.5V102H17.988C19.1 102 20 102.9 20 104.012V118.988C20 120.099 19.1 121 17.988 121H2.012C0.9 121 0 120.1 0 118.988V104.012C0 102.9 0.9 102 2.012 102H4.5V100.5H6.5ZM9.458 106.9L9.451 107.004V113.149C8.97443 113.073 8.4866 113.112 8.028 113.262C6.715 113.684 5.91 114.858 6.252 115.899C6.593 116.938 7.941 117.419 9.254 116.998C10.568 116.576 11.373 115.402 11.031 114.362L11.021 114.334L11.011 114.306L11.01 109.328L13.109 112.106L14.352 111.166L10.852 106.535C10.423 105.967 9.541 106.229 9.458 106.901V106.9Z" fill="#5C43F5"/>
<mask id="mask0_1427_2723" style="mask-type:alpha" maskUnits="userSpaceOnUse" x="0" y="50" width="22" height="22">
<path d="M0 50H22V71.999H0V50Z" fill="white"/>
</mask>
<g mask="url(#mask0_1427_2723)">
<path fill-rule="evenodd" clip-rule="evenodd" d="M16.51 66.51L15.535 65.535C16.1319 64.9401 16.6054 64.2331 16.9282 63.4547C17.251 62.6763 17.4168 61.8417 17.416 60.999C17.416 59.231 16.696 57.627 15.536 56.465L16.51 55.491C17.2344 56.2135 17.8088 57.0721 18.2002 58.0173C18.5917 58.9626 18.7925 59.9759 18.791 60.999C18.791 63.151 17.92 65.099 16.51 66.509V66.51ZM13.386 63.385C13.7 63.0723 13.9492 62.7006 14.1192 62.2913C14.2892 61.882 14.3768 61.4432 14.3768 61C14.3768 60.5568 14.2892 60.118 14.1192 59.7087C13.9492 59.2994 13.7 58.9277 13.386 58.615L14.359 57.641C14.8008 58.0814 15.1513 58.6048 15.3902 59.1811C15.629 59.7574 15.7517 60.3752 15.751 60.999C15.7516 61.6231 15.629 62.2412 15.3901 62.8178C15.1512 63.3944 14.8008 63.9182 14.359 64.359L13.386 63.385ZM11 62.605C10.7846 62.6125 10.5699 62.5765 10.3687 62.4992C10.1675 62.4219 9.98392 62.3048 9.82894 62.155C9.67396 62.0052 9.55073 61.8258 9.46662 61.6273C9.38251 61.4289 9.33923 61.2155 9.33936 61C9.3395 60.7844 9.38304 60.5711 9.4674 60.3728C9.55176 60.1744 9.67521 59.9951 9.83038 59.8455C9.98555 59.6959 10.1693 59.5791 10.3706 59.502C10.5718 59.425 10.7866 59.3893 11.002 59.397C11.4153 59.4151 11.8056 59.5921 12.0915 59.8911C12.3774 60.19 12.5369 60.5878 12.5366 61.0015C12.5364 61.4151 12.3764 61.8127 12.0901 62.1113C11.8038 62.4099 11.4133 62.5864 11 62.604V62.605ZM8.614 63.385L7.64 64.359C7.19847 63.9181 6.84838 63.3943 6.60984 62.8177C6.37131 62.241 6.24902 61.623 6.25 60.999C6.25 59.689 6.781 58.501 7.64 57.641L8.614 58.615C8.29997 58.9277 8.0508 59.2994 7.88078 59.7087C7.71076 60.118 7.62323 60.5568 7.62323 61C7.62323 61.4432 7.71076 61.882 7.88078 62.2913C8.0508 62.7006 8.29997 63.0723 8.614 63.385V63.385ZM5.49 66.51C4.76548 65.7871 4.19092 64.9282 3.7993 63.9827C3.40769 63.0371 3.20674 62.0235 3.208 61C3.208 58.849 4.081 56.902 5.49 55.492L6.464 56.466C5.86748 57.0607 5.39432 57.7674 5.07169 58.5455C4.74906 59.3235 4.58333 60.1577 4.584 61C4.58334 61.8426 4.74907 62.6771 5.07169 63.4555C5.39431 64.2339 5.86746 64.9409 6.464 65.536L5.49 66.51V66.51ZM11 50C4.926 50 0 54.925 0 61C0 67.076 4.926 72 11 72C17.075 72 22 67.076 22 61C22 54.926 17.075 50 11 50Z" fill="#5C43F5"/>
</g>
<path fill-rule="evenodd" clip-rule="evenodd" d="M18.815 74.922C20.575 74.924 21.996 76.277 21.996 77.942C21.996 80.976 19.708 83.287 17.922 84.215C17.6421 85.7054 16.8887 87.0657 15.7738 88.0937C14.659 89.1218 13.2422 89.7626 11.734 89.921L11.733 93.516H16.75V94.984H5.25V93.517H10.266V89.92C8.7581 89.7617 7.3415 89.1212 6.22668 88.0935C5.11186 87.0659 4.35832 85.7061 4.078 84.216C2.291 83.292 0 80.979 0 77.942C0 76.277 1.421 74.924 3.18 74.922C3.384 74.922 3.614 74.918 3.859 74.917H18.137C18.382 74.917 18.612 74.921 18.815 74.921V74.922ZM3.958 76.382L3.181 76.387C2.217 76.389 1.467 77.101 1.467 77.941C1.467 79.646 2.46 81.29 3.958 82.41V76.384V76.382ZM18.041 76.382V82.406L18.249 82.246C19.629 81.133 20.529 79.565 20.529 77.941C20.529 77.101 19.779 76.389 18.815 76.387L18.041 76.383V76.382Z" fill="#5C43F5"/>
<path fill-rule="evenodd" clip-rule="evenodd" d="M16.8 126.6C17.2774 126.6 17.7352 126.79 18.0728 127.127C18.4103 127.465 18.6 127.923 18.6 128.4V141.6C18.6 142.077 18.4103 142.535 18.0728 142.873C17.7352 143.21 17.2774 143.4 16.8 143.4H3.39998C2.92259 143.4 2.46475 143.21 2.12718 142.873C1.78962 142.535 1.59998 142.077 1.59998 141.6V128.4C1.59998 127.923 1.78962 127.465 2.12718 127.127C2.46475 126.79 2.92259 126.6 3.39998 126.6H16.8V126.6ZM11 137.45H4.79998V139.25H11V137.45ZM14.2 134.45H4.79998V136.25H14.2V134.45Z" fill="#5C43F5"/>
<path fill-rule="evenodd" clip-rule="evenodd" d="M141 1.256L132.203 10.054L127.451 5.301C127.292 5.14162 127.076 5.05208 126.85 5.05208C126.625 5.05208 126.409 5.14162 126.249 5.301C126.17 5.37995 126.108 5.47371 126.065 5.57692C126.022 5.68013 126 5.79077 126 5.9025C126 6.01423 126.022 6.12487 126.065 6.22808C126.108 6.33129 126.17 6.42505 126.249 6.504L131.496 11.751C131.684 11.9385 131.938 12.0438 132.203 12.0438C132.469 12.0438 132.723 11.9385 132.91 11.751L142.203 2.458C142.284 2.37941 142.348 2.28565 142.392 2.18213C142.436 2.07861 142.459 1.9674 142.459 1.85495C142.46 1.7425 142.438 1.63103 142.396 1.52701C142.353 1.42299 142.29 1.32848 142.21 1.24896C142.131 1.16944 142.036 1.10649 141.932 1.06376C141.828 1.02103 141.717 0.99936 141.604 1.00001C141.492 1.00067 141.381 1.02363 141.277 1.06757C141.174 1.11151 141.08 1.17556 141.001 1.256H141Z" fill="white"/>
<path fill-rule="evenodd" clip-rule="evenodd" d="M135.538 34H142.808C142.907 33.9948 143.006 34.0098 143.099 34.0441C143.192 34.0784 143.277 34.1313 143.349 34.1995C143.421 34.2677 143.478 34.3498 143.517 34.4408C143.556 34.5319 143.576 34.6299 143.576 34.729C143.576 34.8281 143.556 34.9261 143.517 35.0172C143.478 35.1082 143.421 35.1903 143.349 35.2585C143.277 35.3267 143.192 35.3796 143.099 35.4139C143.006 35.4482 142.907 35.4632 142.808 35.458H135.538V42.75C135.538 42.9489 135.459 43.1397 135.319 43.2803C135.178 43.421 134.987 43.5 134.788 43.5C134.589 43.5 134.399 43.421 134.258 43.2803C134.117 43.1397 134.038 42.9489 134.038 42.75V35.458H126.768C126.669 35.4632 126.57 35.4482 126.477 35.4139C126.384 35.3796 126.299 35.3267 126.227 35.2585C126.156 35.1903 126.098 35.1082 126.059 35.0172C126.02 34.9261 126 34.8281 126 34.729C126 34.6299 126.02 34.5319 126.059 34.4408C126.098 34.3498 126.156 34.2677 126.227 34.1995C126.299 34.1313 126.384 34.0784 126.477 34.0441C126.57 34.0098 126.669 33.9948 126.768 34H134.038V26.75C134.038 26.5511 134.117 26.3603 134.258 26.2197C134.399 26.079 134.589 26 134.788 26C134.987 26 135.178 26.079 135.319 26.2197C135.459 26.3603 135.538 26.5511 135.538 26.75V34Z" fill="white"/>
<path fill-rule="evenodd" clip-rule="evenodd" d="M139.945 52L140.706 52.761L127.761 65.706L127 64.945L139.945 52Z" fill="white"/>
<path fill-rule="evenodd" clip-rule="evenodd" d="M127.761 52L140.706 64.945L139.945 65.706L127 52.761L127.761 52Z" fill="white"/>
<path d="M234.035 148.642L226 140.607L227.607 139L235.642 147.035L243.679 139L245.286 140.607L237.251 148.642L245.286 156.678L243.679 158.285L235.643 150.25L227.608 158.285L226.001 156.678L234.036 148.642H234.035Z" fill="white"/>
<path d="M153 3L159.045 8.635L153 13.957" stroke="white" stroke-width="2.5"/>
<path d="M172.045 3L166 8.635L172.045 13.957" stroke="white" stroke-width="2.5"/>
<path d="M180 4L185 9L180 14" stroke="white"/>
<path d="M195 14L190 9L195 4" stroke="white"/>
</g>
<defs>
<clipPath id="clip0_1427_2723">
<rect width="500" height="500" fill="white"/>
</clipPath>
</defs>
</svg>
