<svg width="14" height="14" viewBox="0 0 14 14" fill="none" xmlns="http://www.w3.org/2000/svg">
<path d="M1.87233 1V1.91099H12.1277V1H1.87233ZM6.12767 10.2042V13H7.87233V12.089H7V9.29319H1.87233V10.2042H6.12767ZM12.1277 1.91099V9.29319H9.64706V10.2042H12.1277V9.29319H13V1.91099H12.1277ZM1 9.29319H1.87233V1.91099H1V9.29319ZM8.77473 11.1466H7.87233V12.0576H8.77473V11.1466L9.64706 11.178V10.2356H8.77473V11.1466Z" fill="white"/>
<path d="M1.87233 1.91099V1H12.1277V1.91099M1.87233 1.91099H12.1277M1.87233 1.91099V9.29319M1.87233 1.91099H1V9.29319H1.87233M12.1277 1.91099V9.29319M12.1277 1.91099H13V9.29319H12.1277M1.87233 9.29319H7V12.089H7.87233V13H6.12767V10.2042H1.87233V9.29319ZM12.1277 9.29319H9.64706V10.2042H12.1277V9.29319ZM8.77473 11.1466H7.87233V12.0576H8.77473V11.1466ZM8.77473 11.1466L9.64706 11.178V10.2356H8.77473V11.1466Z" stroke="white" stroke-width="0.4"/>
<path d="M5.22512 6.5287V4.67529H3.48047V6.5287H5.22512Z" fill="white"/>
<path d="M6.12753 4.67529H7.87218V6.5287H6.12753V4.67529Z" fill="white"/>
<path d="M10.5192 6.5287H8.77459V4.67529H10.5192V6.5287Z" fill="white"/>
</svg>
