<svg width="15" height="13" viewBox="0 0 15 13" fill="none" xmlns="http://www.w3.org/2000/svg">
<path d="M6.00262 11.0367V10.1356H6.98953V11.0367H6.00262ZM3.99476 9.23446H4.98168V8.33333H3.99476C3.99476 8.33333 3.99476 9.23446 3.99476 9.23446ZM3.99476 7.40113H3.00785V8.30226H3.99476C3.99476 8.30226 3.99476 7.40113 3.99476 7.40113ZM1.98691 2.83333H2.97382V1.9322H1.98691V2.83333ZM8.99738 1.9322H8.01047V2.83333H8.99738V1.9322ZM1 6.46893H1.98691V2.83333H1V6.46893ZM6.00262 1.90113V1H3.00785V1.90113C3.00785 1.90113 6.00262 1.90113 6.00262 1.90113ZM6.98953 12H7.97644V11.0678H6.98953V12ZM1.98691 7.40113H2.97382V6.5H1.98691V7.40113ZM5.01571 9.23446V10.1356H6.00262V9.23446H5.01571ZM12.0262 7.40113H13.0131V6.5H12.0262V7.40113ZM6.98953 3.73446H7.97644V2.83333H6.98953V3.73446ZM10.0183 9.23446H11.0052V8.33333H10.0183V9.23446ZM12.0262 1.9322V2.83333H13.0131V1.9322H12.0262ZM13.0131 2.83333V6.46893H14V2.83333H13.0131ZM11.0052 8.30226H12.0262V7.40113H11.0052V8.30226ZM6.00262 1.9322V2.83333H6.98953V1.9322C6.98953 1.9322 6.00262 1.9322 6.00262 1.9322ZM12.0262 1.90113V1H8.99738V1.90113C8.99738 1.90113 12.0262 1.90113 12.0262 1.90113ZM8.01047 11.0367H8.99738V10.1356H8.01047V11.0367ZM8.99738 10.1356H9.98429V9.23446H8.99738V10.1356V10.1356Z" fill="white" stroke="white" stroke-width="0.5"/>
</svg>
