<svg width="30" height="650" viewBox="0 0 30 650" fill="none" xmlns="http://www.w3.org/2000/svg">
<rect x="5" width="4.99231" height="4.99231" fill="black"/>
<rect x="14.9844" width="4.99231" height="4.99231" fill="black"/>
<rect x="24.9688" width="4.99231" height="4.99231" fill="black"/>
<rect x="5" y="10" width="4.99231" height="4.99231" fill="black"/>
<rect x="14.9844" y="10" width="4.99231" height="4.99231" fill="black"/>
<rect x="24.9688" y="10" width="4.99231" height="4.99231" fill="black"/>
<rect x="5" y="20" width="4.99231" height="4.99231" fill="black"/>
<rect x="14.9844" y="20" width="4.99231" height="4.99231" fill="black"/>
<rect x="24.9688" y="20" width="4.99231" height="4.99231" fill="black"/>
<rect x="5" y="30" width="4.99231" height="4.99231" fill="black"/>
<rect x="14.9844" y="30" width="4.99231" height="4.99231" fill="black"/>
<rect x="24.9688" y="30" width="4.99231" height="4.99231" fill="black"/>
<rect x="5" y="40" width="4.99231" height="4.99231" fill="black"/>
<rect x="14.9844" y="40" width="4.99231" height="4.99231" fill="black"/>
<rect x="24.9688" y="40" width="4.99231" height="4.99231" fill="black"/>
<rect x="5" y="50" width="4.99231" height="4.99231" fill="black"/>
<rect x="14.9844" y="50" width="4.99231" height="4.99231" fill="black"/>
<rect x="24.9688" y="50" width="4.99231" height="4.99231" fill="black"/>
<rect x="5" y="60" width="4.99231" height="4.99231" fill="black"/>
<rect x="14.9844" y="60" width="4.99231" height="4.99231" fill="black"/>
<rect x="24.9688" y="60" width="4.99231" height="4.99231" fill="black"/>
<rect x="5" y="70" width="4.99231" height="4.99231" fill="black"/>
<rect x="14.9844" y="70" width="4.99231" height="4.99231" fill="black"/>
<rect x="24.9688" y="70" width="4.99231" height="4.99231" fill="black"/>
<rect x="5" y="80" width="4.99231" height="4.99231" fill="black"/>
<rect x="14.9844" y="80" width="4.99231" height="4.99231" fill="black"/>
<rect x="24.9688" y="80" width="4.99231" height="4.99231" fill="black"/>
<rect x="5" y="90" width="4.99231" height="4.99231" fill="black"/>
<rect x="14.9844" y="90" width="4.99231" height="4.99231" fill="black"/>
<rect x="24.9688" y="90" width="4.99231" height="4.99231" fill="black"/>
<rect x="5" y="100" width="4.99231" height="4.99231" fill="black"/>
<rect x="14.9844" y="100" width="4.99231" height="4.99231" fill="black"/>
<rect x="24.9688" y="100" width="4.99231" height="4.99231" fill="black"/>
<rect x="5" y="110" width="4.99231" height="4.99231" fill="black"/>
<rect x="14.9844" y="110" width="4.99231" height="4.99231" fill="black"/>
<rect x="24.9688" y="110" width="4.99231" height="4.99231" fill="black"/>
<rect x="5" y="120" width="4.99231" height="4.99231" fill="black"/>
<rect x="14.9844" y="120" width="4.99231" height="4.99231" fill="black"/>
<rect x="24.9688" y="120" width="4.99231" height="4.99231" fill="black"/>
<rect x="5" y="130" width="4.99231" height="4.99231" fill="black"/>
<rect x="14.9844" y="130" width="4.99231" height="4.99231" fill="black"/>
<rect x="24.9688" y="130" width="4.99231" height="4.99231" fill="black"/>
<rect x="5" y="140" width="4.99231" height="4.99231" fill="black"/>
<rect x="14.9844" y="140" width="4.99231" height="4.99231" fill="black"/>
<rect x="24.9688" y="140" width="4.99231" height="4.99231" fill="black"/>
<rect x="5" y="150" width="4.99231" height="4.99231" fill="black"/>
<rect x="14.9844" y="150" width="4.99231" height="4.99231" fill="black"/>
<rect x="24.9688" y="150" width="4.99231" height="4.99231" fill="black"/>
<rect x="5" y="160" width="4.99231" height="4.99231" fill="black"/>
<rect x="14.9844" y="160" width="4.99231" height="4.99231" fill="black"/>
<rect x="24.9688" y="160" width="4.99231" height="4.99231" fill="black"/>
<rect x="5" y="170" width="4.99231" height="4.99231" fill="black"/>
<rect x="14.9844" y="170" width="4.99231" height="4.99231" fill="black"/>
<rect x="24.9688" y="170" width="4.99231" height="4.99231" fill="black"/>
<rect x="5" y="180" width="4.99231" height="4.99231" fill="black"/>
<rect x="14.9844" y="180" width="4.99231" height="4.99231" fill="black"/>
<rect x="24.9688" y="180" width="4.99231" height="4.99231" fill="black"/>
<rect x="5" y="190" width="4.99231" height="4.99231" fill="black"/>
<rect x="14.9844" y="190" width="4.99231" height="4.99231" fill="black"/>
<rect x="24.9688" y="190" width="4.99231" height="4.99231" fill="black"/>
<rect x="5" y="200" width="4.99231" height="4.99231" fill="black"/>
<rect x="14.9844" y="200" width="4.99231" height="4.99231" fill="black"/>
<rect x="24.9688" y="200" width="4.99231" height="4.99231" fill="black"/>
<rect x="5" y="210" width="4.99231" height="4.99231" fill="black"/>
<rect x="14.9844" y="210" width="4.99231" height="4.99231" fill="black"/>
<rect x="24.9688" y="210" width="4.99231" height="4.99231" fill="black"/>
<rect x="5" y="220" width="4.99231" height="4.99231" fill="black"/>
<rect x="14.9844" y="220" width="4.99231" height="4.99231" fill="black"/>
<rect x="24.9688" y="220" width="4.99231" height="4.99231" fill="black"/>
<rect x="5" y="230" width="4.99231" height="4.99231" fill="black"/>
<rect x="14.9844" y="230" width="4.99231" height="4.99231" fill="black"/>
<rect x="24.9688" y="230" width="4.99231" height="4.99231" fill="black"/>
<rect x="5" y="240" width="4.99231" height="4.99231" fill="black"/>
<rect x="14.9844" y="240" width="4.99231" height="4.99231" fill="black"/>
<rect x="24.9688" y="240" width="4.99231" height="4.99231" fill="black"/>
<rect x="5" y="250" width="4.99231" height="4.99231" fill="black"/>
<rect x="14.9844" y="250" width="4.99231" height="4.99231" fill="black"/>
<rect x="24.9688" y="250" width="4.99231" height="4.99231" fill="black"/>
<rect x="5" y="260" width="4.99231" height="4.99231" fill="black"/>
<rect x="14.9844" y="260" width="4.99231" height="4.99231" fill="black"/>
<rect x="24.9688" y="260" width="4.99231" height="4.99231" fill="black"/>
<rect x="5" y="270" width="4.99231" height="4.99231" fill="black"/>
<rect x="14.9844" y="270" width="4.99231" height="4.99231" fill="black"/>
<rect x="24.9688" y="270" width="4.99231" height="4.99231" fill="black"/>
<rect x="5" y="280" width="4.99231" height="4.99231" fill="black"/>
<rect x="14.9844" y="280" width="4.99231" height="4.99231" fill="black"/>
<rect x="24.9688" y="280" width="4.99231" height="4.99231" fill="black"/>
<rect x="5" y="290" width="4.99231" height="4.99231" fill="black"/>
<rect x="14.9844" y="290" width="4.99231" height="4.99231" fill="black"/>
<rect x="24.9688" y="290" width="4.99231" height="4.99231" fill="black"/>
<rect x="5" y="300" width="4.99231" height="4.99231" fill="black"/>
<rect x="14.9844" y="300" width="4.99231" height="4.99231" fill="black"/>
<rect x="24.9688" y="300" width="4.99231" height="4.99231" fill="black"/>
<rect x="5" y="310" width="4.99231" height="4.99231" fill="black"/>
<rect x="14.9844" y="310" width="4.99231" height="4.99231" fill="black"/>
<rect x="24.9688" y="310" width="4.99231" height="4.99231" fill="black"/>
<rect x="5" y="320" width="4.99231" height="4.99231" fill="black"/>
<rect x="14.9844" y="320" width="4.99231" height="4.99231" fill="black"/>
<rect x="24.9688" y="320" width="4.99231" height="4.99231" fill="black"/>
<rect x="5" y="330" width="4.99231" height="4.99231" fill="black"/>
<rect x="14.9844" y="330" width="4.99231" height="4.99231" fill="black"/>
<rect x="24.9688" y="330" width="4.99231" height="4.99231" fill="black"/>
<rect x="5" y="340" width="4.99231" height="4.99231" fill="black"/>
<rect x="14.9844" y="340" width="4.99231" height="4.99231" fill="black"/>
<rect x="24.9688" y="340" width="4.99231" height="4.99231" fill="black"/>
<rect x="5" y="350" width="4.99231" height="4.99231" fill="black"/>
<rect x="14.9844" y="350" width="4.99231" height="4.99231" fill="black"/>
<rect x="24.9688" y="350" width="4.99231" height="4.99231" fill="black"/>
<rect x="5" y="360" width="4.99231" height="4.99231" fill="black"/>
<rect x="14.9844" y="360" width="4.99231" height="4.99231" fill="black"/>
<rect x="24.9688" y="360" width="4.99231" height="4.99231" fill="black"/>
<rect x="5" y="370" width="4.99231" height="4.99231" fill="black"/>
<rect x="14.9844" y="370" width="4.99231" height="4.99231" fill="black"/>
<rect x="24.9688" y="370" width="4.99231" height="4.99231" fill="black"/>
<rect x="5" y="380" width="4.99231" height="4.99231" fill="black"/>
<rect x="14.9844" y="380" width="4.99231" height="4.99231" fill="black"/>
<rect x="24.9688" y="380" width="4.99231" height="4.99231" fill="black"/>
<rect x="5" y="390" width="4.99231" height="4.99231" fill="black"/>
<rect x="14.9844" y="390" width="4.99231" height="4.99231" fill="black"/>
<rect x="24.9688" y="390" width="4.99231" height="4.99231" fill="black"/>
<rect x="5" y="400" width="4.99231" height="4.99231" fill="black"/>
<rect x="14.9844" y="400" width="4.99231" height="4.99231" fill="black"/>
<rect x="24.9688" y="400" width="4.99231" height="4.99231" fill="black"/>
<rect x="5" y="410" width="4.99231" height="4.99231" fill="black"/>
<rect x="14.9844" y="410" width="4.99231" height="4.99231" fill="black"/>
<rect x="24.9688" y="410" width="4.99231" height="4.99231" fill="black"/>
<rect x="5" y="420" width="4.99231" height="4.99231" fill="black"/>
<rect x="14.9844" y="420" width="4.99231" height="4.99231" fill="black"/>
<rect x="24.9688" y="420" width="4.99231" height="4.99231" fill="black"/>
<rect x="5" y="430" width="4.99231" height="4.99231" fill="black"/>
<rect x="14.9844" y="430" width="4.99231" height="4.99231" fill="black"/>
<rect x="24.9688" y="430" width="4.99231" height="4.99231" fill="black"/>
<rect x="5" y="440" width="4.99231" height="4.99231" fill="black"/>
<rect x="14.9844" y="440" width="4.99231" height="4.99231" fill="black"/>
<rect x="24.9688" y="440" width="4.99231" height="4.99231" fill="black"/>
<rect x="5" y="450" width="4.99231" height="4.99231" fill="black"/>
<rect x="14.9844" y="450" width="4.99231" height="4.99231" fill="black"/>
<rect x="24.9688" y="450" width="4.99231" height="4.99231" fill="black"/>
<rect x="5" y="460" width="4.99231" height="4.99231" fill="black"/>
<rect x="14.9844" y="460" width="4.99231" height="4.99231" fill="black"/>
<rect x="24.9688" y="460" width="4.99231" height="4.99231" fill="black"/>
<rect x="5" y="470" width="4.99231" height="4.99231" fill="black"/>
<rect x="14.9844" y="470" width="4.99231" height="4.99231" fill="black"/>
<rect x="24.9688" y="470" width="4.99231" height="4.99231" fill="black"/>
<rect x="5" y="480" width="4.99231" height="4.99231" fill="black"/>
<rect x="14.9844" y="480" width="4.99231" height="4.99231" fill="black"/>
<rect x="24.9688" y="480" width="4.99231" height="4.99231" fill="black"/>
<rect x="5" y="490" width="4.99231" height="4.99231" fill="black"/>
<rect x="14.9844" y="490" width="4.99231" height="4.99231" fill="black"/>
<rect x="24.9688" y="490" width="4.99231" height="4.99231" fill="black"/>
<rect x="5" y="500" width="4.99231" height="4.99231" fill="black"/>
<rect x="14.9844" y="500" width="4.99231" height="4.99231" fill="black"/>
<rect x="24.9688" y="500" width="4.99231" height="4.99231" fill="black"/>
<rect x="5" y="510" width="4.99231" height="4.99231" fill="black"/>
<rect x="14.9844" y="510" width="4.99231" height="4.99231" fill="black"/>
<rect x="24.9688" y="510" width="4.99231" height="4.99231" fill="black"/>
<rect x="5" y="520" width="4.99231" height="4.99231" fill="black"/>
<rect x="14.9844" y="520" width="4.99231" height="4.99231" fill="black"/>
<rect x="24.9688" y="520" width="4.99231" height="4.99231" fill="black"/>
<rect x="5" y="530" width="4.99231" height="4.99231" fill="black"/>
<rect x="14.9844" y="530" width="4.99231" height="4.99231" fill="black"/>
<rect x="24.9688" y="530" width="4.99231" height="4.99231" fill="black"/>
<rect x="5" y="540" width="4.99231" height="4.99231" fill="black"/>
<rect x="14.9844" y="540" width="4.99231" height="4.99231" fill="black"/>
<rect x="24.9688" y="540" width="4.99231" height="4.99231" fill="black"/>
<rect x="5" y="550" width="4.99231" height="4.99231" fill="black"/>
<rect x="14.9844" y="550" width="4.99231" height="4.99231" fill="black"/>
<rect x="24.9688" y="550" width="4.99231" height="4.99231" fill="black"/>
<rect x="5" y="560" width="4.99231" height="4.99231" fill="black"/>
<rect x="14.9844" y="560" width="4.99231" height="4.99231" fill="black"/>
<rect x="24.9688" y="560" width="4.99231" height="4.99231" fill="black"/>
<rect x="5" y="570" width="4.99231" height="4.99231" fill="black"/>
<rect x="14.9844" y="570" width="4.99231" height="4.99231" fill="black"/>
<rect x="24.9688" y="570" width="4.99231" height="4.99231" fill="black"/>
<rect x="5" y="580" width="4.99231" height="4.99231" fill="black"/>
<rect x="14.9844" y="580" width="4.99231" height="4.99231" fill="black"/>
<rect x="24.9688" y="580" width="4.99231" height="4.99231" fill="black"/>
<rect x="5" y="590" width="4.99231" height="4.99231" fill="black"/>
<rect x="14.9844" y="590" width="4.99231" height="4.99231" fill="black"/>
<rect x="24.9688" y="590" width="4.99231" height="4.99231" fill="black"/>
<rect x="5" y="600" width="4.99231" height="4.99231" fill="black"/>
<rect x="14.9844" y="600" width="4.99231" height="4.99231" fill="black"/>
<rect x="24.9688" y="600" width="4.99231" height="4.99231" fill="black"/>
<rect x="5" y="610" width="4.99231" height="4.99231" fill="black"/>
<rect x="14.9844" y="610" width="4.99231" height="4.99231" fill="black"/>
<rect x="24.9688" y="610" width="4.99231" height="4.99231" fill="black"/>
<rect x="5" y="620" width="4.99231" height="4.99231" fill="black"/>
<rect x="14.9844" y="620" width="4.99231" height="4.99231" fill="black"/>
<rect x="24.9688" y="620" width="4.99231" height="4.99231" fill="black"/>
<rect x="5" y="630" width="4.99231" height="4.99231" fill="black"/>
<rect x="14.9844" y="630" width="4.99231" height="4.99231" fill="black"/>
<rect x="24.9688" y="630" width="4.99231" height="4.99231" fill="black"/>
<rect x="5" y="640" width="4.99231" height="4.99231" fill="black"/>
<rect x="14.9844" y="640" width="4.99231" height="4.99231" fill="black"/>
<rect x="24.9688" y="640" width="4.99231" height="4.99231" fill="black"/>
<rect y="5" width="4.99231" height="4.99231" fill="black"/>
<rect x="9.98438" y="5" width="4.99231" height="4.99231" fill="black"/>
<rect x="19.9688" y="5" width="4.99231" height="4.99231" fill="black"/>
<rect y="15" width="4.99231" height="4.99231" fill="black"/>
<rect x="9.98438" y="15" width="4.99231" height="4.99231" fill="black"/>
<rect x="19.9688" y="15" width="4.99231" height="4.99231" fill="black"/>
<rect y="25" width="4.99231" height="4.99231" fill="black"/>
<rect x="9.98438" y="25" width="4.99231" height="4.99231" fill="black"/>
<rect x="19.9688" y="25" width="4.99231" height="4.99231" fill="black"/>
<rect y="35" width="4.99231" height="4.99231" fill="black"/>
<rect x="9.98438" y="35" width="4.99231" height="4.99231" fill="black"/>
<rect x="19.9688" y="35" width="4.99231" height="4.99231" fill="black"/>
<rect y="45" width="4.99231" height="4.99231" fill="black"/>
<rect x="9.98438" y="45" width="4.99231" height="4.99231" fill="black"/>
<rect x="19.9688" y="45" width="4.99231" height="4.99231" fill="black"/>
<rect y="55" width="4.99231" height="4.99231" fill="black"/>
<rect x="9.98438" y="55" width="4.99231" height="4.99231" fill="black"/>
<rect x="19.9688" y="55" width="4.99231" height="4.99231" fill="black"/>
<rect y="65" width="4.99231" height="4.99231" fill="black"/>
<rect x="9.98438" y="65" width="4.99231" height="4.99231" fill="black"/>
<rect x="19.9688" y="65" width="4.99231" height="4.99231" fill="black"/>
<rect y="75" width="4.99231" height="4.99231" fill="black"/>
<rect x="9.98438" y="75" width="4.99231" height="4.99231" fill="black"/>
<rect x="19.9688" y="75" width="4.99231" height="4.99231" fill="black"/>
<rect y="85" width="4.99231" height="4.99231" fill="black"/>
<rect x="9.98438" y="85" width="4.99231" height="4.99231" fill="black"/>
<rect x="19.9688" y="85" width="4.99231" height="4.99231" fill="black"/>
<rect y="95" width="4.99231" height="4.99231" fill="black"/>
<rect x="9.98438" y="95" width="4.99231" height="4.99231" fill="black"/>
<rect x="19.9688" y="95" width="4.99231" height="4.99231" fill="black"/>
<rect y="105" width="4.99231" height="4.99231" fill="black"/>
<rect x="9.98438" y="105" width="4.99231" height="4.99231" fill="black"/>
<rect x="19.9688" y="105" width="4.99231" height="4.99231" fill="black"/>
<rect y="115" width="4.99231" height="4.99231" fill="black"/>
<rect x="9.98438" y="115" width="4.99231" height="4.99231" fill="black"/>
<rect x="19.9688" y="115" width="4.99231" height="4.99231" fill="black"/>
<rect y="125" width="4.99231" height="4.99231" fill="black"/>
<rect x="9.98438" y="125" width="4.99231" height="4.99231" fill="black"/>
<rect x="19.9688" y="125" width="4.99231" height="4.99231" fill="black"/>
<rect y="135" width="4.99231" height="4.99231" fill="black"/>
<rect x="9.98438" y="135" width="4.99231" height="4.99231" fill="black"/>
<rect x="19.9688" y="135" width="4.99231" height="4.99231" fill="black"/>
<rect y="145" width="4.99231" height="4.99231" fill="black"/>
<rect x="9.98438" y="145" width="4.99231" height="4.99231" fill="black"/>
<rect x="19.9688" y="145" width="4.99231" height="4.99231" fill="black"/>
<rect y="155" width="4.99231" height="4.99231" fill="black"/>
<rect x="9.98438" y="155" width="4.99231" height="4.99231" fill="black"/>
<rect x="19.9688" y="155" width="4.99231" height="4.99231" fill="black"/>
<rect y="165" width="4.99231" height="4.99231" fill="black"/>
<rect x="9.98438" y="165" width="4.99231" height="4.99231" fill="black"/>
<rect x="19.9688" y="165" width="4.99231" height="4.99231" fill="black"/>
<rect y="175" width="4.99231" height="4.99231" fill="black"/>
<rect x="9.98438" y="175" width="4.99231" height="4.99231" fill="black"/>
<rect x="19.9688" y="175" width="4.99231" height="4.99231" fill="black"/>
<rect y="185" width="4.99231" height="4.99231" fill="black"/>
<rect x="9.98438" y="185" width="4.99231" height="4.99231" fill="black"/>
<rect x="19.9688" y="185" width="4.99231" height="4.99231" fill="black"/>
<rect y="195" width="4.99231" height="4.99231" fill="black"/>
<rect x="9.98438" y="195" width="4.99231" height="4.99231" fill="black"/>
<rect x="19.9688" y="195" width="4.99231" height="4.99231" fill="black"/>
<rect y="205" width="4.99231" height="4.99231" fill="black"/>
<rect x="9.98438" y="205" width="4.99231" height="4.99231" fill="black"/>
<rect x="19.9688" y="205" width="4.99231" height="4.99231" fill="black"/>
<rect y="215" width="4.99231" height="4.99231" fill="black"/>
<rect x="9.98438" y="215" width="4.99231" height="4.99231" fill="black"/>
<rect x="19.9688" y="215" width="4.99231" height="4.99231" fill="black"/>
<rect y="225" width="4.99231" height="4.99231" fill="black"/>
<rect x="9.98438" y="225" width="4.99231" height="4.99231" fill="black"/>
<rect x="19.9688" y="225" width="4.99231" height="4.99231" fill="black"/>
<rect y="235" width="4.99231" height="4.99231" fill="black"/>
<rect x="9.98438" y="235" width="4.99231" height="4.99231" fill="black"/>
<rect x="19.9688" y="235" width="4.99231" height="4.99231" fill="black"/>
<rect y="245" width="4.99231" height="4.99231" fill="black"/>
<rect x="9.98438" y="245" width="4.99231" height="4.99231" fill="black"/>
<rect x="19.9688" y="245" width="4.99231" height="4.99231" fill="black"/>
<rect y="255" width="4.99231" height="4.99231" fill="black"/>
<rect x="9.98438" y="255" width="4.99231" height="4.99231" fill="black"/>
<rect x="19.9688" y="255" width="4.99231" height="4.99231" fill="black"/>
<rect y="265" width="4.99231" height="4.99231" fill="black"/>
<rect x="9.98438" y="265" width="4.99231" height="4.99231" fill="black"/>
<rect x="19.9688" y="265" width="4.99231" height="4.99231" fill="black"/>
<rect y="275" width="4.99231" height="4.99231" fill="black"/>
<rect x="9.98438" y="275" width="4.99231" height="4.99231" fill="black"/>
<rect x="19.9688" y="275" width="4.99231" height="4.99231" fill="black"/>
<rect y="285" width="4.99231" height="4.99231" fill="black"/>
<rect x="9.98438" y="285" width="4.99231" height="4.99231" fill="black"/>
<rect x="19.9688" y="285" width="4.99231" height="4.99231" fill="black"/>
<rect y="295" width="4.99231" height="4.99231" fill="black"/>
<rect x="9.98438" y="295" width="4.99231" height="4.99231" fill="black"/>
<rect x="19.9688" y="295" width="4.99231" height="4.99231" fill="black"/>
<rect y="305" width="4.99231" height="4.99231" fill="black"/>
<rect x="9.98438" y="305" width="4.99231" height="4.99231" fill="black"/>
<rect x="19.9688" y="305" width="4.99231" height="4.99231" fill="black"/>
<rect y="315" width="4.99231" height="4.99231" fill="black"/>
<rect x="9.98438" y="315" width="4.99231" height="4.99231" fill="black"/>
<rect x="19.9688" y="315" width="4.99231" height="4.99231" fill="black"/>
<rect y="325" width="4.99231" height="4.99231" fill="black"/>
<rect x="9.98438" y="325" width="4.99231" height="4.99231" fill="black"/>
<rect x="19.9688" y="325" width="4.99231" height="4.99231" fill="black"/>
<rect y="335" width="4.99231" height="4.99231" fill="black"/>
<rect x="9.98438" y="335" width="4.99231" height="4.99231" fill="black"/>
<rect x="19.9688" y="335" width="4.99231" height="4.99231" fill="black"/>
<rect y="345" width="4.99231" height="4.99231" fill="black"/>
<rect x="9.98438" y="345" width="4.99231" height="4.99231" fill="black"/>
<rect x="19.9688" y="345" width="4.99231" height="4.99231" fill="black"/>
<rect y="355" width="4.99231" height="4.99231" fill="black"/>
<rect x="9.98438" y="355" width="4.99231" height="4.99231" fill="black"/>
<rect x="19.9688" y="355" width="4.99231" height="4.99231" fill="black"/>
<rect y="365" width="4.99231" height="4.99231" fill="black"/>
<rect x="9.98438" y="365" width="4.99231" height="4.99231" fill="black"/>
<rect x="19.9688" y="365" width="4.99231" height="4.99231" fill="black"/>
<rect y="375" width="4.99231" height="4.99231" fill="black"/>
<rect x="9.98438" y="375" width="4.99231" height="4.99231" fill="black"/>
<rect x="19.9688" y="375" width="4.99231" height="4.99231" fill="black"/>
<rect y="385" width="4.99231" height="4.99231" fill="black"/>
<rect x="9.98438" y="385" width="4.99231" height="4.99231" fill="black"/>
<rect x="19.9688" y="385" width="4.99231" height="4.99231" fill="black"/>
<rect y="395" width="4.99231" height="4.99231" fill="black"/>
<rect x="9.98438" y="395" width="4.99231" height="4.99231" fill="black"/>
<rect x="19.9688" y="395" width="4.99231" height="4.99231" fill="black"/>
<rect y="405" width="4.99231" height="4.99231" fill="black"/>
<rect x="9.98438" y="405" width="4.99231" height="4.99231" fill="black"/>
<rect x="19.9688" y="405" width="4.99231" height="4.99231" fill="black"/>
<rect y="415" width="4.99231" height="4.99231" fill="black"/>
<rect x="9.98438" y="415" width="4.99231" height="4.99231" fill="black"/>
<rect x="19.9688" y="415" width="4.99231" height="4.99231" fill="black"/>
<rect y="425" width="4.99231" height="4.99231" fill="black"/>
<rect x="9.98438" y="425" width="4.99231" height="4.99231" fill="black"/>
<rect x="19.9688" y="425" width="4.99231" height="4.99231" fill="black"/>
<rect y="435" width="4.99231" height="4.99231" fill="black"/>
<rect x="9.98438" y="435" width="4.99231" height="4.99231" fill="black"/>
<rect x="19.9688" y="435" width="4.99231" height="4.99231" fill="black"/>
<rect y="445" width="4.99231" height="4.99231" fill="black"/>
<rect x="9.98438" y="445" width="4.99231" height="4.99231" fill="black"/>
<rect x="19.9688" y="445" width="4.99231" height="4.99231" fill="black"/>
<rect y="455" width="4.99231" height="4.99231" fill="black"/>
<rect x="9.98438" y="455" width="4.99231" height="4.99231" fill="black"/>
<rect x="19.9688" y="455" width="4.99231" height="4.99231" fill="black"/>
<rect y="465" width="4.99231" height="4.99231" fill="black"/>
<rect x="9.98438" y="465" width="4.99231" height="4.99231" fill="black"/>
<rect x="19.9688" y="465" width="4.99231" height="4.99231" fill="black"/>
<rect y="475" width="4.99231" height="4.99231" fill="black"/>
<rect x="9.98438" y="475" width="4.99231" height="4.99231" fill="black"/>
<rect x="19.9688" y="475" width="4.99231" height="4.99231" fill="black"/>
<rect y="485" width="4.99231" height="4.99231" fill="black"/>
<rect x="9.98438" y="485" width="4.99231" height="4.99231" fill="black"/>
<rect x="19.9688" y="485" width="4.99231" height="4.99231" fill="black"/>
<rect y="495" width="4.99231" height="4.99231" fill="black"/>
<rect x="9.98438" y="495" width="4.99231" height="4.99231" fill="black"/>
<rect x="19.9688" y="495" width="4.99231" height="4.99231" fill="black"/>
<rect y="505" width="4.99231" height="4.99231" fill="black"/>
<rect x="9.98438" y="505" width="4.99231" height="4.99231" fill="black"/>
<rect x="19.9688" y="505" width="4.99231" height="4.99231" fill="black"/>
<rect y="515" width="4.99231" height="4.99231" fill="black"/>
<rect x="9.98438" y="515" width="4.99231" height="4.99231" fill="black"/>
<rect x="19.9688" y="515" width="4.99231" height="4.99231" fill="black"/>
<rect y="525" width="4.99231" height="4.99231" fill="black"/>
<rect x="9.98438" y="525" width="4.99231" height="4.99231" fill="black"/>
<rect x="19.9688" y="525" width="4.99231" height="4.99231" fill="black"/>
<rect y="535" width="4.99231" height="4.99231" fill="black"/>
<rect x="9.98438" y="535" width="4.99231" height="4.99231" fill="black"/>
<rect x="19.9688" y="535" width="4.99231" height="4.99231" fill="black"/>
<rect y="545" width="4.99231" height="4.99231" fill="black"/>
<rect x="9.98438" y="545" width="4.99231" height="4.99231" fill="black"/>
<rect x="19.9688" y="545" width="4.99231" height="4.99231" fill="black"/>
<rect y="555" width="4.99231" height="4.99231" fill="black"/>
<rect x="9.98438" y="555" width="4.99231" height="4.99231" fill="black"/>
<rect x="19.9688" y="555" width="4.99231" height="4.99231" fill="black"/>
<rect y="565" width="4.99231" height="4.99231" fill="black"/>
<rect x="9.98438" y="565" width="4.99231" height="4.99231" fill="black"/>
<rect x="19.9688" y="565" width="4.99231" height="4.99231" fill="black"/>
<rect y="575" width="4.99231" height="4.99231" fill="black"/>
<rect x="9.98438" y="575" width="4.99231" height="4.99231" fill="black"/>
<rect x="19.9688" y="575" width="4.99231" height="4.99231" fill="black"/>
<rect y="585" width="4.99231" height="4.99231" fill="black"/>
<rect x="9.98438" y="585" width="4.99231" height="4.99231" fill="black"/>
<rect x="19.9688" y="585" width="4.99231" height="4.99231" fill="black"/>
<rect y="595" width="4.99231" height="4.99231" fill="black"/>
<rect x="9.98438" y="595" width="4.99231" height="4.99231" fill="black"/>
<rect x="19.9688" y="595" width="4.99231" height="4.99231" fill="black"/>
<rect y="605" width="4.99231" height="4.99231" fill="black"/>
<rect x="9.98438" y="605" width="4.99231" height="4.99231" fill="black"/>
<rect x="19.9688" y="605" width="4.99231" height="4.99231" fill="black"/>
<rect y="615" width="4.99231" height="4.99231" fill="black"/>
<rect x="9.98438" y="615" width="4.99231" height="4.99231" fill="black"/>
<rect x="19.9688" y="615" width="4.99231" height="4.99231" fill="black"/>
<rect y="625" width="4.99231" height="4.99231" fill="black"/>
<rect x="9.98438" y="625" width="4.99231" height="4.99231" fill="black"/>
<rect x="19.9688" y="625" width="4.99231" height="4.99231" fill="black"/>
<rect y="635" width="4.99231" height="4.99231" fill="black"/>
<rect x="9.98438" y="635" width="4.99231" height="4.99231" fill="black"/>
<rect x="19.9688" y="635" width="4.99231" height="4.99231" fill="black"/>
<rect y="645" width="4.99231" height="4.99231" fill="black"/>
<rect x="9.98438" y="645" width="4.99231" height="4.99231" fill="black"/>
<rect x="19.9688" y="645" width="4.99231" height="4.99231" fill="black"/>
</svg>
