<svg width="545" height="254" viewBox="0 0 545 254" fill="none" xmlns="http://www.w3.org/2000/svg">
<path d="M58.5203 65.6V19.7C58.5203 18.1 57.9203 16.7 56.7203 15.5C55.5203 14.3 54.1203 13.7 52.5203 13.7H39.9203C38.3203 13.7 36.9203 14.3 35.7203 15.5C34.7203 16.7 34.2203 18.1 34.2203 19.7V235.1C34.2203 236.7 34.7203 238 35.7203 239C36.9203 240.2 38.3203 240.8 39.9203 240.8H52.5203C54.1203 240.8 55.5203 240.2 56.7203 239C57.9203 238 58.5203 236.7 58.5203 235.1L58.2203 186.5H92.1203V235.1C92.1203 240.3 90.2203 244.7 86.4203 248.3C82.8203 252.1 78.4203 254 73.2203 254H19.2203C14.0203 254 9.52031 252.1 5.72031 248.3C2.12031 244.7 0.320313 240.3 0.320313 235.1V19.7C0.320313 14.5 2.12031 10.1 5.72031 6.49999C9.52031 2.7 14.0203 0.799996 19.2203 0.799996H73.2203C78.4203 0.799996 82.8203 2.7 86.4203 6.49999C90.2203 10.1 92.1203 14.5 92.1203 19.7V65.6H58.5203ZM185.036 58.7C190.236 58.7 194.636 60.6 198.236 64.4C202.036 68 203.936 72.4 203.936 77.6V105.5H170.036V77.6C170.036 76 169.436 74.6 168.236 73.4C167.236 72.2 165.936 71.6 164.336 71.6C160.336 71.6 156.936 73 154.136 75.8C151.336 78.6 149.936 82 149.936 86V254H116.336V58.7H149.936V65C149.936 63.4 150.436 62.2 151.436 61.4C152.436 60.6 153.636 60 155.036 59.6C156.436 59.2 157.936 59 159.536 59C161.336 58.8 162.936 58.7 164.336 58.7H185.036ZM255.405 0.5V34.4H221.805V0.5H255.405ZM255.405 254H221.805V58.7H255.405V254ZM352.42 58.7C357.62 58.7 362.02 60.6 365.62 64.4C369.42 68 371.32 72.4 371.32 77.6V105.5H337.72V77.6C337.72 76 337.12 74.6 335.92 73.4C334.72 72.2 333.32 71.6 331.72 71.6H319.42C317.82 71.6 316.42 72.2 315.22 73.4C314.02 74.6 313.42 76 313.42 77.6V115.7C313.42 121.3 316.02 125.6 321.22 128.6C321.82 129 323.52 130 326.32 131.6C329.32 133 332.52 134.6 335.92 136.4C339.52 138.2 342.82 140 345.82 141.8C349.02 143.4 351.22 144.5 352.42 145.1C358.22 148.1 362.82 152.5 366.22 158.3C369.62 163.9 371.32 170 371.32 176.6V234.8C371.32 240 369.42 244.5 365.62 248.3C362.02 252.1 357.62 254 352.42 254H298.72C293.52 254 289.02 252.1 285.22 248.3C281.42 244.5 279.52 240 279.52 234.8V204.5H313.42V234.8C313.42 236.4 314.02 237.8 315.22 239C316.42 240.2 317.82 240.8 319.42 240.8H331.72C333.32 240.8 334.72 240.2 335.92 239C337.12 237.8 337.72 236.4 337.72 234.8V182C337.72 179.4 337.02 177 335.62 174.8C334.22 172.6 332.42 170.8 330.22 169.4C329.62 169 327.32 167.8 323.32 165.8C319.32 163.8 314.82 161.4 309.82 158.6C305.22 156.2 300.82 154 296.62 152C292.62 149.8 290.32 148.5 289.72 148.1C286.52 146.5 284.02 144.2 282.22 141.2C280.42 138 279.52 134.6 279.52 131V77.6C279.52 72.4 281.42 68 285.22 64.4C289.02 60.6 293.52 58.7 298.72 58.7H352.42ZM428.842 0.5V34.4H395.242V0.5H428.842ZM428.842 254H395.242V58.7H428.842V254ZM525.857 58.7C531.057 58.7 535.457 60.6 539.057 64.4C542.857 68 544.757 72.4 544.757 77.6V105.5H511.157V77.6C511.157 76 510.557 74.6 509.357 73.4C508.157 72.2 506.757 71.6 505.157 71.6H492.857C491.257 71.6 489.857 72.2 488.657 73.4C487.457 74.6 486.857 76 486.857 77.6V115.7C486.857 121.3 489.457 125.6 494.657 128.6C495.257 129 496.957 130 499.757 131.6C502.757 133 505.957 134.6 509.357 136.4C512.957 138.2 516.257 140 519.257 141.8C522.457 143.4 524.657 144.5 525.857 145.1C531.657 148.1 536.257 152.5 539.657 158.3C543.057 163.9 544.757 170 544.757 176.6V234.8C544.757 240 542.857 244.5 539.057 248.3C535.457 252.1 531.057 254 525.857 254H472.157C466.957 254 462.457 252.1 458.657 248.3C454.857 244.5 452.957 240 452.957 234.8V204.5H486.857V234.8C486.857 236.4 487.457 237.8 488.657 239C489.857 240.2 491.257 240.8 492.857 240.8H505.157C506.757 240.8 508.157 240.2 509.357 239C510.557 237.8 511.157 236.4 511.157 234.8V182C511.157 179.4 510.457 177 509.057 174.8C507.657 172.6 505.857 170.8 503.657 169.4C503.057 169 500.757 167.8 496.757 165.8C492.757 163.8 488.257 161.4 483.257 158.6C478.657 156.2 474.257 154 470.057 152C466.057 149.8 463.757 148.5 463.157 148.1C459.957 146.5 457.457 144.2 455.657 141.2C453.857 138 452.957 134.6 452.957 131V77.6C452.957 72.4 454.857 68 458.657 64.4C462.457 60.6 466.957 58.7 472.157 58.7H525.857Z" fill="black"/>
</svg>
