<svg width="2528" height="1230" viewBox="0 0 2528 1230" fill="none" xmlns="http://www.w3.org/2000/svg">
<path d="M232 120C148.8 107.2 42.6667 34.6667 0 0V820H2528V140C2520 156 2369.47 182.477 2266 180C2103.25 176.104 2035.94 58.3261 1868 56C1505.45 50.9783 1359.88 340.19 1000 296C774.826 268.351 584 80 464 72C344 64 336 136 232 120Z" fill="#05B9CA"/>
<path d="M232 530C148.8 517.2 42.6667 444.667 0 410V1230H2528V550C2520 566 2369.47 592.477 2266 590C2103.25 586.104 2035.94 468.326 1868 466C1505.45 460.978 1359.88 750.19 1000 706C774.826 678.351 584 490 464 482C344 474 336 546 232 530Z" fill="#05B9CA"/>
</svg>
