<svg width="2448" height="2037" viewBox="0 0 2448 2037" fill="none" xmlns="http://www.w3.org/2000/svg">
<path d="M436 1811.39C224.8 2029.83 57.3333 1902.4 0 1811.39V0H2448V1730.62C2410.67 1775.49 2309.6 1870.61 2204 1892.15C2072 1919.07 2004 1749.85 1856 1769.08C1708 1788.31 1664 1911.38 1504 1919.07C1344 1926.76 1280 1811.39 1160 1749.85C1040 1688.32 1064 1869.07 904 1865.23C744 1861.38 700 1538.33 436 1811.39Z" fill="#FEE050"/>
<path d="M2447.91 2019C2448.03 2017.88 2448.03 2016.71 2447.91 2015.5V1699H0V1951C45.4058 1973.67 182.692 2019 368.589 2019C600.961 2019 737.179 1951 989.582 1951C1241.99 1951 1310.09 2019 1566.5 2019C1822.91 2019 1814.9 1963 2135.41 1951C2381.01 1941.8 2445.28 1988.15 2447.91 2015.5V2019Z" fill="#FEE050"/>
</svg>
