<svg width="299" height="335" viewBox="0 0 299 335" fill="none" xmlns="http://www.w3.org/2000/svg">
<path d="M204 66C209.523 66 214 61.5228 214 56C214 50.4772 209.523 46 204 46C198.477 46 194 50.4772 194 56C194 61.5228 198.477 66 204 66Z" fill="white"/>
<path d="M34.7488 7.53553L31.2133 4L10.0001 25.2132L13.5356 28.7487L34.7488 7.53553Z" fill="#FD96B3"/>
<path d="M295.213 24.7489L298.749 21.2134L277.536 0.000175834L274 3.53571L295.213 24.7489Z" fill="#05B9CA"/>
<path d="M15 310C20.5 310 25 314.5 25 320C25 325.5 20.5 330 15 330C9.5 330 5 325.5 5 320C5 314.5 9.5 310 15 310ZM15 305C6.7 305 0 311.7 0 320C0 328.3 6.7 335 15 335C23.3 335 30 328.3 30 320C30 311.7 23.3 305 15 305Z" fill="white"/>
<path d="M284 205C286.761 205 289 202.761 289 200C289 197.239 286.761 195 284 195C281.239 195 279 197.239 279 200C279 202.761 281.239 205 284 205Z" fill="#05B9CA"/>
</svg>
