<svg width="289" height="292" viewBox="0 0 289 292" fill="none" xmlns="http://www.w3.org/2000/svg">
<path d="M161.395 45.8137C140.606 -7.14984 61.0347 33.0012 61.0347 33.0012L73.3856 55.6377C73.3856 55.6377 126.927 26.5319 136.927 53.8049C146.928 81.078 73.7267 94.2908 98.7848 141.364C123.843 188.438 171.652 136.667 185.478 169.397C199.29 202.092 129.295 200.833 145.187 250.832C161.079 300.83 254.177 274.106 254.177 274.106L235.922 247.206C235.922 247.206 172.839 268.402 168.501 242.693C164.162 216.985 235.067 212.582 207.933 158.809C180.799 105.035 135.632 162.27 121.386 129.625C106.875 96.3727 182.184 98.7772 161.395 45.8137Z" fill="#19057A" stroke="#19057A" stroke-width="5"/>
<path d="M133.395 37.8137C112.606 -15.1498 33.0347 25.0012 33.0347 25.0012L45.3856 47.6377C45.3856 47.6377 98.927 18.5319 108.927 45.8049C118.928 73.078 45.7267 86.2908 70.7848 133.364C95.843 180.438 143.652 128.667 157.478 161.397C171.29 194.092 101.295 192.833 117.187 242.832C133.079 292.83 226.177 266.106 226.177 266.106L207.922 239.206C207.922 239.206 144.839 260.402 140.501 234.693C136.162 208.985 207.067 204.582 179.933 150.809C152.799 97.0351 107.632 154.27 93.3862 121.625C78.8751 88.3727 154.184 90.7772 133.395 37.8137Z" fill="#05B9CA" stroke="#19057A" stroke-width="5"/>
</svg>
