<svg width="405" height="411" viewBox="0 0 405 411" fill="none" xmlns="http://www.w3.org/2000/svg">
<g clip-path="url(#clip0)">
<path d="M135.015 168.37L132.7 167.437L131.763 169.749L100.257 247.474L72.1591 236.145L115.702 128.726L193.228 159.984L195.542 160.917L196.48 158.605L227.985 80.8799L335.125 124.079L324.027 151.459L247.298 120.524L244.984 119.591L244.046 121.903L212.541 199.628L135.015 168.37Z" fill="#19057A" stroke="#19057A" stroke-width="5"/>
<path d="M117.903 178.748L115.589 177.815L114.652 180.127L83.1458 257.852L55.0477 246.523L98.5908 139.104L176.117 170.362L178.431 171.295L179.368 168.982L210.874 91.2576L318.014 134.456L306.915 161.837L230.187 130.901L227.873 129.968L226.935 132.281L195.43 210.005L117.903 178.748Z" fill="white" stroke="#19057A" stroke-width="5"/>
</g>
<defs>
<clipPath id="clip0">
<rect width="272.87" height="308.603" fill="white" transform="translate(218.482 410.872) rotate(-142.988)"/>
</clipPath>
</defs>
</svg>
