<svg width="421" height="168" viewBox="0 0 421 168" fill="none" xmlns="http://www.w3.org/2000/svg">
<path d="M10 102C15.5228 102 20 97.5228 20 92C20 86.4772 15.5228 82 10 82C4.47715 82 0 86.4772 0 92C0 97.5228 4.47715 102 10 102Z" fill="#FD96B3"/>
<path d="M131.749 146.536L128.213 143L107 164.213L110.536 167.749L131.749 146.536Z" fill="#05B9CA"/>
<path d="M417.213 136.749L420.749 133.213L399.536 112L396 115.536L417.213 136.749Z" fill="#1A067A"/>
<path d="M132 5C137.5 5 142 9.5 142 15C142 20.5 137.5 25 132 25C126.5 25 122 20.5 122 15C122 9.5 126.5 5 132 5ZM132 0C123.7 0 117 6.7 117 15C117 23.3 123.7 30 132 30C140.3 30 147 23.3 147 15C147 6.7 140.3 0 132 0Z" fill="white"/>
</svg>
