<svg width="323" height="268" viewBox="0 0 323 268" fill="none" xmlns="http://www.w3.org/2000/svg">
<path d="M126 30C134.284 30 141 23.2843 141 15C141 6.71573 134.284 0 126 0C117.716 0 111 6.71573 111 15C111 23.2843 117.716 30 126 30Z" fill="white"/>
<path d="M308 90C313.523 90 318 85.5228 318 80C318 74.4772 313.523 70 308 70C302.477 70 298 74.4772 298 80C298 85.5228 302.477 90 308 90Z" fill="#19057A"/>
<path d="M322.974 174.161L319.439 170.625L298.226 191.839L301.761 195.374L322.974 174.161Z" fill="#1A067A"/>
<path d="M21.2132 267.749L24.7487 264.213L3.53555 243L1.18613e-05 246.536L21.2132 267.749Z" fill="#05B9CA"/>
</svg>
