<svg width="644" height="480" viewBox="0 0 644 480" fill="none" xmlns="http://www.w3.org/2000/svg">
<path d="M34 416C38.4183 416 42 412.418 42 408C42 403.582 38.4183 400 34 400C29.5817 400 26 403.582 26 408C26 412.418 29.5817 416 34 416Z" fill="#FD96B3"/>
<path d="M72.6588 152L66.0151 172.101L89.7013 166.346L82.0551 185.604L105.741 179.849" stroke="#05B9CA" stroke-width="5"/>
<path d="M502.629 87.7906L483.628 30.7905" stroke="#FEE050" stroke-width="5"/>
<path d="M579 183.5C584.799 183.5 589.5 178.799 589.5 173C589.5 167.201 584.799 162.5 579 162.5C573.201 162.5 568.5 167.201 568.5 173C568.5 178.799 573.201 183.5 579 183.5Z" stroke="#F2F2F2" stroke-width="5"/>
</svg>
