<svg width="274" height="222" viewBox="0 0 274 222" fill="none" xmlns="http://www.w3.org/2000/svg">
<path d="M234.928 39.337L217.607 49.337L213.277 51.837L215.777 56.1671C219.277 62.2293 217.191 70.0156 211.129 73.5156C205.066 77.0156 197.28 74.9293 193.78 68.8671L191.48 64.8834C179.817 44.4818 153.589 37.4541 133.237 49.2041C112.886 60.9541 105.858 87.1818 117.608 107.533L119.908 111.517C123.408 117.579 121.322 125.366 115.26 128.866C109.197 132.366 101.411 130.279 97.9111 124.217L95.6111 120.233C83.8611 99.8818 57.6334 92.8541 37.2818 104.604C16.9302 116.354 9.90249 142.582 21.6525 162.933L22.8025 164.925L24.1525 167.264L34.1525 184.584L38.4826 182.084L55.8031 172.084L60.1333 169.584L57.6333 165.254C54.1333 159.192 56.2196 151.405 62.2818 147.905C68.344 144.405 76.1303 146.492 79.6303 152.554L81.9303 156.538C93.6803 176.889 119.908 183.917 140.26 172.167C160.611 160.417 167.639 134.189 155.889 113.838L153.589 109.854C150.089 103.792 152.175 96.0054 158.237 92.5054C164.3 89.0054 172.086 91.0917 175.586 97.1539L177.886 101.138C189.636 121.489 215.864 128.517 236.215 116.767C256.567 105.017 263.594 78.7892 251.844 58.4376L241.844 41.1171L239.344 36.787L234.928 39.337Z" fill="#1A067A"/>
<path d="M220.107 53.6671C225.007 62.1541 222.116 72.9457 213.629 77.8457C205.142 82.7457 194.35 79.8541 189.45 71.367L187.15 67.3833C176.75 49.37 153.664 43.1842 135.651 53.5842C117.637 63.9842 111.452 87.07 121.852 105.083L124.152 109.067C129.052 117.554 126.16 128.346 117.673 133.246C109.186 138.146 98.3943 135.254 93.4943 126.767L91.1943 122.783C80.8809 104.72 57.7951 98.5342 39.7818 108.934C21.7684 119.334 15.5826 142.42 25.9826 160.433L43.3031 150.433C38.4031 141.946 41.2947 131.155 49.7818 126.255C58.2688 121.355 69.0604 124.246 73.9604 132.733L76.2604 136.717C86.6604 154.73 109.746 160.916 127.76 150.516C145.773 140.116 151.959 117.03 141.559 99.0171L139.259 95.0333C134.359 86.5463 137.25 75.7547 145.737 70.8547C154.224 65.9547 165.016 68.8463 169.916 77.3333L172.216 81.3171C182.616 99.3304 205.702 105.516 223.715 95.1162C241.729 84.7162 247.914 61.6304 237.514 43.617L220.107 53.6671Z" fill="white"/>
</svg>
