<svg width="345" height="244" viewBox="0 0 345 244" fill="none" xmlns="http://www.w3.org/2000/svg">
<path d="M166 244C174.284 244 181 237.284 181 229C181 220.716 174.284 214 166 214C157.716 214 151 220.716 151 229C151 237.284 157.716 244 166 244Z" fill="white"/>
<path d="M47 20C52.5228 20 57 15.5228 57 10C57 4.47715 52.5228 0 47 0C41.4772 0 37 4.47715 37 10C37 15.5228 41.4772 20 47 20Z" fill="#FEE050"/>
<path d="M344.749 68.5355L341.213 65L320 86.2132L323.536 89.7487L344.749 68.5355Z" fill="#1A067A"/>
<path d="M5 189C7.76142 189 10 186.761 10 184C10 181.239 7.76142 179 5 179C2.23858 179 0 181.239 0 184C0 186.761 2.23858 189 5 189Z" fill="#19057A"/>
</svg>
