<svg width="3438" height="400" viewBox="0 0 3438 400" fill="none" xmlns="http://www.w3.org/2000/svg">
<path fill-rule="evenodd" clip-rule="evenodd" d="M0 280V400H3438V278.569C3422.75 267.741 3323.41 198.706 3247.5 182.821C3192.92 171.398 3151.06 182.179 3107.44 193.418C3072.56 202.402 3036.56 211.679 2992 210.137C2876.71 206.148 2793.1 153.589 2711.1 102.04C2629.14 50.5156 2548.78 0 2440 0C2285.77 0 2147.59 66.8685 2010.44 133.233C1954.06 160.513 1897.86 187.707 1840.8 210.137C1744.39 248.032 1642.9 276.713 1538.81 280C1445.87 280 1357.2 255.638 1268.66 231.31C1180.35 207.049 1092.17 182.821 1000 182.821C896.857 182.821 858.418 205.537 822.978 226.481C797.078 241.787 772.781 256.147 726 260C639.925 267.09 574.265 236.428 509.392 206.134C440.532 173.978 372.559 142.237 282 156.5C163.238 175.206 0 280 0 280Z" fill="#FEE050"/>
</svg>
