<svg width="1920" height="2660" viewBox="0 0 1920 2660" fill="none" xmlns="http://www.w3.org/2000/svg">
<rect width="1920" height="2660" fill="#1C1C1C"/>
<path d="M1527 2558V2481.27H1538.71V2558H1527ZM1542.61 2558V2481.27H1546.51V2558H1542.61ZM1558.21 2558V2481.27H1566.02V2558H1558.21ZM1537.14 2569.31H1540.27L1543.52 2589.73L1548.46 2571.53H1549.5L1554.31 2589.86L1557.04 2569.31H1559.9L1555.22 2599.49H1553.92L1548.72 2579.85L1543.39 2599.49H1541.96L1537.14 2569.31ZM1569.93 2558V2481.27H1573.83V2558H1569.93ZM1585.54 2558V2481.27H1593.34V2558H1585.54ZM1597.24 2558V2481.27H1601.14V2558H1597.24ZM1582.15 2569.31H1600.62V2572.31H1585.28V2582.19H1598.02V2585.31H1585.28V2596.5H1600.49V2599.49H1582.15V2569.31ZM1612.86 2558V2481.27H1616.76V2558H1612.86ZM1628.46 2558V2481.27H1632.37V2558H1628.46ZM1636.27 2558V2481.27H1644.07V2558H1636.27ZM1624.56 2569.31H1633.15C1636.44 2569.31 1638.91 2569.97 1640.56 2571.27C1642.29 2572.57 1643.16 2574.39 1643.16 2576.73C1643.16 2578.2 1642.77 2579.55 1641.99 2580.76C1641.12 2581.97 1640 2582.84 1638.61 2583.36C1640.34 2583.97 1641.73 2584.97 1642.77 2586.35C1643.81 2587.83 1644.33 2589.39 1644.33 2591.03C1644.33 2593.64 1643.38 2595.72 1641.47 2597.28C1639.65 2598.75 1636.83 2599.49 1633.02 2599.49H1624.56V2569.31ZM1632.63 2581.8C1637.4 2581.8 1639.78 2580.2 1639.78 2576.99C1639.78 2575.6 1639.22 2574.47 1638.09 2573.61C1637.05 2572.65 1635.4 2572.18 1633.15 2572.18H1627.81V2581.8H1632.63ZM1633.67 2596.5C1638.35 2596.5 1640.69 2594.59 1640.69 2590.77C1640.69 2586.7 1638.05 2584.66 1632.76 2584.66H1627.81V2596.5H1633.67ZM1655.79 2558V2481.27H1663.59V2558H1655.79ZM1667.49 2558V2481.27H1675.3V2558H1667.49ZM1683.1 2558V2481.27H1690.9V2558H1683.1ZM1698.72 2558V2481.27H1706.52V2558H1698.72ZM1710.42 2558V2481.27H1722.13V2558H1710.42ZM1726.03 2558V2481.27H1729.93V2558H1726.03ZM1720.04 2600.01C1716.14 2600.01 1712.98 2598.71 1710.55 2596.11L1712.37 2593.12L1712.5 2592.73L1712.89 2592.86C1712.89 2592.94 1712.94 2593.12 1713.02 2593.38C1713.02 2593.55 1713.11 2593.77 1713.28 2594.03C1713.37 2594.2 1713.54 2594.37 1713.8 2594.55C1715.62 2596.11 1717.88 2596.89 1720.57 2596.89C1722.3 2596.89 1723.77 2596.41 1724.99 2595.46C1726.2 2594.42 1726.81 2593.2 1726.81 2591.81C1726.81 2590.86 1726.59 2590.04 1726.16 2589.34C1725.81 2588.74 1725.16 2588.13 1724.21 2587.52C1723.25 2586.92 1721.78 2586.18 1719.78 2585.31C1716.84 2584.18 1714.71 2582.88 1713.41 2581.41C1712.2 2579.94 1711.59 2578.29 1711.59 2576.47C1711.59 2574.21 1712.41 2572.39 1714.06 2571.01C1715.71 2569.62 1717.92 2568.92 1720.7 2568.92C1722.34 2568.92 1723.9 2569.27 1725.38 2569.97C1726.76 2570.66 1728.02 2571.57 1729.15 2572.7L1726.94 2575.69L1726.68 2575.43C1726.68 2575.34 1726.63 2575.21 1726.55 2575.04C1726.55 2574.78 1726.46 2574.56 1726.29 2574.39C1726.2 2574.13 1726.03 2573.91 1725.77 2573.74C1725.07 2573.04 1724.25 2572.52 1723.3 2572.18C1722.43 2571.92 1721.39 2571.79 1720.17 2571.79C1718.61 2571.79 1717.4 2572.22 1716.53 2573.09C1715.58 2573.95 1715.1 2574.99 1715.1 2576.21C1715.1 2577.16 1715.28 2577.99 1715.62 2578.68C1716.06 2579.37 1716.79 2580.02 1717.83 2580.63C1718.87 2581.32 1720.43 2582.06 1722.52 2582.84C1725.38 2584.05 1727.37 2585.27 1728.5 2586.48C1729.54 2587.78 1730.06 2589.39 1730.06 2591.29C1730.06 2592.77 1729.71 2594.16 1729.02 2595.46C1728.24 2596.76 1727.11 2597.84 1725.64 2598.71C1724.08 2599.57 1722.21 2600.01 1720.04 2600.01ZM1741.64 2558V2481.27H1749.45V2558H1741.64ZM1761.15 2558V2481.27H1765.05V2558H1761.15ZM1776.76 2558V2481.27H1780.66V2558H1776.76ZM1754.91 2596.63H1760.89V2572.18H1755.3V2569.31H1770.26V2572.18H1764.27V2596.63H1770.52V2599.49H1754.91V2596.63ZM1784.57 2558V2481.27H1792.38V2558H1784.57ZM1796.28 2558V2481.27H1807.98V2558H1796.28ZM1819.69 2558V2481.27H1823.59V2558H1819.69ZM1803.95 2572.31H1795.5V2569.31H1816.31V2572.31H1807.46V2599.49H1803.95V2572.31ZM1827.5 2558V2481.27H1831.4V2558H1827.5ZM1843.11 2558V2481.27H1850.91V2558H1843.11ZM1854.81 2558V2481.27H1858.72V2558H1854.81ZM1839.73 2569.31H1858.2V2572.31H1842.85V2582.19H1855.59V2585.31H1842.85V2596.5H1858.07V2599.49H1839.73V2569.31Z" fill="#F5F5F5"/>
<path d="M1211.27 1102.97C1212.39 1102.97 1213.45 1102.91 1214.45 1102.79L1224.36 1119.48H1229.61L1218.58 1101.67C1220.17 1101.02 1221.59 1100.19 1222.71 1099.13C1225.48 1096.71 1226.96 1093.17 1226.96 1089.1C1226.96 1081.26 1221.06 1075.24 1211.33 1075.24H1195.69V1119.48H1200.06V1102.97H1211.27ZM1200.06 1099.19V1079.02H1211.33C1218.23 1079.02 1222.59 1083.26 1222.59 1089.1C1222.59 1094.94 1218.23 1099.19 1211.33 1099.19H1200.06ZM1262.95 1105.03V1102.67C1262.95 1093.29 1256.28 1086.15 1247.32 1086.15C1238.82 1086.15 1231.69 1093.23 1231.69 1103.26C1231.69 1113.29 1238.47 1120.37 1247.91 1120.37C1253.87 1120.37 1259.18 1116.83 1262.18 1112.29L1259.35 1110.05C1256.82 1113.82 1252.86 1116.71 1247.91 1116.71C1240.83 1116.71 1236.76 1111.76 1236.11 1105.03H1262.95ZM1235.99 1101.49C1236.76 1094.65 1241.6 1089.81 1247.32 1089.81C1253.81 1089.81 1258.05 1094.77 1258.7 1101.49H1235.99ZM1286.74 1090.28C1284.62 1087.98 1281.49 1086.15 1277.48 1086.15C1271.41 1086.15 1267.45 1090.11 1267.45 1094.83C1267.45 1098.01 1268.81 1100.9 1274.83 1103.44L1279.31 1105.27C1283.09 1106.86 1284.56 1108.45 1284.56 1111.22C1284.56 1114.59 1282.2 1116.83 1277.54 1116.83C1273.71 1116.83 1269.93 1114.12 1268.34 1111.11L1265.51 1113.53C1267.1 1116.42 1271.76 1120.37 1277.54 1120.37C1284.68 1120.37 1288.69 1115.94 1288.69 1111.22C1288.69 1106.21 1284.62 1103.56 1280.25 1101.85L1275.89 1100.02C1272.76 1098.66 1271.58 1097.07 1271.58 1094.77C1271.58 1091.99 1273.29 1089.69 1277.48 1089.69C1280.2 1089.69 1282.44 1090.64 1284.15 1092.58L1286.74 1090.28ZM1299.52 1103.26C1299.52 1094.88 1305.01 1089.81 1311.79 1089.81C1318.58 1089.81 1324.06 1095.42 1324.06 1103.26C1324.06 1111.11 1318.58 1116.71 1311.79 1116.71C1305.01 1116.71 1299.52 1111.11 1299.52 1103.26ZM1295.22 1087.04V1131.28H1299.46V1113.7C1302 1117.95 1306.9 1120.37 1311.79 1120.37C1321.17 1120.37 1328.31 1113.29 1328.31 1103.26C1328.31 1093.23 1321.17 1086.15 1311.79 1086.15C1306.6 1086.15 1302 1088.51 1299.46 1092.29V1087.04H1295.22ZM1361.21 1103.26C1361.21 1111.11 1355.67 1116.71 1349.24 1116.71C1342.75 1116.71 1337.26 1111.11 1337.26 1103.26C1337.26 1095.47 1342.75 1089.87 1349.24 1089.87C1355.67 1089.87 1361.21 1095.47 1361.21 1103.26ZM1333.02 1103.26C1333.02 1113.29 1340.15 1120.37 1349.24 1120.37C1358.32 1120.37 1365.46 1113.29 1365.46 1103.26C1365.46 1093.23 1358.32 1086.21 1349.24 1086.21C1340.15 1086.21 1333.02 1093.23 1333.02 1103.26ZM1372.24 1087.04V1119.48H1376.48V1106.03C1376.48 1102.49 1376.66 1100.08 1377.07 1098.66C1378.14 1093.82 1382.91 1089.81 1388.22 1089.81C1391.94 1089.81 1394.48 1091.64 1395.83 1094.77C1396.48 1096.36 1396.89 1098.54 1396.89 1100.9V1119.48H1401.14V1100.9C1401.14 1097.54 1400.85 1094.71 1399.67 1092.53C1397.54 1088.51 1393.89 1086.15 1388.22 1086.15C1383.86 1086.15 1378.96 1088.87 1376.48 1092.94V1087.04H1372.24ZM1426.44 1090.28C1424.32 1087.98 1421.19 1086.15 1417.18 1086.15C1411.1 1086.15 1407.15 1090.11 1407.15 1094.83C1407.15 1098.01 1408.51 1100.9 1414.52 1103.44L1419.01 1105.27C1422.78 1106.86 1424.26 1108.45 1424.26 1111.22C1424.26 1114.59 1421.9 1116.83 1417.24 1116.83C1413.4 1116.83 1409.63 1114.12 1408.03 1111.11L1405.2 1113.53C1406.8 1116.42 1411.46 1120.37 1417.24 1120.37C1424.37 1120.37 1428.39 1115.94 1428.39 1111.22C1428.39 1106.21 1424.32 1103.56 1419.95 1101.85L1415.59 1100.02C1412.46 1098.66 1411.28 1097.07 1411.28 1094.77C1411.28 1091.99 1412.99 1089.69 1417.18 1089.69C1419.89 1089.69 1422.13 1090.64 1423.84 1092.58L1426.44 1090.28ZM1439.22 1087.16H1434.97V1119.48H1439.22V1087.16ZM1434.26 1080.79H1439.93V1075.12H1434.26V1080.79ZM1458.43 1119.48H1461.2L1475.36 1087.04H1470.76L1461.14 1109.75L1459.78 1113.41L1458.49 1109.75L1448.87 1087.04H1444.27L1458.43 1119.48ZM1509.62 1105.03V1102.67C1509.62 1093.29 1502.96 1086.15 1493.99 1086.15C1485.49 1086.15 1478.36 1093.23 1478.36 1103.26C1478.36 1113.29 1485.14 1120.37 1494.58 1120.37C1500.54 1120.37 1505.85 1116.83 1508.85 1112.29L1506.02 1110.05C1503.49 1113.82 1499.53 1116.71 1494.58 1116.71C1487.5 1116.71 1483.43 1111.76 1482.78 1105.03H1509.62ZM1482.66 1101.49C1483.43 1094.65 1488.27 1089.81 1493.99 1089.81C1500.48 1089.81 1504.72 1094.77 1505.37 1101.49H1482.66ZM1519.96 1116.65H1514.3V1122.31H1516.84C1516.84 1124.38 1515.95 1126.56 1514.12 1127.98L1515.6 1129.28C1517.96 1127.56 1519.96 1124.44 1519.96 1121.61V1116.65Z" fill="#F5F5F5"/>
<path d="M426.32 1079.61C423.312 1076.3 419.065 1074.06 413.166 1074.06C404.848 1074.06 399.598 1078.9 399.598 1085.21C399.598 1090.17 402.253 1093.94 409.626 1097.07L416.056 1099.66C422.84 1102.49 423.961 1105.5 423.961 1108.1C423.961 1113.05 419.655 1116.89 413.225 1116.89C407.267 1116.89 402.312 1112.76 400.247 1108.75L397.298 1111.58C399.48 1115.47 405.261 1120.66 413.225 1120.66C422.25 1120.66 428.326 1114.94 428.326 1108.1C428.326 1099.84 421.07 1097.42 417.177 1095.71L410.865 1093.06C405.91 1090.93 403.964 1088.69 403.964 1085.21C403.964 1081.32 407.267 1077.84 413.166 1077.84C417.413 1077.84 421.011 1079.55 423.548 1082.2L426.32 1079.61ZM437.013 1090.7V1109.46C437.013 1115.89 439.491 1120.37 447.513 1120.37C448.516 1120.37 449.696 1120.37 450.934 1120.19V1116.65C449.873 1116.77 448.87 1116.83 447.867 1116.83C441.85 1116.83 441.26 1114.06 441.26 1109.46V1090.7H450.934V1087.04H441.26V1078.19H437.013V1087.04H430.347V1090.7H437.013ZM482.679 1103.26C482.679 1111.11 477.193 1116.71 470.409 1116.71C463.625 1116.71 458.139 1111.11 458.139 1103.26C458.139 1095.42 463.625 1089.81 470.409 1089.81C477.193 1089.81 482.679 1094.88 482.679 1103.26ZM482.738 1087.04V1092.29C480.201 1088.51 475.6 1086.15 470.409 1086.15C461.03 1086.15 453.892 1093.23 453.892 1103.26C453.892 1113.29 461.03 1120.37 470.409 1120.37C475.305 1120.37 480.201 1117.95 482.738 1113.7V1119.48H486.985V1087.04H482.738ZM495.82 1087.04V1119.48H500.068V1106.03C500.068 1102.49 500.245 1100.08 500.657 1098.66C501.719 1093.82 506.497 1089.81 511.806 1089.81C515.523 1089.81 518.059 1091.64 519.416 1094.77C520.065 1096.36 520.478 1098.54 520.478 1100.9V1119.48H524.725V1100.9C524.725 1097.54 524.43 1094.71 523.25 1092.53C521.127 1088.51 517.469 1086.15 511.806 1086.15C507.441 1086.15 502.545 1088.87 500.068 1092.94V1087.04H495.82ZM559.756 1103.26C559.756 1111.11 554.27 1116.71 547.486 1116.71C540.703 1116.71 535.217 1111.11 535.217 1103.26C535.217 1095.42 540.703 1089.81 547.486 1089.81C554.27 1089.81 559.756 1094.88 559.756 1103.26ZM530.969 1103.26C530.969 1113.29 538.107 1120.37 547.486 1120.37C552.382 1120.37 557.279 1117.95 559.815 1113.7V1119.48H564.062V1074.06H559.815V1092.29C557.279 1088.51 552.677 1086.15 547.486 1086.15C538.107 1086.15 530.969 1093.23 530.969 1103.26ZM599.62 1103.26C599.62 1111.11 594.134 1116.71 587.35 1116.71C580.566 1116.71 575.08 1111.11 575.08 1103.26C575.08 1095.42 580.566 1089.81 587.35 1089.81C594.134 1089.81 599.62 1094.88 599.62 1103.26ZM599.679 1087.04V1092.29C597.142 1088.51 592.541 1086.15 587.35 1086.15C577.971 1086.15 570.833 1093.23 570.833 1103.26C570.833 1113.29 577.971 1120.37 587.35 1120.37C592.246 1120.37 597.142 1117.95 599.679 1113.7V1119.48H603.926V1087.04H599.679ZM612.761 1087.04V1119.48H617.009V1106.03C617.009 1102.49 617.186 1100.08 617.598 1098.66C618.719 1093.76 623.497 1089.87 629.573 1089.87V1086.15C624.323 1086.15 619.604 1088.87 617.009 1092.94V1087.04H612.761ZM660.164 1103.26C660.164 1111.11 654.678 1116.71 647.894 1116.71C641.111 1116.71 635.625 1111.11 635.625 1103.26C635.625 1095.42 641.111 1089.81 647.894 1089.81C654.678 1089.81 660.164 1094.88 660.164 1103.26ZM631.377 1103.26C631.377 1113.29 638.515 1120.37 647.894 1120.37C652.79 1120.37 657.687 1117.95 660.223 1113.7V1119.48H664.47V1074.06H660.223V1092.29C657.687 1088.51 653.085 1086.15 647.894 1086.15C638.515 1086.15 631.377 1093.23 631.377 1103.26ZM676.845 1116.65H671.182V1122.31H673.719C673.719 1124.38 672.834 1126.56 671.005 1127.98L672.48 1129.28C674.839 1127.56 676.845 1124.44 676.845 1121.61V1116.65Z" fill="#F5F5F5"/>
<path d="M427.566 1159.64C424.813 1164.36 420.225 1166.84 414.857 1166.84C406.598 1166.84 400.083 1160.42 400.083 1150.64C400.083 1140.87 406.598 1134.45 414.857 1134.45C420.041 1134.45 424.4 1136.74 427.107 1140.96L428.759 1139.91C425.685 1135.27 420.775 1132.61 414.857 1132.61C405.268 1132.61 397.973 1139.91 397.973 1150.64C397.973 1161.43 405.268 1168.67 414.857 1168.67C420.913 1168.67 426.189 1165.74 429.126 1160.78L427.566 1159.64ZM447.036 1142.02C441.576 1142.02 438.089 1145.18 436.392 1148.44V1142.71H434.327V1167.76H436.392V1157.34C436.392 1154.59 436.759 1152.34 437.126 1151.1C438.318 1147.11 442.035 1143.72 447.036 1143.72V1142.02ZM470.691 1155.23C470.691 1161.88 465.965 1166.66 460.322 1166.66C454.679 1166.66 449.953 1161.88 449.953 1155.23C449.953 1148.58 454.679 1143.81 460.322 1143.81C465.965 1143.81 470.691 1148.58 470.691 1155.23ZM447.888 1155.23C447.888 1162.89 453.394 1168.45 460.322 1168.45C467.25 1168.45 472.756 1162.89 472.756 1155.23C472.756 1147.57 467.25 1142.02 460.322 1142.02C453.394 1142.02 447.888 1147.57 447.888 1155.23ZM489.864 1144.68C488.258 1143.03 486.056 1142.02 483.303 1142.02C478.761 1142.02 475.732 1145.05 475.732 1148.49C475.732 1151.29 477.43 1153.26 481.467 1154.91L485.092 1156.38C488.395 1157.71 489.818 1159.41 489.818 1161.61C489.818 1164.87 487.432 1166.66 483.349 1166.66C480.458 1166.66 477.292 1164.91 475.824 1162.48L474.494 1163.67C475.962 1166.01 479.449 1168.4 483.349 1168.4C488.533 1168.4 491.745 1165.65 491.745 1161.61C491.745 1158.54 489.588 1156.2 485.321 1154.59L481.743 1153.12C478.852 1151.88 477.751 1150.51 477.751 1148.44C477.751 1145.92 479.586 1143.76 483.303 1143.76C485.505 1143.76 487.248 1144.5 488.717 1145.92L489.864 1144.68ZM508.75 1144.68C507.144 1143.03 504.942 1142.02 502.189 1142.02C497.647 1142.02 494.619 1145.05 494.619 1148.49C494.619 1151.29 496.316 1153.26 500.354 1154.91L503.978 1156.38C507.282 1157.71 508.704 1159.41 508.704 1161.61C508.704 1164.87 506.318 1166.66 502.235 1166.66C499.344 1166.66 496.179 1164.91 494.71 1162.48L493.38 1163.67C494.848 1166.01 498.335 1168.4 502.235 1168.4C507.419 1168.4 510.631 1165.65 510.631 1161.61C510.631 1158.54 508.474 1156.2 504.208 1154.59L500.629 1153.12C497.738 1151.88 496.637 1150.51 496.637 1148.44C496.637 1145.92 498.473 1143.76 502.189 1143.76C504.391 1143.76 506.135 1144.5 507.603 1145.92L508.75 1144.68ZM516.028 1167.76H529.746C536.72 1167.76 541.171 1163.26 541.171 1158.08C541.171 1152.85 537.087 1149.54 533.417 1148.81C536.353 1147.57 538.326 1145.09 538.326 1141.79C538.326 1137.29 534.518 1133.53 528.324 1133.53H516.028V1167.76ZM529.746 1150.18C535.39 1150.18 539.06 1153.76 539.06 1158.08C539.06 1162.3 535.39 1165.92 529.746 1165.92H518.139V1150.18H529.746ZM528.324 1135.37C533.142 1135.37 536.216 1138.26 536.216 1141.79C536.216 1145.46 533.142 1148.35 528.324 1148.35H518.139V1135.37H528.324ZM558.224 1142.02C552.764 1142.02 549.277 1145.18 547.58 1148.44V1142.71H545.515V1167.76H547.58V1157.34C547.58 1154.59 547.947 1152.34 548.314 1151.1C549.507 1147.11 553.223 1143.72 558.224 1143.72V1142.02ZM581.879 1155.23C581.879 1161.88 577.153 1166.66 571.51 1166.66C565.867 1166.66 561.141 1161.88 561.141 1155.23C561.141 1148.58 565.867 1143.81 571.51 1143.81C577.153 1143.81 581.879 1148.58 581.879 1155.23ZM559.077 1155.23C559.077 1162.89 564.582 1168.45 571.51 1168.45C578.438 1168.45 583.944 1162.89 583.944 1155.23C583.944 1147.57 578.438 1142.02 571.51 1142.02C564.582 1142.02 559.077 1147.57 559.077 1155.23ZM602.587 1145.09L609.745 1167.76H611.671L620.343 1142.71H618.278L610.754 1165.46L603.505 1142.71H601.67L594.42 1165.46L586.896 1142.71H584.831L593.503 1167.76H595.43L602.587 1145.09ZM636.112 1144.68C634.507 1143.03 632.304 1142.02 629.552 1142.02C625.009 1142.02 621.981 1145.05 621.981 1148.49C621.981 1151.29 623.679 1153.26 627.716 1154.91L631.341 1156.38C634.644 1157.71 636.067 1159.41 636.067 1161.61C636.067 1164.87 633.681 1166.66 629.597 1166.66C626.707 1166.66 623.541 1164.91 622.073 1162.48L620.743 1163.67C622.211 1166.01 625.698 1168.4 629.597 1168.4C634.782 1168.4 637.994 1165.65 637.994 1161.61C637.994 1158.54 635.837 1156.2 631.57 1154.59L627.992 1153.12C625.101 1151.88 624 1150.51 624 1148.44C624 1145.92 625.835 1143.76 629.552 1143.76C631.754 1143.76 633.497 1144.5 634.965 1145.92L636.112 1144.68ZM645.18 1142.71H643.116V1167.76H645.18V1142.71ZM642.473 1136.74H645.777V1133.44H642.473V1136.74ZM651.954 1142.71V1167.76H654.018V1157.34C654.018 1154.59 654.385 1152.52 654.752 1151.29C655.945 1147.29 659.707 1143.72 664.25 1143.72C667.415 1143.72 669.939 1145.32 671.086 1148.07C671.636 1149.36 672.003 1151.33 672.003 1153.21V1167.76H674.068V1153.21C674.068 1150.6 673.839 1148.44 672.967 1146.79C671.361 1143.81 668.471 1142.02 664.25 1142.02C659.157 1142.02 655.853 1145.23 654.018 1148.44V1142.71H651.954ZM701.636 1154.82C701.636 1161.33 696.726 1165.83 691.037 1165.83C685.348 1165.83 680.439 1161.33 680.439 1154.82C680.439 1148.3 685.348 1143.81 691.037 1143.81C696.726 1143.81 701.636 1147.89 701.636 1154.82ZM701.681 1142.71V1147.75C699.525 1144.31 695.625 1142.02 691.037 1142.02C684.018 1142.02 678.374 1147.29 678.374 1154.82C678.374 1162.34 684.018 1167.62 691.037 1167.62C694.524 1167.62 698.883 1166.2 701.681 1161.65V1166.01C701.681 1172.76 697.552 1176.06 691.404 1176.06C687.871 1176.06 684.109 1174.36 682.412 1171.57L680.989 1172.71C683.192 1175.74 687.229 1177.85 691.404 1177.85C698.883 1177.85 703.746 1173.58 703.746 1166.01V1142.71H701.681Z" fill="#F5F5F5"/>
<path d="M992.663 1119.45C992.663 1131.12 989.91 1141.21 984.404 1149.73L998.758 1163.1L993.056 1169.39L979.095 1156.61C970.706 1165.92 959.367 1170.57 945.078 1170.57C936.033 1170.57 928.627 1168.15 922.859 1163.3C917.222 1158.32 914.404 1151.5 914.404 1142.85C914.404 1136.16 916.043 1130.2 919.32 1124.95C922.597 1119.71 926.792 1115.91 931.904 1113.55C926.529 1107.26 923.842 1100.57 923.842 1093.49C923.842 1085.89 926.398 1079.99 931.511 1075.8C936.754 1071.47 943.505 1069.31 951.764 1069.31C957.925 1069.31 963.496 1071.8 968.477 1076.78C970.181 1078.48 971.427 1080.52 972.213 1082.88L966.118 1088.19C962.972 1081.37 957.663 1077.96 950.191 1077.96C939.442 1077.96 934.067 1083.14 934.067 1093.49C934.067 1098.74 936.295 1103.85 940.752 1108.83C942.457 1110.8 944.751 1113.03 947.634 1115.52C950.518 1118.01 952.747 1120.04 954.32 1121.61L978.112 1144.03C982.307 1136.56 984.404 1128.23 984.404 1119.06V1112.76H992.663V1119.45ZM923.449 1142.26C923.449 1148.29 925.481 1153.14 929.544 1156.81C933.608 1160.48 938.786 1162.31 945.078 1162.31C956.221 1162.31 965.528 1158.58 973 1151.11L949.404 1129.28L938 1119.65C933.674 1121.74 930.134 1124.76 927.382 1128.69C924.76 1132.62 923.449 1137.15 923.449 1142.26Z" fill="#F5F5F5"/>
<path d="M1219.75 1167.1H1221.95L1207.27 1132.87H1205.89L1191.21 1167.1H1193.41L1197.45 1157.56H1215.71L1219.75 1167.1ZM1206.58 1135.9L1214.93 1155.72H1198.23L1206.58 1135.9ZM1246.09 1146.36C1244.07 1143.43 1240.4 1141.36 1236.36 1141.36C1229.43 1141.36 1223.88 1146.91 1223.88 1154.58C1223.88 1162.24 1229.43 1167.79 1236.36 1167.79C1240.95 1167.79 1244.66 1165.59 1246.82 1161.78L1245.26 1160.72C1243.42 1164.17 1240.03 1166 1236.36 1166C1230.76 1166 1225.94 1161.23 1225.94 1154.58C1225.94 1147.92 1230.76 1143.15 1236.36 1143.15C1239.66 1143.15 1242.6 1144.71 1244.48 1147.42L1246.09 1146.36ZM1271.11 1146.36C1269.09 1143.43 1265.42 1141.36 1261.38 1141.36C1254.46 1141.36 1248.9 1146.91 1248.9 1154.58C1248.9 1162.24 1254.46 1167.79 1261.38 1167.79C1265.97 1167.79 1269.69 1165.59 1271.84 1161.78L1270.28 1160.72C1268.45 1164.17 1265.05 1166 1261.38 1166C1255.79 1166 1250.97 1161.23 1250.97 1154.58C1250.97 1147.92 1255.79 1143.15 1261.38 1143.15C1264.69 1143.15 1267.62 1144.71 1269.5 1147.42L1271.11 1146.36ZM1297.79 1155.49V1154.12C1297.79 1146.96 1292.65 1141.36 1285.9 1141.36C1279.43 1141.36 1273.93 1146.91 1273.93 1154.58C1273.93 1162.24 1279.21 1167.79 1286.36 1167.79C1290.95 1167.79 1294.53 1165.4 1296.91 1161.92L1295.49 1160.86C1293.47 1163.98 1290.35 1166 1286.36 1166C1280.54 1166 1276.5 1161.5 1276.13 1155.49H1297.79ZM1275.99 1153.7C1276.59 1147.42 1280.9 1143.15 1285.9 1143.15C1291.55 1143.15 1295.35 1147.51 1295.72 1153.7H1275.99ZM1315.01 1144.02C1313.4 1142.37 1311.2 1141.36 1308.45 1141.36C1303.9 1141.36 1300.88 1144.39 1300.88 1147.83C1300.88 1150.63 1302.57 1152.6 1306.61 1154.26L1310.24 1155.72C1313.54 1157.05 1314.96 1158.75 1314.96 1160.95C1314.96 1164.21 1312.58 1166 1308.49 1166C1305.6 1166 1302.44 1164.26 1300.97 1161.83L1299.64 1163.02C1301.11 1165.36 1304.59 1167.74 1308.49 1167.74C1313.68 1167.74 1316.89 1164.99 1316.89 1160.95C1316.89 1157.88 1314.73 1155.54 1310.47 1153.93L1306.89 1152.47C1304 1151.23 1302.9 1149.85 1302.9 1147.79C1302.9 1145.26 1304.73 1143.11 1308.45 1143.11C1310.65 1143.11 1312.39 1143.84 1313.86 1145.26L1315.01 1144.02ZM1333.89 1144.02C1332.29 1142.37 1330.09 1141.36 1327.33 1141.36C1322.79 1141.36 1319.76 1144.39 1319.76 1147.83C1319.76 1150.63 1321.46 1152.6 1325.5 1154.26L1329.12 1155.72C1332.43 1157.05 1333.85 1158.75 1333.85 1160.95C1333.85 1164.21 1331.46 1166 1327.38 1166C1324.49 1166 1321.32 1164.26 1319.85 1161.83L1318.52 1163.02C1319.99 1165.36 1323.48 1167.74 1327.38 1167.74C1332.56 1167.74 1335.78 1164.99 1335.78 1160.95C1335.78 1157.88 1333.62 1155.54 1329.35 1153.93L1325.77 1152.47C1322.88 1151.23 1321.78 1149.85 1321.78 1147.79C1321.78 1145.26 1323.62 1143.11 1327.33 1143.11C1329.54 1143.11 1331.28 1143.84 1332.75 1145.26L1333.89 1144.02ZM1342.96 1142.05H1340.9V1167.1H1342.96V1142.05ZM1340.25 1136.09H1343.56V1132.78H1340.25V1136.09ZM1351.85 1154.58C1351.85 1147.51 1356.57 1143.15 1362.44 1143.15C1368.32 1143.15 1373.04 1147.92 1373.04 1154.58C1373.04 1161.23 1368.32 1166 1362.44 1166C1356.57 1166 1351.85 1161.23 1351.85 1154.58ZM1349.74 1131.96V1167.1H1351.8V1161.32C1354.32 1166.05 1358.73 1167.79 1362.44 1167.79C1369.56 1167.79 1375.11 1162.24 1375.11 1154.58C1375.11 1146.91 1369.56 1141.36 1362.44 1141.36C1357.67 1141.36 1354.05 1143.57 1351.8 1147.1V1131.96H1349.74ZM1382.39 1142.05H1380.33V1167.1H1382.39V1142.05ZM1379.69 1136.09H1382.99V1132.78H1379.69V1136.09ZM1389.62 1131.96V1167.1H1391.69V1131.96H1389.62ZM1400.99 1142.05H1398.92V1167.1H1400.99V1142.05ZM1398.28 1136.09H1401.58V1132.78H1398.28V1136.09ZM1410.38 1143.84V1159.62C1410.38 1164.44 1412.26 1167.74 1418.13 1167.74C1418.82 1167.74 1419.6 1167.7 1420.42 1167.61V1165.91C1419.74 1166 1419.05 1166.05 1418.41 1166.05C1414 1166.05 1412.44 1164.03 1412.44 1159.62V1143.84H1420.42V1142.05H1412.44V1135.21H1410.38V1142.05H1404.78V1143.84H1410.38ZM1444.44 1142.05H1442.37L1432.6 1164.58L1422.83 1142.05H1420.76L1431.59 1166.41L1427.05 1176.74H1429.02L1444.44 1142.05Z" fill="#F5F5F5"/>
<path d="M537.317 1349.3L490.942 1509.01H489.844C488.746 1505.71 487.1 1499.59 484.905 1490.62C482.892 1481.47 480.606 1470.96 478.045 1459.06C475.666 1446.99 473.105 1434.37 470.361 1421.2C467.617 1408.02 465.056 1395.86 462.678 1384.7C460.482 1373.36 458.562 1363.75 456.915 1355.89C455.452 1348.02 454.537 1343.54 454.171 1342.44C451.427 1332.01 447.402 1324.79 442.097 1320.76C436.975 1316.56 430.023 1313.99 421.242 1313.08H497.802C489.387 1313.81 483.35 1316.37 479.691 1320.76C476.032 1324.97 475.209 1331.65 477.221 1340.79L501.918 1464.55L546.372 1309.79H548.842L593.57 1461.53L616.072 1359.18C618.45 1348.2 619.548 1339.7 619.365 1333.66C619.182 1327.62 617.993 1323.14 615.797 1320.21C613.785 1317.29 610.949 1315.46 607.291 1314.73C603.632 1313.99 599.424 1313.45 594.668 1313.08H656.684C651.196 1313.63 646.44 1314.45 642.415 1315.55C638.573 1316.65 635.189 1318.84 632.262 1322.13C629.335 1325.43 626.682 1330.18 624.304 1336.4C622.109 1342.44 619.913 1350.67 617.718 1361.1L585.064 1509.01H583.692L537.317 1349.3ZM772.844 1504.89V1505.17H652.928C656.038 1504.8 658.874 1504.25 661.435 1503.52C663.996 1502.79 666.1 1501.51 667.746 1499.68C669.576 1497.85 670.948 1495.29 671.862 1491.99C672.96 1488.7 673.509 1484.22 673.509 1478.55V1339.7C673.509 1334.03 672.96 1329.54 671.862 1326.25C670.948 1322.96 669.576 1320.4 667.746 1318.57C666.1 1316.74 663.996 1315.46 661.435 1314.73C658.874 1313.99 656.038 1313.45 652.928 1313.08H769.552L777.509 1359.73C776.778 1357.53 775.68 1353.97 774.216 1349.03C772.936 1344.09 770.558 1339.15 767.082 1334.21C763.606 1329.27 758.758 1324.97 752.538 1321.31C746.318 1317.47 737.903 1315.55 727.293 1315.55H695.461V1402.81H731.409C735.799 1402.81 739.275 1401.99 741.836 1400.34C744.397 1398.51 746.318 1396.32 747.599 1393.76C749.062 1391.19 750.069 1388.45 750.617 1385.52C751.349 1382.41 751.898 1379.58 752.264 1377.02V1431.07C751.898 1428.51 751.349 1425.77 750.617 1422.84C750.069 1419.92 749.062 1417.17 747.599 1414.61C746.318 1411.87 744.397 1409.67 741.836 1408.02C739.275 1406.2 735.799 1405.28 731.409 1405.28H695.461V1479.65C695.461 1484.77 695.644 1488.88 696.01 1491.99C696.559 1494.92 697.657 1497.21 699.303 1498.85C700.95 1500.5 703.419 1501.6 706.712 1502.15C710.188 1502.51 714.853 1502.7 720.707 1502.7H730.586C741.196 1502.7 749.611 1500.87 755.831 1497.21C762.051 1493.37 766.899 1488.97 770.375 1484.04C773.851 1479.1 776.229 1474.16 777.509 1469.22C778.973 1464.28 780.071 1460.71 780.802 1458.52L772.844 1504.89ZM879.141 1400.07C891.398 1401.35 901.551 1404.82 909.6 1410.49C917.65 1416.17 923.504 1422.93 927.162 1430.8C931.004 1438.48 932.651 1446.72 932.102 1455.5C931.553 1464.28 928.9 1472.33 924.144 1479.65C919.388 1486.96 912.436 1493.09 903.289 1498.03C894.142 1502.79 882.891 1505.17 869.537 1505.17H797.367C800.477 1504.8 803.313 1504.25 805.874 1503.52C808.435 1502.79 810.539 1501.51 812.186 1499.68C814.015 1497.85 815.387 1495.29 816.302 1491.99C817.399 1488.7 817.948 1484.22 817.948 1478.55V1339.7C817.948 1334.03 817.399 1329.54 816.302 1326.25C815.387 1322.96 814.015 1320.4 812.186 1318.57C810.539 1316.74 808.435 1315.46 805.874 1314.73C803.313 1313.99 800.477 1313.45 797.367 1313.08H862.128C873.287 1313.08 882.708 1315 890.392 1318.84C898.258 1322.5 904.387 1327.17 908.777 1332.84C913.168 1338.51 915.82 1344.82 916.735 1351.77C917.65 1358.72 916.826 1365.49 914.265 1372.08C911.887 1378.48 907.771 1384.24 901.917 1389.36C896.063 1394.49 888.471 1398.05 879.141 1400.07ZM839.901 1399.52H862.128C869.262 1399.52 875.208 1397.51 879.964 1393.48C884.904 1389.27 888.654 1384.06 891.215 1377.84C893.776 1371.62 895.057 1364.85 895.057 1357.53C895.24 1350.22 894.142 1343.45 891.764 1337.23C889.569 1331.01 886.001 1325.89 881.062 1321.86C876.123 1317.65 869.903 1315.55 862.402 1315.55H853.347C847.31 1316.28 843.559 1318.2 842.096 1321.31C840.632 1324.42 839.901 1330 839.901 1338.05V1399.52ZM839.901 1479.65C839.901 1484.77 840.084 1488.88 840.45 1491.99C840.815 1494.92 841.822 1497.21 843.468 1498.85C845.114 1500.5 847.584 1501.6 850.877 1502.15C854.17 1502.51 858.743 1502.7 864.597 1502.7H867.067C876.397 1502.7 884.08 1500.23 890.117 1495.29C896.337 1490.35 900.911 1484.13 903.838 1476.63C906.948 1469.13 908.503 1461.08 908.503 1452.48C908.503 1443.7 906.856 1435.56 903.563 1428.06C900.453 1420.56 895.697 1414.34 889.294 1409.4C883.074 1404.46 875.208 1401.99 865.695 1401.99H839.901V1479.65ZM1139.58 1457.14C1139.58 1465.74 1137.75 1473.33 1134.1 1479.92C1130.44 1486.32 1125.59 1491.72 1119.55 1496.11C1113.52 1500.32 1106.56 1503.52 1098.7 1505.71C1090.83 1507.91 1082.6 1509.01 1074 1509.01C1062.11 1509.01 1050.4 1506.99 1038.88 1502.97C1027.53 1498.76 1017.75 1492.27 1009.51 1483.49L1019.67 1441.23C1018.94 1452.39 1020.03 1462.08 1022.96 1470.32C1025.89 1478.36 1029.91 1485.04 1035.03 1490.35C1040.16 1495.65 1046.01 1499.59 1052.6 1502.15C1059.18 1504.71 1065.86 1505.99 1072.63 1505.99C1078.3 1505.99 1083.79 1505.07 1089.09 1503.24C1094.4 1501.41 1099.06 1498.76 1103.09 1495.29C1107.3 1491.81 1110.59 1487.42 1112.97 1482.11C1115.53 1476.81 1116.81 1470.77 1116.81 1464C1116.81 1454.67 1114.43 1446.81 1109.67 1440.4C1104.92 1433.82 1098.88 1428.06 1091.56 1423.12C1084.43 1417.99 1076.65 1413.24 1068.24 1408.85C1060.01 1404.46 1052.23 1399.79 1044.91 1394.85C1037.78 1389.73 1031.83 1383.88 1027.08 1377.29C1022.32 1370.71 1019.94 1362.75 1019.94 1353.42C1019.94 1345.73 1021.41 1339.15 1024.33 1333.66C1027.44 1327.99 1031.47 1323.42 1036.41 1319.94C1041.53 1316.28 1047.29 1313.63 1053.69 1311.98C1060.1 1310.34 1066.68 1309.51 1073.45 1309.51C1082.42 1309.51 1091.11 1310.88 1099.52 1313.63C1108.12 1316.37 1115.16 1320.12 1120.65 1324.88L1116.81 1359.45C1116.81 1351.22 1115.62 1344.18 1113.24 1338.33C1110.86 1332.29 1107.75 1327.35 1103.91 1323.51C1100.07 1319.67 1095.68 1316.83 1090.74 1315C1085.8 1313.17 1080.77 1312.26 1075.65 1312.26C1071.07 1312.26 1066.5 1312.99 1061.93 1314.45C1057.54 1315.92 1053.6 1318.11 1050.13 1321.04C1046.65 1323.96 1043.82 1327.44 1041.62 1331.46C1039.61 1335.49 1038.6 1340.15 1038.6 1345.46C1038.6 1353.33 1041.07 1360.19 1046.01 1366.04C1051.13 1371.71 1057.35 1377.02 1064.67 1381.96C1072.17 1386.71 1080.31 1391.38 1089.09 1395.95C1097.87 1400.52 1105.92 1405.65 1113.24 1411.32C1120.74 1416.81 1126.96 1423.21 1131.9 1430.53C1137.02 1437.84 1139.58 1446.72 1139.58 1457.14ZM1192.02 1478.55C1192.02 1484.22 1192.48 1488.7 1193.39 1491.99C1194.49 1495.29 1195.95 1497.85 1197.78 1499.68C1199.61 1501.51 1201.81 1502.79 1204.37 1503.52C1206.93 1504.25 1209.68 1504.8 1212.6 1505.17H1149.49C1152.6 1504.8 1155.43 1504.25 1158 1503.52C1160.56 1502.79 1162.66 1501.51 1164.31 1499.68C1166.14 1497.85 1167.51 1495.29 1168.42 1491.99C1169.52 1488.7 1170.07 1484.22 1170.07 1478.55V1339.7C1170.07 1334.03 1169.52 1329.54 1168.42 1326.25C1167.51 1322.96 1166.14 1320.4 1164.31 1318.57C1162.66 1316.74 1160.56 1315.46 1158 1314.73C1155.43 1313.99 1152.6 1313.45 1149.49 1313.08H1212.6C1209.68 1313.45 1206.93 1313.99 1204.37 1314.73C1201.81 1315.46 1199.61 1316.74 1197.78 1318.57C1195.95 1320.4 1194.49 1322.96 1193.39 1326.25C1192.48 1329.54 1192.02 1334.03 1192.02 1339.7V1478.55ZM1297.95 1478.55C1297.95 1484.22 1298.4 1488.7 1299.32 1491.99C1300.42 1495.29 1301.79 1497.85 1303.44 1499.68C1305.27 1501.51 1307.46 1502.79 1310.02 1503.52C1312.58 1504.25 1315.33 1504.8 1318.25 1505.17H1255.14C1258.25 1504.8 1261.09 1504.25 1263.65 1503.52C1266.21 1502.79 1268.31 1501.51 1269.96 1499.68C1271.79 1497.85 1273.16 1495.29 1274.07 1491.99C1275.17 1488.7 1275.72 1484.22 1275.72 1478.55V1315.55H1275.45C1264.84 1315.55 1256.42 1317.47 1250.2 1321.31C1243.98 1324.97 1239.13 1329.27 1235.66 1334.21C1232.18 1339.15 1229.71 1344.09 1228.25 1349.03C1226.97 1353.97 1225.96 1357.53 1225.23 1359.73L1233.19 1313.08H1340.21L1348.44 1359.73C1347.71 1357.53 1346.61 1353.97 1345.15 1349.03C1343.68 1344.09 1341.21 1339.15 1337.74 1334.21C1334.44 1329.27 1329.6 1324.97 1323.19 1321.31C1316.97 1317.47 1308.65 1315.55 1298.22 1315.55H1297.95V1478.55ZM1480.57 1504.89V1505.17H1360.65C1363.76 1504.8 1366.6 1504.25 1369.16 1503.52C1371.72 1502.79 1373.83 1501.51 1375.47 1499.68C1377.3 1497.85 1378.67 1495.29 1379.59 1491.99C1380.69 1488.7 1381.23 1484.22 1381.23 1478.55V1339.7C1381.23 1334.03 1380.69 1329.54 1379.59 1326.25C1378.67 1322.96 1377.3 1320.4 1375.47 1318.57C1373.83 1316.74 1371.72 1315.46 1369.16 1314.73C1366.6 1313.99 1363.76 1313.45 1360.65 1313.08H1477.28L1485.24 1359.73C1484.5 1357.53 1483.41 1353.97 1481.94 1349.03C1480.66 1344.09 1478.28 1339.15 1474.81 1334.21C1471.33 1329.27 1466.48 1324.97 1460.26 1321.31C1454.04 1317.47 1445.63 1315.55 1435.02 1315.55H1403.19V1402.81H1439.13C1443.53 1402.81 1447 1401.99 1449.56 1400.34C1452.12 1398.51 1454.04 1396.32 1455.32 1393.76C1456.79 1391.19 1457.79 1388.45 1458.34 1385.52C1459.08 1382.41 1459.62 1379.58 1459.99 1377.02V1431.07C1459.62 1428.51 1459.08 1425.77 1458.34 1422.84C1457.79 1419.92 1456.79 1417.17 1455.32 1414.61C1454.04 1411.87 1452.12 1409.67 1449.56 1408.02C1447 1406.2 1443.53 1405.28 1439.13 1405.28H1403.19V1479.65C1403.19 1484.77 1403.37 1488.88 1403.74 1491.99C1404.28 1494.92 1405.38 1497.21 1407.03 1498.85C1408.68 1500.5 1411.15 1501.6 1414.44 1502.15C1417.91 1502.51 1422.58 1502.7 1428.43 1502.7H1438.31C1448.92 1502.7 1457.34 1500.87 1463.56 1497.21C1469.78 1493.37 1474.62 1488.97 1478.1 1484.04C1481.58 1479.1 1483.95 1474.16 1485.24 1469.22C1486.7 1464.28 1487.8 1460.71 1488.53 1458.52L1480.57 1504.89Z" fill="#F5F5F5"/>
<rect x="298" y="848" width="1324" height="907" stroke="#FAEFEF" stroke-width="10"/>
</svg>
