<svg width="201" height="117" viewBox="0 0 201 117" fill="none" xmlns="http://www.w3.org/2000/svg">
<g clip-path="url(#clip0_88_235)">
<path d="M196.885 13.345H5.82271C4.65817 13.345 3.6489 14.276 3.6489 15.4398V16.9139H189.432C190.597 16.9139 191.606 17.845 191.606 19.0088V111.802H196.963C198.127 111.802 199.137 110.871 199.137 109.707V15.4398C199.059 14.276 198.127 13.345 196.885 13.345Z" fill="#040000" stroke="#040000" stroke-width="3" stroke-miterlimit="10"/>
<path d="M193.392 115.836H3.33836C2.17382 115.836 1.16455 114.905 1.16455 113.664V18.2327C1.16455 17.0689 2.09618 16.0603 3.33836 16.0603H193.469C194.634 16.0603 195.643 16.9913 195.643 18.2327V113.741C195.565 114.905 194.634 115.836 193.392 115.836Z" fill="#DD68A3" stroke="#040000" stroke-width="3" stroke-miterlimit="10"/>
<path d="M55.6651 3.87939H48.8331V17.069H55.6651V3.87939Z" fill="#040000"/>
<path d="M105.818 23.9741H86.4867V35.3793H105.818V23.9741Z" fill="white" stroke="#040000" stroke-width="3" stroke-miterlimit="10"/>
<path d="M85.3998 83.1725C92.8175 83.1725 98.8308 77.163 98.8308 69.7501C98.8308 62.3371 92.8175 56.3276 85.3998 56.3276C77.982 56.3276 71.9687 62.3371 71.9687 69.7501C71.9687 77.163 77.982 83.1725 85.3998 83.1725Z" fill="white" stroke="#040000" stroke-width="3" stroke-miterlimit="10"/>
<path d="M63.1958 18.3879C60.5562 19.4741 58.3048 22.8879 53.8019 37.5517C48.2121 55.9397 33.3836 45.8535 31.8308 76.5C30.2781 107.147 53.1808 115.836 53.1808 115.836H169.868C169.868 115.836 134.388 100.629 135.941 75.181C137.494 49.7328 139.823 16.1379 139.823 16.1379H117.386C117.386 16.1379 117.619 33.6724 111.718 44.5345C105.818 55.3966 126.392 57.7241 125.227 76.8879C124.528 88.4483 118.473 106.759 86.4867 105.905C54.5006 105.052 45.7277 75.8017 49.9201 65.9483C59.6246 43.2931 74.686 41.8966 79.5771 36.6207C84.7787 31.0345 84.2352 9.93104 63.1958 18.3879Z" fill="#F2E429" stroke="#040000" stroke-width="3" stroke-miterlimit="10"/>
<path d="M49.9201 5.04321H18.7103V16.138H49.9201V5.04321Z" fill="#DD68A3" stroke="#040000" stroke-width="3" stroke-miterlimit="10"/>
<path d="M191.373 26.1466H183.299C178.641 26.1466 174.837 22.3449 174.837 17.6897V9.62071C174.837 4.96554 171.032 1.16382 166.374 1.16382C161.716 1.16382 157.912 4.96554 157.912 9.62071V17.6897C157.912 22.3449 154.108 26.1466 149.45 26.1466H141.298C136.64 26.1466 132.835 29.9483 132.835 34.6035C132.835 39.2586 136.64 43.0604 141.298 43.0604H149.372C154.03 43.0604 157.834 46.8621 157.834 51.5173V59.5862C157.834 64.2414 161.638 68.0431 166.297 68.0431C170.955 68.0431 174.759 64.2414 174.759 59.5862V51.5949C174.759 46.9397 178.563 43.138 183.221 43.138H191.296C195.954 43.138 199.758 39.3362 199.758 34.6811C199.835 29.9483 196.031 26.1466 191.373 26.1466Z" fill="white" stroke="#040000" stroke-width="3" stroke-miterlimit="10"/>
</g>
<defs>
<clipPath id="clip0_88_235">
<rect width="201" height="117" fill="white"/>
</clipPath>
</defs>
</svg>
