<svg width="179" height="171" viewBox="0 0 179 171" fill="none" xmlns="http://www.w3.org/2000/svg">
<g clip-path="url(#clip0_88_245)">
<path d="M85.4143 117.614H69.1743C68.3006 119.001 67.2214 120.388 66.0393 121.827C56.0178 133.645 42.7585 137.961 36.2831 138.475C34.2274 138.629 32.3259 139.451 30.6813 140.684L3.23771 161.905C2.36404 162.573 1.13062 162.111 0.822267 161.135C0.822267 164.166 0.770874 166.787 0.770874 168.636C0.770874 169.921 2.20986 170.64 3.23771 169.87L30.6299 148.597C32.2231 147.364 34.176 146.542 36.2317 146.388C42.7071 145.874 56.0178 141.558 65.9879 129.74C67.2214 128.301 68.2492 126.914 69.1229 125.527H85.3629C87.3158 125.527 88.9604 123.934 88.9604 121.93V113.914C88.9604 116.021 87.3672 117.614 85.4143 117.614Z" fill="#040000" stroke="#040000" stroke-width="3" stroke-miterlimit="10"/>
<path d="M175.505 161.905L148.113 140.633C146.52 139.4 144.567 138.578 142.511 138.424C136.036 137.91 122.725 133.594 112.755 121.776C111.522 120.337 110.494 118.95 109.62 117.563H93.3801C91.4272 117.563 89.7827 115.97 89.7827 113.966V121.981C89.7827 123.934 91.3758 125.578 93.3801 125.578H109.62C110.494 126.966 111.573 128.353 112.755 129.792C122.777 141.609 136.036 145.926 142.511 146.439C144.567 146.594 146.469 147.416 148.113 148.649L175.505 169.921C176.533 170.692 177.972 169.972 177.972 168.688C177.972 166.787 177.921 164.218 177.921 161.186C177.612 162.162 176.379 162.625 175.505 161.905Z" fill="#040000" stroke="#040000" stroke-width="3" stroke-miterlimit="10"/>
<path d="M70.5619 74.0417H28.677V118.179H70.5619V74.0417Z" fill="#F2E429"/>
<path d="M89.166 92.2311H60.9001C56.6859 92.2311 53.294 88.8399 53.294 84.6265C53.294 80.4132 56.6859 77.022 60.9001 77.022H89.166V92.2311Z" fill="#F2E429" stroke="#040000" stroke-width="3" stroke-miterlimit="10"/>
<path d="M89.166 76.5595H55.3497C54.2191 76.5595 53.294 75.6346 53.294 74.5042V63.714C53.294 62.5836 54.2191 61.6587 55.3497 61.6587H84.5406C87.1103 61.6587 89.166 63.714 89.166 66.2831V76.5595Z" fill="#F2E429" stroke="#040000" stroke-width="3" stroke-miterlimit="10"/>
<path d="M29.0367 112.989C29.5507 112.476 45.6365 114.839 44.4031 80.4645L54.6816 90.1244C54.8358 90.2785 55.0413 90.3299 55.1955 90.4841C56.3775 91.5117 60.7459 92.6421 63.2641 90.5354C64.1892 89.7647 64.8059 88.7371 65.2684 87.6067C66.2449 85.1917 66.1421 82.4684 65.2684 80.0021L59.3069 63.9195C58.2791 61.1448 55.4011 59.4492 52.4203 60.0144L26.5699 64.6388C24.1031 65.1012 22.1502 66.8996 21.5334 69.3146L12.3342 105.334C11.8203 107.337 10.5868 109.084 8.8395 110.215C5.55038 112.321 0.513921 115.713 0.873669 116.175C1.3362 116.792 1.02785 152.657 0.925061 163.601C0.925061 164.885 2.36405 165.605 3.3919 164.834L30.8355 143.51C32.4287 142.277 34.3816 141.455 36.4373 141.301C42.9127 140.787 56.2234 136.471 66.1935 124.653C80.7376 107.492 71.3841 94.1322 71.3841 94.1322" fill="#F2E429"/>
<path d="M29.0367 112.989C29.5507 112.476 45.6365 114.839 44.4031 80.4645L54.6816 90.1244C54.8358 90.2785 55.0413 90.3299 55.1955 90.4841C56.3775 91.5117 60.7459 92.6421 63.2641 90.5354C64.1892 89.7647 64.8059 88.7371 65.2684 87.6067C66.2449 85.1917 66.1421 82.4684 65.2684 80.0021L59.3069 63.9195C58.2791 61.1448 55.4011 59.4492 52.4203 60.0144L26.5699 64.6388C24.1031 65.1012 22.1502 66.8996 21.5334 69.3146L12.3342 105.334C11.8203 107.337 10.5868 109.084 8.8395 110.215C5.55038 112.321 0.513921 115.713 0.873669 116.175C1.3362 116.792 1.02785 152.657 0.925061 163.601C0.925061 164.885 2.36405 165.605 3.3919 164.834L30.8355 143.51C32.4287 142.277 34.3816 141.455 36.4373 141.301C42.9127 140.787 56.2234 136.471 66.1935 124.653C80.7376 107.492 71.3841 94.1322 71.3841 94.1322" stroke="#040000" stroke-width="3" stroke-miterlimit="10" stroke-linecap="round" stroke-linejoin="round"/>
<path d="M89.166 107.286H60.5403C56.5317 107.286 53.294 104.049 53.294 100.041C53.294 96.0332 56.5317 92.7961 60.5403 92.7961H89.166V107.286Z" fill="#F2E429" stroke="#040000" stroke-width="3" stroke-miterlimit="10"/>
<path d="M85.6199 120.491H59.6667C56.172 120.491 53.294 117.665 53.294 114.12C53.294 110.626 56.1206 107.749 59.6667 107.749H89.166V116.895C89.166 118.898 87.5728 120.491 85.6199 120.491Z" fill="#F2E429" stroke="#040000" stroke-width="3" stroke-miterlimit="10"/>
<path d="M108.56 118.223L150.445 118.223L150.445 74.0853L108.56 74.0853L108.56 118.223Z" fill="#19ADB1" stroke="#040000" stroke-width="3" stroke-miterlimit="10"/>
<path d="M89.9369 92.2311H118.203C122.417 92.2311 125.809 88.8399 125.809 84.6265C125.809 80.4132 122.417 77.022 118.203 77.022H89.9369V92.2311Z" fill="#19ADB1" stroke="#040000" stroke-width="3" stroke-miterlimit="10"/>
<path d="M89.9369 76.5595H123.753C124.884 76.5595 125.809 75.6346 125.809 74.5042V63.714C125.809 62.5836 124.884 61.6587 123.753 61.6587H94.5622C91.9926 61.6587 89.9369 63.714 89.9369 66.2831V76.5595Z" fill="#19ADB1" stroke="#040000" stroke-width="3" stroke-miterlimit="10"/>
<path d="M150.066 112.989C149.552 112.476 133.466 114.839 134.7 80.4645L124.421 90.1244C124.267 90.2785 124.061 90.3299 123.907 90.4841C122.725 91.5117 118.357 92.6421 115.839 90.5354C114.914 89.7647 114.297 88.7371 113.834 87.6067C112.858 85.1917 112.961 82.4684 113.834 80.0021L119.796 63.9195C120.824 61.1448 123.702 59.4492 126.682 60.0144L152.533 64.6388C155 65.1012 156.953 66.8996 157.569 69.3146L166.769 105.334C167.283 107.337 168.516 109.084 170.263 110.215C173.552 112.321 178.589 115.713 178.229 116.175C177.767 116.792 178.075 152.657 178.178 163.601C178.178 164.885 176.739 165.605 175.711 164.834L148.319 143.562C146.726 142.329 144.773 141.507 142.717 141.352C136.241 140.839 122.931 136.523 112.961 124.705C98.4166 107.543 107.77 94.1836 107.77 94.1836" fill="#19ADB1"/>
<path d="M150.066 112.989C149.552 112.476 133.466 114.839 134.7 80.4645L124.421 90.1244C124.267 90.2785 124.061 90.3299 123.907 90.4841C122.725 91.5117 118.357 92.6421 115.839 90.5354C114.914 89.7647 114.297 88.7371 113.834 87.6067C112.858 85.1917 112.961 82.4684 113.834 80.0021L119.796 63.9195C120.824 61.1448 123.702 59.4492 126.682 60.0144L152.533 64.6388C155 65.1012 156.953 66.8996 157.569 69.3146L166.769 105.334C167.283 107.337 168.516 109.084 170.263 110.215C173.552 112.321 178.589 115.713 178.229 116.175C177.767 116.792 178.075 152.657 178.178 163.601C178.178 164.885 176.739 165.605 175.711 164.834L148.319 143.562C146.726 142.329 144.773 141.507 142.717 141.352C136.241 140.839 122.931 136.523 112.961 124.705C98.4166 107.543 107.77 94.1836 107.77 94.1836" stroke="#040000" stroke-width="3" stroke-miterlimit="10"/>
<path d="M89.9369 107.286H118.562C122.571 107.286 125.809 104.049 125.809 100.041C125.809 96.0332 122.571 92.7961 118.562 92.7961H89.9369V107.286Z" fill="#19ADB1" stroke="#040000" stroke-width="3" stroke-miterlimit="10"/>
<path d="M93.5343 120.491H119.488C122.982 120.491 125.86 117.665 125.86 114.12C125.86 110.626 123.034 107.749 119.488 107.749H89.9369V116.895C89.9369 118.898 91.5814 120.491 93.5343 120.491Z" fill="#19ADB1" stroke="#040000" stroke-width="3" stroke-miterlimit="10"/>
<path d="M89.5771 11.2013V0.770752" stroke="#040000" stroke-width="3" stroke-miterlimit="10" stroke-linecap="round" stroke-linejoin="round"/>
<path d="M89.5771 15.5688V42.1334" stroke="#040000" stroke-width="3" stroke-miterlimit="10" stroke-linecap="round" stroke-linejoin="round"/>
<path d="M105.2 30.6752L119.385 14.0273" stroke="#040000" stroke-width="3" stroke-miterlimit="10" stroke-linecap="round" stroke-linejoin="round"/>
<path d="M101.809 34.7344L94.5108 43.2638" stroke="#040000" stroke-width="3" stroke-miterlimit="10" stroke-linecap="round" stroke-linejoin="round"/>
<path d="M73.851 30.6752L59.7181 14.0273" stroke="#040000" stroke-width="3" stroke-miterlimit="10" stroke-linecap="round" stroke-linejoin="round"/>
<path d="M77.2943 34.7344L84.592 43.2638" stroke="#040000" stroke-width="3" stroke-miterlimit="10" stroke-linecap="round" stroke-linejoin="round"/>
<path d="M125.5 47.7854H98.7249" stroke="#040000" stroke-width="3" stroke-miterlimit="10" stroke-linecap="round" stroke-linejoin="round"/>
<path d="M53.551 47.7854H80.3778" stroke="#040000" stroke-width="3" stroke-miterlimit="10" stroke-linecap="round" stroke-linejoin="round"/>
</g>
<defs>
<clipPath id="clip0_88_245">
<rect width="179" height="171" fill="white"/>
</clipPath>
</defs>
</svg>
