<svg width="309" height="246" viewBox="0 0 309 246" fill="none" xmlns="http://www.w3.org/2000/svg">
<path d="M176.004 207.411H16.0194V220H176.004V207.411Z" fill="#040000"/>
<path d="M222.264 92.6316L204.503 82.1971C199.1 79.033 195.791 73.2436 195.791 66.9155V56.5483C195.791 55.6732 195.116 55 194.305 55H185.796C186.606 55 187.282 55.6732 187.282 56.5483V66.9155C187.282 73.1763 190.591 78.9657 195.993 82.1971L213.754 92.6316C214.227 92.9009 214.497 93.3721 214.497 93.978V170.049C214.497 170.588 214.227 171.126 213.754 171.395L188.092 186.138C187.619 186.408 187.349 186.946 187.349 187.485V195.092C187.349 195.967 186.674 196.64 185.864 196.64L190.793 195.9C191.604 195.9 193.36 193.611 193.36 192.803L195.926 187.552C195.926 187.013 196.196 186.475 196.669 186.206L222.331 172.136C222.804 171.867 223.074 170.722 223.074 170.116V94.0453C223.006 93.3721 222.736 92.9009 222.264 92.6316Z" fill="#040000"/>
<path d="M187.214 67.858V57.4908C187.214 56.683 186.539 56.0098 185.728 56.0098H170.871C170.061 56.0098 169.386 56.683 169.386 57.4908V194.957C169.386 195.765 170.061 196.438 170.871 196.438H185.728C186.539 196.438 187.214 195.765 187.214 194.957V187.417C187.214 186.879 187.484 186.34 187.957 186.071L213.619 171.463C214.092 171.193 214.362 170.722 214.362 170.116V94.6512C214.362 94.1126 214.092 93.6414 213.619 93.3721L195.858 83.0049C190.523 79.8409 187.214 74.0514 187.214 67.858Z" fill="#19ADB1" stroke="#040000" stroke-width="3" stroke-miterlimit="10"/>
<path d="M199.438 164.529C199.438 170.116 199.438 184.321 199.438 186.206C199.438 186.34 199.37 186.475 199.303 186.61L178.3 220H174.518L175.936 187.35C175.936 187.148 176.004 186.946 176.139 186.744C178.165 184.59 192.819 169.174 197.749 163.99C198.425 163.384 199.438 163.788 199.438 164.529Z" fill="#040000"/>
<path d="M169.318 56.0098H52.2168V166.481H169.318V56.0098Z" fill="#F2E429" stroke="#040000" stroke-width="3" stroke-miterlimit="10"/>
<path d="M155.541 72.6377H65.9934V149.786H155.541V72.6377Z" fill="white" stroke="#040000" stroke-width="3" stroke-miterlimit="10"/>
<path d="M155.541 72.6377H65.9934V81.7931H155.541V72.6377Z" fill="#19ADB1" stroke="#040000" stroke-width="3" stroke-miterlimit="10"/>
<path d="M105.027 93.776H75.3804V127.368H105.027V93.776Z" fill="#DD68A3" stroke="#040000" stroke-width="3" stroke-miterlimit="10"/>
<path d="M146.897 134.302H113.874V149.786H146.897V134.302Z" fill="#DD68A3" stroke="#040000" stroke-width="3" stroke-miterlimit="10"/>
<path d="M114.549 94.9204H146.965" stroke="#040000" stroke-width="3" stroke-miterlimit="10"/>
<path d="M114.549 103.672H146.965" stroke="#040000" stroke-width="3" stroke-miterlimit="10"/>
<path d="M114.549 112.356H146.965" stroke="#040000" stroke-width="3" stroke-miterlimit="10"/>
<path d="M114.549 121.108H133.188" stroke="#040000" stroke-width="3" stroke-miterlimit="10"/>
<path d="M174.788 203.237H17.9778C16.4921 203.237 15.5467 201.756 16.222 200.545L37.8324 164.125C38.17 163.519 38.8454 163.182 39.5882 163.182H196.399C197.884 163.182 198.83 164.663 198.154 165.875L176.544 202.295C176.206 202.901 175.531 203.237 174.788 203.237Z" fill="#F2E429" stroke="#040000" stroke-width="3" stroke-miterlimit="10"/>
<path d="M47.3545 175.435H126.908" stroke="#040000" stroke-width="3" stroke-miterlimit="10"/>
<path d="M142.643 175.435H158.108" stroke="#040000" stroke-width="3" stroke-miterlimit="10"/>
<path d="M71.8012 183.244H174.923" stroke="#040000" stroke-width="3" stroke-miterlimit="10"/>
<path d="M53.7025 191.053H148.451" stroke="#040000" stroke-width="3" stroke-miterlimit="10"/>
<path d="M176.004 203.237H16.0194V215.826H176.004V203.237Z" fill="#19ADB1" stroke="#040000" stroke-width="3" stroke-miterlimit="10"/>
</svg>
