<svg id="Capa_1" enable-background="new 0 0 511.406 511.406" height="512" viewBox="0 0 511.406 511.406" width="512" xmlns="http://www.w3.org/2000/svg" xmlns:xlink="http://www.w3.org/1999/xlink"><linearGradient id="SVGID_1_" gradientUnits="userSpaceOnUse" x1="255.5" x2="255.5" y1="39.349" y2="481.349"><stop offset=".00000083866" stop-color="#96d1f3"/><stop offset="1" stop-color="#ccfff4"/></linearGradient><linearGradient id="SVGID_2_" gradientUnits="userSpaceOnUse" x1="255.703" x2="255.703" y1="22.557" y2="488.849"><stop offset="0" stop-color="#174fa3"/><stop offset="1" stop-color="#b044af"/></linearGradient><g id="Filled_40_"><path d="m384.5 137.349-37 64-100 53-25 82 60 118-3 27h101l-55-43 7.31-57.37 57.69-68.63 72-5-33-46 6-114z" fill="#fff"/><path d="m265.5 417.349-76 64h-182v-8l154-38 61-99zm235-270 3-33-58-33-4-42-45 46-12 52 51 10z" fill="url(#SVGID_1_)"/><path d="m507.349 154.849 4.057-44.631-58.81-33.46-5.162-54.201-57.768 59.053-12.221 52.958-35.36 61.163-100.85 53.45-25.627 84.056-58.884 95.565-156.724 38.673v21.374h192.237l69.593-58.604 12.968 25.504-3.678 33.1h131.15l-68.791-53.782 6.494-50.952 54.221-64.504 82.236-5.711-39.302-54.784 5.488-104.267zm-119.036-9.11 39.355 7.717-4.929 93.653-65.376-47.836zm30.576 117.139-26.225 34.294-28.915-74.641zm-260.934 181.071 18.2 29.9h-139.375zm33.404 26.03-21.064-34.605 51.578-83.71 32.975 64.85zm39.197-134.334 21.854-71.684 59.26 20.317 19.161 52.92-12.197 95.703-32.48 12.086zm128.174 138.204h-70.851l1.565-14.081 34.741-12.927zm-35.4-201.43-57.021-19.551 77.247-40.941 38.348 98.992-38.428 45.717 2.694-21.138zm125.24 28.379-42.028 2.918 22.765-29.77zm-12.344-160.949-42.675-8.368 9.783-42.393 32.231-32.947 2.838 29.799 57.19 32.54-1.943 21.369z" fill="url(#SVGID_2_)"/></g></svg>