<svg id="Capa_1" enable-background="new 0 0 511.397 511.397" height="512" viewBox="0 0 511.397 511.397" width="512" xmlns="http://www.w3.org/2000/svg" xmlns:xlink="http://www.w3.org/1999/xlink"><linearGradient id="SVGID_1_" gradientUnits="userSpaceOnUse" x1="291.699" x2="291.699" y1="322.5" y2="500.5"><stop offset=".00000083866" stop-color="#96d1f3"/><stop offset="1" stop-color="#ccfff4"/></linearGradient><linearGradient id="SVGID_2_" gradientUnits="userSpaceOnUse" x1="215.699" x2="215.699" y1="95.5" y2="299.5"><stop offset=".00000036422" stop-color="#a8abff"/><stop offset="1" stop-color="#fac8ff"/></linearGradient><linearGradient id="SVGID_3_" gradientUnits="userSpaceOnUse" x1="255.699" x2="255.699" y1="0" y2="511.398"><stop offset="0" stop-color="#174fa3"/><stop offset="1" stop-color="#b044af"/></linearGradient><g id="Filled_42_"><path d="m85.699 7.5h340c-22.091 0-40 17.909-40 40v90 326h-340v-416c0-22.091 17.908-40 40-40z" fill="#fff"/><path d="m425.699 7.5c22.091 0 40 17.909 40 40v60h-80v-60c0-22.091 17.908-40 40-40z" fill="#fff"/><path d="m340.217 362.405c-2.851-6.875-.91-17.15-6.091-22.332s-15.457-3.241-22.332-6.092c-6.632-2.75-12.468-11.482-20.095-11.482s-13.463 8.732-20.095 11.482c-6.875 2.851-17.15.91-22.331 6.092-5.181 5.181-3.241 15.456-6.092 22.332-2.75 6.632-11.482 12.468-11.482 20.095s8.732 13.463 11.482 20.095c2.851 6.875.91 17.15 6.091 22.332 2.139 2.138 5.15 3.057 8.427 3.607v71.966l34-13 34 13v-71.966c3.277-.55 6.288-1.469 8.426-3.607 5.181-5.181 3.241-15.457 6.092-22.332 2.75-6.632 11.482-12.468 11.482-20.095s-8.732-13.463-11.482-20.095z" fill="url(#SVGID_1_)"/><circle cx="291.699" cy="382.5" fill="#fff" r="20"/><path d="m273.317 141.369 47.382-13.869-42.216-32-42.888 50.58-26.343-20.471-98.553 5.433 35.567 59.388 19.476-20.044 28.142 25.584-18.791 21.303-6.381 79.047 61.181 3.18-33.166-49.766 73.066-77.08z" fill="url(#SVGID_2_)"/><path d="m425.699 0h-340c-26.191 0-47.5 21.309-47.5 47.5v423.5h212v40.397l41.5-15.868 41.5 15.868v-40.397h60v-356h80v-67.5c0-26.191-21.309-47.5-47.5-47.5zm-94.825 411.147c-.38 3.391-.812 7.234-2.053 8.476-1.24 1.241-5.083 1.672-8.474 2.052-3.601.404-7.681.861-11.428 2.415-3.614 1.499-6.592 3.907-9.472 6.235-2.71 2.191-5.781 4.675-7.749 4.675s-5.039-2.483-7.749-4.675c-2.88-2.328-5.857-4.736-9.473-6.235-3.745-1.553-7.826-2.011-11.426-2.415-3.391-.38-7.234-.812-8.477-2.053-1.24-1.24-1.671-5.083-2.052-8.474-.403-3.601-.861-7.681-2.414-11.427-1.499-3.615-3.907-6.593-6.236-9.474-2.191-2.71-4.674-5.78-4.674-7.748s2.483-5.038 4.674-7.748c2.329-2.881 4.737-5.858 6.236-9.474 1.553-3.745 2.011-7.826 2.415-11.427.381-3.391.812-7.234 2.053-8.475 1.24-1.241 5.084-1.672 8.475-2.052 3.601-.404 7.681-.861 11.428-2.415 3.614-1.499 6.592-3.907 9.472-6.235 2.71-2.191 5.781-4.675 7.749-4.675s5.039 2.483 7.749 4.675c2.88 2.328 5.857 4.736 9.473 6.235 3.745 1.553 7.826 2.011 11.426 2.415 3.391.38 7.234.812 8.476 2.053 1.241 1.24 1.672 5.083 2.052 8.474.404 3.601.861 7.681 2.415 11.428 1.499 3.614 3.907 6.592 6.235 9.472 2.191 2.71 4.675 5.781 4.675 7.749s-2.483 5.039-4.675 7.749c-2.328 2.88-4.736 5.857-6.235 9.473-1.554 3.746-2.012 7.827-2.416 11.426zm-39.175 68.324-26.5 10.132v-52.534c1.356.215 2.592.486 3.531.876 1.614.67 3.736 2.386 5.789 4.045 4.413 3.568 9.906 8.01 17.18 8.01s12.767-4.441 17.18-8.01c2.053-1.659 4.175-3.375 5.788-4.045.94-.39 2.176-.661 3.532-.876v52.534zm86.5-23.471h-45v-21.744c2.235-.895 4.37-2.166 6.229-4.026 4.955-4.956 5.729-11.862 6.353-17.411.307-2.738.624-5.569 1.363-7.351.67-1.614 2.386-3.736 4.045-5.789 3.568-4.413 8.01-9.906 8.01-17.18s-4.441-12.767-8.01-17.18c-1.659-2.053-3.375-4.175-4.045-5.788-.739-1.782-1.057-4.614-1.363-7.353-.622-5.548-1.396-12.454-6.352-17.409s-11.862-5.729-17.411-6.353c-2.738-.307-5.569-.624-7.351-1.363-1.614-.67-3.736-2.386-5.789-4.045-4.413-3.568-9.906-8.01-17.18-8.01s-12.767 4.441-17.18 8.01c-2.053 1.659-4.175 3.375-5.788 4.045-1.782.739-4.614 1.057-7.353 1.363-5.548.622-12.454 1.396-17.41 6.353-4.955 4.955-5.729 11.86-6.352 17.409-.307 2.738-.625 5.569-1.364 7.353-.669 1.614-2.385 3.736-4.044 5.789-3.569 4.413-8.01 9.906-8.01 17.179s4.441 12.766 8.01 17.179c1.659 2.053 3.375 4.175 4.044 5.789.739 1.783 1.057 4.614 1.364 7.353.623 5.549 1.397 12.454 6.352 17.409 1.86 1.86 3.995 3.131 6.23 4.026v21.745h-197v-408.5c0-17.921 14.58-32.5 32.5-32.5h305.406c-7.994 8.504-12.906 19.936-12.906 32.5v408.5zm80-356h-65v-52.5c0-17.921 14.579-32.5 32.5-32.5s32.5 14.579 32.5 32.5zm-142.5-39h-55v-15h55zm-70 0h-130v-15h130zm-170 305h130v15h-130zm30 30h70v15h-70zm186-41c-15.163 0-27.5 12.337-27.5 27.5s12.337 27.5 27.5 27.5 27.5-12.337 27.5-27.5-12.337-27.5-27.5-27.5zm0 40c-6.893 0-12.5-5.607-12.5-12.5s5.607-12.5 12.5-12.5 12.5 5.607 12.5 12.5-5.608 12.5-12.5 12.5zm-57.176-259.252-22.883-17.782-113.758 6.271 46.963 78.417 21.22-21.839 17.307 15.734-15.554 17.634-7.203 89.226 83.798 4.355-38.128-57.211 70.679-74.563 3.234-28.71 56.86-16.791-59.703-45.256zm33.75-16.61-4.437 39.389-17.458-13.567zm-144.757 18.709 66.975-3.692-42.804 44.051zm86.436-2.197 48.706 37.849-36.262 38.254-45.872-41.701zm-33.143 153.581 4.022-49.825 34.541 51.829zm7.722-71.32 9.941-11.271 17.602 16.001-14.321 15.108zm97.49-86.81 2.44-21.659 19.879 15.068z" fill="url(#SVGID_3_)"/></g></svg>