<svg id="Capa_1" enable-background="new 0 0 494.285 494.285" height="512" viewBox="0 0 494.285 494.285" width="512" xmlns="http://www.w3.org/2000/svg" xmlns:xlink="http://www.w3.org/1999/xlink"><linearGradient id="SVGID_1_" gradientUnits="userSpaceOnUse" x1="224.534" x2="224.534" y1="100.785" y2="282.785"><stop offset=".00000036422" stop-color="#a8abff"/><stop offset="1" stop-color="#fac8ff"/></linearGradient><linearGradient id="SVGID_2_" gradientUnits="userSpaceOnUse" x1="247.143" x2="247.143" y1="0" y2="494.285"><stop offset="0" stop-color="#174fa3"/><stop offset="1" stop-color="#b044af"/></linearGradient><g id="Filled_35_"><path d="m345.534 326.785 25-58-17-90-57 1-12 59-83 10-125-10-24 44 20 204h65l-41.726-43.712 25.386-72.648 53.34-11.64 61.242 4.785 36.758 123.215h67l-55-48v-71z" fill="#fff"/><path d="m52.534 282.785-18-44 13-47 29 47zm335-179-18 15-31-18h-28l-31 18-18-15h-27l10 36 40 14 26 63h28l26-63 40-14 10-36z" fill="url(#SVGID_1_)"/><path d="m375.303 71.834 73.903-10.265 18.456-56.454-14.258-4.66-15.544 47.546-57.307 7.959 2.515-15.592 37.838-5.821 11.59-28.977-13.925-5.57-8.41 21.023-40.162 6.179-5.521 34.232-28.311 31.851h-22.265l-28.312-31.851-5.521-34.232-40.162-6.179-8.41-21.023-13.927 5.57 11.59 28.977 37.838 5.821 2.515 15.592-57.307-7.959-15.543-47.546-14.258 4.66 18.456 56.454 73.903 10.265 24.066 27.074-18.526 10.757-16.056-13.38h-39.583l13.69 49.284 40.527 14.184 9.426 22.839-10.046 49.393-76.88 9.263-120.462-9.637-36.032-58.397-18.267 66.039 18.554 45.355 20.556 209.677h89.328l-50.66-53.073 22.486-64.356 48.165-10.508 55.008 4.298 36.884 123.639h92.589l-67.5-58.909v-63.595l59.514-40.001 26.781-62.132-16.798-88.928 8.653-20.966 40.527-14.184 13.69-49.284h-39.583l-16.056 13.38-17.866-10.374zm-130.902 39.451h14.417l13.698 11.415 2.847 19.929-24.653-8.628zm-194.222 99.07 17.685 28.662-14.361 26.329-11.058-27.03zm28.252 259.711-18.208-185.715 20.564-37.701 44.797 3.584 5.351 69.561zm41.576 9.219h-28.908l7.746-22.169zm54.008-128.063-41.322 9.016 13.439-38.461-5.411-70.332 55.094 4.407 29.65 99.389zm37.249-96.055 65.77-7.924v228.391zm108.27 224.118h-27.5v-24zm43.205-211.362-23.219 53.868-47.486 31.917v-114.167l6.529-32.102 6.952 16.846h38.037l7.507-18.191zm27.51-156.638h14.417l-6.31 22.716-24.653 8.628 2.847-19.929zm-33.007 40.509-23.727 57.491h-17.963l-23.727-57.491-4.151-29.062 24.879-14.446h23.961l24.879 14.446z" fill="url(#SVGID_2_)"/></g></svg>