<svg id="Capa_1" enable-background="new 0 0 512.31 512.31" height="512" viewBox="0 0 512.31 512.31" width="512" xmlns="http://www.w3.org/2000/svg" xmlns:xlink="http://www.w3.org/1999/xlink"><linearGradient id="SVGID_1_" gradientUnits="userSpaceOnUse" x1="252.587" x2="252.587" y1="7.81" y2="499.81"><stop offset=".00000036422" stop-color="#a8abff"/><stop offset="1" stop-color="#fac8ff"/></linearGradient><linearGradient id="SVGID_2_" gradientUnits="userSpaceOnUse" x1="256.155" x2="256.155" y1="0" y2="512.31"><stop offset="0" stop-color="#174fa3"/><stop offset="1" stop-color="#b044af"/></linearGradient><g id="Filled_45_"><path d="m170.087 197.81 20.861-13.908-25.861-27.092-14-51 79-76h96l79 76-14 51-26.868 28.147 41.868 46.853 25 79-30 34-59.2-30.57-49.8 105.57 39 12 20 36-20 37h-161l-48-78-14-137z" fill="#fff"/><path d="m326.087 29.81 18-17 38-5 41 28 1 52-19 18zm-96 0-18-17-38-5-41 28-1 52 19 18zm-108 397-33 8-8 44 34 21 36-27zm227-226-41-64h-60l-41 64z" fill="url(#SVGID_1_)"/><path d="m402.842 354.156 36.675-41.565-26.765-84.578-38.325-42.888 23.392-24.506 13.947-50.805 19.884-18.837-1.138-59.179-46.562-31.798-43.248 5.69-17.597 16.62h-90.037l-17.596-16.62-43.248-5.69-46.562 31.798-1.138 59.179 19.884 18.837 13.947 50.805 20.998 21.999-14.659 9.773-64.344 95.479 13.611 133.192-31.38 7.608-9.788 53.832 42.704 26.376 33.039-24.78 17.361 28.211h169.663l24.081-44.55-23.462-42.23-33.617-10.344 42.788-90.711zm19.815-45.128-23.325 26.435-66.394-34.276 69.332-56.581zm-75.185-289.099 32.752-4.31 35.438 24.202.862 44.821-11.398 10.798-68.17-65.582zm-196.425 75.512-11.398-10.798.862-44.821 35.438-24.202 32.752 4.31 10.515 9.931zm8.453 12.683 73.609-70.814h89.956l73.609 70.814-12.319 44.876-34.102 35.726-38.064-59.417h-68.205l-38.064 59.417-34.102-35.726zm118.587 49.72-12.688-13.534h25.376zm-28.882-8.876 21.382 22.807v21.534h-49.788zm36.382 22.807 21.382-22.807 28.406 44.341h-49.788zm-95.717 21.86 14.008 14.675h148.419l11.741-12.3 31.231 34.949-76.862 62.727-151.261-78.09 8.334-12.366zm-62.319 212.874-10.917-106.832 74.86 18.716zm-12.873 84.232-25.296-15.624 6.212-34.168 22.963-5.566 22.084 35.887zm227.857-22.882-15.919 29.45h-152.338l-43.173-70.156 73.38-101.122 83.259 100.289 38.252 11.77zm-52.204-61.906-82.042-98.824-88.003-22 38.42-57.011 173.306 89.471zm35.256-304.143h-15v-16h15zm-80 0h-15v-16h15z" fill="url(#SVGID_2_)"/></g></svg>