<svg id="Capa_1" enable-background="new 0 0 511 511" height="512" viewBox="0 0 511 511" width="512" xmlns="http://www.w3.org/2000/svg" xmlns:xlink="http://www.w3.org/1999/xlink"><linearGradient id="SVGID_1_" gradientUnits="userSpaceOnUse" x1="248.25" x2="248.25" y1="423.5" y2="503.5"><stop offset=".00000083866" stop-color="#96d1f3"/><stop offset="1" stop-color="#ccfff4"/></linearGradient><linearGradient id="SVGID_2_" gradientUnits="userSpaceOnUse" x1="271.25" x2="271.25" y1="51.5" y2="305.5"><stop offset=".00000036422" stop-color="#a8abff"/><stop offset="1" stop-color="#fac8ff"/></linearGradient><linearGradient id="SVGID_3_" gradientUnits="userSpaceOnUse" x1="255.5" x2="255.5" y1="0" y2="511"><stop offset="0" stop-color="#174fa3"/><stop offset="1" stop-color="#b044af"/></linearGradient><g id="Filled_16_"><path d="m60.25 463.5c0-22.091 17.909-40 40-40h350v-416h-350c-22.091 0-40 17.909-40 40z" fill="#fff"/><path d="m436.25 423.5h-336c-22.091 0-40 17.909-40 40 0 22.091 17.909 40 40 40h336z" fill="url(#SVGID_1_)"/><path d="m345.306 99.14 60.944-8.91-50.738-38.73-61.271 59.118-31.145-29.395-126.846-5.404 38.054 80.163 27.455-23.116 32.806 36.138-26.738 24.808-18.121 99.979 77.92 11.709-36.192-67.596 103.239-89.127z" fill="url(#SVGID_2_)"/><path d="m443.75 496v-65h14v-431h-357.5c-26.191 0-47.5 21.309-47.5 47.5v416c0 26.191 21.309 47.5 47.5 47.5h358v-15zm-1-80h-335v-401h335zm-375-368.5c0-15.339 10.685-28.221 25-31.617v400.719c-9.584 1.527-18.225 5.922-25 12.287zm0 416c0-17.92 14.58-32.5 32.5-32.5h328.5v65h-328.5c-17.92 0-32.5-14.58-32.5-32.5zm157.5-94.5h100v15h-100zm-60-30h220v15h-220zm-41.11-271.204 47.558 100.185 29.365-24.724 22.963 25.295-23.132 21.463-19.945 110.044 100.345 15.079-40.413-75.481 100.599-86.848 10.069-47.001 73.41-10.732-70.017-53.446-60.757 58.622-27.976-26.402zm24.221 16.046 95.165 4.054-66.615 56.087zm114.45 7.426 60.672 57.261-54.592 47.13-56.346-62.07zm-64.346 196.255 12.905-71.204 42.588 79.543zm18.706-92.149 16.937-15.715 23.425 25.805-23.909 20.641zm137.729-105.216 5.466-25.517 27.176 20.744zm-11.871-16.192-12.898 60.21-25.025-23.618z" fill="url(#SVGID_3_)"/></g></svg>