<svg id="Capa_1" enable-background="new 0 0 511 511" height="512" viewBox="0 0 511 511" width="512" xmlns="http://www.w3.org/2000/svg" xmlns:xlink="http://www.w3.org/1999/xlink"><linearGradient id="SVGID_1_" gradientUnits="userSpaceOnUse" x1="209.005" x2="209.005" y1="7.5" y2="503.5"><stop offset=".00000036422" stop-color="#a8abff"/><stop offset="1" stop-color="#fac8ff"/></linearGradient><linearGradient id="SVGID_2_" gradientUnits="userSpaceOnUse" x1="255.5" x2="255.5" y1="0" y2="511"><stop offset="0" stop-color="#174fa3"/><stop offset="1" stop-color="#b044af"/></linearGradient><g id="Filled_2_"><path d="m380.505 410.5-49 53v40h-156l-25-47v-63l130-173 14-129 56-7 39-5 15 21 69 12-5 61-72 19 53.333 82-23 190 24 15v24h-70.333z" fill="#fff"/><path d="m175.505 503.5h-87l-34-32-17-81 38-50 28 54-9.487 68.937 56.487-6.937zm175-419v-77h-3l-53 84zm30 260-31-45-106.645-28.904-63.049 83.904h74.694l40 53-20 55v1h57l49-53z" fill="url(#SVGID_1_)"/><path d="m360.005 113.5h15v16h-15zm115.542 65.898-67.1 17.707 49.164 75.59-22.755 187.972 23.481 14.676v35.657h-85.333v-81.34l-34 36.776v44.564h-253.473l-37.882-35.653-18.188-86.658 47.245-62.165 34.553 66.639-8.483 61.643 40.228-4.94v-58.869l130.266-173.355 13.966-128.676 56.133-88.966h14.636v75.977l34.996-4.487 15.819 22.147 72.719 12.647zm-132.542-150.711-33.696 53.404 33.696-4.212zm-247.255 367.15-21.447-41.361-28.755 37.835 15.812 75.342 21.696 20.42zm67.27 100.163-16.717-31.428-45.642 5.605-3.554 25.823zm160.985-25h-57v-9.821l19.06-52.413-35.296-46.766h-67.212l-25.552 34.004v58.625l22.005 41.371h143.994v-25zm49-63.436v-60.731l-28.116-40.814-99.085-26.855-50.976 67.836h63.413l44.704 59.234-18.097 49.766h43.376zm20.104-206.529-108.227 26.124-29.376 39.094 98.615 26.728 33.884 49.186v153.833h55.333v-12.343l-24.519-15.324 23.245-192.028zm72.361-82.32-65.281-11.353-14.181-19.853-43.004 5.514v-.027l-41.684 5.211-12.209 112.501 105.545-25.476 66.806-17.629z" fill="url(#SVGID_2_)"/></g></svg>