<svg id="Capa_1" enable-background="new 0 0 511 511" height="512" viewBox="0 0 511 511" width="512" xmlns="http://www.w3.org/2000/svg" xmlns:xlink="http://www.w3.org/1999/xlink"><linearGradient id="SVGID_1_" gradientUnits="userSpaceOnUse" x1="251" x2="251" y1="157.625" y2="422.625"><stop offset=".00000083866" stop-color="#96d1f3"/><stop offset="1" stop-color="#ccfff4"/></linearGradient><linearGradient id="SVGID_2_" gradientUnits="userSpaceOnUse" x1="255.5" x2="255.5" y1="80.354" y2="430.646"><stop offset=".00000011981" stop-color="#174fa3"/><stop offset="1" stop-color="#b044af"/></linearGradient><g id="Filled_5_"><path d="m351.5 318.625 55-46 15-94 82-23v-45l-97-22-102 110-96-5-155 68-27 55 64 14 117 16 72-10z" fill="#fff"/><path d="m494.5 157.625v56l-21 24-9-4v-68zm-215 179 4 17.75-17 41.25 32 27 27-5 36-62-10-37-47-120zm-189-6-83-19v75z" fill="url(#SVGID_1_)"/><path d="m511 104.636-107.059-24.282-102.555 110.599-94.271-4.91-159.139 69.815-25.304 51.546-22.672-5.19v98.519l92.321-62.289 115.187 15.752 66.192-9.193 1.962 8.707-18.182 44.118 38.896 32.818 33.879-6.274 39.301-67.685-9.564-35.387 53.472-44.722 14.685-92.028 28.851-8.093v62.042l18.505 8.224 26.495-30.28v-52.608l9-2.524zm-15 45.303-68.476 19.207-11.79-70.736 80.266 18.204zm-481 222.578v-51.481l56.973 13.042zm22.693-61.674 16.101-32.798 22.301 41.589zm169.799 28.211-112.188-15.342-31.359-58.479 145.94-64.025 85.716 4.464-22.513 124.272zm113.253 71.824-20.121 3.726-25.104-21.182 15.818-38.382-4.187-18.577 20.013-110.47 37.203 94.985 9.077 33.585zm78.791-142.206-44.853 37.513-41.483-105.912 88.413-95.347 12.288 73.726zm87.464-57.865-15 17.143v-55.7l15-4.207z" fill="url(#SVGID_2_)"/></g></svg>