<svg id="Capa_1" enable-background="new 0 0 509.887 509.887" height="512" viewBox="0 0 509.887 509.887" width="512" xmlns="http://www.w3.org/2000/svg" xmlns:xlink="http://www.w3.org/1999/xlink"><linearGradient id="SVGID_1_" gradientUnits="userSpaceOnUse" x1="206.165" x2="206.165" y1="13.387" y2="502.387"><stop offset=".00000036422" stop-color="#a8abff"/><stop offset="1" stop-color="#fac8ff"/></linearGradient><linearGradient id="SVGID_2_" gradientUnits="userSpaceOnUse" x1="254.944" x2="254.944" y1="0" y2="509.887"><stop offset="0" stop-color="#174fa3"/><stop offset="1" stop-color="#b044af"/></linearGradient><g id="Filled_13_"><path d="m108.665 274.387 101-48 72-104 156 91-23 57-61 12 1 66 29 50-67.649-5.969-40.351 45.969-147 64-54-136z" fill="#fff"/><path d="m103.665 49.492v-36.105l178 109-58 84-115-70-30-36-7-64zm25 452.895h212l-65-64z" fill="url(#SVGID_1_)"/><path d="m420.1 276.962 26.948-66.784-161.538-94.231-189.345-115.947v38.316l-33.326-13.648 8.616 78.783 32.246 38.695 109.161 66.446-8.225 11.88-101.949 48.451-36.055 97.56 56.939 143.404h235.398l-72.998-71.875 33.17-37.789 78.261 6.906-35.271-60.812-.876-57.78zm-10.869-13.15-56.966 11.206-59.988 11.075-72.559-61.05 64.164-92.681 144.401 84.234zm-89.835 113.387-16.629-62.676 41.209 34.673zm-12.252-78.596 39.156-7.229.616 40.693zm-195.979-271.829 87.185 53.389-87.185-35.704zm2.464 103.854-27.754-33.305-5.384-49.217 189.695 77.685-48.771 70.447zm208.73 364.259h-157.679l109.333-47.601zm-51.224-62.707-138.358 60.238-50.08-126.126 31.945-86.44 93.886-44.619 74.26 62.481 24.69 93.063zm60.277-45.932 22.003-25.067 16.51 28.465zm-5.747-178.361h-16v-15h16z" fill="url(#SVGID_2_)"/></g></svg>