<svg id="Capa_1" enable-background="new 0 0 511 511" height="512" viewBox="0 0 511 511" width="512" xmlns="http://www.w3.org/2000/svg" xmlns:xlink="http://www.w3.org/1999/xlink"><linearGradient id="SVGID_1_" gradientUnits="userSpaceOnUse" x1="283.5" x2="283.5" y1="7.5" y2="257.5"><stop offset=".00000083866" stop-color="#96d1f3"/><stop offset="1" stop-color="#ccfff4"/></linearGradient><linearGradient id="SVGID_2_" gradientUnits="userSpaceOnUse" x1="255.5" x2="255.5" y1="0" y2="511"><stop offset="0" stop-color="#174fa3"/><stop offset="1" stop-color="#b044af"/></linearGradient><g id="Filled_46_"><path d="m367.5 382.5v-43h-33v-30h-91l-51 38h-30v-20h-60v170h60v-20h30l53 26h106v-37h16v-42h15v-42z" fill="#fff"/><path d="m303.5 237.5v72h-40v-52z" fill="#fff"/><path d="m408.5 132.5v110l-55-55-70 70h-110l55-55-70-70v-110l55 55 70-70h110l-55 55z" fill="url(#SVGID_1_)"/><circle cx="283.5" cy="132.5" fill="#fff" r="25"/><path d="m353.5 198.107 62.5 62.5v-131.213l-66.893-66.894 62.5-62.5h-131.213l-66.894 66.893-62.5-62.499v131.213l66.893 66.894-62.5 62.5h100.607v37h-14.987l-51 38h-20.013v-20h-75v185h75v-20h20.759l53 26h115.241v-37h16v-42h15v-57h-15v-43h-33v-30h-31v-61.393zm-62.5 41.287v-75.277c6.995-1.659 13.125-5.576 17.562-10.948l34.331 34.331zm-7.5-124.394c9.649 0 17.5 7.851 17.5 17.5s-7.851 17.5-17.5 17.5-17.5-7.851-17.5-17.5 7.851-17.5 17.5-17.5zm33.107 25h84.393v84.394zm73.786-15h-75.277c-1.659-6.995-5.577-13.125-10.948-17.562l34.332-34.331zm-99.393-25.607v-84.393h84.394zm-15-73.787v75.277c-6.995 1.659-13.125 5.576-17.562 10.948l-34.331-34.331zm-25.607 99.394h-84.393v-84.394zm-73.786 15h75.277c1.659 6.995 5.577 13.125 10.948 17.562l-34.332 34.331zm99.393 25.607v84.393h-84.394zm-121 324.393h-45v-155h45zm205-143v28h-40.5v15h55.5v27h-55.5v15h40.5v27h-40.5v15h24.5v22h-96.759l-53-26h-24.241v-115h24.987l51-38h81.013v30zm-64-45h-25v-37h15.606l9.394-9.394z" fill="url(#SVGID_2_)"/></g></svg>