<svg width="512" height="512" viewBox="0 0 512 512" fill="none" xmlns="http://www.w3.org/2000/svg">
<rect x="5" y="5" width="502" height="502" fill="white" stroke="url(#paint0_linear)" stroke-width="10"/>
<path d="M137.885 279V253.845H137.17L131.19 279H121.115L115.135 253.845H114.42V279H100.315V234.28H121.115L126.12 255.275H126.705L131.645 234.28H152.38V279H137.885ZM159.031 279V234.28H191.791V245.135H174.176V251.115H188.736V261.71H174.176V268.145H191.791V279H159.031ZM217.241 261.905V252.09H234.791V278.155C232.321 278.545 229.526 278.87 226.406 279.13C223.286 279.39 220.513 279.52 218.086 279.52C212.366 279.52 208.076 278.87 205.216 277.57C202.356 276.227 200.363 273.973 199.236 270.81C198.153 267.603 197.611 262.88 197.611 256.64C197.611 250.4 198.153 245.698 199.236 242.535C200.363 239.328 202.356 237.075 205.216 235.775C208.076 234.432 212.366 233.76 218.086 233.76C220.469 233.76 223.199 233.912 226.276 234.215C229.353 234.475 232.126 234.843 234.596 235.32V245.46C232.559 245.243 230.393 245.048 228.096 244.875C225.843 244.702 224.131 244.615 222.961 244.615C219.234 244.615 216.721 244.81 215.421 245.2C214.164 245.59 213.363 246.522 213.016 247.995C212.669 249.468 212.496 252.35 212.496 256.64C212.496 260.367 212.626 263.053 212.886 264.7C213.146 266.303 213.688 267.408 214.511 268.015C215.378 268.622 216.786 268.925 218.736 268.925L221.531 268.86V261.905H217.241ZM268.468 279L266.843 272.305H253.908L252.348 279H237.593L250.008 234.28H271.133L283.548 279H268.468ZM260.603 246.5H260.018L256.378 261.905H264.308L260.603 246.5ZM286.555 234.28H310.475C314.679 234.28 317.907 235.212 320.16 237.075C322.457 238.895 323.605 241.712 323.605 245.525C323.605 248.688 322.955 251.072 321.655 252.675C320.399 254.278 318.384 255.405 315.61 256.055V256.315C317.474 256.792 318.969 257.398 320.095 258.135C321.265 258.828 322.154 259.89 322.76 261.32C323.41 262.707 323.735 264.613 323.735 267.04C323.735 271.07 322.652 274.082 320.485 276.075C318.362 278.025 314.982 279 310.345 279H286.555V234.28ZM304.625 251.96C305.839 251.96 306.705 251.895 307.225 251.765C307.745 251.592 308.092 251.267 308.265 250.79C308.439 250.313 308.525 249.512 308.525 248.385C308.525 247.215 308.439 246.392 308.265 245.915C308.092 245.438 307.745 245.135 307.225 245.005C306.749 244.832 305.882 244.745 304.625 244.745H301.505V251.96H304.625ZM304.625 268.535C305.882 268.535 306.749 268.47 307.225 268.34C307.745 268.167 308.092 267.842 308.265 267.365C308.439 266.845 308.525 265.978 308.525 264.765C308.525 263.552 308.439 262.685 308.265 262.165C308.092 261.645 307.745 261.298 307.225 261.125C306.705 260.952 305.839 260.865 304.625 260.865H301.505V268.535H304.625ZM348.705 279.52C342.205 279.52 337.59 278.87 334.86 277.57C332.174 276.227 330.505 274.125 329.855 271.265C329.205 268.362 328.88 263.487 328.88 256.64C328.88 249.793 329.205 244.94 329.855 242.08C330.505 239.177 332.174 237.075 334.86 235.775C337.59 234.432 342.205 233.76 348.705 233.76C355.205 233.76 359.82 234.432 362.55 235.775C365.28 237.075 366.97 239.177 367.62 242.08C368.27 244.94 368.595 249.793 368.595 256.64C368.595 263.487 368.27 268.362 367.62 271.265C366.97 274.125 365.28 276.227 362.55 277.57C359.82 278.87 355.205 279.52 348.705 279.52ZM348.705 268.665C350.352 268.665 351.457 268.47 352.02 268.08C352.584 267.69 352.93 266.78 353.06 265.35C353.234 263.877 353.32 260.973 353.32 256.64C353.32 252.307 353.234 249.425 353.06 247.995C352.93 246.522 352.584 245.59 352.02 245.2C351.457 244.81 350.352 244.615 348.705 244.615C347.059 244.615 345.954 244.81 345.39 245.2C344.827 245.59 344.48 246.5 344.35 247.93C344.22 249.36 344.155 252.263 344.155 256.64C344.155 261.017 344.22 263.92 344.35 265.35C344.48 266.78 344.827 267.69 345.39 268.08C345.954 268.47 347.059 268.665 348.705 268.665ZM398.481 279L392.956 267.625H392.241L386.651 279H370.401L383.271 256.51L370.661 234.28H387.561L392.826 245.46H393.411L398.936 234.28H415.186L402.576 256.25L415.381 279H398.481Z" fill="#9AD5F3"/>
<path d="M137.885 279H134.885V282H137.885V279ZM137.885 253.845H140.885V250.845H137.885V253.845ZM137.17 253.845V250.845H134.8L134.251 253.151L137.17 253.845ZM131.19 279V282H133.56L134.109 279.694L131.19 279ZM121.115 279L118.196 279.694L118.745 282H121.115V279ZM115.135 253.845L118.054 253.151L117.505 250.845H115.135V253.845ZM114.42 253.845V250.845H111.42V253.845H114.42ZM114.42 279V282H117.42V279H114.42ZM100.315 279H97.315V282H100.315V279ZM100.315 234.28V231.28H97.315V234.28H100.315ZM121.115 234.28L124.033 233.584L123.484 231.28H121.115V234.28ZM126.12 255.275L123.202 255.971L123.751 258.275H126.12V255.275ZM126.705 255.275V258.275H129.081L129.625 255.962L126.705 255.275ZM131.645 234.28V231.28H129.269L128.725 233.593L131.645 234.28ZM152.38 234.28H155.38V231.28H152.38V234.28ZM152.38 279V282H155.38V279H152.38ZM140.885 279V253.845H134.885V279H140.885ZM137.885 250.845H137.17V256.845H137.885V250.845ZM134.251 253.151L128.271 278.306L134.109 279.694L140.089 254.539L134.251 253.151ZM131.19 276H121.115V282H131.19V276ZM124.034 278.306L118.054 253.151L112.216 254.539L118.196 279.694L124.034 278.306ZM115.135 250.845H114.42V256.845H115.135V250.845ZM111.42 253.845V279H117.42V253.845H111.42ZM114.42 276H100.315V282H114.42V276ZM103.315 279V234.28H97.315V279H103.315ZM100.315 237.28H121.115V231.28H100.315V237.28ZM118.197 234.976L123.202 255.971L129.038 254.579L124.033 233.584L118.197 234.976ZM126.12 258.275H126.705V252.275H126.12V258.275ZM129.625 255.962L134.565 234.967L128.725 233.593L123.785 254.588L129.625 255.962ZM131.645 237.28H152.38V231.28H131.645V237.28ZM149.38 234.28V279H155.38V234.28H149.38ZM152.38 276H137.885V282H152.38V276ZM159.031 279H156.031V282H159.031V279ZM159.031 234.28V231.28H156.031V234.28H159.031ZM191.791 234.28H194.791V231.28H191.791V234.28ZM191.791 245.135V248.135H194.791V245.135H191.791ZM174.176 245.135V242.135H171.176V245.135H174.176ZM174.176 251.115H171.176V254.115H174.176V251.115ZM188.736 251.115H191.736V248.115H188.736V251.115ZM188.736 261.71V264.71H191.736V261.71H188.736ZM174.176 261.71V258.71H171.176V261.71H174.176ZM174.176 268.145H171.176V271.145H174.176V268.145ZM191.791 268.145H194.791V265.145H191.791V268.145ZM191.791 279V282H194.791V279H191.791ZM162.031 279V234.28H156.031V279H162.031ZM159.031 237.28H191.791V231.28H159.031V237.28ZM188.791 234.28V245.135H194.791V234.28H188.791ZM191.791 242.135H174.176V248.135H191.791V242.135ZM171.176 245.135V251.115H177.176V245.135H171.176ZM174.176 254.115H188.736V248.115H174.176V254.115ZM185.736 251.115V261.71H191.736V251.115H185.736ZM188.736 258.71H174.176V264.71H188.736V258.71ZM171.176 261.71V268.145H177.176V261.71H171.176ZM174.176 271.145H191.791V265.145H174.176V271.145ZM188.791 268.145V279H194.791V268.145H188.791ZM191.791 276H159.031V282H191.791V276ZM217.241 261.905H214.241V264.905H217.241V261.905ZM217.241 252.09V249.09H214.241V252.09H217.241ZM234.791 252.09H237.791V249.09H234.791V252.09ZM234.791 278.155L235.259 281.118L237.791 280.718V278.155H234.791ZM226.406 279.13L226.157 276.14L226.157 276.14L226.406 279.13ZM205.216 277.57L203.94 280.285L203.957 280.293L203.974 280.301L205.216 277.57ZM199.236 270.81L196.394 271.77L196.402 271.793L196.41 271.817L199.236 270.81ZM199.236 242.535L196.405 241.541L196.402 241.552L196.398 241.563L199.236 242.535ZM205.216 235.775L206.457 238.506L206.474 238.498L206.491 238.49L205.216 235.775ZM226.276 234.215L225.982 237.201L226.002 237.203L226.023 237.204L226.276 234.215ZM234.596 235.32H237.596V232.844L235.164 232.374L234.596 235.32ZM234.596 245.46L234.279 248.443L237.596 248.796V245.46H234.596ZM228.096 244.875L227.866 247.866L227.87 247.866L228.096 244.875ZM215.421 245.2L214.559 242.327L214.545 242.331L214.532 242.335L215.421 245.2ZM212.886 264.7L209.923 265.168L209.925 265.18L212.886 264.7ZM214.511 268.015L212.731 270.43L212.761 270.452L212.79 270.473L214.511 268.015ZM218.736 268.925V271.925H218.771L218.806 271.924L218.736 268.925ZM221.531 268.86L221.601 271.859L224.531 271.791V268.86H221.531ZM221.531 261.905H224.531V258.905H221.531V261.905ZM220.241 261.905V252.09H214.241V261.905H220.241ZM217.241 255.09H234.791V249.09H217.241V255.09ZM231.791 252.09V278.155H237.791V252.09H231.791ZM234.323 275.192C231.941 275.568 229.221 275.885 226.157 276.14L226.655 282.12C229.831 281.855 232.701 281.522 235.259 281.118L234.323 275.192ZM226.157 276.14C223.097 276.395 220.41 276.52 218.086 276.52V282.52C220.615 282.52 223.474 282.385 226.655 282.12L226.157 276.14ZM218.086 276.52C212.499 276.52 208.727 275.871 206.457 274.839L203.974 280.301C207.425 281.869 212.232 282.52 218.086 282.52V276.52ZM206.491 274.855C204.404 273.874 202.939 272.266 202.062 269.803L196.41 271.817C197.786 275.681 200.307 278.579 203.94 280.285L206.491 274.855ZM202.078 269.85C201.153 267.112 200.611 262.78 200.611 256.64H194.611C194.611 262.98 195.152 268.095 196.394 271.77L202.078 269.85ZM200.611 256.64C200.611 250.496 201.154 246.194 202.074 243.507L196.398 241.563C195.151 245.203 194.611 250.304 194.611 256.64H200.611ZM202.066 243.529C202.947 241.024 204.406 239.438 206.457 238.506L203.974 233.044C200.305 234.712 197.778 237.633 196.405 241.541L202.066 243.529ZM206.491 238.49C208.748 237.43 212.506 236.76 218.086 236.76V230.76C212.226 230.76 207.403 231.433 203.94 233.06L206.491 238.49ZM218.086 236.76C220.347 236.76 222.976 236.904 225.982 237.201L226.57 231.229C223.423 230.919 220.591 230.76 218.086 230.76V236.76ZM226.023 237.204C229.017 237.457 231.682 237.813 234.027 238.266L235.164 232.374C232.57 231.874 229.688 231.493 226.528 231.226L226.023 237.204ZM231.596 235.32V245.46H237.596V235.32H231.596ZM234.913 242.477C232.843 242.257 230.645 242.059 228.322 241.884L227.87 247.866C230.14 248.038 232.276 248.23 234.279 248.443L234.913 242.477ZM228.326 241.884C226.053 241.709 224.249 241.615 222.961 241.615V247.615C224.013 247.615 225.633 247.694 227.866 247.866L228.326 241.884ZM222.961 241.615C219.282 241.615 216.341 241.792 214.559 242.327L216.283 248.073C217.1 247.828 219.186 247.615 222.961 247.615V241.615ZM214.532 242.335C212.09 243.092 210.642 244.985 210.096 247.308L215.936 248.682C216.024 248.308 216.129 248.174 216.151 248.148C216.163 248.134 216.173 248.126 216.185 248.118C216.198 248.11 216.235 248.089 216.31 248.065L214.532 242.335ZM210.096 247.308C209.657 249.172 209.496 252.395 209.496 256.64H215.496C215.496 252.305 215.681 249.765 215.936 248.682L210.096 247.308ZM209.496 256.64C209.496 260.38 209.623 263.27 209.923 265.168L215.849 264.232C215.629 262.836 215.496 260.353 215.496 256.64H209.496ZM209.925 265.18C210.239 267.12 210.991 269.148 212.731 270.43L216.29 265.6C216.338 265.635 216.282 265.618 216.181 265.411C216.074 265.193 215.944 264.817 215.847 264.22L209.925 265.18ZM212.79 270.473C214.434 271.623 216.619 271.925 218.736 271.925V265.925C216.953 265.925 216.321 265.62 216.231 265.557L212.79 270.473ZM218.806 271.924L221.601 271.859L221.461 265.861L218.666 265.926L218.806 271.924ZM224.531 268.86V261.905H218.531V268.86H224.531ZM221.531 258.905H217.241V264.905H221.531V258.905ZM268.468 279L265.553 279.708L266.109 282H268.468V279ZM266.843 272.305L269.758 271.597L269.202 269.305H266.843V272.305ZM253.908 272.305V269.305H251.527L250.986 271.624L253.908 272.305ZM252.348 279V282H254.729L255.27 279.681L252.348 279ZM237.593 279L234.702 278.198L233.647 282H237.593V279ZM250.008 234.28V231.28H247.727L247.117 233.478L250.008 234.28ZM271.133 234.28L274.024 233.478L273.414 231.28H271.133V234.28ZM283.548 279V282H287.494L286.439 278.198L283.548 279ZM260.603 246.5L263.52 245.798L262.967 243.5H260.603V246.5ZM260.018 246.5V243.5H257.644L257.098 245.81L260.018 246.5ZM256.378 261.905L253.458 261.215L252.586 264.905H256.378V261.905ZM264.308 261.905V264.905H268.115L267.225 261.203L264.308 261.905ZM271.383 278.292L269.758 271.597L263.928 273.013L265.553 279.708L271.383 278.292ZM266.843 269.305H253.908V275.305H266.843V269.305ZM250.986 271.624L249.426 278.319L255.27 279.681L256.83 272.986L250.986 271.624ZM252.348 276H237.593V282H252.348V276ZM240.484 279.802L252.899 235.082L247.117 233.478L234.702 278.198L240.484 279.802ZM250.008 237.28H271.133V231.28H250.008V237.28ZM268.242 235.082L280.657 279.802L286.439 278.198L274.024 233.478L268.242 235.082ZM283.548 276H268.468V282H283.548V276ZM260.603 243.5H260.018V249.5H260.603V243.5ZM257.098 245.81L253.458 261.215L259.298 262.595L262.938 247.19L257.098 245.81ZM256.378 264.905H264.308V258.905H256.378V264.905ZM267.225 261.203L263.52 245.798L257.686 247.202L261.391 262.607L267.225 261.203ZM286.555 234.28V231.28H283.555V234.28H286.555ZM320.16 237.075L318.248 239.387L318.273 239.407L318.297 239.426L320.16 237.075ZM321.655 252.675L319.325 250.786L319.309 250.805L319.294 250.824L321.655 252.675ZM315.61 256.055L314.926 253.134L312.61 253.677V256.055H315.61ZM315.61 256.315H312.61V258.644L314.867 259.221L315.61 256.315ZM320.095 258.135L318.453 260.646L318.509 260.682L318.566 260.716L320.095 258.135ZM322.76 261.32L319.998 262.492L320.02 262.543L320.044 262.593L322.76 261.32ZM320.485 276.075L322.514 278.285L322.516 278.283L320.485 276.075ZM286.555 279H283.555V282H286.555V279ZM307.225 251.765L307.953 254.675L308.065 254.647L308.174 254.611L307.225 251.765ZM308.265 245.915L305.446 246.94L305.446 246.94L308.265 245.915ZM307.225 245.005L306.2 247.824L306.346 247.878L306.498 247.915L307.225 245.005ZM301.505 244.745V241.745H298.505V244.745H301.505ZM301.505 251.96H298.505V254.96H301.505V251.96ZM307.225 268.34L308.015 271.234L308.095 271.212L308.174 271.186L307.225 268.34ZM308.265 267.365L311.085 268.39L311.098 268.352L311.111 268.314L308.265 267.365ZM308.265 262.165L305.419 263.114L305.419 263.114L308.265 262.165ZM307.225 261.125L306.277 263.971L306.277 263.971L307.225 261.125ZM301.505 260.865V257.865H298.505V260.865H301.505ZM301.505 268.535H298.505V271.535H301.505V268.535ZM286.555 237.28H310.475V231.28H286.555V237.28ZM310.475 237.28C314.279 237.28 316.725 238.127 318.248 239.387L322.072 234.763C319.089 232.296 315.078 231.28 310.475 231.28V237.28ZM318.297 239.426C319.67 240.514 320.605 242.329 320.605 245.525H326.605C326.605 241.094 325.244 237.276 322.023 234.724L318.297 239.426ZM320.605 245.525C320.605 248.349 320.014 249.936 319.325 250.786L323.986 254.564C325.897 252.207 326.605 249.028 326.605 245.525H320.605ZM319.294 250.824C318.598 251.712 317.295 252.579 314.926 253.134L316.295 258.976C319.472 258.231 322.199 256.844 324.016 254.526L319.294 250.824ZM312.61 256.055V256.315H318.61V256.055H312.61ZM314.867 259.221C316.536 259.648 317.693 260.149 318.453 260.646L321.737 255.624C320.244 254.648 318.411 253.935 316.354 253.409L314.867 259.221ZM318.566 260.716C319.109 261.038 319.605 261.564 319.998 262.492L325.522 260.148C324.702 258.216 323.422 256.619 321.625 255.554L318.566 260.716ZM320.044 262.593C320.429 263.416 320.735 264.824 320.735 267.04H326.735C326.735 264.403 326.391 261.997 325.477 260.047L320.044 262.593ZM320.735 267.04C320.735 270.552 319.801 272.628 318.454 273.867L322.516 278.283C325.503 275.535 326.735 271.588 326.735 267.04H320.735ZM318.456 273.865C317.139 275.075 314.664 276 310.345 276V282C315.3 282 319.585 280.975 322.514 278.285L318.456 273.865ZM310.345 276H286.555V282H310.345V276ZM289.555 279V234.28H283.555V279H289.555ZM304.625 254.96C305.855 254.96 307.045 254.902 307.953 254.675L306.498 248.855C306.498 248.854 306.487 248.857 306.461 248.862C306.436 248.867 306.4 248.873 306.352 248.88C306.256 248.893 306.128 248.907 305.961 248.92C305.625 248.945 305.184 248.96 304.625 248.96V254.96ZM308.174 254.611C309.482 254.175 310.57 253.229 311.085 251.815L305.446 249.765C305.509 249.591 305.63 249.384 305.823 249.203C306.011 249.027 306.189 248.948 306.277 248.919L308.174 254.611ZM311.085 251.815C311.452 250.804 311.525 249.539 311.525 248.385H305.525C305.525 248.879 305.506 249.248 305.478 249.509C305.447 249.793 305.416 249.846 305.446 249.765L311.085 251.815ZM311.525 248.385C311.525 247.203 311.455 245.908 311.085 244.89L305.446 246.94C305.413 246.851 305.445 246.903 305.477 247.204C305.506 247.479 305.525 247.866 305.525 248.385H311.525ZM311.085 244.89C310.548 243.415 309.375 242.45 307.953 242.095L306.498 247.915C306.371 247.884 306.139 247.797 305.9 247.588C305.655 247.373 305.514 247.128 305.446 246.94L311.085 244.89ZM308.25 242.186C307.221 241.811 305.864 241.745 304.625 241.745V247.745C305.193 247.745 305.618 247.765 305.919 247.795C306.254 247.829 306.305 247.862 306.2 247.824L308.25 242.186ZM304.625 241.745H301.505V247.745H304.625V241.745ZM298.505 244.745V251.96H304.505V244.745H298.505ZM301.505 254.96H304.625V248.96H301.505V254.96ZM304.625 271.535C305.862 271.535 307.103 271.483 308.015 271.234L306.436 265.446C306.471 265.436 306.356 265.467 305.993 265.495C305.659 265.52 305.209 265.535 304.625 265.535V271.535ZM308.174 271.186C309.482 270.75 310.57 269.804 311.085 268.39L305.446 266.34C305.509 266.166 305.63 265.959 305.823 265.778C306.011 265.602 306.189 265.523 306.277 265.494L308.174 271.186ZM311.111 268.314C311.45 267.297 311.525 266.006 311.525 264.765H305.525C305.525 265.307 305.506 265.722 305.475 266.026C305.443 266.352 305.407 266.453 305.419 266.416L311.111 268.314ZM311.525 264.765C311.525 263.524 311.45 262.233 311.111 261.216L305.419 263.114C305.407 263.077 305.443 263.178 305.475 263.504C305.506 263.808 305.525 264.223 305.525 264.765H311.525ZM311.111 261.216C310.639 259.801 309.59 258.751 308.174 258.279L306.277 263.971C306.147 263.928 305.947 263.829 305.754 263.636C305.561 263.443 305.462 263.243 305.419 263.114L311.111 261.216ZM308.174 258.279C307.157 257.94 305.866 257.865 304.625 257.865V263.865C305.168 263.865 305.583 263.885 305.887 263.915C306.212 263.948 306.313 263.983 306.277 263.971L308.174 258.279ZM304.625 257.865H301.505V263.865H304.625V257.865ZM298.505 260.865V268.535H304.505V260.865H298.505ZM301.505 271.535H304.625V265.535H301.505V271.535ZM334.86 277.57L333.519 280.253L333.545 280.266L333.571 280.279L334.86 277.57ZM329.855 271.265L326.928 271.92L326.93 271.93L329.855 271.265ZM329.855 242.08L332.781 242.745L332.783 242.735L329.855 242.08ZM334.86 235.775L336.167 238.475L336.176 238.471L336.185 238.467L334.86 235.775ZM362.55 235.775L361.226 238.467L361.243 238.475L361.261 238.484L362.55 235.775ZM367.62 242.08L364.693 242.735L364.695 242.745L367.62 242.08ZM367.62 271.265L370.546 271.93L370.548 271.92L367.62 271.265ZM362.55 277.57L363.84 280.279L363.858 280.27L363.875 280.262L362.55 277.57ZM352.02 268.08L353.728 270.547L353.728 270.547L352.02 268.08ZM353.06 265.35L350.081 264.999L350.076 265.039L350.073 265.078L353.06 265.35ZM353.06 247.995L350.072 248.259L350.076 248.307L350.082 248.356L353.06 247.995ZM352.02 245.2L353.728 242.733L353.728 242.733L352.02 245.2ZM345.39 245.2L343.683 242.733L343.683 242.733L345.39 245.2ZM344.35 247.93L341.363 247.658L341.363 247.658L344.35 247.93ZM344.35 265.35L341.363 265.622L341.363 265.622L344.35 265.35ZM345.39 268.08L343.683 270.547L343.683 270.547L345.39 268.08ZM348.705 276.52C342.253 276.52 338.228 275.851 336.15 274.861L333.571 280.279C336.952 281.889 342.158 282.52 348.705 282.52V276.52ZM336.202 274.887C334.296 273.934 333.226 272.56 332.781 270.6L326.93 271.93C327.785 275.69 330.051 278.519 333.519 280.253L336.202 274.887ZM332.783 270.61C332.212 268.059 331.88 263.476 331.88 256.64H325.88C325.88 263.497 326.199 268.665 326.928 271.92L332.783 270.61ZM331.88 256.64C331.88 249.8 332.212 245.246 332.781 242.745L326.93 241.415C326.198 244.634 325.88 249.786 325.88 256.64H331.88ZM332.783 242.735C333.232 240.729 334.301 239.378 336.167 238.475L333.554 233.075C330.046 234.772 327.779 237.625 326.928 241.425L332.783 242.735ZM336.185 238.467C338.249 237.451 342.257 236.76 348.705 236.76V230.76C342.154 230.76 336.932 231.412 333.536 233.083L336.185 238.467ZM348.705 236.76C355.154 236.76 359.162 237.451 361.226 238.467L363.875 233.083C360.479 231.412 355.257 230.76 348.705 230.76V236.76ZM361.261 238.484C363.174 239.395 364.248 240.749 364.693 242.735L370.548 241.425C369.693 237.605 367.387 234.755 363.84 233.066L361.261 238.484ZM364.695 242.745C365.263 245.246 365.595 249.8 365.595 256.64H371.595C371.595 249.786 371.277 244.634 370.546 241.415L364.695 242.745ZM365.595 256.64C365.595 263.476 365.264 268.059 364.693 270.61L370.548 271.92C371.277 268.665 371.595 263.497 371.595 256.64H365.595ZM364.695 270.6C364.254 272.54 363.179 273.917 361.226 274.878L363.875 280.262C367.382 278.536 369.687 275.71 370.546 271.93L364.695 270.6ZM361.261 274.861C359.182 275.851 355.158 276.52 348.705 276.52V282.52C355.253 282.52 360.458 281.889 363.84 280.279L361.261 274.861ZM348.705 271.665C349.631 271.665 350.506 271.611 351.29 271.473C352.03 271.343 352.934 271.096 353.728 270.547L350.313 265.613C350.446 265.521 350.528 265.496 350.504 265.505C350.483 265.512 350.404 265.537 350.248 265.564C349.927 265.621 349.427 265.665 348.705 265.665V271.665ZM353.728 270.547C354.677 269.889 355.205 268.965 355.506 268.173C355.811 267.372 355.969 266.493 356.048 265.622L350.073 265.078C350.048 265.347 350.016 265.561 349.983 265.726C349.949 265.893 349.917 265.991 349.899 266.037C349.854 266.155 349.927 265.881 350.313 265.613L353.728 270.547ZM356.04 265.701C356.237 264.025 356.32 260.947 356.32 256.64H350.32C350.32 260.999 350.23 263.729 350.081 264.999L356.04 265.701ZM356.32 256.64C356.32 252.338 356.237 249.274 356.039 247.634L350.082 248.356C350.23 249.576 350.32 252.276 350.32 256.64H356.32ZM356.049 247.731C355.97 246.844 355.815 245.953 355.515 245.145C355.219 244.352 354.695 243.403 353.728 242.733L350.313 247.667C350.109 247.525 349.989 247.379 349.931 247.295C349.876 247.215 349.871 247.183 349.891 247.237C349.911 247.29 349.944 247.397 349.98 247.575C350.014 247.751 350.047 247.977 350.072 248.259L356.049 247.731ZM353.728 242.733C352.934 242.184 352.03 241.937 351.29 241.807C350.506 241.669 349.631 241.615 348.705 241.615V247.615C349.427 247.615 349.927 247.659 350.248 247.716C350.404 247.743 350.483 247.768 350.504 247.775C350.528 247.784 350.446 247.759 350.313 247.667L353.728 242.733ZM348.705 241.615C347.78 241.615 346.904 241.669 346.12 241.807C345.381 241.937 344.476 242.184 343.683 242.733L347.098 247.667C346.965 247.759 346.883 247.784 346.907 247.775C346.928 247.768 347.006 247.743 347.163 247.716C347.484 247.659 347.984 247.615 348.705 247.615V241.615ZM343.683 242.733C342.734 243.391 342.206 244.315 341.904 245.107C341.599 245.908 341.442 246.787 341.363 247.658L347.338 248.202C347.363 247.933 347.394 247.719 347.428 247.554C347.462 247.387 347.494 247.289 347.511 247.243C347.556 247.125 347.484 247.399 347.098 247.667L343.683 242.733ZM341.363 247.658C341.218 249.247 341.155 252.288 341.155 256.64H347.155C347.155 252.239 347.222 249.473 347.338 248.202L341.363 247.658ZM341.155 256.64C341.155 260.992 341.218 264.033 341.363 265.622L347.338 265.078C347.222 263.807 347.155 261.041 347.155 256.64H341.155ZM341.363 265.622C341.442 266.493 341.599 267.372 341.904 268.173C342.206 268.965 342.734 269.889 343.683 270.547L347.098 265.613C347.484 265.881 347.556 266.155 347.511 266.037C347.494 265.991 347.462 265.893 347.428 265.726C347.394 265.561 347.363 265.347 347.338 265.078L341.363 265.622ZM343.683 270.547C344.476 271.096 345.381 271.343 346.12 271.473C346.904 271.611 347.78 271.665 348.705 271.665V265.665C347.984 265.665 347.484 265.621 347.163 265.564C347.006 265.537 346.928 265.512 346.907 265.505C346.883 265.496 346.965 265.521 347.098 265.613L343.683 270.547ZM398.481 279L395.783 280.311L396.603 282H398.481V279ZM392.956 267.625L395.655 266.314L394.834 264.625H392.956V267.625ZM392.241 267.625V264.625H390.373L389.549 266.302L392.241 267.625ZM386.651 279V282H388.52L389.344 280.323L386.651 279ZM370.401 279L367.797 277.51L365.228 282H370.401V279ZM383.271 256.51L385.875 258L386.724 256.517L385.881 255.03L383.271 256.51ZM370.661 234.28V231.28H365.51L368.052 235.76L370.661 234.28ZM387.561 234.28L390.275 233.002L389.464 231.28H387.561V234.28ZM392.826 245.46L390.112 246.738L390.923 248.46H392.826V245.46ZM393.411 245.46V248.46H395.275L396.101 246.789L393.411 245.46ZM398.936 234.28V231.28H397.072L396.247 232.951L398.936 234.28ZM415.186 234.28L417.788 235.773L420.367 231.28H415.186V234.28ZM402.576 256.25L399.974 254.757L399.125 256.236L399.962 257.721L402.576 256.25ZM415.381 279V282H420.512L417.996 277.529L415.381 279ZM401.18 277.689L395.655 266.314L390.258 268.936L395.783 280.311L401.18 277.689ZM392.956 264.625H392.241V270.625H392.956V264.625ZM389.549 266.302L383.959 277.677L389.344 280.323L394.934 268.948L389.549 266.302ZM386.651 276H370.401V282H386.651V276ZM373.005 280.49L385.875 258L380.667 255.02L367.797 277.51L373.005 280.49ZM385.881 255.03L373.271 232.8L368.052 235.76L380.662 257.99L385.881 255.03ZM370.661 237.28H387.561V231.28H370.661V237.28ZM384.847 235.558L390.112 246.738L395.54 244.182L390.275 233.002L384.847 235.558ZM392.826 248.46H393.411V242.46H392.826V248.46ZM396.101 246.789L401.626 235.609L396.247 232.951L390.722 244.131L396.101 246.789ZM398.936 237.28H415.186V231.28H398.936V237.28ZM412.584 232.787L399.974 254.757L405.178 257.743L417.788 235.773L412.584 232.787ZM399.962 257.721L412.767 280.471L417.996 277.529L405.19 254.779L399.962 257.721ZM415.381 276H398.481V282H415.381V276Z" fill="url(#paint1_linear)"/>
<path fill-rule="evenodd" clip-rule="evenodd" d="M64 181L180 65L187.071 72.0711L71.0711 188.071L64 181ZM64 107L106 65L113.071 72.0711L71.0711 114.071L64 107ZM255 66L135 186L142.071 193.071L262.071 73.0711L255 66ZM209 186L329 66L336.071 73.0711L216.071 193.071L209 186ZM404 66L284 186L291.071 193.071L411.071 73.0711L404 66ZM356 188L441 103L448.071 110.071L363.071 195.071L356 188ZM441 178L429 190L436.071 197.071L448.071 185.071L441 178Z" fill="url(#paint2_linear)"/>
<path fill-rule="evenodd" clip-rule="evenodd" d="M448.071 331.071L332.071 447.071L325 440L441 324L448.071 331.071ZM448.071 405.071L406.071 447.071L399 440L441 398L448.071 405.071ZM257.071 446.071L377.071 326.071L370 319L250 439L257.071 446.071ZM303.071 326.071L183.071 446.071L176 439L296 319L303.071 326.071ZM108.071 446.071L228.071 326.071L221 319L101 439L108.071 446.071ZM156.071 324.071L71.0713 409.071L64.0002 402L149 317L156.071 324.071ZM71.0713 334.071L83.0713 322.071L76.0002 315L64.0002 327L71.0713 334.071Z" fill="url(#paint3_linear)"/>
<defs>
<linearGradient id="paint0_linear" x1="256" y1="0" x2="256" y2="512" gradientUnits="userSpaceOnUse">
<stop stop-color="#1B51A4"/>
<stop offset="1" stop-color="#AE44AF"/>
</linearGradient>
<linearGradient id="paint1_linear" x1="256.5" y1="205" x2="256.5" y2="307" gradientUnits="userSpaceOnUse">
<stop stop-color="#604AA8"/>
<stop offset="1" stop-color="#6849A9"/>
</linearGradient>
<linearGradient id="paint2_linear" x1="256.036" y1="65" x2="256.036" y2="197.071" gradientUnits="userSpaceOnUse">
<stop stop-color="#1A4FA3"/>
<stop offset="1" stop-color="#684AA9"/>
</linearGradient>
<linearGradient id="paint3_linear" x1="256.036" y1="447.071" x2="256.036" y2="315" gradientUnits="userSpaceOnUse">
<stop stop-color="#AC44AF"/>
<stop offset="1" stop-color="#614AA9"/>
</linearGradient>
</defs>
</svg>
