<svg width="103" height="98" viewBox="0 0 103 98" fill="none" xmlns="http://www.w3.org/2000/svg">
<g filter="url(#filter0_d)">
<path fill-rule="evenodd" clip-rule="evenodd" d="M13.0723 6.52949C14.7877 4.31311 15.3935 2.02867 14.3966 1.03183C13.2021 -0.16268 10.1588 0.943993 7.59911 3.50365C5.03945 6.06331 3.93278 9.10666 5.12729 10.3012C6.1264 11.3003 8.41899 10.6895 10.6401 8.96508L94.9694 90L13.0723 6.52949Z" fill="black"/>
</g>
<g filter="url(#filter1_d)">
<path fill-rule="evenodd" clip-rule="evenodd" d="M43.1863 9.76205C44.9327 8.76984 45.964 7.42627 45.58 6.49179C45.1198 5.37201 42.8015 5.26368 40.402 6.24984C38.0025 7.23599 36.4303 8.94318 36.8905 10.063C37.2755 10.9996 38.9603 11.2286 40.9054 10.7014L74.3042 87.5764L43.1863 9.76205Z" fill="black"/>
</g>
<defs>
<filter id="filter0_d" x="0.64624" y="0.550781" width="98.3231" height="97.4492" filterUnits="userSpaceOnUse" color-interpolation-filters="sRGB">
<feFlood flood-opacity="0" result="BackgroundImageFix"/>
<feColorMatrix in="SourceAlpha" type="matrix" values="0 0 0 0 0 0 0 0 0 0 0 0 0 0 0 0 0 0 127 0"/>
<feOffset dy="4"/>
<feGaussianBlur stdDeviation="2"/>
<feColorMatrix type="matrix" values="0 0 0 0 0 0 0 0 0 0 0 0 0 0 0 0 0 0 0.25 0"/>
<feBlend mode="normal" in2="BackgroundImageFix" result="effect1_dropShadow"/>
<feBlend mode="normal" in="SourceGraphic" in2="effect1_dropShadow" result="shape"/>
</filter>
<filter id="filter1_d" x="10.5685" y="3.48169" width="92.4315" height="92.0948" filterUnits="userSpaceOnUse" color-interpolation-filters="sRGB">
<feFlood flood-opacity="0" result="BackgroundImageFix"/>
<feColorMatrix in="SourceAlpha" type="matrix" values="0 0 0 0 0 0 0 0 0 0 0 0 0 0 0 0 0 0 127 0"/>
<feOffset dy="4"/>
<feGaussianBlur stdDeviation="2"/>
<feColorMatrix type="matrix" values="0 0 0 0 0 0 0 0 0 0 0 0 0 0 0 0 0 0 0.25 0"/>
<feBlend mode="normal" in2="BackgroundImageFix" result="effect1_dropShadow"/>
<feBlend mode="normal" in="SourceGraphic" in2="effect1_dropShadow" result="shape"/>
</filter>
</defs>
</svg>
