<svg id="Capa_1" enable-background="new 0 0 511.475 511.475" height="512" viewBox="0 0 511.475 511.475" width="512" xmlns="http://www.w3.org/2000/svg" xmlns:xlink="http://www.w3.org/1999/xlink"><linearGradient id="SVGID_1_" gradientUnits="userSpaceOnUse" x1="304.44" x2="304.44" y1="42.906" y2="495.906"><stop offset=".00000083866" stop-color="#96d1f3"/><stop offset="1" stop-color="#ccfff4"/></linearGradient><linearGradient id="SVGID_2_" gradientUnits="userSpaceOnUse" x1="255.738" x2="255.738" y1="8.069" y2="503.406"><stop offset="0" stop-color="#174fa3"/><stop offset="1" stop-color="#b044af"/></linearGradient><g id="Filled_10_"><path d="m399.627 81.709-101.687-63.803-64.701 77.642-87.299-34.642-137 143 60 131 61.253-70.836 76.747 49.836 35 60 159-125 45-206z" fill="#fff"/><path d="m445.94 42.906 52 70-70 10zm-208.255 423.789 52.256-14.789-83-138-96 134 24 48h53l1.465-14.036 50.535-3.964z" fill="url(#SVGID_1_)"/><path d="m434.697 129.517 76.778-10.969-64.256-86.498-48.227 40.407-102.617-64.388-65.419 78.504-86.939-34.5-144.017 150.323 66.981 146.242 64.61-74.719 64.68 42.001-94.062 131.294 28.096 56.191h64.393l1.519-14.548 52.745-4.137-2.556-12.7 55.018-15.571-48.909-81.318 155.176-121.994zm-90.088 8.072 89.318-74.834-36.21 165.762zm93.505-23.713 11.636-53.265 34.656 46.652zm-99.379 9.066-27.554-87.874 75.725 47.514zm-43.836-89.671 28.175 89.857-77.446-30.733zm-277.018 172.144 127.036-132.599 61.601 91.521-135.618 156.836zm207.483-39.94-59.678-88.665 157.553 62.521-118.212 164.39-63.532-41.254zm-85.788 322.931-19.904-39.809 76.868-107.295-15.357 147.104zm58.225-14.718 11.491-110.076 21.627 107.479zm45.638-16.416-20.602-102.384 55.618 92.473zm-27.525-142.999 118.374-164.614 56.881 97.388-146.444 115.13z" fill="url(#SVGID_2_)"/></g></svg>