<svg id="Capa_1" enable-background="new 0 0 510.789 510.789" height="512" viewBox="0 0 510.789 510.789" width="512" xmlns="http://www.w3.org/2000/svg" xmlns:xlink="http://www.w3.org/1999/xlink"><linearGradient id="SVGID_1_" gradientUnits="userSpaceOnUse" x1="255.395" x2="255.395" y1="248.289" y2="353.289"><stop offset=".00000083866" stop-color="#96d1f3"/><stop offset="1" stop-color="#ccfff4"/></linearGradient><linearGradient id="SVGID_2_" gradientUnits="userSpaceOnUse" x1="255.395" x2="255.395" y1="11.289" y2="165.289"><stop offset=".00000036422" stop-color="#a8abff"/><stop offset="1" stop-color="#fac8ff"/></linearGradient><linearGradient id="SVGID_3_" gradientUnits="userSpaceOnUse" x1="255.395" x2="255.395" y1="0" y2="510.789"><stop offset="0" stop-color="#174fa3"/><stop offset="1" stop-color="#b044af"/></linearGradient><g id="Filled_14_"><path d="m389.395 311.289-52.11-7.76-22.89 49.76h-118l-22.891-49.76-52.109 7.76 54-63 60 75h40l60-75z" fill="url(#SVGID_1_)"/><path d="m353.395 109.289-31-65-27.201 11.774c-.398-.448-39.799-44.774-39.799-44.774l-39.799 44.774-27.201-11.774-31 65 31.135-11.437 10.865 45.437 38 22h36l38-22 10.865-45.437z" fill="url(#SVGID_2_)"/><path d="m273.395 353.289v-188h-36v188h-92v40h20l30 110h120l30-110h20v-40z" fill="#fff"/><path d="m341.746 311.775 66.423 9.893-72.974-85.136-54.301 67.876v-134.795l37.045-21.447 9.653-40.366 40.497 14.876-42.037-88.143-28.858 12.491-41.799-47.024-41.8 47.024-28.858-12.491-42.037 88.144 40.497-14.876 9.653 40.366 37.045 21.447v134.795l-54.301-67.876-72.974 85.136 66.423-9.893 15.646 34.014h-46.795v55h21.772l30 110h131.457l30-110h21.772v-55h-46.795zm-6.152-51.729 35.026 40.864-60.509-9.012zm-54.343 67.928 18.021-22.525 27.023 4.025-16.705 36.315h-28.695v-18.1zm-15.356-155.185v173h-21v-173zm72.805-76.888-63.107-23.182 43.145-18.674zm-83.305-73.323 27.306 30.719-27.306 11.819-27.306-11.819zm-63.343 31.466 43.145 18.674-63.107 23.182zm5.322 48.549 58.021-21.314 58.021 21.314-8.566 35.819-33.47 19.377h-31.971l-33.47-19.377zm-22.179 157.453 25.482 31.853-60.509 9.012zm9.3 49.428 27.023-4.025 18.021 22.525.356-.285v18.1h-28.695zm125.171 186.315h-108.543l-25.91-95h160.362zm48.229-110h-205v-25h205z" fill="url(#SVGID_3_)"/></g></svg>