<svg id="Capa_1" enable-background="new 0 0 511 511" height="512" viewBox="0 0 511 511" width="512" xmlns="http://www.w3.org/2000/svg" xmlns:xlink="http://www.w3.org/1999/xlink"><linearGradient id="SVGID_1_" gradientUnits="userSpaceOnUse" x1="398.5" x2="398.5" y1="95.5" y2="274.5"><stop offset=".00000036422" stop-color="#a8abff"/><stop offset="1" stop-color="#fac8ff"/></linearGradient><linearGradient id="SVGID_2_" gradientUnits="userSpaceOnUse" x1="255.5" x2="255.5" y1="88" y2="423"><stop offset="0" stop-color="#174fa3"/><stop offset="1" stop-color="#b044af"/></linearGradient><g id="Filled_31_"><path d="m71.5 415.5-64-155v-67l86-78h317l73 159-96 84-5 54h-47l-38-54h-146l-18 57z" fill="#fff"/><path d="m441.5 184.5h62v74l-20 16zm-148-89 44 91 54 20 19-91-9-20z" fill="url(#SVGID_1_)"/><path d="m511 177h-64.012l-29.649-64.578-10.989-24.422h-124.807l9.67 20h-200.608l-90.605 82.177v71.811l66.482 161.012h72.514l18-57h136.61l38 54h57.73l5.354-57.827 93.627-81.923 22.683-18.146zm-114.35-74 6.01 13.354-16.722 80.088-43.001-15.927-37.48-77.515zm-268.647 305h-51.485l-61.518-148.987v-62.189l74.148-67.251 54.575 228.649zm211.39-3-27.444-39h67.325l-3.611 39zm45.289-54h-227.262l-54.42-228h195.465l33.597 69.484 64.999 24.073 16.125-77.231 61.161 133.216zm111.318-96.104-9.689 7.751-32.436-70.647h42.125z" fill="url(#SVGID_2_)"/></g></svg>