<svg id="Capa_1" enable-background="new 0 0 510.533 510.533" height="512" viewBox="0 0 510.533 510.533" width="512" xmlns="http://www.w3.org/2000/svg" xmlns:xlink="http://www.w3.org/1999/xlink"><linearGradient id="SVGID_1_" gradientUnits="userSpaceOnUse" x1="255.266" x2="255.266" y1="147.386" y2="278.016"><stop offset=".00000083866" stop-color="#96d1f3"/><stop offset="1" stop-color="#ccfff4"/></linearGradient><linearGradient id="SVGID_2_" gradientUnits="userSpaceOnUse" x1="255.266" x2="255.266" y1="37.647" y2="472.886"><stop offset="0" stop-color="#174fa3"/><stop offset="1" stop-color="#b044af"/></linearGradient><g id="Filled_22_"><path d="m502.266 246.386-56 106h-107.51l-8.49 74-35 39h-80l-35-39-8.49-74h-107.51l-56-106 42-103 87-68 118-30 118 30 87 68z" fill="#fff"/><path d="m120.626 278.016-46.36-26.63-5-40 40.1-41.08zm78.64-130.63c-9.389 0-17 11.193-17 25s7.611 25 17 25 17-11.193 17-25-7.611-25-17-25zm201.9 22.92-11.26 107.71 46.36-26.63 5-40zm-106.9 2.08c0 13.807 7.611 25 17 25s17-11.193 17-25-7.611-25-17-25-17 11.193-17 25z" fill="url(#SVGID_1_)"/><path d="m510.533 246.794-44.075-108.089-89.815-70.2-121.377-30.858-121.376 30.858-89.815 70.2-44.075 108.089 59.746 113.091h105.34l8.002 69.73 38.832 43.27h86.693l38.832-43.27 8.002-69.73h105.34zm-16.533-.817-50.925 96.395-49.732-25.112 3.622-34.647 46.28-26.587 5.911-47.295-40.166-41.146 5.292-50.622 39.792 31.102zm-137.801 20.208 23.336 38.894-.517 4.948-26.324-13.292zm50.763-79.202 26.413 27.057-4.088 32.705-30.399 17.463zm-266.319-104.717 114.624-29.142 114.623 29.142 30.451 23.801-18.21 174.182-26.123-43.536-100.742-20.988-100.743 20.988-26.122 43.536-18.21-174.182zm-29 181.942-30.398-17.463-4.088-32.705 26.413-27.057zm19.872 45.819-.517-4.949 23.336-38.893 3.506 30.55zm-114.983-64.05 39.925-97.911 39.792-31.102 5.292 50.622-40.166 41.145 5.912 47.295 46.279 26.586 3.622 34.648-49.731 25.112zm79.226 98.909 63.904-32.268 3.703 32.268zm227.329 78.27-31.168 34.73h-73.307l-31.168-34.73-19.947-173.824 87.768-18.285 87.768 18.285zm27.784-110.538 63.903 32.268h-67.606zm-155.605-26.732h120v15h-120zm10 40h100v15h-100zm10 40h80v15h-80zm10 40h60v15h-60zm-26-201c13.738 0 24.5-14.276 24.5-32.5s-10.762-32.5-24.5-32.5-24.5 14.276-24.5 32.5 10.762 32.5 24.5 32.5zm0-50c4.484 0 9.5 7.484 9.5 17.5s-5.016 17.5-9.5 17.5-9.5-7.484-9.5-17.5 5.016-17.5 9.5-17.5zm112 50c13.738 0 24.5-14.276 24.5-32.5s-10.762-32.5-24.5-32.5-24.5 14.276-24.5 32.5 10.762 32.5 24.5 32.5zm0-50c4.484 0 9.5 7.484 9.5 17.5s-5.016 17.5-9.5 17.5-9.5-7.484-9.5-17.5 5.016-17.5 9.5-17.5z" fill="url(#SVGID_2_)"/></g></svg>