<svg id="Capa_1" enable-background="new 0 0 511 511" height="512" viewBox="0 0 511 511" width="512" xmlns="http://www.w3.org/2000/svg" xmlns:xlink="http://www.w3.org/1999/xlink"><linearGradient id="SVGID_1_" gradientUnits="userSpaceOnUse" x1="255.5" x2="255.5" y1="7.5" y2="503.5"><stop offset=".00000083866" stop-color="#96d1f3"/><stop offset="1" stop-color="#ccfff4"/></linearGradient><linearGradient id="SVGID_2_" gradientUnits="userSpaceOnUse" x1="255.5" x2="255.5" y1="0" y2="511"><stop offset="0" stop-color="#174fa3"/><stop offset="1" stop-color="#b044af"/></linearGradient><g id="Filled_30_"><path d="m355.5 193.5 14 141 8 96 8 73h-260l8-73 8-96 14-141zm-100-186c-30.376 0-55 24.624-55 55h110c0-30.376-24.624-55-55-55z" fill="url(#SVGID_1_)"/><g fill="#fff"><path d="m419.5 212.5-64-19 14 141-47 19 6.846 27.385-17.172 5.724c-13.294 4.431-20.83 18.457-17.187 31.989 4.038 14.998 20.063 23.311 34.65 17.975l12.488-4.569 5.375 21.496 115-81v-71z"/><path d="m198.825 386.608-17.172-5.724 6.847-27.384-47-19 14-141-64 19-43 89v71l115 81 5.374-21.497 12.488 4.569c14.587 5.336 30.612-2.977 34.65-17.975 3.643-13.531-3.892-27.557-17.187-31.989z"/><path d="m310.5 62.5h-110v55l36 36h-31v40h100v-40h-31l36-36z"/></g><path d="m470 299.783-45.188-93.53-68.222-20.253h-43.59v-40h-20.394l25.394-25.394v-58.106c0-34.463-28.038-62.5-62.5-62.5s-62.5 28.037-62.5 62.5v58.106l25.394 25.394h-20.394v40h-43.59l-68.222 20.253-45.188 93.53v76.607l84.372 59.427-8.239 75.183h276.733l-8.239-75.182 84.373-59.427zm-136.786 127.494-6.154 2.251c-5.056 1.848-10.472 1.501-15.25-.976-4.779-2.479-8.181-6.707-9.581-11.906-2.607-9.683 2.803-19.752 12.316-22.923l9.488-3.163zm-1.856-69.268 38.128-15.413 77.493 31.664-94.855 66.811zm59.178-23.015 64.464-22.874v49.214zm23.652-116.247 37.919 78.482-76.09 27-11.951-120.363zm-116.188-57.747v25h-35v-25zm-42.5-146c23.639 0 43.295 17.36 46.902 40h-93.805c3.608-22.64 23.264-40 46.903-40zm-47.5 99.394v-44.394h95v44.394l-31.606 31.606h-31.787zm5 46.606h35v25h-35zm-116.188 57.747 50.122-14.881-11.951 120.363-76.09-27zm90.153 171.814 9.488 3.163c9.513 3.171 14.923 13.241 12.316 22.924-1.399 5.198-4.802 9.427-9.58 11.905-4.779 2.479-10.195 2.825-15.25.975l-6.153-2.251zm-28.089 50.509-94.855-66.811 77.493-31.664 38.128 15.413zm-38.412-106.076-64.464 26.34v-49.214zm18.917 110.691 28.742 20.245 6.005-24.019c5.114 2.01 10.814 3.923 16.316 3.765 5.397 0 10.778-1.28 15.652-3.809 8.434-4.375 14.688-12.146 17.158-21.32 4.669-17.342-5.02-35.374-22.058-41.054l-10.583-3.528 6.744-26.974-47.84-19.34 12.775-128.651h85.708v295h-114.133zm237.752 50.315h-114.133v-295h85.708l12.774 128.651-47.84 19.34 6.744 26.974-10.583 3.528c-17.038 5.68-26.726 23.713-22.058 41.055 2.47 9.174 8.724 16.945 17.158 21.319 4.874 2.529 10.255 3.809 15.652 3.809 5.497.158 11.209-1.756 16.317-3.765l6.005 24.019 28.742-20.245z" fill="url(#SVGID_2_)"/></g></svg>