<svg id="Capa_1" enable-background="new 0 0 511.406 511.406" height="512" viewBox="0 0 511.406 511.406" width="512" xmlns="http://www.w3.org/2000/svg" xmlns:xlink="http://www.w3.org/1999/xlink"><linearGradient id="SVGID_1_" gradientUnits="userSpaceOnUse" x1="255.452" x2="255.452" y1="14.906" y2="503.906"><stop offset=".00000036422" stop-color="#a8abff"/><stop offset="1" stop-color="#fac8ff"/></linearGradient><linearGradient id="SVGID_2_" gradientUnits="userSpaceOnUse" x1="255.703" x2="255.703" y1="0" y2="511.406"><stop offset="0" stop-color="#174fa3"/><stop offset="1" stop-color="#b044af"/></linearGradient><g id="Filled_20_"><path d="m191.452 242.906 50-45 185 16 17 101-35.179 28.143-17.821 113.857 32 47h-241l-28-47v-123z" fill="#fff"/><path d="m233.452 112.906 4-98 64 50h84l64-50 4 98 10 69-82 73h-76l-82-73zm-80 344h-46l-7-47-53-50v88l39 56h95z" fill="url(#SVGID_1_)"/><path d="m380.952 140.906h15v16h-15zm-90 16h15v-16h-15zm124.281 190.18-16.912 108.05 38.312 56.27h-354.097l-42.583-61.146v-107.74l67.536 63.713 6.43 43.173h32.034v-117.003l39.229-93.943 45.012-40.511-14.743-13.124 10.524-72.613 4.579-112.212 73.48 57.406h78.836l73.48-57.406 4.58 112.212 10.524 72.613-36.78 32.743 16.906 100.441zm6.212-117.742-37.138 33.062h-81.71l-37.138-33.062-13.879 82.459 91.872 73.498 91.872-73.498zm-85.493 256.456v-87.289l-46.925-37.54 14.456 92.36zm119.499-306.812-8.958-61.814-59.733-42.164-43.308 51.557-43.307-51.557-59.732 42.164-8.958 61.814 76.853 68.418h70.291zm-111.999-75.742 25.905-30.839h-51.811zm99.102-73.434-44.529 34.788 47.312 33.397zm-198.204 0-2.783 68.185 47.312-33.397zm-78.474 293.806 71.029-14.995 15.326-91.056-10.765-9.583-43.742 39.368zm-69.298 139.241-33.022-4.953 21.464 30.82zm-41.626-85.567v64.155l43.589 6.538-5.124-34.406zm113.302 119.114-19.064-32h-36.874l-14.298 32zm92.231 0 28.099-41.27-16.912-108.05-30.137-24.11-80.582 17.012v114.853l24.762 41.565zm18.147 0h46.714l-27.792-27.792zm110.719-27.792-27.792 27.792h46.714zm8.526-107.643-46.925 37.54v87.289l32.468-32.468zm-46.925-168.065h-15c0 12.407-10.093 22.5-22.5 22.5v15c12.254 0 23.153-5.909 30-15.026 6.847 9.117 17.746 15.026 30 15.026v-15c-12.406 0-22.5-10.093-22.5-22.5z" fill="url(#SVGID_2_)"/></g></svg>