<svg id="Capa_1" enable-background="new 0 0 511 511" height="512" viewBox="0 0 511 511" width="512" xmlns="http://www.w3.org/2000/svg" xmlns:xlink="http://www.w3.org/1999/xlink"><linearGradient id="SVGID_1_" gradientUnits="userSpaceOnUse" x1="255.136" x2="255.136" y1="7.5" y2="248.5"><stop offset=".00000036422" stop-color="#a8abff"/><stop offset="1" stop-color="#fac8ff"/></linearGradient><linearGradient id="SVGID_2_" gradientUnits="userSpaceOnUse" x1="255.5" x2="255.5" y1="0" y2="511"><stop offset="0" stop-color="#174fa3"/><stop offset="1" stop-color="#b044af"/></linearGradient><g id="Filled_3_"><path d="m299.136 111.5-33-52 17-52h3l30 54h98l30-54h3l17 52-33 52zm-161 119-8-63-84-84v121l59 44z" fill="url(#SVGID_1_)"/><path d="m115.136 230.5 139-11 55.555-39.682-24.555-27.318 31-91h98l31 91-80 89-2 262h-11l-32.95-73.889-18.05 73.889h-5l-21.15-143.01-116.201-4.772-42.649 147.782h-40l-11-187z" fill="#fff"/><path d="m439.416 112.449 32.948-51.918-19.789-60.531h-12.852l-30 54h-89.173l-30-54h-12.852l-19.789 60.532 32.948 51.918-14.238 41.794 21.886 24.348-47.034 33.596-107.023 8.47-7.193-56.646-98.619-98.618v142.869l56.33 42.008-37.45 64.413 11.549 196.316h52.713l42.581-147.546 104.118 4.279 21.187 143.267h17.361l14.243-58.306 26.001 58.306h23.311l2.035-266.6 81.039-90.156zm4.82-89.685 11.673 35.704-22.698 35.766-10.902-32.002zm-169.872 35.704 11.673-35.704 21.927 39.469-10.902 32.002zm-220.728 142.269v-99.131l69.383 69.383 6.457 50.853-18.849 1.492-8.073 13.885zm29.434 292.907-9.617-163.484 46.934 27.867zm27.425 2.356h-12.516l36.807-133.762 14.143.581zm20.842-148.916-55.981-33.239 44.29-76.179 128.097-10.137 18.5 125.099zm168.496 130.146-37.607-254.292 46.369-33.121 48.315 53.75zm50.657-263.243c4.237-3.854 9.351-5.987 14.646-5.987s10.408 2.134 14.646 5.987l-14.646 16.293zm-23.41 214.912 30.065-123.077-1.429 187.289zm62.738-226.077c-6.964-6.323-15.594-9.822-24.682-9.822s-17.718 3.499-24.682 9.822l-46.801-52.066 27.851-81.756h87.264l27.851 81.756zm-2.182-77.322h15v16h-15zm-60 0h15v16h-15z" fill="url(#SVGID_2_)"/></g></svg>