<svg id="Capa_1" enable-background="new 0 0 511.258 511.258" height="512" viewBox="0 0 511.258 511.258" width="512" xmlns="http://www.w3.org/2000/svg" xmlns:xlink="http://www.w3.org/1999/xlink"><linearGradient id="SVGID_1_" gradientUnits="userSpaceOnUse" x1="255" x2="255" y1="76.19" y2="283.19"><stop offset=".00000083866" stop-color="#96d1f3"/><stop offset="1" stop-color="#ccfff4"/></linearGradient><linearGradient id="SVGID_2_" gradientUnits="userSpaceOnUse" x1="255.629" x2="255.629" y1="67.568" y2="443.69"><stop offset="0" stop-color="#174fa3"/><stop offset="1" stop-color="#b044af"/></linearGradient><g id="Filled_28_"><path d="m311.5 180.19-75.055 12.838-5.945 90.162 12 37-10 39 10 47-17 30h92l-14-14h53l-37-29 1-35 29-53 21-44 23 32 6-1 1-54-12.47-8.13 36.47-50.87-57-3z" fill="#fff"/><path d="m236.445 193.028-5.945 90.162-223-50v-1zm196.055-116.838-39 20-26 80 57 3v-21l37-14 33 4 8-28z" fill="url(#SVGID_1_)"/><path d="m432.877 67.568-45.553 23.36-25.396 78.141-50.962 3.641-310.966 53.154v13.331l224.686 50.378 10.009 30.861-9.896 38.597 9.774 45.938-21.943 38.721h122.977l-14-14h56.62l-51.121-40.068.84-29.414 28.134-51.418 15.727-32.932 18.325 25.497 16.751-2.792 1.192-64.388-9.385-6.116 33.31-46.458v-18.23l30.429-11.513 37.524 4.548 11.305-39.569zm-154.475 290.148-31.521 33.023-6.678-31.39 8.263-32.226 49.564-5.028zm-30.635-45.599-9.688-29.872 4.902-74.344 61.019 53.794v44.718zm56.233-70.419-49.985-44.066 49.985-8.55zm-75.664-39.674-4.743 71.931-179.927-40.342zm10.034 226.666 10.196-17.993 28.867-30.241.641 26.914 21.32 21.32zm74.685-72.518-1.16 40.586 22.879 17.932h-28.166l-13.68-13.681-.881-36.974 24.363-44.214 18.688-3.935zm31.272-57.557-25.327 5.332v-49.791l40.919 11.79zm47.923-20.014-17.177-23.898-56.073-16.157v-44.516l73.925 48.176zm-57.973-92.519 33.295-2.378 42.845 2.255-24.307 33.902zm154.77-46.108-28.476-3.452-43.571 16.487v18.276l-39.347-2.071 22.023-67.763 32.447-16.64 61.619 38.731z" fill="url(#SVGID_2_)"/></g></svg>