<svg id="Capa_1" enable-background="new 0 0 511 511" height="512" viewBox="0 0 511 511" width="512" xmlns="http://www.w3.org/2000/svg" xmlns:xlink="http://www.w3.org/1999/xlink"><linearGradient id="SVGID_1_" gradientUnits="userSpaceOnUse" x1="255.5" x2="255.5" y1="37.5" y2="503.5"><stop offset=".00000036422" stop-color="#a8abff"/><stop offset="1" stop-color="#fac8ff"/></linearGradient><linearGradient id="SVGID_2_" gradientUnits="userSpaceOnUse" x1="255.5" x2="255.5" y1="0" y2="511"><stop offset="0" stop-color="#174fa3"/><stop offset="1" stop-color="#b044af"/></linearGradient><g id="Filled_33_"><path d="m209.5 133.5-14-51 36-45h48l36 45-14 51zm-24 270 44 100h52l44-100v-60l-24-60h-92l-24 60z" fill="url(#SVGID_1_)"/><path d="m469.5 176.5-168-43h-92l-168 43-34 31v71l48 63h52l102-94.419v36.419h92v-36.419c43.698 40.45 102 94.419 102 94.419h52l48-63v-71z" fill="#fff"/><path d="m473.171 169.698-162.418-41.572 12.991-47.326-35.39-44.238 1.798-3.596c5.541-11.082 16.68-17.966 29.07-17.966h10.278v-15h-10.278c-18.108 0-34.388 10.062-42.485 26.257l-1.872 3.743h-38.729l-1.872-3.743c-8.098-16.195-24.377-26.257-42.486-26.257h-10.278v15h10.278c12.39 0 23.528 6.884 29.069 17.966l1.798 3.596-35.389 44.238 12.992 47.327-162.419 41.571-37.829 34.49v76.843l51.785 67.969h58.653l91.562-84.756v17.811l-24 60.001v63.021l46.606 105.923h61.787l46.607-105.923v-63.021l-24-60.001v-17.811l91.562 84.756h58.653l51.785-67.969v-76.843zm-238.067-124.698h40.791l31.36 39.2-11.474 41.8h-80.563l-11.474-41.8zm-130.542 289h-45.347l-44.215-58.031v-65.157l30.171-27.51 165.273-42.302h37.556v60.223zm191.86-43 10.4 26h-102.644l10.4-26zm18.464 118h-118.772l-3.114-7.077v-23.923h125v23.923zm-112.172 15h105.572l-13.64 31h-78.292zm73.892 72h-42.213l-11.44-26h65.093zm41.394-133h-125v-18.056l5.178-12.944h114.644l5.178 12.944zm-24-87h-77v-25.642l38.5-35.639 38.5 35.639zm202-.031-44.215 58.031h-45.347l-143.438-132.777v-60.223h37.556l165.273 42.302 30.171 27.51z" fill="url(#SVGID_2_)"/></g></svg>