<svg id="Capa_1" enable-background="new 0 0 511 511" height="512" viewBox="0 0 511 511" width="512" xmlns="http://www.w3.org/2000/svg" xmlns:xlink="http://www.w3.org/1999/xlink"><linearGradient id="SVGID_1_" gradientUnits="userSpaceOnUse" x1="253.5" x2="253.5" y1="51.5" y2="468.5"><stop offset=".00000036422" stop-color="#a8abff"/><stop offset="1" stop-color="#fac8ff"/></linearGradient><linearGradient id="SVGID_2_" gradientUnits="userSpaceOnUse" x1="255.5" x2="255.5" y1="0" y2="511"><stop offset="0" stop-color="#174fa3"/><stop offset="1" stop-color="#b044af"/></linearGradient><g id="Filled_23_"><g fill="#fff"><path d="m165.5 373.5h180v130h-180z"/><path d="m230.5 303.5h50v70h-50z"/><path d="m255.5 307.5c-77.32 0-140-62.68-140-140v-160h280v160c0 77.32-62.68 140-140 140z"/></g><path d="m205.5 468.5v-60h100v60zm105.618-371.131 47.382-19.633-42.215-26.236-42.888 50.58-26.343-20.471-98.554 5.433 35.567 59.387 19.476-20.043 28.143 25.584-18.791 21.303-6.381 79.047 61.181 3.18-33.166-49.766 73.066-77.08z" fill="url(#SVGID_1_)"/><path d="m403 20v-20h-295v20h-90v97.5c0 57.296 45.058 104.262 101.6 107.336 18.315 43.247 56.696 76.005 103.4 86.549v54.615h-82.5v15h17.5v115h-17.5v15h230v-15h-17.5v-115h17.5v-15h-82.5v-54.616c46.704-10.543 85.085-43.301 103.4-86.549 56.542-3.073 101.6-50.039 101.6-107.335v-97.5zm-370 97.5v-82.5h75v132.5c0 14.511 2.116 28.535 6.039 41.79-45.616-5.662-81.039-44.665-81.039-91.79zm305 378.5h-165v-115h165zm-65-130h-35v-52.043c5.741.682 11.579 1.043 17.5 1.043s11.759-.361 17.5-1.043zm-17.5-66c-73.061 0-132.5-59.439-132.5-132.5v-152.5h265v152.5c0 73.061-59.439 132.5-132.5 132.5zm222.5-182.5c0 47.125-35.423 86.128-81.039 91.79 3.923-13.256 6.039-27.279 6.039-41.79v-132.5h75zm-165 358.5v-75h-115v75zm-100-60h85v45h-85zm17.5 15h50v15h-50zm41.824-339.252-22.882-17.782-113.759 6.272 46.964 78.417 21.22-21.838 17.307 15.734-15.554 17.633-7.204 89.227 83.799 4.355-38.128-57.212 70.679-74.562 3.31-29.386 56.787-23.53-60.114-37.359zm33.75-16.609-4.437 39.389-17.458-13.567zm-144.757 18.708 66.975-3.692-42.804 44.05zm86.437-2.196 48.705 37.848-36.262 38.254-45.871-41.7zm-33.145 153.58 4.022-49.825 34.542 51.83zm7.724-71.32 9.941-11.27 17.601 16.001-14.321 15.108zm97.661-88.338 2.415-21.436 19.729 12.261z" fill="url(#SVGID_2_)"/></g></svg>