<svg id="Capa_1" enable-background="new 0 0 510.092 510.092" height="512" viewBox="0 0 510.092 510.092" width="512" xmlns="http://www.w3.org/2000/svg" xmlns:xlink="http://www.w3.org/1999/xlink"><linearGradient id="SVGID_1_" gradientUnits="userSpaceOnUse" x1="255.046" x2="255.046" y1="67.674" y2="445.674"><stop offset=".00000036422" stop-color="#a8abff"/><stop offset="1" stop-color="#fac8ff"/></linearGradient><linearGradient id="SVGID_2_" gradientUnits="userSpaceOnUse" x1="255.046" x2="255.046" y1="48.6" y2="461.492"><stop offset="0" stop-color="#174fa3"/><stop offset="1" stop-color="#b044af"/></linearGradient><g id="Filled_11_"><path d="m471.046 343.674 10 45-32 22-44 35 1-47-36-25h-230l-36 25 1 47-44-35-32-22 10-45 70-49-41-23-55 6 18-35 43-13-38-50v-50l31-62 20 56 31-7-11 50 34 7 26 45h176l26-45 34-7-11-50 31 7 20-56 31 62v50l-38 50 43 13 18 35-55-6-41 23z" fill="url(#SVGID_1_)"/><path d="m270.046 416.674 100-43 31-79-24-63-122-51-122 51-24 63 31 79 100 43z" fill="#fff"/><path d="m477.735 339.201-62.609-43.826 28.495-15.985 66.472 7.251-25.831-50.227-35.712-10.797 32.998-43.418v-54.297l-39.654-79.302-23.677 66.295-36.032-8.136 11.903 54.103-29.852 6.146-23.82 41.226-39.498-16.511 7.131-16.531-13.773-5.941-7.198 16.686-32.033-13.391-32.033 13.391-7.198-16.686-13.773 5.941 7.131 16.531-39.498 16.511-23.82-41.226-29.852-6.146 11.903-54.103-36.032 8.136-23.675-66.295-39.652 79.304v54.296l32.998 43.418-35.712 10.797-25.832 50.227 66.472-7.251 28.495 15.985-62.609 43.826-11.73 52.786 35.956 24.719 56.302 44.786-1.254-58.954 29.276-20.331 97.596 41.966h33.088l97.596-41.966 29.276 20.331-1.254 58.954 56.302-44.786 35.956-24.719zm-40.17 17.549-43.11-24.748 10.093-25.721 52.185 36.53zm-7.497-115.888 3.826 26.785-28.935 16.232-9.972-26.178zm53.932 27.844-35.353-3.857-3.513-24.593 28.697 8.676zm-56.125-136.253 16.323-45.705 22.348 44.696v39.231l-57.246-10.481-7.393-33.605zm-54.02 47.888 29.274-6.027 57.56 10.539-29.52 38.842-41.541 19.94-6.72-17.639-28.538-11.93zm-237.619 0 19.485 33.725-28.538 11.93-6.72 17.639-41.541-19.94-29.52-38.842 57.56-10.539zm-63.709 176.409-19.168-13.94 52.185-36.53 10.093 25.721zm32.605-72.871-28.935-16.232 3.826-26.785 35.081 16.839zm-39.238-197.131 16.323 45.705 25.968-5.864-7.393 33.605-57.246 10.482v-39.231zm-29.633 162.185 28.697-8.676-3.513 24.593-35.353 3.857zm8.007 105.813 19.297 14.034-7.225 29.557-18.875-12.977zm25.203 53.046 6.638-27.155 20.501 21.142.597 28.076zm35.527-18.91-20.854-21.505 37.032-21.259 9.723 24.778zm163.504 20.292h-26.912l-95.706-41.153-28.797-73.387 21.822-57.282 116.137-48.549 116.137 48.549 21.822 57.282-28.797 73.387zm110.691-38.279 9.723-24.778 37.032 21.259-20.854 21.505zm33.691 58.96.597-28.076 20.501-21.142 6.638 27.155zm40.867-31.518-7.225-29.557 19.297-14.034 6.803 30.615zm-257.65-236.92-5.941-13.773 13.773-5.941 5.941 13.773zm117.89 0-13.773-5.941 5.941-13.773 13.773 5.941z" fill="url(#SVGID_2_)"/></g></svg>