<svg id="Capa_1" enable-background="new 0 0 511.167 511.167" height="512" viewBox="0 0 511.167 511.167" width="512" xmlns="http://www.w3.org/2000/svg" xmlns:xlink="http://www.w3.org/1999/xlink"><linearGradient id="SVGID_1_" gradientUnits="userSpaceOnUse" x1="255.584" x2="255.584" y1="28.584" y2="503.584"><stop offset=".00000036422" stop-color="#a8abff"/><stop offset="1" stop-color="#fac8ff"/></linearGradient><linearGradient id="SVGID_2_" gradientUnits="userSpaceOnUse" x1="255.584" x2="255.584" y1=".084" y2="511.084"><stop offset="0" stop-color="#174fa3"/><stop offset="1" stop-color="#b044af"/></linearGradient><g id="Filled_26_"><path d="m160.583 131.583v58l-97 29-37-46 25-132 38 17v95.72zm42 250-18-58-100-36-33 40 20.92 115.04-62.92 31.96 12 29h62l46-32-14.8-98.68 35.8 25.68zm148-250v58l97 29 37-46-25-132-38 17v95.72zm10 267 35.8-25.68-14.8 98.68 46 32h62l12-29-62.92-31.96 20.92-115.04-33-40-100 36-18 58zm-21-300 22-40-16-30-44 6h-92l-44-6-16 30 22 40z" fill="url(#SVGID_1_)"/><path d="m308.583 381.583 42-132v-136l-67-106h-56l-67 106v136l42 132z" fill="#fff"/><path d="m447.045 438.47 20.54-112.972-38.576-46.759-90.16 32.458 19.234-60.449v-51.094l92.184 27.56 42.329-52.626-27.41-144.727-51.103 22.861v90.447l-56-17.134v-14.623l-9.088-14.378 21.117-38.396-20.369-38.191-45.257 6.171-16.771-26.535h-64.264l-16.771 26.535-45.257-6.171-20.369 38.191 21.117 38.396-9.088 14.378v14.623l-56 17.134v-90.447l-51.102-22.861-27.41 144.727 42.329 52.625 92.184-27.56v51.094l19.234 60.449-90.16-32.458-38.576 46.759 20.54 112.972-64.122 32.571 16.57 40.044h69.365l51.756-36.004-12.86-85.735 24.47 17.549 54.478-17.81h103.609l54.478 17.81 24.47-17.549-12.86 85.735 51.756 36.004h69.365l16.57-40.044zm-17.962-376.025 24.897-11.139 20.923 110.472-45.82-14.02zm42.714 114.069-26.897 33.44-86.816-25.956v-42.276zm-130.374-139.794 11.631 21.809-13.213 24.023-26.545-41.996zm-183.31 21.809 11.631-21.809 28.126 3.836-26.545 41.996zm-100.927-7.223 24.897 11.139v85.314l-45.82 14.02zm9.081 158.648-26.897-33.44 113.714-34.793v42.276zm-47.1 268.173 47.755-24.257 7.675 42.213h-48zm102.308-10.04-32.599 22.678-26.597-146.281 45.556 32.671zm-58.999-141.921 24.534-29.738 91.036 32.773 15.134 47.566-41.315 13.507zm145.591 47.917-39.984-125.664v-132.664l63.632-100.672h47.736l63.632 100.672v132.664l-39.983 125.664zm151.234 16.191-41.315-13.507 15.134-47.566 91.036-32.773 24.534 29.738zm44.031-13.119 45.556-32.671-26.596 146.282-32.599-22.678zm81.238 118.928h-48l7.675-42.213 47.755 24.257z" fill="url(#SVGID_2_)"/></g></svg>