<svg id="Capa_1" enable-background="new 0 0 510.733 510.733" height="512" viewBox="0 0 510.733 510.733" width="512" xmlns="http://www.w3.org/2000/svg" xmlns:xlink="http://www.w3.org/1999/xlink"><linearGradient id="SVGID_1_" gradientUnits="userSpaceOnUse" x1="255" x2="255" y1="73.15" y2="362.15"><stop offset=".00000036422" stop-color="#a8abff"/><stop offset="1" stop-color="#fac8ff"/></linearGradient><linearGradient id="SVGID_2_" gradientUnits="userSpaceOnUse" x1="255.367" x2="255.367" y1="64.083" y2="446.65"><stop offset="0" stop-color="#174fa3"/><stop offset="1" stop-color="#b044af"/></linearGradient><g id="Filled_29_"><path d="m430.5 247.15-108-50-71 17-42 13-81 65-15 70 55 77h132l-3.71-13 152.71-1-25-50 25-66z" fill="#fff"/><path d="m322.5 197.15-71 17-57-42-14-58 42-41h58l41 32 35-14 44 8 90-26 12 29-72 145zm-257 38 66-50h-95l-29 101v44l106 32 15-70-63-3.13z" fill="url(#SVGID_1_)"/><path d="m432.678 374.734 24.745-65.327-18.877-61.598 72.188-145.377-15.869-38.35-94.755 27.373-44.391-8.07-33.002 13.2-39.637-30.935h-63.634l-47.238 46.113 15.643 64.804 47.243 34.811-29.175 9.03-79.891 64.11-53.028-2.629v-43.01l80.82-61.228h-122.969l-30.851 107.444v50.626l108.884 32.87 55.757 78.059h145.803l-3.733-13.066 154.886-1.013zm4.726 42.995-42.899.28 28.094-29.888zm-80.123-318.814 43.609 7.93 85.245-24.627 8.131 19.65-67.238 135.41-97.08-44.945-.893-82.128zm-156.132 68.818-12.357-51.196 36.762-35.887h52.366l36.119 28.191.896 82.408-61.792 14.795zm-128.149 52.326v-27.409h36.18zm-30.851-27.409h15.851v88.495l-40.68-2.017zm-27.149 101.382 104.318 5.173-11.446 53.413-92.872-28.038zm119.406 6.35 94.327 10.884 36.933 42.809-95.605 74.359-48.535-67.949zm55.953 131.268 81.98-63.763 18.218 63.763zm112.073-13.039-19.174-67.109-46.991-54.467-89.064-10.276 65.879-52.865 40.4-12.505 68.232-16.337 102.598 47.499 17.267 56.344-23.565 62.205-44.223 47.045z" fill="url(#SVGID_2_)"/></g></svg>