<svg id="Capa_1" enable-background="new 0 0 511.301 511.301" height="512" viewBox="0 0 511.301 511.301" width="512" xmlns="http://www.w3.org/2000/svg" xmlns:xlink="http://www.w3.org/1999/xlink"><linearGradient id="SVGID_1_" gradientUnits="userSpaceOnUse" x1="207" x2="207" y1="132.912" y2="472.912"><stop offset=".00000083866" stop-color="#96d1f3"/><stop offset="1" stop-color="#ccfff4"/></linearGradient><linearGradient id="SVGID_2_" gradientUnits="userSpaceOnUse" x1="255.65" x2="255.65" y1="30.889" y2="480.412"><stop offset="0" stop-color="#174fa3"/><stop offset="1" stop-color="#b044af"/></linearGradient><g id="Filled_24_"><g fill="#fff"><path d="m59.5 256.912-22 10.58v71.42l-30 20v-113l39-21z"/><path d="m129.5 472.912h60l-56-51z"/><path d="m367.5 472.912h60l-60-51z"/><path d="m142.5 333.912 147-1 78-14 78-44 20-56-22-103 50-8 9-40-86-29-35 15-15 145-89-66-64 49-53-26z"/></g><path d="m160.5 155.912-31 317h-4l-79-248zm199 317h8l-1-274-89-66-64 49z" fill="url(#SVGID_1_)"/><path d="m511.301 62.965-95.12-32.076-41.688 17.866-14.099 136.292-82.967-61.525-64.797 49.61-52.508-25.758-117.345 71.024-42.777 23.034v131.493l45-30v-70.721l7.539-3.624 67.479 211.832h88.856l-66.637-60.687 7.663-78.363 134.748-.917 70.224 139.967h93.032l-73.104-62.138-.345-94.675 77.167-43.53 21.657-60.641-20.795-97.359 47.218-7.555zm-481.301 271.933-15 10v-58.27l15-7.212zm-15-64.914v-19.593l27.097-14.591 5.844 18.346zm40.44-41.717 96.139-58.189-26.936 275.435zm114.686 237.145h-32.356l2.646-27.058zm-18.758-139.061 15.543-158.94 41.019 20.122 69.218 137.962zm71.618-142.256 54.586-41.792 81.441 60.395.929 254.371zm184.11 281.317h-32.123l-.1-27.39zm-33.031-248.816 58.974 56.734-58.646 33.083zm83.656 1.799-15.382 43.069-68.002-65.42 6.486-62.691 56.827-8.93zm29.577-117.086-44.962 7.194-59.917 9.416 6.088-58.849 28.312-12.134 76.88 25.924z" fill="url(#SVGID_2_)"/></g></svg>