<svg id="Capa_1" enable-background="new 0 0 510.741 510.741" height="512" viewBox="0 0 510.741 510.741" width="512" xmlns="http://www.w3.org/2000/svg" xmlns:xlink="http://www.w3.org/1999/xlink"><linearGradient id="SVGID_1_" gradientUnits="userSpaceOnUse" x1="260.541" x2="260.541" y1="8.241" y2="453.241"><stop offset=".00000036422" stop-color="#a8abff"/><stop offset="1" stop-color="#fac8ff"/></linearGradient><linearGradient id="SVGID_2_" gradientUnits="userSpaceOnUse" x1="255.371" x2="255.371" y1="0" y2="510.741"><stop offset="0" stop-color="#174fa3"/><stop offset="1" stop-color="#b044af"/></linearGradient><g id="Filled_44_"><path d="m395.541 259.241-22 5-212 12-73 8-70-26 61 95 47 74 60 76h173l83-70 60-147z" fill="#fff"/><path d="m220.541 220.241 17.023 4.896 23.977-25.896 112 65 69 169-170 20-254-44zm282 66-83-200 72 9-69-87-61 12-16 56 50 183z" fill="url(#SVGID_1_)"/><path d="m431.414 95.283 77.407 9.677-83.244-104.96-69.987 13.769-17.837 62.428 48.488 177.467-11.488 2.611-114.639-66.532-24.917 26.91-16.674-4.795-61.248 57.307-67.788 7.429-89.397-33.206 69.332 107.976-67.008 62.696 120.667 20.903 59.825 75.779h179.375l86.506-72.957 61.864-151.566zm-63.923-68.568 52.014-10.232 54.756 69.04-53.786-6.723-65.342-8.83zm-11.731 58.475 58.505 7.906 75.62 182.216-88.264-22.272zm66.485 318.185-174.62-167.541 120.347 34.609zm-159.279-194.635 54.302 31.515-65.927-18.96zm-225.975 64.355 50.603 18.795 51.416-5.635-58.451 54.689zm183.484-42.522 205.405 197.077-153.133 18.015-238.08-41.242zm136.325 265.168h-166.625l-44.956-56.944 126.041 21.833 1.074.187 146.282-17.21zm85.74-82.344-58.713-143.803 11.622-2.641 96.885 24.448z" fill="url(#SVGID_2_)"/></g></svg>