<svg id="Capa_1" enable-background="new 0 0 511 511" height="512" viewBox="0 0 511 511" width="512" xmlns="http://www.w3.org/2000/svg" xmlns:xlink="http://www.w3.org/1999/xlink"><linearGradient id="SVGID_1_" gradientUnits="userSpaceOnUse" x1="294" x2="294" y1="199.018" y2="324.817"><stop offset=".00000083866" stop-color="#96d1f3"/><stop offset="1" stop-color="#ccfff4"/></linearGradient><linearGradient id="SVGID_2_" gradientUnits="userSpaceOnUse" x1="255.5" x2="255.5" y1="53.518" y2="457.482"><stop offset="0" stop-color="#174fa3"/><stop offset="1" stop-color="#b044af"/></linearGradient><g id="Filled_4_"><path d="m60.5 244.018-15-21 10-36h1l39 34-11 28z" fill="#fff"/><path d="m193.105 324.817 67.395 31.201 21 39v44l36-37 7.82-35.17 146.18-30.83 32-26v-23l-191-2z" fill="#fff"/><path d="m503.5 209.018v78l-191-2-119.395 39.798-94.605-43.798-14-32 104-50h299z" fill="url(#SVGID_1_)"/><g fill="#fff"><circle cx="477.5" cy="151.018" r="16"/><circle cx="425.5" cy="91.018" r="30"/><path d="m98.5 281.018-44 23-47-4v-9l53-47 24 5z"/></g><path d="m430.5 243.518h-16v-15h16zm80.5-38.656v108.727l-36.178 29.395-143.232 30.204-7.23 32.535-50.36 51.759v-60.573l-18.919-35.135-156.38-72.398-42.662 22.3-56.039-4.769v-19.262l50.474-44.76-13.16-18.422 12.486-44.945h9.511l45.104 39.321-5.949 15.143 88.326-42.464h302.86zm-416.728 47.78 9.96 22.765 89.324 41.354 117.766-39.255 184.678 1.933v-66.264l-10.651-6.657h-295.14zm255.158 40.263-11.833 53.248 62.48-52.718zm2.688 60.625 42.681-9.001 61.384-50.505-33.127-.347zm-298.432-131.956 11.214 15.7 14.935 3.111 6.752-17.188-26.85-23.407zm35.138 56.039-9.644-22.042-16.522-3.442-46.359 41.111 36.662 3.12zm221.817 120.701 23.459-105.569-20.421-.214-100.267 33.423 52.507 24.309 23.081 42.864v27.428zm185.359-91.866v-12.008l-16.506-.173-52.95 43.567 41.634-8.78zm-18.5-178.93c12.958 0 23.5 10.542 23.5 23.5s-10.542 23.5-23.5 23.5-23.5-10.542-23.5-23.5 10.542-23.5 23.5-23.5zm-8.5 23.5c0 4.687 3.813 8.5 8.5 8.5s8.5-3.813 8.5-8.5-3.813-8.5-8.5-8.5-8.5 3.813-8.5 8.5zm-81-60c0-20.678 16.822-37.5 37.5-37.5s37.5 16.822 37.5 37.5-16.822 37.5-37.5 37.5-37.5-16.822-37.5-37.5zm15 0c0 12.407 10.094 22.5 22.5 22.5s22.5-10.093 22.5-22.5-10.094-22.5-22.5-22.5-22.5 10.094-22.5 22.5z" fill="url(#SVGID_2_)"/></g></svg>