<svg id="Capa_1" enable-background="new 0 0 510.388 510.388" height="512" viewBox="0 0 510.388 510.388" width="512" xmlns="http://www.w3.org/2000/svg" xmlns:xlink="http://www.w3.org/1999/xlink"><linearGradient id="SVGID_1_" gradientUnits="userSpaceOnUse" x1="110.5" x2="110.5" y1="118.812" y2="418.812"><stop offset=".00000083866" stop-color="#96d1f3"/><stop offset="1" stop-color="#ccfff4"/></linearGradient><linearGradient id="SVGID_2_" gradientUnits="userSpaceOnUse" x1="255.194" x2="255.194" y1="81.568" y2="428.819"><stop offset="0" stop-color="#174fa3"/><stop offset="1" stop-color="#b044af"/></linearGradient><g id="Filled_19_"><path d="m213.5 306.812-137 112-47-45-22-68v-80l18-65 52-42 125 99z" fill="url(#SVGID_1_)"/><path d="m467.5 287.812 32-51-102-47-22-50-121-47 6.875 108.043-58.875 16.957-25 45 36 44 58.992 3.014-56.992 105.986 128-34 7-68 61.29-13.62-19.29 64.62 39 35 2.782-29.766 39.218 11.766z" fill="#fff"/><path d="m475.138 289.748 35.249-56.178-107.167-49.381-22.107-50.243-134.843-52.378 7.239 113.748-49.377 14.22-126.678-100.328-58.539 47.282-18.915 68.302v82.202l22.946 70.926 53.161 50.899 139.899-114.37 44.267 2.262-59.577 110.792 149.733-39.772 6.977-67.771 43.542-9.676-16.996 56.936 53.627 48.126 3.316-35.485 40.774 12.232zm-12.325-8.578-43.704 9.712-12.295-88.52 81.797 37.691zm-77.438-100.293-54.003-6.172-52.95-64.556 91.466 35.528zm-121.912-65.312 51.012 62.193-46.208 13.308zm64.674 73.868 62.734 7.17 13.548 97.544-54.552 12.123-132.665-6.779-30.672-37.488 21.022-37.841zm-183.387 73.926-129.75 32.819v-61.058zm-67.204-134.944 115.305 91.322-6.279 11.302-147.189-71.8zm-47.225 43.093 148.956 72.662-5.627 10.129-156.805-34.129zm-13.221 139.611 157.615-39.867 9.462 11.565-150.3 80.16zm25.067 64.437 151.694-80.903 9.083 11.102-126.051 103.049zm188.136 28.564 46.547-86.561 65.38 3.34-5.661 54.993zm170.743-41.717 16.671-55.846 15.283-3.396-7.581 81.116zm41.275 2.225 6.064-64.885 12.188-2.708 4.754 74.496zm-12.321-115.816v-16h15v16z" fill="url(#SVGID_2_)"/></g></svg>