<svg id="Capa_1" enable-background="new 0 0 511.537 511.537" height="512" viewBox="0 0 511.537 511.537" width="512" xmlns="http://www.w3.org/2000/svg" xmlns:xlink="http://www.w3.org/1999/xlink"><linearGradient id="SVGID_1_" gradientUnits="userSpaceOnUse" x1="294" x2="294" y1="137.769" y2="262.769"><stop offset=".00000083866" stop-color="#96d1f3"/><stop offset="1" stop-color="#ccfff4"/></linearGradient><linearGradient id="SVGID_2_" gradientUnits="userSpaceOnUse" x1="255.769" x2="255.769" y1="130.269" y2="381.269"><stop offset="0" stop-color="#174fa3"/><stop offset="1" stop-color="#b044af"/></linearGradient><g id="Filled_48_"><path d="m159.5 262.769-8-28 9-35 39-34 67-28h61l62 22 40 32 7 40z" fill="url(#SVGID_1_)"/><path d="m502.5 274.769-21 40-34-12-44 10-25.64 27.439 27.64 33.561h-59v-51l-53 10-80.36-11.911-15.81 17.941 28.17 34.97h-59v-47l-37 14-49 9h-73v-11l63-21 49-25 79-61h238l37 10z" fill="#fff"/><path d="m477.641 235.118-34.576-9.344-6.666-38.091-43.201-34.56-64.407-22.854h-63.795l-69.509 29.049-41.671 36.328-10.087 39.227 6.955 24.342-35.215 27.191-47.877 24.427-67.592 22.53v23.905h81.183l49.672-9.123.666-.123 27.479-10.397v43.643h82.173l-34.037-42.253 8.936-10.136 77.578 11.494 45.35-8.557v49.452h82.393l-33.559-40.75 19.574-20.948 39.641-9.009 38.076 13.438 26.413-50.311zm-81.077 74.09-42.564 45.55v-115.49h24.618l24.894 35.195zm-170.564-14.273-52 58.985v-93.758l23.861-18.425 28.139 28.138zm-12.342-70.666-40.616-25.484 25.445-22.183 37.556 47.667zm41.482 0-43.638-55.387 49.095-20.517 12.112 75.904zm32.758 0-12.606-79h43.231l-14.287 79zm45.411-76.481 44.072 15.638-45.632 60.842h-12.272zm17.191 76.481 40.357-53.81 25.884 20.708-50.48 33.102zm73.577-19.977 3.496 19.976h-33.96zm-264.806 30.373 5.937-23.089 26.024 16.329-27.767 21.441zm-79.725 86.908 34.614-17.66 6.431 30.867-34.914 6.413zm-13.925 5.728 4.677 14.968h-49.581zm69.432 3.347-7.253-34.813 31.2-24.091v49.844zm74.774 35.621h-26.717l13.96-15.836zm83.524-41.105-65.455-9.697 13.104-14.864v-36.94l-24.393-24.394h122.393v77.283zm96.256 41.105h-25.835l13.733-14.697zm88.269-60.733-29.924-10.562-34.828 7.916 6.363-31.817-22.496-31.805h38.513l33.855 9.15 24.104 27.428z" fill="url(#SVGID_2_)"/></g></svg>