<svg id="Capa_1" enable-background="new 0 0 511 511" height="512" viewBox="0 0 511 511" width="512" xmlns="http://www.w3.org/2000/svg" xmlns:xlink="http://www.w3.org/1999/xlink"><linearGradient id="SVGID_1_" gradientUnits="userSpaceOnUse" x1="255.185" x2="255.185" y1="7.5" y2="414.5"><stop offset=".00000036422" stop-color="#a8abff"/><stop offset="1" stop-color="#fac8ff"/></linearGradient><linearGradient id="SVGID_2_" gradientUnits="userSpaceOnUse" x1="255.5" x2="255.5" y1="0" y2="511"><stop offset="0" stop-color="#174fa3"/><stop offset="1" stop-color="#b044af"/></linearGradient><g id="Filled_18_"><path d="m281.185 289.5-129 24-28 190h28l39-89h97l29 89h24l12-188-12-35 28-184-53.652 5.648z" fill="#fff"/><path d="m152.185 313.5-3 32-34.75 7.72-5.25 37.28-32 13 11-77zm198-289-21-17h-30v29l26 13-9.652 52.648 53.652-5.648 53-6 11-23zm-117.358 273.997-41.642 116.003h97l-34.942-119.801z" fill="url(#SVGID_1_)"/><path d="m354.31 18.19-22.47-18.19h-40.155v41.135l25.107 12.553-42.053 229.382-129.192 24.036-64.038 13.097-13.594 95.158 48.095-19.539 5.128-36.407 17.266-3.837-22.905 155.422h41.589l39-89h86.653l29 89h36.48l12.544-196.516-11.889-34.675 26.859-176.502 51.422-5.821 15.928-33.303zm-47.625-3.19h19.845l12.461 10.087-15.287 15.287-17.019-8.509zm-58.742 288.313 30.242 103.687h-76.339l36.586-101.917zm-145.582 81.864-15.905 6.461 8.406-58.842 15.314-3.111zm21.011-41.624 2.399-17.035 17.437-3.542-2.463 16.716zm23.911 152.447h-14.411l25.952-176.106 62.531-11.634-37.138 103.456zm186.866 0h-11.52l-27.275-83.707-32.59-111.737 19.661-3.658 53.693-8.054 9.488 27.672zm.453-222.096-44.147 6.622 31.443-171.506 38.41-4.043zm82.61-190.389-48.812 5.526-43.682 4.598 7.423-40.488 19.467-19.467 71.677 37.134z" fill="url(#SVGID_2_)"/></g></svg>