<svg id="Capa_1" enable-background="new 0 0 511.25 511.25" height="512" viewBox="0 0 511.25 511.25" width="512" xmlns="http://www.w3.org/2000/svg" xmlns:xlink="http://www.w3.org/1999/xlink"><linearGradient id="SVGID_1_" gradientUnits="userSpaceOnUse" x1="255.625" x2="255.625" y1="403.606" y2="498.606"><stop offset=".00000036422" stop-color="#a8abff"/><stop offset="1" stop-color="#fac8ff"/></linearGradient><linearGradient id="SVGID_2_" gradientUnits="userSpaceOnUse" x1="255.625" x2="255.625" y1="223.606" y2="443.606"><stop offset=".00000083866" stop-color="#96d1f3"/><stop offset="1" stop-color="#ccfff4"/></linearGradient><linearGradient id="SVGID_3_" gradientUnits="userSpaceOnUse" x1="255.625" x2="255.625" y1="0" y2="511.25"><stop offset="0" stop-color="#174fa3"/><stop offset="1" stop-color="#b044af"/></linearGradient><g id="Filled_7_"><path d="m362.625 414.606v-11h-214v11l33 60 26.924-39.888 47.076 63.888 47.076-63.888 26.924 39.888z" fill="url(#SVGID_1_)"/><path d="m345.625 223.606 60 60v160l-60-40h-180l-60 40v-160l60-60z" fill="url(#SVGID_2_)"/><path d="m165.625 403.606v-303l90-90 90 90v303z" fill="#fff"/><path d="m413.125 280.5-60-60v-123l-97.5-97.5-97.5 97.5v123l-60 60v177.12l47.999-31.999 34.848 63.359 27.847-41.254 46.807 63.524 46.807-63.523 27.846 41.254 34.848-63.36 47.999 31.999v-177.12zm-229.394 115.606 71.894-71.894 71.893 71.894zm154.394-10.606-75-75v-281.787l75 75zm-90-356.787v281.787l-75 75v-281.787zm-135 258 45-45v157.88l-45 30zm69.154 173.519-23.629-42.962 9.246-6.164h13.939l17.538 23.801zm18.189-49.126h110.314l-55.157 74.856zm128.504 49.126-17.094-25.325 17.538-23.801h13.939l9.246 6.164zm69.153-30.639-45-30v-157.88l45 45z" fill="url(#SVGID_3_)"/></g></svg>