<svg id="Capa_1" enable-background="new 0 0 512 512" height="512" viewBox="0 0 512 512" width="512" xmlns="http://www.w3.org/2000/svg" xmlns:xlink="http://www.w3.org/1999/xlink"><linearGradient id="SVGID_1_" gradientUnits="userSpaceOnUse" x1="256" x2="256" y1="7.5" y2="504.5"><stop offset=".00000036422" stop-color="#a8abff"/><stop offset="1" stop-color="#fac8ff"/></linearGradient><linearGradient id="SVGID_2_" gradientUnits="userSpaceOnUse" x1="256" x2="256" y1="0" y2="512"><stop offset="0" stop-color="#174fa3"/><stop offset="1" stop-color="#b044af"/></linearGradient><g id="Filled_15_"><path d="m403 396.5v107h-6l-42.67-89.22-32.33-10.78-21-33-9 43 24 23-27 68h-9l-24-124-24 124h-9l-27-68 24-23-9-43-21 33-32.33 10.78-42.67 89.22h-6v-107l62-30v-29h170v29zm-63-195 68-43-147-151h-10l-147 151 68 43z" fill="url(#SVGID_1_)"/><path d="m261 7.5 95 230v100h-200v-100l95-230z" fill="#fff"/><path d="m348.5 345h15v-108.988l-13.263-32.112 69.589-44.005-155.66-159.895h-16.331l-155.661 159.896 69.589 44.005-13.263 32.111v108.988h15v16.797l-62 30v119.203h18.227l43.338-90.616 31.833-10.611 12.536-19.7 4.372 20.891-24.64 23.613 30.742 77.423h20.279l17.813-92.031 17.812 92.031h20.279l30.741-77.423-24.64-23.613 4.372-20.891 12.536 19.7 31.833 10.611 43.34 90.616h18.227v-119.203l-62-30zm0-15h-185v-91.012l92.5-223.947 92.5 223.947zm-55 39.724-6.142 29.346-23.858-21.87v-32.2h30zm-68.858 29.346-6.142-29.346v-24.724h30v32.201zm119.782-209.241-61.615-149.175 113.366 116.451zm-228.598-32.725 113.365-116.45-61.615 149.175zm51.848 219.337 11.661 22.708-62.835 20.945v-18.892zm-51.174 106.539v-47.075l26.784-8.928zm74.196-94.543-12.196-23.75v-19.687h25v23.316zm35.864 104.704-21.727-54.718 20.296-19.45 19.19-17.591zm80.607-54.718-21.727 54.718-17.76-91.759 19.19 17.591zm1.333-93.423h25v19.686l-12.196 23.75-12.804-20.12zm60.216 81.978 26.784 8.928v47.075zm26.784-25.775v18.892l-62.835-20.945 11.661-22.708z" fill="url(#SVGID_2_)"/></g></svg>