<svg id="Capa_1" enable-background="new 0 0 511.748 511.748" height="512" viewBox="0 0 511.748 511.748" width="512" xmlns="http://www.w3.org/2000/svg" xmlns:xlink="http://www.w3.org/1999/xlink"><linearGradient id="SVGID_1_" gradientUnits="userSpaceOnUse" x1="255.874" x2="255.874" y1="7.653" y2="478.653"><stop offset=".00000036422" stop-color="#a8abff"/><stop offset="1" stop-color="#fac8ff"/></linearGradient><linearGradient id="SVGID_2_" gradientUnits="userSpaceOnUse" x1="255.874" x2="255.874" y1=".153" y2="511.595"><stop offset="0" stop-color="#174fa3"/><stop offset="1" stop-color="#b044af"/></linearGradient><g id="Filled_47_"><path d="m102.874 221.653-92 32 34-128 122-12 29-2v-64l40-40h40l40 40v64l29 2 122 12 34 128-92-32-22 166 76 91-73-6-56-36h-156l-56 36-73 6 76-91z" fill="url(#SVGID_1_)"/><path d="m255.874 501.653 131-114 22-166-64-108-89-11-89 11-64 108 22 166z" fill="#fff"/><path d="m415.1 231.76 96.648 33.616-38.961-146.678-127.097-12.501-22.316-2.758v-58.893l-44.394-44.393h-46.213l-44.394 44.394v58.893l-22.313 2.758-127.099 12.5-38.961 146.677 96.648-33.616 20.359 153.614-85.373 102.222 92.72-7.621 54.743-35.192 76.776 66.813 76.776-66.813 54.743 35.192 92.721 7.621-85.373-102.222zm-34.248 144.248-23.861-12.558 16.63-126.572 26.42-5.662zm-124.978 62.699-85.934-74.845-17.3-131.67 42.868-74.553 60.366-7.43 60.365 7.43 42.868 74.553-17.3 131.67zm-114.776-216.534-26.455-5.669 52.519-88.626 14.925 23.01zm229.552 0-40.989-71.285 14.925-23.009 52.519 88.626zm-11.776-99.607 95.432 9.386-45.37 75.094zm-41.739 20.07-53.761-6.617v-24.883l68.687 8.489zm-68.761-6.617-53.761 6.617-14.926-23.01 68.687-8.489zm-145.562 71.027-45.369-75.094 95.432-9.386zm35.316 29.832 16.63 126.572-23.861 12.558-19.189-144.792zm23.694 139.804 86.552 75.385v33.117l-110.312-95.997zm101.552 75.385 86.552-75.385 23.76 12.505-110.312 95.997zm156.705-234.458 44.081-72.961 25.84 97.282zm-216.705-166.85 35.606-35.606h33.787l35.606 35.606v50.826l-52.5-6.489-52.5 6.489v-50.826zm-155.786 93.889 44.081 72.961-69.921 24.321zm69.019 264.603-1.993 56.473-48.5 3.986zm13.268 49.343 1.94-54.959 35.498 30.892zm250.059-54.959 1.94 54.959-37.438-24.067zm17.2 62.089-1.993-56.472 50.493 60.458zm-173.76-408.071h15v16h-15zm65 16h-15v-16h15z" fill="url(#SVGID_2_)"/></g></svg>