<svg id="Capa_1" enable-background="new 0 0 511 511" height="512" viewBox="0 0 511 511" width="512" xmlns="http://www.w3.org/2000/svg" xmlns:xlink="http://www.w3.org/1999/xlink"><linearGradient id="SVGID_1_" gradientUnits="userSpaceOnUse" x1="255.5" x2="255.5" y1="86.5" y2="416.5"><stop offset=".00000036422" stop-color="#a8abff"/><stop offset="1" stop-color="#fac8ff"/></linearGradient><linearGradient id="SVGID_2_" gradientUnits="userSpaceOnUse" x1="255.5" x2="255.5" y1="53" y2="458"><stop offset="0" stop-color="#174fa3"/><stop offset="1" stop-color="#b044af"/></linearGradient><g id="Filled_9_"><path d="m503.5 134.5-70-53-143 45h-70l-143-45-70 53v115l80 47-50 56 40 98h73l80-74h50l80 74h73l40-98-50-56 80-47z" fill="#fff"/><path d="m290.5 126.5-35-40-35 40v140l10 11.429v98.571l25 40 25-40v-98.571l10-11.429z" fill="url(#SVGID_1_)"/><path d="m511 130.771-76.059-57.587-142.021 44.692-13.094-14.965 6.363-11.619c7.867-14.367 22.93-23.292 39.311-23.292v-15c-21.863 0-41.968 11.912-52.468 31.087l-3.725 6.802-13.807-15.779-13.807 15.78-3.725-6.802c-10.5-19.176-30.605-31.088-52.468-31.088v15c16.381 0 31.444 8.925 39.312 23.292l6.363 11.619-13.094 14.965-142.022-44.692-76.059 57.587v123.021l75.811 44.539-47.024 52.667 43.674 107.002h80.976l75.505-69.842 26.558 42.493 26.558-42.493 75.505 69.842h80.976l43.675-107.001-47.024-52.667 75.81-44.54zm-20.741 3.111-192.259 119.147v-121.027l134.059-42.187zm-207.259 129.8-20 22.857v-180.078l20 22.857zm-55-134.364 20-22.857v180.078l-20-22.857zm-149.059-39.502 134.059 42.186v121.026l-192.259-119.146zm-63.941 58.155 185.965 115.246-112.223 25.314-73.742-43.323zm132.563 295.029h-65.024l-36.325-88.998 45.281-50.714 126.301-28.489 5.204 5.948v92.474zm107.937-40.651-17.5-28v-76.46l17.5 20 17.5-20v76.46zm172.961 40.651h-65.024l-75.437-69.779v-92.474l5.204-5.948 126.301 28.489 45.281 50.714zm-6.203-154.469-112.223-25.314 185.965-115.246v97.236z" fill="url(#SVGID_2_)"/></g></svg>