<svg id="Capa_1" enable-background="new 0 0 511.314 511.314" height="512" viewBox="0 0 511.314 511.314" width="512" xmlns="http://www.w3.org/2000/svg" xmlns:xlink="http://www.w3.org/1999/xlink"><linearGradient id="SVGID_1_" gradientUnits="userSpaceOnUse" x1="219.003" x2="219.003" y1="12.815" y2="503.815"><stop offset=".00000036422" stop-color="#a8abff"/><stop offset="1" stop-color="#fac8ff"/></linearGradient><linearGradient id="SVGID_2_" gradientUnits="userSpaceOnUse" x1="255.657" x2="255.657" y1="0" y2="511.315"><stop offset="0" stop-color="#174fa3"/><stop offset="1" stop-color="#b044af"/></linearGradient><g id="Filled"><path d="m303.503 406.814 12 62 45 35h-113l27-33-15-48v-43zm124-346-4-22-55-26 4 26-33 4 29 36zm-290 10-100 39-27 120 108-28z" fill="url(#SVGID_1_)"/><path d="m496.503 91.814-69-31-59 18-38 75-11 67-93 4 11-66-100-88-26 167 45 77 45.615 28.972-8.615 42.028 48.02-17 62.98 40 122-84 32-64-19.167-123.66z" fill="#fff"/><path d="m510.826 90.027-76.65-34.437-3.984-21.909-71.248-33.681 4.969 32.301-38.729 4.694 34.439 42.751-36.333 71.71-10.2 62.126-77.668 3.34 10.165-60.987-106.556-93.767-107.969 42.108-30.574 135.883 107.395-27.843-4.201 26.98 47.264 80.874 42.786 27.177-10.242 49.969 57.094-20.213 11.419 7.253v39.604l14.136 45.234-34.462 42.121h150.686l-60.031-46.691-10.073-52.043 120.089-82.684 33.934-67.867-18.865-121.711zm-66.052 33.243-7.743-49.953 45.15 20.285zm-63.68-77.941-3.031-19.699 38.751 18.318 2.116 11.641-47.766 14.573-17.342-21.527zm-7.345 39.726 47.668-14.543 28.403 183.244-84.271 4.389-38.039-39.808 10.206-62.166zm-353.23 134.415 23.426-104.118 84.143-32.816-17.691 113.632zm141.542 89.989-42.736-73.126 23.487-150.857 86.609 76.216-10.292 61.753-22.173 108.178zm70.614-77.403 83.754-3.603 38.184 39.959-6.968 54.873-144.128 51.027zm105.97 264.258h-75.315l19.538-23.879-15.864-50.766v-27.788l30.052 19.087 11.62 60.037zm82.014-176.582-116.323 80.091-45.788-29.081 102.813-36.4 7.792-61.365 76.885-4.004z" fill="url(#SVGID_2_)"/></g></svg>