<svg id="Capa_1" enable-background="new 0 0 511.567 511.567" height="512" viewBox="0 0 511.567 511.567" width="512" xmlns="http://www.w3.org/2000/svg" xmlns:xlink="http://www.w3.org/1999/xlink"><linearGradient id="SVGID_1_" gradientUnits="userSpaceOnUse" x1="176.467" x2="176.467" y1="126.504" y2="384.504"><stop offset=".00000083866" stop-color="#96d1f3"/><stop offset="1" stop-color="#ccfff4"/></linearGradient><linearGradient id="SVGID_2_" gradientUnits="userSpaceOnUse" x1="255.784" x2="255.784" y1="110.229" y2="401.339"><stop offset="0" stop-color="#174fa3"/><stop offset="1" stop-color="#b044af"/></linearGradient><g id="Filled_39_"><path d="m500.967 249.504-249-29-158 47-81-63 21 79 59 45 143 19 89 12 125-21 10-11-46.194-13.473 77.194-39.527z" fill="#fff"/><path d="m251.967 220.504c2.796-26.871-5.206-59.22-15-94 44.318 26.874 79.235 61.662 104 105zm-44 154 117-15-34.438-65.573zm-174-91-22 101 240-164z" fill="url(#SVGID_1_)"/><path d="m511.567 243.197-9.726-1.143c-70.12-8.232-120.51-14.131-156.744-18.359-24.85-41.876-59.899-76.715-104.242-103.605l-16.264-9.862 5.155 18.309c8.388 29.786 16.389 60.828 15.144 86.108-10.132 2.765-136.274 39.31-150.724 43.514l-94.166-73.242 26.253 98.76-25.629 117.662 94.999-64.916 123.775 16.446-32.714 31.926 139.236-17.851 127.85-21.474 19.822-21.805-39.614-11.554 62.909-32.213zm-185.528-21.723c-39.068-4.55-57.422-6.655-66.104-7.63.816-21.586-4.023-45.489-10.547-70.358 31.213 21.598 56.897 47.736 76.651 77.988zm-249.651 41.859c-16.179 4.71-29.425 8.57-37.147 10.821l-13.308-50.063zm-36.041 26.123c54.22-15.812 124.662-36.295 169.426-49.203l-186.463 127.416zm73.815 34.298 135.081-92.305 32.046 61.02-48.244 47.082zm174.405-17.429 24.742 47.112-84.06 10.777zm157.775 25.018-.178.195-74.602 12.533 42.974-22.005zm38.705-62.234-156.892 80.336-62.982-119.927c39.358 4.511 153.838 17.917 225.193 26.292z" fill="url(#SVGID_2_)"/></g></svg>