<svg id="Capa_1" enable-background="new 0 0 511.006 511.006" height="512" viewBox="0 0 511.006 511.006" width="512" xmlns="http://www.w3.org/2000/svg" xmlns:xlink="http://www.w3.org/1999/xlink"><linearGradient id="SVGID_1_" gradientUnits="userSpaceOnUse" x1="309" x2="309" y1="74.452" y2="285.452"><stop offset=".00000083866" stop-color="#96d1f3"/><stop offset="1" stop-color="#ccfff4"/></linearGradient><linearGradient id="SVGID_2_" gradientUnits="userSpaceOnUse" x1="255.503" x2="255.503" y1="61.054" y2="449.952"><stop offset="0" stop-color="#174fa3"/><stop offset="1" stop-color="#b044af"/></linearGradient><g id="Filled_32_"><path d="m357.5 285.452-132-3.15-17.67-42.06-50.33 17.21-1.95-45.91-18.05.91-1.95-52.62-18.05-4.38-2-69 51 29.83v-41.83l181 111zm108-103.15-11-17.85-48-23 7 32.85-23 16.15-15.149 44h120.149l7-38.15z" fill="url(#SVGID_1_)"/><path d="m413.5 329.452 22-95h-60.149l-17.851 51-69-11-148 16.85-48-38-36.56-8.54-39.44-98.31h-9v121l74.441 28.405 8.559 35.595 38.88 39.88-9.88 71.12h69l-28.352-36.173 20.742-23.707 43.61 12.88 92.791-12.901 31.209 59.901h57l-48-44v-31.11z" fill="#fff"/><path d="m470.545 176.193-10.816-17.553-63.742-30.543 9.145 42.918-20.921 14.689-22.632 65.151-6.985-69.852-195.594-119.949v42.156l-51.389-30.062 2.558 88.244 18.097 4.387 2.021 54.547 18.088-.915 2.059 48.381 53.2-18.182 10.806 25.726-71.711 8.165-46.888-37.12-34.389-8.032-39.878-99.398h-21.574v133.666l75.571 28.835 8.12 33.757 37.757 38.725-10.561 76.016h93.022l-34.022-43.408 13.494-15.421 40.551 11.981 89.139-12.425 30.881 59.273h80.831l-59.783-54.798v-23.727l55.144-37.418 21.318-92.056h60.287l9.257-50.449zm-296.545-88.344 166.407 102.051 5.682 56.822-24.913-48.638-147.176-86.099zm-50.611 11.906 144.22 84.369-142.777-34.613zm20.024 69.696 120.117 29.119-118.817 6.008zm19.943 49.203 99.141-5.013-97.93 33.47zm54.503 26.094 93.924-32.101 32.305 63.071-55.419-8.835-58.704 6.684zm-13.67 99.812-75.506 86.292 18.445-132.755 42.789-4.872zm-160.572-110.375-28.617-6.684v-64.646zm-28.617 28.101v-19.38l49.255 11.503 7.064 29.368zm82.31 65.407-16.709-69.467 8.56 1.999 43.321 34.295-8.421 60.609zm75.782 107.259h-28.064l14.804-16.918zm51.978-47.153-30.817-9.105 26.557-30.351-15.801-56.837 75.64-8.612-1.724 42.25 26.788 51.416zm69.005-66.04 1.575-38.573 54.35 8.665v137.249zm92.144 113.193h-21.219v-19.451zm-21.219-134.069 35.796 28.125-35.796 24.291zm43.855 15.381-42.515-33.405 14.21-40.908h45.514zm80.396-89.312h-103.49l11.03-31.753 25.078-17.607-4.855-22.785 32.258 15.456 11.185 18.151 33.538 12.69z" fill="url(#SVGID_2_)"/></g></svg>