<svg id="Capa_1" enable-background="new 0 0 511.5 511.5" height="512" viewBox="0 0 511.5 511.5" width="512" xmlns="http://www.w3.org/2000/svg" xmlns:xlink="http://www.w3.org/1999/xlink"><linearGradient id="SVGID_1_" gradientUnits="userSpaceOnUse" x1="129.663" x2="129.663" y1="159.914" y2="374.5"><stop offset=".00000036422" stop-color="#a8abff"/><stop offset="1" stop-color="#fac8ff"/></linearGradient><linearGradient id="SVGID_2_" gradientUnits="userSpaceOnUse" x1="255.75" x2="255.75" y1="0" y2="511.5"><stop offset="0" stop-color="#174fa3"/><stop offset="1" stop-color="#b044af"/></linearGradient><g id="Filled_36_"><path d="m204.974 188.314c-9.755-8.396-21.026-14.848-33.206-19.007l-27.509-9.393h-49.31l-62.92 17.747c-14.488 4.086-24.494 17.305-24.494 32.358v57.481h47.069v107h130v-127.172l31.932 25.089 35.257-43.804z" fill="url(#SVGID_1_)"/><g fill="#fff"><path d="m54.603 408.707h-13.448c-18.568 0-33.621-15.053-33.621-33.621v-107.586h47.069z"/><path d="m144.259 122.931h-49.31v36.983c5.21 8.093 14.309 13.448 24.655 13.448s19.445-5.355 24.655-13.448z"/><path d="m119.603 133.5c27.614 0 50-22.386 50-50v-26c0-27.614-22.386-50-50-50-27.614 0-50 22.386-50 50v26c0 27.614 22.386 50 50 50z"/><path d="m54.603 374.5h130v137h-130z"/><path d="m366.337 236.109-87.596 15.701-26.95-23.197-35.257 43.804 34.595 27.182c7.58 5.956 17.352 8.371 26.834 6.633l97.834-17.936c12.591-2.309 21.736-13.282 21.736-26.084.001-16.519-14.937-29.017-31.196-26.103z"/><path d="m439.586 110.128-64.052-92.628-64.051 92.628-60.949-14.628 30 100h190l30-100z"/></g><path d="m392.846 236.122c-7.746-6.482-17.89-9.174-27.832-7.396l-84.084 15.072-71.063-61.169c-10.529-9.062-22.532-15.933-35.675-20.42l-22.433-7.66v-23.404c15.281-10.346 25.345-27.842 25.345-47.646v-26c0-31.706-25.794-57.5-57.5-57.5s-57.5 25.794-57.5 57.5v26c0 19.804 10.064 37.3 25.345 47.646v23.09l-57.456 16.205c-17.639 4.976-29.958 21.251-29.958 39.577v165.067c0 22.674 18.447 41.121 41.121 41.121h5.948v95.295h15v-129.5h115v129.5h15v-248.742l54.393 42.738c7.298 5.734 16.267 8.786 25.412 8.786 2.466 0 4.946-.223 7.409-.674l97.833-17.937c16.157-2.961 27.884-17.033 27.884-33.46-.001-10.099-4.443-19.608-12.189-26.089zm-273.243-221.122c19.812 0 36.498 13.627 41.185 32h-42.428c-15.486 0-30.033 7.574-38.913 20.261l-2.344 3.349v-13.11c0-23.435 19.066-42.5 42.5-42.5zm-41.009 79.636 13.142-18.774c6.076-8.679 16.029-13.862 26.625-13.862h43.743v21.5c0 23.435-19.065 42.5-42.5 42.5-19.582 0-36.103-13.315-41.01-31.364zm41.009 46.364c5.973 0 11.735-.917 17.155-2.615v19.13c-4.118 5.257-10.388 8.348-17.155 8.348s-13.037-3.091-17.155-8.348v-19.13c5.42 1.698 11.182 2.615 17.155 2.615zm-78.448 260.207c-14.403 0-26.121-11.718-26.121-26.121v-100.086h32.069v126.207zm135.948-173.707v139.5h-115v-137.262h-15v30.262h-32.069v-49.981c0-11.642 7.826-21.979 19.03-25.14l58.037-16.37c6.927 7.811 16.848 12.353 27.502 12.353 10.548 0 20.378-4.453 27.295-12.122l22.446 7.665c11.324 3.866 21.666 9.785 30.737 17.594l41.318 35.565-26.059 32.376-23.237-18.258v-16.182zm197.343 53.418-97.833 17.937c-7.363 1.353-14.962-.528-20.848-5.153l-28.628-22.493 25.638-31.853 23.779 20.468 91.107-16.33c5.558-.999 11.23.511 15.56 4.134 4.331 3.623 6.814 8.939 6.814 14.586-.001 9.182-6.556 17.049-15.589 18.704zm-262.343 154.582h15v76h-15zm330.729-333.865-67.298-97.322-67.297 97.322-68.634-16.472 35.351 117.837h201.16l35.351-117.837zm-59.798-60.102 44.156 63.857-44.156 10.598zm-15 0v74.454l-44.156-10.598zm-106.568 64.304 96.636 23.192-73.443 54.116zm114.068 28.979 72.178 53.184h-144.355zm90.877 48.329-73.443-54.116 96.636-23.192z" fill="url(#SVGID_2_)"/></g></svg>