<svg id="Capa_1" enable-background="new 0 0 511 511" height="512" viewBox="0 0 511 511" width="512" xmlns="http://www.w3.org/2000/svg" xmlns:xlink="http://www.w3.org/1999/xlink"><linearGradient id="SVGID_1_" gradientUnits="userSpaceOnUse" x1="255.5" x2="255.5" y1="30.5" y2="380.5"><stop offset=".00000083866" stop-color="#96d1f3"/><stop offset="1" stop-color="#ccfff4"/></linearGradient><linearGradient id="SVGID_2_" gradientUnits="userSpaceOnUse" x1="255.5" x2="255.5" y1="23" y2="488"><stop offset="0" stop-color="#174fa3"/><stop offset="1" stop-color="#b044af"/></linearGradient><g id="Filled_34_"><path d="m7.5 450.5c0 16.569 13.431 30 30 30h436c16.569 0 30-13.431 30-30v-70h-496z" fill="#fff"/><path d="m473.5 30.5h-436c-16.569 0-30 13.431-30 30v320h496v-320c0-16.569-13.431-30-30-30z" fill="url(#SVGID_1_)"/><circle cx="217.5" cy="430.5" fill="#fff" r="20"/><path d="m337.236 116.392 67.264-9.892-56-43-67.624 65.635-34.376-32.635-140-6 42 89 30.303-25.665 36.207 40.122-29.51 27.543-20 111 86 13-39.945-75.048 113.945-98.952z" fill="#fff"/><path d="m473.5 23h-436c-20.678 0-37.5 16.822-37.5 37.5v390c0 20.678 16.822 37.5 37.5 37.5h436c20.678 0 37.5-16.822 37.5-37.5v-390c0-20.678-16.822-37.5-37.5-37.5zm-436 15h436c12.406 0 22.5 10.094 22.5 22.5v312.5h-481v-312.5c0-12.406 10.094-22.5 22.5-22.5zm436 435h-436c-12.406 0-22.5-10.094-22.5-22.5v-62.5h481v62.5c0 12.406-10.094 22.5-22.5 22.5zm-425.5-62.5h15v40h-15zm30 0h15v40h-15zm139.5-7.5c-12.563 0-23.178 8.472-26.452 20h-65.548v15h65.548c3.274 11.528 13.889 20 26.452 20s23.178-8.472 26.452-20h231.548v-15h-231.548c-3.274-11.528-13.889-20-26.452-20zm0 40c-6.893 0-12.5-5.607-12.5-12.5s5.607-12.5 12.5-12.5 12.5 5.607 12.5 12.5-5.607 12.5-12.5 12.5zm-39.396-278.744 26.397 29.251-25.94 24.211-21.81 121.045 108.379 16.383-44.149-82.946 109.437-95.037 1.895-1.646 11.173-52.464 79.635-11.71-75.194-57.738-67.108 65.135-31.191-29.612-155.208-6.652 51.469 109.064zm-3.855 161.981 14.796-82.115 48.825 91.732zm20.575-103.18 19.728-18.412 26.952 29.866-27.755 24.103zm151.995-115.655 6.542-30.715 32.519 24.97zm-10.791-21.345-15.074 70.784-29.248-27.766zm-21.682 85.196-61.514 53.42-63.276-70.117 56.658-47.986zm-87.328-68.081-75.906 64.288-32.532-68.936zm-134.018 104.828h-15v-15h15zm0 50h-15v-15h15zm10-40h15v15h-15zm-35 15h-15v-15h15zm350-70h15v15h-15zm0 50h15v15h-15zm40-10h-15v-15h15zm-65-15h15v15h-15zm-56 85h15v15h-15zm0 50h15v15h-15zm25-25h15v15h-15zm-50 0h15v15h-15z" fill="url(#SVGID_2_)"/></g></svg>