<svg id="Capa_1" enable-background="new 0 0 511 511" height="512" viewBox="0 0 511 511" width="512" xmlns="http://www.w3.org/2000/svg" xmlns:xlink="http://www.w3.org/1999/xlink"><linearGradient id="SVGID_1_" gradientUnits="userSpaceOnUse" x1="255.5" x2="255.5" y1="91.092" y2="369.092"><stop offset=".00000083866" stop-color="#96d1f3"/><stop offset="1" stop-color="#ccfff4"/></linearGradient><linearGradient id="SVGID_2_" gradientUnits="userSpaceOnUse" x1="255.5" x2="255.5" y1="72.03" y2="438.97"><stop offset="0" stop-color="#174fa3"/><stop offset="1" stop-color="#b044af"/></linearGradient><g id="Filled_1_"><path d="m185.5 369.092-45-25-36 25-27-29-70 14v-4l102-137 106 16h80l106-16 102 137v4l-70-14-27 29-36-25-45 25zm140-170 24-24v-84l-54 58h-80l-54-58v84l24 24z" fill="url(#SVGID_1_)"/><path d="m325.5 199.092-30-50h-80l-30 50 30 30-30 140 70 60 70-60-30-140z" fill="#fff"/><path d="m404.829 205.005-87.904 13.268 40.075-40.075v-106.168l-64.765 69.562h-73.47l-64.765-69.562v106.168l40.075 40.074-87.904-13.268-106.171 142.603v15.634l74.864-14.973 28.575 30.692 37.501-26.043 40.253 22.362 74.307 63.691 74.307-63.691 40.253-22.362 37.501 26.043 28.575-30.692 74.864 14.972v-15.634zm-40.865 134.138-33.252 18.474-26.207-122.299 87.142-13.154zm-244.61-116.979 87.142 13.154-26.207 122.299-33.252-18.474zm100.393-65.572h71.507l24.803 41.337-60.557 60.557-60.556-60.556zm122.253 15.394-15.011 15.011-22.154-36.924 37.165-39.919zm-173 0v-61.832l37.165 39.918-22.154 36.924zm-75.974 75.792-21.641 85.889-49.707 9.941zm-7.256 90.19 23.502-93.273 22.754 96.152-26.464 18.378zm169.73 81.246-61.732-52.913 26.177-122.158 35.555 35.555 35.555-35.555 26.177 122.158zm149.939-59.99-26.464-18.378 22.754-96.152 23.502 93.273zm34.176-25.557-21.641-85.889 71.348 95.83z" fill="url(#SVGID_2_)"/></g></svg>