<svg id="Capa_1" enable-background="new 0 0 511 511" height="512" viewBox="0 0 511 511" width="512" xmlns="http://www.w3.org/2000/svg" xmlns:xlink="http://www.w3.org/1999/xlink"><linearGradient id="SVGID_1_" gradientUnits="userSpaceOnUse" x1="463.5" x2="463.5" y1="63.5" y2="503.5"><stop offset=".00000036422" stop-color="#a8abff"/><stop offset="1" stop-color="#fac8ff"/></linearGradient><linearGradient id="SVGID_2_" gradientUnits="userSpaceOnUse" x1="262.5" x2="262.5" y1="52.5" y2="122.5"><stop offset=".00000083866" stop-color="#96d1f3"/><stop offset="1" stop-color="#ccfff4"/></linearGradient><linearGradient id="SVGID_3_" gradientUnits="userSpaceOnUse" x1="255.5" x2="255.5" y1="0" y2="511"><stop offset="0" stop-color="#174fa3"/><stop offset="1" stop-color="#b044af"/></linearGradient><g id="Filled_49_"><path d="m377.5 383.5h-370v-296l80-80h290z" fill="#fff"/><path d="m423.5 63.5h80v440h-80z" fill="url(#SVGID_1_)"/><g fill="#fff"><path d="m60.5 243.5 20-40 20 40v240c0 11.046-8.954 20-20 20-11.046 0-20-8.954-20-20z"/><path d="m297.205 503.5c-11.204 0-20.439-8.785-20.999-19.975l-12.253-245.069c-.951-19.017 14.212-34.956 33.252-34.956 19.041 0 34.203 15.939 33.252 34.956l-12.253 245.069c-.559 11.19-9.795 19.975-20.999 19.975z"/><path d="m187.5 503.5c-11.046 0-20-8.954-20-20v-220h40v220c0 11.046-8.954 20-20 20z"/><path d="m207.5 233.5h-40v-70l40 40z"/></g><path d="m332.5 122.5h-105c-19.33 0-35-15.67-35-35 0-19.33 15.67-35 35-35h105z" fill="url(#SVGID_2_)"/><path d="m87.5 7.5v80h-80z" fill="#fff"/><path d="m0 84.394v306.606h53v92.5c0 15.163 12.337 27.5 27.5 27.5s27.5-12.337 27.5-27.5v-92.5h52v92.5c0 15.163 12.337 27.5 27.5 27.5s27.5-12.337 27.5-27.5v-92.5h49.072l4.645 92.9c.76 15.196 13.273 27.1 28.488 27.1 15.216 0 27.729-11.903 28.489-27.1l4.645-92.9h54.661v-391h-300.606zm80-58.788v54.394h-54.394zm13 430.394h-25v-210.729l12.5-25 12.5 25zm-12.5 40c-6.893 0-12.5-5.607-12.5-12.5v-12.5h25v12.5c0 6.893-5.607 12.5-12.5 12.5zm119.5-225v155h-25v-155zm-25 170h25v15h-25zm12.5 55c-6.893 0-12.5-5.607-12.5-12.5v-12.5h25v12.5c0 6.893-5.607 12.5-12.5 12.5zm135.468-257.919-12.254 245.069c-.36 7.205-6.294 12.85-13.509 12.85-7.214 0-13.147-5.645-13.508-12.85l-12.254-245.069c-.356-7.125 2.155-13.896 7.073-19.064 4.917-5.17 11.554-8.017 18.688-8.017s13.771 2.847 18.688 8.016c4.92 5.169 7.431 11.94 7.076 19.065zm47.032 137.919h-38.91l6.859-137.17c.563-11.27-3.409-21.978-11.187-30.152-7.777-8.176-18.274-12.678-29.557-12.678s-21.78 4.503-29.558 12.678c-7.776 8.176-11.749 18.884-11.185 30.153l6.86 137.169h-48.322v-120h-20v-15h20v-40.606l-55-55v95.606h20v15h-20v120h-52v-134.271l-27.5-55-27.5 55v134.271h-38v-281h80v-80h275zm-195-150v-44.394l25 25v19.394zm241-170v455h95v-455zm15 440v-425h65v34h-42.5v15h42.5v23.002h-24.5v15h24.5v23.001h-24.5v15h24.5v23.002h-42.5v15h42.5v23.001h-24.5v15h24.5v23.002h-24.5v15h24.5v23.001h-42.5v15h42.5v23.002h-24.5v15h24.5v23.002h-24.5v15h24.5v22.987h-42.5v15h42.5v34zm-203.5-366h112.5v-85h-112.5c-23.435 0-42.5 19.065-42.5 42.5s19.065 42.5 42.5 42.5zm97.5-15h-87v-55h87zm-102-54.626v54.251c-13.029-2.155-23-13.495-23-27.126s9.971-24.97 23-27.125z" fill="url(#SVGID_3_)"/></g></svg>