<svg id="Capa_1" enable-background="new 0 0 511 511" height="512" viewBox="0 0 511 511" width="512" xmlns="http://www.w3.org/2000/svg" xmlns:xlink="http://www.w3.org/1999/xlink"><linearGradient id="SVGID_1_" gradientUnits="userSpaceOnUse" x1="236" x2="236" y1="143.5" y2="436.5"><stop offset=".00000083866" stop-color="#96d1f3"/><stop offset="1" stop-color="#ccfff4"/></linearGradient><linearGradient id="SVGID_2_" gradientUnits="userSpaceOnUse" x1="255.5" x2="255.5" y1="18" y2="493"><stop offset="0" stop-color="#174fa3"/><stop offset="1" stop-color="#b044af"/></linearGradient><g id="Filled_25_"><path d="m473.5 485.5h-436c-16.569 0-30-13.431-30-30v-362h496v362c0 16.569-13.431 30-30 30z" fill="#fff"/><path d="m7.5 25.5h496v68h-496z" fill="#fff"/><path d="m205.594 309.654-73.066 77.08 33.166 49.766-61.181-3.18 6.381-79.047 18.791-21.303-28.143-25.584-19.475 20.044-35.567-59.388 98.553-5.433 26.343 20.471 42.888-50.58 42.215 32-47.382 13.869zm219.906-166.154h-340v50h340z" fill="url(#SVGID_1_)"/><path d="m0 18v437.5c0 20.678 16.822 37.5 37.5 37.5h436c20.678 0 37.5-16.822 37.5-37.5v-437.5zm496 15v53h-481v-53zm-22.5 445h-436c-12.407 0-22.5-10.094-22.5-22.5v-354.5h481v354.5c0 12.406-10.093 22.5-22.5 22.5zm-385-411h-15v-15h15zm-30 0h-15v-15h15zm60 0h-15v-15h15zm94.657 155.233-42.833 50.515-22.883-17.782-113.758 6.271 46.963 78.417 21.22-21.839 17.307 15.734-15.554 17.634-7.203 89.226 83.798 4.355-38.128-57.212 70.679-74.563 3.234-28.71 56.86-16.791zm-9.082 33.905-4.437 39.39-17.459-13.567zm-144.758 18.709 66.975-3.692-42.804 44.051zm86.436-2.197 48.706 37.849-36.262 38.254-45.872-41.701zm-33.143 153.581 4.022-49.825 34.541 51.829zm7.723-71.32 9.941-11.271 17.602 16.001-14.321 15.108zm99.928-108.469 19.879 15.069-22.319 6.59zm212.739-110.442h-355v65h355zm-15 50h-325v-35h325zm-121.5 57h170v15h-170zm0 30h170v15h-170zm120 45h-120v-15h120zm-120 35h170v15h-170zm0 30h170v15h-170zm0 30h120v15h-120z" fill="url(#SVGID_2_)"/></g></svg>