<svg id="Capa_1" enable-background="new 0 0 512 512" height="512" viewBox="0 0 512 512" width="512" xmlns="http://www.w3.org/2000/svg" xmlns:xlink="http://www.w3.org/1999/xlink"><linearGradient id="SVGID_1_" gradientUnits="userSpaceOnUse" x1="256" x2="256" y1="14.982" y2="267.973"><stop offset=".00000036422" stop-color="#a8abff"/><stop offset="1" stop-color="#fac8ff"/></linearGradient><linearGradient id="SVGID_2_" gradientUnits="userSpaceOnUse" x1="256" x2="256" y1="384.508" y2="512"><stop offset=".00000083866" stop-color="#96d1f3"/><stop offset="1" stop-color="#ccfff4"/></linearGradient><linearGradient id="SVGID_3_" gradientUnits="userSpaceOnUse" x1="256" x2="256" y1="0" y2="511.502"><stop offset="0" stop-color="#174fa3"/><stop offset="1" stop-color="#b044af"/></linearGradient><g id="Filled_17_"><path d="m385.484 240.084-129.484-225.102-129.484 225.102 129.484 27.889z" fill="url(#SVGID_1_)"/><path d="m87.671 404.429-72.71-189.245 241.039 51.793 241.039-51.793-72.71 189.245z" fill="#fff"/><path d="m510.983 512h-509.966v-127.492c42.496 0 42.496 19.921 84.992 19.921s42.496-19.921 84.993-19.921c42.496 0 42.496 19.921 84.992 19.921 42.497 0 42.497-19.921 84.994-19.921 42.499 0 42.499 19.921 84.998 19.921s42.499-19.921 84.998-19.921v127.492z" fill="url(#SVGID_2_)"/><path d="m465.313 487.307c11.188-5.244 22.757-10.666 45.67-10.666v14.94c-19.586 0-29.176 4.495-39.329 9.254-11.188 5.244-22.756 10.666-45.669 10.666-22.914 0-34.483-5.423-45.67-10.666-10.153-4.759-19.743-9.254-39.328-9.254s-29.175 4.495-39.327 9.254c-11.188 5.244-22.755 10.666-45.668 10.666-22.912 0-34.48-5.423-45.667-10.666-10.152-4.759-19.741-9.254-39.325-9.254s-29.174 4.495-39.326 9.254c-11.187 5.244-22.755 10.666-45.667 10.666s-34.479-5.423-45.666-10.666c-10.152-4.759-19.742-9.254-39.326-9.254v-14.94c22.912 0 34.48 5.423 45.667 10.666 10.152 4.759 19.741 9.254 39.325 9.254s29.174-4.495 39.326-9.254c11.187-5.244 22.755-10.666 45.667-10.666s34.479 5.423 45.666 10.666c10.152 4.759 19.742 9.254 39.326 9.254s29.174-4.495 39.326-9.254c11.188-5.244 22.756-10.666 45.668-10.666 22.914 0 34.482 5.422 45.669 10.666 10.153 4.759 19.743 9.254 39.329 9.254 19.586.001 29.176-4.495 39.329-9.254zm-39.328-40.547c-19.586 0-29.176-4.495-39.329-9.254-11.188-5.244-22.756-10.666-45.669-10.666s-34.481 5.423-45.668 10.666c-10.152 4.759-19.742 9.254-39.326 9.254s-29.173-4.495-39.326-9.254c-11.187-5.244-22.754-10.666-45.666-10.666s-34.48 5.423-45.667 10.666c-10.152 4.759-19.742 9.254-39.326 9.254s-29.173-4.495-39.325-9.254c-11.187-5.244-22.755-10.666-45.667-10.666v14.94c19.584 0 29.173 4.495 39.326 9.254 11.187 5.244 22.754 10.666 45.666 10.666s34.48-5.423 45.667-10.666c10.152-4.759 19.742-9.254 39.326-9.254s29.173 4.495 39.325 9.254c11.187 5.244 22.755 10.666 45.667 10.666 22.913 0 34.48-5.422 45.668-10.666 10.152-4.759 19.742-9.254 39.327-9.254s29.175 4.495 39.328 9.254c11.188 5.244 22.757 10.666 45.67 10.666 22.914 0 34.482-5.422 45.669-10.666 10.153-4.759 19.743-9.254 39.329-9.254v-14.94c-22.914 0-34.483 5.423-45.67 10.666-10.154 4.759-19.744 9.254-39.329 9.254zm84.998-69.722v14.94c-19.586 0-29.176 4.495-39.329 9.254-11.188 5.244-22.756 10.666-45.669 10.666-22.914 0-34.483-5.423-45.67-10.666-10.153-4.759-19.743-9.254-39.328-9.254s-29.175 4.495-39.327 9.254c-11.188 5.244-22.755 10.666-45.668 10.666-22.912 0-34.48-5.423-45.667-10.666-10.152-4.759-19.741-9.254-39.325-9.254s-29.174 4.495-39.326 9.254c-11.187 5.244-22.755 10.666-45.667 10.666s-34.479-5.423-45.666-10.666c-10.152-4.759-19.742-9.254-39.326-9.254v-14.94c22.912 0 34.48 5.423 45.667 10.666 8.387 3.932 16.395 7.68 29.966 8.866l-73.61-191.589 120.196 25.827 132.766-230.808 132.766 230.808 120.195-25.827-73.61 191.589c13.568-1.186 21.576-4.935 29.962-8.865 11.188-5.244 22.757-10.667 45.67-10.667zm-247.513-119.307 109.956-23.627-109.956-191.154zm-124.896-23.627 109.956 23.627v-214.781zm14.935 144.193 88.843-106.612-215.468-46.299 65.846 171.38c15.202-.906 23.688-4.881 32.605-9.061 7.908-3.707 16.012-7.501 28.174-9.408zm184.514-1.224-82.023-98.427-82.023 98.428c20.954.449 32 5.62 42.691 10.631 10.152 4.759 19.742 9.254 39.326 9.254s29.174-4.495 39.326-9.254c10.692-5.012 21.741-10.184 42.703-10.632zm48.634 10.632c8.919 4.18 17.406 8.156 32.614 9.061l65.846-171.38-215.469 46.299 88.845 106.613c12.155 1.908 20.257 5.701 28.164 9.407z" fill="url(#SVGID_3_)"/></g></svg>