<svg id="Capa_1" enable-background="new 0 0 511.5 511.5" height="512" viewBox="0 0 511.5 511.5" width="512" xmlns="http://www.w3.org/2000/svg" xmlns:xlink="http://www.w3.org/1999/xlink"><linearGradient id="SVGID_1_" gradientUnits="userSpaceOnUse" x1="135.75" x2="135.75" y1="123" y2="343"><stop offset=".00000083866" stop-color="#96d1f3"/><stop offset="1" stop-color="#ccfff4"/></linearGradient><linearGradient id="SVGID_2_" gradientUnits="userSpaceOnUse" x1="375.75" x2="375.75" y1="284" y2="504"><stop offset=".00000036422" stop-color="#a8abff"/><stop offset="1" stop-color="#fac8ff"/></linearGradient><linearGradient id="SVGID_3_" gradientUnits="userSpaceOnUse" x1="255.75" x2="255.75" y1="0" y2="511.5"><stop offset="0" stop-color="#174fa3"/><stop offset="1" stop-color="#b044af"/></linearGradient><g id="Filled_27_"><path d="m42.968 155.218h155.563v155.563h-155.563z" fill="#fff" transform="matrix(.707 -.707 .707 .707 -129.389 153.627)"/><path d="m312.968 316.218h155.563v155.563h-155.563z" fill="#fff" transform="matrix(.707 -.707 .707 .707 -164.152 391.702)"/><path d="m260.75 173v120l-50-40 20-20-20-20zm-140-50h92l-43 49zm49 171 43 49h-92zm-39-61-60 60-60-60 60-60z" fill="url(#SVGID_1_)"/><path d="m280.75 394 20 20-50 40v-120l50 40zm61-61-43-49h92zm49 171h-92l43-49zm50-170 60 60-60 60-60-60z" fill="url(#SVGID_2_)"/><path d="m77.25 227h-15v-16h15zm102.772 67.334 49.288 56.166h-111.666l-117.5-117.5 117.5-117.5h111.666l-49.288 56.166 31.284 31.285 56.943-45.555v151.209l-56.943-45.555zm41.956-80.712 19.378 19.378-19.378 19.378 31.272 25.017v-88.791zm-25.788-83.122h-57.333l30.536 30.536zm-125.44 151.894 49.394-49.394-49.394-49.394-49.394 49.394zm10.606 10.606 39.393 39.393 99.395-99.393-99.394-99.393-39.394 39.393 60 60zm88.037 11.964-30.536 30.536h57.333zm-36.143-221.964h-15v15h15zm301 289v16h15v-16zm77.106 22-117.5 117.5h-111.666l49.287-56.165-31.284-31.285-56.943 45.554v-151.208l56.943 45.554 31.284-31.285-49.287-56.165h111.666zm-169.249-71.964 30.536-30.536h-57.333zm-52.586 91.342-19.377-19.378 19.378-19.378-31.271-25.017v88.791zm25.789 83.122h57.333l-30.536-30.536zm114.834-42.5-60-60 60-60-39.393-39.393-99.395 99.393 99.394 99.393zm10.606-10.606 49.394-49.394-49.394-49.394-49.394 49.394zm-307.5-393.394c0-6.893 5.607-12.5 12.5-12.5h220c6.893 0 12.5 5.607 12.5 12.5v179h15v-179c0-15.163-12.337-27.5-27.5-27.5h-102.5v-22.5h-15v22.5h-102.5c-15.164 0-27.5 12.337-27.5 27.5v18h15zm245 209h15v-15h-15z" fill="url(#SVGID_3_)"/></g></svg>