<svg id="Capa_1" enable-background="new 0 0 511.697 511.697" height="512" viewBox="0 0 511.697 511.697" width="512" xmlns="http://www.w3.org/2000/svg" xmlns:xlink="http://www.w3.org/1999/xlink"><linearGradient id="SVGID_1_" gradientUnits="userSpaceOnUse" x1="255.849" x2="255.849" y1="87.849" y2="234.849"><stop offset=".00000036422" stop-color="#a8abff"/><stop offset="1" stop-color="#fac8ff"/></linearGradient><linearGradient id="SVGID_2_" gradientUnits="userSpaceOnUse" x1="255.849" x2="255.849" y1="53.349" y2="458.349"><stop offset="0" stop-color="#174fa3"/><stop offset="1" stop-color="#b044af"/></linearGradient><g id="Filled_6_"><path d="m388.791 170.48 109.058-42.631-43-40-169 37h-60l-169-37-43 40 109.058 42.631-74.058 8.369-33 34 143 22 57-40h80l57 40 143-22-33-34z" fill="url(#SVGID_1_)"/><path d="m285.849 124.849 15-33-30-31h-30l-30 31 15 33-10 70 15.061 7.531 9.339 233.481c.335 8.373 7.22 14.988 15.6 14.988s15.265-6.615 15.6-14.988l9.339-233.481 15.061-7.531z" fill="#fff"/><path d="m419.75 166.431 91.948-35.943-54.616-50.806-158.208 34.637 10.917-24.017-35.762-36.954h-36.359l-35.762 36.954 10.917 24.017-158.209-34.637-54.616 50.806 91.948 35.943-46.61 5.267-44.991 46.354 160.342 24.668 55.807-39.163 7.097 3.549 9.162 229.055c.498 12.442 10.642 22.188 23.094 22.188s22.596-9.746 23.094-22.188l9.162-229.055 7.097-3.549 55.807 39.163 160.342-24.668-44.991-46.354zm64.25-41.222-96.212 37.61-90.398-10.215-3.131-21.92 158.358-34.67zm-228.151 81.254-31.811-15.905 8.316-58.209h46.99l8.316 58.209zm-11.822-138.114h23.643l24.238 25.046-10.888 23.954h-50.342l-10.888-23.954zm-216.33 56.86 31.384-29.194 158.358 34.67-3.131 21.92-90.398 10.215zm129.312 101.769-125.658-19.332 21.009-21.646 159.756-18.051-3.232 22.626zm106.945 208.583c-.175 4.367-3.735 7.788-8.105 7.788s-7.931-3.421-8.105-7.788l-8.832-220.796 16.937 8.469 16.937-8.469zm90.734-208.583-51.874-36.403-3.232-22.626 159.755 18.051 21.009 21.646z" fill="url(#SVGID_2_)"/></g></svg>