<svg id="Capa_1" enable-background="new 0 0 511.736 511.736" height="512" viewBox="0 0 511.736 511.736" width="512" xmlns="http://www.w3.org/2000/svg" xmlns:xlink="http://www.w3.org/1999/xlink"><linearGradient id="SVGID_1_" gradientUnits="userSpaceOnUse" x1="284" x2="284" y1="10.338" y2="292.338"><stop offset=".00000083866" stop-color="#96d1f3"/><stop offset="1" stop-color="#ccfff4"/></linearGradient><linearGradient id="SVGID_2_" gradientUnits="userSpaceOnUse" x1="255.868" x2="255.868" y1=".442" y2="511.294"><stop offset="0" stop-color="#174fa3"/><stop offset="1" stop-color="#b044af"/></linearGradient><g id="Filled_8_"><path d="m0 333.338h55v130h-55z" fill="#fff"/><path d="m500.715 371.93c-14.107-19.75-40.737-25.862-62.044-14.24l-94.135 51.347c.303-1.523.465-3.096.465-4.708 0-13.255-10.745-24-24-24h-72.701s-11.383-24.827-20.573-31.246c-48.328-44.218-139.698 3.668-139.698 3.668h-33.029v91.109h52.515l184.85 59.228 208.635-130.759z" fill="#fff"/><path d="m365.736 63.23 67.264-9.892-56-43-67.624 65.636-34.376-32.636-140-6 42 89 30.303-25.664 36.207 40.122-29.51 27.542-20 111 86 13-39.945-75.047 113.945-98.953z" fill="url(#SVGID_1_)"/><path d="m506.817 367.57c-16.29-22.808-47.13-29.886-71.738-16.464l-83.526 45.56c-3.432-13.677-15.826-23.837-30.553-23.837h-67.975c-4.008-8.097-12.366-23.518-20.568-29.58-48.516-43.859-132.836-4.662-146.226 2.003h-23.731v-19.413h-62.5v15h47.5v115h-47.5v15h62.5v-19.479h43.844l187.052 59.934 218.341-136.843zm-215.482 127.313-182.647-58.523h-46.188v-76.109l27.373-.001 1.632-.853c.868-.454 87.304-44.905 131.158-4.78l.363.333.405.283c5.171 3.611 13.668 18.679 18.051 28.224l2.007 4.373h77.511c9.098 0 16.5 7.402 16.5 16.5s-7.402 16.5-16.5 16.5h-102v15h102c13.965 0 25.83-9.138 29.947-21.746l91.316-49.809c15.703-8.564 34.889-5.689 47.407 6.304zm-84.731-383.789 26.397 29.251-25.94 24.21-21.81 121.045 108.379 16.383-44.149-82.946 111.331-96.683 11.173-52.464 79.635-11.711-75.193-57.737-67.108 65.135-31.192-29.612-155.207-6.651 51.469 109.064zm-3.855 161.982 14.796-82.115 48.825 91.732zm20.575-103.181 19.727-18.412 26.953 29.866-27.754 24.102zm151.995-115.655 6.541-30.714 32.519 24.97zm-10.791-21.344-15.074 70.784-29.248-27.766zm-21.682 85.195-61.514 53.42-63.276-70.117 56.658-47.986zm-87.328-68.081-75.906 64.288-32.532-68.935z" fill="url(#SVGID_2_)"/></g></svg>