<svg id="Capa_1" enable-background="new 0 0 509.213 509.213" height="512" viewBox="0 0 509.213 509.213" width="512" xmlns="http://www.w3.org/2000/svg" xmlns:xlink="http://www.w3.org/1999/xlink"><linearGradient id="SVGID_1_" gradientUnits="userSpaceOnUse" x1="254.606" x2="254.606" y1="227.75" y2="447.16"><stop offset=".00000083866" stop-color="#96d1f3"/><stop offset="1" stop-color="#ccfff4"/></linearGradient><linearGradient id="SVGID_2_" gradientUnits="userSpaceOnUse" x1="254.606" x2="254.606" y1="54.553" y2="454.66"><stop offset="0" stop-color="#174fa3"/><stop offset="1" stop-color="#b044af"/></linearGradient><g id="Filled_43_"><path d="m417.197 227.75-111.591 161.41h-102l-111.59-161.41 162.59-162.59z" fill="#fff"/><path d="m160.156 326.31-99.55 32.85-50-50 81.41-81.41zm257.041-98.56-68.14 98.56 99.55 32.85 50-50zm-72.591 189.41-90-70-90 70v30h180z" fill="url(#SVGID_1_)"/><path d="m450.644 367.73 58.569-58.57-254.607-254.607-254.606 254.607 58.569 58.57 98.607-32.541 35.18 50.886-35.25 27.417v41.168h195v-41.168l-35.25-27.417 35.18-50.886zm-4.075-17.141-85.641-28.261 57.324-82.916 69.748 69.748zm-383.925 0-41.431-41.43 69.747-69.747 57.324 82.916zm39.097-121.958 145.365-145.365v260.226l-42.892 33.36zm70.365 192.197 75-58.333v77.166h-75zm165 18.832h-75v-77.166l75 58.333zm-75-96.168v-260.226l145.365 145.365-102.473 148.221z" fill="url(#SVGID_2_)"/></g></svg>