<svg id="Capa_1" enable-background="new 0 0 510.726 510.726" height="512" viewBox="0 0 510.726 510.726" width="512" xmlns="http://www.w3.org/2000/svg" xmlns:xlink="http://www.w3.org/1999/xlink"><linearGradient id="SVGID_1_" gradientUnits="userSpaceOnUse" x1="250.525" x2="250.525" y1="40.226" y2="503.226"><stop offset=".00000083866" stop-color="#96d1f3"/><stop offset="1" stop-color="#ccfff4"/></linearGradient><linearGradient id="SVGID_2_" gradientUnits="userSpaceOnUse" x1="255.363" x2="255.363" y1="0" y2="510.726"><stop offset="0" stop-color="#174fa3"/><stop offset="1" stop-color="#b044af"/></linearGradient><g id="Filled_21_"><path d="m150.525 160.226 62-152 116 16 14 64-58 22 95 113-38 210-96 70h-95z" fill="#fff"/><path d="m331.525 40.226 79 25-68 23zm-228 423 47 40v-69zm142 40h121l-44-57zm-155-161 105.092 28.752 69.247-203.091z" fill="url(#SVGID_1_)"/><path d="m387.532 221.095-90.464-107.605 47.994-18.205 89.572-30.297-96.172-30.434-3.728-17.044-126.953-17.51-64.755 158.755v120.364l-66.934 66.933 66.934 18.312v65.676l-52.211 32.215 56.952 48.47h234.023l-48.195-62.435 14.776-10.774zm-1.116-155.632-38.355 12.973-5.902-26.979zm-169.146-49.012 105.047 14.489 11.499 52.567-51.941 19.701-117.944 44.009zm-59.245 148.981 114.294-42.647-13.99 41.03-100.304 100.304zm89.329 30.571-56.559 165.879-85.836-23.483zm-61.409 180.104-27.919 81.883v-89.522zm-42.92 71.559v39.328l-26.789-22.799zm208.236 48.06h-82.721l52.929-38.594zm-108.18 0h-82.075l126.329-370.503 84.182 100.133-36.837 203.579zm38.944-436.5h-15v-16h15z" fill="url(#SVGID_2_)"/></g></svg>