<svg id="Capa_1" enable-background="new 0 0 511.707 511.707" height="512" viewBox="0 0 511.707 511.707" width="512" xmlns="http://www.w3.org/2000/svg" xmlns:xlink="http://www.w3.org/1999/xlink"><linearGradient id="SVGID_1_" gradientUnits="userSpaceOnUse" x1="230.354" x2="230.354" y1="404.207" y2="504.207"><stop offset=".00000036422" stop-color="#a8abff"/><stop offset="1" stop-color="#fac8ff"/></linearGradient><linearGradient id="SVGID_2_" gradientUnits="userSpaceOnUse" x1="255.854" x2="255.854" y1="0" y2="511.707"><stop offset="0" stop-color="#174fa3"/><stop offset="1" stop-color="#b044af"/></linearGradient><g id="Filled_41_"><path d="m273.854 404.207v46l-36 22-50 32h-1v-46l51-30v-24z" fill="url(#SVGID_1_)"/><path d="m392.854 244.207s-11.912 3.739-14.744 4.628l13.744-73.628s-10.202 3.676-12.192 4.393l-7.808-65.393s-8.657 3.657-10.335 4.365l-28.665-54.365s-9.047 4.112-12.396 5.635c-.782-.722-64.604-59.635-64.604-59.635l-64.604 59.635-12.396-5.635-28.665 54.365-10.335-4.365-7.808 65.393-12.192-4.393 13.744 73.628-14.744-4.628 35.721 72.434-15.721-4.434 38 60 61 32h36l61-32 38-60s-12.064 3.403-15.721 4.434z" fill="#fff"/><path d="m407.334 231.802-19.562 6.14 13.856-74.229-15.638 5.634-7.872-65.928-13.176 5.566-28.753-54.533-14.303 6.501-66.032-60.953-66.032 60.954-14.303-6.501-28.753 54.533-13.176-5.566-7.872 65.928-15.638-5.634 13.856 74.229-19.562-6.14 36.024 73.048-18.36-5.178 49.555 78.245 58.762 30.826v15.175l-51 30v57.79h10.694l51.783-33.141 39.523-24.153v-45.671l58.762-30.826 49.555-78.245-18.36 5.178zm-55.451 78.527-88.529 24.97v-42.585l115.02-36.101zm-88.529-33.336v-47.516l118.725-42.775-10.515 56.328zm0-63.46v-45.353l102.235-43.186 5.919 49.57zm87.72-98.69-87.72 37.054v-47.861l66.165-30.074zm-87.72-27.283v-60.223l43.715 40.352zm-15-60.223v60.223l-43.715-19.871zm-66.165 46.625 66.165 30.074v47.861l-87.72-37.054zm-36.07 51.033 102.235 43.186v45.353l-108.154-38.969zm-16.491 61.706 118.725 42.775v47.516l-108.211-33.964zm3.706 69.911 115.02 36.101v42.585l-88.529-24.97zm22.336 68.131 92.683 26.141v45.823h-8.652l-57.585-30.209zm38.684 137.754 36-21.177v26.784l-36 23.038zm51-3.663v-47.127h21v34.294zm84.237-92.336-57.585 30.209h-8.652v-45.823l92.683-26.141z" fill="url(#SVGID_2_)"/></g></svg>