<svg id="Capa_1" enable-background="new 0 0 607.834 607.834" height="512" viewBox="0 0 607.834 607.834" width="512" xmlns="http://www.w3.org/2000/svg"><g><g id="Page-1"><g id="_x30_01---Satellite" transform="translate(0 -1)"><path id="Shape" d="m293.255 40.791v56.264h21.324v-56.264c8.358-4.826 12.433-14.664 9.935-23.986s-10.946-15.805-20.597-15.805-18.1 6.482-20.598 15.805 1.577 19.161 9.936 23.986z"/><path id="Shape_1_" d="m48.028 310.296h-31.987c-5.888 0-10.662 4.774-10.662 10.662v31.986h42.648v-42.648z"/><path id="Rectangle-path" d="m495.834 374.268h42.648v42.648h-42.648z"/><path id="Rectangle-path_1_" d="m431.862 374.268h42.648v42.648h-42.648z"/><path id="Rectangle-path_2_" d="m5.379 374.268h42.648v42.648h-42.648z"/><path id="Shape_2_" d="m602.454 470.227v-31.986h-42.648v42.648h31.986c5.889 0 10.662-4.774 10.662-10.662z"/><path id="Rectangle-path_3_" d="m495.834 310.296h42.648v42.648h-42.648z"/><path id="Rectangle-path_4_" d="m133.324 438.241h42.648v42.648h-42.648z"/><path id="Rectangle-path_5_" d="m133.324 374.268h42.648v42.648h-42.648z"/><path id="Rectangle-path_6_" d="m133.324 310.296h42.648v42.648h-42.648z"/><path id="Shape_3_" d="m236.97 566.185-9.543 28.617c-1.083 3.252-.537 6.826 1.468 9.606s5.223 4.427 8.651 4.426h132.743c3.427.001 6.646-1.646 8.651-4.426s2.551-6.354 1.468-9.606l-9.543-28.617z"/><path id="Rectangle-path_7_" d="m69.352 374.268h42.648v42.648h-42.648z"/><path id="Rectangle-path_8_" d="m69.352 438.241h42.648v42.648h-42.648z"/><path id="Rectangle-path_9_" d="m69.352 310.296h42.648v42.648h-42.648z"/><path id="Rectangle-path_10_" d="m431.862 310.296h42.648v42.648h-42.648z"/><path id="Rectangle-path_11_" d="m495.834 438.241h42.648v42.648h-42.648z"/><path id="Shape_4_" d="m357.227 299.634h-106.62c-5.888 0-10.662 4.774-10.662 10.662v181.255c0 5.888 4.774 10.662 10.662 10.662h106.621c5.888 0 10.662-4.774 10.662-10.662v-181.255c-.001-5.888-4.774-10.662-10.663-10.662zm-85.296 181.255c-5.888 0-10.662-4.774-10.662-10.662s4.774-10.662 10.662-10.662 10.662 4.774 10.662 10.662-4.774 10.662-10.662 10.662zm0-138.607c-5.888 0-10.662-4.774-10.662-10.662s4.774-10.662 10.662-10.662 10.662 4.774 10.662 10.662c0 5.889-4.774 10.662-10.662 10.662zm63.972 138.607c-5.888 0-10.662-4.774-10.662-10.662s4.774-10.662 10.662-10.662 10.662 4.774 10.662 10.662-4.773 10.662-10.662 10.662zm0-138.607c-5.888 0-10.662-4.774-10.662-10.662s4.774-10.662 10.662-10.662 10.662 4.774 10.662 10.662c0 5.889-4.773 10.662-10.662 10.662z"/><path id="Rectangle-path_12_" d="m559.806 374.268h42.648v42.648h-42.648z"/><path id="Shape_5_" d="m16.041 480.889h31.986v-42.648h-42.648v31.986c0 5.888 4.774 10.662 10.662 10.662z"/><path id="Rectangle-path_13_" d="m431.862 438.241h42.648v42.648h-42.648z"/><path id="Shape_6_" d="m602.454 320.958c0-5.888-4.774-10.662-10.662-10.662h-31.986v42.648h42.648z"/><path id="Shape_7_" d="m410.537 523.537v-255.889c0-11.777-9.547-21.324-21.324-21.324h-170.593c-11.777 0-21.324 9.547-21.324 21.324v255.889c0 11.777 9.547 21.324 21.324 21.324h170.593c11.777 0 21.324-9.547 21.324-21.324zm-53.31 0h-106.62c-17.665 0-31.986-14.321-31.986-31.986v-181.255c0-17.665 14.321-31.986 31.986-31.986h106.621c17.665 0 31.986 14.321 31.986 31.986v181.255c-.001 17.666-14.321 31.986-31.987 31.986z"/><path id="Shape_8_" d="m303.917 225c55.802.335 103.998-38.961 114.905-93.687.602-3.144-.226-6.394-2.26-8.867s-5.062-3.912-8.264-3.928l-208.752-.139c-3.205.009-6.239 1.446-8.276 3.92s-2.865 5.728-2.258 8.874c10.845 54.784 59.059 94.153 114.905 93.827z"/></g></g></g></svg>