<svg id="Capa_1" enable-background="new 0 0 607.307 607.307" height="512" viewBox="0 0 607.307 607.307" width="512" xmlns="http://www.w3.org/2000/svg"><g><g id="Page-1_1_"><g id="_x30_02---Stage-Separation"><path id="Shape_15_" d="m112.128 367.128c-6.891 13.522-11.46 24.082-14.108 30.593l7.488 7.477.141.098.098.152 30.387 30.387.141.087s.065.108.109.163l73.232 73.178c6.511-2.594 17.038-7.163 30.561-14.043l.239-.119c71.498-37.743 135.34-88.476 188.257-149.601 12.79-14.442 24.502-29.803 35.043-45.96 2.77-4.332 2.141-10.009-1.508-13.631l-140.834-140.736c-3.618-3.638-9.282-4.266-13.609-1.508-16.168 10.496-31.527 22.188-45.949 34.977-61.099 52.904-111.812 116.722-149.547 188.192zm14.987 18.612c36.68-72.779 87.337-137.62 149.08-190.819 4.495-3.971 11.358-3.546 15.329.95 3.971 4.495 3.546 11.358-.95 15.329-59.584 51.263-108.48 113.767-143.893 183.938-2.765 5.078-9.026 7.097-14.236 4.59-5.211-2.507-7.541-8.659-5.298-13.989h-.032z"/><path id="Shape_14_" d="m96.186 350.827c27.782-51.533 62.36-99.101 102.805-141.429-76.965 27.811-145.231 75.435-197.905 138.065-1.172 1.188-1.39 3.019-.532 4.449.798 1.581 2.51 2.483 4.265 2.246 30.286-3.947 60.874-5.063 91.367-3.331z"/><path id="Shape_13_" d="m129.579 459.851c-8.714 11.722-15.624 24.682-20.5 38.45 13.771-4.856 26.725-11.775 38.418-20.522z"/><path id="Shape_12_" d="m255.402 606.793c1.388.827 3.155.641 4.341-.456 62.675-52.696 110.336-120.996 138.173-198.003-42.329 40.442-89.897 75.015-141.429 102.794 1.74 30.493.624 61.082-3.332 91.367-.268 1.77.641 3.509 2.247 4.298z"/><path id="Shape_11_" d="m59.19 537.099c.053 6.066 4.96 10.968 11.026 11.015 39.462-.658 77.56-14.546 108.188-39.438l-15.41-15.4c-19.697 15.394-42.707 25.991-67.209 30.951-.655.121-1.32.182-1.986.185-3.228 0-6.289-1.437-8.351-3.92-2.062-2.484-2.911-5.756-2.317-8.929 4.995-24.49 15.58-47.494 30.929-67.22l-15.432-15.432c-24.931 30.605-38.824 68.718-39.438 108.188z"/><path id="Shape_10_" d="m607.249 11.515c.209-3.1-.928-6.14-3.121-8.341s-5.228-3.35-8.329-3.152c-50.395 3.252-99.902 14.837-146.508 34.283l123.719 123.718c19.458-46.6 31.029-96.112 34.239-146.508z"/><path id="Shape_9_" d="m411.384 167.074c8.637.019 16.925-3.407 23.029-9.518l38.32-38.32 15.356 15.335-36.898 36.898c-6.666 6.413-10.422 15.272-10.397 24.522s3.828 18.088 10.528 24.466c12.918 11.274 32.359 10.625 44.495-1.487 4.243-4.243 4.243-11.124 0-15.367s-11.124-4.243-15.367 0c-2.725 2.821-6.76 3.953-10.554 2.959-3.794-.993-6.758-3.956-7.751-7.751-.993-3.794.138-7.829 2.959-10.554l38.342-38.342 39.177 39.112c2.471 2.485 5.99 3.624 9.449 3.057 3.458-.566 6.431-2.768 7.98-5.911 1.172-2.337 2.315-4.667 3.429-6.989l-135.351-135.34c-2.355 1.14-4.721 2.29-7.076 3.473-3.147 1.549-5.352 4.523-5.919 7.985s.575 6.984 3.065 9.455l39.177 39.134-38.309 38.32c-2.741 2.743-6.738 3.815-10.484 2.813s-6.673-3.927-7.678-7.673.065-7.743 2.806-10.486c4.24-4.241 4.24-11.116 0-15.356-4.241-4.241-11.116-4.241-15.356 0-9.301 9.312-12.08 23.308-7.043 35.467s16.9 20.09 30.061 20.097h.01z"/></g></g></g></svg>