<svg id="Capa_1" enable-background="new 0 0 607.737 607.737" height="512" viewBox="0 0 607.737 607.737" width="512" xmlns="http://www.w3.org/2000/svg"><g><g id="Page-1_2_"><g id="_x30_03---Booster-Landing" transform="translate(-1)"><path id="Shape_23_" d="m275.323 281.078 17.581 185.577h23.875l17.581-185.577c1.865-19.86 16.185-36.319 35.596-40.914v-131.64h-130.229v131.64c19.411 4.595 33.731 21.055 35.596 40.914z"/><path id="Shape_22_" d="m413.367 130.229h86.82c5.994 0 10.852-4.859 10.852-10.852v-32.557c0-5.994-4.859-10.852-10.852-10.852h-86.82c-11.972.036-21.669 9.732-21.705 21.705v10.852c.035 11.972 9.732 21.669 21.705 21.704z"/><path id="Shape_21_" d="m369.957 10.852c0-5.993-4.859-10.852-10.853-10.852h-108.524c-5.994 0-10.852 4.859-10.852 10.852v75.968h130.229z"/><path id="Shape_20_" d="m109.498 130.229h86.82c11.972-.036 21.669-9.732 21.705-21.705v-10.852c-.036-11.972-9.732-21.669-21.705-21.705h-86.82c-5.994 0-10.852 4.859-10.852 10.852v32.557c-.001 5.995 4.858 10.853 10.852 10.853z"/><path id="Shape_19_" d="m112.189 607.737c3.039-.001 5.994-1 8.411-2.843l152.227-116.534h-39.937l-105.269 92.246 112.106-238.862v124.912h31.364l-15.193-159.422-2.279-24.201c.016-.153-.022-.307-.109-.434-.868-8.471-6.093-15.876-13.783-19.534v27.457l-139.996 297.496c-2.008 4.275-1.696 9.28.827 13.273s6.908 6.424 11.631 6.446z"/><path id="Shape_18_" d="m304.842 491.182-38.852 29.736h77.704z"/><path id="Shape_17_" d="m273.088 596.885h63.509c4.167-.001 7.966-2.388 9.774-6.142s1.308-8.212-1.288-11.472l-29.171-36.649h-22.139l-29.171 36.649c-2.596 3.26-3.097 7.718-1.288 11.472s5.607 6.141 9.774 6.142z"/><path id="Shape_16_" d="m369.957 290.52v-27.457c-7.69 3.658-12.914 11.063-13.783 19.534-.086.127-.125.281-.109.434l-2.279 24.201-15.193 159.422h31.364v-124.91l112.106 238.862-105.269-92.246h-39.937l152.227 116.534c5.067 3.869 12.122 3.775 17.084-.227s6.548-10.877 3.84-16.648z"/></g></g></g></svg>