<svg id="Capa_1" enable-background="new 0 0 607.748 607.748" height="512" viewBox="0 0 607.748 607.748" width="512" xmlns="http://www.w3.org/2000/svg"><g><g id="Page-1_3_"><g id="_x30_04---Fairing" transform="translate(-1 -1)"><path id="Shape_25_" d="m239.76 608.748h130.229c5.994 0 10.852-4.859 10.852-10.852v-10.852h-151.934v10.852c0 5.993 4.859 10.852 10.853 10.852z"/><path id="Shape_24_" d="m223.264 565.338h163.221l25.829-32.351c7.69-9.61 11.898-21.541 11.938-33.849v-256.291c.247-28.699-3.304-57.305-10.559-85.072-15.225-55.876-44.896-106.759-86.027-147.528-12.692-12.329-32.888-12.329-45.58 0-41.136 40.768-70.81 91.651-86.038 147.528-7.252 27.768-10.799 56.374-10.549 85.072v256.291c.03 12.323 4.238 24.271 11.938 33.892zm-16.062-322.491c0-5.994 4.859-10.852 10.852-10.852s10.852 4.859 10.852 10.852v256.291c0 5.994-4.859 10.852-10.852 10.852s-10.852-4.859-10.852-10.852z"/></g></g></g></svg>