<svg id="Capa_1" enable-background="new 0 0 607.737 607.737" height="512" viewBox="0 0 607.737 607.737" width="512" xmlns="http://www.w3.org/2000/svg"><g><g id="Page-1_4_"><g id="_x30_05---Fairing-Separation"><path id="Shape_30_" d="m219.339 180.014c3.197 2.952 7.776 3.871 11.865 2.381s7.002-5.139 7.55-9.456v-33.382h130.229v33.382c.548 4.317 3.462 7.966 7.551 9.456s8.667.571 11.865-2.381l74.882-65.939c2.094-1.744 3.305-4.329 3.305-7.054s-1.211-5.31-3.305-7.054l-74.882-65.939c-3.191-2.95-7.762-3.873-11.848-2.393s-7.005 5.116-7.567 9.425v33.382h-130.23v-33.383c-.548-4.317-3.462-7.966-7.55-9.456-4.089-1.49-8.667-.571-11.865 2.381l-74.882 65.939c-2.094 1.744-3.305 4.329-3.305 7.054s1.211 5.31 3.305 7.054z"/><path id="Shape_29_" d="m158.923 603.401 41.934-11.232c2.781-.745 5.151-2.565 6.59-5.058s1.828-5.456 1.083-8.237l-2.811-10.483-9.496 2.55-53.394 14.304 2.8 10.483c.745 2.781 2.565 5.151 5.058 6.59s5.456 1.829 8.236 1.083z"/><path id="Shape_28_" d="m78.138 511.567c3.207 11.887 10.345 22.338 20.251 29.649l33.371 24.527 68.37-18.319-145.607-543.295c-.04-.071-.1-.128-.174-.163-3.769 2.823-6.963 6.341-9.409 10.364-19.497 33.016-32.923 69.256-39.644 107.005-3.416 19.069-5.188 38.396-5.296 57.768.164 28.686 4.13 57.223 11.797 84.866z"/><path id="Shape_27_" d="m402.018 568.391-2.811 10.483c-.746 2.78-.356 5.743 1.083 8.237 1.439 2.493 3.81 4.313 6.59 5.058l41.934 11.232c2.78.746 5.743.356 8.236-1.083s4.313-3.81 5.058-6.59l2.8-10.483-53.394-14.304z"/><path id="Shape_26_" d="m562.808 14.352c-2.429-4.056-5.7-7.542-9.594-10.223l-145.574 543.295 68.37 18.319 33.426-24.581c9.869-7.269 16.978-17.672 20.164-29.508l66.363-247.685c7.669-27.649 11.629-56.195 11.775-84.888-.117-19.376-1.893-38.706-5.307-57.778-6.717-37.73-20.136-73.952-39.623-106.951z"/></g></g></g></svg>