<svg id="Capa_1" enable-background="new 0 0 607.737 607.737" height="512" viewBox="0 0 607.737 607.737" width="512" xmlns="http://www.w3.org/2000/svg"><g><g id="Page-1_6_"><g id="_x30_07---Liquid-Oxygen"><path id="Shape_38_" d="m358.131 10.852c0-5.993-4.859-10.852-10.853-10.852h-86.82c-5.994 0-10.852 4.859-10.852 10.852v32.558h108.525z"/><ellipse id="Oval" cx="293.016" cy="336.426" rx="32.557" ry="43.41"/><path id="Shape_37_" d="m238.754 607.737h130.229c65.898-.078 119.299-53.479 119.377-119.377v-303.868c-.078-65.898-53.479-119.299-119.377-119.377h-130.229c-65.898.078-119.299 53.479-119.377 119.377v303.868c.078 65.898 53.479 119.299 119.377 119.377zm121.754-318.791c-3.746-4.681-2.988-11.513 1.693-15.259s11.513-2.988 15.259 1.693l34.934 43.681 34.934-43.67c2.423-3.028 6.278-4.533 10.112-3.949 3.834.585 7.065 3.17 8.476 6.783s.787 7.704-1.636 10.732l-37.984 47.469 37.984 47.479c3.746 4.681 2.988 11.513-1.693 15.259s-11.513 2.988-15.259-1.693l-34.934-43.681-34.934 43.67c-2.423 3.028-6.278 4.533-10.112 3.949-3.834-.585-7.065-3.17-8.476-6.783s-.787-7.704 1.636-10.732l37.984-47.469zm-67.492-17.635c29.92 0 54.262 29.204 54.262 65.115s-24.342 65.115-54.262 65.115-54.262-29.204-54.262-65.115 24.342-65.115 54.262-65.115zm-151.934-86.819c.06-53.918 43.754-97.612 97.672-97.672 5.994 0 10.852 4.859 10.852 10.852 0 5.994-4.859 10.852-10.852 10.852-41.936.048-75.919 34.031-75.967 75.967 0 5.994-4.859 10.852-10.852 10.852-5.994.001-10.853-4.858-10.853-10.851zm10.852 97.672c0-5.994 4.859-10.852 10.852-10.852 5.994 0 10.852 4.859 10.852 10.852v97.672h54.262c5.994 0 10.852 4.859 10.852 10.852 0 5.994-4.859 10.852-10.852 10.852h-65.115c-5.994 0-10.852-4.859-10.852-10.852v-108.524z"/></g></g></g></svg>