<svg id="Capa_1" enable-background="new 0 0 607.737 607.737" height="512" viewBox="0 0 607.737 607.737" width="512" xmlns="http://www.w3.org/2000/svg"><g><g id="Page-1_7_"><g id="_x30_08---Rocket-Engine"><path id="Shape_51_" d="m184.514 195.344h10.852v-75.967h-10.852c-5.994 0-10.852 4.859-10.852 10.852v54.262c-.001 5.994 4.858 10.853 10.852 10.853z"/><path id="Shape_50_" d="m119.833 607.737h368.104c2.947.003 5.767-1.201 7.803-3.332 2.089-2.165 3.202-5.09 3.082-8.096-.26-7.054-.716-14.108-1.226-21.13h-387.432c-.499 6.946-.988 13.913-1.248 21.032-.124 3.054 1.005 6.025 3.126 8.226 2.031 2.128 4.85 3.322 7.791 3.3z"/><path id="Shape_49_" d="m238.776 21.705h119.377c5.994 0 10.852-4.859 10.852-10.852s-4.858-10.853-10.852-10.853h-119.377c-5.994 0-10.852 4.859-10.852 10.852s4.858 10.853 10.852 10.853z"/><path id="Shape_48_" d="m491.117 520.918h-374.55c-1.747 10.592-3.158 21.488-4.341 32.557h383.352c-1.205-10.853-2.659-21.705-4.461-32.557z"/><path id="Shape_47_" d="m462.228 412.393h-180.042c-47.927-.054-86.766-38.893-86.82-86.82v-17.363c-25.927 42.877-46.425 88.809-61.023 136.741h338.868c-3.328-10.925-6.989-21.778-10.983-32.558z"/><path id="Rectangle-path_16_" d="m369.005 271.311h21.705v75.967h-21.705z"/><path id="Shape_46_" d="m479.375 466.655h-351.185c-2.778 10.57-5.31 21.423-7.597 32.557h366.596c-2.301-10.917-4.96-21.704-7.814-32.557z"/><path id="Rectangle-path_15_" d="m412.415 271.311h21.705v75.967h-21.705z"/><path id="Shape_45_" d="m282.186 390.688h184.492c5.994 0 10.852-4.859 10.852-10.852 0-5.994-4.859-10.852-10.852-10.852h-184.492c-23.975 0-43.41-19.435-43.41-43.41v-227.902c0-5.994-4.859-10.852-10.852-10.852-5.994 0-10.852 4.859-10.852 10.852v227.901c.035 35.947 29.167 65.079 65.114 65.115z"/><path id="Rectangle-path_14_" d="m260.481 108.524h65.115v21.705h-65.115z"/><path id="Shape_44_" d="m336.448 68.132v-24.722h-75.967v43.41h65.115c.023-7.72 4.159-14.842 10.852-18.688z"/><path id="Shape_43_" d="m260.481 325.573c0 11.987 9.718 21.705 21.705 21.705h21.705v-108.524c.038-3.65.449-7.286 1.226-10.852h-44.636z"/><path id="Shape_42_" d="m347.3 249.606v-41.239c-12.994 4.469-21.715 16.7-21.705 30.441v108.47h21.705z"/><path id="Shape_41_" d="m327.842 193.922c-1.461-2.93-2.23-6.157-2.246-9.431v-32.557h-65.115v54.262h54.349c3.621-4.789 8.019-8.938 13.012-12.274z"/><path id="Shape_40_" d="m347.3 97.672v86.82h108.524c5.994 0 10.852-4.859 10.852-10.852v-75.968c0-5.994-4.859-10.852-10.852-10.852h-108.524z"/><path id="Shape_39_" d="m444.973 206.197h-75.968v32.557 10.852h32.558 43.41z"/></g></g></g></svg>