<svg id="Capa_1" enable-background="new 0 0 607.772 607.772" height="512" viewBox="0 0 607.772 607.772" width="512" xmlns="http://www.w3.org/2000/svg"><g><g id="Page-1_8_"><g id="_x30_09---Rover" transform="translate(-1)"><path id="Shape_77_" d="m105.817 513.45-37.91-21.879c-5.334 14.098-5.334 29.659 0 43.757z"/><path id="Shape_76_" d="m116.295 575.377v-43.778l-37.942 21.91c9.622 11.596 23.085 19.356 37.942 21.868z"/><path id="Shape_75_" d="m2.166 279.964 51.259 32.042v-84.151l-11.84-7.398c-.995-.683-2.352-.456-3.07.513l-37.04 55.61c-.392.525-.551 1.188-.44 1.834.148.65.557 1.21 1.131 1.55z"/><path id="Shape_74_" d="m126.773 366.755c-5.787 0-10.478 4.691-10.478 10.478v53.114c6.952-.964 14.004-.964 20.956 0v-53.114c.021-2.731-1.064-5.353-3.007-7.272-1.941-2.053-4.645-3.213-7.471-3.206z"/><path id="Shape_73_" d="m175.193 553.509-37.942-21.91v43.778c14.858-2.512 28.321-10.272 37.942-21.868z"/><path id="Shape_72_" d="m78.353 473.392 37.942 21.91v-43.778c-14.857 2.512-28.32 10.272-37.942 21.868z"/><path id="Shape_71_" d="m189.643 513.45c-.013-7.474-1.369-14.884-4.003-21.879l-37.91 21.879 37.91 21.879c2.633-6.994 3.989-14.405 4.003-21.879z"/><path id="Shape_70_" d="m378.251 513.45c-.013-7.474-1.369-14.884-4.003-21.879l-37.91 21.879 37.91 21.879c2.634-6.994 3.989-14.405 4.003-21.879z"/><path id="Shape_69_" d="m95.339 385.784v-8.55c0-17.361 14.074-31.435 31.435-31.435 17.325.086 31.349 14.11 31.435 31.435v10.478h125.739v-10.478c0-17.361 14.074-31.435 31.435-31.435 17.325.086 31.349 14.11 31.435 31.435v10.478h125.739v-10.478c0-17.361 14.074-31.435 31.435-31.435 17.325.086 31.349 14.11 31.435 31.435v10.478h10.478c5.787 0 10.478-4.691 10.478-10.478v-83.826c0-5.787-4.691-10.478-10.478-10.478h-83.826v41.913c0 5.787-4.691 10.478-10.478 10.478s-10.478-4.691-10.478-10.478v-41.913h-20.956v41.913c0 5.787-4.691 10.478-10.478 10.478s-10.478-4.691-10.478-10.478v-41.913h-20.956v41.913c0 5.787-4.691 10.478-10.478 10.478s-10.478-4.691-10.478-10.478v-41.913h-282.917v73.348c.055 13.273 8.442 25.081 20.957 29.506z"/><path id="Shape_68_" d="m137.251 495.302 37.942-21.91c-9.621-11.597-23.084-19.356-37.942-21.868z"/><path id="Shape_67_" d="m136.832 190.124c-1.625-.982-3.487-1.501-5.386-1.498h-46.586c-5.787 0-10.478 4.691-10.478 10.478v10.478h20.956c5.787 0 10.478 4.691 10.478 10.478s-4.691 10.478-10.478 10.478h-20.956v31.435h182.216z"/><path id="Rectangle-path_17_" d="m493.511 157.191h20.956v104.782h-20.956z"/><path id="Shape_66_" d="m514.468 495.302 37.942-21.91c-9.621-11.597-23.084-19.356-37.942-21.868z"/><path id="Shape_65_" d="m325.86 495.302 37.942-21.91c-9.621-11.597-23.084-19.356-37.942-21.868z"/><path id="Shape_64_" d="m430.642 136.234h146.695c5.787 0 10.478-4.691 10.478-10.478v-104.782c0-5.787-4.691-10.478-10.478-10.478s-10.478 4.691-10.478 10.478v31.435h-125.739v-31.435c0-5.787-4.691-10.478-10.478-10.478s-10.478 4.691-10.478 10.478v104.782c0 5.787 4.691 10.478 10.478 10.478zm104.782-73.347c17.361 0 31.435 14.074 31.435 31.435s-14.074 31.435-31.435 31.435-31.435-14.074-31.435-31.435 14.074-31.435 31.435-31.435z"/><path id="Shape_63_" d="m493.511 575.377v-43.778l-37.942 21.91c9.622 11.596 23.085 19.356 37.942 21.868z"/><path id="Shape_62_" d="m493.511 451.524c-14.857 2.512-28.32 10.271-37.942 21.868l37.942 21.91z"/><path id="Shape_61_" d="m552.409 553.509-37.942-21.91v43.778c14.858-2.512 28.321-10.272 37.942-21.868z"/><path id="Shape_60_" d="m503.989 366.755c-5.787 0-10.478 4.691-10.478 10.478v53.114c6.952-.964 14.004-.964 20.956 0v-53.114c.021-2.731-1.064-5.353-3.007-7.272-1.941-2.053-4.645-3.213-7.471-3.206z"/><circle id="Oval_1_" cx="535.424" cy="94.321" r="10.478"/><path id="Shape_59_" d="m252.512 513.45c.013 7.474 1.369 14.884 4.003 21.879l37.91-21.879-37.91-21.879c-2.634 6.995-3.99 14.406-4.003 21.879z"/><path id="Shape_58_" d="m566.859 513.45c-.013-7.474-1.369-14.884-4.003-21.879l-37.91 21.879 37.91 21.879c2.634-6.994 3.989-14.405 4.003-21.879z"/><path id="Shape_57_" d="m315.381 366.755c-5.787 0-10.478 4.691-10.478 10.478v53.114c6.952-.964 14.004-.964 20.956 0v-53.114c.021-2.731-1.064-5.353-3.007-7.272-1.941-2.053-4.645-3.213-7.471-3.206z"/><path id="Shape_56_" d="m304.903 451.524c-14.857 2.512-28.32 10.271-37.942 21.868l37.942 21.91z"/><path id="Shape_55_" d="m441.12 513.45c.013 7.474 1.369 14.884 4.003 21.879l37.91-21.879-37.91-21.879c-2.634 6.995-3.99 14.406-4.003 21.879z"/><path id="Shape_54_" d="m304.903 575.377v-43.778l-37.942 21.91c9.622 11.596 23.085 19.356 37.942 21.868z"/><path id="Shape_53_" d="m363.801 553.509-37.942-21.91v43.778c14.858-2.512 28.321-10.272 37.942-21.868z"/><path id="Shape_52_" d="m598.293 576.32h-565.824c-5.787 0-10.478 4.691-10.478 10.478s4.691 10.478 10.478 10.478h565.824c5.787 0 10.478-4.691 10.478-10.478s-4.691-10.478-10.478-10.478z"/></g></g></g></svg>