<svg id="Capa_1" enable-background="new 0 0 607.737 607.737" height="512" viewBox="0 0 607.737 607.737" width="512" xmlns="http://www.w3.org/2000/svg"><g><g id="Page-1_9_"><g id="_x30_10---Drone"><path id="Shape_88_" d="m209.565 0h-31.435c-5.787 0-10.478 4.691-10.478 10.478v10.478h41.913z"/><path id="Rectangle-path_23_" d="m293.39 83.826h20.956v73.348h-20.956z"/><path id="Rectangle-path_22_" d="m230.521 0h62.869v20.956h-62.869z"/><path id="Rectangle-path_21_" d="m293.39 220.043h20.956v73.348h-20.956z"/><path id="Rectangle-path_20_" d="m230.521 41.913h62.869v20.956h-62.869z"/><path id="Shape_87_" d="m440.086 52.391v-10.478h-41.913v20.956h31.435c5.786 0 10.478-4.691 10.478-10.478z"/><path id="Rectangle-path_19_" d="m314.347 0h62.869v20.956h-62.869z"/><path id="Shape_86_" d="m440.086 10.478c0-5.787-4.692-10.478-10.479-10.478h-31.435v20.956h41.913v-10.478z"/><path id="Shape_85_" d="m366.738 188.608c0-5.787-4.691-10.478-10.478-10.478h-104.783c-5.787 0-10.478 4.691-10.478 10.478s4.691 10.478 10.478 10.478h104.783c5.787 0 10.478-4.691 10.478-10.478z"/><path id="Rectangle-path_18_" d="m314.347 41.913h62.869v20.956h-62.869z"/><path id="Shape_84_" d="m178.13 62.869h31.435v-20.956h-41.913v10.478c0 5.787 4.691 10.478 10.478 10.478z"/><path id="Shape_83_" d="m586.781 62.869h-127.667c-4.424 12.515-16.233 20.901-29.507 20.956h-90.364c7.755 21.954 26.996 37.834 50.023 41.284 5.911.802 11.902.802 17.813 0 40.299-5.742 82.065-13.622 124.041-23.398l57.955-13.411c4.789-1.075 8.19-5.329 8.183-10.237v-4.715c.001-5.787-4.69-10.479-10.477-10.479z"/><path id="Shape_82_" d="m586.781 188.608h-199.087c0 17.361-14.074 31.435-31.435 31.435h-12.176c9.538 16.655 26.194 28.011 45.182 30.806 5.911.802 11.902.802 17.813 0 40.299-5.742 82.065-13.622 124.041-23.398l57.955-13.412c4.789-1.075 8.19-5.329 8.183-10.237v-4.715c.002-5.788-4.689-10.479-10.476-10.479z"/><path id="Shape_81_" d="m18.599 88.279 57.955 13.423c41.986 9.776 83.752 17.656 124.115 23.408 5.911.798 11.902.798 17.813 0 23.03-3.438 42.273-19.323 50.013-41.284h-90.365c-13.274-.055-25.082-8.442-29.507-20.956h-127.667c-5.787 0-10.478 4.691-10.478 10.478v4.715c-.003 4.881 3.365 9.118 8.121 10.216z"/><path id="Shape_80_" d="m18.599 214.018 57.955 13.423c41.986 9.776 83.752 17.656 124.115 23.408 5.911.798 11.902.798 17.813 0 18.988-2.79 35.641-14.148 45.172-30.806h-12.176c-17.361 0-31.435-14.074-31.435-31.435h-199.087c-5.787 0-10.478 4.691-10.478 10.478v4.715c-.003 4.882 3.365 9.119 8.121 10.217z"/><path id="Shape_79_" d="m408.651 502.955c5.787 0 10.478-4.691 10.478-10.478v-10.478h-230.521v10.478c0 5.787 4.691 10.478 10.478 10.478z"/><path id="Shape_78_" d="m565.824 544.868h-35.877l-110.818-191.416v-28.626c0-5.787-4.691-10.478-10.478-10.478h-209.565c-5.787 0-10.478 4.691-10.478 10.478v28.626l-110.818 191.416h-35.877c-17.361 0-31.435 14.074-31.435 31.435s14.074 31.435 31.435 31.435h20.956c17.361 0 31.435-14.074 31.435-31.435v-18.138l94.304-162.895v65.772h230.521v-65.772l94.304 162.895v18.138c0 17.361 14.074 31.435 31.435 31.435h20.956c17.361 0 31.435-14.074 31.435-31.435s-14.074-31.435-31.435-31.435zm-314.347-188.608h-20.956v20.956c0 5.787-4.691 10.478-10.478 10.478s-10.478-4.691-10.478-10.478v-31.435c0-5.787 4.691-10.478 10.478-10.478h31.435c5.787 0 10.478 4.691 10.478 10.478s-4.692 10.479-10.479 10.479z"/></g></g></g></svg>