<svg id="Capa_1" enable-background="new 0 0 604.199 604.199" height="512" viewBox="0 0 604.199 604.199" width="512" xmlns="http://www.w3.org/2000/svg"><g><g id="Page-1_10_"><g id="_x30_11---Crew-Module"><path id="Shape_94_" d="m498.594 297.47c-1.548 3.072-1.548 6.695 0 9.767l35.162 70.204c1.832 3.718 5.622 6.068 9.767 6.056h28.759l-49.248-94.59-16.485 2.735c-3.427.569-6.379 2.732-7.955 5.828z"/><path id="Shape_93_" d="m70.454 377.42 35.216-70.226c1.562-3.068 1.562-6.699 0-9.767-1.57-3.112-4.528-5.292-7.966-5.871l-16.409-2.713-49.314 94.622h28.759c4.124-.007 7.888-2.349 9.714-6.045z"/><path id="Shape_92_" d="m171.87 101.301h260.459v-21.705c0-5.994-4.859-10.852-10.852-10.852h-238.754c-5.994 0-10.852 4.859-10.852 10.852v21.705z"/><ellipse id="Oval_2_" cx="302.1" cy="253.235" rx="54.262" ry="32.557"/><path id="Shape_91_" d="m3.733 437.727h596.744l-16.962-32.557h-40.056c-12.357.032-23.655-6.969-29.128-18.048l-35.162-70.204c-4.587-9.234-4.538-20.093.131-29.286s13.409-15.637 23.571-17.38l9.55-1.574-75.826-145.672h-268.99l-75.826 145.629 9.485 1.563c10.176 1.723 18.936 8.159 23.622 17.354 4.686 9.196 4.743 20.066.156 29.311l-35.173 70.226c-5.465 11.09-16.765 18.103-29.128 18.08h-40.056zm146.432-119.377h14.271l18.612-97.672h-11.178c-5.994 0-10.852-4.859-10.852-10.852s4.859-10.852 10.852-10.852h15.313l3.256-16.941c2.921-15.345 16.329-26.453 31.95-26.469h159.423c15.633 0 29.059 11.112 31.982 26.469l35.14 184.492c1.814 9.53-.716 19.372-6.901 26.846s-15.38 11.8-25.081 11.8h-229.704c-9.701 0-18.896-4.326-25.081-11.8s-8.715-17.316-6.901-26.846l5.036-26.469h-10.136c-5.994 0-10.852-4.859-10.852-10.852-.001-5.995 4.858-10.854 10.851-10.854z"/><path id="Shape_90_" d="m604.199 459.432h-604.199c.801 1.547 1.879 2.933 3.18 4.091 13.164 11.601 54.946 40.577 158.305 59.276 92.984 16.876 188.246 16.876 281.23 0 103.359-18.699 145.141-47.675 158.305-59.276 1.3-1.158 2.378-2.545 3.179-4.091z"/><path id="Shape_89_" d="m187.248 383.465h229.703c3.233-.001 6.297-1.444 8.358-3.935s2.904-5.771 2.299-8.947l-35.14-184.492c-.974-5.118-5.448-8.821-10.657-8.823h-159.423c-5.21.002-9.683 3.705-10.657 8.823l-35.14 184.492c-.605 3.176.238 6.456 2.299 8.947s5.125 3.933 8.358 3.935zm114.852-184.492c42.596 0 75.967 23.875 75.967 54.262s-33.371 54.262-75.967 54.262-75.967-23.875-75.967-54.262 33.371-54.262 75.967-54.262z"/></g></g></g></svg>