<svg id="Capa_1" enable-background="new 0 0 604.017 604.017" height="512" viewBox="0 0 604.017 604.017" width="512" xmlns="http://www.w3.org/2000/svg"><g><g id="Page-1_11_"><g id="_x30_12---Flaring-Capture"><path id="Shape_104_" d="m539.4 507.417c3.285-3.404 5.798-7.476 7.369-11.938h-446.112v70.758l32.395 25.927c9.574 7.652 21.462 11.827 33.719 11.84h140.083c28.694.254 57.294-3.305 85.051-10.581 18.69-5.121 36.906-11.838 54.447-20.077 34.701-16.249 66.214-38.577 93.048-65.929z"/><path id="Shape_103_" d="m144.067 212.372v.109c2.024 1.132 3.856 2.579 5.426 4.287 4.233 4.474 10.12 7.008 16.279 7.008s12.046-2.535 16.279-7.008c1.549-1.701 3.386-3.116 5.426-4.178.315-83.412 19.014-155.516 47.751-197.873-53.036 33.576-90.445 109.435-91.161 197.655z"/><path id="Shape_102_" d="m57.248 506.332v43.41c0 5.994 4.859 10.852 10.852 10.852h10.852v-65.115h-10.852c-5.994 0-10.852 4.859-10.852 10.853z"/><path id="Shape_101_" d="m312.28 216.789c1.551-1.696 3.387-3.107 5.426-4.167-.152-115.145-11.85-192.035-21.705-212.622-9.854 20.62-21.553 97.477-21.705 212.621 2.039 1.06 3.876 2.471 5.426 4.167 4.236 4.468 10.122 6.998 16.279 6.998 6.157.001 12.043-2.53 16.279-6.997z"/><path id="Shape_100_" d="m214.608 216.789c4.238 4.489 10.138 7.033 16.311 7.033s12.073-2.544 16.311-7.033c1.551-1.696 3.387-3.107 5.426-4.167 0-42.032 1.953-152.292 19.144-206.728-33.089 25.883-62.185 102.48-62.619 206.739 2.038 1.057 3.875 2.464 5.427 4.156z"/><path id="Shape_99_" d="m474.882 216.571c5.073 5.886 12.897 8.623 20.533 7.184 10.54-2.337 17.938-11.825 17.635-22.617-1.522-77.01-45.971-146.706-115.155-180.563 42.954 43.301 71.159 113.104 71.746 191.785 1.966 1.108 3.736 2.531 5.241 4.211z"/><path id="Shape_98_" d="m356.775 14.716c28.694 42.325 47.371 114.385 47.751 197.742 2.032 1.144 3.864 2.61 5.426 4.341 4.234 4.491 10.133 7.037 16.306 7.037 6.172 0 12.072-2.546 16.306-7.037 1.549-1.681 3.364-3.096 5.372-4.189-.64-88.284-38.081-164.251-91.161-197.894z"/><path id="Shape_97_" d="m78.952 201.139c-.324 10.808 7.079 20.32 17.635 22.66 7.636 1.437 15.459-1.3 20.533-7.184 1.502-1.696 3.273-3.134 5.242-4.254.564-78.68 28.759-148.483 71.724-191.785-69.176 33.863-113.616 103.558-115.134 180.563z"/><path id="Shape_96_" d="m377.395 216.789c1.565-1.712 3.398-3.16 5.426-4.287-.434-104.184-29.519-180.737-62.532-206.609 17.169 54.403 19.068 164.697 19.122 206.728 2.039 1.06 3.876 2.471 5.426 4.167 4.236 4.468 10.122 6.998 16.279 6.998s12.043-2.53 16.279-6.997z"/><path id="Shape_95_" d="m306.854 473.775v-82.479l152.26-159.857-.651-.651c-7.936 9.61-19.769 15.147-32.232 15.085-3.284-.027-6.557-.391-9.767-1.085l-109.61 115.036v-115.362c-7.113 1.881-14.592 1.881-21.705 0v115.362l-109.501-115.145c-15.568 3.752-31.929-1.479-42.433-13.566l-.217.217 152.151 159.965v82.479h21.705z"/></g></g></g></svg>