<svg id="Capa_1" enable-background="new 0 0 604.004 604.004" height="512" viewBox="0 0 604.004 604.004" width="512" xmlns="http://www.w3.org/2000/svg"><g><g id="Page-1_12_"><g id="_x30_13---Crew-Landing" transform="translate(-1)"><path id="Shape_119_" d="m346.412 376.103h-86.82c-5.994 0-10.852 4.859-10.852 10.852v10.852h108.524v-10.852c0-5.994-4.859-10.852-10.852-10.852z"/><path id="Shape_118_" d="m224.029 450.279-63.932 99.463h56.834z"/><ellipse id="Oval_3_" cx="303.002" cy="473.775" rx="21.705" ry="10.852"/><path id="Shape_117_" d="m381.975 450.279 7.098 99.463h56.834z"/><path id="Shape_116_" d="m327.268 5.893c17.19 54.403 19.089 164.697 19.144 206.728 2.039 1.06 3.876 2.471 5.426 4.167 4.238 4.489 10.138 7.033 16.311 7.033s12.073-2.544 16.311-7.033c1.546-1.707 3.356-3.154 5.361-4.287-.455-104.194-29.54-180.736-62.553-206.608z"/><path id="Shape_115_" d="m324.707 212.621c-.152-115.144-11.851-192.034-21.705-212.621-9.854 20.62-21.553 97.477-21.705 212.621 2.039 1.06 3.876 2.471 5.426 4.167 4.238 4.489 10.138 7.033 16.311 7.033s12.073-2.544 16.311-7.033c1.532-1.69 3.346-3.1 5.362-4.167z"/><path id="Shape_114_" d="m416.953 216.789c4.234 4.491 10.133 7.037 16.306 7.037 6.172 0 12.072-2.546 16.306-7.037 1.55-1.689 3.365-3.114 5.372-4.222-.651-88.306-38.092-164.208-91.161-197.851 28.694 42.325 47.371 114.385 47.751 197.742 2.03 1.141 3.863 2.603 5.426 4.331z"/><path id="Shape_113_" d="m157.481 571.447c17.614 15.779 70.541 32.557 145.521 32.557s127.907-16.778 145.521-32.557z"/><path id="Shape_112_" d="m502.416 223.799c10.556-2.34 17.959-11.852 17.635-22.66-1.522-77.01-45.971-146.706-115.155-180.563 42.954 43.301 71.16 113.104 71.746 191.785 1.977 1.118 3.755 2.556 5.263 4.254 5.069 5.876 12.882 8.613 20.511 7.184z"/><path id="Shape_111_" d="m151.068 212.372v.217c.76.434 1.519.977 2.279 1.519-.098-.119-.239-.163-.347-.26 1.275.845 2.441 1.844 3.473 2.974 4.233 4.474 10.12 7.008 16.279 7.008s12.046-2.535 16.279-7.008c1.549-1.701 3.386-3.116 5.426-4.178.315-83.412 19.013-155.516 47.751-197.873-53.016 33.522-90.424 109.381-91.14 197.601z"/><path id="Shape_110_" d="m221.609 216.789c4.238 4.489 10.138 7.033 16.311 7.033s12.073-2.544 16.311-7.033c1.551-1.696 3.387-3.107 5.426-4.167 0-42.032 1.953-152.292 19.144-206.728-33.089 25.883-62.185 102.48-62.619 206.739 2.038 1.057 3.874 2.464 5.427 4.156z"/><path id="Shape_109_" d="m238.69 549.742h128.623l-9.301-130.229h-110.021zm64.312-108.525c24.342 0 43.41 14.304 43.41 32.557 0 18.254-19.068 32.557-43.41 32.557s-43.41-14.304-43.41-32.557 19.068-32.557 43.41-32.557z"/><path id="Shape_108_" d="m103.588 223.799c7.636 1.439 15.46-1.298 20.533-7.184 1.502-1.696 3.273-3.134 5.242-4.254.564-78.68 28.759-148.483 71.724-191.785-69.177 33.863-113.617 103.558-115.134 180.563-.324 10.808 7.079 20.32 17.635 22.66z"/><path id="Shape_107_" d="m287.049 354.398-104.401-109.719c-15.568 3.752-31.929-1.479-42.433-13.566l-.217.217 117.098 123.067h29.953z"/><path id="Shape_106_" d="m292.15 244.462v109.935h21.705v-109.935c-7.113 1.881-14.593 1.881-21.705 0z"/><path id="Shape_105_" d="m465.463 230.788c-7.936 9.61-19.769 15.147-32.232 15.085-3.284-.027-6.557-.391-9.767-1.085l-104.401 109.61h29.844l117.206-122.958z"/></g></g></g></svg>