<svg id="Capa_1" enable-background="new 0 0 607.681 607.681" height="512" viewBox="0 0 607.681 607.681" width="512" xmlns="http://www.w3.org/2000/svg"><g><g id="Page-1_13_"><g id="_x30_14---Solar-Panel"><path id="Shape_124_" d="m336.103 384.734c.454-.712.454-1.622 0-2.333l-29.974-49.422c-.488-.756-1.326-1.212-2.225-1.212s-1.737.456-2.225 1.212l-29.974 49.421c-.454.712-.454 1.622 0 2.333.445.83 1.327 1.332 2.268 1.291h59.949c.91.009 1.75-.488 2.181-1.29z"/><path id="Shape_123_" d="m34.242 562.594c2.35 4.164 6.873 6.617 11.645 6.316l204.797-12.372c5.437-.291 10.063-4.065 11.438-9.333l20.565-76.466c-26.901-5.412-50.757-20.805-66.775-43.084l-141.581 81.719c-5.186 2.949-11.779 1.158-14.762-4.008s-1.237-11.771 3.91-14.789l141.538-81.697c-10.578-23.125-12.559-49.265-5.589-73.721l-70.487-18.851c-5.223-1.411-10.762.695-13.728 5.22l-113.116 171.404c-2.653 4.032-2.8 9.216-.38 13.392z"/><path id="Shape_122_" d="m220.98 294.409c18.146-21.571 43.982-35.223 72.028-38.06v-163.34c0-5.994 4.859-10.852 10.852-10.852 5.994 0 10.852 4.859 10.852 10.852v163.34c28.045 2.836 53.882 16.488 72.028 38.06l50.301-50.399c3.849-3.893 4.803-9.798 2.377-14.705l-91.757-183.537c-2.109-4.337-6.529-7.071-11.352-7.022h-64.898c-4.786-.063-9.181 2.631-11.297 6.924l-91.909 183.721c-2.375 4.889-1.405 10.745 2.42 14.607z"/><path id="Shape_121_" d="m412.385 364.32c-.01 15.374-3.31 30.568-9.68 44.56l141.538 81.697c3.385 1.925 5.48 5.516 5.489 9.41s-2.07 7.495-5.447 9.434c-3.377 1.94-7.534 1.921-10.894-.048l-141.625-81.719c-16.018 22.279-39.874 37.672-66.775 43.084l20.565 76.445c1.352 5.259 5.952 9.038 11.373 9.344l204.862 12.383c4.767.28 9.28-2.168 11.645-6.316l32.557-56.324c2.391-4.164 2.232-9.319-.412-13.327l-112.888-171.382c-3.029-4.53-8.599-6.64-13.869-5.253l-70.476 18.84c2.667 9.495 4.025 19.31 4.037 29.172z"/><path id="Shape_120_" d="m390.68 364.32c0-47.949-38.87-86.82-86.82-86.82s-86.82 38.87-86.82 86.82 38.87 86.82 86.82 86.82c47.927-.054 86.766-38.893 86.82-86.82zm-137.967 31.06c-4.317-7.54-4.167-16.837.391-24.234l29.974-49.422c4.419-7.247 12.294-11.668 20.782-11.668s16.363 4.421 20.782 11.668l29.974 49.422c4.558 7.397 4.708 16.694.391 24.234-4.315 7.632-12.405 12.351-21.173 12.35h-59.949c-8.767.001-16.856-4.718-21.172-12.35z"/></g></g></g></svg>