<svg height="512" viewBox="0 0 56 56" width="512" xmlns="http://www.w3.org/2000/svg"><g id="Page-1" fill="none" fill-rule="evenodd"><g id="015---Rover-Wheel" fill="rgb(0,0,0)" transform="translate(-1 -1)"><path id="Path" d="m49.351 3.88c-.8141562-.71531436-1.7822045-1.23338618-2.829-1.514-5.7831335-1.01786693-11.650992-1.47532012-17.522-1.366-4.1318459-.0172092-8.2618797.1763757-12.374.58 1.9160202 1.37830019 3.4825336 3.18626357 4.574 5.279.569-.789 1.147-1.607 1.755-2.5.2871686-.42415289.8484081-.56273586 1.3-.321 2.645 1.406 5.228 2.853 7.685 4.304.989-1.324 1.939-2.661 2.831-3.982.2865545-.42486679.8479177-.56434395 1.3-.323 2.6 1.381 5.181 2.828 7.681 4.305.988-1.323 1.938-2.66 2.831-3.982.2868617-.42450975.8481629-.56353974 1.3-.322 1.164.621 2.225 1.2 3.23 1.755-.5169993-.69903548-1.1077346-1.34039568-1.762-1.913z"/><path id="Shape" d="m11 35h12.691c.205742-1.993384.3088781-3.9960265.309-6-.0001219-2.0039735-.103258-4.006616-.309-6h-12.691c-3.3137085 0-6 2.6862915-6 6s2.6862915 6 6 6zm0-10c2.209139 0 4 1.790861 4 4s-1.790861 4-4 4-4-1.790861-4-4 1.790861-4 4-4z" fill-rule="nonzero"/><circle id="Oval" cx="11" cy="29" r="2"/><path id="Path" d="m56.649 22.584c-1.245-.949-2.415-1.822-3.527-2.627-1.447 1.549-2.932 3.072-4.421 4.536-.3600753.3540155-.9275778.3840421-1.323.07-1.995-1.583-4.032-3.129-6.067-4.605-1.4 1.5-2.886 3.018-4.43 4.535-.3604758.354295-.9286489.3839052-1.324.069-1.887-1.5-3.921-3.05-6.057-4.6-1.183 1.264-2.433 2.545-3.717 3.822.14 1.689.217 3.432.217 5.22 0 .208 0 .412-.007.618 1.315-1.135 2.618-2.284 3.877-3.451.3696122-.3429716.9367484-.3571179 1.323-.033 1.761 1.479 3.539 3.035 5.294 4.635 1.768-1.5 3.512-3.047 5.194-4.6.3669686-.3430004.9314367-.3605464 1.319-.041 1.779 1.487 3.559 3.044 5.3 4.637 1.745-1.477 3.491-3.022 5.2-4.6.3695659-.3415092.9353318-.3552143 1.321-.032.7266667.61 1.4466667 1.226 2.16 1.848-.03-1.843-.14-3.65-.332-5.401z"/><path id="Path" d="m50.985 12.929c-1.131 1.4-2.365 2.856-3.677 4.335-.3359963.3787078-.9020124.446561-1.318.158-2.117-1.466-4.407-2.976-6.818-4.493-1.137 1.4-2.369 2.855-3.672 4.333-.3351761.3796791-.9012842.4488319-1.318.161-2.228-1.536-4.52-3.046-6.826-4.493-.837 1.04-1.746 2.118-2.729 3.247.366 1.595.662 3.278.886 5.032 1.076-1.093 2.13-2.184 3.123-3.258.3428921-.3712641.908892-.4283361 1.319-.133 2.16 1.557 4.226 3.111 6.152 4.628 1.518-1.509 2.975-3.018 4.339-4.5.3423726-.3704357.9070349-.4278881 1.317-.134 2.061 1.479 4.131 3.034 6.163 4.63 1.463-1.456 2.916-2.965 4.33-4.5.3419783-.3701821.905986-.42804 1.316-.135.867.62 1.762 1.277 2.7 1.973-.223-1.369-.491-2.693-.806-3.958-1.441-.954-2.937-1.922-4.481-2.893z"/><path id="Path" d="m47.73 6.226c-.927 1.346-1.908 2.7-2.924 4.039-.3079777.4056685-.8716524.5150447-1.309.254-2.459-1.471-5-2.913-7.577-4.294-.926 1.345-1.907 2.7-2.923 4.04-.3080725.4062284-.8724298.5156534-1.31.254-2.416-1.445-4.965-2.888-7.588-4.295-.649.941-1.271 1.806-1.886 2.64.7248274 1.6044975 1.3291651 3.2607438 1.808 4.955.83-.976 1.6-1.913 2.324-2.828.3150207-.4000607.8803536-.4995214 1.313-.231 2.333 1.45 4.659 2.966 6.925 4.513 1.28-1.468 2.484-2.908 3.586-4.287.316432-.3963414.879456-.493044 1.31-.225 2.436 1.519 4.759 3.035 6.917 4.512 1.287-1.468 2.488-2.907 3.58-4.284.3152908-.3976951.8784886-.4961473 1.31-.229 1.1333333.7013333 2.2396667 1.405 3.319 2.111-.3999154-1.2298663-.8754893-2.4338299-1.424-3.605-1.643-.956-3.395-1.935-5.451-3.04z"/><path id="Path" d="m50.941 52.432c-.418-.59-.837-1.181-1.28-1.775-2.457 1.451-5.04 2.9-7.692 4.306-.453064.240564-1.0146771.0992967-1.3-.327-.839-1.254-1.768-2.562-2.828-3.979-2.5 1.477-5.078 2.923-7.682 4.306-.4520823.2413439-1.0134455.1018668-1.3-.323-.892-1.321-1.842-2.658-2.831-3.982-2.408 1.423-4.962 2.854-7.6 4.261-.545679.5618024-1.1490063 1.0645752-1.8 1.5 4.1114395.4038903 8.2408041.5978089 12.372.581 5.871008.1093201 11.7388665-.3481331 17.522-1.366 1.04625-.272777 2.0129859-.7895575 2.821-1.508.5831148-.5148533 1.1180019-1.0818738 1.598-1.694z"/><path id="Path" d="m54.287 46.06c-.645-.781-1.3-1.554-1.98-2.333-2.186 1.5-4.512 3.011-6.929 4.513-.431945.2683596-.9965063.1698196-1.312-.229-1.087-1.371-2.261-2.779-3.572-4.284-2.191 1.494-4.516 3.01-6.925 4.512-.430544.268044-.993568.1713414-1.31-.225-1.187-1.485-2.364-2.9-3.583-4.287-1.837 1.258-3.778 2.528-5.775 3.788-.4799373 1.237741-1.0452989 2.4406379-1.692 3.6 1.57-.879 3.1-1.761 4.568-2.639.4373476-.2610447 1.0010223-.1516685 1.309.254 1.017 1.339 2 2.7 2.924 4.04 2.575-1.382 5.12-2.825 7.577-4.294.4373476-.2610447 1.0010223-.1516685 1.309.254 1.095 1.441 2.058 2.77 2.927 4.039 2.623-1.408 5.17-2.85 7.584-4.293.4371049-.2612609 1.000731-.1523247 1.309.253.488.642.9626667 1.2843333 1.424 1.927.8609452-1.4598425 1.579903-2.9988877 2.147-4.596z"/><path id="Path" d="m56.32 37.869c-.818-.836-1.6046667-1.6216667-2.36-2.357-2.052 1.644-4.037 3.168-6.048 4.644-.4069429.298616-.9726272.2471512-1.319-.12-1.406-1.493-2.9-3.011-4.446-4.522-1.983 1.587-4.017 3.146-6.055 4.642-.4071322.2992144-.9734988.2477265-1.32-.12-1.475-1.567-2.967-3.086-4.443-4.523-1.688 1.351-3.448 2.705-5.239 4.038-.2969777 1.6637251-.6838781 3.3101381-1.159 4.932 1.491-.967 2.93-1.928 4.34-2.9.4157888-.2879595.9811225-.2201366 1.317.158 1.258 1.417 2.465 2.842 3.674 4.335 2.384-1.5 4.678-3.01 6.83-4.494.4169585-.2875895.9830977-.2180034 1.318.162 1.346 1.526 2.551 2.951 3.665 4.332 2.389-1.5 4.682-3.008 6.825-4.493.4155463-.2882032.9808498-.2208132 1.317.157.621.7 1.215 1.389 1.8 2.079.5619851-1.9532109.9972244-3.9406814 1.303-5.95z"/><path id="Path" d="m56.972 30.64c-.905-.8-1.826-1.611-2.764-2.408-1.745 1.6-3.524 3.154-5.3 4.636-.3861655.3226595-.9519441.3080975-1.321-.034-1.7-1.577-3.449-3.122-5.2-4.6-1.714 1.566-3.487 3.125-5.287 4.632-.3850033.3231812-.9500767.3103386-1.32-.03-1.721-1.584-3.469-3.129-5.2-4.6-1.518 1.389-3.084 2.76-4.668 4.092-.08 1.557-.227 3.13-.388 4.389 1.446-1.1 2.873-2.206 4.238-3.311.39179-.3172184.9584401-.2932151 1.322.056 1.5 1.444 3.025 2.976 4.535 4.562 2.012-1.493 4.015-3.044 5.964-4.619.3927052-.3169996.9600712-.2916975 1.323.059 1.572 1.519 3.093 3.05 4.533 4.56 1.968-1.461 3.923-2.978 5.953-4.619.3914431-.3160341.9567302-.2920522 1.32.056.632.6 1.281 1.243 1.944 1.906.166-1.54.272-3.12.316-4.727z"/><path id="Path" d="m3.1 1.136c-.75911111.23650419-1.39292071.76533833-1.7615722 1.46980976-.36865149.70447142-.44184434 1.52667758-.2034278 2.28519024l5.413 17.462c1.31640704-.8837434 2.8664633-1.3548185 4.452-1.353h1.422l-5.447-17.523c-.15800102-.85038859-.67189804-1.59271535-1.41222787-2.03997009-.74032984-.44725475-1.63651045-.55679682-2.46277213-.30102991z"/><path id="Path" d="m9.086 3.531 5.43 17.469h8.935c-1.503-10.73-5.91-18.74-10.951-18.74-1.2515341.01184085-2.4594178.46152455-3.414 1.271z"/><path id="Path" d="m12.5 55.74c5.041 0 9.448-8.01 10.951-18.74h-12.451c-3.11832924-.0007691-5.9520254-1.8134111-7.26012109-4.6441113-1.30809569-2.8307001-.85216662-6.1635118 1.16812109-8.5388887l-2.421-7.807c-1.01082091 4.2553991-1.51001966 8.6162544-1.487 12.99 0 14.5 5.267 26.74 11.5 26.74z"/></g></g></svg>