<svg id="Capa_1" enable-background="new 0 0 607.737 607.737" height="512" viewBox="0 0 607.737 607.737" width="512" xmlns="http://www.w3.org/2000/svg"><g><g id="Page-1_15_"><g id="_x30_16---Rover"><path id="Shape_148_" d="m441.63 203.046c2.124-2.008 3.325-4.804 3.321-7.727 0-5.994-4.859-10.852-10.852-10.852h-21.705v21.705h21.705c2.831.028 5.551-1.101 7.531-3.126z"/><path id="Shape_147_" d="m374.41 157.336c-8.99 0-16.279 7.288-16.279 16.279v32.557h32.557v-32.557c0-8.991-7.288-16.279-16.278-16.279z"/><path id="Shape_146_" d="m314.721 206.172h21.705v-21.705h-21.705c-2.832-.029-5.552 1.1-7.532 3.126-2.124 2.008-3.325 4.804-3.321 7.727.001 5.993 4.859 10.852 10.853 10.852z"/><path id="Shape_145_" d="m401.541 336.401c11.987 0 21.705-9.718 21.705-21.705v-86.82h-97.672v65.115h43.41c17.981 0 32.557 14.576 32.557 32.557-.036 3.705-.712 7.377-1.997 10.852h1.997z"/><path id="Shape_144_" d="m195.344 314.696c-5.219.038-9.671 3.784-10.601 8.92-.929 5.135 1.928 10.205 6.802 12.069l173.64 65.115c2.678 1.034 5.659.948 8.273-.238s4.642-3.372 5.629-6.068v-.076c1.009-2.686.903-5.664-.293-8.272s-3.384-4.631-6.077-5.619l-175.321-65.831z"/><circle id="Oval_5_" cx="260.459" cy="75.942" r="10.852"/><path id="Rectangle-path_24_" d="m206.197 141.057h21.705v108.524h-21.705z"/><path id="Shape_143_" d="m379.836 325.549c0-5.994-4.859-10.852-10.852-10.852h-109.795l57.844 21.705h51.951c5.993-.001 10.852-4.86 10.852-10.853z"/><path id="Shape_142_" d="m542.622 448.529v19.296c7.803-.792 18.276-1.194 32.557-1.194 14.282 0 24.754.402 32.557 1.194v-19.296c-10.632-2.708-21.59-3.92-32.557-3.603-10.966-.318-21.924.895-32.557 3.603z"/><path id="Shape_141_" d="m65.115 530.313v-9.42h21.705c23.975 0 43.41-19.435 43.41-43.41v-43.41c0-23.975-19.435-43.41-43.41-43.41h-41.435c-.957.01-1.781-.671-1.953-1.612s.36-1.869 1.258-2.197l96.391-36.139v61.653c0 17.981 14.576 32.557 32.557 32.557h260.459c17.981 0 32.557-14.576 32.557-32.557v-61.653l96.391 36.139c.899.328 1.43 1.256 1.258 2.197s-.996 1.622-1.953 1.612h-41.435c-23.975 0-43.41 19.435-43.41 43.41v43.41c0 23.975 19.435 43.41 43.41 43.41h21.705v9.42c21.663 1.91 43.452 1.91 65.115 0v-40.545c-21.663-1.91-43.452-1.91-65.115 0v9.42h-21.705c-11.987 0-21.705-9.718-21.705-21.705v-43.41c0-11.987 9.718-21.705 21.705-21.705h41.435c11.438-.01 21.234-8.195 23.277-19.449 2.044-11.254-4.249-22.36-14.954-26.391l-104.021-39.004v-45.385c0-5.994-4.859-10.852-10.852-10.852h-10.85v43.41c0 23.975-19.435 43.41-43.41 43.41h-26.74l5.611 2.105c14.69 5.556 23.32 20.808 20.517 36.262s-16.239 26.704-31.945 26.747c-3.955.008-7.875-.729-11.558-2.171l-173.476-65.039c-14.7-5.544-23.345-20.795-20.549-36.256s16.233-26.719 31.944-26.764h108.524v-21.705h-151.934c-5.994 0-10.852 4.859-10.852 10.852v45.385l-104.021 39.005c-10.704 4.031-16.997 15.137-14.954 26.391 2.044 11.254 11.839 19.439 23.277 19.449h41.436c11.987 0 21.705 9.718 21.705 21.705v43.41c0 11.987-9.718 21.705-21.705 21.705h-21.705v-9.42c-10.82-1.049-21.687-1.527-32.557-1.433-10.87-.095-21.738.384-32.557 1.433v40.545c10.82 1.049 21.687 1.527 32.557 1.433 10.869.094 21.737-.384 32.557-1.433zm368.983-128.797c5.994 0 10.852 4.859 10.852 10.852 0 5.994-4.859 10.852-10.852 10.852-5.994 0-10.852-4.859-10.852-10.852s4.858-10.852 10.852-10.852zm-217.049 0c5.994 0 10.852 4.859 10.852 10.852 0 5.994-4.859 10.852-10.852 10.852s-10.852-4.859-10.852-10.852 4.858-10.852 10.852-10.852zm-43.41 0c5.994 0 10.852 4.859 10.852 10.852 0 5.994-4.859 10.852-10.852 10.852s-10.852-4.859-10.852-10.852 4.859-10.852 10.852-10.852z"/><path id="Shape_140_" d="m65.115 467.824v-19.296c-10.632-2.708-21.59-3.92-32.557-3.603-10.968-.317-21.926.896-32.558 3.604v19.296c7.803-.792 18.276-1.194 32.557-1.194s24.755.401 32.558 1.193z"/><path id="Shape_139_" d="m607.737 571.552v-19.296c-7.803.792-18.276 1.194-32.557 1.194-14.282 0-24.754-.402-32.557-1.194v19.296c10.632 2.708 21.59 3.92 32.557 3.603 10.967.317 21.925-.895 32.557-3.603z"/><path id="Shape_138_" d="m65.115 571.552v-19.296c-7.803.792-18.276 1.194-32.557 1.194s-24.755-.401-32.558-1.194v19.296c10.632 2.708 21.59 3.92 32.557 3.603 10.967.317 21.925-.895 32.558-3.603z"/><path id="Shape_137_" d="m303.869 119.352c5.994 0 10.852-4.859 10.852-10.852v-65.115c0-5.994-4.859-10.852-10.852-10.852h-173.64c-5.994 0-10.852 4.859-10.852 10.852v65.115c0 5.994 4.859 10.852 10.852 10.852zm-75.968-43.41c0-17.981 14.576-32.557 32.557-32.557s32.557 14.576 32.557 32.557-14.575 32.558-32.556 32.558-32.558-14.577-32.558-32.558z"/></g></g></g></svg>