<svg id="Capa_1" enable-background="new 0 0 607.737 607.737" height="512" viewBox="0 0 607.737 607.737" width="512" xmlns="http://www.w3.org/2000/svg"><g><g id="Page-1_16_"><g id="_x30_17---ISS"><path id="Rectangle-path_27_" d="m282.912 387.694h41.913c5.787 0 10.478 4.691 10.478 10.478v62.869c0 5.787-4.691 10.478-10.478 10.478h-41.913c-5.787 0-10.478-4.691-10.478-10.478v-62.869c0-5.786 4.691-10.478 10.478-10.478z"/><path id="Rectangle-path_26_" d="m293.39 492.477h20.956v20.956h-20.956z"/><path id="Shape_157_" d="m450.564 324.825 10.478-10.478v-20.957c0-5.787-4.691-10.478-10.478-10.478h-293.39c-5.787 0-10.478 4.691-10.478 10.478v20.956c0 5.787 4.691 10.478 10.478 10.478h31.435v52.391c-5.787 0-10.478 4.691-10.478 10.478v94.304c0 5.787 4.691 10.478 10.478 10.478h20.956c5.787 0 10.478-4.691 10.478-10.478v-94.304c0-5.787-4.691-10.478-10.478-10.478v-52.391h188.608v52.391c-5.787 0-10.478 4.691-10.478 10.478v94.304c0 5.787 4.691 10.478 10.478 10.478h20.956c5.787 0 10.478-4.691 10.478-10.478v-94.304c0-5.787-4.691-10.478-10.478-10.478v-52.391h31.435z"/><path id="Shape_156_" d="m272.434 544.868v41.913c0 5.787 4.691 10.478 10.478 10.478h41.913c5.787 0 10.478-4.691 10.478-10.478v-41.913c0-5.787-4.691-10.478-10.478-10.478h-41.913c-5.787 0-10.478 4.691-10.478 10.478z"/><path id="Rectangle-path_25_" d="m293.39 345.781h20.956v20.956h-20.956z"/><path id="Shape_155_" d="m282.912 215.6v46.356h41.913v-46.356c-13.343 5.924-28.57 5.924-41.913 0z"/><path id="Shape_154_" d="m178.13 565.824c0 5.787 4.691 10.478 10.478 10.478h62.869v-20.956h-62.869c-5.787 0-10.478 4.691-10.478 10.478z"/><path id="Shape_153_" d="m419.129 188.608c5.787 0 10.478-4.691 10.478-10.478v-20.956c0-5.787-4.691-10.478-10.478-10.478h-67.312c5.924 13.343 5.924 28.57 0 41.913h67.312z"/><circle id="Oval_6_" cx="303.869" cy="167.652" r="31.435"/><path id="Shape_152_" d="m188.608 146.695c-5.787 0-10.478 4.691-10.478 10.478v52.391c0 5.787 4.691 10.478 10.478 10.478h20.956c5.787 0 10.478-4.691 10.478-10.478v-10.478c0-5.787 4.691-10.478 10.478-10.478h25.399c-5.924-13.343-5.924-28.57 0-41.913z"/><path id="Shape_151_" d="m419.129 555.346h-62.869v20.956h62.869c5.787 0 10.478-4.691 10.478-10.478s-4.691-10.478-10.478-10.478z"/><path id="Shape_150_" d="m10.478 607.737h20.956c5.787 0 10.478-4.691 10.478-10.478v-199.086c0-5.787-4.691-10.478-10.478-10.478v-73.348h62.869v73.348c-5.787 0-10.478 4.691-10.478 10.478v199.086c0 5.787 4.691 10.478 10.478 10.478h20.956c5.787 0 10.478-4.691 10.478-10.478v-199.086c0-5.787-4.691-10.478-10.478-10.478v-73.348h10.478v-20.957h-10.477v-73.348c5.787 0 10.478-4.691 10.478-10.478v-199.086c.001-5.787-4.691-10.478-10.478-10.478h-20.956c-5.787 0-10.478 4.691-10.478 10.478v199.086c0 5.787 4.691 10.478 10.478 10.478v73.348h-62.869v-73.348c5.787 0 10.478-4.691 10.478-10.478v-199.086c0-5.787-4.691-10.478-10.478-10.478h-20.957c-5.787 0-10.478 4.691-10.478 10.478v199.086c0 5.787 4.691 10.478 10.478 10.478v73.348c-5.787 0-10.478 4.692-10.478 10.479s4.691 10.478 10.478 10.478v73.348c-5.787-.001-10.478 4.691-10.478 10.478v199.086c0 5.787 4.691 10.478 10.478 10.478z"/><path id="Shape_149_" d="m481.998 209.565c0 5.787 4.691 10.478 10.478 10.478v73.348h-10.478v20.956h10.478v73.348c-5.787 0-10.478 4.691-10.478 10.478v199.086c0 5.787 4.691 10.478 10.478 10.478h20.956c5.787 0 10.478-4.691 10.478-10.478v-199.086c0-5.787-4.691-10.478-10.478-10.478v-73.348h62.869v73.348c-5.787 0-10.478 4.691-10.478 10.478v199.086c0 5.787 4.691 10.478 10.478 10.478h20.956c5.787 0 10.478-4.691 10.478-10.478v-199.086c0-5.787-4.691-10.478-10.478-10.478v-73.348c5.787 0 10.478-4.691 10.478-10.478s-4.691-10.478-10.478-10.478v-73.348c5.787 0 10.478-4.691 10.478-10.478v-199.087c.002-5.787-4.689-10.478-10.476-10.478h-20.956c-5.787 0-10.478 4.691-10.478 10.478v199.086c0 5.787 4.691 10.478 10.478 10.478v73.348h-62.869v-73.348c5.787 0 10.478-4.691 10.478-10.478v-199.086c-.001-5.787-4.692-10.478-10.479-10.478h-20.956c-5.787 0-10.478 4.691-10.478 10.478v199.087z"/></g></g></g></svg>