<svg id="Capa_1" enable-background="new 0 0 597.769 597.769" height="512" viewBox="0 0 597.769 597.769" width="512" xmlns="http://www.w3.org/2000/svg"><g><g id="Page-1_17_"><g id="_x30_18---Soyuz-Space-Craft" transform="translate(-1)"><path id="Shape_174_" d="m395.798 202.934c-12.592-12.564-21.989-27.964-27.401-44.909-8.53-.874-51.978-3.892-76.916 21.036l-.501.501c.16.139.363.192.501.341l127.348 127.337c.149.149.192.352.331.512l.512-.512c25.067-25.066 21.932-68.376 21.036-76.905-16.945-5.415-32.344-14.811-44.91-27.401z"/><path id="Shape_173_" d="m188.442 107.007-32.679 32.679 40.644 40.633 25.13-25.13c2.002-2 3.127-4.714 3.127-7.543 0-2.83-1.125-5.544-3.127-7.543z"/><path id="Rectangle-path_33_" d="m200.463 199.475h23.702v23.691h-23.702z" transform="matrix(.707 -.707 .707 .707 -87.241 211.976)"/><path id="Shape_172_" d="m108.018 187.442 33.052 33.052c4.164 4.162 10.913 4.162 15.076 0l25.205-25.098-40.633-40.633z"/><path id="Rectangle-path_32_" d="m113.609 59.223h46.209v57.468h-46.209z" transform="matrix(.707 -.707 .707 .707 -22.153 122.43)"/><path id="Shape_171_" d="m117.657 36.222-33.053-33.052c-4.164-4.162-10.913-4.162-15.076 0l-25.184 25.098 40.633 40.633z"/><path id="Shape_170_" d="m37.233 116.71 32.669-32.733-40.634-40.633-25.141 25.131c-2.002 2-3.127 4.713-3.127 7.543s1.125 5.544 3.127 7.543z"/><path id="Shape_169_" d="m491.298 140.166c9.021-9.024 9.02-23.652-.003-32.674s-23.651-9.022-32.674 0-9.024 23.65-.003 32.674c9.146 8.726 23.534 8.726 32.68 0z"/><path id="Shape_168_" d="m451.102 374.071c-2.828.001-5.539 1.124-7.538 3.124l-25.13 25.13 40.612 40.644 32.679-32.669-33.052-33.052c-1.992-2.037-4.723-3.183-7.571-3.177z"/><path id="Shape_167_" d="m570.517 76.855 16.292-16.334c4.608-4.637 4.608-12.124 0-16.761l-31.848-31.837c-4.628-4.619-12.122-4.619-16.75 0l-16.334 16.345 24.299 24.299z"/><path id="Shape_166_" d="m410.874 59.678c-35.396 35.396-35.396 92.784 0 128.179s92.784 35.396 128.179 0c23.599-23.601 32.103-58.373 22.06-90.201l-60.027-60.027c-8.771-2.714-17.9-4.097-27.082-4.105-23.686-.033-46.408 9.38-63.13 26.154zm95.5 32.68c15.007 14.964 17.352 38.445 5.602 56.081s-34.323 24.515-53.912 16.43c-19.589-8.086-30.738-28.884-26.627-49.674s22.335-35.78 43.528-35.802c11.78-.047 23.09 4.622 31.409 12.965z"/><path id="Rectangle-path_31_" d="m487.676 433.292h46.209v57.458h-46.209z" transform="matrix(.707 -.707 .707 .707 -177.095 496.475)"/><path id="Shape_165_" d="m371.605 385.468-.948.939 16.76 16.76 16.761-16.76-16.761-16.751z"/><path id="Rectangle-path_30_" d="m65.849 106.976h46.209v57.458h-46.209z" transform="matrix(.707 -.707 .707 .707 -69.904 102.65)"/><path id="Shape_164_" d="m378.195 442.542c-4.162 4.164-4.162 10.913 0 15.076l33.052 33.052 32.679-32.679-40.59-40.612z"/><path id="Shape_163_" d="m530.257 594.594 25.13-25.13-40.633-40.644-32.679 32.679 33.052 33.052c1.996 2.021 4.716 3.162 7.556 3.17s5.567-1.118 7.574-3.127z"/><path id="Shape_162_" d="m529.83 513.743 40.686 40.644 25.13-25.141c4.162-4.164 4.162-10.913 0-15.076l-33.052-33.052z"/><path id="Shape_161_" d="m276.073 194.468-24.352 24.363-31.837 31.837-24.278 24.288 128.137 128.211 43.885-43.885 12.251-12.272 24.373-24.373c-.149-.139-.352-.192-.501-.341l-127.347-127.316c-.16-.149-.16-.352-.331-.512zm53.833 74.357c16.585 16.59 16.583 43.483-.005 60.07s-43.481 16.587-60.07 0c-16.588-16.587-16.591-43.48-.005-60.07 16.81-16.05 43.269-16.05 60.08 0z"/><path id="Rectangle-path_29_" d="m439.915 481.038h46.209v57.468h-46.209z" transform="matrix(.707 -.707 .707 .707 -224.848 476.713)"/><path id="Shape_160_" d="m270.167 472.417 8.999-19.981-132.999-132.966-19.426 8.327c-3.238 1.389-5.581 4.288-6.26 7.746-.678 3.458.396 7.027 2.869 9.537l64.644 65.625 64.879 64.868c2.476 2.492 6.021 3.605 9.478 2.974 3.456-.63 6.379-2.923 7.816-6.13z"/><path id="Shape_159_" d="m115.865 419.363 6.578 2.132c2.821.95 5.117 3.036 6.332 5.753 1.215 2.718 1.239 5.82.065 8.555l-14.927 34.961c-1.71 4.006-.811 8.649 2.27 11.728s7.725 3.974 11.73 2.261l34.94-14.927c2.737-1.177 5.842-1.156 8.562.06 2.72 1.215 4.808 3.513 5.757 6.337l2.132 6.578c1.344 4.053 4.977 6.914 9.233 7.269s8.313-1.863 10.31-5.637l11.334-21.42-74.634-74.634-21.409 11.334c-3.841 1.986-6.102 6.096-5.723 10.404s3.322 7.96 7.45 9.246z"/><path id="Shape_158_" d="m314.83 313.819c8.256-8.263 8.252-21.653-.009-29.911s-21.651-8.258-29.911 0-8.264 21.648-.009 29.911c8.374 7.998 21.556 7.998 29.929 0z"/><path id="Rectangle-path_28_" d="m224.324 271.898h23.723v181.276h-23.723z" transform="matrix(.707 -.707 .707 .707 -187.173 273.185)"/></g></g></g></svg>