<svg id="Capa_1" enable-background="new 0 0 607.737 607.737" height="512" viewBox="0 0 607.737 607.737" width="512" xmlns="http://www.w3.org/2000/svg"><g><g id="Page-1_18_"><g id="_x30_19---Launch-Date"><path id="Shape_185_" d="m108.524 48.836v-32.557c0-8.991-7.288-16.279-16.278-16.279s-16.279 7.288-16.279 16.279v32.557c0 8.99 7.288 16.279 16.279 16.279s16.278-7.289 16.278-16.279z"/><path id="Shape_184_" d="m389.603 378.523c-2.324 34.681-6.581 69.206-12.752 103.413 24.374 4.533 47.541 14.079 68.034 28.032-7.206-47.732-26.207-92.911-55.282-131.445z"/><path id="Shape_183_" d="m303.869 569.949c9.465-11.046 16.29-24.102 19.958-38.179h-39.915c3.661 14.079 10.487 27.136 19.957 38.179z"/><circle id="Oval_7_" cx="303.869" cy="336.426" r="32.557"/><path id="Shape_182_" d="m531.77 48.836v-32.557c0-8.991-7.288-16.279-16.279-16.279-8.99 0-16.279 7.288-16.279 16.279v32.557c0 8.99 7.288 16.279 16.279 16.279s16.279-7.289 16.279-16.279z"/><path id="Shape_181_" d="m390.688 48.836v-32.557c0-8.991-7.288-16.279-16.278-16.279s-16.279 7.288-16.279 16.279v32.557c0 8.99 7.288 16.279 16.279 16.279s16.278-7.289 16.278-16.279z"/><path id="Shape_180_" d="m249.606 48.836v-32.557c0-8.99-7.288-16.279-16.279-16.279-8.99 0-16.279 7.288-16.279 16.279v32.557c0 8.99 7.288 16.279 16.279 16.279s16.279-7.289 16.279-16.279z"/><path id="Shape_179_" d="m312.42 177.872c-1.991-2.69-5.151-4.264-8.497-4.232-3.472.002-6.739 1.643-8.812 4.428-14.07 18.822-25.958 39.182-35.433 60.687h88.296c-9.506-21.577-21.434-42.002-35.554-60.883z"/><path id="Shape_178_" d="m218.134 378.631c-29.046 38.464-48.067 83.549-55.348 131.195 20.551-13.794 43.69-23.271 68.012-27.858-6.134-34.184-10.362-68.683-12.664-103.337z"/><path id="Shape_177_" d="m575.18 43.41h-21.705v5.426c0 20.978-17.006 37.984-37.984 37.984s-37.984-17.006-37.984-37.984v-5.426h-65.115v5.426c0 20.978-17.006 37.984-37.984 37.984s-37.984-17.006-37.984-37.984v-5.426h-65.115v5.426c0 20.978-17.006 37.984-37.984 37.984s-37.984-17.006-37.984-37.984v-5.426h-65.115v5.426c0 20.978-17.006 37.984-37.984 37.984s-37.98-17.006-37.98-37.984v-5.426h-21.705c-17.981 0-32.557 14.576-32.557 32.557v32.557h607.737v-32.557c0-17.981-14.576-32.557-32.557-32.557z"/><path id="Shape_176_" d="m0 575.18c0 17.981 14.576 32.557 32.557 32.557h542.623c17.981 0 32.557-14.576 32.557-32.557v-444.95h-607.737zm531.77-141.082c-17.981 0-32.557 14.576-32.557 32.557v10.852c0 5.994 4.859 10.852 10.852 10.852 5.994 0 10.852-4.859 10.852-10.852v-10.852c0-5.994 4.859-10.852 10.852-10.852 5.994 0 10.852 4.859 10.852 10.852v10.852c0 17.981-14.576 32.557-32.557 32.557s-32.557-14.576-32.557-32.557v-10.852c0-29.968 24.294-54.262 54.262-54.262s54.262 24.294 54.262 54.262c0 87.579-71.387 119.377-119.377 119.377h-97.672c-5.994 0-10.852-4.859-10.852-10.852 0-5.994 4.859-10.852 10.852-10.852h97.672c.977 0 97.672-1.085 97.672-97.672.001-17.982-14.575-32.558-32.556-32.558zm-314.721-89.337c-.074-14.102.698-28.196 2.312-42.205 7.672-50.034 27.773-97.344 58.462-137.598 6.138-8.21 15.795-13.038 26.046-13.023 10.156-.039 19.731 4.731 25.818 12.86 18.477 24.618 33.411 51.705 44.365 80.471l.065.174c6.97 18.402 11.742 37.562 14.217 57.084 1.624 13.987 2.411 28.059 2.355 42.14 21.705 25.796 66.905 87.471 75.826 162.602.784 6.195-1.129 12.429-5.254 17.117s-10.065 7.379-16.309 7.388c-4.392-.012-8.678-1.351-12.296-3.842-18.025-12.273-38.402-20.669-59.84-24.657-.163.781-.336 1.682-.478 2.431-2.68 13.087-13.069 23.218-26.219 25.568-4.91 23.842-16.971 45.622-34.576 62.434-4.238 4.237-11.107 4.237-15.345 0-17.595-16.815-29.655-38.588-34.576-62.423-13.194-2.296-23.636-12.437-26.317-25.558-.152-.727-.326-1.628-.477-2.398-21.411 4.007-41.762 12.398-59.775 24.646-7.07 4.837-16.324 5.063-23.622.577s-11.274-12.845-10.151-21.338c8.918-75.11 54.064-136.698 75.769-162.45zm-141.082 67.632c29.953.036 54.226 24.309 54.262 54.262v10.852c0 17.981-14.576 32.557-32.557 32.557s-32.557-14.576-32.557-32.557v-10.852c0-5.994 4.859-10.852 10.852-10.852 5.994 0 10.852 4.859 10.852 10.852v10.852c0 5.994 4.859 10.852 10.852 10.852 5.994 0 10.852-4.859 10.852-10.852v-10.852c0-17.981-14.576-32.557-32.557-32.557s-32.556 14.576-32.556 32.557c0 96.587 96.695 97.672 97.672 97.672h97.672c5.994 0 10.852 4.859 10.852 10.852 0 5.994-4.859 10.852-10.852 10.852h-97.672c-47.99 0-119.377-31.798-119.377-119.377.036-29.952 24.309-54.225 54.262-54.261z"/><path id="Shape_175_" d="m267.187 510.065h73.254c5.15-.009 9.584-3.636 10.614-8.682 7.412-36.985 23.81-130.132 15.736-196.245-1.918-15.21-5.398-30.183-10.386-44.68h-105.16c-4.99 14.512-8.474 29.498-10.397 44.723-8.085 66.113 8.313 159.26 15.736 196.245 1.047 5.025 5.471 8.629 10.603 8.639zm36.682-227.901c29.968 0 54.262 24.294 54.262 54.262s-24.294 54.262-54.262 54.262-54.262-24.294-54.262-54.262c.035-29.953 24.308-54.226 54.262-54.262z"/></g></g></g></svg>