<svg height="512" viewBox="0 0 54 58" width="512" xmlns="http://www.w3.org/2000/svg"><g id="Page-1" fill="none" fill-rule="evenodd"><g id="020---Sputnik" fill="rgb(0,0,0)" transform="translate(0 -1)"><path id="Path" d="m23.008 17-.425 2h8.834l-.426-2z"/><path id="Shape" d="m10.28 15h7.01l.77-3.63c.365781-1.60419717 1.9529602-2.61652115 3.5618075-2.27176816s2.6418584 1.91854636 2.3181925 3.53176816l-.51 2.37h7.14l-.49-2.29c-.3343073-1.4605883.4410963-2.94783793 1.83-3.51.8207146-.32188686 1.7414683-.26649466 2.5176741.15146235.7762059.417957 1.3292876 1.15616845 1.5123259 2.01853765l.77 3.63h7.01c-1.4453279-8.10139789-8.4906853-14.00107258-16.72-14.00107258s-15.2746721 5.89967469-16.72 14.00107258zm16.72-12c.5522847 0 1 .44771525 1 1s-.4477153 1-1 1c-5.2550981-.01514299-9.9990534 3.14486051-12.01 8-.1564992.3695049-.5187198.609673-.92.61-.1300437.001957-.2591897-.0218331-.38-.07-.2456665-.101696-.4407193-.2970399-.5420488-.5428578-.1013295-.2458178-.1005922-.5218691.0020488-.7671422 2.3142902-5.6034629 7.7874677-9.25093071 13.85-9.23z" fill-rule="nonzero"/><path id="Path" d="m46 17h-8.872l.422 2h8.45c.5522847 0 1-.4477153 1-1s-.4477153-1-1-1z"/><path id="Path" d="m39.73 29.24c1.7399676-1.9457683 2.994217-4.2760676 3.66-6.8.1333333-.47.2433333-.95.33-1.44h-5.75c.022.1 1.785 8.359 1.76 8.24z"/><path id="Path" d="m7 18c0 .5522847.44771525 1 1 1h8.445l.424-2h-8.869c-.55024796.0048866-.99511344.449752-1 1z"/><path id="Path" d="m34.46 33.26c-.022-.1-2.646-12.379-2.62-12.26h-9.68c-.022.1-2.62 12.26-2.62 12.26 4.7027761 2.3199753 10.2172239 2.3199753 14.92 0z"/><path id="Path" d="m16.02 21h-5.74c.09.49.2.97.33 1.44.6766694 2.5205287 1.925727 4.8509622 3.65 6.81.022-.102 1.781-8.35 1.76-8.25z"/><path id="Path" d="m11 58.98c.5408346.1137887 1.0721872-.2300277 1.19-.77.021-.1 9.054-42.539 9.791-46 .1170844-.5417913-.2272087-1.0759156-.769-1.193s-1.0759156.2272087-1.193.769c-.469 2.2-9.763 45.882-9.789 46-.1139533.5417693.2294712 1.0743003.77 1.194z"/><path id="Path" d="m41.81 58.21c.1159798.541239.648761.8859798 1.19.77s.8859798-.648761.77-1.19c-.034-.161-9.765-45.892-9.789-46-.0632-.2901297-.2512249-.5375768-.513815-.6761982-.2625901-.1386213-.5729739-.1542842-.848185-.0428018-.4628571.2153075-.7078401.7287651-.584 1.224.919 4.305 9.754 45.814 9.775 45.915z"/><path id="Path" d="m.03 50.78c-.10495823.5287189.23019005 1.0448689.75587503 1.1640965.52568498.1192275 1.05071548-.2018305 1.18412497-.7240965l6.58-28.77.33-1.45h-.88c-.38078041-.0005092-.75781063-.0752359-1.11-.22z"/><path id="Path" d="m45.12 21c9.45 41.329 6.215 27.179 6.91 30.22.1334095.522266.65844.843324 1.184125.7240965.5256849-.1192276.8608332-.6353776.755875-1.1640965l-6.86-30c-.3507483.1494888-.7287497.224408-1.11.22z"/></g></g></svg>