<svg id="Capa_1" enable-background="new 0 0 607.737 607.737" height="512" viewBox="0 0 607.737 607.737" width="512" xmlns="http://www.w3.org/2000/svg"><g><g id="Page-1_20_"><g id="_x30_21---UFO" transform="translate(0 -1)"><path id="Shape_205_" d="m336.426 212.731v21.705h21.705v-21.705c0-5.994-4.859-10.852-10.852-10.852-5.994 0-10.853 4.858-10.853 10.852z"/><path id="Shape_204_" d="m249.606 212.731v21.705h21.705v-21.705c0-5.994-4.859-10.852-10.852-10.852-5.994 0-10.853 4.858-10.853 10.852z"/><path id="Shape_203_" d="m509.512 234.436c-5.516-109.56-95.955-195.561-205.654-195.561s-200.138 86-205.654 195.561h129.698v-21.705c0-17.981 14.576-32.557 32.557-32.557s32.557 14.576 32.557 32.557v21.705h21.705v-21.705c0-17.981 14.576-32.557 32.557-32.557s32.557 14.576 32.557 32.557v21.705zm-335.873-21.705c-17.981 0-32.557-14.576-32.557-32.557s14.576-32.557 32.557-32.557 32.557 14.576 32.557 32.557-14.576 32.557-32.557 32.557zm104.032-64.648c-8.721 5.106-18.631 7.831-28.737 7.901-2.95.006-5.895-.244-8.801-.749-12.595-1.859-23.675-9.31-30.148-20.272-12.459-21.575-2.377-50.811 22.486-65.115 11.302-6.683 24.581-9.216 37.549-7.163 12.595 1.865 23.676 9.314 30.159 20.272 12.458 21.532 2.355 50.768-22.508 65.126z"/><path id="Shape_202_" d="m266.33 84.021c-1.695-.292-3.413-.437-5.133-.434-6.293.076-12.456 1.801-17.874 5.003-7.04 3.9-12.495 10.138-15.421 17.635-2.593 5.763-2.257 12.422.904 17.895s8.761 9.091 15.049 9.725c7.959 1.215 16.092-.397 22.985-4.558 14.51-8.367 21.032-24.309 14.553-35.531-3.299-5.347-8.833-8.923-15.063-9.735z"/><circle id="Oval_8_" cx="173.639" cy="180.174" r="10.852"/><path id="Shape_201_" d="m303.869 570.862c16.474 0 43.92-59.406 61.609-119.377h-22.638c-7.783 25.738-17.58 50.823-29.302 75.023-1.849 3.648-5.591 5.947-9.68 5.947-4.09 0-7.832-2.299-9.68-5.947-11.714-24.2-21.504-49.286-29.28-75.023h-22.638c17.689 59.971 45.135 119.377 61.609 119.377z"/><path id="Shape_200_" d="m16.279 288.698h575.18c8.99 0 16.279-7.288 16.279-16.279 0-8.99-7.288-16.279-16.279-16.279h-575.18c-8.991.001-16.279 7.289-16.279 16.28 0 8.99 7.288 16.278 16.279 16.278z"/><path id="Shape_199_" d="m117.51 380.011c4.063 4.087 9.593 6.377 15.356 6.36h342.004c5.763.017 11.293-2.273 15.356-6.36l69.608-69.608h-511.931z"/><path id="Shape_198_" d="m320.147 451.485h-32.449c4.949 15.378 10.57 30.669 16.279 44.104 5.546-13.435 11.167-28.726 16.17-44.104z"/><path id="Shape_197_" d="m401.541 408.075h-97.672-97.672v21.705h195.354z"/></g></g></g></svg>