<svg id="Capa_1" enable-background="new 0 0 603.065 603.065" height="512" viewBox="0 0 603.065 603.065" width="512" xmlns="http://www.w3.org/2000/svg"><g><g id="Page-1_21_"><g id="_x30_22---Telescope"><path id="Shape_220_" d="m31.481 277.59h9.29.521.271c5.703-123.278 104.313-221.949 227.587-227.728v-10.039c.007-3.013-1.238-5.893-3.439-7.951-2.2-2.058-5.157-3.109-8.163-2.901-125.854 11.451-225.575 111.153-237.049 237.006-.213 3.03.854 6.011 2.941 8.218s5.004 3.438 8.041 3.395z"/><path id="Shape_219_" d="m493.59 98.73-48.467-68.989-78.138 63.042c30.145 35.682 50.211 78.768 58.126 124.803l106.506-64.724z"/><path id="Shape_218_" d="m540.461 592.213c0-5.994-4.859-10.852-10.852-10.852h-499.213c-5.994 0-10.852 4.859-10.852 10.852s4.859 10.852 10.852 10.852h499.213c5.994 0 10.852-4.858 10.852-10.852z"/><path id="Shape_217_" d="m258.298 483.688h10.852v-65.115h-65.115v141.082h65.115v-54.262h-10.852c-5.994 0-10.852-4.859-10.852-10.852-.001-5.994 4.858-10.853 10.852-10.853z"/><path id="Shape_216_" d="m431.763 277.492h65.006c-1.115-23.651-6.135-46.955-14.857-68.967l-53.014 32.221c1.541 11.948 2.507 24.222 2.865 36.746z"/><path id="Shape_215_" d="m62.954 559.656h79.233l-79.233-142.612z"/><path id="Shape_214_" d="m63.507 277.492h64.735c2.279-79.711 29.562-149.319 69.77-190.005-77.853 31.936-130.257 105.964-134.505 190.005z"/><path id="Shape_213_" d="m269.15 72.207c-64.583 8.953-115.796 96.695-119.051 205.285h119.051z"/><path id="Shape_212_" d="m504.041.331 75.262 107.114c8.304-24.447 4.203-51.405-10.994-72.277-14.484-21.372-38.456-34.366-64.268-34.837z"/><path id="Shape_211_" d="m564.955 143.649c4.885-3.449 6.059-10.2 2.626-15.096l-87.351-124.348c-3.55-4.581-10.072-5.564-14.814-2.234-4.743 3.33-6.032 9.799-2.929 14.693l46.904 66.786 40.436 57.518c1.649 2.364 4.17 3.975 7.008 4.478s5.76-.144 8.12-1.797z"/><path id="Shape_210_" d="m342.751 98.426c-.076-.087-.087-.206-.163-.304-14.185-13.731-32.242-22.777-51.734-25.916v205.285h119.051c-2.301-76.651-28.423-142.927-66.384-178.447-.238-.249-.574-.368-.77-.618z"/><path id="Shape_209_" d="m497.052 417.044-79.234 142.612h79.234z"/><path id="Shape_208_" d="m52.101 299.197c-5.994 0-10.852 4.859-10.852 10.852 0 5.994 4.859 10.852 10.852 10.852h455.803c5.994 0 10.852-4.859 10.852-10.852 0-5.994-4.859-10.852-10.852-10.852z"/><path id="Shape_207_" d="m497.052 342.607h-434.098v29.747l104.053 187.302h15.324v-141.082c0-11.987 9.718-21.705 21.705-21.705h151.934c11.987 0 21.705 9.718 21.705 21.705v141.082h15.324l104.053-187.302z"/><path id="Shape_206_" d="m301.707 505.393h-10.852v54.262h65.115v-141.081h-65.115v65.115h10.852c5.994 0 10.852 4.859 10.852 10.852.001 5.994-4.858 10.852-10.852 10.852z"/></g></g></g></svg>