<svg id="Capa_1" enable-background="new 0 0 607.737 607.737" height="512" viewBox="0 0 607.737 607.737" width="512" xmlns="http://www.w3.org/2000/svg"><g><g id="Page-1_22_"><g id="_x30_23---Rocket-CPU"><path id="Shape_246_" d="m10.852 401.541h32.558v-21.705h-32.558c-5.993 0-10.852 4.859-10.852 10.852 0 5.994 4.859 10.853 10.852 10.853z"/><path id="Shape_245_" d="m10.852 227.901h32.558v-21.705h-32.558c-5.993.001-10.852 4.859-10.852 10.853s4.859 10.852 10.852 10.852z"/><path id="Shape_244_" d="m10.852 314.721h32.558v-21.705h-32.558c-5.993 0-10.852 4.859-10.852 10.853 0 5.993 4.859 10.852 10.852 10.852z"/><path id="Shape_243_" d="m10.852 141.082h32.558v-21.705h-32.558c-5.993 0-10.852 4.859-10.852 10.852s4.859 10.853 10.852 10.853z"/><path id="Shape_242_" d="m130.229 607.737c5.994 0 10.852-4.859 10.852-10.852v-32.557h-21.705v32.557c.001 5.993 4.86 10.852 10.853 10.852z"/><path id="Shape_241_" d="m227.901 596.885v-32.557h-21.705v32.557c0 5.994 4.859 10.852 10.852 10.852s10.853-4.859 10.853-10.852z"/><path id="Shape_240_" d="m488.36 10.852c0-5.993-4.859-10.852-10.852-10.852-5.994 0-10.852 4.859-10.852 10.852v32.558h21.705v-32.558z"/><path id="Shape_239_" d="m314.721 596.885v-32.557h-21.705v32.557c0 5.994 4.859 10.852 10.852 10.852 5.994 0 10.853-4.859 10.853-10.852z"/><path id="Shape_238_" d="m607.737 130.229c0-5.994-4.859-10.852-10.852-10.852h-32.557v21.705h32.557c5.993 0 10.852-4.859 10.852-10.853z"/><path id="Shape_237_" d="m379.836 10.852v32.558h21.705v-32.558c0-5.993-4.859-10.852-10.853-10.852-5.993 0-10.852 4.859-10.852 10.852z"/><path id="Shape_236_" d="m130.229 0c-5.994 0-10.852 4.859-10.852 10.852v32.558h21.705v-32.558c0-5.993-4.859-10.852-10.853-10.852z"/><path id="Shape_235_" d="m10.852 488.36h32.558v-21.705h-32.558c-5.993 0-10.852 4.859-10.852 10.853 0 5.993 4.859 10.852 10.852 10.852z"/><path id="Shape_234_" d="m293.016 10.852v32.558h21.705v-32.558c0-5.993-4.859-10.852-10.852-10.852-5.994 0-10.853 4.859-10.853 10.852z"/><path id="Shape_233_" d="m206.197 10.852v32.558h21.705v-32.558c-.001-5.993-4.859-10.852-10.853-10.852s-10.852 4.859-10.852 10.852z"/><path id="Shape_232_" d="m218.134 313.516c-29.044 38.465-48.064 83.55-55.348 131.195 20.549-13.798 43.688-23.276 68.012-27.858-6.135-34.184-10.363-68.683-12.664-103.337z"/><path id="Shape_231_" d="m607.737 477.508c0-5.994-4.859-10.852-10.852-10.852h-32.557v21.705h32.557c5.993-.001 10.852-4.86 10.852-10.853z"/><path id="Shape_230_" d="m86.82 542.622h434.098c11.987 0 21.705-9.718 21.705-21.705v-434.097c0-11.987-9.718-21.705-21.705-21.705h-434.098c-11.987 0-21.705 9.718-21.705 21.705v434.098c0 11.987 9.717 21.704 21.705 21.704zm130.153-262.965c-.074-14.106.698-28.203 2.312-42.216 7.697-50.04 27.824-97.35 58.538-137.598 6.141-8.208 15.795-13.035 26.046-13.023 10.159-.04 19.738 4.729 25.829 12.86 18.46 24.624 33.382 51.71 44.332 80.471l.087.206c6.963 18.395 11.728 37.549 14.195 57.062 1.608 13.974 2.38 28.031 2.312 42.097 21.705 25.796 66.927 87.482 75.837 162.602.793 6.191-1.108 12.425-5.223 17.118-4.114 4.693-10.045 7.395-16.287 7.419-4.393-.007-8.68-1.346-12.296-3.842-18.029-12.273-38.409-20.669-59.851-24.657-.152.781-.326 1.682-.478 2.431-2.662 13.093-13.054 23.231-26.209 25.568-4.92 23.839-16.98 45.615-34.576 62.434-4.238 4.237-11.107 4.237-15.345 0-17.593-16.818-29.656-38.589-34.587-62.423-13.189-2.309-23.629-12.442-26.328-25.558l-.467-2.398c-21.411 4.007-41.762 12.398-59.775 24.646-7.072 4.839-16.329 5.064-23.628.575s-11.274-12.852-10.145-21.347c8.921-75.087 54.078-136.674 75.707-162.427z"/><path id="Shape_229_" d="m607.737 390.688c0-5.994-4.859-10.852-10.852-10.852h-32.557v21.705h32.557c5.993 0 10.852-4.859 10.852-10.853z"/><path id="Shape_228_" d="m607.737 303.869c0-5.994-4.859-10.852-10.852-10.852h-32.557v21.705h32.557c5.993-.001 10.852-4.86 10.852-10.853z"/><path id="Shape_227_" d="m607.737 217.049c0-5.994-4.859-10.852-10.852-10.852h-32.557v21.705h32.557c5.993-.001 10.852-4.859 10.852-10.853z"/><path id="Shape_226_" d="m401.541 596.885v-32.557h-21.705v32.557c0 5.994 4.859 10.852 10.852 10.852 5.994 0 10.853-4.859 10.853-10.852z"/><path id="Shape_225_" d="m389.527 313.408c-2.321 34.681-6.575 69.206-12.741 103.413 24.376 4.539 47.545 14.084 68.045 28.032-7.213-47.734-26.222-92.913-55.304-131.445z"/><path id="Shape_224_" d="m312.409 112.757c-1.997-2.707-5.178-4.283-8.541-4.232-3.477-.007-6.751 1.636-8.823 4.428-14.051 18.827-25.924 39.186-35.39 60.687h88.296c-9.506-21.574-21.43-41.998-35.542-60.883z"/><path id="Shape_223_" d="m303.869 504.834c9.455-11.05 16.272-24.105 19.936-38.179h-39.915c3.674 14.078 10.507 27.135 19.979 38.179z"/><path id="Shape_222_" d="m488.36 596.885v-32.557h-21.705v32.557c0 5.994 4.859 10.852 10.852 10.852 5.994 0 10.853-4.859 10.853-10.852z"/><path id="Shape_221_" d="m267.176 444.95h73.254c5.146-.014 9.574-3.64 10.603-8.682 7.423-36.985 23.875-130.143 15.736-196.234-1.918-15.214-5.398-30.19-10.386-44.69h-105.16c-4.99 14.512-8.474 29.498-10.397 44.723-8.074 66.113 8.313 159.26 15.736 196.245 1.049 5.028 5.478 8.633 10.614 8.638zm36.693-227.901c29.968 0 54.262 24.294 54.262 54.262s-24.294 54.262-54.262 54.262-54.262-24.294-54.262-54.262c.035-29.953 24.308-54.226 54.262-54.262z"/><circle id="Oval_9_" cx="303.858" cy="271.311" r="32.557"/></g></g></g></svg>