<svg id="Capa_1" enable-background="new 0 0 607.737 607.737" height="512" viewBox="0 0 607.737 607.737" width="512" xmlns="http://www.w3.org/2000/svg"><g><g id="Page-1_23_"><g id="_x30_24---Satellite-CPU"><path id="Shape_272_" d="m227.901 596.885v-32.557h-21.705v32.557c0 5.994 4.859 10.852 10.852 10.852s10.853-4.859 10.853-10.852z"/><path id="Rectangle-path_44_" d="m141.785 103.417h32.557v32.557h-32.557z" transform="matrix(.707 -.707 .707 .707 -38.342 146.826)"/><path id="Shape_271_" d="m141.082 596.885v-32.557h-21.705v32.557c0 5.994 4.859 10.852 10.852 10.852s10.853-4.859 10.853-10.852z"/><path id="Shape_270_" d="m10.852 141.082h32.558v-21.705h-32.558c-5.993 0-10.852 4.859-10.852 10.852s4.859 10.853 10.852 10.853z"/><path id="Shape_269_" d="m488.36 596.885v-32.557h-21.705v32.557c0 5.994 4.859 10.852 10.852 10.852 5.994 0 10.853-4.859 10.853-10.852z"/><path id="Shape_268_" d="m465.017 158.066c3.104-3.104 4.034-7.772 2.354-11.827-1.68-4.056-5.637-6.7-10.027-6.7s-8.347 2.644-10.027 6.7-.75 8.724 2.354 11.827c4.29 4.109 11.056 4.109 15.346 0z"/><path id="Shape_267_" d="m401.541 596.885v-32.557h-21.705v32.557c0 5.994 4.859 10.852 10.852 10.852 5.994 0 10.853-4.859 10.853-10.852z"/><path id="Rectangle-path_43_" d="m180.151 141.791h32.557v32.557h-32.557z" transform="matrix(.707 -.707 .707 .707 -54.239 185.195)"/><path id="Shape_266_" d="m10.852 227.901h32.558v-21.705h-32.558c-5.993.001-10.852 4.859-10.852 10.853s4.859 10.852 10.852 10.852z"/><path id="Shape_265_" d="m314.721 596.885v-32.557h-21.705v32.557c0 5.994 4.859 10.852 10.852 10.852 5.994 0 10.853-4.859 10.853-10.852z"/><path id="Shape_264_" d="m477.508 0c-5.994 0-10.852 4.859-10.852 10.852v32.558h21.705v-32.558c-.001-5.993-4.86-10.852-10.853-10.852z"/><path id="Shape_263_" d="m314.721 10.852c0-5.993-4.859-10.852-10.852-10.852-5.994 0-10.852 4.859-10.852 10.852v32.558h21.705v-32.558z"/><path id="Shape_262_" d="m390.688 0c-5.994 0-10.852 4.859-10.852 10.852v32.558h21.705v-32.558c0-5.993-4.859-10.852-10.853-10.852z"/><path id="Shape_261_" d="m596.885 119.377h-32.557v21.705h32.557c5.994 0 10.852-4.859 10.852-10.852s-4.859-10.853-10.852-10.853z"/><path id="Shape_260_" d="m10.852 314.721h32.558v-21.705h-32.558c-5.993 0-10.852 4.859-10.852 10.853 0 5.993 4.859 10.852 10.852 10.852z"/><path id="Shape_259_" d="m10.852 488.36h32.558v-21.705h-32.558c-5.993 0-10.852 4.859-10.852 10.853 0 5.993 4.859 10.852 10.852 10.852z"/><path id="Shape_258_" d="m217.049 0c-5.994 0-10.852 4.859-10.852 10.852v32.558h21.705v-32.558c-.001-5.993-4.859-10.852-10.853-10.852z"/><path id="Shape_257_" d="m10.852 401.541h32.558v-21.705h-32.558c-5.993 0-10.852 4.859-10.852 10.852 0 5.994 4.859 10.853 10.852 10.853z"/><path id="Shape_256_" d="m130.229 0c-5.994 0-10.852 4.859-10.852 10.852v32.558h21.705v-32.558c0-5.993-4.859-10.852-10.853-10.852z"/><path id="Shape_255_" d="m469.596 259.374c.602-.457.971-1.156 1.009-1.91.074-.977-.279-1.939-.966-2.637l-58.332-58.397-58.321-58.321c-.627-.634-1.486-.983-2.377-.966h-.26c-.754.038-1.453.408-1.91 1.009-24.889 34.536-21.065 82.024 9.028 112.133 30.094 30.11 77.58 33.959 112.129 9.089z"/><path id="Shape_254_" d="m596.885 466.655h-32.557v21.705h32.557c5.994 0 10.852-4.859 10.852-10.852 0-5.994-4.859-10.853-10.852-10.853z"/><path id="Shape_253_" d="m86.82 65.115c-11.987 0-21.705 9.718-21.705 21.705v434.098c0 11.987 9.718 21.705 21.705 21.705h434.098c11.987 0 21.705-9.718 21.705-21.705v-434.098c0-11.987-9.718-21.705-21.705-21.705zm25.199 46.904 30.68-30.68c8.476-8.473 22.215-8.473 30.691 0l30.68 30.68 38.342 38.342 30.68 30.691c8.473 8.476 8.473 22.215 0 30.691l-22.942 23.061 15.345 15.345 45.971-45.982c-4.023-27.745 2.909-55.967 19.328-78.691 4.166-5.777 10.665-9.425 17.765-9.973 7.327-.609 14.549 2.044 19.741 7.249l50.67 50.659 9.062-9.062c-6.045-12.401-3.518-27.276 6.284-36.985 12.886-12.297 33.161-12.297 46.047 0 12.71 12.714 12.71 33.322 0 46.036-9.704 9.803-24.577 12.331-36.974 6.284l-9.062 9.062 50.659 50.67c5.206 5.191 7.858 12.414 7.249 19.741-.551 7.103-4.199 13.604-9.973 17.776-18.436 13.33-40.606 20.508-63.357 20.511-5.122-.024-10.236-.416-15.302-1.172l-46.014 46.025 15.345 15.345 23.018-23.018c8.588-8.209 22.114-8.209 30.702 0l30.68 30.68 38.342 38.342 30.68 30.68c8.473 8.476 8.473 22.215 0 30.691l-30.68 30.68-30.68 30.68c-8.476 8.473-22.215 8.473-30.691 0l-30.68-30.68-38.342-38.342-30.68-30.691c-8.473-8.476-8.473-22.215 0-30.691l23.018-23.018-15.378-15.367-76.749 76.738-15.345 15.345c-12.714 12.71-33.322 12.71-46.036 0l-15.356-15.356-18.297 18.297c-4.258 4.113-11.027 4.054-15.213-.132s-4.245-10.955-.132-15.213l18.297-18.297-15.345-15.356c-12.71-12.714-12.71-33.322 0-46.036l15.356-15.345 76.738-76.749-15.356-15.335-23.018 23.018c-8.476 8.473-22.215 8.473-30.691 0l-30.691-30.68-38.342-38.342-30.734-30.734c-8.473-8.476-8.473-22.215 0-30.691l30.68-30.68z"/><path id="Rectangle-path_42_" d="m471.759 433.387h32.557v32.557h-32.557z" transform="matrix(.707 -.707 .707 .707 -175.014 476.914)"/><path id="Rectangle-path_41_" d="m103.422 141.783h32.557v32.557h-32.557z" transform="matrix(.707 -.707 .707 .707 -76.707 130.936)"/><path id="Rectangle-path_40_" d="m395.026 433.389h32.557v32.557h-32.557z" transform="matrix(.707 -.707 .707 .707 -197.494 422.541)"/><path id="Shape_252_" d="m596.885 206.197h-32.557v21.705h32.557c5.994 0 10.852-4.859 10.852-10.852s-4.859-10.853-10.852-10.853z"/><path id="Shape_251_" d="m596.885 379.836h-32.557v21.705h32.557c5.994 0 10.852-4.859 10.852-10.852 0-5.994-4.859-10.853-10.852-10.853z"/><path id="Shape_250_" d="m596.885 293.016h-32.557v21.705h32.557c5.994 0 10.852-4.859 10.852-10.852 0-5.994-4.859-10.853-10.852-10.853z"/><path id="Rectangle-path_39_" d="m433.396 471.761h32.557v32.568h-32.557z" transform="matrix(.707 -.707 .707 .707 -213.393 460.913)"/><path id="Shape_249_" d="m173.411 372.934c-4.237 4.238-4.237 11.108 0 15.345l46.047 46.047c4.238 4.237 11.107 4.237 15.345 0l7.673-7.684-61.381-61.381z"/><path id="Rectangle-path_38_" d="m218.527 180.165h32.557v32.557h-32.557z" transform="matrix(.707 -.707 .707 .707 -70.128 223.639)"/><path id="Shape_248_" d="m173.411 234.804 23.029 23.018v.01h.011l23.018-23.018-23.029-23.028z"/><path id="Rectangle-path_37_" d="m141.788 180.157h32.557v32.557h-32.557z" transform="matrix(.707 -.707 .707 .707 -92.605 169.305)"/><path id="Rectangle-path_36_" d="m395.019 356.659h32.557v32.557h-32.557z" transform="matrix(.707 -.707 .707 .707 -143.24 400.062)"/><path id="Rectangle-path_35_" d="m356.656 395.025h32.557v32.557h-32.557z" transform="matrix(.707 -.707 .707 .707 -181.606 384.173)"/><path id="Rectangle-path_34_" d="m433.393 395.015h32.557v32.557h-32.557z" transform="matrix(.707 -.707 .707 .707 -159.123 438.431)"/><path id="Shape_247_" d="m257.822 411.308 121.482-121.471c-28.064-11.109-50.268-33.352-61.327-61.436l-121.548 121.515z"/></g></g></g></svg>