<svg height="512" viewBox="0 0 56 56" width="512" xmlns="http://www.w3.org/2000/svg"><g id="Page-1" fill="none" fill-rule="evenodd"><g id="025---Crew-Landing" fill="rgb(0,0,0)"><path id="Path" d="m41.85 16h-3.966l2.153 2.153z"/><path id="Path" d="m32.324.637c2.1 2.823 3.5 7.675 3.653 13.363h6.99c-.4264246-6.23307485-4.6633446-11.55281187-10.643-13.363z"/><path id="Path" d="m48.121 7.721c-1.7639455-.928492-3.6972797-1.49107728-5.684-1.654.5983947.96524225 1.09856 1.98801834 1.493 3.053 1.3214822-.66778272 2.7333673-1.13908486 4.191-1.399z"/><path id="Path" d="m28 0c-2.729 0-5.759 5.7-5.986 14h11.972c-.227-8.3-3.257-14-5.986-14z"/><path id="Path" d="m18.116 16h-3.966l1.813 2.153z"/><ellipse id="Oval" cx="28.037" cy="44" rx="2" ry="1"/><path id="Shape" d="m22.97 39-.86 12h11.85l-.85-12zm5.07 8c-2.25 0-4-1.32-4-3s1.75-3 4-3 4 1.32 4 3-1.76 3-4 3z" fill-rule="nonzero"/><path id="Path" d="m23.676.637c-5.9796554 1.81018813-10.2165754 7.12992515-10.643 13.363h6.99c.149-5.688 1.552-10.54 3.653-13.363z"/><path id="Path" d="m28.037 56c6.9 0 11.786-1.546 13.409-3h-26.817c1.622 1.454 6.504 3 13.408 3z"/><path id="Path" d="m35.314 41.835.654 9.165h5.238z"/><path id="Path" d="m14.869 51h5.237l.655-9.165z"/><path id="Path" d="m12.07 9.12c.3941571-1.06559687.8946854-2.08876504 1.494-3.054-1.9867911.16323367-3.92012903.72616017-5.684 1.655 1.45719082.26039679 2.8686774.73167835 4.19 1.399z"/><path id="Path" d="m47.51 25.63 3.2 3.2-19.89 3.83 12.05-11.67 3.23 3.23c3.8-4.04 6.31-8.66 6.31-11.72.0590256-.7939104-.2082115-1.5775654-.74-2.17-1.19-1.21-3.9-.91-7.15.72.118316.4849098.2117713.9755498.28 1.47.1273996.7904151.1942607 1.5894041.2 2.39.0462788.2662353-.0394646.5383773-.23.73l-3.31 3.93-12.46 12.07v-15.64h-2v15.64l-12.46-12.07-3.31-3.93c-.1460072-.2157978-.2259347-.4694808-.23-.73.0057393-.8005959.0726004-1.5995849.2-2.39.0682287-.4944502.161684-.9850902.28-1.47-3.25-1.63-5.96-1.93-7.15-.72-2.6 2.552 1.737 9.8 5.57 13.89l3.23-3.23 12.05 11.67-19.89-3.83 3.2-3.2c-3.77-3.97-6.25-8.29-6.78-11.77-2.82685087 5.3396039-2.102338 11.8645819 1.827 16.454.1497504.1731433.35392649.2902184.579.332l20.684 3.974 1.95.38h-2.71c-.5522847 0-1 .4477153-1 1v1h10v-1c0-.5522847-.4477153-1-1-1h-2.79l1.95-.38 20.69-3.98c.2263154-.0442294.4308528-.1641307.58-.34 3.9246058-4.586521 4.6463607-11.1061092 1.82-16.44-.53 3.48-3.01 7.8-6.78 11.77z"/></g></g></svg>