<svg id="Capa_1" enable-background="new 0 0 607.741 607.741" height="512" viewBox="0 0 607.741 607.741" width="512" xmlns="http://www.w3.org/2000/svg"><g><g id="Page-1_25_"><g id="_x30_26---Telescope"><path id="Shape_294_" d="m19.987 331.003c-1.796.002-3.564.449-5.144 1.302l-9.04 4.884c-5.261 2.866-7.204 9.453-4.341 14.716l25.265 46.85c2.866 5.254 9.445 7.197 14.705 4.341l9.04-4.884c5.262-2.846 7.228-9.414 4.395-14.683l-25.34-46.883c-1.908-3.485-5.567-5.65-9.54-5.643z"/><path id="Rectangle-path_46_" d="m59.377 326.228h31.96v31.982h-31.96z" transform="matrix(.88 -.476 .476 .88 -153.703 77.032)"/><path id="Shape_293_" d="m217.881 139.273-6.631 3.57c-2.541 1.376-4.428 3.71-5.243 6.482-.815 2.773-.49 5.756.902 8.288l4.992 9.116 48.152 89.185c7.257-6.685 15.941-11.629 25.395-14.455l-52.884-97.791c-2.846-5.261-9.414-7.227-14.683-4.395z"/><path id="Shape_292_" d="m100.251 286.183c-2.531 1.348-4.409 3.661-5.209 6.414-.82 2.721-.539 5.655.781 8.172l25.362 46.937c1.364 2.541 3.684 4.435 6.446 5.263 2.733.809 5.677.489 8.172-.89l39.308-21.227-35.618-65.864z"/><path id="Shape_291_" d="m148.545 213.254c-5.222 2.903-7.154 9.456-4.341 14.727l9.159 16.93c0 .076.119.119.163.195.043.076 0 .163.065.239l45.797 84.649v.065l10.939 20.229c1.351 2.535 3.657 4.427 6.407 5.256s5.717.527 8.244-.839l21.835-11.775 2.171-4.222c-12.326-19.181-13.618-43.442-3.397-63.823l-47.751-88.35z"/><path id="Shape_290_" d="m347.307 303.872c0-23.975-19.435-43.41-43.41-43.41s-43.41 19.435-43.41 43.41 19.435 43.41 43.41 43.41 43.41-19.435 43.41-43.41zm-43.409 10.852c-5.994 0-10.852-4.859-10.852-10.852 0-5.994 4.859-10.852 10.852-10.852 5.994 0 10.852 4.859 10.852 10.852 0 5.994-4.859 10.852-10.852 10.852z"/><path id="Rectangle-path_45_" d="m432.902 20.95 27.934-15.1c5.273-2.85 11.857-.886 14.707 4.386l96.787 179.054c2.85 5.273.886 11.857-4.386 14.707l-27.934 15.1c-5.273 2.85-11.857.886-14.707-4.386l-96.787-179.053c-2.85-5.273-.886-11.858 4.386-14.708z"/><path id="Shape_289_" d="m255.875 141.02 10.321 19.089 129.947-70.237c3.412-1.844 7.548-1.727 10.851.306s5.27 5.674 5.16 9.55c-.109 3.877-2.279 7.4-5.691 9.244l-129.957 70.238 32.308 59.797c27.977 2.143 51.434 21.967 58.213 49.194l134.115-72.505-86.7-160.345z"/><path id="Shape_288_" d="m590.055 64.033c-23.875-44.256-64.171-70.031-94.72-62.836l95.404 176.504c10.072-10.656 15.97-24.583 16.615-39.232 1.577-25.964-4.433-51.828-17.299-74.436z"/><path id="Shape_287_" d="m146.982 606.579c5.38 2.479 11.763.423 14.683-4.732l122.318-235.997c-6.956-2.26-13.479-5.68-19.296-10.114l-122.416 236.16c-2.694 5.36-.599 11.891 4.711 14.683z"/><path id="Shape_286_" d="m460.824 606.569c5.319-2.809 7.397-9.367 4.667-14.727l-122.384-236.106c-5.816 4.434-12.34 7.854-19.296 10.114l122.329 236.03c2.939 5.134 9.314 7.17 14.684 4.689z"/><path id="Shape_285_" d="m293.045 395.521v201.367c0 5.994 4.859 10.852 10.852 10.852 5.994 0 10.852-4.859 10.852-10.852v-201.367l-10.852-20.934z"/></g></g></g></svg>