<svg height="512" viewBox="0 0 58 48" width="512" xmlns="http://www.w3.org/2000/svg"><g id="Page-1" fill="none" fill-rule="evenodd"><g id="027---Lunar-Orbit-Satellite" fill="rgb(0,0,0)" transform="translate(-1 -1)"><path id="Path" d="m25.071 29.444c1.7134525-1.7034127 1.9965149-4.3753882.678-6.4l-7.024 7.085c2.0112937 1.3005265 4.6585649 1.0147748 6.346-.685z"/><path id="Path" d="m10.818 12.576c-.6667435.6927904-.6876587 1.7821267-.048 2.5.85071.4476086 1.9026599.1632507 2.412-.652.6667435-.6927904.6876587-1.7821267.048-2.5-.713-.56-1.822-.102-2.412.652z"/><path id="Path" d="m17.293 21.666c-.2860606.2859742-.3716717.7161158-.2169084 1.0898272.1547633.3737115.5194187.6173863.9239084.6173863s.7691451-.2436748.9239084-.6173863c.1547633-.3737114.0691522-.803853-.2169084-1.0898272-.3904999-.3903819-1.0235001-.3903819-1.414 0z"/><circle id="Oval" cx="24" cy="11" r="4"/><path id="Path" d="m37.331 10c-.2666377-.00539129-.5283652.0721835-.749.222-.3651202.2913954-.5781251.7328562-.579 1.2-.0128056.6786048.1953176 1.3429844.593 1.893.789 1.13 2.113 1.625 2.893 1.081.3653318-.2911265.578099-.7328577.578-1.2.0136771-.6784196-.1937656-1.3428681-.591-1.893-.4726731-.7450775-1.2659232-1.2269446-2.145-1.303z"/><path id="Path" d="m7.705 25.018c-1.356 0-1.869 2.248-1.69 3.722.165 1.369 1.115 3.394 2.405 3.235.939-.114 1.813-1.667 1.565-3.715-.16-1.325-1.04-3.242-2.28-3.242z"/><path id="Rectangle" d="m19.122 40.879h2v4h-2z" transform="matrix(.707 -.707 .707 .707 -24.425 26.783)"/><path id="Rectangle" d="m31.849 28.151h2v4.001h-2z" transform="matrix(.707 -.707 .707 .707 -11.699 32.057)"/><path id="Rectangle" d="m21.95 38.05h2v4h-2z" transform="matrix(.707 -.707 .707 .707 -21.599 27.962)"/><path id="Path" d="m32.14 40.93c-.7959324.0020708-1.5595038-.3148834-2.12-.88l-.71-.71-3.68 3.68c.559-.046.789.03 2.4.03 2.1623554-.0059997 4.3225807-.1362143 6.47-.39-.491513-.7318559-.6308458-1.6448524-.38-2.49-.5443219.4878107-1.2490808.7583242-1.98.76z"/><path id="Rectangle" d="m34.677 25.322h2v4h-2z" transform="matrix(.707 -.707 .707 .707 -8.87 33.23)"/><path id="Rectangle" d="m37.506 22.494h2v4.001h-2z" transform="matrix(.707 -.707 .707 .707 -6.041 34.406)"/><path id="Path" d="m25.778 32.979 4.243 4.243 1.414 1.413c.1875683.187777.4420908.2932867.7075.2932867s.5199317-.1055097.7075-.2932867l1.414-1.414c.3903819-.3904999.3903819-1.0235001 0-1.414l-1.414-1.413-4.244-4.243-.924-.924c-.6335534 1.2076341-1.6139225 2.1981029-2.815 2.844l.912.911z"/><path id="Rectangle" d="m24.778 35.222h2v4h-2z" transform="matrix(.707 -.707 .707 .707 -18.769 29.13)"/><path id="Shape" d="m50.43 20c-.6788659-.1810678-1.3663989-.3279195-2.06-.44-.05-.22-.1-.44-.16-.66-3.1666969-12.04998275-15.0274707-19.67296994-27.3041486-17.54853256-12.27667788 2.12443739-20.88620196 13.28974006-19.81959434 25.70313616 1.06660763 12.413396 11.45460764 21.946357 23.91374294 21.9453964.23 0 .46 0 .68-.02-1.5798943-.1715767-2.7537442-1.5425283-2.68-3.13.0016993-.0737004.0083812-.1472014.02-.22l-.78.78c-.372912.3762385-.8802674.5885361-1.41.59-.5326928-.0013372-1.0432049-.2134514-1.42-.59l-2.82-2.82c-.3755541-.3751365-.5865733-.8841815-.5865733-1.415s.2110192-1.0398635.5865733-1.415l2.12-2.12 2.83-2.83 2.12-2.12-.87-.87c-1.8122625.3534001-3.6908112-.0201545-5.23-1.04-.4803188-.3219614-.7891296-.8439987-.84-1.42-.0587979-.6074303.1577077-1.2092424.59-1.64l2.81-2.81-.84-.84c-1.1402605.5570729-2.5089126.3235969-3.4-.58-1.0831989-1.0768804-1.1843685-2.795692-.2349823-3.9922107s2.646199-1.4887085 3.941115-.6786567c1.2949161.8100517 1.7744819 2.4637038 1.1138673 3.8408674l.84.83 2.81-2.81c.3908946-.3872525.9197697-.6031199 1.47-.6.6390219.0083457 1.2332614.3297583 1.59.86 1.0156549 1.5296788 1.3825229 3.3999863 1.02 5.2l.88.89 7.07-7.07c.710103-.7079324 1.8346672-.7806229 2.63-.17.071123.0512048.1380059.1080553.2.17l1.3 1.3 1.53 1.53c.4671221.461092.6701827 1.1266795.54 1.77-.063922.3984663-.2530575.7662299-.54 1.05l-5.79 5.8c1.82-.13 3.42-.39 3.42-.39 2.54-.3 6.77-1.31 8.97-2.91.1378344-.7609126.2346409-1.5286883.29-2.3.05-.59.07-1.2.07-1.81v-.14c.7817571.1364793 1.5094221.4899166 2.1 1.02 1.12 1.04 1.15 2.12.1 3.52-2.7 3.6-11.23 4.6-11.31 4.61-.3783199.0084093-.7194871.2296469-.881496.5716261-.162009.3419791-.1171051.7461138.116021 1.044189.2331261.2980753.6145365.4390265.985475.3641849.39-.04 9.47-1.09 12.69-5.39 1.65-2.2 1.53-4.45-.34-6.18-.9894812-.8995457-2.2400875-1.4600416-3.57-1.6-.03-.39-.07-.78-.13-1.16.38.08.77.17 1.15.27 3.39.91 5.93 2.87 6.8 5.24.74 2.03.1 4.09-1.88 6.13-5.32 5.45-17.8 6.69-17.92 6.7-.5522847.0248528-.9798527.4927153-.9549999 1.045s.4927152.9798528 1.0449999.955h.09c.55-.06 13.34-1.33 19.17-7.3 3.2-3.28 3.03-6.28 2.32-8.21-1.09-2.99-4.13-5.42-8.15-6.49zm-41.77 13.96c-2.611.218-4.313-2.389-4.63-4.98-.37-3.06 1.08-5.67 3.31-5.94 2.537-.294 4.314 2.392 4.63 4.98.338 2.702-.85 5.645-3.31 5.94zm6.1-18.31c-.559395.8250866-1.4237611 1.394038-2.4027983 1.581593-.9790372.1875551-1.9924779-.0216632-2.8172017-.581593-1.54406749-1.3818343-1.67827029-3.7527504-.3-5.3.55956895-.8248703 1.423919-1.39364625 2.4028763-1.58118596.9789572-.1875397 1.9923182.02152145 2.8171237.58118596 1.5440675 1.3818343 1.6782703 3.7527504.3 5.3zm9.24 1.35c-3.3137085 0-6-2.6862915-6-6s2.6862915-6 6-6 6 2.6862915 6 6-2.6862915 6-6 6zm16.63-.97c-.5506904.3849791-1.2081311.5878066-1.88.58-1.5376118-.0671288-2.9485987-.8712797-3.79-2.16-.6589576-.9109493-.9934512-2.0165385-.95-3.14.027606-1.0824962.5558375-2.0909382 1.43-2.73 1.7-1.18 4.24-.48 5.68 1.58.6489522.9158762.9823926 2.0179844.95 3.14-.0356578 1.0827539-.5665176 2.0891756-1.44 2.73z" fill-rule="nonzero"/><path id="Path" d="m25.95 47c.651.032 1.339.048 2.059.048 9.514 0 24.5-2.843 30.343-8.7.3901891-.3910176.3895176-1.0243108-.0015-1.4145-.3910176-.3901891-1.0243108-.3895176-1.4145.0015-5.657 5.671-21.801 8.517-30.886 8.065-.2660539-.0166292-.5275549.0748475-.7252284.2536949-.1976735.1788475-.3147788.4299193-.3247716.6963051-.0135975.2653014.0789255.5251106.2571534.7220993.1782279.1969888.427512.3149664.6928466.3279007z"/></g></g></svg>