<svg id="Capa_1" enable-background="new 0 0 607.737 607.737" height="512" viewBox="0 0 607.737 607.737" width="512" xmlns="http://www.w3.org/2000/svg"><g><g id="Page-1_27_"><g id="_x30_28---Star-Watching"><path id="Shape_316_" d="m217.049 233.328c16.04.004 31.508 5.96 43.41 16.713v-27.565c0-17.981-14.576-32.557-32.557-32.557s-32.557 14.576-32.557 32.557v14.966c4.664-1.905 9.569-3.158 14.575-3.722 2.367-.263 4.747-.394 7.129-.392z"/><path id="Shape_315_" d="m341.027 418.677-15.367-118.846c-.056-.461-.085-.925-.087-1.389 0-11.987-9.718-21.705-21.705-21.705s-21.705 9.718-21.705 21.705c-.002.464-.031.928-.087 1.389l-15.366 118.846c22.312-15.614 52.005-15.614 74.317 0z"/><path id="Shape_314_" d="m82.479 478.517-7.521 43.822 39.351-20.685c3.16-1.66 6.933-1.66 10.093 0l39.362 20.685-7.488-43.822c-.602-3.521.567-7.112 3.126-9.604l31.83-31.027-43.985-6.392c-3.535-.513-6.591-2.733-8.172-5.936l-19.697-39.85v-.076l-19.632 39.937c-1.581 3.203-4.637 5.423-8.172 5.936l-43.985 6.403 31.83 31.016c2.531 2.502 3.675 6.087 3.06 9.593z"/><path id="Shape_313_" d="m0 461.229c0 65.93 53.447 119.377 119.377 119.377s119.377-53.447 119.377-119.377-53.447-119.377-119.377-119.377c-65.898.078-119.299 53.479-119.377 119.377zm82.761-50.399 17.158-34.728c3.659-7.403 11.201-12.089 19.458-12.089s15.8 4.686 19.458 12.089l17.158 34.728 38.331 5.578c8.182 1.181 14.982 6.907 17.54 14.768 2.557 7.861.427 16.492-5.494 22.261l-27.76 27.033 6.511 38.201c1.389 8.136-1.957 16.357-8.633 21.21-6.677 4.853-15.528 5.499-22.839 1.667l-34.272-18.026-34.294 18.015c-7.313 3.834-16.167 3.187-22.845-1.669s-10.022-13.081-8.627-21.219l6.511-38.19-27.739-27.023c-5.921-5.769-8.051-14.4-5.494-22.261s9.358-13.587 17.54-14.768z"/><path id="Shape_312_" d="m347.278 222.475v27.565c13.748-12.396 32.141-18.32 50.54-16.279 5.004.551 9.909 1.789 14.575 3.679v-14.966c0-17.981-14.576-32.557-32.557-32.557-17.981.001-32.558 14.577-32.558 32.558z"/><path id="Shape_311_" d="m488.36 320.147c2.67 0 5.274.25 7.911.402l-81.979-57.431c-5.518-4.152-11.994-6.843-18.829-7.825-12.156-1.347-24.316 2.497-33.49 10.586s-14.509 19.672-14.695 31.901l13.424 103.76c23.16-49.598 72.919-81.324 127.658-81.393z"/><path id="Shape_310_" d="m247.034 401.541 13.424-103.76c-.186-12.229-5.521-23.813-14.695-31.901-9.174-8.089-21.334-11.933-33.49-10.586-6.835.982-13.311 3.673-18.829 7.825l-81.979 57.431c2.637-.152 5.242-.402 7.911-.402 54.74.068 104.499 31.794 127.658 81.393z"/><path id="Shape_309_" d="m508.036 425.557-19.675-39.85v-.076l-19.632 39.937c-1.581 3.203-4.637 5.423-8.172 5.936l-43.985 6.403 31.83 31.016c2.559 2.492 3.728 6.084 3.125 9.604l-7.521 43.822 39.351-20.685c3.16-1.66 6.933-1.66 10.093 0l39.362 20.685-7.553-43.833c-.602-3.521.567-7.112 3.125-9.604l31.83-31.027-43.985-6.392c-3.543-.506-6.608-2.727-8.193-5.936z"/><path id="Shape_308_" d="m347.278 472.082c0-23.975-19.435-43.41-43.41-43.41s-43.41 19.435-43.41 43.41 19.435 43.41 43.41 43.41c23.975-.001 43.41-19.436 43.41-43.41zm-43.409 10.852c-5.994 0-10.852-4.859-10.852-10.852 0-5.994 4.859-10.852 10.852-10.852 5.994 0 10.852 4.859 10.852 10.852s-4.859 10.852-10.852 10.852z"/><path id="Shape_307_" d="m488.36 341.852c-65.93 0-119.377 53.447-119.377 119.377s53.447 119.377 119.377 119.377 119.377-53.447 119.377-119.377c-.078-65.898-53.479-119.299-119.377-119.377zm59.233 138.618 6.511 38.201c1.389 8.136-1.957 16.357-8.633 21.21-6.677 4.853-15.528 5.499-22.839 1.667l-34.272-18.026-34.294 18.015c-7.312 3.834-16.167 3.187-22.845-1.669s-10.022-13.081-8.627-21.219l6.511-38.19-27.761-27.033c-5.921-5.769-8.051-14.4-5.494-22.261s9.358-13.587 17.54-14.768l38.331-5.578 17.158-34.728c3.658-7.403 11.201-12.089 19.458-12.089 8.258 0 15.8 4.686 19.458 12.089l17.158 34.728 38.331 5.578c8.182 1.181 14.982 6.907 17.54 14.768 2.557 7.861.427 16.492-5.494 22.261z"/><path id="Shape_306_" d="m195.344 103.098c-41.936.048-75.919 34.031-75.967 75.967v109.501l21.705-15.193v-94.308c0-29.968 24.294-54.262 54.262-54.262 11.517.014 22.567-4.554 30.711-12.699 8.144-8.144 12.713-19.194 12.699-30.711.015-4.796 1.618-9.451 4.558-13.24-3.02-5.99-4.582-12.609-4.558-19.317 0-1.741.109-3.481.326-5.209-13.598 7.713-22.01 22.133-22.03 37.767-.09 11.95-9.756 21.616-21.706 21.704z"/><path id="Shape_305_" d="m368.983 81.502c-.113 11.43 4.386 22.424 12.48 30.495 8.183 8.232 19.322 12.844 30.929 12.806 29.968 0 54.262 24.294 54.262 54.262v94.308l21.705 15.193v-109.501c-.048-41.936-34.031-75.919-75.967-75.967-5.82.019-11.406-2.286-15.519-6.403-3.967-4.018-6.189-9.439-6.186-15.085.086-11.595-4.489-22.739-12.697-30.929-2.79-2.748-5.928-5.12-9.333-7.054 1.052 8.461-.46 17.043-4.341 24.635 3.031 3.746 4.679 8.421 4.667 13.24z"/><path id="Shape_304_" d="m325.573 27.131h-43.41c-11.987 0-21.705 9.718-21.705 21.705s9.718 21.705 21.705 21.705h43.41c11.987 0 21.705-9.718 21.705-21.705s-9.717-21.705-21.705-21.705z"/></g></g></g></svg>