<svg height="512" viewBox="0 0 56 56" width="512" xmlns="http://www.w3.org/2000/svg"><g id="Page-1" fill="none" fill-rule="evenodd"><g id="030---Rocket-Live-Stream" fill="rgb(0,0,0)"><path id="Path" d="m22.976 12.968c-4.3307047.6115019-8.4419345 2.2882926-11.965 4.88 2.2083021.4179792 4.3060558 1.2889505 6.161 2.558 1.7961029-2.5844084 3.7337268-5.0675315 5.804-7.438z"/><path id="Path" d="m16.226 30.774c1.307799-.1028231 2.5754139-.5000638 3.708-1.162l-2.547-2.547c-.6617292 1.13297-1.0586315 2.4009376-1.161 3.709z"/><path id="Shape" d="m0 44c0 1.1045695.8954305 2 2 2h52c1.1045695 0 2-.8954305 2-2v-2h-56zm26-1h4c.5522847 0 1 .4477153 1 1s-.4477153 1-1 1h-4c-.5522847 0-1-.4477153-1-1s.4477153-1 1-1z" fill-rule="nonzero"/><path id="Path" d="m29.159 36c2.5889759-3.532499 4.2631134-7.6510213 4.873-11.988-2.3714935 2.0723838-4.8563247 4.0113735-7.443 5.808 1.2741406 1.8604775 2.1491817 3.9646619 2.57 6.18z"/><path id="Rectangle" d="m22 48h12v3h-12z"/><path id="Path" d="m17 53c-1.1045695 0-2 .8954305-2 2 0 .5522847.4477153 1 1 1h24c.5522847 0 1-.4477153 1-1 0-1.1045695-.8954305-2-2-2z"/><path id="Shape" d="m54 0h-52c-1.1045695 0-2 .8954305-2 2v38h56v-38c0-1.1045695-.8954305-2-2-2zm-51.707 4.293 2-2c.39237889-.37897221 1.01608478-.37355237 1.40181858.01218142.38573379.3857338.39115363 1.00943969.01218142 1.40181858l-2 2c-.39237889.37897221-1.01608478.37355237-1.40181858-.01218142-.38573379-.3857338-.39115363-1.00943969-.01218142-1.40181858zm.707 6.707c-.4043959-.0000863-.76893405-.2437275-.92367798-.6173454-.15474393-.373618-.06922994-.80366035.21667798-1.0896546l7-7c.25107447-.25995658.62287789-.3642126.9725073-.27269716.3496295.09151544.6226744.3645604.7141899.71418984.0915154.34962943-.0127406.72143285-.2726972.97250732l-7 7c-.18749273.1875494-.44180519.2929434-.707.293zm40.97-4.625c-.5964552 4.5805698-2.3518242 8.9331966-5.1 12.646-.7952591 1.0021994-1.6497868 1.9559045-2.559 2.856-.265 3.061-1.328 9.943-5.588 15.351-.3729127.4865486-.9509801.7718863-1.564.772-.1596937-.000262-.318797-.0193947-.474-.057-.7650054-.179259-1.3504668-.7957617-1.49-1.569-.369121-1.9449431-1.1376411-3.7921836-2.257-5.425-1.0307325.7890559-2.4539899.8190022-3.517.074-1.8478224 1.2254161-4.0274252 1.853745-6.244 1.8-.5522847 0-1-.4477153-1-1-.0536392-2.2138219.5724731-4.3909059 1.794-6.238-.7464503-1.0661917-.7177421-2.4927036.071-3.528-1.6328159-1.1163168-3.4787783-1.8830279-5.422-2.252-.77087985-.145577-1.38417708-.7306796-1.56584564-1.4938604-.18166857-.7631808.10223286-1.5618538.72484564-2.0391396 5.408-4.258 12.276-5.319 15.331-5.583.9020488-.91230441 1.8584624-1.76920291 2.864-2.566 3.7158109-2.72811801 8.0572681-4.47934895 12.626-5.093.9305765-.13614797 1.8705438.17742186 2.533.845.6591915.65374371.9696827 1.58113678.837 2.5z" fill-rule="nonzero"/><path id="Shape" d="m29.207 9.7c-4.774 3.734-9.715 10.785-11.618 13.643-.2537676.385693-.201547.8966196.125 1.223l4.716 4.716c.3262278.3260182.8365215.3782168 1.222.125 2.858-1.907 9.908-6.844 13.648-11.62.852378-1.1010071 1.5895695-2.286545 2.2-3.538l-6.756-6.756c-1.2514301.61266894-2.4366452 1.35221367-3.537 2.207zm5.538 9.56c-1.4159076 1.417196-3.5462043 1.8416937-5.3971928 1.0754822-1.8509886-.7662115-3.057992-2.5721753-3.057992-4.5754822s1.2070034-3.8092707 3.057992-4.5754822c1.8509885-.7662115 3.9812852-.3417138 5.3971928 1.0754822 1.9270078 1.9343028 1.9270078 5.0626972 0 6.997z" fill-rule="nonzero"/><path id="Path" d="m29.157 13.669c-.5543571.5530552-.8659013 1.3039408-.8659013 2.087s.3115442 1.5339448.8659013 2.087c1.1678741 1.1151794 3.0061259 1.1151794 4.174 0 .7456133-.7456133 1.0368084-1.8323683.763895-2.850895s-1.0684733-1.8140866-2.087-2.087-2.1052817.0182817-2.850895.763895z"/><path id="Path" d="m40.876 5.01c-2.1107559.30503792-4.180241.84782071-6.169 1.618l5.658 5.658c.7730723-1.9940976 1.3178757-4.06931535 1.624-6.186.0446324-.29722215-.0561793-.5977974-.271-.808-.2204929-.22151937-.5325673-.32603836-.842-.282z"/></g></g></svg>