<svg id="Capa_1" enable-background="new 0 0 607.737 607.737" height="512" viewBox="0 0 607.737 607.737" width="512" xmlns="http://www.w3.org/2000/svg"><g><g id="Page-1_30_"><g id="_x30_31---Telescope"><path id="Rectangle-path_66_" d="m60.774 323.701h101.29v60.774h-101.29z"/><path id="Shape_345_" d="m31.167 303.504h9.592c5.024-142.667 115.683-257.722 252.981-263.151v-9.521c.005-2.799-1.148-5.475-3.185-7.394-2.038-1.919-4.778-2.909-7.572-2.735-139.78 10.524-252.211 127.179-262.026 272.125-.151 2.794.86 5.526 2.794 7.548s4.618 3.154 7.416 3.128z"/><path id="Shape_344_" d="m238.82 69.626c-103.315 31.701-174.883 125.788-177.854 233.817h101.229c1.894-103.407 32.139-190.425 76.625-233.817z"/><path id="Shape_343_" d="m293.74 61.361c-59.761 10.818-108.795 116.341-111.317 242.082h111.317z"/><path id="Rectangle-path_65_" d="m182.321 323.701h111.418v60.774h-111.418z"/><path id="Shape_342_" d="m313.998 303.443h111.317c-2.522-125.741-51.556-231.264-111.317-242.082z"/><path id="Rectangle-path_64_" d="m445.674 323.701h101.29v60.774h-101.29z"/><path id="Rectangle-path_63_" d="m313.998 323.701h111.418v60.774h-111.418z"/><path id="Shape_341_" d="m368.917 69.626c44.486 43.392 74.731 130.41 76.626 233.817h101.229c-2.971-108.029-74.54-202.116-177.855-233.817z"/><path id="Shape_340_" d="m504.037 136.153 15.578-15.528c1.902-1.9 2.971-4.478 2.971-7.166s-1.069-5.266-2.971-7.166l-28.756-28.726c-1.9-1.902-4.478-2.971-7.166-2.971s-5.266 1.069-7.166 2.971l-16.146 16.206c16.103 12.436 30.748 26.653 43.656 42.38z"/><path id="Rectangle-path_62_" d="m313.998 465.506h30.387v81.032h-30.387z"/><path id="Rectangle-path_61_" d="m496.319 465.506h30.397v30.387h-30.397z"/><path id="Rectangle-path_60_" d="m405.158 465.506h30.397v30.387h-30.397z"/><path id="Shape_339_" d="m567.221 546.538v-141.806h-526.705v141.805h202.579v-81.032c.033-11.174 9.084-20.225 20.258-20.258h81.032c11.174.033 20.225 9.084 20.258 20.258v81.032h202.578zm-435.545-50.645c-.033 11.174-9.084 20.225-20.258 20.258h-30.386c-11.174-.033-20.225-9.084-20.258-20.258v-30.387c.033-11.174 9.084-20.225 20.258-20.258h30.387c11.174.033 20.225 9.084 20.258 20.258v30.387zm91.161 0c-.033 11.174-9.084 20.225-20.258 20.258h-30.387c-11.174-.033-20.225-9.084-20.258-20.258v-30.387c.033-11.174 9.084-20.225 20.258-20.258h30.387c11.174.033 20.225 9.084 20.258 20.258zm253.224-30.387c.033-11.174 9.084-20.225 20.258-20.258h30.387c11.174.033 20.225 9.084 20.258 20.258v30.387c-.033 11.174-9.084 20.225-20.258 20.258h-30.387c-11.174-.033-20.225-9.084-20.258-20.258zm-91.161 0c.033-11.174 9.084-20.225 20.258-20.258h30.387c11.174.033 20.225 9.084 20.258 20.258v30.387c-.033 11.174-9.084 20.225-20.258 20.258h-30.387c-11.174-.033-20.225-9.084-20.258-20.258z"/><path id="Rectangle-path_59_" d="m81.032 465.506h30.397v30.387h-30.397z"/><path id="Rectangle-path_58_" d="m172.192 465.506h30.397v30.387h-30.397z"/><path id="Rectangle-path_57_" d="m263.353 465.506h30.387v81.032h-30.387z"/><path id="Shape_338_" d="m597.608 566.796h-587.479c-5.594 0-10.129 4.535-10.129 10.129s4.535 10.129 10.129 10.129h587.479c5.594 0 10.129-4.535 10.129-10.129s-4.535-10.129-10.129-10.129z"/></g></g></g></svg>