<svg id="Capa_1" enable-background="new 0 0 602.284 602.284" height="512" viewBox="0 0 602.284 602.284" width="512" xmlns="http://www.w3.org/2000/svg"><g><g id="Page-1_31_"><g id="_x30_32---Shuttle"><path id="Shape_360_" d="m280.728 580.579-2.995 6.012c-1.676 3.364-1.493 7.356.485 10.552s5.469 5.141 9.228 5.141h27.392c3.759 0 7.249-1.945 9.228-5.141 1.978-3.196 2.162-7.188.485-10.552l-2.995-6.012z"/><path id="Shape_359_" d="m292.644 4.032c-5.964 7.34-11.462 15.045-16.463 23.072h49.802c-5.007-8.032-10.509-15.745-16.474-23.094-2.064-2.541-5.164-4.014-8.438-4.01-3.273.004-6.369 1.486-8.427 4.032z"/><path id="Shape_358_" d="m194.321 586.591-2.995-6.012h-40.827l-2.995 6.012c-1.676 3.364-1.493 7.356.485 10.552s5.469 5.141 9.228 5.141h27.392c3.759 0 7.249-1.945 9.228-5.141 1.977-3.196 2.161-7.188.484-10.552z"/><path id="Shape_357_" d="m445.067 602.284c3.759 0 7.249-1.945 9.228-5.141 1.978-3.196 2.162-7.188.485-10.552l-2.995-6.012h-40.827l-2.995 6.012c-1.676 3.364-1.493 7.356.485 10.552s5.469 5.141 9.228 5.141z"/><path id="Shape_356_" d="m229.093 164.691c-2.797 20.906-4.106 41.983-3.918 63.074v173.39l21.705-14.455v-145.531c-.004-6.505 1.165-12.956 3.451-19.046l25.981-69.293c3.885-10.346 13.779-17.199 24.83-17.199 11.052 0 20.945 6.853 24.83 17.199l25.981 69.282c2.287 6.093 3.456 12.549 3.451 19.057v145.531l21.705 14.455v-173.39c.188-21.076-1.118-42.139-3.907-63.031-5.118-40.32-16.936-79.501-34.967-115.926h-74.209c-18.005 36.418-29.812 75.582-34.933 115.883z"/><path id="Shape_355_" d="m377.109 548.022v-43.41h-31.309l7.879 15.812c.163.336.315.684.445 1.031 2.307 6.128 1.464 12.997-2.257 18.384-3.505 5.094-9.281 8.15-15.465 8.183h-70.541c-6.183-.033-11.959-3.089-15.465-8.183-3.721-5.387-4.564-12.257-2.257-18.384.13-.347.282-.695.445-1.031l7.901-15.812h-31.309v43.41c0 5.994 4.859 10.852 10.852 10.852h130.229c5.993 0 10.852-4.859 10.852-10.852z"/><path id="Shape_354_" d="m170.967 146.481c-17.402 1.036-31.163 15.135-31.776 32.557h63.433c-4.776-31.841-30.16-32.557-31.657-32.557z"/><path id="Shape_353_" d="m246.88 412.778-65.115 43.378v26.751h65.115z"/><path id="Shape_352_" d="m333.699 244.153h-65.115v238.754h21.705v-65.115c0-5.994 4.859-10.852 10.852-10.852 5.994 0 10.852 4.859 10.852 10.852v65.115h21.705v-238.754z"/><path id="Shape_351_" d="m420.519 456.156-65.115-43.378v70.129h65.115z"/><path id="Shape_350_" d="m398.814 227.766v187.856l33.74 22.486c6.036 4.022 9.665 10.794 9.67 18.048v26.751c0 11.987-9.718 21.705-21.705 21.705h-21.705v54.262h65.115v-184.492h-32.557c-5.994 0-10.852-4.859-10.852-10.852 0-5.994 4.859-10.852 10.852-10.852h32.557v-65.115h-32.557c-5.994 0-10.852-4.859-10.852-10.852 0-5.994 4.859-10.852 10.852-10.852h32.557v-65.115h-65.115z"/><path id="Shape_349_" d="m203.47 548.022v-43.41h-21.705c-11.987 0-21.705-9.718-21.705-21.705v-26.751c.001-7.258 3.63-14.034 9.67-18.059l33.74-22.475v-214.879h-65.115v65.115h32.557c5.994 0 10.852 4.859 10.852 10.852 0 5.994-4.859 10.852-10.852 10.852h-32.557v65.115h32.557c5.994 0 10.852 4.859 10.852 10.852 0 5.994-4.859 10.852-10.852 10.852h-32.557v184.492h65.115z"/><path id="Shape_348_" d="m280.728 504.612-10.809 21.705h62.445l-10.809-21.705h-20.413z"/><path id="Shape_347_" d="m431.426 146.481c-17.402 1.036-31.163 15.135-31.776 32.557h63.433c-4.776-31.841-30.16-32.557-31.657-32.557z"/><path id="Shape_346_" d="m296.638 160.448-23.246 62h55.499l-23.246-61.989c-.839-1.721-2.586-2.814-4.5-2.816s-3.663 1.086-4.507 2.805z"/></g></g></g></svg>