<svg id="Capa_1" enable-background="new 0 0 607.737 607.737" height="512" viewBox="0 0 607.737 607.737" width="512" xmlns="http://www.w3.org/2000/svg"><g><g id="Page-1_32_"><g id="_x30_33---Radio-Tower"><path id="Shape_369_" d="m117.315 280.319 77.269-128.927c-79.548 15.628-129.47 47.317-129.47 76.51.001 18.015 18.992 36.898 52.201 52.417z"/><path id="Shape_368_" d="m191.003 437.582-92.875 165.163c-.58 1.036-.569 2.301.028 3.327s1.693 1.659 2.88 1.665h79.657c1.405-.012 2.664-.868 3.191-2.17l10.104-25.134c.087-.293.184-.564.282-.836l51.3-128.254c-18.578-2.881-36.846-7.487-54.567-13.761z"/><path id="Shape_367_" d="m413.771 580.498 10.104 25.156c.55 1.261 1.793 2.078 3.169 2.084h79.657c1.184-.008 2.276-.64 2.873-1.662s.611-2.284.036-3.319l-92.875-165.174c-17.728 6.281-36.003 10.896-54.588 13.783l51.332 128.254c.097.281.206.574.292.878z"/><path id="Shape_366_" d="m469.965 312.106c-.695.315-1.423.551-2.171.705-53.067 16.414-108.384 24.383-163.926 23.615-55.524.762-110.822-7.207-163.872-23.615-.747-.154-1.475-.391-2.171-.705-24.555-7.608-47.499-19.67-67.687-35.585 20.772 98.345 106.3 157.578 233.729 157.578s212.958-59.233 233.729-157.578c-20.169 15.908-43.095 27.971-67.631 35.585z"/><path id="Shape_365_" d="m413.153 151.392 77.269 128.927c33.209-15.519 52.2-34.402 52.2-52.417 0-29.194-49.921-60.883-129.469-76.51z"/><path id="Shape_364_" d="m336.426 313.744c30.586-1.414 60.985-5.555 90.835-12.372l-90.835-151.392z"/><circle id="Oval_17_" cx="303.869" cy="21.705" r="21.705"/><path id="Shape_363_" d="m271.311 313.744v-163.763l-90.835 151.392c29.85 6.817 60.249 10.957 90.835 12.371z"/><path id="Shape_362_" d="m394.487 590.699-1.194-3.039-.326-.868-12.589-31.364-56.866-37.875 32.991-22.03-8.248-20.511-44.386 29.41-44.387-29.41-8.248 20.511 32.992 22.03-56.867 37.767-14.108 35.379 90.618-60.123z"/><path id="Shape_361_" d="m158.554 295.729 91.378-152.26 13.783-22.899 29.302-48.945v242.986c3.581.109 7.163.109 10.852.109 3.69 0 7.271 0 10.852-.109v-242.985l29.302 48.945 13.783 22.899 91.378 152.26c7.488-2.062 14.542-4.449 21.162-6.837l-85.409-142.384-14.217-23.659-40.154-66.96c-5.197 4.117-11.297 6.944-17.798 8.248-2.92.658-5.905.986-8.899.977-2.915-.004-5.823-.295-8.682-.868-6.575-1.341-12.745-4.203-18.015-8.356l-40.154 66.96-14.217 23.658-85.409 142.384c6.62 2.387 13.674 4.774 21.162 6.836z"/></g></g></g></svg>