<svg id="Capa_1" enable-background="new 0 0 607.37 607.37" height="512" viewBox="0 0 607.37 607.37" width="512" xmlns="http://www.w3.org/2000/svg"><g><g id="Page-1_33_"><g id="_x30_34---Observatory"><path id="Shape_384_" d="m242.911 195.042v37.74h121.547v-37.74c-15.323 17.545-37.48 27.612-60.774 27.612s-45.45-10.067-60.773-27.612z"/><path id="Shape_383_" d="m172.009 89.123c-42.252 36.166-67.777 88.113-70.589 143.659h30.387c1.159-47.244 15.048-93.299 40.202-133.307z"/><path id="Shape_382_" d="m202.395 20.074c-5.594 0-10.129 4.535-10.129 10.129v202.579h30.387v-202.579c0-5.594-4.535-10.129-10.129-10.129z"/><path id="Shape_381_" d="m526.522 273.298c5.594 0 10.129-4.535 10.129-10.129s-4.535-10.129-10.129-10.129h-445.674c-5.594 0-10.129 4.535-10.129 10.129s4.535 10.129 10.129 10.129z"/><path id="Shape_380_" d="m172.009 142.381c-12.14 28.653-18.891 59.299-19.914 90.401h19.914z"/><path id="Shape_379_" d="m435.361 232.782h19.914c-1.022-31.102-7.773-61.748-19.914-90.401z"/><path id="Shape_378_" d="m303.685 80.848c-33.564 0-60.774 27.209-60.774 60.774s27.209 60.774 60.774 60.774 60.774-27.209 60.774-60.774-27.21-60.774-60.774-60.774zm0 40.516c-11.174.033-20.225 9.084-20.258 20.258 0 5.594-4.535 10.129-10.129 10.129s-10.129-4.535-10.129-10.129c0-22.376 18.14-40.516 40.516-40.516 5.594 0 10.129 4.535 10.129 10.129s-4.535 10.129-10.129 10.129z"/><path id="Shape_377_" d="m505.95 232.782c-2.812-55.546-28.336-107.493-70.589-143.659v10.352c25.139 40.012 39.014 86.067 40.161 133.307z"/><path id="Shape_376_" d="m364.459 49.833c-39.572-12.367-81.975-12.367-121.547 0v38.368c15.323-17.545 37.48-27.612 60.774-27.612s45.451 10.067 60.774 27.612v-38.368z"/><path id="Shape_375_" d="m415.103 30.203c0-5.594-4.535-10.129-10.129-10.129h-10.129c-5.594 0-10.129 4.535-10.129 10.129v202.579h30.387z"/><path id="Shape_374_" d="m101.106 510.518v9.42l60.774-11.041v-9.521z"/><path id="Rectangle-path_70_" d="m242.911 384.717h50.645v40.516h-50.645z"/><path id="Rectangle-path_69_" d="m242.911 486.006h50.645v10.129h-50.645z"/><path id="Shape_373_" d="m233.694 516.393-213.62 38.834v32.069h70.903 141.805 70.903 70.903 141.805 70.903v-32.069l-213.62-38.834z"/><path id="Shape_372_" d="m506.264 448.63v-155.074h-20.258v50.645c0 5.594-4.535 10.129-10.129 10.129s-10.129-4.535-10.129-10.129v-50.645h-324.126v50.645c0 5.594-4.535 10.129-10.129 10.129s-10.129-4.535-10.129-10.129v-50.645h-20.258v155.074l121.547-22.081v-41.833c.033-11.174 9.084-20.225 20.258-20.258h121.547c11.174.033 20.225 9.084 20.258 20.258v41.833z"/><path id="Rectangle-path_68_" d="m313.814 384.717h50.645v40.516h-50.645z"/><path id="Rectangle-path_67_" d="m313.814 486.006h50.645v10.129h-50.645z"/><path id="Shape_371_" d="m445.49 499.376v9.521l60.774 11.041v-9.42z"/><path id="Shape_370_" d="m599.248 486.209-222.837-40.516c-.302-.051-.61-.051-.912 0-.304 0-.608-.203-.912-.203h-141.805c-.304 0-.608.203-.912.203-.302-.051-.61-.051-.912 0l-222.836 40.516c-5.066 1.024-8.548 5.698-8.08 10.845s4.736 9.116 9.903 9.21c.612-.017 1.222-.085 1.823-.203l28.564-5.166v30.083l20.258-3.646v-30.083l121.547-22.081v29.982l20.258-3.646v-30.084l31.298-5.672h139.982l31.298 5.672v30.083l20.258 3.646v-29.982l121.547 22.081v30.083l20.258 3.646v-30.083l28.564 5.166c.601.118 1.211.185 1.823.203 5.167-.094 9.435-4.063 9.903-9.21.47-5.146-3.013-9.82-8.078-10.844z"/></g></g></g></svg>