<svg id="Capa_1" enable-background="new 0 0 607.773 607.773" height="512" viewBox="0 0 607.773 607.773" width="512" xmlns="http://www.w3.org/2000/svg"><g><g id="Page-1_34_"><g id="_x30_35---Hubble-Telescope"><path id="Rectangle-path_83_" d="m145.807 145.641h42.411v42.813h-42.411z" transform="matrix(.707 -.707 .707 .707 -69.204 167.023)"/><path id="Rectangle-path_82_" d="m191.075 100.166h42.802v42.813h-42.802z" transform="matrix(.707 -.707 .707 .707 -23.732 185.851)"/><path id="Shape_398_" d="m204.806 7.74-22.595 22.595 30.267 30.267 30.278-30.267-22.594-22.595c-2.036-2.038-4.798-3.183-7.678-3.183s-5.643 1.146-7.678 3.183z"/><path id="Shape_397_" d="m45.644 258.139 22.606 22.606c4.238 4.237 11.107 4.237 15.345 0l22.595-22.606-30.235-30.278z"/><path id="Shape_396_" d="m280.697 83.588c2.038-2.036 3.183-4.798 3.183-7.678s-1.145-5.643-3.183-7.678l-22.595-22.551-30.278 30.311 30.278 30.278z"/><path id="Shape_395_" d="m190.101 204.919 42.997 42.997c3.91-.796 7.517-2.676 10.408-5.426l7.13-7.13-45.472-45.472z"/><path id="Rectangle-path_81_" d="m100.121 191.116h42.802v42.813h-42.802z" transform="matrix(.707 -.707 .707 .707 -114.683 148.175)"/><path id="Rectangle-path_80_" d="m373.825 464.814h42.802v42.813h-42.802z" transform="matrix(.707 -.707 .707 .707 -228.051 421.878)"/><path id="Shape_394_" d="m483.03 33.667-224.179 224.136c-6.922 6.89-15.972 11.235-25.677 12.328l-34.728 3.853 135.33 135.33 3.853-34.728c1.091-9.709 5.436-18.763 12.328-25.688l14.824-14.824 209.3-209.355zm-125.747 277.823c-4.238 4.237-11.107 4.237-15.345 0l-45.58-45.58c-2.821-2.725-3.953-6.76-2.959-10.554.993-3.794 3.956-6.758 7.751-7.751 3.794-.993 7.829.138 10.554 2.959l45.58 45.58c4.193 4.23 4.193 11.05 0 15.28v.066z"/><path id="Shape_393_" d="m365.292 364.243c-2.75 2.891-4.63 6.498-5.426 10.408l42.997 42.997 15.063-15.063-45.472-45.472z"/><path id="Shape_392_" d="m539.474 327.052c-4.238-4.237-11.107-4.237-15.345 0l-22.595 22.595 30.224 30.278 30.268-30.267z"/><path id="Rectangle-path_79_" d="m419.5 419.34h42.411v42.813h-42.411z" transform="matrix(.707 -.707 .707 .707 -182.575 440.717)"/><path id="Rectangle-path_78_" d="m464.779 373.865h42.802v42.813h-42.802z" transform="matrix(.707 -.707 .707 .707 -137.1 459.554)"/><path id="Shape_391_" d="m528.578 3.15c-1.995-2.001-4.705-3.126-7.532-3.126-2.826 0-5.536 1.125-7.532 3.126l-15.128 15.128 91.085 91.095 15.193-15.193c4.144-4.166 4.144-10.897 0-15.063z"/><path id="Rectangle-path_77_" d="m465.112 464.953h42.411v42.813h-42.411z" transform="matrix(.707 -.707 .707 .707 -201.469 486.33)"/><path id="Rectangle-path_76_" d="m419.452 510.438h42.802v42.813h-42.802z" transform="matrix(.707 -.707 .707 .707 -246.948 467.504)"/><path id="Shape_390_" d="m387.561 600.056c2.036 2.038 4.798 3.183 7.678 3.183s5.643-1.145 7.678-3.183l22.595-22.595-30.278-30.278-30.278 30.268z"/><path id="Shape_389_" d="m577.414 365.003-30.268 30.267 30.268 30.268 22.595-22.595c4.237-4.238 4.237-11.107 0-15.345z"/><path id="Rectangle-path_75_" d="m510.403 419.48h42.802v42.802h-42.802z" transform="matrix(.707 -.707 .707 .707 -155.988 505.173)"/><path id="Shape_388_" d="m327.015 524.198c-2.038 2.036-3.183 4.798-3.183 7.678s1.145 5.643 3.183 7.678l22.595 22.595 30.278-30.354-30.278-30.278z"/><path id="Shape_387_" d="m174.419 281.418-37.539 37.539 151.935 151.933 37.539-37.539c.119-.119.163-.271.282-.391l-151.826-151.857c-.098.152-.272.195-.391.315z"/><path id="Rectangle-path_74_" d="m145.459 54.544h42.802v42.802h-42.802z" transform="matrix(.707 -.707 .707 .707 -4.829 140.232)"/><path id="Rectangle-path_73_" d="m100.179 100.028h42.411v42.813h-42.411z" transform="matrix(.707 -.707 .707 .707 -50.314 121.399)"/><path id="Shape_386_" d="m7.704 204.843c-4.237 4.238-4.237 11.107 0 15.345l22.595 22.606 30.267-30.278-30.267-30.267z"/><path id="Rectangle-path_72_" d="m54.509 145.503h42.802v42.813h-42.802z" transform="matrix(.707 -.707 .707 .707 -95.789 102.563)"/><path id="Shape_385_" d="m158.173 601.489 13.197-13.197-151.935-151.934-13.175 13.218c-8.347 8.363-8.347 21.905 0 30.267l121.645 121.645c8.363 8.348 21.905 8.348 30.268.001z"/><path id="Rectangle-path_71_" d="m92.791 346.206h122.654v214.835h-122.654z" transform="matrix(.707 -.707 .707 .707 -275.62 241.841)"/></g></g></g></svg>