<svg id="Capa_1" enable-background="new 0 0 607.737 607.737" height="512" viewBox="0 0 607.737 607.737" width="512" xmlns="http://www.w3.org/2000/svg"><g><g id="Page-1_35_"><g id="_x30_36---Spacecraft"><path id="Shape_408_" d="m293.016 607.385v-183.96c-57.795-.261-115.383-6.907-171.718-19.817 25.612 115.492 94.395 196.744 171.718 203.777zm-21.705-162.082c5.994 0 10.852 4.859 10.852 10.852 0 5.994-4.859 10.852-10.852 10.852-5.994 0-10.852-4.859-10.852-10.852s4.859-10.852 10.852-10.852zm0 54.262c5.994 0 10.852 4.859 10.852 10.852s-4.859 10.852-10.852 10.852c-5.994 0-10.852-4.859-10.852-10.852s4.859-10.852 10.852-10.852zm0 54.263c5.994 0 10.852 4.859 10.852 10.852 0 5.994-4.859 10.852-10.852 10.852-5.994 0-10.852-4.859-10.852-10.852s4.859-10.852 10.852-10.852zm-119.377-108.525c-5.994 0-10.852-4.859-10.852-10.852 0-5.994 4.859-10.852 10.852-10.852s10.852 4.859 10.852 10.852c.001 5.993-4.858 10.852-10.852 10.852zm21.705 43.41c-5.994 0-10.852-4.859-10.852-10.852 0-5.994 4.859-10.852 10.852-10.852s10.852 4.859 10.852 10.852c.001 5.993-4.858 10.852-10.852 10.852zm10.853 32.557c0-5.994 4.859-10.852 10.852-10.852s10.852 4.859 10.852 10.852-4.859 10.852-10.852 10.852-10.852-4.858-10.852-10.852z"/><path id="Shape_407_" d="m553.41 131.125c-23.643 17.965-49.634 32.611-77.248 43.529 13.149 17.511 23.641 36.867 31.136 57.442 16.601 45.734 18.066 95.592 4.178 142.221.868-.271 1.812-.51 2.67-.781 58.603-18.612 93.591-44.517 93.591-69.315.057-61.902-18.908-122.328-54.327-173.096zm-43.345 64.572c-5.994 0-10.852-4.859-10.852-10.852s4.859-10.852 10.852-10.852c5.994 0 10.852 4.859 10.852 10.852s-4.858 10.852-10.852 10.852zm32.558 151.934c-5.994 0-10.852-4.859-10.852-10.852 0-5.994 4.859-10.852 10.852-10.852s10.852 4.859 10.852 10.852-4.859 10.852-10.852 10.852zm0-173.639c-5.994 0-10.852-4.859-10.852-10.852s4.859-10.852 10.852-10.852 10.852 4.859 10.852 10.852-4.859 10.852-10.852 10.852zm32.557 151.934c-5.994 0-10.852-4.859-10.852-10.852 0-5.994 4.859-10.852 10.852-10.852 5.994 0 10.852 4.859 10.852 10.852s-4.858 10.852-10.852 10.852z"/><path id="Shape_406_" d="m395.084 14.363c-59.375-18.68-123.054-18.68-182.43 0 26.262 19.724 58.378 30.075 91.215 29.399 32.837.677 64.953-9.675 91.215-29.399z"/><path id="Shape_405_" d="m303.869 358.484c49.73.279 99.365-4.366 148.179-13.869 6.551-30.063 4.501-61.363-5.915-90.314-21.382-60.439-78.161-101.153-142.265-102.013-64.106.862-120.887 41.574-142.276 102.013-6.428 17.818-9.696 36.622-9.659 55.565-.011 11.672 1.211 23.313 3.646 34.728 48.853 9.502 98.524 14.155 148.29 13.89zm-116.197-116.198 54.262-54.262c4.258-4.113 11.027-4.054 15.213.132s4.245 10.955.132 15.213l-54.262 54.262c-4.258 4.113-11.027 4.054-15.213-.132s-4.245-10.954-.132-15.213zm0 65.115 119.377-119.377c4.258-4.113 11.027-4.054 15.213.132s4.245 10.955.132 15.213l-119.377 119.377c-4.258 4.113-11.027 4.054-15.213-.132s-4.245-10.955-.132-15.213z"/><path id="Shape_404_" d="m93.581 373.536c.857.271 1.812.499 2.681.771-13.874-46.612-12.414-96.448 4.167-142.167 7.498-20.576 17.994-39.932 31.147-57.442-27.615-10.936-53.604-25.596-77.248-43.573-35.419 50.768-54.384 111.194-54.328 173.096 0 24.798 34.988 50.703 93.581 69.315zm4.091-199.544c5.994 0 10.852 4.859 10.852 10.852s-4.859 10.852-10.852 10.852c-5.994 0-10.852-4.859-10.852-10.852s4.859-10.852 10.852-10.852zm-32.557-21.705c5.994 0 10.852 4.859 10.852 10.852s-4.859 10.852-10.852 10.852-10.852-4.859-10.852-10.852 4.858-10.852 10.852-10.852zm0 173.639c5.994 0 10.852 4.859 10.852 10.852 0 5.994-4.859 10.852-10.852 10.852s-10.852-4.859-10.852-10.852c-.001-5.993 4.858-10.852 10.852-10.852zm-32.558-21.705c5.994 0 10.852 4.859 10.852 10.852 0 5.994-4.859 10.852-10.852 10.852s-10.852-4.859-10.852-10.852 4.859-10.852 10.852-10.852z"/><path id="Shape_403_" d="m520.722 394.221c-3.494 1.085-7.249 2.105-10.852 3.158.021.361.021.724 0 1.085-16.691 84.237-53.969 151.479-102.154 191.329 103.641-37.903 178.7-128.868 196.234-237.821-24.636 19.511-52.937 33.877-83.228 42.249zm-21.509 116.197c-5.994 0-10.852-4.859-10.852-10.852 0-5.994 4.859-10.852 10.852-10.852 5.994 0 10.852 4.859 10.852 10.852s-4.859 10.852-10.852 10.852zm21.705-43.41c-5.994 0-10.852-4.859-10.852-10.852 0-5.994 4.859-10.852 10.852-10.852s10.852 4.859 10.852 10.852-4.859 10.852-10.852 10.852zm10.852-43.41c-5.994 0-10.852-4.859-10.852-10.852 0-5.994 4.859-10.852 10.852-10.852 5.994 0 10.852 4.859 10.852 10.852.001 5.993-4.858 10.852-10.852 10.852z"/><path id="Shape_402_" d="m108.525 309.843c-.034 23.988 4.135 47.796 12.318 70.346.119.347.065.705.152 1.085 59.904 14.22 121.308 21.144 182.875 20.62 61.567.524 122.971-6.4 182.875-20.62.028-.365.079-.727.152-1.085 16.424-45.452 16.424-95.218 0-140.669-27.617-77.589-100.674-129.736-183.027-130.642-82.354.908-155.413 53.053-183.037 130.642-8.175 22.543-12.34 46.343-12.308 70.323zm32.666-62.944c24.514-69.016 89.443-115.441 162.678-116.317 73.232.877 138.157 47.302 162.667 116.317 12.671 35.199 14.407 73.406 4.981 109.61-1.029 3.964-4.202 7.011-8.204 7.879-52.449 10.831-105.89 16.127-159.444 15.801-53.582.327-107.05-4.958-159.531-15.769-4.002-.868-7.175-3.915-8.204-7.879-3.933-15.247-5.917-30.931-5.904-46.676-.038-21.459 3.672-42.761 10.961-62.944z"/><path id="Shape_401_" d="m486.44 403.608c-56.335 12.911-113.924 19.557-171.718 19.817v183.96c77.323-7.033 146.106-88.285 171.718-203.777zm-30.637 19.99c5.994 0 10.852 4.859 10.852 10.852 0 5.994-4.859 10.852-10.852 10.852-5.994 0-10.852-4.859-10.852-10.852s4.858-10.852 10.852-10.852zm-21.705 43.41c5.994 0 10.852 4.859 10.852 10.852 0 5.994-4.859 10.852-10.852 10.852-5.994 0-10.852-4.859-10.852-10.852s4.858-10.852 10.852-10.852zm-97.672 108.525c-5.994 0-10.852-4.859-10.852-10.852 0-5.994 4.859-10.852 10.852-10.852 5.994 0 10.852 4.859 10.852 10.852.001 5.993-4.858 10.852-10.852 10.852zm0-54.263c-5.994 0-10.852-4.859-10.852-10.852s4.859-10.852 10.852-10.852c5.994 0 10.852 4.859 10.852 10.852s-4.858 10.852-10.852 10.852zm0-54.262c-5.994 0-10.852-4.859-10.852-10.852 0-5.994 4.859-10.852 10.852-10.852 5.994 0 10.852 4.859 10.852 10.852.001 5.993-4.858 10.852-10.852 10.852zm65.115 54.262c0-5.994 4.859-10.852 10.852-10.852 5.994 0 10.852 4.859 10.852 10.852s-4.859 10.852-10.852 10.852c-5.993.001-10.852-4.858-10.852-10.852z"/><path id="Shape_400_" d="m87.004 394.21c-30.288-8.363-58.587-22.727-83.217-42.238 17.535 108.962 92.603 199.933 196.256 237.832-48.185-39.85-85.463-107.092-102.154-191.329-.021-.361-.021-.724 0-1.085-3.624-1.064-7.39-2.008-10.885-3.18zm-21.889 18.536c0-5.994 4.859-10.852 10.852-10.852 5.994 0 10.852 4.859 10.852 10.852 0 5.994-4.859 10.852-10.852 10.852s-10.852-4.859-10.852-10.852zm21.705 54.262c-5.994 0-10.852-4.859-10.852-10.852 0-5.994 4.859-10.852 10.852-10.852s10.852 4.859 10.852 10.852-4.859 10.852-10.852 10.852zm21.705 21.705c5.994 0 10.852 4.859 10.852 10.852 0 5.994-4.859 10.852-10.852 10.852-5.994 0-10.852-4.859-10.852-10.852-.001-5.993 4.858-10.852 10.852-10.852z"/><path id="Shape_399_" d="m303.869 87.172c59.955.337 117.053 25.663 157.545 69.879 28.305-10.484 54.914-25.074 78.973-43.301-32.414-40.207-74.5-71.531-122.318-91.041-30.973 28.7-71.995 44.059-114.2 42.759-42.205 1.301-83.228-14.059-114.2-42.759-47.819 19.51-89.905 50.834-122.319 91.041 24.059 18.228 50.668 32.818 78.973 43.301 40.495-44.213 97.592-69.539 157.546-69.879zm195.344 10.853c5.994 0 10.852 4.859 10.852 10.852 0 5.994-4.859 10.852-10.852 10.852-5.994 0-10.852-4.859-10.852-10.852-.001-5.993 4.858-10.852 10.852-10.852zm-32.558 21.705c5.994 0 10.852 4.859 10.852 10.852s-4.859 10.852-10.852 10.852c-5.994 0-10.852-4.859-10.852-10.852s4.859-10.852 10.852-10.852zm-43.409-75.967c5.994 0 10.852 4.859 10.852 10.852s-4.859 10.852-10.852 10.852c-5.994 0-10.852-4.859-10.852-10.852s4.858-10.852 10.852-10.852zm-43.41 21.704c5.994 0 10.852 4.859 10.852 10.852s-4.859 10.852-10.852 10.852c-5.994 0-10.852-4.859-10.852-10.852s4.858-10.852 10.852-10.852zm-162.787 0c5.994 0 10.852 4.859 10.852 10.852s-4.859 10.852-10.852 10.852-10.852-4.859-10.852-10.852 4.858-10.852 10.852-10.852zm-43.41-21.704c5.994 0 10.852 4.859 10.852 10.852s-4.859 10.852-10.852 10.852-10.852-4.859-10.852-10.852 4.859-10.852 10.852-10.852zm-65.114 75.967c-5.994 0-10.852-4.859-10.852-10.852 0-5.994 4.859-10.852 10.852-10.852 5.994 0 10.852 4.859 10.852 10.852s-4.859 10.852-10.852 10.852zm21.705 10.852c0-5.994 4.859-10.852 10.852-10.852s10.852 4.859 10.852 10.852-4.859 10.852-10.852 10.852-10.852-4.858-10.852-10.852z"/></g></g></g></svg>