<svg id="Capa_1" enable-background="new 0 0 607.737 607.737" height="512" viewBox="0 0 607.737 607.737" width="512" xmlns="http://www.w3.org/2000/svg"><g><g id="Page-1_36_"><g id="_x30_37---Porthole-View"><path id="Shape_411_" d="m352.705 347.278c50.946 0 92.246-41.3 92.246-92.246s-41.3-92.246-92.246-92.246-92.246 41.3-92.246 92.246c.06 50.922 41.324 92.187 92.246 92.246zm-5.427-21.705c-5.994 0-10.852-4.859-10.852-10.852 0-5.994 4.859-10.852 10.852-10.852 5.994 0 10.852 4.859 10.852 10.852.001 5.994-4.858 10.852-10.852 10.852zm75.968-43.409c0 17.981-14.576 32.557-32.557 32.557s-32.557-14.576-32.557-32.557 14.576-32.557 32.557-32.557c17.98-.001 32.557 14.576 32.557 32.557zm-32.558-86.82c5.994 0 10.852 4.859 10.852 10.852s-4.859 10.852-10.852 10.852c-5.994 0-10.852-4.859-10.852-10.852s4.859-10.852 10.852-10.852zm-54.262-10.852c17.981 0 32.557 14.576 32.557 32.557s-14.576 32.557-32.557 32.557-32.557-14.576-32.557-32.557 14.576-32.557 32.557-32.557zm-32.557 75.967c5.994 0 10.852 4.859 10.852 10.852 0 5.994-4.859 10.852-10.852 10.852-5.994 0-10.852-4.859-10.852-10.852-.001-5.993 4.858-10.852 10.852-10.852z"/><path id="Shape_410_" d="m0 303.869c0 167.822 136.047 303.869 303.869 303.869s303.869-136.047 303.869-303.869-136.047-303.869-303.869-303.869c-167.743.191-303.678 136.126-303.869 303.869zm32.557 10.852c-5.994 0-10.852-4.859-10.852-10.852 0-5.994 4.859-10.852 10.852-10.852s10.852 4.859 10.852 10.852c.001 5.993-4.858 10.852-10.852 10.852zm87.135 188.67c-3.104 3.104-7.772 4.034-11.827 2.354-4.056-1.68-6.7-5.637-6.7-10.027s2.644-8.347 6.7-10.027 8.724-.75 11.827 2.354c4.236 4.238 4.236 11.108 0 15.346zm184.177 82.641c-5.994 0-10.852-4.859-10.852-10.852 0-5.994 4.859-10.852 10.852-10.852 5.994 0 10.852 4.859 10.852 10.852s-4.859 10.852-10.852 10.852zm199.522-82.641c-3.104 3.104-7.772 4.034-11.827 2.354-4.056-1.68-6.7-5.637-6.7-10.027s2.644-8.347 6.7-10.027 8.724-.75 11.827 2.354c4.237 4.238 4.237 11.108 0 15.346zm71.789-210.375c5.994 0 10.852 4.859 10.852 10.852 0 5.994-4.859 10.852-10.852 10.852-5.994 0-10.852-4.859-10.852-10.852-.001-5.993 4.858-10.852 10.852-10.852zm-87.134-188.67c3.104-3.104 7.772-4.034 11.827-2.354 4.056 1.68 6.7 5.637 6.7 10.027s-2.644 8.347-6.7 10.027-8.724.75-11.827-2.354c-4.237-4.238-4.237-11.108 0-15.346zm-184.177-82.641c5.994 0 10.852 4.859 10.852 10.852s-4.859 10.852-10.852 10.852c-5.994 0-10.852-4.859-10.852-10.852s4.858-10.852 10.852-10.852zm0 43.41c131.86 0 238.754 106.894 238.754 238.754s-106.894 238.753-238.754 238.753-238.754-106.893-238.754-238.753c.149-131.799 106.955-238.605 238.754-238.754zm-199.523 39.231c3.104-3.104 7.772-4.034 11.827-2.354 4.056 1.68 6.7 5.637 6.7 10.027s-2.644 8.347-6.7 10.027-8.724.75-11.827-2.354c-4.236-4.238-4.236-11.108 0-15.346z"/><circle id="Oval_19_" cx="336.426" cy="217.049" r="10.852"/><circle id="Oval_18_" cx="390.688" cy="282.164" r="10.852"/><path id="Shape_409_" d="m303.869 520.918c119.873 0 217.049-97.176 217.049-217.049s-97.177-217.049-217.049-217.049-217.049 97.176-217.049 217.049c.137 119.815 97.233 216.911 217.049 217.049zm-119.377-173.64c0 5.994-4.859 10.852-10.852 10.852s-10.852-4.859-10.852-10.852v-21.705c0-5.994 4.859-10.852 10.852-10.852s10.852 4.859 10.852 10.852zm99.918 110.771-16.279 16.279c-4.258 4.113-11.027 4.054-15.213-.132s-4.245-10.955-.132-15.213l16.279-16.279c4.258-4.113 11.027-4.054 15.213.132s4.245 10.955.132 15.213zm0-32.557c-4.238 4.237-11.107 4.237-15.345 0l-16.279-16.279c-4.113-4.258-4.054-11.027.132-15.213s10.955-4.245 15.213-.132l16.279 16.279c4.237 4.237 4.237 11.107 0 15.345zm48.836 48.836c-4.238 4.237-11.107 4.237-15.345 0l-16.279-16.279c-4.113-4.258-4.054-11.027.132-15.213s10.955-4.245 15.213-.132l16.279 16.279c4.237 4.238 4.237 11.107 0 15.345zm0-65.115-16.279 16.279c-4.258 4.113-11.027 4.054-15.213-.132s-4.245-10.955-.132-15.213l16.279-16.279c4.258-4.113 11.027-4.054 15.213.132s4.245 10.955.132 15.213zm19.459-268.131c62.933 0 113.951 51.017 113.951 113.951s-51.017 113.951-113.951 113.951-113.951-51.017-113.951-113.951c.072-62.904 51.047-113.879 113.951-113.951zm-157.361 151.934h21.705c5.994 0 10.852 4.859 10.852 10.852 0 5.994-4.859 10.852-10.852 10.852h-21.705c-5.994 0-10.852-4.859-10.852-10.852s4.858-10.852 10.852-10.852zm-32.557-32.557c0-5.994 4.859-10.852 10.852-10.852s10.852 4.859 10.852 10.852v21.705c0 5.994-4.859 10.852-10.852 10.852s-10.852-4.859-10.852-10.852zm-32.558 32.557h21.705c5.994 0 10.852 4.859 10.852 10.852 0 5.994-4.859 10.852-10.852 10.852h-21.705c-5.994 0-10.852-4.859-10.852-10.852s4.859-10.852 10.852-10.852z"/></g></g></g></svg>