<svg id="Capa_1" enable-background="new 0 0 607.866 607.866" height="512" viewBox="0 0 607.866 607.866" width="512" xmlns="http://www.w3.org/2000/svg"><g><g id="Page-1_37_"><g id="_x30_38---Reentry-Burn" transform="translate(-1)"><path id="Shape_430_" d="m239.613 466.03c-2.727 11.033-4.722 22.234-5.973 33.53 1.572-1.991 3.143-4.087 4.715-6.077l4.925-6.287c9.891-14.265 25.658-23.341 42.961-24.729 17.769-2.089 34.582 8.523 40.341 25.462 1.023 3.304 1.862 6.662 2.515 10.059 2.096 9.535 3.772 15.508 8.487 18.337 7.883 3.708 17.293 1.077 22.109-6.182 3.694-5.793 6.155-12.284 7.23-19.07 1.177-5.224 2.681-10.368 4.506-15.403 5.173-13.316 13.909-24.952 25.253-33.635 5.449-4.086 11.631-7.859 18.127-11.945 17.184-10.373 34.788-21.271 37.722-37.303 1.49-9.887.258-19.994-3.563-29.234-5.935-13.358-14.282-25.506-24.624-35.836-1.572-1.781-3.248-3.563-4.82-5.344-13.767 18.079-28.75 35.198-44.847 51.239-23.785 23.786-77.224 72.3-135.064 92.418z"/><path id="Shape_429_" d="m608.866 597.322v-113.982c-2.022.168-4.055.346-6.035.482-9.032.227-17.993 1.658-26.646 4.254-11.415 4.169-21.02 12.187-27.16 22.675-6.853 11.851-12.804 34.358.409 44.302 2.132 1.488 4.374 2.812 6.706 3.961 2.022 1.048 4.045 2.096 6.004 3.353 10.686 6.967 16.983 18.987 16.629 31.739.024 4.241-.182 8.481-.618 12.7 0 .335 0 .66-.073.995h20.307c5.786 0 10.477-4.692 10.477-10.479z"/><path id="Shape_428_" d="m608.866 369.421c-9.691.024-19.223-2.467-27.663-7.23-5.686-3.506-10.749-7.932-14.984-13.098-2.013-2.445-4.22-4.723-6.601-6.811-6.857-5.814-15.206-9.589-24.1-10.897l-3.667-.524c-14.25-1.781-31.959-4.087-43.066-19.699-8.391-14.463-12.633-30.959-12.26-47.676-.21-3.248-.524-6.496-.838-9.535-.524-5.658-.733-11.421-.838-17.079-2.62.524-5.344 1.153-7.963 1.781-1.257 3.877-2.829 7.859-4.506 11.945-7.48 17.387-16.569 34.036-27.149 49.73l.713 9.168c13.708 13.199 24.738 28.921 32.482 46.303 5.329 12.885 6.927 27.01 4.61 40.76-4.506 25.253-28.186 39.817-47.257 51.448-6.077 3.772-11.84 7.23-16.556 10.793-8.279 6.347-14.629 14.873-18.337 24.624-1.504 4.095-2.695 8.298-3.563 12.574-1.729 9.801-5.592 19.102-11.316 27.243-11.202 15.514-32.173 20.312-49.007 11.212-10.471-7.478-17.165-19.145-18.337-31.959-.629-2.934-1.257-5.658-1.991-8.278-3.195-7.59-11.14-12.038-19.28-10.793-11.256 1.031-21.415 7.173-27.558 16.66l-5.03 6.287c-8.068 10.373-15.717 20.118-22.738 30.596l-.314.419c.155 20.91 2.434 41.75 6.8 62.199 1.09 4.819 5.381 8.234 10.321 8.215h308.228c.018-.946.088-1.891.21-2.829.383-3.444.558-6.908.524-10.373.344-5.613-2.181-11.017-6.706-14.355-1.547-1.009-3.157-1.919-4.82-2.724-3.296-1.659-6.451-3.586-9.43-5.763-21.69-16.241-19.385-48.305-5.973-71.462 8.629-14.748 22.11-26.044 38.141-31.959 10.459-3.277 21.317-5.11 32.273-5.449 2.515-.105 5.03-.314 7.544-.524v-92.94z"/><path id="Shape_427_" d="m608.866 247.779c.019-4.94-3.396-9.231-8.215-10.321-26.044-5.616-52.707-7.824-79.32-6.57-8.592.388-17.132 1.278-25.619 2.41 0 .618 0 1.236.063 1.855.136 5.669.262 11.285.817 16.681.325 3.227.576 6.654.828 10.185-.287 12.817 2.593 25.508 8.383 36.946 5.889 8.194 16.493 9.567 28.784 11.159l3.846.503c12.732 1.896 24.695 7.261 34.578 15.508 3.174 2.761 6.14 5.752 8.875 8.948 2.779 3.511 6.096 6.559 9.829 9.032 5.26 2.87 11.161 4.362 17.153 4.338z"/><path id="Shape_426_" d="m204.249 129.092c-4.092-4.091-10.724-4.091-14.816 0l-59.275 59.275c-4.091 4.092-4.091 10.724 0 14.816l7.408 7.408 37.041-37.051 37.051-37.041z"/><path id="Shape_425_" d="m241.28 210.581c-1.273-1.032-2.893-1.535-4.527-1.404-1.004.003-2.004.108-2.986.314-5.6 1.383-10.688 4.335-14.67 8.508-9.043 9.043-10.478 19.207-7.408 22.224 2.211 1.502 4.996 1.89 7.534 1.048 5.602-1.378 10.692-4.33 14.67-8.508 9.043-9.043 10.426-19.207 7.408-22.224z"/><path id="Shape_424_" d="m315.382 314.316c26.251-25.352 48.439-54.597 65.782-86.707 5.967-10.704 9.753-22.485 11.138-34.662l-99.145 99.145-99.135 99.135c12.173-1.381 23.951-5.163 34.651-11.128 32.109-17.348 61.354-39.535 86.709-65.783z"/><path id="Shape_423_" d="m322.287 233.414-95.352-82.568-75.024 75.024 82.568 95.352zm-106.04 29.234c-7.234.2-14.236-2.563-19.385-7.649-12.469-12.364-9.221-35.207 7.335-51.867 6.944-7.074 15.787-11.987 25.462-14.146 9.387-2.401 19.351.169 26.405 6.811 5.031 5.177 7.752 12.169 7.544 19.385-.567 12.346-5.901 23.99-14.879 32.482-6.967 7.065-15.796 12.007-25.462 14.25-2.314.446-4.663.692-7.02.734z"/><path id="Shape_422_" d="m219.569 336.037-63.058-72.761 24.267 111.562z"/><path id="Shape_421_" d="m337.103 218.513 38.811-38.811-111.561-24.246z"/><path id="Shape_420_" d="m115.342 406.304c4.242.003 8.067-2.551 9.69-6.471 1.622-3.919.722-8.43-2.282-11.426l-59.286-59.265c-4.111-3.971-10.647-3.914-14.689.128s-4.099 10.577-.128 14.689l59.275 59.275c1.968 1.968 4.637 3.072 7.42 3.07z"/><path id="Shape_419_" d="m26.423 317.386c4.237-.001 8.057-2.554 9.679-6.469 1.621-3.915.725-8.421-2.27-11.418l-14.816-14.816c-2.631-2.724-6.527-3.816-10.19-2.857s-6.525 3.82-7.483 7.483c-.959 3.663.133 7.559 2.857 10.19l14.816 14.816c1.959 1.973 4.627 3.079 7.407 3.071z"/><path id="Shape_418_" d="m48.648 269.867c-4.091 4.092-4.091 10.724 0 14.816l59.275 59.275c2.631 2.724 6.527 3.816 10.19 2.857 3.664-.959 6.525-3.82 7.483-7.483.959-3.663-.133-7.559-2.857-10.19l-59.275-59.275c-4.092-4.09-10.724-4.09-14.816 0z"/><path id="Shape_417_" d="m19.015 255.041c2.631 2.724 6.527 3.816 10.19 2.857s6.525-3.82 7.483-7.483c.959-3.663-.133-7.559-2.857-10.19l-14.816-14.816c-2.631-2.724-6.527-3.816-10.19-2.857s-6.525 3.82-7.483 7.483c-.959 3.664.133 7.559 2.857 10.19z"/><path id="Shape_416_" d="m404.3 121.674c4.09-4.092 4.09-10.724 0-14.816l-59.286-59.265c-4.111-3.971-10.647-3.914-14.689.128s-4.099 10.577-.128 14.689l59.275 59.265c1.965 1.968 4.632 3.073 7.413 3.073 2.782-.001 5.449-1.107 7.415-3.074z"/><path id="Shape_415_" d="m300.565 3.134c-4.111-3.971-10.647-3.914-14.689.128s-4.099 10.577-.128 14.689l14.816 14.816c4.111 3.971 10.647 3.914 14.689-.128s4.099-10.577.128-14.689z"/><path id="Shape_414_" d="m285.749 47.593c-4.111-3.971-10.647-3.914-14.689.128s-4.099 10.577-.128 14.689l59.265 59.265c2.631 2.724 6.527 3.816 10.19 2.857 3.664-.959 6.525-3.82 7.483-7.483.959-3.663-.134-7.559-2.857-10.19z"/><path id="Shape_413_" d="m226.474 3.134c-4.091 4.092-4.091 10.724 0 14.816l14.816 14.816c2.631 2.724 6.527 3.816 10.19 2.857s6.525-3.82 7.483-7.483c.959-3.663-.133-7.559-2.857-10.19l-14.816-14.816c-4.092-4.091-10.724-4.091-14.816 0z"/><path id="Shape_412_" d="m359.841 358.775c68.36-68.36 128.777-167.589 74.092-222.275-4.111-3.971-10.647-3.914-14.689.128s-4.099 10.577-.128 14.689c40.949 40.949-7.712 126.252-74.092 192.642s-151.693 115.051-192.642 74.091c-4.111-3.971-10.647-3.914-14.689.128s-4.099 10.577-.128 14.689c13.987 14.065 33.149 21.747 52.978 21.239 53.398-.011 119.537-45.57 169.298-95.331z"/></g></g></g></svg>