<svg id="Capa_1" enable-background="new 0 0 597.118 597.118" height="512" viewBox="0 0 597.118 597.118" width="512" xmlns="http://www.w3.org/2000/svg"><g><g id="Page-1_38_"><g id="_x30_39---Instrumentation"><path id="Shape_433_" d="m593.887 54.696-51.391-51.497c-2-2.04-4.735-3.192-7.591-3.199h-472.735c-2.86.003-5.6 1.156-7.602 3.199l-51.359 51.497c-2.033 1.952-3.187 4.645-3.199 7.463v472.798c.003 2.86 1.156 5.6 3.199 7.602l51.402 51.498c2.045 1.954 4.762 3.05 7.591 3.06h472.724c2.883-.031 5.642-1.177 7.698-3.199l51.284-51.402c2.043-2.002 3.195-4.742 3.199-7.602v-472.712c.016-2.78-1.091-5.448-3.071-7.399zm-40.622 165.017c5.677-1.491 11.491 1.887 13.008 7.556 1.517 5.67-1.833 11.499-7.495 13.043l-20.599 5.523c-.903.249-1.835.374-2.772.373-5.35-.003-9.87-3.97-10.566-9.275s2.647-10.304 7.815-11.687zm-47.788-52.436 18.552-10.769c3.305-2.101 7.496-2.221 10.916-.312s5.518 5.539 5.465 9.455-2.249 7.488-5.719 9.303l-18.552 10.769c-3.305 2.101-7.496 2.221-10.916.312s-5.518-5.539-5.465-9.455 2.249-7.488 5.719-9.303zm-93.645-85.904 10.769-18.552c1.815-3.47 5.387-5.666 9.303-5.719s7.546 2.045 9.455 5.465 1.789 7.611-.312 10.916l-10.769 18.552c-1.815 3.47-5.387 5.666-9.303 5.719s-7.546-2.045-9.455-5.465-1.789-7.611.312-10.916zm-294.539 217.634c-4.646-104.485 76.075-193.054 180.541-198.094 104.466-5.041 193.34 75.344 198.776 179.791s-74.613 193.623-179.038 199.454-193.904-73.88-200.13-178.283c-.005-.067-.005-.135 0-.203v-.149c-.032-.842-.149-1.663-.149-2.516zm234.427-239.63 5.523-20.599c1.525-5.688 7.373-9.063 13.061-7.538s9.063 7.373 7.538 13.061l-5.523 20.588c-1.245 4.661-5.464 7.906-10.289 7.911-.936 0-1.868-.122-2.772-.363-2.732-.732-5.061-2.52-6.475-4.969-1.413-2.449-1.796-5.359-1.063-8.091zm-74.496-37.584h42.648c5.888 0 10.662 4.774 10.662 10.662s-4.774 10.662-10.662 10.662h-10.662v10.662c0 5.888-4.774 10.662-10.662 10.662s-10.662-4.774-10.662-10.662v-10.662h-10.662c-5.888 0-10.662-4.774-10.662-10.662s4.774-10.662 10.662-10.662zm-50.421 9.447c5.685-1.519 11.526 1.855 13.05 7.538l5.523 20.599c.733 2.732.35 5.642-1.064 8.092s-3.743 4.237-6.475 4.969c-.904.24-1.836.362-2.772.363-4.825-.006-9.044-3.25-10.289-7.911l-5.523-20.588c-.732-2.733-.348-5.645 1.068-8.095 1.417-2.451 3.748-4.237 6.482-4.967zm-66.862 27.711c2.446-1.42 5.356-1.81 8.089-1.084s5.067 2.508 6.486 4.954l10.769 18.552c2.648 5.063.835 11.314-4.112 14.173s-11.268 1.311-14.334-3.511l-10.769-18.552c-2.927-5.084-1.197-11.578 3.871-14.532zm-57.393 44.034c4.164-4.162 10.913-4.162 15.076 0l15.076 15.076c2.772 2.677 3.883 6.641 2.908 10.369-.976 3.728-3.887 6.639-7.615 7.615s-7.692-.136-10.369-2.908l-15.076-15.076c-4.168-4.158-4.178-10.907-.021-15.076zm-71.767 124.277c1.52-5.688 7.362-9.067 13.05-7.549l20.61 5.534c5.168 1.383 8.511 6.382 7.815 11.687s-5.216 9.272-10.566 9.275c-.937.001-1.869-.124-2.772-.373l-20.599-5.47c-2.741-.732-5.078-2.526-6.493-4.985-1.414-2.46-1.79-5.382-1.045-8.119zm-9.446 93.069v-42.648c0-5.888 4.774-10.662 10.662-10.662s10.662 4.774 10.662 10.662v10.662h10.662c5.888 0 10.662 4.774 10.662 10.662s-4.774 10.662-10.662 10.662h-10.662v10.662c0 5.888-4.774 10.662-10.662 10.662s-10.662-4.774-10.662-10.662zm22.497 57.969c-5.677 1.491-11.491-1.887-13.008-7.556s1.833-11.499 7.495-13.043l20.599-5.523c3.717-1.105 7.741-.106 10.508 2.611 2.767 2.716 3.842 6.721 2.805 10.458-1.036 3.737-4.02 6.616-7.791 7.52zm47.787 52.436-18.552 10.769c-3.305 2.101-7.496 2.221-10.916.312s-5.518-5.538-5.465-9.455c.053-3.916 2.249-7.488 5.719-9.303l18.552-10.769c5.063-2.648 11.314-.835 14.173 4.112 2.859 4.948 1.311 11.269-3.511 14.334zm3.87-248.884c-1.419 2.446-3.752 4.228-6.486 4.954-2.733.726-5.643.336-8.089-1.084l-18.552-10.769c-3.47-1.815-5.666-5.387-5.719-9.303s2.045-7.546 5.465-9.455 7.611-1.789 10.916.312l18.552 10.769c2.453 1.412 4.245 3.742 4.979 6.476.734 2.735.351 5.649-1.066 8.1zm37.19 298.1-15.076 15.076c-2.677 2.772-6.641 3.883-10.369 2.908-3.728-.976-6.639-3.887-7.615-7.615s.136-7.692 2.908-10.369l15.076-15.076c2.677-2.772 6.641-3.883 10.369-2.908 3.728.976 6.639 3.887 7.615 7.615.975 3.728-.137 7.692-2.908 10.369zm52.585 36.689-10.769 18.552c-3.065 4.822-9.387 6.37-14.334 3.511s-6.76-9.11-4.112-14.173l10.769-18.552c1.815-3.47 5.387-5.666 9.303-5.719s7.546 2.045 9.455 5.465 1.789 7.61-.312 10.916zm60.112 21.995-5.47 20.599c-1.525 5.688-7.373 9.063-13.061 7.538s-9.063-7.373-7.538-13.061l5.523-20.588c.971-3.696 3.845-6.59 7.533-7.585 3.689-.996 7.629.058 10.327 2.764 2.699 2.705 3.743 6.648 2.738 10.334h-.052zm74.496 37.584h-42.648c-5.888 0-10.662-4.774-10.662-10.662s4.774-10.662 10.662-10.662h10.662v-10.662c0-5.888 4.774-10.662 10.662-10.662s10.662 4.774 10.662 10.662v10.662h10.662c5.888 0 10.662 4.774 10.662 10.662s-4.773 10.662-10.662 10.662zm50.421-9.446c-5.685 1.519-11.526-1.855-13.05-7.538l-5.523-20.599c-1.005-3.686.04-7.629 2.738-10.334 2.699-2.705 6.638-3.759 10.327-2.764 3.689.996 6.563 3.89 7.533 7.585l5.523 20.588c.732 2.733.348 5.645-1.068 8.095-1.415 2.45-3.746 4.237-6.48 4.967zm66.862-27.711c-5.094 2.948-11.613 1.211-14.564-3.881l-15.993-27.615c-2.648-5.063-.835-11.314 4.112-14.173s11.268-1.311 14.334 3.511l15.993 27.615c2.932 5.089 1.197 11.592-3.882 14.543zm57.404-44.034c-4.164 4.162-10.913 4.162-15.076 0l-15.076-15.076c-2.772-2.677-3.883-6.641-2.908-10.369.976-3.728 3.887-6.639 7.615-7.615s7.692.136 10.369 2.908l15.076 15.076c4.165 4.161 4.17 10.91.011 15.076zm0-376.968-15.076 15.076c-2.677 2.772-6.641 3.883-10.369 2.908-3.728-.976-6.639-3.887-7.615-7.615s.136-7.692 2.908-10.369l15.076-15.076c2.677-2.772 6.641-3.883 10.369-2.908 3.728.976 6.639 3.887 7.615 7.615s-.136 7.692-2.908 10.369zm44.056 319.552c-1.419 2.449-3.754 4.233-6.49 4.959s-5.648.334-8.095-1.089l-18.552-10.769c-3.47-1.815-5.666-5.387-5.719-9.303s2.045-7.546 5.465-9.455 7.611-1.789 10.916.312l18.552 10.769c2.455 1.41 4.249 3.74 4.985 6.474.735 2.735.353 5.65-1.062 8.102zm27.721-66.883c-1.52 5.688-7.362 9.067-13.05 7.549l-20.61-5.534c-3.771-.903-6.755-3.783-7.791-7.52s.038-7.742 2.805-10.458 6.791-3.716 10.508-2.611l20.599 5.523c2.73.737 5.056 2.528 6.466 4.979s1.788 5.362 1.051 8.093zm9.426-50.399c0 5.888-4.774 10.662-10.662 10.662s-10.662-4.774-10.662-10.662v-10.662h-10.662c-5.888 0-10.662-4.774-10.662-10.662s4.774-10.662 10.662-10.662h10.662v-10.662c0-5.888 4.774-10.662 10.662-10.662s10.662 4.774 10.662 10.662z"/><path id="Shape_432_" d="m298.548 458.938c85.874-.137 156.326-68.042 159.622-153.853-28.862-36.155-90.873-59.388-159.622-59.388s-130.759 23.222-159.622 59.377c3.296 85.812 73.746 153.721 159.622 153.864zm10.662-42.649c0 5.888-4.774 10.662-10.662 10.662s-10.662-4.774-10.662-10.662v-21.324c0-5.888 4.774-10.662 10.662-10.662s10.662 4.774 10.662 10.662zm85.297-127.944h21.324c5.888 0 10.662 4.774 10.662 10.662s-4.774 10.662-10.662 10.662h-21.324c-5.888 0-10.662-4.774-10.662-10.662s4.773-10.662 10.662-10.662zm-117.283 0h10.662v-10.662c0-5.888 4.774-10.662 10.662-10.662s10.662 4.774 10.662 10.662v10.662h10.662c5.888 0 10.662 4.774 10.662 10.662s-4.774 10.662-10.662 10.662h-10.662v10.662c0 5.888-4.774 10.662-10.662 10.662s-10.662-4.774-10.662-10.662v-10.662h-10.662c-5.888 0-10.662-4.774-10.662-10.662s4.774-10.662 10.662-10.662zm-106.621 10.662c0-5.888 4.774-10.662 10.662-10.662h21.324c5.888 0 10.662 4.774 10.662 10.662s-4.774 10.662-10.662 10.662h-21.324c-5.888 0-10.662-4.774-10.662-10.662z"/><path id="Shape_431_" d="m456.155 272.917c-12.676-77.186-79.387-133.835-157.607-133.835s-144.931 56.649-157.606 133.835c36.592-30.088 94.839-48.544 157.606-48.544s121.014 18.455 157.607 48.544zm-168.269-69.869v-21.324c0-5.888 4.774-10.662 10.662-10.662s10.662 4.774 10.662 10.662v21.324c0 5.888-4.774 10.662-10.662 10.662s-10.662-4.773-10.662-10.662z"/></g></g></g></svg>