<svg id="Capa_1" enable-background="new 0 0 607.775 607.775" height="512" viewBox="0 0 607.775 607.775" width="512" xmlns="http://www.w3.org/2000/svg"><g><g id="Page-1_39_"><g id="_x30_40---Window" transform="translate(-1)"><path id="Shape_435_" d="m51.578 342.516c-4.834 3.011-7.54 8.505-6.981 14.173.56 5.668 4.288 10.527 9.618 12.534l429.138 159.889c4.204 1.616 8.914 1.237 12.805-1.031s6.542-6.18 7.207-10.635l62-389.809v-49.921h-82.359zm90.542 28.216c-3.909-.005-7.513-2.111-9.436-5.514s-1.867-7.577.146-10.928l32.557-54.262c1.96-3.399 5.603-5.476 9.526-5.431 3.924.045 7.517 2.205 9.399 5.648s1.758 7.634-.324 10.961l-32.557 54.262c-1.964 3.269-5.498 5.267-9.311 5.264zm117.836-102.935-65.115 108.524c-3.139 5.016-9.718 6.593-14.79 3.545s-6.767-9.597-3.812-14.723l65.115-108.524c3.139-5.016 9.718-6.593 14.79-3.545s6.767 9.597 3.812 14.723zm261.999-92.409v21.705c0 5.994-4.859 10.852-10.852 10.852-5.994 0-10.852-4.859-10.852-10.852v-10.852h-43.41v21.705c5.994 0 10.852 4.859 10.852 10.852s-4.859 10.852-10.852 10.852v21.705h10.852c5.994 0 10.852 4.859 10.852 10.852 0 5.994-4.859 10.852-10.852 10.852h-10.852v21.705c5.994 0 10.852 4.859 10.852 10.852 0 5.994-4.859 10.852-10.852 10.852v21.705h10.852c5.994 0 10.852 4.859 10.852 10.852 0 5.994-4.859 10.852-10.852 10.852h-10.852v21.705c5.994 0 10.852 4.859 10.852 10.852 0 5.994-4.859 10.852-10.852 10.852v21.705h32.557c5.994 0 10.852 4.859 10.852 10.852 0 5.994-4.859 10.852-10.852 10.852h-32.557v21.705c5.994 0 10.852 4.859 10.852 10.852 0 5.994-4.859 10.852-10.852 10.852h-21.705c-5.994 0-10.852-4.859-10.852-10.852 0-5.994 4.859-10.852 10.852-10.852v-21.705h-32.557c-5.994 0-10.852-4.859-10.852-10.852 0-5.994 4.859-10.852 10.852-10.852h32.557v-21.701c-5.994 0-10.852-4.859-10.852-10.852 0-5.994 4.859-10.852 10.852-10.852v-21.706h-10.852c-5.994 0-10.852-4.859-10.852-10.852 0-5.994 4.859-10.852 10.852-10.852h10.852v-21.706c-5.994 0-10.852-4.859-10.852-10.852 0-5.994 4.859-10.852 10.852-10.852v-21.706h-10.852c-5.994 0-10.852-4.859-10.852-10.852 0-5.994 4.859-10.852 10.852-10.852h10.852v-21.706c-5.994 0-10.852-4.859-10.852-10.852s4.859-10.852 10.852-10.852v-21.705h-43.41v10.852c0 5.994-4.859 10.852-10.852 10.852-5.994 0-10.852-4.859-10.852-10.852v-21.705c0-5.994 4.859-10.852 10.852-10.852h54.262v-21.705c-5.994 0-10.852-4.859-10.852-10.852 0-5.994 4.859-10.852 10.852-10.852h21.705c5.994 0 10.852 4.859 10.852 10.852 0 5.994-4.859 10.852-10.852 10.852v21.705h54.262c5.994 0 10.852 4.859 10.852 10.852z"/><path id="Shape_434_" d="m576.218 34.306h-96.261c-6.011 0-11.904 1.664-17.027 4.808l-434.099 266.352c-19.026 11.679-29.722 33.188-27.554 55.407s16.82 41.255 37.745 49.036l429.182 159.889c16.41 6.111 34.696 4.532 49.816-4.3s25.476-23.985 28.214-41.28l62.141-390.601c.261-1.677.396-3.371.401-5.068v-61.685c0-8.635-3.43-16.916-9.536-23.022s-14.388-9.536-23.022-9.536zm10.852 94.243c.002.571-.046 1.141-.141 1.704l-62.13 390.601c-1.684 10.883-8.186 20.426-17.699 25.975-9.512 5.549-21.02 6.512-31.322 2.621l-429.16-159.889c-13.137-4.894-22.334-16.849-23.696-30.801s5.35-27.46 17.293-34.802l434.044-266.352c1.714-1.042 3.681-1.593 5.687-1.595h96.272c5.994 0 10.852 4.859 10.852 10.852z"/></g></g></g></svg>