<svg id="Capa_1" enable-background="new 0 0 607.856 607.856" height="512" viewBox="0 0 607.856 607.856" width="512" xmlns="http://www.w3.org/2000/svg"><g><g id="Page-1_40_"><g id="_x30_41---Lunar-Trip" transform="translate(-1 -1)"><path id="Shape_444_" d="m147.296 424.578c-13.239-.858-25.691-6.588-34.955-16.085-6.497-6.654-12.353-13.905-17.493-21.656-8.913 7.414-16.34 16.45-21.889 26.629 1.884.679 3.748 1.378 5.642 2.026 7.982 2.816 15.963 5.642 23.722 8.812l1.57.638c12.362 3.982 23.688 10.655 33.162 19.539 4.469 4.568 6.561 10.953 5.662 17.28-2.692 10.129-9.823 18.496-19.397 22.76-8.681 4.536-15.843 11.515-20.602 20.076-3.494 7.18-6.031 14.788-7.546 22.628 3.461 2.806 7.12 5.359 10.949 7.637 13.451-16.601 29.496-32.646 57.543-25.717 14.791 4.201 27.821 13.087 37.133 25.322 8.154-5.026 15.474-11.294 21.696-18.576-7.016-8.063-15.678-14.528-25.403-18.961-28.28-12.53-28.077-31.349-25.434-41.448 4.175-13.596 12.515-25.536 23.844-34.135 9.531-7.368 19.959-13.495 31.035-18.232-4.951-6.745-10.799-12.783-17.381-17.949-3.039 2.978-6.006 6.007-9.177 8.863-2.026 1.864-4.112 3.89-6.229 5.956-11.284 10.99-25.322 24.624-45.074 24.624z"/><path id="Shape_443_" d="m191.245 460.597c-.81 3.039-2.704 10.352 14.181 17.837 10.726 4.852 20.457 11.656 28.695 20.065 12.531-24.205 13.495-52.766 2.623-77.76-10.2 4.202-19.808 9.715-28.584 16.399-7.872 5.938-13.767 14.114-16.915 23.459z"/><path id="Shape_442_" d="m125.235 543.675c18.362 5.94 38.145 5.844 56.449-.273-5.997-7.041-13.967-12.122-22.881-14.586-14.364-3.546-23.054 2.623-33.568 14.859z"/><path id="Shape_441_" d="m112.959 467.14c7.82-4.639 9.42-7.647 9.683-8.306-.081-.051-.273-.375-.689-.841-7.5-6.435-16.223-11.286-25.647-14.262l-1.621-.648c-7.485-3.039-15.193-5.773-22.831-8.478-2.157-.77-4.295-1.57-6.452-2.34-7.589 26.529-2.603 55.072 13.532 77.456 1.541-4.925 3.475-9.718 5.784-14.332 6.451-11.973 16.269-21.794 28.241-28.249z"/><path id="Shape_440_" d="m126.44 393.938c5.643 5.972 13.279 9.669 21.463 10.392 11.952.537 21.554-8.964 31.714-18.87 2.269-2.208 4.507-4.376 6.746-6.432 1.712-1.55 3.282-3.191 4.943-4.781-25.288-11.846-54.639-11.303-79.472 1.469 4.302 6.508 9.191 12.607 14.606 18.222z"/><path id="Shape_439_" d="m518.573 1.654c-47.786-5.352-92.712 23.749-107.367 69.545l-50.361 161.162-252.91 79.441c-67.871 21.049-112.088 86.329-106.452 157.165s59.616 128.305 129.961 138.358c7.108.993 14.276 1.497 21.453 1.509 63.147.117 119.764-38.891 142.15-97.937l81.963-262.34 171.048-53.45c.388-.113.767-.255 1.134-.425 41.64-18.774 65.563-63.095 58.407-108.207s-43.62-79.855-89.026-84.821zm-242.66 502.568c-22.108 57.397-81.007 91.843-141.871 82.97s-107.478-58.7-112.28-120.02 33.488-117.795 92.23-136.034l239.499-75.228zm265.5-328.249-157.049 49.065 46.178-147.7c10.701-33.517 41.939-56.192 77.122-55.983 2.94.002 5.878.154 8.802.456 36.199 3.994 65.287 31.648 71.104 67.599s-13.064 71.367-46.157 86.574z"/><path id="Shape_438_" d="m507.603 61.871c-22.376 0-40.516 18.14-40.516 40.516s18.14 40.516 40.516 40.516 40.516-18.14 40.516-40.516c0-10.745-4.269-21.051-11.867-28.649-7.598-7.599-17.904-11.867-28.649-11.867zm-10.129 60.773c-5.594 0-10.129-4.535-10.129-10.129s4.535-10.129 10.129-10.129 10.129 4.535 10.129 10.129-4.535 10.129-10.129 10.129zm0-30.387c-5.594 0-10.129-4.535-10.129-10.129s4.535-10.128 10.129-10.128 10.129 4.535 10.129 10.129-4.535 10.128-10.129 10.128zm30.387 10.129c-5.594 0-10.129-4.535-10.129-10.129s4.535-10.129 10.129-10.129 10.129 4.535 10.129 10.129c0 5.595-4.535 10.129-10.129 10.129z"/><path id="Shape_437_" d="m133.308 187.47 6.077 19.316c.812 2.564 2.61 4.701 4.999 5.937 2.388 1.237 5.171 1.473 7.734.656l106.162-33.79 5.632 17.867c1.204 3.754 4.477 6.469 8.389 6.958s7.752-1.336 9.843-4.679l31.4-50.766c1.555-2.515 1.934-5.585 1.036-8.402-.898-2.818-2.982-5.102-5.706-6.254l-54.696-23.145c-3.638-1.538-7.839-.82-10.76 1.838-2.922 2.658-4.031 6.773-2.843 10.54l5.49 17.402-106.141 33.76c-2.575.807-4.722 2.609-5.963 5.005-1.244 2.395-1.478 5.187-.653 7.757z"/><path id="Shape_436_" d="m461.729 301.025-19.356-5.996c-2.567-.794-5.344-.536-7.72.718s-4.157 3.4-4.951 5.967l-32.848 106.455-17.888-5.571c-3.782-1.18-7.905-.046-10.552 2.902s-3.333 7.169-1.754 10.803l23.773 54.777c1.178 2.711 3.482 4.773 6.308 5.643 2.825.87 5.89.463 8.389-1.115l50.229-31.704c3.338-2.11 5.145-5.968 4.63-9.884-.516-3.915-3.26-7.174-7.03-8.348l-17.422-5.429 32.868-106.557c1.647-5.339-1.34-11.004-6.676-12.661z"/></g></g></g></svg>