<svg id="Capa_1" enable-background="new 0 0 600.144 600.144" height="512" viewBox="0 0 600.144 600.144" width="512" xmlns="http://www.w3.org/2000/svg"><g><g id="Page-1_41_"><g id="_x30_42---Command-Module"><path id="Shape_454_" d="m31.932 449.953 118.487 118.466 11.504-19.188-110.793-110.792z"/><path id="Shape_453_" d="m259.996 478.495 46.025 46.014 15.335-15.378-22.986-22.964c-4.113-4.258-4.054-11.027.132-15.213s10.955-4.245 15.213-.132l22.975 22.964 15.335-15.367-22.964-22.953c-2.741-2.743-3.811-6.74-2.806-10.486s3.932-6.67 7.678-7.673c3.746-1.002 7.743.07 10.484 2.813l22.942 22.942 15.335-15.356-45.949-46.014z"/><path id="Shape_452_" d="m70.306 426.924 103.131 103.131 11.515-19.198-95.459-95.447z"/><path id="Shape_451_" d="m482.992 59.005-39.166-39.178-38.374 7.684 40.707 40.696z"/><path id="Shape_450_" d="m198.604 381.908c-2.878-.001-5.638-1.144-7.673-3.18l-99.756-99.767-15.345 15.357 122.785 122.795 76.738-76.759-122.73-122.774-15.345 15.345 99.756 99.756c2.821 2.725 3.953 6.76 2.959 10.554-.993 3.794-3.956 6.758-7.751 7.751-3.794.993-7.829-.138-10.554-2.959l-99.756-99.756-15.356 15.345 99.767 99.767c3.104 3.105 4.032 7.775 2.349 11.83-1.682 4.056-5.642 6.698-10.033 6.695z"/><path id="Shape_449_" d="m5.463 465.83c-2.866 1.72-4.78 4.666-5.187 7.984s.738 6.638 3.103 9.001l114.189 114.157c2.364 2.36 5.682 3.5 8.997 3.091s6.257-2.322 7.976-5.186l4.341-7.271-126.126-126.149z"/><path id="Shape_448_" d="m469.405 14.716 28.933 28.933c5.532 5.529 7.662 13.607 5.575 21.144-2.087 7.538-8.069 13.37-15.657 15.265l-36.833 9.214c-1.703.428-3.453.644-5.209.64-5.778 0-11.319-2.291-15.41-6.37l-50.931-50.92-36.898 7.369 216.93 216.897 30.702-153.53-94.071-94.069z"/><path id="Shape_447_" d="m551.764 3.169c-2.559-2.552-6.221-3.663-9.767-2.963l-19.838 3.972 73.601 73.601 3.983-19.849c.701-3.546-.41-7.208-2.963-9.767z"/><path id="Shape_446_" d="m275.005 94.763 230.213 230.213 46.004-46.079-230.213-230.213zm237.843 176.45c2.821 2.725 3.953 6.76 2.959 10.554-.993 3.794-3.956 6.758-7.751 7.751-3.794.993-7.829-.138-10.554-2.959l-184.177-184.166c-2.821-2.725-3.953-6.76-2.959-10.554s3.956-6.758 7.751-7.751c3.794-.993 7.829.138 10.554 2.959z"/><path id="Shape_445_" d="m167.816 202.127 122.882 122.882c8.473 8.476 8.473 22.215 0 30.691l-76.738 76.749c-4.071 4.072-9.593 6.36-15.351 6.36s-11.28-2.288-15.351-6.36l-122.795-122.796-15.28 15.345c-2.038 2.036-3.183 4.798-3.183 7.678s1.145 5.643 3.183 7.678l214.879 214.879c2.036 2.038 4.798 3.183 7.678 3.183s5.643-1.145 7.678-3.183l15.335-15.356-46.101-46.036c-4.072-4.071-6.36-9.593-6.36-15.351s2.288-11.28 6.36-15.351l76.727-76.738c4.071-4.072 9.593-6.36 15.351-6.36s11.28 2.288 15.351 6.36l45.938 45.938 91.855-91.996-230.203-230.223z"/></g></g></g></svg>