<svg id="Capa_1" enable-background="new 0 0 607.33 607.33" height="512" viewBox="0 0 607.33 607.33" width="512" xmlns="http://www.w3.org/2000/svg"><g><g id="Page-1_42_"><g id="_x30_43---Earth-Orbit"><path id="Shape_461_" d="m274.722 449.198c8.292-5.111 15.737-11.485 22.064-18.891-7.135-8.199-15.944-14.775-25.834-19.283-28.759-12.742-28.553-31.88-25.865-42.15 4.246-13.826 12.727-25.969 24.248-34.713 9.692-7.493 20.298-13.723 31.561-18.541-5.035-6.859-10.982-13-17.676-18.253-3.09 3.028-6.108 6.108-9.332 9.013-2.06 1.895-4.182 3.955-6.335 6.057-11.475 11.176-25.752 25.041-45.838 25.041h-1.401c-13.463-.873-26.127-6.7-35.547-16.357-6.607-6.767-12.563-14.14-17.789-22.023-9.064 7.54-16.617 16.729-22.26 27.08 1.916.69 3.811 1.401 5.737 2.06 8.117 2.864 16.234 5.737 24.124 8.962l1.597.649c12.572 4.049 24.09 10.835 33.724 19.87 4.545 4.645 6.672 11.139 5.758 17.573-2.738 10.301-9.989 18.809-19.726 23.146-8.828 4.613-16.112 11.71-20.951 20.416-3.554 7.302-6.134 15.038-7.674 23.012 3.52 2.854 7.241 5.45 11.135 7.767 13.679-16.872 30.016-33.189 58.518-26.153 15.038 4.262 28.288 13.286 37.762 25.718z"/><path id="Shape_460_" d="m195.243 372.314c-.082-.052-.278-.381-.7-.855-7.627-6.544-16.498-11.477-26.081-14.503l-1.648-.659c-7.612-3.09-15.451-5.871-23.218-8.622-2.194-.783-4.367-1.597-6.561-2.379-7.718 26.978-2.647 56.006 13.762 78.769 1.564-5.026 3.531-9.917 5.882-14.627 6.566-12.162 16.549-22.134 28.718-28.687 7.95-4.708 9.578-7.767 9.846-8.437z"/><path id="Shape_459_" d="m220.932 316.886c12.072.505 21.92-9.116 32.251-19.19 2.307-2.246 4.584-4.45 6.86-6.541 1.741-1.576 3.337-3.245 5.027-4.862-25.717-12.047-55.565-11.495-80.819 1.494 4.374 6.621 9.346 12.828 14.854 18.541 5.741 6.07 13.506 9.826 21.827 10.558z"/><path id="Shape_458_" d="m318.912 370.347c.002-12.652-2.599-25.17-7.643-36.773-10.372 4.273-20.144 9.879-29.068 16.677-8.002 6.04-13.994 14.355-17.192 23.856-.824 3.09-2.75 10.527 14.421 18.139 10.908 4.934 20.803 11.854 29.182 20.406 6.764-13.077 10.296-27.583 10.3-42.305z"/><path id="Shape_457_" d="m197.88 458.592c18.674 6.041 38.791 5.943 57.405-.278-6.098-7.16-14.204-12.327-23.269-14.833-14.606-3.615-23.444 2.668-34.136 15.111z"/><path id="Shape_456_" d="m463.121 339.445c6.895-.002 13.722 1.364 20.086 4.017.412-4.738.515-9.58.515-14.318-.051-108.053-79.865-199.479-186.922-214.116s-208.484 52.01-237.536 156.084 23.189 213.618 122.348 256.547 214.787 6.062 270.797-86.341c-6.916-1.415-13.449-4.296-19.159-8.447-51.778 82.585-156.468 114.43-245.463 74.665s-135.118-138.995-108.144-232.662 118.81-153.169 215.323-139.51 168.231 96.306 168.155 193.78c0 3.399-.103 6.901-.309 10.301z"/><path id="Shape_455_" d="m562.316 347.788c-4.584 27.88-13.553 54.858-26.576 79.933-60.799 118.2-197.982 175.32-324.702 135.198-126.72-40.121-206.031-165.786-187.722-297.439s128.897-230.91 261.757-234.933 249.251 88.36 275.492 218.664c5.122-1.663 10.477-2.497 15.863-2.472 1.55 0 3.099.104 4.635.309-29.352-149.179-167.837-251.194-319.011-235s-264.909 145.227-261.997 297.238 121.504 276.594 273.187 286.988c151.683 10.393 286.16-96.85 309.778-247.043-2.176.38-4.384.553-6.592.515-4.77-.023-9.516-.681-14.112-1.958z"/><circle id="Oval_21_" cx="576.428" cy="298.242" r="30.902"/><circle id="Oval_20_" cx="463.121" cy="390.948" r="30.902"/></g></g></g></svg>