<svg id="Capa_1" enable-background="new 0 0 607.737 607.737" height="512" viewBox="0 0 607.737 607.737" width="512" xmlns="http://www.w3.org/2000/svg"><g><g id="Page-1_43_"><g id="_x30_44---Lunar-Lander"><path id="Shape_490_" d="m258.462 89.099c-21.834 13.307-36.649 35.606-40.453 60.891s3.793 50.956 20.745 70.098v-46.448c.032-9.33 4.086-18.194 11.124-24.32z"/><path id="Shape_489_" d="m251.278 293.016h105.182l-3.755-26.23c-4.927 2.93-10.546 4.492-16.279 4.525h-65.115c-5.732-.033-11.352-1.595-16.279-4.525z"/><path id="Shape_488_" d="m303.869 0c-17.981 0-32.557 14.576-32.557 32.557s14.576 32.557 32.557 32.557 32.557-14.576 32.557-32.557c-.054-17.958-14.599-32.503-32.557-32.557zm0 43.41c-5.994 0-10.852-4.859-10.852-10.852s4.859-10.852 10.852-10.852c5.994 0 10.852 4.859 10.852 10.852s-4.859 10.852-10.852 10.852z"/><path id="Shape_487_" d="m303.869 86.82c-7.755-.025-15.412-1.732-22.443-5.003l-8.443 59.265h61.772l-8.443-59.265c-7.032 3.27-14.689 4.977-22.443 5.003z"/><path id="Shape_486_" d="m260.459 173.639v65.115c0 5.994 4.859 10.852 10.852 10.852h65.115c5.994 0 10.852-4.859 10.852-10.852v-65.115c0-5.994-4.859-10.852-10.852-10.852h-65.115c-5.993 0-10.852 4.859-10.852 10.852zm21.705 21.705c0-5.994 4.859-10.852 10.852-10.852 5.994 0 10.852 4.859 10.852 10.852v21.705c0 5.994-4.859 10.852-10.852 10.852-5.994 0-10.852-4.859-10.852-10.852z"/><path id="Shape_485_" d="m242.227 32.557-68.587 48.999v211.46h55.706l6.598-45.971c-29.498-23.579-44.551-60.844-39.707-98.296s28.883-69.66 63.409-84.959c-6.516-9.112-10.025-20.031-10.039-31.233z"/><path id="Shape_484_" d="m455.803 303.869h38.635c3.261.004 6.351-1.459 8.415-3.984s2.883-5.844 2.231-9.039l-14.77-73.797h-34.511z"/><path id="Shape_483_" d="m477.508 162.787h-21.705v32.557h32.557v-21.705c0-5.993-4.859-10.852-10.852-10.852z"/><path id="Shape_482_" d="m390.688 162.787c-.027-30.096-15.717-58.009-41.413-73.677l8.584 60.209c7.037 6.126 11.091 14.99 11.124 24.32v46.448c13.975-15.817 21.694-36.193 21.705-57.3z"/><path id="Shape_481_" d="m368.983 336.426c5.994 0 10.852-4.859 10.852-10.852v-10.852h-151.934v10.852c0 5.994 4.859 10.852 10.852 10.852h36.464c16.36-14.469 40.941-14.469 57.301 0z"/><path id="Shape_480_" d="m434.098 293.016v-211.46l-68.587-48.999h-7.38c-.013 11.202-3.523 22.121-10.039 31.233 34.523 15.301 58.559 47.507 63.405 84.957s-10.201 74.713-39.693 98.298l6.587 45.971z"/><path id="Shape_479_" d="m260.459 368.983c-.033-3.665.442-7.318 1.411-10.852h-23.116c-17.959-.054-32.504-14.599-32.557-32.557v-10.852h-35.596c-1.429 2.494-3.349 4.672-5.643 6.403l-12.263 20.077c9.979 11.885 12.798 28.217 7.38 42.759l-11.395 30.929 23.224 60.557c.217.434.434 1.085.651 1.628l5.86 15.193c1.596 4.186 5.613 6.951 10.093 6.946h71.952v-130.231zm-10.853 75.967c-.036 11.972-9.732 21.669-21.705 21.705h-21.705c-11.972-.036-21.669-9.732-21.705-21.705v-43.41c.036-11.972 9.732-21.669 21.705-21.705h21.705c11.972.036 21.669 9.732 21.705 21.705z"/><path id="Shape_478_" d="m282.164 607.737h43.41c11.987 0 21.705-9.718 21.705-21.705h-86.82c0 11.988 9.717 21.705 21.705 21.705z"/><path id="Rectangle-path_84_" d="m206.197 401.541h21.716v43.41h-21.716z"/><path id="Shape_477_" d="m447.664 383.96c-5.418-14.542-2.6-30.874 7.38-42.759l-12.263-20.077c-2.295-1.731-4.214-3.909-5.643-6.403h-35.596v10.852c-.054 17.959-14.599 32.504-32.557 32.557h-23.116c.969 3.535 1.444 7.187 1.411 10.852v130.229h71.952c4.43.03 8.411-2.696 9.984-6.837l5.969-15.302 23.875-62.185z"/><path id="Shape_476_" d="m542.622 607.737h43.41c11.987 0 21.705-9.718 21.705-21.705h-86.82c.001 11.988 9.718 21.705 21.705 21.705z"/><path id="Shape_475_" d="m21.705 607.737h43.41c11.987 0 21.705-9.718 21.705-21.705h-86.82c0 11.988 9.718 21.705 21.705 21.705z"/><path id="Shape_474_" d="m86.82 0c-17.981 0-32.558 14.576-32.558 32.557s14.577 32.558 32.558 32.558 32.557-14.576 32.557-32.557c-.054-17.959-14.599-32.504-32.557-32.558zm0 43.41c-5.994 0-10.852-4.859-10.852-10.852s4.859-10.852 10.852-10.852 10.852 4.859 10.852 10.852-4.859 10.852-10.852 10.852z"/><path id="Shape_473_" d="m119.377 173.639v21.705h32.557v-32.557h-21.705c-5.993 0-10.852 4.859-10.852 10.852z"/><path id="Shape_472_" d="m102.653 290.846c-.652 3.195.167 6.514 2.231 9.039s5.154 3.988 8.415 3.984h38.635v-86.82h-34.511z"/><path id="Shape_471_" d="m56.433 539.909c-3.467-1.261-6.751-2.976-9.767-5.101l-10.852 29.519h23.224l8.139-22.03c-3.681-.251-7.303-1.056-10.744-2.388z"/><path id="Shape_470_" d="m152.26 484.67-.217-.434-4.233-10.961-23.224 7.163-9.55 25.72 40.588-12.589-3.364-8.682z"/><path id="Shape_469_" d="m293.016 552.064v12.263h21.705v-12.263c-7.113 1.881-14.592 1.881-21.705 0z"/><path id="Shape_468_" d="m540.561 542.297 8.139 22.03h23.224l-10.852-29.519c-3.016 2.125-6.3 3.84-9.767 5.101-3.441 1.332-7.064 2.137-10.744 2.388z"/><path id="Shape_467_" d="m459.927 473.275-4.45 11.612-3.472 8.682 40.696 12.589-9.55-25.72z"/><path id="Shape_466_" d="m126.865 348.581c-11.266-4.095-23.725 1.674-27.891 12.914l-47.967 130.23c-2.715 7.426-1.177 15.741 4.015 21.705 2.372 2.807 5.441 4.941 8.899 6.186 2.405.852 4.937 1.293 7.488 1.302 1.085 0 2.17-.109 3.256-.217 6.068-.979 11.454-4.439 14.868-9.55.951-1.377 1.718-2.873 2.279-4.449l6.729-18.232v-.108l41.239-111.889c1.994-5.411 1.753-11.392-.67-16.625-2.423-5.234-6.829-9.288-12.245-11.267z"/><path id="Shape_465_" d="m533.072 520.701c1.085.109 2.17.217 3.256.217 2.552-.01 5.083-.45 7.488-1.302 3.458-1.245 6.527-3.379 8.899-6.186 5.192-5.964 6.73-14.279 4.015-21.705l-47.968-130.229c-4.136-11.268-16.623-17.05-27.891-12.914s-17.05 16.623-12.914 27.891l41.239 111.997 6.729 18.232c.561 1.577 1.328 3.073 2.279 4.449 3.414 5.11 8.801 8.57 14.868 9.55z"/><path id="Shape_464_" d="m325.573 510.065v-141.082c0-11.987-9.718-21.705-21.705-21.705s-21.705 9.718-21.705 21.705v141.082c0 11.987 9.718 21.705 21.705 21.705 11.988 0 21.705-9.718 21.705-21.705z"/><path id="Shape_463_" d="m141.082 32.557h63.812l30.387-21.705h-98.649c2.93 6.862 4.443 14.245 4.45 21.705z"/><path id="Shape_462_" d="m151.934 80.525v-10.093l12.046-8.682-23.224-23.224c-.852 8.139-3.562 15.973-7.922 22.899z"/></g></g></g></svg>