<svg id="Capa_1" enable-background="new 0 0 597.267 597.267" height="512" viewBox="0 0 597.267 597.267" width="512" xmlns="http://www.w3.org/2000/svg"><g><g id="Page-1_44_"><g id="_x30_45---Lunar-Lander"><path id="Shape_499_" d="m192.013 245.228c0 11.777 9.547 21.324 21.324 21.324h170.593c11.777 0 21.324-9.547 21.324-21.324v-10.662h-213.241z"/><path id="Shape_498_" d="m347.839 325.46c1.967-3.133 2.142-7.069.458-10.364l-13.605-27.22h-72.118l-13.605 27.22c-1.651 3.304-1.474 7.228.467 10.37s5.371 5.056 9.065 5.058h80.264c3.705.025 7.151-1.898 9.074-5.064z"/><path id="Shape_497_" d="m327.421 351.848h-57.575c5.217 18.977 15.115 36.339 28.788 50.496 13.672-14.156 23.571-31.519 28.787-50.496z"/><path id="Shape_496_" d="m298.634 42.649c-35.331 0-63.972 28.641-63.972 63.972s28.641 63.972 63.972 63.972 63.972-28.641 63.972-63.972c-.035-35.316-28.656-63.937-63.972-63.972zm-39.525 45.772 21.324-21.324c4.184-4.041 10.834-3.983 14.946.13 4.113 4.113 4.171 10.763.13 14.946l-21.324 21.324c-4.184 4.041-10.834 3.983-14.946-.13s-4.17-10.763-.13-14.946zm79.049 4.414-53.31 53.31c-4.184 4.041-10.834 3.983-14.946-.13s-4.171-10.763-.13-14.946l53.31-53.31c4.184-4.041 10.834-3.983 14.946.13 4.113 4.112 4.171 10.762.13 14.946z"/><path id="Shape_495_" d="m405.254 367.841c-.042 15.8 9.897 29.905 24.79 35.182s31.495.576 41.411-11.726c-19.098-15.629-40.358-28.41-63.119-37.946-1.993 4.574-3.041 9.502-3.082 14.49z"/><circle id="Oval_24_" cx="271.979" cy="506.448" r="47.979"/><path id="Shape_494_" d="m524.072 538.861c-22.693-8.714-39.118-28.739-43.224-52.698-4.106-23.96 4.714-48.31 23.211-64.083-5.267-5.864-10.769-11.479-16.505-16.846-11.104 13.399-27.581 21.183-44.983 21.249-3.122-.048-6.21-.658-9.116-1.802-49.781-19.021-55.827-52.521-44.962-79.006-7.925-2.722-15.958-5.075-24.096-7.058-3.567 4.899-8.473 8.664-14.127 10.843-4.041 15.535-16.953 56.05-45.73 75.231-3.583 2.39-8.252 2.39-11.835 0-28.788-19.192-41.689-59.708-45.73-75.231-5.641-2.171-10.536-5.926-14.095-10.811-27.363 6.626-53.526 17.479-77.545 32.167 8.778 21.253 5.023 45.622-9.745 63.247-17.927 23.375-49.744 31.057-76.362 18.435-26.998 39.635-43.17 85.636-46.913 133.446-.183 2.94.859 5.825 2.879 7.97s4.837 3.359 7.783 3.353l531.312-.192c2.946.006 5.763-1.208 7.783-3.353s3.062-5.03 2.879-7.97c-1.23-15.037-3.683-29.95-7.336-44.589-14.362 4.126-29.695 3.315-43.543-2.302zm-412.024 26.228c-20.61 0-37.317-16.708-37.317-37.317s16.707-37.317 37.317-37.317 37.317 16.708 37.317 37.317-16.708 37.317-37.317 37.317zm159.931 10.662c-38.275 0-69.303-31.028-69.303-69.303s31.028-69.303 69.303-69.303 69.303 31.028 69.303 69.303c-.047 38.256-31.048 69.256-69.303 69.303zm154.599 0c-23.554 0-42.648-19.094-42.648-42.648s19.094-42.648 42.648-42.648 42.648 19.094 42.648 42.648c.001 23.554-19.094 42.648-42.648 42.648z"/><circle id="Oval_23_" cx="426.578" cy="533.103" r="21.324"/><path id="Shape_493_" d="m501.213 474.462c.029 26.486 21.493 47.95 47.979 47.979 4.264-.009 8.507-.597 12.613-1.749-9.754-29.818-24.629-57.708-43.96-82.418-10.525 9.084-16.593 22.285-16.632 36.188z"/><path id="Shape_492_" d="m82.375 434.831c14.986 5.066 31.545 1.421 43.018-9.469 11.474-10.89 15.977-27.236 11.699-42.466-20.559 14.69-38.975 32.169-54.717 51.935z"/><circle id="Oval_22_" cx="112.048" cy="527.772" r="15.993"/><path id="Shape_491_" d="m565.185 341.186c0-5.888-4.774-10.662-10.662-10.662h-14.074l-39.983-99.797v-.107l-18.659-46.593c-3.197-8.148-11.079-13.488-19.831-13.434h-56.722v-105.661c.019-4.984-1.718-9.816-4.905-13.647l-36.357-43.608c-4.045-4.892-10.072-7.71-16.42-7.677h-97.878c-6.347-.033-12.374 2.785-16.42 7.677l-36.358 43.608c-3.187 3.832-4.923 8.663-4.905 13.647v105.661h-56.722c-8.752-.053-16.635 5.286-19.831 13.434l-18.659 46.593v.107l-39.983 99.797h-14.072c-5.888 0-10.662 4.774-10.662 10.662s4.774 10.662 10.662 10.662h42.648c5.888 0 10.662-4.774 10.662-10.662s-4.774-10.662-10.662-10.662h-5.544l6.504-16.42 101.076-70.796c.239-.186.454-.401.64-.64.553-.478 1.054-1.014 1.493-1.599.425-.507.817-1.041 1.173-1.599.261-.623.475-1.264.64-1.919.254-.684.398-1.404.426-2.132.121-.27.193-.558.213-.853v-21.324h213.241v21.324c.02.295.092.583.213.853.029.729.172 1.449.427 2.132.165.655.379 1.296.64 1.919.356.558.748 1.092 1.173 1.599.439.585.939 1.121 1.493 1.599.186.239.401.454.64.64l101.076 70.796 6.504 16.42h-5.544c-5.888 0-10.662 4.774-10.662 10.662s4.774 10.662 10.662 10.662h42.648c5.887 0 10.661-4.773 10.661-10.662zm-464.322-63.258 13.082-32.701h33.596zm197.771-86.011c-47.108 0-85.296-38.189-85.296-85.296s38.189-85.296 85.296-85.296 85.296 38.189 85.296 85.296c-.053 47.086-38.21 85.243-85.296 85.296zm151.092 53.311h33.596l13.082 32.701z"/></g></g></g></svg>