<svg id="Capa_1" enable-background="new 0 0 607.737 607.737" height="512" viewBox="0 0 607.737 607.737" width="512" xmlns="http://www.w3.org/2000/svg"><g><g id="Page-1_45_"><g id="_x30_46---Lunar-Buggy"><path id="Shape_511_" d="m492.672 94.908c-2.378-2.341-5.749-3.374-9.031-2.769s-6.062 2.773-7.449 5.808c-12.805 27.049-7.228 59.228 13.932 80.39s53.338 26.743 80.389 13.941c3.039-1.384 5.21-4.164 5.815-7.448s-.431-6.656-2.776-9.032l-40.364-40.374h-.101v-.101z"/><path id="Shape_510_" d="m324.126 536.835h10.129c5.594 0 10.129-4.535 10.129-10.129v-10.129h-30.387v10.129c.001 5.594 4.535 10.129 10.129 10.129z"/><path id="Shape_509_" d="m192.45 121.547v-40.515c0-5.594-4.535-10.129-10.129-10.129h-111.418v60.774h111.418c5.594-.001 10.129-4.535 10.129-10.13z"/><path id="Shape_508_" d="m70.903 40.516v10.129h20.258v-10.129c0-5.594-4.535-10.129-10.129-10.129s-10.129 4.535-10.129 10.129z"/><path id="Shape_507_" d="m243.774 358.14c1.517 3.901 5.264 6.48 9.45 6.503h91.161c5.594 0 10.129-4.535 10.129-10.129s-4.535-10.129-10.129-10.129h-77.243c-4.193.003-7.955-2.579-9.46-6.493l-45.651-118.681c-2.079-5.107-7.86-7.613-13.009-5.639-5.148 1.974-7.771 7.704-5.902 12.891z"/><circle id="Oval_26_" cx="131.676" cy="486.19" r="20.258"/><path id="Shape_506_" d="m546.964 486.19c0-39.158-31.744-70.903-70.903-70.903s-70.903 31.744-70.903 70.903 31.744 70.903 70.903 70.903c39.137-.051 70.852-31.766 70.903-70.903zm-70.903 40.516c-22.376 0-40.516-18.14-40.516-40.516s18.14-40.516 40.516-40.516 40.516 18.14 40.516 40.516-18.14 40.516-40.516 40.516z"/><path id="Shape_505_" d="m202.579 486.19c0-39.158-31.744-70.903-70.903-70.903s-70.903 31.744-70.903 70.903 31.744 70.903 70.903 70.903c39.138-.051 70.853-31.766 70.903-70.903zm-70.903 40.516c-22.376 0-40.516-18.14-40.516-40.516s18.14-40.516 40.516-40.516 40.516 18.14 40.516 40.516-18.139 40.516-40.516 40.516z"/><circle id="Oval_25_" cx="476.061" cy="486.19" r="20.258"/><path id="Shape_504_" d="m20.258 557.092h-10.129c-5.594 0-10.129 4.535-10.129 10.129s4.535 10.129 10.129 10.129h10.129c5.594 0 10.129-4.535 10.129-10.129s-4.535-10.129-10.129-10.129z"/><path id="Shape_503_" d="m597.608 557.092h-10.129c-5.594 0-10.129 4.535-10.129 10.129s4.535 10.129 10.129 10.129h10.129c5.594 0 10.129-4.535 10.129-10.129s-4.535-10.129-10.129-10.129z"/><path id="Shape_502_" d="m526.706 364.642v-146.525c-6.937-1.023-13.734-2.838-20.258-5.409v145.482c-9.95-2.41-20.149-3.644-30.387-3.677-.425 0-.841.061-1.256.061l-66.031-99 32.848-24.634c4.475-3.356 5.382-9.705 2.026-14.181s-9.705-5.382-14.181-2.026l-81.032 60.774c-2.895 2.171-4.412 5.722-3.979 9.315s2.75 6.682 6.077 8.103c3.328 1.422 7.161.96 10.056-1.212l31.947-23.965 59.386 89.034c-51.112 9.651-91.785 48.428-103.862 99.021h-34.064v20.258h-20.256v-20.258c0-11.188 9.07-20.258 20.258-20.258h30.387v-50.645h-128.983c-9.989-8.258-21.135-15.008-33.081-20.035v-81.254c0-5.594-4.535-10.129-10.129-10.129h-50.645c-5.594 0-10.129 4.535-10.129 10.129v72.625c-6.885 1.038-13.676 2.623-20.309 4.74h.051v-209.042h-20.257v217.56c-43.523 22.659-70.846 67.628-70.903 116.696 0 5.594 4.535 10.129 10.129 10.129s10.129-4.535 10.129-10.129c-.245-58.709 45.11-107.535 103.678-111.614 58.568-4.078 110.252 37.99 118.146 96.167 2.267 14.761 14.997 25.638 29.931 25.576h82.5c5.594 0 10.129-4.535 10.129-10.129 0-61.535 49.884-111.418 111.418-111.418s111.418 49.884 111.418 111.418c0 5.594 4.535 10.129 10.129 10.129s10.129-4.535 10.129-10.129c-.051-53.142-31.996-101.061-81.03-121.548z"/><path id="Shape_501_" d="m574.413 94.098c-3.981-3.95-10.402-3.95-14.383 0l-19.751 19.751 14.383 14.383 19.752-19.751c3.949-3.981 3.949-10.402-.001-14.383z"/><path id="Shape_500_" d="m546.964 557.092h-486.19c-5.594 0-10.129 4.535-10.129 10.129s4.535 10.129 10.129 10.129h486.19c5.594 0 10.129-4.535 10.129-10.129s-4.535-10.129-10.129-10.129z"/></g></g></g></svg>