<svg id="Capa_1" enable-background="new 0 0 607.737 607.737" height="512" viewBox="0 0 607.737 607.737" width="512" xmlns="http://www.w3.org/2000/svg"><g><g id="Page-1_46_"><g id="_x30_47---Mars-Buggy"><path id="Shape_520_" d="m192.45 189.767v-41.083c-7.012-1.574-13.812-3.974-20.258-7.151v48.234z"/><path id="Shape_519_" d="m20.258 220.154v101.29h344.384v-101.29c0-5.594-4.535-10.129-10.129-10.129h-324.126c-5.594 0-10.129 4.535-10.129 10.129zm20.258 20.258c0-5.594 4.535-10.129 10.129-10.129h20.258c5.594 0 10.129 4.535 10.129 10.129s-4.535 10.129-10.129 10.129h-10.129v10.129c0 5.594-4.535 10.129-10.129 10.129s-10.129-4.535-10.129-10.129z"/><path id="Shape_518_" d="m465.932 230.283v70.903c0 5.594 4.535 10.129 10.129 10.129h111.418v-91.161h-111.418c-5.594 0-10.129 4.535-10.129 10.129zm78.064 2.967c3.954 3.955 3.954 10.367 0 14.322l-50.645 50.645c-3.974 3.839-10.292 3.784-14.199-.123s-3.962-10.225-.123-14.199l50.645-50.645c3.955-3.954 10.366-3.954 14.322 0zm-54.838 0c3.974-3.839 10.292-3.784 14.199.123s3.962 10.225.123 14.199l-10.129 10.129c-3.974 3.839-10.292 3.784-14.199-.123s-3.962-10.225-.123-14.199z"/><path id="Shape_517_" d="m205.537 67.206-40.435-40.516c-2.378-2.341-5.749-3.374-9.031-2.769s-6.062 2.773-7.449 5.808c-12.783 27.064-7.194 59.241 13.968 80.408s53.336 26.768 80.404 13.993c3.042-1.383 5.216-4.166 5.822-7.452.606-3.287-.434-6.661-2.783-9.038l-40.415-40.435h-.081z"/><circle id="Oval_29_" cx="131.676" cy="493.635" r="20.258"/><circle id="Oval_28_" cx="476.061" cy="493.635" r="20.258"/><circle id="Oval_27_" cx="303.869" cy="493.635" r="20.258"/><path id="Shape_516_" d="m20.258 564.538h-10.129c-5.594 0-10.129 4.535-10.129 10.129s4.535 10.129 10.129 10.129h10.129c5.594 0 10.129-4.535 10.129-10.129s-4.535-10.129-10.129-10.129z"/><path id="Shape_515_" d="m597.608 564.538h-10.129c-5.594 0-10.129 4.535-10.129 10.129s4.535 10.129 10.129 10.129h10.129c5.594 0 10.129-4.535 10.129-10.129s-4.535-10.129-10.129-10.129z"/><path id="Shape_514_" d="m587.479 402.475v-30.387h-20.258c-5.594 0-10.129-4.535-10.129-10.129s4.535-10.129 10.129-10.129h20.258v-20.258h-111.418c-16.782 0-30.387-13.605-30.387-30.387v-70.903c0-16.782 13.605-30.387 30.387-30.387h107.225l-37.548-37.548c-1.899-1.9-4.475-2.967-7.161-2.968h-103.032c-5.594 0-10.129 4.535-10.129 10.129v202.64c-7.052 2.952-13.83 6.518-20.258 10.656v-122.135h-20.258v129.367c-6.333-5.003-13.115-9.411-20.258-13.168v-35.168h-344.384v60.774c.036 4.759 3.429 8.83 8.103 9.724-18.377 23.165-28.373 51.868-28.361 81.437 0 5.594 4.535 10.129 10.129 10.129s10.129-4.535 10.129-10.129c.073-61.505 49.914-111.346 111.418-111.418 29.65-.101 58.091 11.742 78.905 32.858 4.026 3.838 10.357 3.838 14.383 0 20.871-21.031 49.275-32.86 78.905-32.86s58.033 11.829 78.905 32.86c4.026 3.838 10.357 3.838 14.383 0 20.814-21.116 49.255-32.96 78.905-32.858 61.505.073 111.346 49.914 111.418 111.418 0 5.594 4.535 10.129 10.129 10.129s10.129-4.535 10.129-10.129c.012-29.569-9.984-58.272-28.361-81.437 4.674-.893 8.066-4.964 8.102-9.723z"/><path id="Shape_513_" d="m567.221 493.635c.018-44.523-32.144-82.538-76.055-89.895s-86.707 18.099-101.202 60.197c-12.626-36.775-47.215-61.47-86.096-61.47s-73.471 24.696-86.096 61.47c-12.599-36.614-46.966-61.263-85.686-61.457s-73.332 24.109-86.298 60.594c-12.965 36.485-1.451 77.18 28.709 101.463h-13.723c-5.594 0-10.129 4.535-10.129 10.129s4.535 10.129 10.129 10.129h486.19c5.594 0 10.129-4.535 10.129-10.129s-4.535-10.129-10.129-10.129h-13.725c21.479-17.268 33.975-43.341 33.982-70.902zm-435.545 40.516c-22.376 0-40.516-18.14-40.516-40.516s18.14-40.516 40.516-40.516 40.516 18.14 40.516 40.516c0 22.377-18.139 40.516-40.516 40.516zm57.178 30.387c13.304-10.759 23.324-25.035 28.918-41.205 5.595 16.17 15.614 30.446 28.918 41.205zm115.015-30.387c-22.376 0-40.516-18.14-40.516-40.516s18.14-40.516 40.516-40.516 40.516 18.14 40.516 40.516c-.001 22.377-18.14 40.516-40.516 40.516zm57.178 30.387c13.304-10.759 23.324-25.035 28.918-41.205 5.595 16.17 15.614 30.446 28.918 41.205zm115.014-30.387c-22.376 0-40.516-18.14-40.516-40.516s18.14-40.516 40.516-40.516 40.516 18.14 40.516 40.516c0 22.377-18.14 40.516-40.516 40.516z"/><path id="Shape_512_" d="m246.741 25.982c-1.868-1.943-4.446-3.04-7.141-3.04s-5.273 1.098-7.141 3.04l-19.751 19.65 14.383 14.383 19.65-19.751c3.928-3.951 3.928-10.332 0-14.282z"/></g></g></g></svg>