<svg id="Capa_1" enable-background="new 0 0 594.054 594.054" height="512" viewBox="0 0 594.054 594.054" width="512" xmlns="http://www.w3.org/2000/svg"><g><g id="Page-1_47_"><g id="_x30_48---Lunar-Orbit"><circle id="Oval_32_" cx="113.658" cy="518.214" r="15.717"/><path id="Shape_543_" d="m139.854 387.236c-.012-4.096-.63-8.167-1.834-12.081-20.337 14.578-38.563 31.894-54.162 51.459 12.821 4.688 27.124 2.801 38.291-5.052 11.166-7.853 17.78-20.675 17.705-34.326z"/><path id="Shape_542_" d="m543.265 512.975c4.253-.008 8.484-.603 12.574-1.771-9.577-29.34-24.107-56.823-42.961-81.259-15.113 12.746-20.647 33.579-13.852 52.145s24.469 30.905 44.239 30.885z"/><path id="Shape_541_" d="m438.483 397.714c11.243-.044 21.844-5.242 28.763-14.104-19.006-15.122-39.958-27.623-62.293-37.166-5.062 11.312-4.022 24.422 2.761 34.794s18.377 16.58 30.769 16.476z"/><circle id="Oval_31_" cx="270.832" cy="497.257" r="47.152"/><circle id="Oval_30_" cx="422.766" cy="523.453" r="20.956"/><path id="Shape_540_" d="m518.663 529.143c-22.449-8.579-38.673-28.408-42.638-52.111s4.923-47.732 23.358-63.15c-5.204-5.763-10.649-11.296-16.336-16.598-10.894 13.453-27.253 21.304-44.564 21.386-3.597-.055-7.152-.787-10.478-2.159-47.665-18.945-53.355-51.71-42.573-77.539-76.369-25.919-160.267-16.993-229.473 24.414 6.657 16.591 5.998 35.221-1.814 51.301-7.812 16.079-22.051 28.112-39.208 33.133-14.602 4.07-30.183 2.738-43.883-3.751-26.336 39.044-42.059 84.269-45.622 131.229-.18 2.89.845 5.725 2.83 7.833s4.753 3.301 7.649 3.295l522.13-.105c2.899.006 5.671-1.19 7.657-3.302 1.986-2.113 3.007-4.953 2.821-7.847-1.147-14.782-3.488-29.447-6.999-43.851-14.127 4.099-29.22 3.332-42.857-2.178zm-405.005 25.745c-20.254 0-36.674-16.419-36.674-36.674 0-20.254 16.419-36.674 36.674-36.674s36.674 16.419 36.674 36.674c0 20.254-16.419 36.674-36.674 36.674zm157.174 10.478c-37.615 0-68.108-30.493-68.108-68.108s30.493-68.108 68.108-68.108 68.108 30.493 68.108 68.108c-.046 37.595-30.512 68.062-68.108 68.108zm151.934 0c-23.148 0-41.913-18.765-41.913-41.913s18.765-41.913 41.913-41.913 41.913 18.765 41.913 41.913-18.765 41.913-41.913 41.913z"/><path id="Shape_539_" d="m405.037 116.258c-11.545-6.508-23.72-11.831-36.339-15.885-50.075-15.843-122.145-18.19-160.516-18.19-4.453 0-8.466 0-11.924.084-4.102.067-7.587 3.017-8.33 7.052l-.671 3.563-11.201 59.946c-.755 4.035 1.436 8.043 5.239 9.588 30.837 12.406 108.837 41.672 167.358 45.381 13.226.812 26.501.275 39.618-1.603zm-25.431 41.798c-4.342 23.055-24.457 39.77-47.917 39.817-3.016-.002-6.025-.279-8.99-.828-26.479-4.949-43.934-30.426-38.986-56.905s30.425-43.935 56.904-38.987c26.48 4.947 43.936 30.423 38.989 56.903z"/><path id="Shape_538_" d="m336.771 121.76c-7.255-1.366-14.756.209-20.849 4.378s-10.278 10.589-11.634 17.847c-2.826 15.1 7.122 29.631 22.221 32.461 15.099 2.829 29.633-7.115 32.466-22.213 2.834-15.1-7.107-29.637-22.204-32.473z"/><path id="Shape_537_" d="m194.1 189.899c-4.968 12.822-11.632 24.92-19.814 35.972-2.353 3.326-2.564 7.715-.542 11.252 2.023 3.537 5.912 5.581 9.972 5.24 32.742-2.719 64.707-11.428 94.304-25.693-28.426-7.437-56.439-16.373-83.92-26.771z"/><path id="Shape_536_" d="m306.541 66.686c-22.628-23.988-49.44-43.648-79.121-58.018-3.693-1.781-8.085-1.245-11.241 1.372s-4.496 6.835-3.428 10.793c3.618 13.186 5.471 26.794 5.512 40.467 29.5.23 58.968 2.027 88.278 5.386z"/><path id="Shape_535_" d="m471.909 175.345c.512-2.728-.297-5.537-2.179-7.576-13.706-14.809-28.998-28.067-45.601-39.534l-13.779 73.788c19.709-4.737 38.827-11.656 57.002-20.632 2.401-1.166 4.097-3.415 4.557-6.046z"/><path id="Shape_534_" d="m164.394 101.117c-6.423.505-12.759 1.807-18.861 3.877-3.577 1.24-6.215 4.302-6.91 8.024-.695 3.721.658 7.53 3.547 9.978 4.95 4.139 10.399 7.642 16.22 10.426z"/><path id="Shape_533_" d="m286.549 282.454h20.956c5.787 0 10.478-4.691 10.478-10.478s-4.691-10.478-10.478-10.478h-20.956c-5.787 0-10.478 4.691-10.478 10.478s4.691 10.478 10.478 10.478z"/><path id="Shape_532_" d="m228.479 268.413c-5.355.938-9.103 5.815-8.631 11.231s5.007 9.571 10.443 9.568c.615 0 1.229-.056 1.834-.168l20.632-3.646c5.569-1.129 9.223-6.492 8.237-12.088s-6.253-9.386-11.873-8.544z"/><path id="Shape_531_" d="m176.087 305.631c1.226-.004 2.442-.22 3.594-.639l19.689-7.167c5.437-1.985 8.235-8.001 6.25-13.438s-8.001-8.235-13.438-6.25l-19.689 7.167c-4.785 1.737-7.63 6.661-6.743 11.674.886 5.012 5.247 8.663 10.337 8.653z"/><path id="Shape_530_" d="m152.763 305.013c-2.894-5.011-9.302-6.728-14.313-3.835l-18.148 10.478c-3.244 1.872-5.243 5.332-5.243 9.077-.001 3.745 1.996 7.206 5.239 9.079s7.239 1.874 10.483.003l18.148-10.478c2.409-1.39 4.167-3.68 4.887-6.367.718-2.687.34-5.549-1.053-7.957z"/><path id="Shape_529_" d="m80.222 365.232c2.458-.007 4.836-.879 6.717-2.462l16.053-13.475c2.907-2.389 4.31-6.154 3.675-9.864-.635-3.709-3.211-6.793-6.747-8.079-3.537-1.286-7.491-.576-10.361 1.859l-16.084 13.475c-3.41 2.825-4.676 7.49-3.161 11.651 1.513 4.161 5.48 6.921 9.908 6.895z"/><path id="Shape_528_" d="m46.912 373.247-13.475 16.084c-2.563 2.847-3.368 6.865-2.1 10.479s4.407 6.249 8.186 6.871 7.597-.868 9.956-3.885l13.475-16.084c3.477-4.448 2.806-10.85-1.518-14.48s-10.747-3.18-14.524 1.015z"/><path id="Shape_527_" d="m26.196 416.24c-5.012-2.893-11.42-1.176-14.313 3.835l-10.478 18.148c-2.893 5.014-1.174 11.425 3.84 14.318s11.425 1.174 14.318-3.84l10.478-18.148c1.389-2.408 1.764-5.269 1.042-7.953-.72-2.685-2.478-4.973-4.887-6.36z"/><path id="Shape_526_" d="m344.934 264.766c-3.732-.757-7.58.57-10.052 3.466s-3.179 6.905-1.845 10.472c1.333 3.567 4.496 6.129 8.262 6.694l20.632 3.646c.605.112 1.219.168 1.834.168 5.436.002 9.971-4.153 10.443-9.568.472-5.416-3.276-10.293-8.631-11.231z"/><path id="Shape_525_" d="m394.684 297.825 19.689 7.167c1.152.42 2.368.636 3.594.639 5.09.009 9.451-3.641 10.337-8.654s-1.958-9.937-6.743-11.674l-19.689-7.167c-5.437-1.985-11.453.813-13.438 6.25-1.985 5.438.813 11.454 6.25 13.439z"/><path id="Shape_524_" d="m477.588 325.97c2.893-5.012 1.176-11.42-3.835-14.313l-18.148-10.478c-5.014-2.893-11.425-1.174-14.318 3.84-2.894 5.014-1.174 11.425 3.84 14.319l18.148 10.478c2.408 1.389 5.269 1.763 7.953 1.042s4.972-2.48 6.36-4.888z"/><path id="Shape_523_" d="m521.869 361.438c3.715-4.431 3.138-11.033-1.289-14.753l-16.084-13.475c-4.448-3.477-10.85-2.806-14.48 1.518-3.629 4.324-3.18 10.746 1.015 14.524l16.053 13.475c4.431 3.715 11.033 3.138 14.753-1.289z"/><path id="Shape_522_" d="m560.617 389.332-13.475-16.084c-3.777-4.196-10.199-4.645-14.524-1.015-4.324 3.629-4.996 10.032-1.518 14.48l13.475 16.053c3.802 4.056 10.11 4.437 14.372.868 4.262-3.571 4.995-9.847 1.67-14.302z"/><path id="Shape_521_" d="m582.171 420.075c-1.872-3.244-5.332-5.242-9.077-5.243s-7.206 1.996-9.079 5.239-1.874 7.239-.003 10.483l10.478 18.148c2.893 5.014 9.304 6.734 14.319 3.84s6.734-9.304 3.84-14.318z"/></g></g></g></svg>