<svg id="Capa_1" enable-background="new 0 0 607.737 607.737" height="512" viewBox="0 0 607.737 607.737" width="512" xmlns="http://www.w3.org/2000/svg"><g><g id="Page-1_48_"><g id="_x30_49---Astronaut"><path id="Shape_554_" d="m97.672 217.049v54.262c0 5.994 4.859 10.852 10.852 10.852h10.852v-75.967h-10.852c-5.993.001-10.852 4.859-10.852 10.853z"/><path id="Shape_553_" d="m303.869 141.082c45.803-.496 89.636 18.601 120.462 52.482-22.178-46.17-69.251-75.16-120.462-74.187-51.212-.973-98.284 28.017-120.462 74.187 30.825-33.881 74.658-52.978 120.462-52.482z"/><path id="Shape_552_" d="m121.786 412.393h-34.966c-47.927.054-86.766 38.893-86.82 86.82v97.672c0 5.994 4.859 10.852 10.852 10.852h86.82v-86.82c0-5.994 4.859-10.852 10.852-10.852 5.994 0 10.852 4.859 10.852 10.852v86.82h173.639v-130.479c-83.357-2.344-157.707-31.081-171.229-64.865zm62.706 75.967c23.975 0 43.41 19.435 43.41 43.41s-19.435 43.41-43.41 43.41-43.41-19.435-43.41-43.41 19.435-43.41 43.41-43.41z"/><path id="Shape_551_" d="m488.36 390.688h32.557c11.044-.001 22.023 1.686 32.557 5.003v-308.871h-125.486c30.623 24.394 51.294 59.123 58.137 97.672h13.088c17.981 0 32.557 14.576 32.557 32.557v54.262c0 17.981-14.576 32.557-32.557 32.557h-10.853z"/><path id="Shape_550_" d="m553.475 21.705c0-11.987-9.718-21.705-21.705-21.705h-455.803c-11.987 0-21.705 9.718-21.705 21.705v43.41h158.619c57.206-28.94 124.768-28.94 181.974 0h158.619v-43.41z"/><path id="Shape_549_" d="m54.262 395.691c10.534-3.317 21.513-5.004 32.557-5.003h32.557v-86.82h-10.852c-17.981 0-32.557-14.576-32.557-32.557v-54.262c0-17.981 14.576-32.557 32.557-32.557h13.088c6.842-38.549 27.513-73.278 58.137-97.672h-125.487z"/><path id="Shape_548_" d="m510.065 271.311v-54.262c0-5.994-4.859-10.852-10.852-10.852h-10.853v75.967h10.852c5.994 0 10.853-4.859 10.853-10.853z"/><circle id="Oval_33_" cx="184.492" cy="531.77" r="21.705"/><path id="Shape_547_" d="m520.918 412.393h-34.967c-13.522 33.784-87.905 62.521-171.23 64.865v130.479h173.639v-86.82c0-5.994 4.859-10.852 10.852-10.852 5.994 0 10.852 4.859 10.852 10.852v86.82h86.82c5.994 0 10.852-4.859 10.852-10.852v-21.705h-54.262c-11.987 0-21.705-9.718-21.705-21.705v-32.557c0-11.987 9.718-21.705 21.705-21.705h54.262c-.053-47.927-38.892-86.766-86.818-86.82zm-86.82 141.082h-43.41c-17.981 0-32.557-14.576-32.557-32.557s14.576-32.557 32.557-32.557h43.41c17.981 0 32.557 14.576 32.557 32.557 0 17.98-14.576 32.557-32.557 32.557z"/><path id="Shape_546_" d="m434.098 510.065h-43.41c-5.994 0-10.852 4.859-10.852 10.852s4.859 10.852 10.852 10.852h43.41c5.994 0 10.852-4.859 10.852-10.852s-4.858-10.852-10.852-10.852z"/><path id="Shape_545_" d="m303.869 162.787c-63.867 0-118.661 40.371-128.547 94.21 9.626 57.171 63.519 101.134 128.547 101.134s118.932-43.974 128.547-101.167c-9.887-53.828-64.692-94.177-128.547-94.177zm-92.843 95.849c-2.395-1.597-4.057-4.081-4.621-6.903-.564-2.823.017-5.754 1.615-8.149l21.705-32.557c2.152-3.226 5.861-5.059 9.731-4.808s7.312 2.547 9.029 6.023c1.718 3.476 1.45 7.605-.702 10.831l-21.705 32.557c-1.597 2.395-4.081 4.057-6.903 4.621-2.823.563-5.755-.018-8.149-1.615zm91.019-46.416-65.115 97.672c-3.326 4.987-10.066 6.333-15.052 3.006-4.987-3.326-6.333-10.066-3.006-15.052l65.115-97.672c2.152-3.226 5.861-5.059 9.731-4.808s7.312 2.547 9.029 6.023c1.718 3.476 1.45 7.605-.702 10.831z"/><path id="Rectangle-path_85_" d="m553.475 520.918h54.262v32.557h-54.262z"/><path id="Shape_544_" d="m466.655 401.541v-192.631c0-79.288-73.026-143.795-162.787-143.795s-162.786 64.507-162.786 143.795v192.631c0 16.105 63.172 54.262 162.787 54.262s162.786-38.157 162.786-54.262zm-293.016 0c-5.994 0-10.852-4.859-10.852-10.852 0-5.994 4.859-10.852 10.852-10.852s10.852 4.859 10.852 10.852c.001 5.993-4.858 10.852-10.852 10.852zm32.558 10.852c-5.994 0-10.852-4.859-10.852-10.852 0-5.994 4.859-10.852 10.852-10.852s10.852 4.859 10.852 10.852-4.859 10.852-10.852 10.852zm248.195-155.19c-.058.402-.137.801-.239 1.194-10.288 68.501-73.699 121.439-150.285 121.439-76.38 0-139.595-52.656-150.198-120.896-.152-.533-.261-1.077-.326-1.628v-.25c-.898-6.062-1.37-12.18-1.411-18.308 0-77.79 68.153-141.082 151.934-141.082s151.934 63.291 151.934 141.082c-.05 6.117-.525 12.224-1.422 18.276z"/></g></g></g></svg>