<svg id="Capa_1" enable-background="new 0 0 597.548 597.548" height="512" viewBox="0 0 597.548 597.548" width="512" xmlns="http://www.w3.org/2000/svg"><g><g id="Page-1_49_"><g id="_x30_50---Moon-Rover-" transform="translate(0 -1)"><path id="Shape_567_" d="m540.895 526.34c4.181-.007 8.341-.593 12.361-1.741-9.411-28.844-23.695-55.862-42.233-79.881-14.856 12.53-20.297 33.01-13.617 51.261s24.054 30.381 43.489 30.361z"/><path id="Shape_566_" d="m95.825 279.125h8.241c4.999-29.725 30.734-51.493 60.877-51.493s55.878 21.768 60.877 51.493h11.207c0-34.133 27.67-61.804 61.804-61.804s61.804 27.67 61.804 61.804h11.228c4.999-29.725 30.734-51.493 60.877-51.493 30.142 0 55.878 21.768 60.877 51.493h8.138c3.192.034 6.217-1.423 8.181-3.941 1.964-2.517 2.641-5.806 1.831-8.894-10.29-35.091-42.458-59.217-79.026-59.27h-267.819c-36.584.047-68.774 24.163-79.099 59.26-.813 3.088-.139 6.378 1.823 8.897 1.962 2.52 4.986 3.979 8.179 3.948z"/><path id="Shape_565_" d="m432.738 248.223c-22.756 0-41.203 18.447-41.203 41.203s18.447 41.203 41.203 41.203 41.203-18.447 41.203-41.203-18.447-41.203-41.203-41.203zm0 51.503c-5.689 0-10.301-4.612-10.301-10.301s4.612-10.301 10.301-10.301 10.301 4.612 10.301 10.301-4.612 10.301-10.301 10.301z"/><path id="Shape_564_" d="m401.836 376.981c-.038 15.373 9.701 29.071 24.234 34.083s30.646.232 40.093-11.896c-18.684-14.866-39.281-27.155-61.237-36.536-2.007 4.519-3.059 9.404-3.09 14.349z"/><path id="Rectangle-path_86_" d="m154.621 83.413h20.601v61.804h-20.601z"/><path id="Shape_563_" d="m453.391 145.217v-31.201c-7.071-.463-14.024-2.041-20.601-4.676v35.877z"/><path id="Shape_562_" d="m412.775 40.583c-2.422 14.542 2.327 29.358 12.751 39.782s25.241 15.173 39.782 12.751c3.839-.609 7.007-3.328 8.194-7.029 1.186-3.701.189-7.755-2.58-10.482l-40.636-40.605c-2.723-2.768-6.772-3.769-10.471-2.589-3.699 1.179-6.421 4.339-7.04 8.172z"/><path id="Shape_561_" d="m92.817 176.119c0 5.689 4.612 10.301 10.301 10.301h391.424c5.689 0 10.301-4.612 10.301-10.301s-4.612-10.301-10.301-10.301h-391.424c-5.689 0-10.301 4.612-10.301 10.301z"/><path id="Shape_560_" d="m216.425 62.812c5.689 0 10.301-4.612 10.301-10.301v-20.601c0-5.689-4.612-10.301-10.301-10.301h-103.006c-5.689 0-10.301 4.612-10.301 10.301v20.601c0 5.689 4.612 10.301 10.301 10.301zm-82.405-10.301c-5.689 0-10.301-4.612-10.301-10.301s4.612-10.301 10.301-10.301 10.301 4.612 10.301 10.301c0 2.732-1.085 5.352-3.017 7.284s-4.552 3.017-7.284 3.017z"/><path id="Shape_559_" d="m257.627 279.125c0 22.756 18.447 41.203 41.203 41.203s41.203-18.447 41.203-41.203-18.447-41.203-41.203-41.203-41.203 18.448-41.203 41.203zm51.503 0c0 5.689-4.612 10.301-10.301 10.301s-10.301-4.612-10.301-10.301 4.612-10.301 10.301-10.301 10.301 4.612 10.301 10.301z"/><circle id="Oval_36_" cx="118.569" cy="531.491" r="15.451"/><circle id="Oval_35_" cx="273.078" cy="510.889" r="46.353"/><circle id="Oval_34_" cx="422.437" cy="536.641" r="20.601"/><path id="Shape_558_" d="m516.76 542.255c-22.076-8.422-38.038-27.909-41.946-51.212-3.908-23.302 4.821-46.931 22.941-62.095-5.116-5.665-10.469-11.104-16.059-16.316-10.713 13.218-26.795 20.928-43.809 21.003-3.477-.049-6.915-.748-10.136-2.06-46.981-18.613-52.585-50.854-41.975-76.225-75.074-25.48-157.551-16.705-225.584 24 6.552 16.326 5.897 34.66-1.803 50.477-7.699 15.817-21.726 27.642-38.617 32.556-14.33 3.97-29.61 2.65-43.046-3.719-25.895 38.36-41.368 82.796-44.9 128.943-.176 2.841.83 5.628 2.782 7.7 1.951 2.072 4.673 3.245 7.519 3.239l513.291-.103c2.85.006 5.575-1.169 7.527-3.246s2.956-4.869 2.774-7.714c-1.127-14.531-3.428-28.948-6.881-43.108-13.867 4.027-28.685 3.28-42.078-2.12zm-398.191 25.288c-19.911 0-36.052-16.141-36.052-36.052s16.141-36.052 36.052-36.052 36.052 16.141 36.052 36.052-16.141 36.052-36.052 36.052zm154.509 10.3c-36.978 0-66.954-29.976-66.954-66.954s29.976-66.954 66.954-66.954 66.954 29.976 66.954 66.954c-.045 36.959-29.995 66.909-66.954 66.954zm149.359 0c-22.756 0-41.203-18.447-41.203-41.203s18.447-41.203 41.203-41.203 41.203 18.447 41.203 41.203-18.447 41.203-41.203 41.203z"/><path id="Shape_557_" d="m89.274 441.443c14.624 5.317 30.997 1.904 42.278-8.814s15.528-26.895 10.966-41.772c-19.992 14.33-37.909 31.353-53.244 50.586z"/><path id="Shape_556_" d="m206.124 289.426c0-22.756-18.447-41.203-41.203-41.203s-41.203 18.447-41.203 41.203 18.447 41.203 41.203 41.203 41.203-18.448 41.203-41.203zm-51.503 0c0-5.689 4.612-10.301 10.301-10.301s10.301 4.612 10.301 10.301-4.612 10.301-10.301 10.301c-5.689-.001-10.301-4.612-10.301-10.301z"/><path id="Shape_555_" d="m501.855 18.622c4.017-4.048 4.017-10.579 0-14.627-4.018-3.994-10.506-3.994-14.524 0l-29.46 29.46 14.627 14.627z"/></g></g></g></svg>