<svg width="366" height="366" viewBox="0 0 366 366" fill="none" xmlns="http://www.w3.org/2000/svg">
<path d="M153.276 46.7914C152.246 43.9398 150.918 41.1482 149.283 38.4575C136.055 16.6956 107.692 9.77695 85.9294 23.0043C64.1674 36.2317 57.2486 64.5962 70.476 86.3581C72.1118 89.0492 73.979 91.5132 76.0365 93.7403C72.2523 98.2326 68.7752 102.932 65.6131 107.805C62.9132 106.55 60.0513 105.539 57.0485 104.807C32.3076 98.7718 7.35893 113.936 1.32411 138.677C-4.71072 163.417 10.4537 188.366 35.1945 194.4C37.8476 195.048 40.5033 195.451 43.1376 195.625C43.5738 201.484 44.3778 207.341 45.5579 213.16C43.2221 214.096 40.932 215.236 38.7107 216.587C16.9487 229.813 10.0298 258.178 23.2573 279.94C36.4848 301.702 64.8495 308.62 86.6115 295.392C88.3414 294.341 89.9774 293.195 91.5171 291.962C96.2988 296.116 101.326 299.916 106.556 303.35C105.865 305.155 105.28 307.024 104.81 308.953C98.7751 333.693 113.939 358.641 138.68 364.676C163.421 370.711 188.37 355.546 194.404 330.806C194.777 329.28 195.069 327.753 195.282 326.229C201.797 325.732 208.307 324.78 214.765 323.362C215.391 324.646 216.082 325.913 216.839 327.158C230.067 348.92 258.432 355.839 280.193 342.611C301.955 329.383 308.874 301.02 295.646 279.257C294.89 278.013 294.084 276.817 293.232 275.671C297.41 270.657 301.209 265.387 304.617 259.91C306.026 260.403 307.471 260.831 308.951 261.192C333.693 267.227 358.641 252.063 364.676 227.322C370.711 202.581 355.546 177.633 330.806 171.598C328.975 171.152 327.143 170.821 325.318 170.602C324.68 164.309 323.615 158.029 322.113 151.804C323.916 151.004 325.686 150.08 327.417 149.029C349.178 135.801 356.097 107.438 342.87 85.6754C329.642 63.9135 301.278 56.9951 279.515 70.2225C277.295 71.5723 275.228 73.0798 273.323 74.7218C268.657 70.9596 263.78 67.5199 258.729 64.4113C259.738 62.0683 260.566 59.6096 261.19 57.0483C267.225 32.3076 252.06 7.35889 227.32 1.32409C202.579 -4.7107 177.63 10.4537 171.596 35.1944C170.874 38.1501 170.456 41.1089 170.32 44.0379C164.619 44.6031 158.926 45.5183 153.276 46.7914Z" fill="white"/>
</svg>
