<svg width="2910" height="170" viewBox="0 0 2910 170" fill="none" xmlns="http://www.w3.org/2000/svg">
<rect width="2910" height="168" fill="#191818"/>
<rect y="0.169922" width="168" height="168" fill="white"/>
<rect x="64" y="0.169922" width="40" height="168" fill="#FEF151"/>
<rect y="104.17" width="40" height="168" transform="rotate(-90 0 104.17)" fill="#FEF151"/>
<rect x="32" y="32.1699" width="105" height="105" fill="#FEF151"/>
<rect x="2742" y="0.169922" width="168" height="168" fill="#A3E9FF"/>
<rect x="2806" y="0.169922" width="40" height="168" fill="#191818"/>
<rect x="2742" y="104.17" width="40" height="168" transform="rotate(-90 2742 104.17)" fill="#191818"/>
<rect x="2774" y="32.1699" width="105" height="105" fill="#191818"/>
<rect x="2069" y="0.169922" width="168" height="168" fill="#FEACFF"/>
<rect x="2133" y="0.169922" width="40" height="168" fill="#A3E9FF"/>
<rect x="2069" y="104.17" width="40" height="168" transform="rotate(-90 2069 104.17)" fill="#A3E9FF"/>
<rect x="2101" y="32.1699" width="105" height="105" fill="#A3E9FF"/>
<rect x="168" y="0.169922" width="168" height="168" fill="#FEF151"/>
<path fill-rule="evenodd" clip-rule="evenodd" d="M168.506 168.17C261.01 168.17 336 94.7444 336 4.16936C336 2.83262 335.983 1.49961 335.951 0.170519C335.799 0.170121 335.646 0.169922 335.494 0.169922C242.99 0.169922 168 73.5955 168 164.171C168 165.507 168.016 166.84 168.049 168.169C168.201 168.17 168.353 168.17 168.506 168.17Z" fill="#4B88FF"/>
<rect x="2574" y="0.169922" width="168" height="168" fill="#FEF151"/>
<path fill-rule="evenodd" clip-rule="evenodd" d="M2574.51 168.17C2667.01 168.17 2742 94.7444 2742 4.16936C2742 2.83262 2741.98 1.49961 2741.95 0.170519C2741.8 0.170121 2741.65 0.169922 2741.49 0.169922C2648.99 0.169922 2574 73.5955 2574 164.171C2574 165.507 2574.02 166.84 2574.05 168.169C2574.2 168.17 2574.35 168.17 2574.51 168.17Z" fill="#A3E9FF"/>
<rect x="336" y="0.169922" width="168" height="168" fill="#191818"/>
<path d="M420 1.16992L432.278 55.5271L479.397 25.773L449.643 72.8915L504 85.1699L449.643 97.4484L479.397 144.567L432.278 114.813L420 169.17L407.722 114.813L360.603 144.567L390.357 97.4484L336 85.1699L390.357 72.8915L360.603 25.773L407.722 55.5271L420 1.16992Z" fill="#FDACFF"/>
<rect x="2237" y="0.169922" width="168" height="168" fill="#FEF151"/>
<path d="M2321 1.16406L2333.28 55.1996L2380.4 25.6215L2350.64 72.4612L2405 84.667L2350.64 96.8728L2380.4 143.713L2333.28 114.134L2321 168.17L2308.72 114.134L2261.6 143.713L2291.36 96.8728L2237 84.667L2291.36 72.4612L2261.6 25.6215L2308.72 55.1996L2321 1.16406Z" fill="#4B88FF"/>
<rect x="504" y="0.169922" width="168" height="168" fill="#A3E9FF"/>
<circle cx="588" cy="84.1699" r="84" fill="white"/>
<rect x="672" y="0.169922" width="168" height="168" fill="#FDACFF"/>
<rect x="2406" y="0.169922" width="168" height="168" fill="#191818"/>
<path d="M2489.5 0.169918C2511.91 0.169917 2533.4 9.01989 2549.25 24.7729C2565.1 40.526 2574 61.8917 2574 84.1699C2574 106.448 2565.1 127.814 2549.25 143.567C2533.4 159.32 2511.91 168.17 2489.5 168.17L2489.5 84.1699L2489.5 0.169918Z" fill="#FDACFF"/>
<path d="M2404.5 0.169918C2426.91 0.169917 2448.4 9.01989 2464.25 24.7729C2480.1 40.526 2489 61.8917 2489 84.1699C2489 106.448 2480.1 127.814 2464.25 143.567C2448.4 159.32 2426.91 168.17 2404.5 168.17L2404.5 84.1699L2404.5 0.169918Z" fill="#FDACFF"/>
<path d="M742.356 21.6479C741.883 20.339 741.274 19.0576 740.523 17.8225C734.452 7.8335 721.432 4.6577 711.443 10.7293C701.454 16.8009 698.278 29.8206 704.35 39.8097C705.1 41.0449 705.958 42.176 706.902 43.1983C705.165 45.2603 703.569 47.4174 702.117 49.6544C700.878 49.078 699.565 48.614 698.186 48.2779C686.83 45.5078 675.378 52.4685 672.608 63.825C669.838 75.1811 676.798 86.6329 688.155 89.4028C689.373 89.6999 690.592 89.8852 691.801 89.965C692.001 92.6546 692.37 95.3427 692.912 98.0138C691.84 98.4433 690.788 98.9666 689.769 99.5867C679.78 105.658 676.604 118.678 682.675 128.667C688.747 138.656 701.767 141.832 711.756 135.76C712.55 135.277 713.301 134.751 714.008 134.185C716.203 136.092 718.51 137.836 720.911 139.412C720.594 140.241 720.325 141.099 720.109 141.984C717.339 153.34 724.3 164.792 735.656 167.562C747.013 170.332 758.465 163.372 761.235 152.016C761.406 151.315 761.54 150.614 761.638 149.914C764.628 149.686 767.616 149.249 770.581 148.598C770.868 149.188 771.185 149.769 771.533 150.341C777.604 160.33 790.624 163.506 800.613 157.434C810.602 151.362 813.778 138.343 807.706 128.354C807.359 127.783 806.99 127.233 806.599 126.707C808.516 124.406 810.26 121.987 811.824 119.473C812.471 119.699 813.134 119.896 813.814 120.062C825.17 122.831 836.622 115.871 839.392 104.515C842.162 93.158 835.202 81.7066 823.845 78.9363C823.005 78.7315 822.164 78.5798 821.326 78.4791C821.033 75.5906 820.545 72.7079 819.855 69.8505C820.683 69.4833 821.495 69.0592 822.29 68.5768C832.279 62.505 835.455 49.4856 829.383 39.4963C823.311 29.5073 810.291 26.3316 800.302 32.4032C799.283 33.0228 798.334 33.7147 797.46 34.4685C795.318 32.7415 793.08 31.1627 790.761 29.7358C791.224 28.6603 791.604 27.5317 791.89 26.356C794.661 14.9996 787.7 3.54777 776.344 0.777702C764.987 -1.99237 753.535 4.96834 750.765 16.3247C750.434 17.6814 750.242 19.0396 750.18 20.3841C747.563 20.6435 744.95 21.0636 742.356 21.6479Z" fill="#4B88FF"/>
<path d="M1290.08 55.2H1296.16L1319.36 112H1311.68L1304.96 95.36H1281.12L1274.48 112H1266.8L1290.08 55.2ZM1303.36 89.76L1293.12 63.52L1282.56 89.76H1303.36ZM1347.26 112.8C1344.01 112.8 1341.05 112 1338.38 110.4C1335.71 108.8 1333.61 106.72 1332.06 104.16V112H1325.82V53.6H1332.86V78.56C1334.62 75.84 1336.78 73.6533 1339.34 72C1341.9 70.3467 1344.89 69.52 1348.3 69.52C1351.18 69.52 1353.77 70.1333 1356.06 71.36C1358.35 72.5333 1360.3 74.16 1361.9 76.24C1363.55 78.2667 1364.81 80.5867 1365.66 83.2C1366.57 85.76 1367.02 88.4533 1367.02 91.28C1367.02 95.1733 1366.14 98.7733 1364.38 102.08C1362.67 105.333 1360.33 107.947 1357.34 109.92C1354.35 111.84 1350.99 112.8 1347.26 112.8ZM1345.5 106.72C1348.33 106.72 1350.81 106 1352.94 104.56C1355.07 103.067 1356.75 101.147 1357.98 98.8C1359.21 96.4533 1359.82 93.9467 1359.82 91.28C1359.82 88.56 1359.23 86 1358.06 83.6C1356.94 81.2 1355.34 79.28 1353.26 77.84C1351.23 76.3467 1348.86 75.6 1346.14 75.6C1343.15 75.6 1340.49 76.56 1338.14 78.48C1335.85 80.4 1334.09 82.6933 1332.86 85.36V97.44C1333.23 99.2 1334.09 100.8 1335.42 102.24C1336.81 103.627 1338.41 104.72 1340.22 105.52C1342.09 106.32 1343.85 106.72 1345.5 106.72ZM1393.9 112.8C1389.74 112.8 1386.06 111.813 1382.86 109.84C1379.72 107.813 1377.26 105.173 1375.5 101.92C1373.74 98.6133 1372.86 95.04 1372.86 91.2C1372.86 87.3067 1373.74 83.7333 1375.5 80.48C1377.32 77.1733 1379.8 74.5333 1382.94 72.56C1386.14 70.5333 1389.8 69.52 1393.9 69.52C1398.06 69.52 1401.72 70.5333 1404.86 72.56C1408.06 74.5333 1410.54 77.1733 1412.3 80.48C1414.12 83.7333 1415.02 87.3067 1415.02 91.2C1415.02 95.04 1414.12 98.6133 1412.3 101.92C1410.54 105.173 1408.09 107.813 1404.94 109.84C1401.8 111.813 1398.12 112.8 1393.9 112.8ZM1380.06 91.28C1380.06 94.16 1380.68 96.7733 1381.9 99.12C1383.18 101.467 1384.86 103.333 1386.94 104.72C1389.02 106.053 1391.34 106.72 1393.9 106.72C1396.46 106.72 1398.78 106.027 1400.86 104.64C1403 103.253 1404.68 101.387 1405.9 99.04C1407.18 96.64 1407.82 94 1407.82 91.12C1407.82 88.24 1407.18 85.6267 1405.9 83.28C1404.68 80.9333 1403 79.0667 1400.86 77.68C1398.78 76.2933 1396.46 75.6 1393.9 75.6C1391.34 75.6 1389.02 76.32 1386.94 77.76C1384.86 79.1467 1383.18 81.0133 1381.9 83.36C1380.68 85.7067 1380.06 88.3467 1380.06 91.28ZM1423.15 95.28V70.24H1430.2V93.92C1430.2 102.453 1433.16 106.72 1439.08 106.72C1441.96 106.72 1444.65 105.813 1447.16 104C1449.72 102.133 1451.61 99.6 1452.84 96.4V70.24L1459.88 70.24V104C1459.88 105.653 1460.62 106.507 1462.12 106.56V112C1461.32 112.107 1460.68 112.16 1460.2 112.16C1459.77 112.213 1459.34 112.24 1458.92 112.24C1457.58 112.24 1456.44 111.84 1455.48 111.04C1454.52 110.187 1454.01 109.147 1453.96 107.92L1453.8 103.04C1451.98 106.133 1449.53 108.533 1446.44 110.24C1443.4 111.947 1440.06 112.8 1436.44 112.8C1427.58 112.8 1423.15 106.96 1423.15 95.28ZM1493.2 109.92C1492.35 110.293 1490.99 110.827 1489.12 111.52C1487.31 112.213 1485.28 112.56 1483.04 112.56C1480.48 112.56 1478.27 111.867 1476.4 110.48C1474.54 109.04 1473.6 106.827 1473.6 103.84V75.76H1467.92V70.24H1473.6V56.32H1480.64V70.24H1490V75.76H1480.64V101.68C1480.75 103.173 1481.26 104.293 1482.16 105.04C1483.07 105.733 1484.14 106.08 1485.36 106.08C1486.75 106.08 1488.03 105.84 1489.2 105.36C1490.38 104.88 1491.15 104.533 1491.52 104.32L1493.2 109.92ZM1570.2 112V68.64L1551.48 102H1547.08L1528.28 68.64V112H1521.08V55.2H1528.68L1549.24 92.08L1569.88 55.2H1577.4V112H1570.2ZM1607.66 112.8C1603.5 112.8 1599.82 111.813 1596.62 109.84C1593.42 107.867 1590.91 105.227 1589.1 101.92C1587.29 98.6133 1586.38 95.0133 1586.38 91.12C1586.38 87.1733 1587.29 83.5733 1589.1 80.32C1590.91 77.0667 1593.42 74.4533 1596.62 72.48C1599.87 70.5067 1603.58 69.52 1607.74 69.52C1611.95 69.52 1615.61 70.5333 1618.7 72.56C1621.85 74.5333 1624.27 77.1467 1625.98 80.4C1627.74 83.6 1628.62 87.0667 1628.62 90.8C1628.62 91.9733 1628.57 92.88 1628.46 93.52H1593.82C1594.03 96.24 1594.78 98.6667 1596.06 100.8C1597.39 102.88 1599.1 104.533 1601.18 105.76C1603.26 106.933 1605.5 107.52 1607.9 107.52C1610.46 107.52 1612.86 106.88 1615.1 105.6C1617.39 104.32 1618.97 102.64 1619.82 100.56L1625.9 102.24C1624.57 105.333 1622.25 107.867 1618.94 109.84C1615.63 111.813 1611.87 112.8 1607.66 112.8ZM1593.58 88.64H1622.06C1621.85 85.92 1621.07 83.52 1619.74 81.44C1618.41 79.36 1616.7 77.7333 1614.62 76.56C1612.54 75.3867 1610.25 74.8 1607.74 74.8C1605.29 74.8 1603.02 75.3867 1600.94 76.56C1598.86 77.7333 1597.15 79.36 1595.82 81.44C1594.54 83.52 1593.79 85.92 1593.58 88.64Z" fill="white"/>
</svg>
