<svg width="2910" height="169" viewBox="0 0 2910 169" fill="none" xmlns="http://www.w3.org/2000/svg">
<rect width="2910" height="168" fill="#FEF151"/>
<rect x="2742" y="1" width="168" height="168" fill="#191818"/>
<path d="M2825.5 0.999996C2847.91 0.999995 2869.4 9.84997 2885.25 25.603C2901.1 41.3561 2910 62.7218 2910 85C2910 107.278 2901.1 128.644 2885.25 144.397C2869.4 160.15 2847.91 169 2825.5 169L2825.5 85L2825.5 0.999996Z" fill="#FDACFF"/>
<path d="M2740.5 0.999996C2762.91 0.999995 2784.4 9.84997 2800.25 25.603C2816.1 41.3561 2825 62.7218 2825 85C2825 107.278 2816.1 128.644 2800.25 144.397C2784.4 160.15 2762.91 169 2740.5 169L2740.5 85L2740.5 0.999996Z" fill="#FDACFF"/>
<rect x="672" y="1" width="168" height="168" fill="#191818"/>
<path d="M755.5 0.999996C777.911 0.999995 799.404 9.84997 815.251 25.603C831.097 41.3561 840 62.7218 840 85C840 107.278 831.097 128.644 815.251 144.397C799.404 160.15 777.911 169 755.5 169L755.5 85L755.5 0.999996Z" fill="#FDACFF"/>
<path d="M670.5 0.999996C692.911 0.999995 714.404 9.84997 730.251 25.603C746.097 41.3561 755 62.7218 755 85C755 107.278 746.097 128.644 730.251 144.397C714.404 160.15 692.911 169 670.5 169L670.5 85L670.5 0.999996Z" fill="#FDACFF"/>
<rect x="504.066" y="0.0761719" width="167.934" height="167.674" fill="#FEF151"/>
<rect width="118.763" height="118.763" transform="matrix(0.706968 0.707245 -0.706968 0.707245 587.958 0)" fill="#4B88FF"/>
<rect x="336" width="168" height="168" fill="#A3E9FF"/>
<rect x="371.848" y="36.0001" width="96" height="96" fill="#4B88FF"/>
<rect x="404" width="32" height="168" fill="#4B88FF"/>
<rect x="504" y="68.0001" width="32" height="168" transform="rotate(90 504 68.0001)" fill="#4B88FF"/>
<rect x="2236" width="168" height="168" fill="#4B88FF"/>
<path fill-rule="evenodd" clip-rule="evenodd" d="M2339.66 139.092C2339.94 139.836 2340.2 140.604 2340.4 141.395C2343.39 152.667 2336.78 164.254 2325.65 167.274C2314.52 170.295 2303.08 163.605 2300.1 152.333C2298.92 147.867 2299.24 143.353 2300.75 139.341C2298.6 138.587 2296.49 137.708 2294.43 136.71C2291.94 142.243 2287.11 146.647 2280.85 148.344C2269.72 151.365 2258.28 144.675 2255.3 133.403C2252.62 123.269 2257.69 112.881 2266.83 108.692C2265.98 106.891 2265.22 105.032 2264.54 103.12C2263.81 103.413 2263.05 103.667 2262.27 103.879C2251.14 106.899 2239.7 100.21 2236.72 88.9373C2233.73 77.6648 2240.34 66.0781 2251.47 63.0576C2255.88 61.8611 2260.34 62.1883 2264.3 63.7205C2264.95 61.8018 2265.7 59.9206 2266.54 58.0841C2261.38 55.4767 2257.3 50.7267 2255.69 44.6408C2252.71 33.3683 2259.32 21.7816 2270.45 18.7611C2280.09 16.1437 2289.97 20.8179 2294.37 29.4473C2296.49 28.4165 2298.7 27.5056 2300.97 26.7253C2300.96 26.6853 2300.95 26.6452 2300.94 26.6051C2297.96 15.3326 2304.56 3.74585 2315.69 0.725388C2326.82 -2.29506 2338.26 4.39453 2341.25 15.667C2342.32 19.7228 2342.15 23.8192 2340.98 27.5427C2342.66 28.2008 2344.31 28.9363 2345.92 29.746C2348.51 24.5703 2353.18 20.4882 2359.14 18.8688C2370.27 15.8483 2381.72 22.5379 2384.7 33.8104C2387.36 43.8798 2382.38 54.1999 2373.35 58.441C2374.16 60.26 2374.89 62.1356 2375.53 64.0641C2376.24 63.7834 2376.98 63.5393 2377.73 63.3346C2388.86 60.3141 2400.3 67.0037 2403.28 78.2762C2406.27 89.5487 2399.66 101.135 2388.53 104.156C2383.91 105.411 2379.23 104.99 2375.13 103.26C2374.45 105.153 2373.68 107.008 2372.82 108.818C2378.28 111.348 2382.63 116.236 2384.31 122.572C2387.29 133.844 2380.69 145.431 2369.56 148.452C2359.55 151.167 2349.29 146.035 2345.16 136.781C2343.38 137.637 2341.54 138.41 2339.66 139.092Z" fill="#A3E9FF"/>
<rect width="168" height="168" fill="#FDACFF"/>
<path fill-rule="evenodd" clip-rule="evenodd" d="M0.505692 168C93.0101 168 168 94.5749 168 4.00018C168 2.66319 167.983 1.32994 167.951 0.000597103C167.799 0.000199118 167.646 0 167.494 0C74.9896 0 0 73.4253 0 164C0 165.337 0.01634 166.67 0.0488346 168C0.201073 168 0.353358 168 0.505692 168Z" fill="#4B88FF"/>
<rect x="2404" width="168" height="168" fill="#FEF151"/>
<path fill-rule="evenodd" clip-rule="evenodd" d="M2404.51 168C2497.01 168 2572 94.5746 2572 3.99994C2572 2.66303 2571.98 1.32985 2571.95 0.000597119C2571.8 0.000199123 2571.65 0 2571.49 0C2478.99 0 2404 73.4253 2404 164C2404 165.337 2404.02 166.67 2404.05 167.999C2404.2 168 2404.35 168 2404.51 168Z" fill="#A3E9FF"/>
<rect x="2068" y="0.00170898" width="168" height="167.998" fill="#FEACFF"/>
<path d="M2152 0L2171.61 36.66L2211.4 24.6028L2199.34 64.3906L2236 83.9991L2199.34 103.608L2211.4 143.396L2171.61 131.338L2152 167.998L2132.39 131.338L2092.6 143.396L2104.66 103.608L2068 83.9991L2104.66 64.3906L2092.6 24.6028L2132.39 36.66L2152 0Z" fill="#4B88FF"/>
<rect x="2572" width="168" height="168" fill="#A3E9FF"/>
<rect x="2607.85" y="36.0001" width="96" height="96" fill="#4B88FF"/>
<rect x="2640" width="32" height="168" fill="#4B88FF"/>
<rect x="2740" y="67.9999" width="32" height="168" transform="rotate(90 2740 67.9999)" fill="#4B88FF"/>
<path d="M1290.08 55.2H1296.16L1319.36 112H1311.68L1304.96 95.36H1281.12L1274.48 112H1266.8L1290.08 55.2ZM1303.36 89.76L1293.12 63.52L1282.56 89.76H1303.36ZM1347.26 112.8C1344.01 112.8 1341.05 112 1338.38 110.4C1335.71 108.8 1333.61 106.72 1332.06 104.16V112H1325.82V53.6H1332.86V78.56C1334.62 75.84 1336.78 73.6533 1339.34 72C1341.9 70.3467 1344.89 69.52 1348.3 69.52C1351.18 69.52 1353.77 70.1333 1356.06 71.36C1358.35 72.5333 1360.3 74.16 1361.9 76.24C1363.55 78.2667 1364.81 80.5867 1365.66 83.2C1366.57 85.76 1367.02 88.4533 1367.02 91.28C1367.02 95.1733 1366.14 98.7733 1364.38 102.08C1362.67 105.333 1360.33 107.947 1357.34 109.92C1354.35 111.84 1350.99 112.8 1347.26 112.8ZM1345.5 106.72C1348.33 106.72 1350.81 106 1352.94 104.56C1355.07 103.067 1356.75 101.147 1357.98 98.8C1359.21 96.4533 1359.82 93.9467 1359.82 91.28C1359.82 88.56 1359.23 86 1358.06 83.6C1356.94 81.2 1355.34 79.28 1353.26 77.84C1351.23 76.3467 1348.86 75.6 1346.14 75.6C1343.15 75.6 1340.49 76.56 1338.14 78.48C1335.85 80.4 1334.09 82.6933 1332.86 85.36V97.44C1333.23 99.2 1334.09 100.8 1335.42 102.24C1336.81 103.627 1338.41 104.72 1340.22 105.52C1342.09 106.32 1343.85 106.72 1345.5 106.72ZM1393.9 112.8C1389.74 112.8 1386.06 111.813 1382.86 109.84C1379.72 107.813 1377.26 105.173 1375.5 101.92C1373.74 98.6133 1372.86 95.04 1372.86 91.2C1372.86 87.3067 1373.74 83.7333 1375.5 80.48C1377.32 77.1733 1379.8 74.5333 1382.94 72.56C1386.14 70.5333 1389.8 69.52 1393.9 69.52C1398.06 69.52 1401.72 70.5333 1404.86 72.56C1408.06 74.5333 1410.54 77.1733 1412.3 80.48C1414.12 83.7333 1415.02 87.3067 1415.02 91.2C1415.02 95.04 1414.12 98.6133 1412.3 101.92C1410.54 105.173 1408.09 107.813 1404.94 109.84C1401.8 111.813 1398.12 112.8 1393.9 112.8ZM1380.06 91.28C1380.06 94.16 1380.68 96.7733 1381.9 99.12C1383.18 101.467 1384.86 103.333 1386.94 104.72C1389.02 106.053 1391.34 106.72 1393.9 106.72C1396.46 106.72 1398.78 106.027 1400.86 104.64C1403 103.253 1404.68 101.387 1405.9 99.04C1407.18 96.64 1407.82 94 1407.82 91.12C1407.82 88.24 1407.18 85.6267 1405.9 83.28C1404.68 80.9333 1403 79.0667 1400.86 77.68C1398.78 76.2933 1396.46 75.6 1393.9 75.6C1391.34 75.6 1389.02 76.32 1386.94 77.76C1384.86 79.1467 1383.18 81.0133 1381.9 83.36C1380.68 85.7067 1380.06 88.3467 1380.06 91.28ZM1423.15 95.28V70.24H1430.2V93.92C1430.2 102.453 1433.16 106.72 1439.08 106.72C1441.96 106.72 1444.65 105.813 1447.16 104C1449.72 102.133 1451.61 99.6 1452.84 96.4V70.24H1459.88V104C1459.88 105.653 1460.62 106.507 1462.12 106.56V112C1461.32 112.107 1460.68 112.16 1460.2 112.16C1459.77 112.213 1459.34 112.24 1458.92 112.24C1457.58 112.24 1456.44 111.84 1455.48 111.04C1454.52 110.187 1454.01 109.147 1453.96 107.92L1453.8 103.04C1451.98 106.133 1449.53 108.533 1446.44 110.24C1443.4 111.947 1440.06 112.8 1436.44 112.8C1427.58 112.8 1423.15 106.96 1423.15 95.28ZM1493.2 109.92C1492.35 110.293 1490.99 110.827 1489.12 111.52C1487.31 112.213 1485.28 112.56 1483.04 112.56C1480.48 112.56 1478.27 111.867 1476.4 110.48C1474.54 109.04 1473.6 106.827 1473.6 103.84V75.76H1467.92V70.24H1473.6V56.32H1480.64V70.24H1490V75.76H1480.64V101.68C1480.75 103.173 1481.26 104.293 1482.16 105.04C1483.07 105.733 1484.14 106.08 1485.36 106.08C1486.75 106.08 1488.03 105.84 1489.2 105.36C1490.38 104.88 1491.15 104.533 1491.52 104.32L1493.2 109.92ZM1570.2 112V68.64L1551.48 102H1547.08L1528.28 68.64V112L1521.08 112V55.2H1528.68L1549.24 92.08L1569.88 55.2H1577.4V112H1570.2ZM1607.66 112.8C1603.5 112.8 1599.82 111.813 1596.62 109.84C1593.42 107.867 1590.91 105.227 1589.1 101.92C1587.29 98.6133 1586.38 95.0133 1586.38 91.12C1586.38 87.1733 1587.29 83.5733 1589.1 80.32C1590.91 77.0667 1593.42 74.4533 1596.62 72.48C1599.87 70.5067 1603.58 69.52 1607.74 69.52C1611.95 69.52 1615.61 70.5333 1618.7 72.56C1621.85 74.5333 1624.27 77.1467 1625.98 80.4C1627.74 83.6 1628.62 87.0667 1628.62 90.8C1628.62 91.9733 1628.57 92.88 1628.46 93.52H1593.82C1594.03 96.24 1594.78 98.6667 1596.06 100.8C1597.39 102.88 1599.1 104.533 1601.18 105.76C1603.26 106.933 1605.5 107.52 1607.9 107.52C1610.46 107.52 1612.86 106.88 1615.1 105.6C1617.39 104.32 1618.97 102.64 1619.82 100.56L1625.9 102.24C1624.57 105.333 1622.25 107.867 1618.94 109.84C1615.63 111.813 1611.87 112.8 1607.66 112.8ZM1593.58 88.64H1622.06C1621.85 85.92 1621.07 83.52 1619.74 81.44C1618.41 79.36 1616.7 77.7333 1614.62 76.56C1612.54 75.3867 1610.25 74.8 1607.74 74.8C1605.29 74.8 1603.02 75.3867 1600.94 76.56C1598.86 77.7333 1597.15 79.36 1595.82 81.44C1594.54 83.52 1593.79 85.92 1593.58 88.64Z" fill="#191919"/>
<rect x="168.001" width="168" height="168" fill="#191818"/>
<path fill-rule="evenodd" clip-rule="evenodd" d="M271.654 139.092C271.944 139.836 272.195 140.604 272.404 141.395C275.386 152.667 268.781 164.254 257.651 167.275C246.521 170.295 235.08 163.605 232.098 152.333C230.917 147.867 231.24 143.353 232.752 139.341C230.595 138.587 228.485 137.708 226.434 136.71C223.936 142.243 219.11 146.647 212.854 148.344C201.724 151.365 190.283 144.675 187.301 133.403C184.62 123.269 189.687 112.882 198.824 108.692C197.978 106.891 197.216 105.032 196.542 103.12C195.808 103.413 195.049 103.667 194.268 103.879C183.138 106.9 171.697 100.21 168.715 88.9374C165.733 77.6649 172.338 66.0782 183.468 63.0578C187.877 61.8613 192.335 62.1885 196.296 63.7206C196.949 61.802 197.698 59.9208 198.538 58.0843C193.377 55.4769 189.302 50.7268 187.692 44.641C184.709 33.3685 191.314 21.7818 202.445 18.7613C212.09 16.1439 221.968 20.8181 226.373 29.4475C228.493 28.4167 230.695 27.5058 232.972 26.7255C232.961 26.6855 232.95 26.6454 232.94 26.6052C229.957 15.3327 236.563 3.74602 247.693 0.725555C258.823 -2.29489 270.263 4.3947 273.246 15.6672C274.319 19.7229 274.15 23.8194 272.977 27.5429C274.66 28.201 276.311 28.9365 277.924 29.7462C280.51 24.5704 285.176 20.4884 291.144 18.8689C302.274 15.8485 313.714 22.5381 316.697 33.8106C319.361 43.88 314.375 54.2001 305.347 58.4412C306.161 60.2601 306.89 62.1357 307.53 64.0643C308.242 63.7836 308.975 63.5395 309.73 63.3347C320.86 60.3143 332.3 67.0038 335.283 78.2763C338.265 89.5488 331.66 101.136 320.53 104.156C315.905 105.411 311.228 104.99 307.125 103.26C306.449 105.153 305.679 107.008 304.82 108.818C310.284 111.348 314.632 116.236 316.308 122.572C319.29 133.845 312.685 145.431 301.555 148.452C291.549 151.167 281.293 146.035 277.156 136.781C275.378 137.637 273.543 138.41 271.654 139.092Z" fill="#FDACFF"/>
</svg>
