<svg width="2910" height="169" viewBox="0 0 2910 169" fill="none" xmlns="http://www.w3.org/2000/svg">
<rect width="2910" height="168" fill="#2971F6"/>
<rect x="504" width="168" height="168" fill="white"/>
<rect x="568" width="40" height="168" fill="#FEF151"/>
<rect x="504" y="104" width="40" height="168" transform="rotate(-90 504 104)" fill="#FEF151"/>
<rect x="536" y="32" width="105" height="105" fill="#FEF151"/>
<rect x="2069" width="168" height="168" fill="#FEACFF"/>
<rect x="2133" width="40" height="168" fill="#A3E9FF"/>
<rect x="2069" y="104" width="40" height="168" transform="rotate(-90 2069 104)" fill="#A3E9FF"/>
<rect x="2101" y="32" width="105" height="105" fill="#A3E9FF"/>
<rect x="672" width="168" height="168" fill="#A3E9FF"/>
<path fill-rule="evenodd" clip-rule="evenodd" d="M672.506 168C765.01 168 840 94.5745 840 3.99944C840 2.66269 839.983 1.32969 839.951 0.000597154C839.799 0.000199135 839.646 0 839.494 0C746.99 0 672 73.4256 672 164.001C672 165.337 672.016 166.67 672.049 167.999C672.201 168 672.353 168 672.506 168Z" fill="#FDACFF"/>
<rect x="2574" width="168" height="168" fill="#FEF151"/>
<path fill-rule="evenodd" clip-rule="evenodd" d="M2574.51 168C2667.01 168 2742 94.5745 2742 3.99944C2742 2.66269 2741.98 1.32969 2741.95 0.000597154C2741.8 0.000199135 2741.65 0 2741.49 0C2648.99 0 2574 73.4256 2574 164.001C2574 165.337 2574.02 166.67 2574.05 167.999C2574.2 168 2574.35 168 2574.51 168Z" fill="#A3E9FF"/>
<rect x="336" width="168" height="168" fill="#191818"/>
<path d="M420 1L432.278 55.3572L479.397 25.603L449.643 72.7215L504 85L449.643 97.2785L479.397 144.397L432.278 114.643L420 169L407.722 114.643L360.603 144.397L390.357 97.2785L336 85L390.357 72.7215L360.603 25.603L407.722 55.3572L420 1Z" fill="#FDACFF"/>
<rect x="2742" width="168" height="168" fill="#4B88FF"/>
<path d="M2826 1L2838.28 55.3572L2885.4 25.603L2855.64 72.7215L2910 85L2855.64 97.2785L2885.4 144.397L2838.28 114.643L2826 169L2813.72 114.643L2766.6 144.397L2796.36 97.2785L2742 85L2796.36 72.7215L2766.6 25.603L2813.72 55.3572L2826 1Z" fill="#FDACFF"/>
<rect x="2237" width="168" height="168" fill="#FEF151"/>
<path d="M2321 0L2333.28 54.0356L2380.4 24.4575L2350.64 71.2972L2405 83.503L2350.64 95.7088L2380.4 142.548L2333.28 112.97L2321 167.006L2308.72 112.97L2261.6 142.548L2291.36 95.7088L2237 83.503L2291.36 71.2972L2261.6 24.4575L2308.72 54.0356L2321 0Z" fill="white"/>
<rect x="168" width="168" height="168" fill="#A3E9FF"/>
<circle cx="252" cy="84" r="84" fill="#4B88FF"/>
<rect x="2406" width="168" height="168" fill="#191818"/>
<path d="M2489.5 -3.69361e-06C2511.91 -4.67322e-06 2533.4 8.84997 2549.25 24.603C2565.1 40.3561 2574 61.7218 2574 84C2574 106.278 2565.1 127.644 2549.25 143.397C2533.4 159.15 2511.91 168 2489.5 168L2489.5 84L2489.5 -3.69361e-06Z" fill="#FDACFF"/>
<path d="M2404.5 -3.69361e-06C2426.91 -4.67322e-06 2448.4 8.84997 2464.25 24.603C2480.1 40.3561 2489 61.7218 2489 84C2489 106.278 2480.1 127.644 2464.25 143.397C2448.4 159.15 2426.91 168 2404.5 168L2404.5 84L2404.5 -3.69361e-06Z" fill="#FDACFF"/>
<rect width="168" height="168" fill="#A3E9FF"/>
<path d="M70.3561 21.478C69.8833 20.1691 69.2739 18.8877 68.5235 17.6526C62.4517 7.66358 49.4322 4.48778 39.443 10.5594C29.4539 16.631 26.2781 29.6507 32.3496 39.6398C33.1005 40.875 33.9576 42.0061 34.902 43.0283C33.165 45.0904 31.5689 47.2475 30.1175 49.4844C28.8782 48.9081 27.5645 48.4441 26.1862 48.1079C14.8297 45.3379 3.37787 52.2985 0.607787 63.6551C-2.1623 75.0111 4.7984 86.463 16.1549 89.2328C17.3727 89.53 18.5917 89.7153 19.8009 89.7951C20.0011 92.4846 20.3701 95.1728 20.9118 97.8439C19.8397 98.2733 18.7884 98.7967 17.7688 99.4168C7.77972 105.488 4.60386 118.508 10.6755 128.497C16.7471 138.486 29.767 141.662 39.7561 135.59C40.5501 135.107 41.3011 134.581 42.0078 134.016C44.2027 135.922 46.5101 137.666 48.9108 139.242C48.5937 140.071 48.3252 140.929 48.1095 141.814C45.3394 153.17 52.2998 164.622 63.6564 167.392C75.013 170.162 86.465 163.202 89.2348 151.846C89.406 151.145 89.5397 150.444 89.6375 149.744C92.6282 149.516 95.6164 149.079 98.5808 148.428C98.8682 149.018 99.1853 149.6 99.5326 150.171C105.604 160.16 118.624 163.336 128.613 157.264C138.602 151.192 141.778 138.173 135.706 128.184C135.359 127.613 134.99 127.063 134.599 126.537C136.516 124.236 138.26 121.817 139.824 119.303C140.471 119.529 141.134 119.726 141.814 119.892C153.17 122.661 164.622 115.701 167.392 104.345C170.162 92.988 163.202 81.5367 151.845 78.7663C151.005 78.5616 150.164 78.4098 149.326 78.3092C149.033 75.4207 148.545 72.538 147.855 69.6806C148.683 69.3134 149.495 68.8893 150.29 68.4068C160.279 62.3351 163.455 49.3157 157.383 39.3264C151.311 29.3374 138.291 26.1617 128.302 32.2333C127.283 32.8529 126.334 33.5448 125.46 34.2985C123.318 32.5716 121.08 30.9927 118.761 29.5658C119.224 28.4904 119.604 27.3618 119.89 26.1861C122.661 14.8297 115.7 3.37785 104.344 0.60778C92.9871 -2.16229 81.5352 4.79842 78.7653 16.1548C78.4341 17.5115 78.242 18.8696 78.1797 20.2141C75.5626 20.4736 72.9499 20.8936 70.3561 21.478Z" fill="#FEF151"/>
<path d="M1290.08 55.2H1296.16L1319.36 112H1311.68L1304.96 95.36H1281.12L1274.48 112H1266.8L1290.08 55.2ZM1303.36 89.76L1293.12 63.52L1282.56 89.76H1303.36ZM1347.26 112.8C1344.01 112.8 1341.05 112 1338.38 110.4C1335.71 108.8 1333.61 106.72 1332.06 104.16V112H1325.82V53.6H1332.86V78.56C1334.62 75.84 1336.78 73.6533 1339.34 72C1341.9 70.3467 1344.89 69.52 1348.3 69.52C1351.18 69.52 1353.77 70.1333 1356.06 71.36C1358.35 72.5333 1360.3 74.16 1361.9 76.24C1363.55 78.2667 1364.81 80.5867 1365.66 83.2C1366.57 85.76 1367.02 88.4533 1367.02 91.28C1367.02 95.1733 1366.14 98.7733 1364.38 102.08C1362.67 105.333 1360.33 107.947 1357.34 109.92C1354.35 111.84 1350.99 112.8 1347.26 112.8ZM1345.5 106.72C1348.33 106.72 1350.81 106 1352.94 104.56C1355.07 103.067 1356.75 101.147 1357.98 98.8C1359.21 96.4533 1359.82 93.9467 1359.82 91.28C1359.82 88.56 1359.23 86 1358.06 83.6C1356.94 81.2 1355.34 79.28 1353.26 77.84C1351.23 76.3467 1348.86 75.6 1346.14 75.6C1343.15 75.6 1340.49 76.56 1338.14 78.48C1335.85 80.4 1334.09 82.6933 1332.86 85.36V97.44C1333.23 99.2 1334.09 100.8 1335.42 102.24C1336.81 103.627 1338.41 104.72 1340.22 105.52C1342.09 106.32 1343.85 106.72 1345.5 106.72ZM1393.9 112.8C1389.74 112.8 1386.06 111.813 1382.86 109.84C1379.72 107.813 1377.26 105.173 1375.5 101.92C1373.74 98.6133 1372.86 95.04 1372.86 91.2C1372.86 87.3067 1373.74 83.7333 1375.5 80.48C1377.32 77.1733 1379.8 74.5333 1382.94 72.56C1386.14 70.5333 1389.8 69.52 1393.9 69.52C1398.06 69.52 1401.72 70.5333 1404.86 72.56C1408.06 74.5333 1410.54 77.1733 1412.3 80.48C1414.12 83.7333 1415.02 87.3067 1415.02 91.2C1415.02 95.04 1414.12 98.6133 1412.3 101.92C1410.54 105.173 1408.09 107.813 1404.94 109.84C1401.8 111.813 1398.12 112.8 1393.9 112.8ZM1380.06 91.28C1380.06 94.16 1380.68 96.7733 1381.9 99.12C1383.18 101.467 1384.86 103.333 1386.94 104.72C1389.02 106.053 1391.34 106.72 1393.9 106.72C1396.46 106.72 1398.78 106.027 1400.86 104.64C1403 103.253 1404.68 101.387 1405.9 99.04C1407.18 96.64 1407.82 94 1407.82 91.12C1407.82 88.24 1407.18 85.6267 1405.9 83.28C1404.68 80.9333 1403 79.0667 1400.86 77.68C1398.78 76.2933 1396.46 75.6 1393.9 75.6C1391.34 75.6 1389.02 76.32 1386.94 77.76C1384.86 79.1467 1383.18 81.0133 1381.9 83.36C1380.68 85.7067 1380.06 88.3467 1380.06 91.28ZM1423.15 95.28V70.24H1430.2V93.92C1430.2 102.453 1433.16 106.72 1439.08 106.72C1441.96 106.72 1444.65 105.813 1447.16 104C1449.72 102.133 1451.61 99.6 1452.84 96.4V70.24H1459.88V104C1459.88 105.653 1460.62 106.507 1462.12 106.56V112C1461.32 112.107 1460.68 112.16 1460.2 112.16C1459.77 112.213 1459.34 112.24 1458.92 112.24C1457.58 112.24 1456.44 111.84 1455.48 111.04C1454.52 110.187 1454.01 109.147 1453.96 107.92L1453.8 103.04C1451.98 106.133 1449.53 108.533 1446.44 110.24C1443.4 111.947 1440.06 112.8 1436.44 112.8C1427.58 112.8 1423.15 106.96 1423.15 95.28ZM1493.2 109.92C1492.35 110.293 1490.99 110.827 1489.12 111.52C1487.31 112.213 1485.28 112.56 1483.04 112.56C1480.48 112.56 1478.27 111.867 1476.4 110.48C1474.54 109.04 1473.6 106.827 1473.6 103.84V75.76H1467.92V70.24H1473.6V56.32H1480.64V70.24H1490V75.76H1480.64V101.68C1480.75 103.173 1481.26 104.293 1482.16 105.04C1483.07 105.733 1484.14 106.08 1485.36 106.08C1486.75 106.08 1488.03 105.84 1489.2 105.36C1490.38 104.88 1491.15 104.533 1491.52 104.32L1493.2 109.92ZM1570.2 112V68.64L1551.48 102H1547.08L1528.28 68.64V112H1521.08V55.2H1528.68L1549.24 92.08L1569.88 55.2H1577.4V112H1570.2ZM1607.66 112.8C1603.5 112.8 1599.82 111.813 1596.62 109.84C1593.42 107.867 1590.91 105.227 1589.1 101.92C1587.29 98.6133 1586.38 95.0133 1586.38 91.12C1586.38 87.1733 1587.29 83.5733 1589.1 80.32C1590.91 77.0667 1593.42 74.4533 1596.62 72.48C1599.87 70.5067 1603.58 69.52 1607.74 69.52C1611.95 69.52 1615.61 70.5333 1618.7 72.56C1621.85 74.5333 1624.27 77.1467 1625.98 80.4C1627.74 83.6 1628.62 87.0667 1628.62 90.8C1628.62 91.9733 1628.57 92.88 1628.46 93.52H1593.82C1594.03 96.24 1594.78 98.6667 1596.06 100.8C1597.39 102.88 1599.1 104.533 1601.18 105.76C1603.26 106.933 1605.5 107.52 1607.9 107.52C1610.46 107.52 1612.86 106.88 1615.1 105.6C1617.39 104.32 1618.97 102.64 1619.82 100.56L1625.9 102.24C1624.57 105.333 1622.25 107.867 1618.94 109.84C1615.63 111.813 1611.87 112.8 1607.66 112.8ZM1593.58 88.64H1622.06C1621.85 85.92 1621.07 83.52 1619.74 81.44C1618.41 79.36 1616.7 77.7333 1614.62 76.56C1612.54 75.3867 1610.25 74.8 1607.74 74.8C1605.29 74.8 1603.02 75.3867 1600.94 76.56C1598.86 77.7333 1597.15 79.36 1595.82 81.44C1594.54 83.52 1593.79 85.92 1593.58 88.64Z" fill="white"/>
</svg>
