<svg width="142" height="143" viewBox="0 0 142 143" fill="none" xmlns="http://www.w3.org/2000/svg">
<path d="M59.4676 18.3425C59.068 17.2362 58.5529 16.1531 57.9186 15.1091C52.7865 6.66602 41.782 3.98172 33.3387 9.11366C24.8955 14.2456 22.2112 25.2504 27.3431 33.6935C27.9778 34.7376 28.7022 35.6936 29.5005 36.5577C28.0323 38.3006 26.6833 40.1239 25.4564 42.0146C24.4089 41.5275 23.2986 41.1353 22.1336 40.8512C12.5346 38.5098 2.85511 44.3932 0.513725 53.9922C-1.82766 63.5908 4.05579 73.2703 13.6547 75.6115C14.6841 75.8627 15.7144 76.0193 16.7364 76.0867C16.9057 78.36 17.2176 80.6321 17.6755 82.8899C16.7692 83.2528 15.8807 83.6952 15.0189 84.2193C6.57572 89.351 3.89136 100.356 9.02333 108.799C14.1553 117.242 25.1602 119.926 33.6034 114.794C34.2745 114.386 34.9093 113.942 35.5066 113.464C37.3618 115.075 39.3121 116.549 41.3413 117.882C41.0732 118.582 40.8463 119.307 40.6639 120.055C38.3226 129.654 44.2058 139.334 53.8048 141.675C63.4039 144.016 73.0835 138.133 75.4246 128.534C75.5694 127.942 75.6824 127.349 75.765 126.758C78.2928 126.565 80.8186 126.196 83.3242 125.646C83.5672 126.144 83.8352 126.636 84.1287 127.119C89.2608 135.562 100.266 138.246 108.709 133.114C117.152 127.982 119.836 116.978 114.704 108.534C114.411 108.052 114.098 107.587 113.768 107.143C115.389 105.197 116.862 103.153 118.185 101.028C118.731 101.219 119.292 101.385 119.866 101.525C129.465 103.867 139.145 97.9835 141.486 88.3845C143.828 78.7855 137.944 69.1064 128.346 66.7648C127.635 66.5917 126.924 66.4635 126.216 66.3784C125.969 63.9369 125.555 61.5004 124.973 59.0852C125.672 58.7748 126.359 58.4163 127.03 58.0085C135.474 52.8765 138.158 41.872 133.026 33.4286C127.894 24.9855 116.889 22.3013 108.446 27.4333C107.585 27.957 106.782 28.5418 106.043 29.1789C104.233 27.7192 102.341 26.3847 100.381 25.1787C100.773 24.2696 101.094 23.3157 101.336 22.322C103.677 12.7231 97.7939 3.04357 88.1953 0.702196C78.5962 -1.63917 68.9166 4.24428 66.5754 13.8431C66.2955 14.9899 66.1331 16.1378 66.0805 17.2742C63.8684 17.4935 61.66 17.8486 59.4676 18.3425Z" fill="#4B88FF"/>
</svg>
