<svg width="104" height="114" viewBox="0 0 104 114" fill="none" xmlns="http://www.w3.org/2000/svg">
<path fill-rule="evenodd" clip-rule="evenodd" d="M91.8849 55.2096C98.8661 52.4327 103.801 45.6146 103.801 37.6438C103.801 27.2071 95.3405 18.7465 84.9038 18.7465C80.2033 18.7465 75.9036 20.4627 72.5972 23.3027C72.0661 22.9885 71.5269 22.6863 70.9801 22.3967C71.1873 21.2761 71.2955 20.1208 71.2955 18.9402C71.2955 8.50355 62.835 0.0429688 52.3983 0.0429688C41.9617 0.0429688 33.5011 8.50355 33.5011 18.9402C33.5011 20.1869 33.6218 21.4054 33.8522 22.5846C33.264 22.9038 32.6849 23.2376 32.1153 23.5854C28.7864 20.655 24.4179 18.8776 19.6343 18.8776C9.19764 18.8776 0.737061 27.3382 0.737061 37.7748C0.737061 45.9826 5.96982 52.9683 13.2813 55.5776C13.2598 56.1111 13.249 56.6473 13.249 57.186C13.249 57.3819 13.2504 57.5775 13.2533 57.7727C5.95647 60.3899 0.737061 67.3681 0.737061 75.5655C0.737061 86.0021 9.19764 94.4627 19.6343 94.4627C24.0873 94.4627 28.1805 92.9225 31.4103 90.3458C32.1543 90.822 32.9154 91.2739 33.6925 91.7003C33.5663 92.582 33.5011 93.4834 33.5011 94.4001C33.5011 104.837 41.9617 113.297 52.3983 113.297C62.835 113.297 71.2955 104.837 71.2955 94.4001C71.2955 93.5508 71.2395 92.7146 71.131 91.895C71.9403 91.4618 72.7326 91.0011 73.5069 90.5142C76.6752 92.9133 80.6233 94.3365 84.9038 94.3365C95.3405 94.3365 103.801 85.8759 103.801 75.4393C103.801 67.4847 98.8862 60.678 91.9275 57.8904C91.9316 57.6561 91.9337 57.4213 91.9337 57.186C91.9337 56.5233 91.9173 55.8643 91.8849 55.2096Z" fill="#A4EAFF"/>
</svg>
