<svg width="104" height="114" viewBox="0 0 104 114" fill="none" xmlns="http://www.w3.org/2000/svg">
<path fill-rule="evenodd" clip-rule="evenodd" d="M91.8849 55.2331C98.8661 52.4562 103.801 45.638 103.801 37.6672C103.801 27.2306 95.3405 18.77 84.9038 18.77C80.2033 18.77 75.9036 20.4862 72.5972 23.3262C72.0661 23.0119 71.5269 22.7098 70.9801 22.4202C71.1873 21.2995 71.2955 20.1442 71.2955 18.9636C71.2955 8.52699 62.835 0.0664062 52.3983 0.0664062C41.9617 0.0664062 33.5011 8.52699 33.5011 18.9636C33.5011 20.2103 33.6218 21.4288 33.8522 22.608C33.264 22.9272 32.6849 23.261 32.1153 23.6089C28.7864 20.6784 24.4179 18.901 19.6343 18.901C9.19764 18.901 0.737061 27.3616 0.737061 37.7983C0.737061 46.0061 5.96982 52.9917 13.2813 55.6011C13.2598 56.1345 13.249 56.6707 13.249 57.2094C13.249 57.4053 13.2504 57.6009 13.2533 57.7961C5.95647 60.4133 0.737061 67.3916 0.737061 75.5889C0.737061 86.0256 9.19764 94.4861 19.6343 94.4861C24.0873 94.4861 28.1805 92.9459 31.4103 90.3692C32.1543 90.8454 32.9154 91.2973 33.6925 91.7237C33.5663 92.6055 33.5011 93.5069 33.5011 94.4235C33.5011 104.86 41.9617 113.321 52.3983 113.321C62.835 113.321 71.2955 104.86 71.2955 94.4235C71.2955 93.5742 71.2395 92.738 71.131 91.9184C71.9403 91.4852 72.7326 91.0246 73.5069 90.5377C76.6752 92.9367 80.6233 94.3599 84.9038 94.3599C95.3405 94.3599 103.801 85.8993 103.801 75.4627C103.801 67.5081 98.8862 60.7015 91.9275 57.9138C91.9316 57.6795 91.9337 57.4447 91.9337 57.2094C91.9337 56.5467 91.9173 55.8878 91.8849 55.2331Z" fill="#A4EAFF"/>
</svg>
