<svg width="284" height="284" viewBox="0 0 284 284" fill="none" xmlns="http://www.w3.org/2000/svg">
<rect x="64.0753" y="6.87628" width="221" height="221" transform="rotate(15 64.0753 6.87628)" fill="#7DEDA3" stroke="white" stroke-width="10"/>
<path fill-rule="evenodd" clip-rule="evenodd" d="M188.74 72.5736C187.701 76.45 185.846 79.8893 183.407 82.7556C185.532 84.1878 187.569 85.7252 189.512 87.3584C195.68 78.734 206.76 74.3889 217.605 77.2949C231.578 81.039 239.871 95.4017 236.126 109.375C233.283 119.988 224.312 127.324 214.04 128.598C214.545 131.072 214.923 133.581 215.167 136.117C218.609 135.605 222.208 135.776 225.783 136.733C239.756 140.477 248.048 154.84 244.304 168.813C240.56 182.786 226.197 191.079 212.224 187.335C208.982 186.466 206.045 185.025 203.494 183.15C201.841 185.658 200.043 188.046 198.115 190.306C206.036 196.6 209.912 207.21 207.126 217.605C203.382 231.578 189.02 239.871 175.046 236.126C164.651 233.341 157.4 224.679 155.91 214.673C153.428 215.132 150.913 215.463 148.373 215.661C148.798 218.952 148.6 222.379 147.688 225.783C143.944 239.756 129.581 248.048 115.608 244.304C101.635 240.56 93.3426 226.197 97.0867 212.224C97.9988 208.82 99.541 205.753 101.554 203.116C99.0808 201.419 96.7288 199.579 94.507 197.61C88.268 205.87 77.4297 209.97 66.8161 207.126C52.8429 203.382 44.5506 189.019 48.2947 175.046C51.2008 164.201 60.5037 156.778 71.0565 155.749C70.5372 152.818 70.1964 149.841 70.0426 146.834C66.4774 147.423 62.7324 147.278 59.0151 146.282C45.0419 142.538 36.7497 128.176 40.4937 114.202C44.2378 100.229 58.6005 91.937 72.5736 95.6811C76.6181 96.7648 80.1866 98.7381 83.1251 101.334C84.7061 99.0784 86.4072 96.926 88.2168 94.8835C79.9571 88.6446 75.8566 77.8063 78.7006 67.1927C82.4446 53.2195 96.8073 44.9272 110.78 48.6713C121.626 51.5774 129.049 60.8803 130.078 71.4331C132.578 70.9903 135.11 70.6772 137.666 70.4993C136.988 66.7979 137.1 62.8915 138.139 59.015C141.883 45.0419 156.246 36.7496 170.219 40.4937C184.192 44.2378 192.484 58.6005 188.74 72.5736Z" fill="#F6824C"/>
</svg>
