<svg width="116" height="116" viewBox="0 0 116 116" fill="none" xmlns="http://www.w3.org/2000/svg">
<path d="M48.5792 14.83C48.2528 13.9263 47.832 13.0415 47.3138 12.1887C43.1214 5.29152 34.1317 3.0987 27.2344 7.291C20.3372 11.4833 18.1444 20.4731 22.3367 27.3703C22.8551 28.2232 23.4469 29.0042 24.099 29.71C22.8996 31.1338 21.7976 32.6233 20.7954 34.1678C19.9397 33.7699 19.0327 33.4495 18.0809 33.2174C10.2396 31.3047 2.33234 36.1109 0.419662 43.9523C-1.49302 51.7934 3.31318 59.7007 11.1546 61.6132C11.9954 61.8183 12.8371 61.9463 13.672 62.0014C13.8103 63.8585 14.0651 65.7145 14.4391 67.5589C13.6988 67.8554 12.973 68.2167 12.269 68.6449C5.37171 72.837 3.17886 81.8269 7.37117 88.724C11.5635 95.6214 20.5534 97.814 27.4506 93.6216C27.9989 93.2885 28.5174 92.9251 29.0054 92.5346C30.5209 93.851 32.1141 95.0552 33.7717 96.1436C33.5528 96.7159 33.3674 97.3083 33.2184 97.9195C31.3058 105.761 36.1118 113.668 43.9532 115.58C51.7947 117.493 59.702 112.687 61.6145 104.846C61.7327 104.362 61.8251 103.878 61.8926 103.395C63.9575 103.238 66.0208 102.936 68.0677 102.486C68.2662 102.893 68.4851 103.295 68.7249 103.69C72.9173 110.587 81.9073 112.78 88.8044 108.587C95.7016 104.395 97.8945 95.4052 93.7021 88.5077C93.4623 88.1135 93.2071 87.7343 92.9371 87.371C94.2612 85.7819 95.4651 84.1118 96.5452 82.376C96.9918 82.5321 97.4499 82.6678 97.919 82.7823C105.76 84.6948 113.668 79.8889 115.58 72.0475C117.493 64.206 112.687 56.2991 104.846 54.3863C104.265 54.2449 103.685 54.1401 103.106 54.0706C102.904 52.0762 102.566 50.0858 102.091 48.1128C102.662 47.8593 103.223 47.5664 103.771 47.2333C110.669 43.0409 112.861 34.0513 108.669 27.1539C104.477 20.2567 95.487 18.064 88.5895 22.2563C87.8859 22.6841 87.2308 23.1619 86.6269 23.6823C85.148 22.4899 83.6025 21.3997 82.0017 20.4145C82.3214 19.6719 82.5836 18.8927 82.7814 18.0809C84.6943 10.2396 79.888 2.33233 72.0468 0.419658C64.2054 -1.49301 56.2981 3.31319 54.3856 11.1545C54.1569 12.0913 54.0242 13.029 53.9812 13.9574C52.1742 14.1365 50.3701 14.4266 48.5792 14.83Z" fill="#2971F6"/>
</svg>
