<svg width="301" height="302" viewBox="0 0 301 302" fill="none" xmlns="http://www.w3.org/2000/svg">
<path d="M126.055 38.6699C125.208 36.3248 124.116 34.0289 122.771 31.8161C111.893 13.9191 88.566 8.22908 70.6687 19.1074C52.7715 29.9856 47.0815 53.3127 57.9598 71.2097C59.305 73.4229 60.8406 75.4493 62.5327 77.2809C59.4206 80.9754 56.561 84.8403 53.9605 88.8481C51.74 87.8155 49.3865 86.9842 46.9169 86.3819C26.5699 81.4188 6.05202 93.89 1.08895 114.237C-3.87412 134.583 8.59714 155.101 28.9441 160.064C31.1261 160.596 33.31 160.928 35.4765 161.071C35.8353 165.89 36.4965 170.706 37.467 175.492C35.5461 176.262 33.6626 177.199 31.8358 178.31C13.9387 189.188 8.24858 212.515 19.1269 230.412C30.0053 248.31 53.3325 253.999 71.2297 243.12C72.6523 242.256 73.9978 241.313 75.264 240.3C79.1966 243.716 83.3306 246.84 87.6318 249.665C87.0637 251.149 86.5827 252.687 86.1961 254.273C81.233 274.619 93.7038 295.137 114.051 300.099C134.398 305.063 154.916 292.591 159.879 272.245C160.186 270.989 160.425 269.734 160.601 268.481C165.959 268.072 171.313 267.289 176.624 266.123C177.139 267.179 177.707 268.221 178.329 269.245C189.208 287.142 212.535 292.832 230.432 281.953C248.329 271.075 254.019 247.748 243.141 229.851C242.519 228.828 241.856 227.844 241.156 226.901C244.592 222.778 247.716 218.444 250.518 213.94C251.677 214.345 252.866 214.697 254.083 214.994C274.43 219.957 294.948 207.486 299.911 187.139C304.874 166.792 292.403 146.275 272.056 141.312C270.551 140.945 269.044 140.673 267.543 140.492C267.018 135.317 266.142 130.152 264.908 125.033C266.39 124.375 267.846 123.615 269.269 122.751C287.166 111.872 292.856 88.5457 281.977 70.6483C271.099 52.7512 247.772 47.0615 229.874 57.9398C228.049 59.0499 226.349 60.2896 224.782 61.64C220.944 58.546 216.934 55.7171 212.78 53.1606C213.61 51.2337 214.29 49.2117 214.804 47.1053C219.767 26.7584 207.296 6.24046 186.949 1.27742C166.602 -3.68562 146.084 8.78564 141.121 29.1325C140.528 31.5633 140.184 33.9966 140.072 36.4055C135.383 36.8703 130.702 37.6229 126.055 38.6699Z" fill="#7DEDA3"/>
</svg>
