<svg width="26" height="26" viewBox="0 0 26 26" fill="none" xmlns="http://www.w3.org/2000/svg">
<path d="M25.5233 0.280965C25.3161 0.0737392 25.0053 0.0100186 24.7334 0.118807L1.19822 9.53275C0.928931 9.64047 0.748609 9.89691 0.738258 10.1868C0.727955 10.4766 0.889673 10.7453 1.15061 10.8718L10.4313 15.3728L14.9323 24.6535C15.0551 24.9066 15.3114 25.0663 15.5912 25.0663C15.5998 25.0663 15.6086 25.0662 15.6173 25.0658C15.9071 25.0555 16.1637 24.8752 16.2713 24.6059L25.6854 1.07091C25.7942 0.798835 25.7304 0.488143 25.5233 0.280965ZM3.28142 10.2772L21.9643 2.80411L10.8301 13.9382L3.28142 10.2772ZM15.5269 22.5227L11.8659 14.974L23.0001 3.83984L15.5269 22.5227Z" fill="white"/>
</svg>
