<svg width="26" height="26" viewBox="0 0 26 26" fill="none" xmlns="http://www.w3.org/2000/svg">
<path d="M25.6742 7.41651C25.6157 6.08815 25.4009 5.17493 25.0931 4.3836C24.7755 3.54363 24.2871 2.79159 23.6471 2.16644C23.0219 1.53154 22.2647 1.0382 21.4342 0.725721C20.6383 0.418 19.7295 0.20319 18.4009 0.144623C17.0625 0.0810959 16.6375 0.0664062 13.2427 0.0664062C9.84777 0.0664062 9.42285 0.0810959 8.08929 0.139663C6.76067 0.198231 5.84728 0.413232 5.05599 0.720753C4.21567 1.0382 3.4635 1.52658 2.83821 2.16644C2.2032 2.79159 1.70996 3.54859 1.39722 4.37883C1.08945 5.17493 0.874603 6.08319 0.816025 7.41154C0.752485 8.74982 0.737793 9.17467 0.737793 12.5689C0.737793 15.9631 0.752485 16.3879 0.811064 17.7213C0.869642 19.0496 1.08468 19.9628 1.39246 20.7542C1.70996 21.5942 2.2032 22.3462 2.83821 22.9714C3.4635 23.6063 4.22063 24.0996 5.05103 24.4121C5.84728 24.7198 6.75572 24.9346 8.08452 24.9932C9.41789 25.0519 9.843 25.0664 13.2379 25.0664C16.6328 25.0664 17.0577 25.0519 18.3913 24.9932C19.7199 24.9346 20.6333 24.7198 21.4246 24.4121C23.105 23.7625 24.4336 22.4341 25.0833 20.7542C25.3909 19.9582 25.6059 19.0496 25.6646 17.7213C25.7231 16.3879 25.7378 15.9631 25.7378 12.5689C25.7378 9.17467 25.7328 8.74982 25.6742 7.41651ZM23.4226 17.6237C23.3687 18.8446 23.1635 19.5039 22.9926 19.9435C22.5725 21.0325 21.7078 21.8969 20.6186 22.317C20.1789 22.488 19.5147 22.6931 18.2983 22.7466C16.9794 22.8054 16.5839 22.8199 13.2477 22.8199C9.91132 22.8199 9.51081 22.8054 8.1967 22.7466C6.97553 22.6931 6.3161 22.488 5.87647 22.317C5.33439 22.1167 4.84095 21.7992 4.44044 21.3841C4.02525 20.9788 3.70774 20.4903 3.50739 19.9484C3.33642 19.5089 3.1313 18.8446 3.07769 17.6286C3.01891 16.3099 3.00441 15.9143 3.00441 12.5786C3.00441 9.24296 3.01891 8.84254 3.07769 7.52887C3.1313 6.30792 3.33642 5.64862 3.50739 5.20907C3.70774 4.66689 4.02525 4.17375 4.4454 3.77312C4.85068 3.358 5.33915 3.04055 5.88143 2.84044C6.32106 2.6695 6.98545 2.46443 8.20167 2.41062C9.52055 2.35206 9.91628 2.33736 13.2523 2.33736C16.5936 2.33736 16.9892 2.35206 18.3033 2.41062C19.5245 2.46443 20.1839 2.6695 20.6236 2.84044C21.1657 3.04055 21.6591 3.358 22.0596 3.77312C22.4748 4.17852 22.7922 4.66689 22.9926 5.20907C23.1635 5.64862 23.3687 6.31269 23.4226 7.52887C23.4811 8.84749 23.4958 9.24296 23.4958 12.5786C23.4958 15.9143 23.4811 16.305 23.4226 17.6237Z" fill="white"/>
<path d="M13.2413 6.14648C9.69508 6.14648 6.81787 9.02295 6.81787 12.5687C6.81787 16.1144 9.69508 18.9909 13.2413 18.9909C16.7876 18.9909 19.6646 16.1144 19.6646 12.5687C19.6646 9.02295 16.7876 6.14648 13.2413 6.14648ZM13.2413 16.7346C10.9406 16.7346 9.07457 14.869 9.07457 12.5687C9.07457 10.2683 10.9406 8.40275 13.2413 8.40275C15.5421 8.40275 17.4079 10.2683 17.4079 12.5687C17.4079 14.869 15.5421 16.7346 13.2413 16.7346Z" fill="white"/>
<path d="M21.4207 5.89187C21.4207 6.71983 20.7493 7.39116 19.9209 7.39116C19.0929 7.39116 18.4214 6.71983 18.4214 5.89187C18.4214 5.06373 19.0929 4.39258 19.9209 4.39258C20.7493 4.39258 21.4207 5.06373 21.4207 5.89187Z" fill="white"/>
</svg>
