<svg width="26" height="25" viewBox="0 0 26 25" fill="none" xmlns="http://www.w3.org/2000/svg">
<path d="M13.2362 0.0664062C6.33467 0.0664062 0.737793 5.68516 0.737793 12.6164C0.737793 18.1602 4.31904 22.8633 9.28779 24.5242C9.91279 24.6398 10.1409 24.2523 10.1409 23.9195C10.1409 23.6211 10.13 22.832 10.1237 21.7852C6.64717 22.543 5.91279 20.1023 5.91279 20.1023C5.34561 18.6523 4.52529 18.2664 4.52529 18.2664C3.38936 17.4883 4.60967 17.5039 4.60967 17.5039C5.86436 17.593 6.52373 18.7977 6.52373 18.7977C7.63936 20.7148 9.45029 20.1617 10.1628 19.8398C10.2753 19.0289 10.5987 18.4758 10.9565 18.1617C8.18154 17.8445 5.26279 16.768 5.26279 11.9602C5.26279 10.5898 5.75029 9.46953 6.55029 8.59141C6.42061 8.27422 5.99248 6.99766 6.67217 5.27109C6.67217 5.27109 7.72217 4.93359 10.1097 6.55703C11.1065 6.27891 12.1753 6.13984 13.2394 6.13516C14.3003 6.14141 15.3706 6.27891 16.369 6.55859C18.755 4.93516 19.8034 5.27266 19.8034 5.27266C20.4847 7.00078 20.0565 8.27578 19.9284 8.59297C20.73 9.47109 21.2128 10.5914 21.2128 11.9617C21.2128 16.782 18.2909 17.843 15.5065 18.1539C15.955 18.5414 16.355 19.307 16.355 20.4773C16.355 22.1555 16.3394 23.5086 16.3394 23.9195C16.3394 24.2555 16.5644 24.6461 17.1987 24.5227C22.1597 22.8602 25.7378 18.1586 25.7378 12.6164C25.7378 5.68516 20.1409 0.0664062 13.2362 0.0664062Z" fill="white"/>
</svg>
