<svg width="269" height="269" viewBox="0 0 269 269" fill="none" xmlns="http://www.w3.org/2000/svg">
<circle cx="134.286" cy="134.286" r="117.225" transform="rotate(-9.09742 134.286 134.286)" fill="#FEF151"/>
<path d="M71.1221 127.514L70.4636 137.518L67.8864 137.93L61.7542 124.566L64.438 124.136L68.4119 133.016L69.0947 123.391L71.7785 122.961L75.4325 131.891L76.4351 122.215L79.119 121.785L77.4664 136.396L74.8892 136.809L71.1221 127.514ZM92.0241 125.625L92.3713 127.794L85.0308 128.969L85.6569 132.879L93.5129 131.621L93.8572 133.772L83.1931 135.479L80.9532 121.492L91.4397 119.812L91.7869 121.981L84.1087 123.21L84.6836 126.801L92.0241 125.625ZM93.8321 119.429L96.6404 118.98L98.533 130.799L106.016 129.601L106.363 131.769L96.072 133.417L93.8321 119.429ZM106.12 124.626C105.951 123.571 105.973 122.565 106.184 121.608C106.395 120.65 106.768 119.795 107.304 119.04C107.849 118.272 108.549 117.632 109.402 117.118C110.256 116.605 111.234 116.26 112.336 116.084C114.99 115.659 117.306 116.46 119.284 118.489L117.713 120.181C117.13 119.424 116.398 118.872 115.516 118.527C114.633 118.171 113.699 118.071 112.716 118.228C112.04 118.337 111.441 118.578 110.918 118.954C110.393 119.317 109.961 119.769 109.622 120.31C109.293 120.836 109.067 121.438 108.945 122.114C108.82 122.778 108.815 123.465 108.928 124.176C109.046 124.911 109.274 125.573 109.611 126.163C109.949 126.753 110.375 127.25 110.889 127.654C111.403 128.058 111.984 128.347 112.632 128.523C113.278 128.687 113.975 128.709 114.721 128.59C115.183 128.516 115.61 128.374 116.002 128.166C116.394 127.957 116.748 127.7 117.064 127.394C117.391 127.087 117.682 126.742 117.937 126.361C118.19 125.968 118.404 125.557 118.578 125.128L120.595 126.337C119.993 127.588 119.217 128.587 118.268 129.334C117.318 130.082 116.126 130.571 114.692 130.8C113.65 130.967 112.65 130.951 111.695 130.751C110.739 130.552 109.879 130.185 109.113 129.652C108.347 129.118 107.702 128.432 107.178 127.592C106.653 126.74 106.3 125.751 106.12 124.626ZM120.871 122.246C120.694 121.144 120.724 120.112 120.959 119.151C121.192 118.178 121.595 117.317 122.168 116.569C122.741 115.821 123.456 115.202 124.313 114.713C125.18 114.209 126.147 113.872 127.214 113.701C128.292 113.529 129.316 113.547 130.285 113.756C131.264 113.952 132.137 114.317 132.903 114.85C133.681 115.382 134.326 116.074 134.84 116.928C135.363 117.768 135.713 118.739 135.89 119.841C136.068 120.954 136.04 121.998 135.807 122.971C135.584 123.93 135.186 124.784 134.613 125.532C134.054 126.29 133.34 126.915 132.471 127.406C131.615 127.908 130.648 128.245 129.57 128.418C128.504 128.589 127.48 128.57 126.499 128.363C125.531 128.165 124.658 127.795 123.878 127.251C123.1 126.719 122.45 126.034 121.926 125.194C121.401 124.342 121.049 123.359 120.871 122.246ZM123.679 121.796C123.806 122.59 124.045 123.287 124.397 123.887C124.746 124.475 125.17 124.96 125.669 125.342C126.166 125.712 126.717 125.97 127.324 126.116C127.943 126.26 128.572 126.281 129.212 126.178C129.863 126.074 130.455 125.858 130.985 125.53C131.516 125.202 131.96 124.784 132.316 124.277C132.671 123.759 132.916 123.167 133.052 122.501C133.199 121.821 133.208 121.084 133.081 120.29C132.956 119.508 132.72 118.829 132.372 118.253C132.035 117.663 131.618 117.183 131.121 116.813C130.622 116.431 130.069 116.167 129.463 116.021C128.856 115.875 128.227 115.854 127.575 115.958C126.923 116.063 126.326 116.28 125.784 116.61C125.253 116.938 124.81 117.361 124.456 117.88C124.099 118.387 123.847 118.974 123.699 119.642C123.56 120.296 123.554 121.014 123.679 121.796ZM147.912 125.116L145.868 125.443L140.63 117.204L142.047 126.055L139.239 126.505L136.999 112.517L139.807 112.067L146.435 122.491L149.494 110.516L152.302 110.067L154.542 124.054L151.734 124.504L150.316 115.653L147.912 125.116ZM166.034 113.774L166.382 115.942L159.041 117.118L159.667 121.028L167.523 119.77L167.868 121.921L157.203 123.628L154.964 109.641L165.45 107.961L165.797 110.13L158.119 111.359L158.694 114.949L166.034 113.774ZM179.231 107.979L181.124 119.798L178.316 120.248L176.423 108.428L171.749 109.177L171.401 107.008L183.558 105.062L183.906 107.23L179.231 107.979ZM185.925 111.829C185.748 110.727 185.778 109.695 186.013 108.734C186.246 107.761 186.649 106.9 187.222 106.152C187.795 105.404 188.51 104.785 189.367 104.296C190.234 103.792 191.201 103.455 192.268 103.284C193.346 103.112 194.37 103.13 195.339 103.339C196.318 103.535 197.191 103.9 197.957 104.433C198.735 104.965 199.38 105.657 199.894 106.511C200.417 107.351 200.767 108.322 200.944 109.424C201.122 110.538 201.095 111.581 200.861 112.554C200.638 113.513 200.24 114.367 199.667 115.115C199.108 115.873 198.394 116.498 197.525 116.989C196.669 117.491 195.702 117.828 194.624 118.001C193.558 118.172 192.534 118.153 191.553 117.946C190.585 117.748 189.712 117.378 188.932 116.834C188.154 116.302 187.504 115.617 186.98 114.777C186.455 113.925 186.103 112.942 185.925 111.829ZM188.733 111.379C188.86 112.173 189.099 112.87 189.451 113.47C189.8 114.058 190.224 114.543 190.723 114.925C191.22 115.295 191.771 115.553 192.378 115.699C192.997 115.843 193.626 115.864 194.266 115.761C194.917 115.657 195.509 115.441 196.039 115.113C196.57 114.785 197.014 114.367 197.37 113.861C197.725 113.342 197.97 112.75 198.106 112.084C198.253 111.404 198.262 110.667 198.135 109.873C198.01 109.091 197.774 108.412 197.426 107.836C197.089 107.246 196.672 106.766 196.175 106.396C195.676 106.014 195.123 105.75 194.517 105.604C193.91 105.458 193.281 105.437 192.629 105.542C191.977 105.646 191.38 105.863 190.838 106.193C190.307 106.521 189.864 106.944 189.51 107.463C189.153 107.97 188.901 108.557 188.753 109.225C188.614 109.879 188.608 110.597 188.733 111.379ZM53.6332 165.531L51.5893 165.859L46.3506 157.619L47.7679 166.47L44.9597 166.92L42.7199 152.932L45.5281 152.483L52.1555 162.906L55.2147 150.932L58.0229 150.482L60.2628 164.47L57.4545 164.919L56.0372 156.068L53.6332 165.531ZM67.1899 163.36L66.2421 157.442L59.9201 150.178L62.9594 149.691L67.2222 154.569L69.7489 148.604L72.7882 148.118L69.0504 156.992L69.9981 162.911L67.1899 163.36ZM78.9092 147.137L86.4097 145.936C87.014 145.84 87.5901 145.832 88.138 145.915C88.6859 145.997 89.1829 146.179 89.629 146.46C90.0731 146.729 90.4436 147.107 90.7403 147.594C91.0471 148.068 91.2564 148.654 91.3683 149.353C91.4784 150.041 91.4706 150.637 91.3451 151.144C91.2177 151.638 90.9949 152.069 90.677 152.435C90.359 152.802 89.9545 153.122 89.4635 153.395C88.9725 153.668 88.4175 153.921 87.7985 154.154L83.2173 156.054L83.9573 160.676L81.1491 161.125L78.9092 147.137ZM88.5779 149.8C88.4773 149.172 88.2109 148.723 87.7786 148.452C87.3581 148.179 86.8517 148.09 86.2592 148.184L82.0647 148.856L82.8417 153.708L86.606 152.285C87.3316 152.035 87.8624 151.707 88.1984 151.301C88.5444 150.881 88.6708 150.381 88.5779 149.8ZM93.0205 144.878L95.8287 144.428L97.7213 156.248L105.204 155.049L105.551 157.218L95.2603 158.866L93.0205 144.878ZM106.524 157.062L109.438 142.249L112.513 141.757L119.907 154.919L117.117 155.366L114.797 151.125L109.918 153.328L109.314 156.615L106.524 157.062ZM110.393 150.828L113.794 149.299L111.453 145.043L110.393 150.828ZM124.52 154.18L123.572 148.262L117.25 140.998L120.29 140.511L124.552 145.389L127.079 139.424L130.118 138.937L126.381 147.812L127.328 153.731L124.52 154.18ZM132.733 145.683C132.564 144.628 132.585 143.622 132.796 142.665C133.008 141.707 133.381 140.852 133.916 140.097C134.462 139.33 135.161 138.689 136.015 138.175C136.868 137.662 137.846 137.317 138.948 137.141C141.602 136.716 143.918 137.518 145.896 139.546L144.326 141.238C143.743 140.481 143.01 139.929 142.129 139.585C141.245 139.228 140.312 139.128 139.328 139.286C138.653 139.394 138.053 139.636 137.53 140.011C137.005 140.375 136.573 140.827 136.234 141.367C135.905 141.894 135.68 142.495 135.557 143.171C135.432 143.835 135.427 144.522 135.541 145.233C135.658 145.968 135.868 146.633 136.17 147.229C136.484 147.823 136.869 148.326 137.324 148.739C137.777 149.141 138.298 149.434 138.886 149.619C139.473 149.793 140.098 149.826 140.762 149.72C141.366 149.623 141.903 149.446 142.372 149.189C142.853 148.93 143.252 148.61 143.568 148.232C143.894 147.839 144.127 147.395 144.266 146.899C144.417 146.4 144.458 145.859 144.389 145.275L140.088 145.964L139.74 143.795L146.85 142.657L147.066 144.008C147.229 145.027 147.211 145.977 147.012 146.86C146.825 147.741 146.476 148.52 145.965 149.197C145.467 149.884 144.823 150.455 144.033 150.91C143.245 151.376 142.336 151.692 141.305 151.857C140.262 152.024 139.263 152.008 138.307 151.809C137.352 151.609 136.491 151.243 135.725 150.709C134.959 150.175 134.314 149.489 133.791 148.649C133.266 147.797 132.913 146.809 132.733 145.683ZM148.077 136.062L155.577 134.861C156.182 134.764 156.758 134.757 157.306 134.839C157.854 134.922 158.351 135.103 158.797 135.384C159.241 135.653 159.611 136.032 159.908 136.519C160.215 136.992 160.424 137.579 160.536 138.278C160.695 139.273 160.606 140.083 160.269 140.708C159.943 141.332 159.437 141.85 158.75 142.264L162.865 148.04L159.968 148.504L156.301 143.367L152.385 144.979L153.125 149.6L150.317 150.05L148.077 136.062ZM157.746 138.724C157.645 138.096 157.379 137.647 156.946 137.376C156.526 137.103 156.019 137.014 155.427 137.109L151.232 137.78L152.009 142.633L155.774 141.21C156.499 140.96 157.03 140.632 157.366 140.225C157.712 139.805 157.839 139.305 157.746 138.724ZM163.139 140.796C162.963 139.694 162.992 138.662 163.227 137.701C163.46 136.728 163.863 135.867 164.436 135.119C165.009 134.371 165.724 133.752 166.581 133.263C167.449 132.759 168.416 132.422 169.482 132.251C170.56 132.079 171.584 132.097 172.553 132.306C173.533 132.502 174.405 132.867 175.171 133.4C175.949 133.932 176.595 134.625 177.108 135.478C177.632 136.318 177.981 137.289 178.158 138.391C178.336 139.505 178.309 140.548 178.076 141.521C177.853 142.481 177.455 143.334 176.882 144.082C176.323 144.84 175.608 145.465 174.739 145.957C173.884 146.458 172.917 146.795 171.839 146.968C170.772 147.139 169.748 147.12 168.767 146.913C167.8 146.715 166.926 146.345 166.147 145.801C165.369 145.269 164.718 144.584 164.195 143.744C163.669 142.892 163.318 141.91 163.139 140.796ZM165.947 140.346C166.075 141.14 166.314 141.837 166.665 142.437C167.015 143.025 167.439 143.51 167.937 143.892C168.434 144.262 168.986 144.52 169.592 144.666C170.211 144.81 170.84 144.831 171.48 144.728C172.132 144.624 172.723 144.408 173.254 144.08C173.785 143.752 174.228 143.334 174.585 142.828C174.939 142.309 175.184 141.717 175.321 141.051C175.467 140.371 175.477 139.634 175.35 138.84C175.224 138.058 174.988 137.379 174.641 136.803C174.303 136.213 173.886 135.733 173.389 135.363C172.891 134.981 172.338 134.717 171.731 134.571C171.124 134.425 170.495 134.404 169.844 134.509C169.192 134.613 168.595 134.83 168.052 135.16C167.521 135.488 167.079 135.911 166.724 136.43C166.368 136.937 166.115 137.524 165.967 138.192C165.829 138.846 165.822 139.564 165.947 140.346ZM187.643 144.437C186.79 144.574 185.968 144.566 185.178 144.413C184.4 144.258 183.698 143.975 183.073 143.565C182.451 143.166 181.924 142.649 181.494 142.013C181.074 141.363 180.796 140.612 180.659 139.759L179.267 131.067L182.076 130.618L183.439 139.131C183.517 139.617 183.662 140.068 183.874 140.483C184.085 140.887 184.352 141.227 184.676 141.503C184.999 141.78 185.378 141.98 185.811 142.105C186.256 142.229 186.745 142.248 187.278 142.162C187.812 142.077 188.265 141.907 188.637 141.653C189.021 141.397 189.324 141.087 189.546 140.724C189.779 140.358 189.932 139.951 190.006 139.501C190.078 139.04 190.075 138.567 189.997 138.081L188.634 129.567L191.442 129.118L192.834 137.809C192.971 138.662 192.935 139.464 192.727 140.214C192.529 140.951 192.19 141.607 191.711 142.182C191.246 142.766 190.662 143.255 189.959 143.647C189.268 144.037 188.496 144.301 187.643 144.437ZM194.108 128.691L196.898 128.244L205.094 137.304L203.474 127.191L206.283 126.741L208.522 140.729L205.714 141.179L197.545 132.169L199.156 142.229L196.348 142.679L194.108 128.691ZM208.948 126.315L215.275 125.301C216.188 125.155 217.052 125.199 217.867 125.433C218.682 125.667 219.407 126.056 220.04 126.598C220.684 127.127 221.222 127.794 221.655 128.6C222.1 129.404 222.401 130.298 222.558 131.281C222.722 132.3 222.718 133.267 222.549 134.181C222.377 135.084 222.046 135.896 221.554 136.619C221.072 137.328 220.432 137.923 219.634 138.403C218.849 138.893 217.918 139.225 216.84 139.397L211.188 140.302L208.948 126.315ZM213.649 137.684L216.279 137.263C216.978 137.151 217.569 136.929 218.05 136.597C218.544 136.263 218.934 135.854 219.221 135.37C219.506 134.875 219.69 134.317 219.773 133.696C219.866 133.061 219.855 132.388 219.742 131.677C219.63 130.978 219.427 130.355 219.132 129.806C218.838 129.258 218.462 128.808 218.004 128.456C217.545 128.092 217.013 127.843 216.408 127.709C215.813 127.561 215.16 127.544 214.449 127.658L212.103 128.033L213.649 137.684ZM225.664 134.156L223.908 123.19L226.699 122.743L228.455 133.709L225.664 134.156ZM226.322 138.262L225.903 135.649L228.694 135.202L229.112 137.815L226.322 138.262Z" fill="#191919"/>
<path d="M71.1221 127.514L70.4636 137.518L67.8864 137.93L61.7542 124.566L64.438 124.136L68.4119 133.016L69.0947 123.391L71.7785 122.961L75.4325 131.891L76.4351 122.215L79.119 121.785L77.4664 136.396L74.8892 136.809L71.1221 127.514ZM92.0241 125.625L92.3713 127.794L85.0308 128.969L85.6569 132.879L93.5129 131.621L93.8572 133.772L83.1931 135.479L80.9532 121.492L91.4397 119.812L91.7869 121.981L84.1087 123.21L84.6836 126.801L92.0241 125.625ZM93.8321 119.429L96.6404 118.98L98.533 130.799L106.016 129.601L106.363 131.769L96.072 133.417L93.8321 119.429ZM106.12 124.626C105.951 123.571 105.973 122.565 106.184 121.608C106.395 120.65 106.768 119.795 107.304 119.04C107.849 118.272 108.549 117.632 109.402 117.118C110.256 116.605 111.234 116.26 112.336 116.084C114.99 115.659 117.306 116.46 119.284 118.489L117.713 120.181C117.13 119.424 116.398 118.872 115.516 118.527C114.633 118.171 113.699 118.071 112.716 118.228C112.04 118.337 111.441 118.578 110.918 118.954C110.393 119.317 109.961 119.769 109.622 120.31C109.293 120.836 109.067 121.438 108.945 122.114C108.82 122.778 108.815 123.465 108.928 124.176C109.046 124.911 109.274 125.573 109.611 126.163C109.949 126.753 110.375 127.25 110.889 127.654C111.403 128.058 111.984 128.347 112.632 128.523C113.278 128.687 113.975 128.709 114.721 128.59C115.183 128.516 115.61 128.374 116.002 128.166C116.394 127.957 116.748 127.7 117.064 127.394C117.391 127.087 117.682 126.742 117.937 126.361C118.19 125.968 118.404 125.557 118.578 125.128L120.595 126.337C119.993 127.588 119.217 128.587 118.268 129.334C117.318 130.082 116.126 130.571 114.692 130.8C113.65 130.967 112.65 130.951 111.695 130.751C110.739 130.552 109.879 130.185 109.113 129.652C108.347 129.118 107.702 128.432 107.178 127.592C106.653 126.74 106.3 125.751 106.12 124.626ZM120.871 122.246C120.694 121.144 120.724 120.112 120.959 119.151C121.192 118.178 121.595 117.317 122.168 116.569C122.741 115.821 123.456 115.202 124.313 114.713C125.18 114.209 126.147 113.872 127.214 113.701C128.292 113.529 129.316 113.547 130.285 113.756C131.264 113.952 132.137 114.317 132.903 114.85C133.681 115.382 134.326 116.074 134.84 116.928C135.363 117.768 135.713 118.739 135.89 119.841C136.068 120.954 136.04 121.998 135.807 122.971C135.584 123.93 135.186 124.784 134.613 125.532C134.054 126.29 133.34 126.915 132.471 127.406C131.615 127.908 130.648 128.245 129.57 128.418C128.504 128.589 127.48 128.57 126.499 128.363C125.531 128.165 124.658 127.795 123.878 127.251C123.1 126.719 122.45 126.034 121.926 125.194C121.401 124.342 121.049 123.359 120.871 122.246ZM123.679 121.796C123.806 122.59 124.045 123.287 124.397 123.887C124.746 124.475 125.17 124.96 125.669 125.342C126.166 125.712 126.717 125.97 127.324 126.116C127.943 126.26 128.572 126.281 129.212 126.178C129.863 126.074 130.455 125.858 130.985 125.53C131.516 125.202 131.96 124.784 132.316 124.277C132.671 123.759 132.916 123.167 133.052 122.501C133.199 121.821 133.208 121.084 133.081 120.29C132.956 119.508 132.72 118.829 132.372 118.253C132.035 117.663 131.618 117.183 131.121 116.813C130.622 116.431 130.069 116.167 129.463 116.021C128.856 115.875 128.227 115.854 127.575 115.958C126.923 116.063 126.326 116.28 125.784 116.61C125.253 116.938 124.81 117.361 124.456 117.88C124.099 118.387 123.847 118.974 123.699 119.642C123.56 120.296 123.554 121.014 123.679 121.796ZM147.912 125.116L145.868 125.443L140.63 117.204L142.047 126.055L139.239 126.505L136.999 112.517L139.807 112.067L146.435 122.491L149.494 110.516L152.302 110.067L154.542 124.054L151.734 124.504L150.316 115.653L147.912 125.116ZM166.034 113.774L166.382 115.942L159.041 117.118L159.667 121.028L167.523 119.77L167.868 121.921L157.203 123.628L154.964 109.641L165.45 107.961L165.797 110.13L158.119 111.359L158.694 114.949L166.034 113.774ZM179.231 107.979L181.124 119.798L178.316 120.248L176.423 108.428L171.749 109.177L171.401 107.008L183.558 105.062L183.906 107.23L179.231 107.979ZM185.925 111.829C185.748 110.727 185.778 109.695 186.013 108.734C186.246 107.761 186.649 106.9 187.222 106.152C187.795 105.404 188.51 104.785 189.367 104.296C190.234 103.792 191.201 103.455 192.268 103.284C193.346 103.112 194.37 103.13 195.339 103.339C196.318 103.535 197.191 103.9 197.957 104.433C198.735 104.965 199.38 105.657 199.894 106.511C200.417 107.351 200.767 108.322 200.944 109.424C201.122 110.538 201.095 111.581 200.861 112.554C200.638 113.513 200.24 114.367 199.667 115.115C199.108 115.873 198.394 116.498 197.525 116.989C196.669 117.491 195.702 117.828 194.624 118.001C193.558 118.172 192.534 118.153 191.553 117.946C190.585 117.748 189.712 117.378 188.932 116.834C188.154 116.302 187.504 115.617 186.98 114.777C186.455 113.925 186.103 112.942 185.925 111.829ZM188.733 111.379C188.86 112.173 189.099 112.87 189.451 113.47C189.8 114.058 190.224 114.543 190.723 114.925C191.22 115.295 191.771 115.553 192.378 115.699C192.997 115.843 193.626 115.864 194.266 115.761C194.917 115.657 195.509 115.441 196.039 115.113C196.57 114.785 197.014 114.367 197.37 113.861C197.725 113.342 197.97 112.75 198.106 112.084C198.253 111.404 198.262 110.667 198.135 109.873C198.01 109.091 197.774 108.412 197.426 107.836C197.089 107.246 196.672 106.766 196.175 106.396C195.676 106.014 195.123 105.75 194.517 105.604C193.91 105.458 193.281 105.437 192.629 105.542C191.977 105.646 191.38 105.863 190.838 106.193C190.307 106.521 189.864 106.944 189.51 107.463C189.153 107.97 188.901 108.557 188.753 109.225C188.614 109.879 188.608 110.597 188.733 111.379ZM53.6332 165.531L51.5893 165.859L46.3506 157.619L47.7679 166.47L44.9597 166.92L42.7199 152.932L45.5281 152.483L52.1555 162.906L55.2147 150.932L58.0229 150.482L60.2628 164.47L57.4545 164.919L56.0372 156.068L53.6332 165.531ZM67.1899 163.36L66.2421 157.442L59.9201 150.178L62.9594 149.691L67.2222 154.569L69.7489 148.604L72.7882 148.118L69.0504 156.992L69.9981 162.911L67.1899 163.36ZM78.9092 147.137L86.4097 145.936C87.014 145.84 87.5901 145.832 88.138 145.915C88.6859 145.997 89.1829 146.179 89.629 146.46C90.0731 146.729 90.4436 147.107 90.7403 147.594C91.0471 148.068 91.2564 148.654 91.3683 149.353C91.4784 150.041 91.4706 150.637 91.3451 151.144C91.2177 151.638 90.9949 152.069 90.677 152.435C90.359 152.802 89.9545 153.122 89.4635 153.395C88.9725 153.668 88.4175 153.921 87.7985 154.154L83.2173 156.054L83.9573 160.676L81.1491 161.125L78.9092 147.137ZM88.5779 149.8C88.4773 149.172 88.2109 148.723 87.7786 148.452C87.3581 148.179 86.8517 148.09 86.2592 148.184L82.0647 148.856L82.8417 153.708L86.606 152.285C87.3316 152.035 87.8624 151.707 88.1984 151.301C88.5444 150.881 88.6708 150.381 88.5779 149.8ZM93.0205 144.878L95.8287 144.428L97.7213 156.248L105.204 155.049L105.551 157.218L95.2603 158.866L93.0205 144.878ZM106.524 157.062L109.438 142.249L112.513 141.757L119.907 154.919L117.117 155.366L114.797 151.125L109.918 153.328L109.314 156.615L106.524 157.062ZM110.393 150.828L113.794 149.299L111.453 145.043L110.393 150.828ZM124.52 154.18L123.572 148.262L117.25 140.998L120.29 140.511L124.552 145.389L127.079 139.424L130.118 138.937L126.381 147.812L127.328 153.731L124.52 154.18ZM132.733 145.683C132.564 144.628 132.585 143.622 132.796 142.665C133.008 141.707 133.381 140.852 133.916 140.097C134.462 139.33 135.161 138.689 136.015 138.175C136.868 137.662 137.846 137.317 138.948 137.141C141.602 136.716 143.918 137.518 145.896 139.546L144.326 141.238C143.743 140.481 143.01 139.929 142.129 139.585C141.245 139.228 140.312 139.128 139.328 139.286C138.653 139.394 138.053 139.636 137.53 140.011C137.005 140.375 136.573 140.827 136.234 141.367C135.905 141.894 135.68 142.495 135.557 143.171C135.432 143.835 135.427 144.522 135.541 145.233C135.658 145.968 135.868 146.633 136.17 147.229C136.484 147.823 136.869 148.326 137.324 148.739C137.777 149.141 138.298 149.434 138.886 149.619C139.473 149.793 140.098 149.826 140.762 149.72C141.366 149.623 141.903 149.446 142.372 149.189C142.853 148.93 143.252 148.61 143.568 148.232C143.894 147.839 144.127 147.395 144.266 146.899C144.417 146.4 144.458 145.859 144.389 145.275L140.088 145.964L139.74 143.795L146.85 142.657L147.066 144.008C147.229 145.027 147.211 145.977 147.012 146.86C146.825 147.741 146.476 148.52 145.965 149.197C145.467 149.884 144.823 150.455 144.033 150.91C143.245 151.376 142.336 151.692 141.305 151.857C140.262 152.024 139.263 152.008 138.307 151.809C137.352 151.609 136.491 151.243 135.725 150.709C134.959 150.175 134.314 149.489 133.791 148.649C133.266 147.797 132.913 146.809 132.733 145.683ZM148.077 136.062L155.577 134.861C156.182 134.764 156.758 134.757 157.306 134.839C157.854 134.922 158.351 135.103 158.797 135.384C159.241 135.653 159.611 136.032 159.908 136.519C160.215 136.992 160.424 137.579 160.536 138.278C160.695 139.273 160.606 140.083 160.269 140.708C159.943 141.332 159.437 141.85 158.75 142.264L162.865 148.04L159.968 148.504L156.301 143.367L152.385 144.979L153.125 149.6L150.317 150.05L148.077 136.062ZM157.746 138.724C157.645 138.096 157.379 137.647 156.946 137.376C156.526 137.103 156.019 137.014 155.427 137.109L151.232 137.78L152.009 142.633L155.774 141.21C156.499 140.96 157.03 140.632 157.366 140.225C157.712 139.805 157.839 139.305 157.746 138.724ZM163.139 140.796C162.963 139.694 162.992 138.662 163.227 137.701C163.46 136.728 163.863 135.867 164.436 135.119C165.009 134.371 165.724 133.752 166.581 133.263C167.449 132.759 168.416 132.422 169.482 132.251C170.56 132.079 171.584 132.097 172.553 132.306C173.533 132.502 174.405 132.867 175.171 133.4C175.949 133.932 176.595 134.625 177.108 135.478C177.632 136.318 177.981 137.289 178.158 138.391C178.336 139.505 178.309 140.548 178.076 141.521C177.853 142.481 177.455 143.334 176.882 144.082C176.323 144.84 175.608 145.465 174.739 145.957C173.884 146.458 172.917 146.795 171.839 146.968C170.772 147.139 169.748 147.12 168.767 146.913C167.8 146.715 166.926 146.345 166.147 145.801C165.369 145.269 164.718 144.584 164.195 143.744C163.669 142.892 163.318 141.91 163.139 140.796ZM165.947 140.346C166.075 141.14 166.314 141.837 166.665 142.437C167.015 143.025 167.439 143.51 167.937 143.892C168.434 144.262 168.986 144.52 169.592 144.666C170.211 144.81 170.84 144.831 171.48 144.728C172.132 144.624 172.723 144.408 173.254 144.08C173.785 143.752 174.228 143.334 174.585 142.828C174.939 142.309 175.184 141.717 175.321 141.051C175.467 140.371 175.477 139.634 175.35 138.84C175.224 138.058 174.988 137.379 174.641 136.803C174.303 136.213 173.886 135.733 173.389 135.363C172.891 134.981 172.338 134.717 171.731 134.571C171.124 134.425 170.495 134.404 169.844 134.509C169.192 134.613 168.595 134.83 168.052 135.16C167.521 135.488 167.079 135.911 166.724 136.43C166.368 136.937 166.115 137.524 165.967 138.192C165.829 138.846 165.822 139.564 165.947 140.346ZM187.643 144.437C186.79 144.574 185.968 144.566 185.178 144.413C184.4 144.258 183.698 143.975 183.073 143.565C182.451 143.166 181.924 142.649 181.494 142.013C181.074 141.363 180.796 140.612 180.659 139.759L179.267 131.067L182.076 130.618L183.439 139.131C183.517 139.617 183.662 140.068 183.874 140.483C184.085 140.887 184.352 141.227 184.676 141.503C184.999 141.78 185.378 141.98 185.811 142.105C186.256 142.229 186.745 142.248 187.278 142.162C187.812 142.077 188.265 141.907 188.637 141.653C189.021 141.397 189.324 141.087 189.546 140.724C189.779 140.358 189.932 139.951 190.006 139.501C190.078 139.04 190.075 138.567 189.997 138.081L188.634 129.567L191.442 129.118L192.834 137.809C192.971 138.662 192.935 139.464 192.727 140.214C192.529 140.951 192.19 141.607 191.711 142.182C191.246 142.766 190.662 143.255 189.959 143.647C189.268 144.037 188.496 144.301 187.643 144.437ZM194.108 128.691L196.898 128.244L205.094 137.304L203.474 127.191L206.283 126.741L208.522 140.729L205.714 141.179L197.545 132.169L199.156 142.229L196.348 142.679L194.108 128.691ZM208.948 126.315L215.275 125.301C216.188 125.155 217.052 125.199 217.867 125.433C218.682 125.667 219.407 126.056 220.04 126.598C220.684 127.127 221.222 127.794 221.655 128.6C222.1 129.404 222.401 130.298 222.558 131.281C222.722 132.3 222.718 133.267 222.549 134.181C222.377 135.084 222.046 135.896 221.554 136.619C221.072 137.328 220.432 137.923 219.634 138.403C218.849 138.893 217.918 139.225 216.84 139.397L211.188 140.302L208.948 126.315ZM213.649 137.684L216.279 137.263C216.978 137.151 217.569 136.929 218.05 136.597C218.544 136.263 218.934 135.854 219.221 135.37C219.506 134.875 219.69 134.317 219.773 133.696C219.866 133.061 219.855 132.388 219.742 131.677C219.63 130.978 219.427 130.355 219.132 129.806C218.838 129.258 218.462 128.808 218.004 128.456C217.545 128.092 217.013 127.843 216.408 127.709C215.813 127.561 215.16 127.544 214.449 127.658L212.103 128.033L213.649 137.684ZM225.664 134.156L223.908 123.19L226.699 122.743L228.455 133.709L225.664 134.156ZM226.322 138.262L225.903 135.649L228.694 135.202L229.112 137.815L226.322 138.262Z" fill="#191919"/>
</svg>
