<svg width="215" height="215" viewBox="0 0 215 215" fill="none" xmlns="http://www.w3.org/2000/svg">
<circle cx="107.241" cy="107.241" r="76.9437" transform="rotate(35.2425 107.241 107.241)" fill="#FDACFF"/>
<path d="M79.3301 86.1421C78.8347 87.5493 78.4356 89.0139 78.1328 90.5359C77.9184 91.5968 77.8954 92.4114 78.0639 92.9797C78.244 93.5512 78.5367 93.8921 78.9419 94.0025L79.0808 94.0404C79.3471 94.1129 79.625 94.1203 79.9144 94.0623C80.2154 94.0075 80.4974 93.817 80.7604 93.4906C81.0414 93.1443 81.2544 92.7733 81.3996 92.3775C81.5563 91.9849 81.6983 91.6007 81.8256 91.225L85.351 92.1856C85.1512 92.6908 84.9387 93.1056 84.7135 93.4298C84.4852 93.7656 84.2495 94.0371 84.0064 94.2445C83.7749 94.4551 83.5313 94.6188 83.2756 94.7357C83.0314 94.8557 82.782 94.9494 82.5273 95.0168C82.2874 95.0758 82.0217 95.1154 81.7301 95.1354C81.4354 95.1671 81.1281 95.1766 80.8082 95.164C80.4998 95.1546 80.1846 95.1247 79.8625 95.0743C79.552 95.027 79.2578 94.9655 78.98 94.8898L78.7021 94.814C77.4927 94.4596 76.5443 93.8778 75.8569 93.0686C75.1663 92.271 74.7809 91.2891 74.7006 90.123C74.6383 89.2105 74.7202 88.2938 74.9463 87.3728C75.184 86.455 75.5895 85.583 76.1629 84.7567C76.8236 83.7925 77.6539 83.1419 78.6537 82.8048C79.6566 82.4563 80.7691 82.436 81.991 82.7441L82.2689 82.8198C82.5468 82.8955 82.8315 82.9918 83.1231 83.1085C83.4262 83.2285 83.713 83.3626 83.9835 83.5109C84.2656 83.6624 84.5256 83.8265 84.7635 84.0033C85.0046 84.1685 85.2135 84.3374 85.3904 84.5099C85.7578 84.8961 86.0384 85.327 86.2321 85.8027C86.4406 86.27 86.5134 86.8246 86.4503 87.4666C86.4378 87.6498 86.3925 87.7929 86.3147 87.8961C86.2368 87.9992 86.1421 88.0729 86.0306 88.1171C85.9337 88.1529 85.8243 88.1666 85.7022 88.1583C85.5801 88.1499 85.4612 88.1299 85.3454 88.0983L82.8619 87.4216C82.9429 87.0332 83.0154 86.6301 83.0795 86.2123C83.1552 85.7976 83.1599 85.3698 83.0935 84.9288C83.0323 84.5141 82.886 84.2069 82.6544 84.0069C82.4344 83.8102 82.1912 83.6755 81.9249 83.6029L81.786 83.5651C81.3808 83.4547 80.9614 83.6016 80.5279 84.0058C80.0943 84.4101 79.6951 85.1222 79.3301 86.1421ZM91.2442 97.3548C91.6494 97.4652 92.0688 97.3183 92.5024 96.9141C92.9475 96.513 93.3467 95.8009 93.7001 94.7778C94.2113 93.3127 94.6104 91.8481 94.8974 90.384C95.1003 89.3199 95.1175 88.5037 94.9489 87.9354C94.7804 87.3671 94.4936 87.0278 94.0883 86.9174L93.8105 86.8416C93.4052 86.7312 92.9859 86.8781 92.5523 87.2824C92.1188 87.6866 91.7195 88.3987 91.3546 89.4186C90.8592 90.8259 90.4601 92.2905 90.1573 93.8124C89.9428 94.8734 89.9198 95.688 90.0884 96.2563C90.2685 96.8277 90.5611 97.1687 90.9664 97.2791L91.2442 97.3548ZM90.7266 98.0906C89.5109 97.7593 88.5609 97.1833 87.8766 96.3625C87.1892 95.5533 86.8053 94.5657 86.7251 93.3996C86.6628 92.4871 86.7447 91.5704 86.9708 90.6494C87.2084 89.7316 87.614 88.8595 88.1874 88.0332C88.8481 87.069 89.6799 86.4126 90.6829 86.064C91.689 85.7039 92.7998 85.6894 94.0155 86.0207L94.3281 86.1059C95.5375 86.4603 96.4859 87.0421 97.1733 87.8513C97.8639 88.6489 98.2493 89.6308 98.3296 90.7969C98.4045 91.7999 98.3058 92.7555 98.0334 93.6639C97.7726 94.5754 97.3839 95.4085 96.8673 96.1632C96.2066 97.1274 95.3763 97.778 94.3765 98.115C93.3736 98.4636 92.2612 98.4839 91.0392 98.1758L90.7266 98.0906ZM103.54 100.705C103.945 100.816 104.365 100.669 104.798 100.265C105.243 99.8635 105.643 99.1514 105.996 98.1283C106.507 96.6632 106.906 95.1986 107.193 93.7345C107.396 92.6704 107.413 91.8542 107.245 91.2859C107.076 90.7176 106.789 90.3783 106.384 90.2679L106.106 90.1921C105.701 90.0817 105.282 90.2286 104.848 90.6329C104.415 91.0371 104.015 91.7492 103.65 92.7691C103.155 94.1764 102.756 95.641 102.453 97.1629C102.239 98.2239 102.216 99.0385 102.384 99.6068C102.564 100.178 102.857 100.519 103.262 100.63L103.54 100.705ZM103.022 101.441C101.807 101.11 100.857 100.534 100.172 99.713C99.485 98.9038 99.1012 97.9162 99.0209 96.7501C98.9586 95.8376 99.0405 94.9209 99.2666 93.9999C99.5043 93.0821 99.9098 92.21 100.483 91.3837C101.144 90.4195 101.976 89.7631 102.979 89.4145C103.985 89.0544 105.096 89.0399 106.311 89.3712L106.624 89.4564C107.833 89.8108 108.782 90.3926 109.469 91.2018C110.16 91.9994 110.545 92.9813 110.625 94.1474C110.7 95.1504 110.602 96.106 110.329 97.0144C110.068 97.9259 109.68 98.759 109.163 99.5137C108.502 100.478 107.672 101.129 106.672 101.466C105.669 101.814 104.557 101.834 103.335 101.526L103.022 101.441ZM110.555 103.102L114.208 89.6947C114.302 89.3968 114.323 89.16 114.271 88.9843C114.234 88.8001 114.191 88.5954 114.14 88.3702C114.051 88.0597 114.019 87.8334 114.045 87.6913C114.086 87.5408 114.222 87.4971 114.454 87.5602L117.32 88.341C117.551 88.4041 117.738 88.5172 117.88 88.6803C118.025 88.8319 118.049 89.0871 117.951 89.446L114.213 103.166C114.115 103.525 113.965 103.733 113.763 103.789C113.558 103.858 113.339 103.861 113.108 103.797L110.555 103.102ZM122.858 95.559C123.041 94.8875 123.39 94.2923 123.904 93.7733C124.434 93.2459 125.108 92.8947 125.926 92.7199L123.096 91.9485L123.327 91.0975L127.391 92.2049C127.418 92.0628 127.432 91.9423 127.434 91.8433C127.439 91.7328 127.416 91.5897 127.364 91.4139C127.275 91.1035 127.243 90.8772 127.269 90.7351C127.31 90.5846 127.447 90.5409 127.678 90.604L130.717 91.4322C130.949 91.4952 131.136 91.6083 131.278 91.7714C131.423 91.923 131.447 92.1782 131.349 92.5371L131.16 93.2318L135.345 94.3723L135.113 95.2232L132.109 94.4045C132.737 94.9738 133.142 95.6126 133.322 96.3208C133.513 97.0323 133.516 97.7295 133.33 98.4126L133.15 99.0725C133.008 99.5935 132.767 100.069 132.426 100.498C132.097 100.931 131.666 101.28 131.133 101.545C130.612 101.814 129.996 101.975 129.285 102.03C128.576 102.074 127.782 101.975 126.902 101.736L126.694 101.679C125.814 101.439 125.08 101.121 124.491 100.724C123.918 100.319 123.469 99.8672 123.145 99.3684C122.832 98.8727 122.638 98.3534 122.562 97.8103C122.497 97.2704 122.536 96.74 122.678 96.219L122.858 95.559ZM132.981 105.649L135.83 95.1947C135.924 94.8968 135.945 94.66 135.893 94.4842C135.856 94.3001 135.812 94.0954 135.762 93.8701C135.672 93.5597 135.641 93.3334 135.667 93.1913C135.708 93.0408 135.844 92.9971 136.076 93.0602L139.289 93.9357C139.52 93.9988 139.707 94.1119 139.849 94.275C139.995 94.4265 140.018 94.6817 139.92 95.0406L138.714 99.4692L140.971 100.084L140.716 101.022L138.458 100.407L136.986 105.808C136.889 106.167 136.737 106.381 136.532 106.449C136.33 106.506 136.113 106.503 135.881 106.44L132.981 105.649ZM122.298 103.914C122.391 103.616 122.412 103.379 122.361 103.203C122.324 103.019 122.28 102.814 122.23 102.589C122.14 102.279 122.108 102.052 122.135 101.91C122.176 101.76 122.312 101.716 122.544 101.779L125.756 102.655C125.988 102.718 126.175 102.831 126.317 102.994C126.462 103.145 126.486 103.401 126.388 103.76L125.626 106.556L136.116 109.414L135.86 110.352L122.47 106.703C122.239 106.64 122.052 106.527 121.91 106.364C121.765 106.212 121.741 105.957 121.839 105.598L122.298 103.914ZM126.273 97.1986C125.989 98.2406 125.878 99.1057 125.939 99.794C126.015 100.474 126.325 100.888 126.869 101.036L127.077 101.093C127.61 101.238 128.081 101.037 128.492 100.49C128.905 99.9307 129.254 99.1302 129.538 98.0882L129.718 97.4283C130.002 96.3863 130.106 95.5253 130.03 94.8455C129.957 94.154 129.654 93.7357 129.122 93.5906L128.827 93.5101C128.308 93.4061 127.849 93.6293 127.45 94.1798C127.063 94.7335 126.73 95.5198 126.453 96.5386L126.273 97.1986ZM101.75 116.915C101.592 117.494 101.273 117.911 100.793 118.165C100.31 118.432 99.7293 118.578 99.0504 118.605C98.3684 118.643 97.6185 118.588 96.8007 118.439C95.9798 118.303 95.1583 118.122 94.3363 117.898L94.1279 117.842C93.2942 117.614 92.4775 117.348 91.6775 117.043C90.8744 116.75 90.1713 116.409 89.5682 116.021C88.9766 115.636 88.5213 115.207 88.2023 114.734C87.8949 114.265 87.82 113.741 87.9778 113.162L88.0629 112.85C88.2144 112.294 88.5416 111.892 89.0446 111.643C89.5592 111.398 90.1733 111.267 90.8869 111.25C91.6036 111.221 92.3825 111.284 93.2234 111.439C94.0675 111.582 94.9006 111.765 95.7226 111.989L95.931 112.046C96.7646 112.273 97.564 112.534 98.3293 112.83C99.1092 113.117 99.7834 113.45 100.352 113.829C100.923 114.196 101.351 114.611 101.636 115.074C101.92 115.537 101.986 116.046 101.835 116.602L101.75 116.915ZM96.1768 102.449C96.0064 103.074 95.7803 103.653 95.4983 104.186C95.2195 104.707 94.8934 105.196 94.5198 105.654C94.8988 105.77 95.294 105.94 95.7056 106.164C96.1287 106.391 96.5098 106.681 96.8487 107.035C97.1498 107.39 97.4151 107.786 97.6447 108.222C97.8889 108.649 97.9969 109.12 97.9686 109.635C97.9445 109.951 97.854 110.238 97.6973 110.494C97.5405 110.749 97.3427 110.95 97.1038 111.097C96.8944 111.226 96.6729 111.309 96.4392 111.345C96.2172 111.384 95.9872 111.383 95.7493 111.343C95.5262 111.295 95.3141 111.206 95.1131 111.077C94.912 110.947 94.7394 110.782 94.5951 110.581C94.414 110.333 94.3035 110.054 94.2634 109.744C94.2349 109.438 94.2733 109.138 94.3785 108.843C94.4647 108.618 94.5162 108.383 94.533 108.139C94.553 107.883 94.474 107.625 94.296 107.365C94.2055 107.241 94.0944 107.124 93.9629 107.013C93.8344 106.891 93.6723 106.779 93.4765 106.676C92.5253 107.474 91.3888 108.084 90.0669 108.508C88.7483 108.919 87.2607 109.13 85.6041 109.139L85.3751 108.61C86.2822 108.384 87.1515 108.024 87.9828 107.529C88.8173 107.023 89.5918 106.326 90.3062 105.439C90.4767 105.224 90.6414 105.008 90.8002 104.79C90.9623 104.56 91.1159 104.316 91.261 104.057C91.4178 103.801 91.5693 103.519 91.7155 103.211C91.8649 102.891 92.0122 102.533 92.1573 102.137C92.2509 101.839 92.2719 101.602 92.2203 101.427C92.1834 101.242 92.1397 101.038 92.0892 100.813C91.9996 100.502 91.968 100.276 91.9943 100.134C92.0353 99.9832 92.1716 99.9395 92.4031 100.003L95.6681 100.892C95.8997 100.955 96.0865 101.068 96.2286 101.232C96.3739 101.383 96.3976 101.638 96.2998 101.997L96.1768 102.449ZM100.59 106.245L101.096 104.386C101.19 104.088 101.211 103.852 101.159 103.676C101.123 103.492 101.079 103.287 101.028 103.062C100.939 102.751 100.907 102.525 100.933 102.383C100.974 102.233 101.111 102.189 101.342 102.252L104.555 103.127C104.787 103.19 104.974 103.304 105.116 103.467C105.261 103.618 105.285 103.873 105.187 104.232L102.93 112.516C102.832 112.875 102.68 113.089 102.475 113.157C102.273 113.214 102.056 113.211 101.825 113.148L98.9243 112.358L100.335 107.182L96.8786 106.241L97.1341 105.303L100.59 106.245ZM91.7464 114.189C91.6265 114.629 91.6402 115.012 91.7877 115.338C91.9467 115.668 92.1693 115.946 92.4556 116.173C92.7388 116.412 93.0535 116.604 93.3998 116.748C93.7461 116.892 94.0582 117.002 94.3361 117.077L94.5445 117.134C94.8223 117.21 95.1297 117.269 95.4665 117.311C95.8149 117.356 96.1543 117.343 96.4847 117.271C96.8236 117.214 97.1277 117.079 97.3971 116.867C97.6665 116.654 97.8612 116.328 97.981 115.888L98.0662 115.575C98.1861 115.135 98.1823 114.761 98.0549 114.453C97.9307 114.133 97.7369 113.862 97.4738 113.642C97.2222 113.424 96.9333 113.252 96.607 113.125C96.2954 112.991 96.0007 112.886 95.7228 112.81L95.5144 112.753C95.2365 112.677 94.9061 112.612 94.5229 112.558C94.1546 112.495 93.7894 112.488 93.4273 112.539C93.0769 112.593 92.7496 112.721 92.4454 112.924C92.1561 113.119 91.9514 113.436 91.8315 113.876L91.7464 114.189ZM117.713 109.175C117.678 109.303 117.638 109.429 117.591 109.553C117.56 109.668 117.521 109.788 117.475 109.913L119.923 110.58L120.193 109.59C120.287 109.292 120.308 109.055 120.256 108.88C120.219 108.695 120.176 108.491 120.125 108.266C120.035 107.955 120.004 107.729 120.03 107.587C120.071 107.436 120.207 107.392 120.439 107.456L123.652 108.331C123.883 108.394 124.07 108.507 124.212 108.67C124.358 108.822 124.381 109.077 124.284 109.436L121.917 118.119C121.82 118.478 121.668 118.692 121.463 118.76C121.261 118.817 121.044 118.814 120.812 118.751L117.912 117.961L118.721 114.991L114.31 113.789C113.736 114.118 113.115 114.365 112.448 114.532C111.792 114.701 111.098 114.804 110.367 114.841C109.65 114.87 108.907 114.835 108.138 114.738C107.368 114.64 106.59 114.484 105.803 114.269L105.438 114.17L105.351 113.736L105.656 113.782C106.437 113.882 107.243 113.891 108.074 113.806C108.909 113.71 109.699 113.459 110.444 113.053C111.204 112.638 111.889 112.041 112.499 111.262C113.112 110.471 113.594 109.434 113.944 108.148L114.219 107.141L108.627 105.617L108.882 104.68L117.375 106.994C117.606 107.057 117.793 107.17 117.935 107.333C118.08 107.485 118.104 107.74 118.006 108.099L117.713 109.175ZM116.347 123.635L117.464 119.536L108.225 117.019L108.481 116.081L120.637 119.394C120.869 119.457 121.056 119.57 121.198 119.733C121.343 119.885 121.367 120.14 121.269 120.499L120.37 123.798C120.272 124.157 120.122 124.365 119.92 124.422C119.715 124.49 119.497 124.493 119.265 124.43L116.347 123.635ZM117.098 110.817C116.872 111.278 116.61 111.692 116.312 112.058C116.024 112.428 115.703 112.763 115.347 113.064L118.977 114.053L119.668 111.518L117.098 110.817Z" fill="#111111"/>
</svg>
