<svg width="3255" height="170" viewBox="0 0 3255 170" fill="none" xmlns="http://www.w3.org/2000/svg">
<rect x="172" y="1" width="2910" height="168" fill="#FEF151"/>
<rect x="172" y="1" width="168" height="168" fill="#4B88FF"/>
<rect x="236" y="1" width="40" height="168" fill="#FDACFF"/>
<rect x="172" y="105" width="40" height="168" transform="rotate(-90 172 105)" fill="#FDACFF"/>
<rect x="204" y="33" width="105" height="105" fill="#FDACFF"/>
<rect x="2747" y="1" width="168" height="168" fill="#A4EAFF"/>
<rect x="2811" y="1" width="40" height="168" fill="#191818"/>
<rect x="2747" y="105" width="40" height="168" transform="rotate(-90 2747 105)" fill="#191818"/>
<rect x="2779" y="33" width="105" height="105" fill="#191818"/>
<path d="M1315.6 65V107H1320.34V65H1315.6ZM1330.79 64.34C1329.05 64.34 1327.55 65.84 1327.55 67.58C1327.55 69.38 1329.05 70.88 1330.79 70.88C1331.69 70.88 1332.41 70.52 1333.01 69.98C1332.29 72.26 1330.73 74.12 1328.39 76.16L1328.69 76.46C1332.05 73.76 1334.09 70.88 1334.09 67.58C1334.09 65.84 1332.59 64.34 1330.79 64.34ZM1381.76 88.7C1381.04 81.68 1377.68 78.14 1372.94 78.14C1366.82 78.14 1364.66 83.54 1363.94 89.36V88.7C1363.64 82.1 1359.68 78.14 1355.06 78.14C1347.86 78.14 1346.06 85.1 1345.4 91.46V78.62H1340.66V107H1345.4V98.12C1345.4 93.02 1345.7 80.48 1352.42 79.22C1357.1 78.38 1359.2 83.24 1359.2 87.8V107H1363.94V96.02C1364 89.72 1364.72 80.42 1370.24 79.22C1374.92 78.2 1376.66 83.3 1377.08 87.8C1377.44 90.92 1378.64 105.02 1378.82 107H1383.62C1383.38 104.78 1382.42 94.52 1381.76 88.7ZM1422.71 68.72V65H1402.85V107H1407.59V85.58L1421.39 86.84V83.84L1407.59 85.1V65.48L1422.71 68.72ZM1440.46 78.14C1434.4 78.14 1432.78 84.62 1432.24 90.86V78.56H1427.5V107H1432.24V97.46C1432.3 91.22 1432.9 81.32 1438 80.54C1441.84 80 1444.18 83.36 1445.68 86.36V80.36C1444.42 79.16 1442.92 78.14 1440.46 78.14ZM1463.34 78.14C1455.78 78.14 1447.5 83.6 1447.5 92.72C1447.5 101.84 1455.78 107.3 1463.34 107.3C1470.9 107.3 1479.18 101.84 1479.18 92.72C1479.18 83.6 1470.9 78.14 1463.34 78.14ZM1463.34 106.82C1457.4 106.82 1452.42 100.64 1452.42 92.72C1452.42 84.8 1457.4 78.62 1463.34 78.62C1469.28 78.62 1474.26 84.8 1474.26 92.72C1474.26 100.64 1469.28 106.82 1463.34 106.82ZM1508.6 88.64C1507.82 81.5 1503.68 78.14 1498.76 78.14C1490.96 78.14 1488.92 86.24 1488.14 93.02V78.56H1483.4V107H1488.14V98.12C1488.14 93.08 1489.34 80.48 1496.06 79.22C1501.22 78.2 1503.44 83.3 1503.92 87.8C1504.22 90.86 1505.48 105.02 1505.66 107H1510.46C1510.16 104.78 1509.2 94.52 1508.6 88.64ZM1532.63 96.38C1532.63 101.36 1530.89 106.04 1526.87 106.22C1522.13 106.46 1521.17 102.86 1521.17 97.64V78.56H1528.19V78.14H1521.17V69.92H1520.51L1516.43 78.14H1512.89V78.56H1516.43V96.8C1516.43 103.82 1519.73 107.3 1525.01 107.3C1531.37 107.3 1533.05 102.08 1533.05 96.38H1532.63ZM1565.07 98.66C1564.11 100.4 1560.87 105.62 1554.99 106.22C1548.87 106.88 1543.83 103.52 1541.61 97.22C1540.59 94.34 1540.47 90.8 1541.19 87.62H1564.77C1563.93 80.36 1556.91 77.84 1551.87 78.14C1545.27 78.44 1535.79 82.94 1536.09 93.38C1536.33 103.22 1545.09 107.66 1552.89 107.3C1560.03 106.94 1563.57 102.26 1565.49 98.84L1565.07 98.66ZM1549.11 78.8C1554.99 77.72 1559.67 81.92 1560.45 87.14H1541.31C1542.45 83.06 1545.03 79.58 1549.11 78.8ZM1594.91 88.64C1594.13 81.5 1589.99 78.14 1585.07 78.14C1577.27 78.14 1575.23 86.24 1574.45 93.02V78.56H1569.71V107H1574.45V98.12C1574.45 93.08 1575.65 80.48 1582.37 79.22C1587.53 78.2 1589.75 83.3 1590.23 87.8C1590.53 90.86 1591.79 105.02 1591.97 107H1596.77C1596.47 104.78 1595.51 94.52 1594.91 88.64ZM1624.74 65V88.28C1623.3 81.98 1618.5 78.14 1612.98 78.14C1606.32 78.14 1599.78 84.02 1599.78 92.72C1599.78 101.42 1606.32 107.3 1612.98 107.3C1618.5 107.3 1623.3 103.4 1624.8 97.1L1628.88 107H1629.48V65H1624.74ZM1613.64 105.98C1608.84 105.74 1604.7 100.4 1604.7 92.72C1604.7 85.1 1608.84 79.76 1613.64 79.46C1621.68 78.98 1624.74 87.08 1624.74 92.72C1624.74 98.36 1621.68 106.46 1613.64 105.98ZM1649.94 85.76V86.24H1673.04V85.76H1649.94ZM1693.85 65H1680.23V107H1693.85C1707.77 107 1717.91 97.88 1717.91 86C1717.91 74.18 1707.77 65 1693.85 65ZM1693.85 106.58H1684.91V65.48H1693.85C1705.91 65.48 1713.23 74.96 1713.23 86C1713.23 97.1 1705.91 106.58 1693.85 106.58ZM1749.94 98.66C1748.98 100.4 1745.74 105.62 1739.86 106.22C1733.74 106.88 1728.7 103.52 1726.48 97.22C1725.46 94.34 1725.34 90.8 1726.06 87.62H1749.64C1748.8 80.36 1741.78 77.84 1736.74 78.14C1730.14 78.44 1720.66 82.94 1720.96 93.38C1721.2 103.22 1729.96 107.66 1737.76 107.3C1744.9 106.94 1748.44 102.26 1750.36 98.84L1749.94 98.66ZM1733.98 78.8C1739.86 77.72 1744.54 81.92 1745.32 87.14H1726.18C1727.32 83.06 1729.9 79.58 1733.98 78.8ZM1777.01 78.14H1776.59L1766.99 101.84L1756.91 78.14H1752.17L1764.47 107H1769.21L1767.23 102.38L1777.01 78.14ZM1807.24 98.66C1806.28 100.4 1803.04 105.62 1797.16 106.22C1791.04 106.88 1786 103.52 1783.78 97.22C1782.76 94.34 1782.64 90.8 1783.36 87.62H1806.94C1806.1 80.36 1799.08 77.84 1794.04 78.14C1787.44 78.44 1777.96 82.94 1778.26 93.38C1778.5 103.22 1787.26 107.66 1795.06 107.3C1802.2 106.94 1805.74 102.26 1807.66 98.84L1807.24 98.66ZM1791.28 78.8C1797.16 77.72 1801.84 81.92 1802.62 87.14H1783.48C1784.62 83.06 1787.2 79.58 1791.28 78.8ZM1811.88 65V107H1816.62V65H1811.88ZM1836.64 78.14C1829.08 78.14 1820.8 83.6 1820.8 92.72C1820.8 101.84 1829.08 107.3 1836.64 107.3C1844.2 107.3 1852.48 101.84 1852.48 92.72C1852.48 83.6 1844.2 78.14 1836.64 78.14ZM1836.64 106.82C1830.7 106.82 1825.72 100.64 1825.72 92.72C1825.72 84.8 1830.7 78.62 1836.64 78.62C1842.58 78.62 1847.56 84.8 1847.56 92.72C1847.56 100.64 1842.58 106.82 1836.64 106.82ZM1873.2 78.14C1867.68 78.14 1862.88 81.98 1861.38 88.28V78.44H1856.7V120.44H1861.38V97.16C1862.88 103.46 1867.68 107.3 1873.2 107.3C1879.86 107.3 1886.4 101.42 1886.4 92.72C1886.4 84.02 1879.86 78.14 1873.2 78.14ZM1872.48 105.98C1864.5 106.46 1861.38 98.36 1861.38 92.72C1861.38 87.08 1864.5 78.98 1872.48 79.46C1877.34 79.76 1881.48 85.1 1881.48 92.72C1881.48 100.4 1877.34 105.74 1872.48 105.98ZM1917.87 98.66C1916.91 100.4 1913.67 105.62 1907.79 106.22C1901.67 106.88 1896.63 103.52 1894.41 97.22C1893.39 94.34 1893.27 90.8 1893.99 87.62H1917.57C1916.73 80.36 1909.71 77.84 1904.67 78.14C1898.07 78.44 1888.59 82.94 1888.89 93.38C1889.13 103.22 1897.89 107.66 1905.69 107.3C1912.83 106.94 1916.37 102.26 1918.29 98.84L1917.87 98.66ZM1901.91 78.8C1907.79 77.72 1912.47 81.92 1913.25 87.14H1894.11C1895.25 83.06 1897.83 79.58 1901.91 78.8ZM1935.46 78.14C1929.4 78.14 1927.78 84.62 1927.24 90.86V78.56H1922.5V107H1927.24V97.46C1927.3 91.22 1927.9 81.32 1933 80.54C1936.84 80 1939.18 83.36 1940.68 86.36V80.36C1939.42 79.16 1937.92 78.14 1935.46 78.14Z" fill="black"/>
<rect x="340" y="1" width="168" height="168" fill="#FDACFF"/>
<path fill-rule="evenodd" clip-rule="evenodd" d="M340.506 169C433.01 169 508 95.5745 508 4.99944C508 3.66269 507.983 2.32969 507.951 1.0006C507.799 1.0002 507.646 1 507.494 1C414.99 1 340 74.4256 340 165.001C340 166.337 340.016 167.67 340.049 168.999C340.201 169 340.353 169 340.506 169Z" fill="#191818"/>
<rect x="2411" y="1" width="168" height="168" fill="#FEF151"/>
<path d="M2481.36 22.478C2480.88 21.1691 2480.27 19.8877 2479.52 18.6526C2473.45 8.66358 2460.43 5.48778 2450.44 11.5594C2440.45 17.631 2437.28 30.6507 2443.35 40.6398C2444.1 41.875 2444.96 43.0061 2445.9 44.0283C2444.16 46.0904 2442.57 48.2475 2441.12 50.4844C2439.88 49.9081 2438.56 49.4441 2437.19 49.1079C2425.83 46.3379 2414.38 53.2985 2411.61 64.6551C2408.84 76.0111 2415.8 87.463 2427.15 90.2328C2428.37 90.53 2429.59 90.7153 2430.8 90.7951C2431 93.4846 2431.37 96.1728 2431.91 98.8439C2430.84 99.2733 2429.79 99.7967 2428.77 100.417C2418.78 106.488 2415.6 119.508 2421.68 129.497C2427.75 139.486 2440.77 142.662 2450.76 136.59C2451.55 136.107 2452.3 135.581 2453.01 135.016C2455.2 136.922 2457.51 138.666 2459.91 140.242C2459.59 141.071 2459.33 141.929 2459.11 142.814C2456.34 154.17 2463.3 165.622 2474.66 168.392C2486.01 171.162 2497.46 164.202 2500.23 152.846C2500.41 152.145 2500.54 151.444 2500.64 150.744C2503.63 150.516 2506.62 150.079 2509.58 149.428C2509.87 150.018 2510.19 150.6 2510.53 151.171C2516.6 161.16 2529.62 164.336 2539.61 158.264C2549.6 152.192 2552.78 139.173 2546.71 129.184C2546.36 128.613 2545.99 128.063 2545.6 127.537C2547.52 125.236 2549.26 122.817 2550.82 120.303C2551.47 120.529 2552.13 120.726 2552.81 120.892C2564.17 123.661 2575.62 116.701 2578.39 105.345C2581.16 93.988 2574.2 82.5367 2562.85 79.7663C2562.01 79.5616 2561.16 79.4098 2560.33 79.3092C2560.03 76.4207 2559.54 73.538 2558.86 70.6806C2559.68 70.3134 2560.5 69.8893 2561.29 69.4068C2571.28 63.3351 2574.45 50.3157 2568.38 40.3264C2562.31 30.3374 2549.29 27.1617 2539.3 33.2333C2538.28 33.8529 2537.33 34.5448 2536.46 35.2985C2534.32 33.5716 2532.08 31.9927 2529.76 30.5658C2530.22 29.4904 2530.6 28.3618 2530.89 27.1861C2533.66 15.8297 2526.7 4.37785 2515.34 1.60778C2503.99 -1.16229 2492.54 5.79842 2489.77 17.1548C2489.43 18.5115 2489.24 19.8696 2489.18 21.2141C2486.56 21.4736 2483.95 21.8936 2481.36 22.478Z" fill="#4B88FF"/>
<rect x="2915" y="1" width="168" height="168" fill="#4B88FF"/>
<path fill-rule="evenodd" clip-rule="evenodd" d="M2915.51 169C3008.01 169 3083 95.5745 3083 4.99944C3083 3.66269 3082.98 2.32969 3082.95 1.0006C3082.8 1.0002 3082.65 1 3082.49 1C2989.99 1 2915 74.4256 2915 165.001C2915 166.337 2915.02 167.67 2915.05 168.999C2915.2 169 2915.35 169 2915.51 169Z" fill="#FDACFF"/>
<rect x="508" y="1" width="168" height="168" fill="#4B88FF"/>
<path d="M592 2L604.278 56.3572L651.397 26.603L621.643 73.7215L676 86L621.643 98.2785L651.397 145.397L604.278 115.643L592 170L579.722 115.643L532.603 145.397L562.357 98.2785L508 86L562.357 73.7215L532.603 26.603L579.722 56.3572L592 2Z" fill="#FEF151"/>
<rect x="2579" y="1" width="168" height="168" fill="#FDACFF"/>
<path d="M2663 1L2675.28 55.3572L2722.4 25.603L2692.64 72.7215L2747 85L2692.64 97.2785L2722.4 144.397L2675.28 114.643L2663 169L2650.72 114.643L2603.6 144.397L2633.36 97.2785L2579 85L2633.36 72.7215L2603.6 25.603L2650.72 55.3572L2663 1Z" fill="#4B88FF"/>
<rect x="676" y="1" width="168" height="168" fill="#FDACFF"/>
<circle cx="760" cy="85" r="84" fill="white"/>
<rect x="2243" y="1" width="168" height="168" fill="white"/>
<circle cx="2327" cy="85" r="84" fill="#FDACFF"/>
<rect x="844" y="1" width="168" height="168" fill="#A3E9FF"/>
<path d="M914.356 22.478C913.883 21.1691 913.274 19.8877 912.523 18.6526C906.452 8.66358 893.432 5.48778 883.443 11.5594C873.454 17.631 870.278 30.6507 876.35 40.6398C877.1 41.875 877.958 43.0061 878.902 44.0283C877.165 46.0904 875.569 48.2475 874.117 50.4844C872.878 49.9081 871.565 49.4441 870.186 49.1079C858.83 46.3379 847.378 53.2985 844.608 64.6551C841.838 76.0111 848.798 87.463 860.155 90.2328C861.373 90.53 862.592 90.7153 863.801 90.7951C864.001 93.4846 864.37 96.1728 864.912 98.8439C863.84 99.2733 862.788 99.7967 861.769 100.417C851.78 106.488 848.604 119.508 854.675 129.497C860.747 139.486 873.767 142.662 883.756 136.59C884.55 136.107 885.301 135.581 886.008 135.016C888.203 136.922 890.51 138.666 892.911 140.242C892.594 141.071 892.325 141.929 892.109 142.814C889.339 154.17 896.3 165.622 907.656 168.392C919.013 171.162 930.465 164.202 933.235 152.846C933.406 152.145 933.54 151.444 933.638 150.744C936.628 150.516 939.616 150.079 942.581 149.428C942.868 150.018 943.185 150.6 943.533 151.171C949.604 161.16 962.624 164.336 972.613 158.264C982.602 152.192 985.778 139.173 979.706 129.184C979.359 128.613 978.99 128.063 978.599 127.537C980.516 125.236 982.26 122.817 983.824 120.303C984.471 120.529 985.134 120.726 985.814 120.892C997.17 123.661 1008.62 116.701 1011.39 105.345C1014.16 93.988 1007.2 82.5367 995.845 79.7663C995.005 79.5616 994.164 79.4098 993.326 79.3092C993.033 76.4207 992.545 73.538 991.855 70.6806C992.683 70.3134 993.495 69.8893 994.29 69.4068C1004.28 63.3351 1007.45 50.3157 1001.38 40.3264C995.311 30.3374 982.291 27.1617 972.302 33.2333C971.283 33.8529 970.334 34.5448 969.46 35.2985C967.318 33.5716 965.08 31.9927 962.761 30.5658C963.224 29.4904 963.604 28.3618 963.89 27.1861C966.661 15.8297 959.7 4.37785 948.344 1.60778C936.987 -1.16229 925.535 5.79842 922.765 17.1548C922.434 18.5115 922.242 19.8696 922.18 21.2141C919.563 21.4736 916.95 21.8936 914.356 22.478Z" fill="#FEF151"/>
</svg>
