<svg width="2910" height="169" viewBox="0 0 2910 169" fill="none" xmlns="http://www.w3.org/2000/svg">
<rect width="2910" height="168" fill="#FEF151"/>
<rect x="2742" y="1" width="168" height="168" fill="#191818"/>
<path d="M2825.5 0.999996C2847.91 0.999995 2869.4 9.84997 2885.25 25.603C2901.1 41.3561 2910 62.7218 2910 85C2910 107.278 2901.1 128.644 2885.25 144.397C2869.4 160.15 2847.91 169 2825.5 169L2825.5 85L2825.5 0.999996Z" fill="#FDACFF"/>
<path d="M2740.5 0.999996C2762.91 0.999995 2784.4 9.84997 2800.25 25.603C2816.1 41.3561 2825 62.7218 2825 85C2825 107.278 2816.1 128.644 2800.25 144.397C2784.4 160.15 2762.91 169 2740.5 169L2740.5 85L2740.5 0.999996Z" fill="#FDACFF"/>
<rect x="672" y="1" width="168" height="168" fill="#191818"/>
<path d="M755.5 0.999996C777.911 0.999995 799.404 9.84997 815.251 25.603C831.097 41.3561 840 62.7218 840 85C840 107.278 831.097 128.644 815.251 144.397C799.404 160.15 777.911 169 755.5 169L755.5 85L755.5 0.999996Z" fill="#FDACFF"/>
<path d="M670.5 0.999996C692.911 0.999995 714.404 9.84997 730.251 25.603C746.097 41.3561 755 62.7218 755 85C755 107.278 746.097 128.644 730.251 144.397C714.404 160.15 692.911 169 670.5 169L670.5 85L670.5 0.999996Z" fill="#FDACFF"/>
<rect x="504.066" y="0.0761719" width="167.934" height="167.674" fill="#FEF151"/>
<rect width="118.763" height="118.763" transform="matrix(0.706968 0.707245 -0.706968 0.707245 587.958 0)" fill="#4B88FF"/>
<rect x="336" width="168" height="168" fill="#A3E9FF"/>
<rect x="371.848" y="36" width="96" height="96" fill="#4B88FF"/>
<rect x="404" width="32" height="168" fill="#4B88FF"/>
<rect x="504" y="68" width="32" height="168" transform="rotate(90 504 68)" fill="#4B88FF"/>
<rect x="2236" width="168" height="168" fill="#4B88FF"/>
<path fill-rule="evenodd" clip-rule="evenodd" d="M2339.66 139.092C2339.94 139.836 2340.2 140.604 2340.4 141.395C2343.39 152.668 2336.78 164.254 2325.65 167.275C2314.52 170.295 2303.08 163.606 2300.1 152.333C2298.92 147.868 2299.24 143.353 2300.75 139.341C2298.6 138.587 2296.49 137.708 2294.43 136.71C2291.94 142.243 2287.11 146.647 2280.85 148.345C2269.72 151.365 2258.28 144.675 2255.3 133.403C2252.62 123.269 2257.69 112.882 2266.83 108.692C2265.98 106.891 2265.22 105.032 2264.54 103.12C2263.81 103.413 2263.05 103.667 2262.27 103.879C2251.14 106.9 2239.7 100.21 2236.72 88.9377C2233.73 77.6652 2240.34 66.0784 2251.47 63.058C2255.88 61.8615 2260.34 62.1887 2264.3 63.7209C2264.95 61.8022 2265.7 59.921 2266.54 58.0845C2261.38 55.4771 2257.3 50.727 2255.69 44.6412C2252.71 33.3687 2259.32 21.782 2270.45 18.7615C2280.09 16.1441 2289.97 20.8183 2294.37 29.4477C2296.49 28.4169 2298.7 27.506 2300.97 26.7257C2300.96 26.6857 2300.95 26.6456 2300.94 26.6054C2297.96 15.3329 2304.56 3.74622 2315.69 0.725754C2326.82 -2.29469 2338.26 4.3949 2341.25 15.6674C2342.32 19.7231 2342.15 23.8196 2340.98 27.5431C2342.66 28.2012 2344.31 28.9367 2345.92 29.7464C2348.51 24.5706 2353.18 20.4886 2359.14 18.8691C2370.27 15.8487 2381.72 22.5383 2384.7 33.8108C2387.36 43.8802 2382.38 54.2003 2373.35 58.4414C2374.16 60.2604 2374.89 62.1359 2375.53 64.0645C2376.24 63.7838 2376.98 63.5397 2377.73 63.3349C2388.86 60.3145 2400.3 67.0041 2403.28 78.2766C2406.27 89.549 2399.66 101.136 2388.53 104.156C2383.91 105.411 2379.23 104.99 2375.13 103.26C2374.45 105.153 2373.68 107.009 2372.82 108.819C2378.28 111.349 2382.63 116.237 2384.31 122.572C2387.29 133.845 2380.69 145.432 2369.56 148.452C2359.55 151.167 2349.29 146.035 2345.16 136.781C2343.38 137.638 2341.54 138.41 2339.66 139.092Z" fill="#A3E9FF"/>
<rect width="168" height="168" fill="#FDACFF"/>
<path fill-rule="evenodd" clip-rule="evenodd" d="M0.505692 168C93.0101 168 168 94.5749 168 4.00018C168 2.66319 167.983 1.32994 167.951 0.000597103C167.799 0.000199118 167.646 0 167.494 0C74.9896 0 0 73.4253 0 164C0 165.337 0.01634 166.67 0.0488346 168C0.201073 168 0.353358 168 0.505692 168Z" fill="#4B88FF"/>
<rect x="2404" width="168" height="168" fill="#FEF151"/>
<path fill-rule="evenodd" clip-rule="evenodd" d="M2404.51 168C2497.01 168 2572 94.5746 2572 3.99994C2572 2.66303 2571.98 1.32985 2571.95 0.000597119C2571.8 0.000199123 2571.65 0 2571.49 0C2478.99 0 2404 73.4253 2404 164C2404 165.337 2404.02 166.67 2404.05 167.999C2404.2 168 2404.35 168 2404.51 168Z" fill="#A3E9FF"/>
<rect x="2068" y="0.00195312" width="168" height="167.998" fill="#FEACFF"/>
<path d="M2152 0L2171.61 36.66L2211.4 24.6028L2199.34 64.3906L2236 83.9991L2199.34 103.608L2211.4 143.396L2171.61 131.338L2152 167.998L2132.39 131.338L2092.6 143.396L2104.66 103.608L2068 83.9991L2104.66 64.3906L2092.6 24.6028L2132.39 36.66L2152 0Z" fill="#4B88FF"/>
<rect x="2572" width="168" height="168" fill="#A3E9FF"/>
<rect x="2607.85" y="36" width="96" height="96" fill="#4B88FF"/>
<rect x="2640" width="32" height="168" fill="#4B88FF"/>
<rect x="2740" y="68" width="32" height="168" transform="rotate(90 2740 68)" fill="#4B88FF"/>
<path d="M1268.08 110L1288.64 57.2H1296.24L1316.72 110H1309.92L1304.32 95.36H1280.4L1274.8 110H1268.08ZM1289.92 70.4L1282.72 89.36H1302L1294.88 70.64L1292.4 63.28H1292.24L1289.92 70.4ZM1345.85 110.8C1342.81 110.8 1340.09 110.08 1337.69 108.64C1335.29 107.2 1333.48 105.307 1332.25 102.96L1331.85 110H1326.25V51.6H1332.65V76.24C1333.93 74.16 1335.72 72.48 1338.01 71.2C1340.36 69.8667 1343 69.2 1345.93 69.2C1349.24 69.2 1352.28 70.0267 1355.05 71.68C1357.83 73.3333 1360.04 75.7067 1361.69 78.8C1363.35 81.8933 1364.17 85.6267 1364.17 90C1364.17 94.32 1363.32 98.0533 1361.61 101.2C1359.96 104.293 1357.75 106.667 1354.97 108.32C1352.2 109.973 1349.16 110.8 1345.85 110.8ZM1345.21 105.2C1349.16 105.2 1352.23 103.813 1354.41 101.04C1356.65 98.2667 1357.77 94.5867 1357.77 90C1357.77 85.4133 1356.68 81.7333 1354.49 78.96C1352.31 76.1867 1349.24 74.8 1345.29 74.8C1341.56 74.8 1338.52 76.2133 1336.17 79.04C1333.83 81.8667 1332.65 85.5733 1332.65 90.16C1332.65 94.7467 1333.8 98.4 1336.09 101.12C1338.44 103.84 1341.48 105.2 1345.21 105.2ZM1392.97 69.2C1396.76 69.2 1400.09 70.0267 1402.97 71.68C1405.9 73.3333 1408.2 75.7333 1409.85 78.88C1411.5 81.9733 1412.33 85.68 1412.33 90C1412.33 94.32 1411.5 98.0533 1409.85 101.2C1408.2 104.293 1405.9 106.667 1402.97 108.32C1400.09 109.973 1396.76 110.8 1392.97 110.8C1389.24 110.8 1385.9 109.973 1382.97 108.32C1380.04 106.667 1377.74 104.293 1376.09 101.2C1374.44 98.0533 1373.61 94.32 1373.61 90C1373.61 85.68 1374.44 81.9733 1376.09 78.88C1377.74 75.7333 1380.04 73.3333 1382.97 71.68C1385.9 70.0267 1389.24 69.2 1392.97 69.2ZM1392.97 74.72C1388.92 74.72 1385.74 76.08 1383.45 78.8C1381.16 81.52 1380.01 85.2533 1380.01 90C1380.01 94.7467 1381.16 98.48 1383.45 101.2C1385.74 103.92 1388.92 105.28 1392.97 105.28C1397.02 105.28 1400.2 103.92 1402.49 101.2C1404.78 98.48 1405.93 94.7467 1405.93 90C1405.93 85.2533 1404.78 81.52 1402.49 78.8C1400.2 76.08 1397.02 74.72 1392.97 74.72ZM1438.86 110.8C1436.3 110.8 1433.87 110.32 1431.58 109.36C1429.34 108.4 1427.5 106.853 1426.06 104.72C1424.67 102.533 1423.98 99.7067 1423.98 96.24V70H1430.38V94.56C1430.38 98.6133 1431.26 101.413 1433.02 102.96C1434.78 104.453 1437.26 105.2 1440.46 105.2C1442.48 105.2 1444.4 104.747 1446.22 103.84C1448.03 102.88 1449.52 101.413 1450.7 99.44C1451.87 97.4667 1452.46 94.9067 1452.46 91.76V70H1458.86V110H1453.26L1452.86 103.92C1451.47 106.32 1449.58 108.08 1447.18 109.2C1444.83 110.267 1442.06 110.8 1438.86 110.8ZM1497.75 70V75.52H1483.19V98.96C1483.19 100.933 1483.75 102.4 1484.87 103.36C1485.99 104.32 1487.43 104.8 1489.19 104.8C1490.74 104.8 1492.07 104.533 1493.19 104C1494.31 103.467 1495.33 102.747 1496.23 101.84L1498.47 107.2C1497.25 108.32 1495.78 109.2 1494.07 109.84C1492.42 110.48 1490.5 110.8 1488.31 110.8C1486.29 110.8 1484.39 110.453 1482.63 109.76C1480.87 109.013 1479.46 107.867 1478.39 106.32C1477.38 104.72 1476.85 102.64 1476.79 100.08V75.52H1468.79V70H1476.79V60.4L1483.19 58.64V70H1497.75ZM1586.77 57.2V110H1580.69V76.8L1581.41 62.88H1581.33L1563.97 110H1558.53L1541.17 62.88H1541.09L1541.81 76.8V110H1535.73V57.2H1545.57L1557.17 89.28L1561.17 102.48H1561.33L1565.41 89.36L1576.93 57.2L1586.77 57.2ZM1618.91 110.8C1615.12 110.8 1611.74 109.973 1608.75 108.32C1605.82 106.667 1603.52 104.293 1601.87 101.2C1600.22 98.0533 1599.39 94.32 1599.39 90C1599.39 85.68 1600.22 81.9733 1601.87 78.88C1603.52 75.7333 1605.79 73.3333 1608.67 71.68C1611.55 70.0267 1614.83 69.2 1618.51 69.2C1622.24 69.2 1625.42 70 1628.03 71.6C1630.7 73.2 1632.72 75.3867 1634.11 78.16C1635.5 80.88 1636.19 83.9467 1636.19 87.36C1636.19 88.2667 1636.16 89.0933 1636.11 89.84C1636.06 90.5867 1635.98 91.2533 1635.87 91.84H1605.71C1606.03 96.0533 1607.34 99.3333 1609.63 101.68C1611.92 104.027 1614.96 105.2 1618.75 105.2C1621.68 105.2 1624.06 104.64 1625.87 103.52C1627.74 102.4 1629.23 100.88 1630.35 98.96L1635.39 101.92C1633.9 104.64 1631.74 106.8 1628.91 108.4C1626.14 110 1622.8 110.8 1618.91 110.8ZM1618.35 74.8C1614.99 74.8 1612.22 75.8133 1610.03 77.84C1607.9 79.8133 1606.54 82.5867 1605.95 86.16H1629.79C1629.63 82.5333 1628.51 79.7333 1626.43 77.76C1624.35 75.7867 1621.66 74.8 1618.35 74.8Z" fill="#191818"/>
<rect x="168.001" width="168" height="168" fill="#191818"/>
<path fill-rule="evenodd" clip-rule="evenodd" d="M271.654 139.092C271.944 139.836 272.195 140.604 272.404 141.395C275.386 152.668 268.781 164.254 257.651 167.275C246.521 170.295 235.08 163.606 232.098 152.333C230.917 147.868 231.24 143.353 232.752 139.341C230.595 138.587 228.485 137.708 226.434 136.71C223.936 142.243 219.11 146.647 212.854 148.345C201.724 151.365 190.283 144.675 187.301 133.403C184.62 123.269 189.687 112.882 198.824 108.692C197.978 106.891 197.216 105.032 196.542 103.12C195.808 103.413 195.049 103.667 194.268 103.879C183.138 106.9 171.697 100.21 168.715 88.9377C165.733 77.6652 172.338 66.0785 183.468 63.058C187.877 61.8615 192.335 62.1887 196.296 63.7209C196.949 61.8022 197.698 59.921 198.538 58.0845C193.377 55.4771 189.302 50.7271 187.692 44.6412C184.709 33.3687 191.314 21.782 202.445 18.7616C212.09 16.1441 221.968 20.8183 226.373 29.4477C228.493 28.4169 230.695 27.506 232.972 26.7257C232.961 26.6857 232.95 26.6456 232.94 26.6055C229.957 15.333 236.563 3.74626 247.693 0.7258C258.823 -2.29465 270.263 4.39494 273.246 15.6674C274.319 19.7232 274.15 23.8196 272.977 27.5431C274.66 28.2012 276.311 28.9367 277.924 29.7464C280.51 24.5706 285.176 20.4886 291.144 18.8692C302.274 15.8487 313.714 22.5383 316.697 33.8108C319.361 43.8802 314.375 54.2003 305.347 58.4414C306.161 60.2604 306.89 62.1359 307.53 64.0645C308.242 63.7838 308.975 63.5397 309.73 63.335C320.86 60.3145 332.3 67.0041 335.283 78.2766C338.265 89.5491 331.66 101.136 320.53 104.156C315.905 105.411 311.228 104.99 307.125 103.26C306.449 105.153 305.679 107.009 304.82 108.819C310.284 111.349 314.632 116.237 316.308 122.572C319.29 133.845 312.685 145.432 301.555 148.452C291.549 151.167 281.293 146.035 277.156 136.781C275.378 137.638 273.543 138.41 271.654 139.092Z" fill="#FDACFF"/>
</svg>
