<svg width="2896" height="668" viewBox="0 0 2896 668" fill="none" xmlns="http://www.w3.org/2000/svg">
<rect x="0.24939" y="501.576" width="2910" height="168" transform="rotate(-9.92523 0.24939 501.576)" fill="#191818"/>
<rect x="0.24939" y="501.576" width="168" height="168" transform="rotate(-9.92523 0.24939 501.576)" fill="white"/>
<rect x="63.2915" y="490.545" width="40" height="168" transform="rotate(-9.92523 63.2915 490.545)" fill="#FEF151"/>
<rect x="18.1752" y="604.02" width="40" height="168" transform="rotate(-99.9252 18.1752 604.02)" fill="#FEF151"/>
<rect x="37.2861" y="527.582" width="105" height="105" transform="rotate(-9.92523 37.2861 527.582)" fill="#FEF151"/>
<rect x="2701.21" y="28.957" width="168" height="168" transform="rotate(-9.92523 2701.21 28.957)" fill="#A3E9FF"/>
<rect x="2764.25" y="17.9258" width="40" height="168" transform="rotate(-9.92523 2764.25 17.9258)" fill="#191818"/>
<rect x="2719.14" y="131.4" width="40" height="168" transform="rotate(-99.9252 2719.14 131.4)" fill="#191818"/>
<rect x="2738.25" y="54.9629" width="105" height="105" transform="rotate(-9.92523 2738.25 54.9629)" fill="#191818"/>
<rect x="2038.28" y="144.957" width="168" height="168" transform="rotate(-9.92523 2038.28 144.957)" fill="#FEACFF"/>
<rect x="2101.33" y="133.926" width="40" height="168" transform="rotate(-9.92523 2101.33 133.926)" fill="#A3E9FF"/>
<rect x="2056.21" y="247.4" width="40" height="168" transform="rotate(-99.9252 2056.21 247.4)" fill="#A3E9FF"/>
<rect x="2075.32" y="170.963" width="105" height="105" transform="rotate(-9.92523 2075.32 170.963)" fill="#A3E9FF"/>
<rect x="165.735" y="472.619" width="168" height="168" transform="rotate(-9.92523 165.735 472.619)" fill="#FEF151"/>
<path fill-rule="evenodd" clip-rule="evenodd" d="M195.19 638.018C286.31 622.073 347.521 536.821 331.91 447.602C331.679 446.285 331.433 444.975 331.172 443.671C331.022 443.697 330.872 443.723 330.722 443.749C239.602 459.694 178.391 544.946 194.002 634.165C194.233 635.482 194.479 636.792 194.74 638.096C194.89 638.07 195.04 638.044 195.19 638.018Z" fill="#4B88FF"/>
<rect x="331.221" y="443.662" width="168" height="168" transform="rotate(-9.92523 331.221 443.662)" fill="#191818"/>
<path d="M413.676 429.805L435.14 481.232L476.425 443.802L455.238 495.344L510.898 498.069L459.47 519.533L496.901 560.818L445.359 539.63L442.633 595.29L421.169 543.863L379.885 581.293L401.072 529.752L345.412 527.026L396.839 505.562L359.409 464.277L410.951 485.465L413.676 429.805Z" fill="#FDACFF"/>
<rect x="2203.77" y="116" width="168" height="168" transform="rotate(-9.92523 2203.77 116)" fill="#FEF151"/>
<path d="M2286.22 102.137L2307.63 153.247L2348.95 115.99L2327.71 167.258L2383.36 169.911L2331.92 191.304L2369.3 232.314L2317.79 211.3L2315.01 266.643L2293.6 215.533L2252.29 252.79L2273.52 201.522L2217.87 198.868L2269.31 177.476L2231.93 136.466L2283.44 157.48L2286.22 102.137Z" fill="#4B88FF"/>
<g clip-path="url(#clip0)">
<rect x="496.706" y="414.705" width="168" height="168" transform="rotate(-9.92523 496.706 414.705)" fill="#A3E9FF"/>
<circle cx="593.927" cy="482.969" r="84" transform="rotate(-9.92523 593.927 482.969)" fill="#4B88FF"/>
</g>
<rect x="662.192" y="385.748" width="168" height="168" transform="rotate(-9.92523 662.192 385.748)" fill="#FDACFF"/>
<rect x="2369.75" y="86.957" width="168" height="168" transform="rotate(-9.92523 2369.75 86.957)" fill="#191818"/>
<path d="M2452 72.563C2474.07 68.7002 2496.77 73.7131 2515.09 86.499C2533.42 99.2849 2545.87 118.796 2549.71 140.741C2553.55 162.686 2548.46 185.266 2535.57 203.515C2522.68 221.764 2503.03 234.186 2480.95 238.049L2466.48 155.306L2452 72.563Z" fill="#FDACFF"/>
<path d="M2368.76 87.1294C2390.84 83.2666 2413.53 88.2795 2431.86 101.065C2450.18 113.851 2462.64 133.363 2466.48 155.308C2470.32 177.252 2465.23 199.833 2452.33 218.081C2439.44 236.33 2419.79 248.752 2397.72 252.615L2383.24 169.872L2368.76 87.1294Z" fill="#FDACFF"/>
<path d="M735.197 394.778C734.506 393.57 733.684 392.413 732.732 391.326C725.03 382.533 711.658 381.648 702.865 389.351C694.071 397.053 693.187 410.426 700.89 419.219C701.842 420.306 702.881 421.272 703.988 422.117C702.632 424.447 701.432 426.847 700.388 429.301C699.068 428.947 697.694 428.716 696.278 428.622C684.614 427.851 674.533 436.682 673.762 448.346C672.991 460.009 681.821 470.09 693.485 470.861C694.736 470.944 695.969 470.916 697.174 470.786C697.835 473.401 698.661 475.985 699.655 478.523C698.673 479.131 697.728 479.828 696.83 480.614C688.037 488.316 687.153 501.689 694.856 510.482C702.558 519.275 715.931 520.159 724.724 512.456C725.423 511.844 726.072 511.196 726.67 510.517C729.161 512.017 731.734 513.337 734.371 514.476C734.201 515.347 734.085 516.239 734.025 517.148C733.254 528.811 742.084 538.892 753.748 539.663C765.412 540.434 775.493 531.604 776.264 519.94C776.311 519.22 776.322 518.507 776.298 517.801C779.205 517.061 782.073 516.115 784.881 514.963C785.265 515.494 785.678 516.013 786.119 516.516C793.821 525.309 807.194 526.193 815.987 518.49C824.78 510.788 825.664 497.416 817.961 488.622C817.521 488.12 817.062 487.643 816.586 487.192C818.079 484.594 819.379 481.911 820.487 479.165C821.163 479.276 821.85 479.356 822.548 479.402C834.212 480.173 844.293 471.343 845.064 459.679C845.835 448.015 837.005 437.934 825.341 437.163C824.478 437.106 823.623 437.102 822.781 437.147C821.994 434.352 821.016 431.597 819.845 428.901C820.596 428.397 821.324 427.839 822.023 427.227C830.816 419.524 831.7 406.152 823.998 397.359C816.295 388.566 802.923 387.682 794.129 395.384C793.233 396.17 792.417 397.015 791.686 397.909C789.278 396.577 786.801 395.407 784.271 394.401C784.542 393.262 784.722 392.085 784.801 390.878C785.573 379.214 776.742 369.133 765.079 368.362C753.415 367.591 743.334 376.421 742.563 388.085C742.47 389.478 742.515 390.849 742.686 392.184C740.152 392.891 737.651 393.755 735.197 394.778Z" fill="#4B88FF"/>
<path d="M1268.02 391.981L1279.17 336.428L1286.66 335.118L1315.94 383.597L1309.24 384.77L1301.2 371.314L1277.64 375.437L1274.64 390.823L1268.02 391.981ZM1282.71 349.209L1278.89 369.127L1297.88 365.804L1287.64 348.591L1283.93 341.769L1283.77 341.796L1282.71 349.209ZM1344.77 379.364C1341.78 379.888 1338.97 379.648 1336.36 378.643C1333.75 377.638 1331.63 376.086 1330.02 373.986L1330.84 380.989L1325.33 381.954L1315.26 324.428L1321.56 323.325L1325.81 347.597C1326.71 345.327 1328.18 343.364 1330.22 341.708C1332.3 339.99 1334.79 338.879 1337.68 338.373C1340.94 337.803 1344.07 338.093 1347.09 339.244C1350.11 340.394 1352.7 342.351 1354.86 345.113C1357.02 347.875 1358.48 351.41 1359.23 355.718C1359.98 359.973 1359.78 363.798 1358.64 367.191C1357.54 370.523 1355.77 373.243 1353.33 375.349C1350.88 377.456 1348.03 378.794 1344.77 379.364ZM1343.17 373.958C1347.06 373.278 1349.84 371.384 1351.52 368.275C1353.25 365.157 1353.72 361.339 1352.93 356.821C1352.14 352.303 1350.42 348.866 1347.79 346.511C1345.16 344.157 1341.9 343.319 1338.01 343.999C1334.34 344.643 1331.58 346.559 1329.76 349.748C1327.94 352.937 1327.42 356.79 1328.21 361.308C1329 365.826 1330.76 369.227 1333.49 371.511C1336.27 373.786 1339.5 374.602 1343.17 373.958ZM1384.01 330.266C1387.74 329.613 1391.17 329.853 1394.29 330.985C1397.46 332.108 1400.14 334.077 1402.31 336.891C1404.47 339.653 1405.92 343.162 1406.67 347.417C1407.41 351.673 1407.24 355.493 1406.15 358.877C1405.06 362.209 1403.21 364.942 1400.6 367.077C1398.05 369.202 1394.91 370.59 1391.18 371.243C1387.5 371.887 1384.08 371.647 1380.9 370.524C1377.73 369.401 1375.06 367.458 1372.9 364.696C1370.73 361.882 1369.27 358.347 1368.53 354.091C1367.78 349.836 1367.96 346.042 1369.05 342.71C1370.14 339.326 1371.98 336.566 1374.59 334.432C1377.19 332.298 1380.33 330.909 1384.01 330.266ZM1384.96 335.703C1380.97 336.402 1378.08 338.288 1376.29 341.363C1374.5 344.437 1374.01 348.313 1374.83 352.988C1375.65 357.664 1377.42 361.144 1380.15 363.428C1382.88 365.712 1386.24 366.504 1390.23 365.806C1394.22 365.107 1397.11 363.22 1398.9 360.146C1400.69 357.071 1401.18 353.196 1400.36 348.521C1399.54 343.845 1397.77 340.365 1395.04 338.081C1392.31 335.797 1388.95 335.004 1384.96 335.703ZM1436.38 363.334C1433.86 363.775 1431.39 363.72 1428.96 363.17C1426.59 362.61 1424.51 361.404 1422.73 359.551C1420.98 357.636 1419.81 354.971 1419.22 351.556L1414.69 325.709L1421 324.606L1425.23 348.798C1425.93 352.791 1427.28 355.397 1429.28 356.617C1431.27 357.785 1433.84 358.093 1436.99 357.542C1438.99 357.192 1440.8 356.415 1442.43 355.209C1444.05 353.951 1445.27 352.249 1446.09 350.103C1446.9 347.957 1447.04 345.334 1446.5 342.234L1442.75 320.8L1449.05 319.697L1455.95 359.098L1450.43 360.063L1448.99 354.143C1448.04 356.747 1446.47 358.807 1444.3 360.323C1442.17 361.779 1439.53 362.782 1436.38 363.334ZM1487.36 312.993L1488.32 318.43L1473.97 320.94L1478.01 344.029C1478.35 345.973 1479.16 347.321 1480.43 348.074C1481.7 348.826 1483.2 349.051 1484.93 348.747C1486.45 348.481 1487.72 347.988 1488.73 347.27C1489.74 346.552 1490.62 345.668 1491.35 344.618L1494.49 349.512C1493.47 350.827 1492.18 351.946 1490.61 352.871C1489.09 353.786 1487.25 354.432 1485.1 354.809C1483.1 355.159 1481.18 355.144 1479.32 354.764C1477.46 354.332 1475.87 353.446 1474.55 352.106C1473.28 350.705 1472.4 348.748 1471.9 346.235L1467.67 322.043L1459.79 323.422L1458.84 317.984L1466.72 316.606L1465.06 307.149L1471.06 304.312L1473.02 315.502L1487.36 312.993ZM1572.85 285.04L1581.95 337.05L1575.96 338.098L1570.24 305.395L1568.55 291.559L1568.47 291.573L1559.49 340.98L1554.13 341.918L1528.91 298.495L1528.83 298.509L1531.94 312.097L1537.66 344.8L1531.67 345.848L1522.57 293.838L1532.26 292.142L1549.22 321.742L1555.43 334.055L1555.59 334.028L1557.35 320.401L1563.15 286.737L1572.85 285.04ZM1613.74 332.299C1610.01 332.952 1606.53 332.721 1603.31 331.607C1600.13 330.484 1597.46 328.542 1595.3 325.78C1593.13 322.965 1591.67 319.43 1590.93 315.175C1590.18 310.92 1590.36 307.126 1591.45 303.794C1592.54 300.409 1594.36 297.655 1596.91 295.53C1599.46 293.405 1602.55 292.025 1606.18 291.391C1609.85 290.747 1613.12 290.988 1615.97 292.114C1618.87 293.23 1621.24 295.035 1623.09 297.528C1624.92 299.968 1626.13 302.869 1626.72 306.232C1626.88 307.125 1626.99 307.944 1627.07 308.688C1627.15 309.433 1627.18 310.103 1627.18 310.7L1597.47 315.898C1598.51 319.993 1600.36 322.999 1603.03 324.915C1605.69 326.831 1608.89 327.463 1612.62 326.811C1615.51 326.305 1617.75 325.344 1619.34 323.928C1620.99 322.503 1622.2 320.749 1622.97 318.665L1628.44 320.712C1627.44 323.648 1625.69 326.148 1623.18 328.211C1620.72 330.266 1617.58 331.628 1613.74 332.299ZM1606.98 296.934C1603.67 297.514 1601.12 298.99 1599.31 301.363C1597.55 303.675 1596.69 306.641 1596.73 310.262L1620.21 306.153C1619.43 302.608 1617.84 300.043 1615.45 298.457C1613.06 296.872 1610.24 296.365 1606.98 296.934Z" fill="white"/>
<rect x="2535.73" y="57.9141" width="168" height="168" transform="rotate(-9.92523 2535.73 57.9141)" fill="#FDACFF"/>
<path fill-rule="evenodd" clip-rule="evenodd" d="M2565.18 223.312C2656.3 207.368 2717.51 122.116 2701.9 32.8972C2701.67 31.5803 2701.42 30.2699 2701.16 28.9661C2701.01 28.992 2700.86 29.0181 2700.71 29.0443C2609.59 44.9886 2548.38 130.24 2563.99 219.46C2564.22 220.776 2564.47 222.087 2564.73 223.391C2564.88 223.365 2565.03 223.339 2565.18 223.312Z" fill="#A3E9FF"/>
<defs>
<clipPath id="clip0">
<rect width="168" height="168" fill="white" transform="translate(496.706 414.705) rotate(-9.92523)"/>
</clipPath>
</defs>
</svg>
