<svg width="2910" height="169" viewBox="0 0 2910 169" fill="none" xmlns="http://www.w3.org/2000/svg">
<rect width="2910" height="168" fill="#2971F6"/>
<rect x="504" width="168" height="168" fill="white"/>
<rect x="568" width="40" height="168" fill="#FEF151"/>
<rect x="504" y="104" width="40" height="168" transform="rotate(-90 504 104)" fill="#FEF151"/>
<rect x="536" y="32" width="105" height="105" fill="#FEF151"/>
<rect x="2069" width="168" height="168" fill="#FEACFF"/>
<rect x="2133" width="40" height="168" fill="#A3E9FF"/>
<rect x="2069" y="104" width="40" height="168" transform="rotate(-90 2069 104)" fill="#A3E9FF"/>
<rect x="2101" y="32" width="105" height="105" fill="#A3E9FF"/>
<rect x="672" width="168" height="168" fill="#A3E9FF"/>
<path fill-rule="evenodd" clip-rule="evenodd" d="M672.506 168C765.01 168 840 94.5745 840 3.99944C840 2.66269 839.983 1.32969 839.951 0.000597154C839.799 0.000199135 839.646 0 839.494 0C746.99 0 672 73.4256 672 164.001C672 165.337 672.016 166.67 672.049 167.999C672.201 168 672.353 168 672.506 168Z" fill="#FDACFF"/>
<rect x="2574" width="168" height="168" fill="#FEF151"/>
<path fill-rule="evenodd" clip-rule="evenodd" d="M2574.51 168C2667.01 168 2742 94.5745 2742 3.99944C2742 2.66269 2741.98 1.32969 2741.95 0.000597154C2741.8 0.000199135 2741.65 0 2741.49 0C2648.99 0 2574 73.4256 2574 164.001C2574 165.337 2574.02 166.67 2574.05 167.999C2574.2 168 2574.35 168 2574.51 168Z" fill="#A3E9FF"/>
<rect x="336" width="168" height="168" fill="#191818"/>
<path d="M420 1L432.278 55.3572L479.397 25.603L449.643 72.7215L504 85L449.643 97.2785L479.397 144.397L432.278 114.643L420 169L407.722 114.643L360.603 144.397L390.357 97.2785L336 85L390.357 72.7215L360.603 25.603L407.722 55.3572L420 1Z" fill="#FDACFF"/>
<rect x="2742" width="168" height="168" fill="#4B88FF"/>
<path d="M2826 1L2838.28 55.3572L2885.4 25.603L2855.64 72.7215L2910 85L2855.64 97.2785L2885.4 144.397L2838.28 114.643L2826 169L2813.72 114.643L2766.6 144.397L2796.36 97.2785L2742 85L2796.36 72.7215L2766.6 25.603L2813.72 55.3572L2826 1Z" fill="#FDACFF"/>
<rect x="2237" width="168" height="168" fill="#FEF151"/>
<path d="M2321 0L2333.28 54.0356L2380.4 24.4575L2350.64 71.2972L2405 83.503L2350.64 95.7088L2380.4 142.548L2333.28 112.97L2321 167.006L2308.72 112.97L2261.6 142.548L2291.36 95.7088L2237 83.503L2291.36 71.2972L2261.6 24.4575L2308.72 54.0356L2321 0Z" fill="white"/>
<rect x="168" width="168" height="168" fill="#A3E9FF"/>
<circle cx="252" cy="84" r="84" fill="#4B88FF"/>
<rect x="2406" width="168" height="168" fill="#191818"/>
<path d="M2489.5 -3.69361e-06C2511.91 -4.67322e-06 2533.4 8.84997 2549.25 24.603C2565.1 40.3561 2574 61.7218 2574 84C2574 106.278 2565.1 127.644 2549.25 143.397C2533.4 159.15 2511.91 168 2489.5 168L2489.5 84L2489.5 -3.69361e-06Z" fill="#FDACFF"/>
<path d="M2404.5 -3.69361e-06C2426.91 -4.67322e-06 2448.4 8.84997 2464.25 24.603C2480.1 40.3561 2489 61.7218 2489 84C2489 106.278 2480.1 127.644 2464.25 143.397C2448.4 159.15 2426.91 168 2404.5 168L2404.5 84L2404.5 -3.69361e-06Z" fill="#FDACFF"/>
<rect width="168" height="168" fill="#A3E9FF"/>
<path d="M70.3561 21.478C69.8833 20.1691 69.2739 18.8877 68.5235 17.6526C62.4517 7.66358 49.4322 4.48778 39.443 10.5594C29.4539 16.631 26.2781 29.6507 32.3496 39.6398C33.1005 40.875 33.9576 42.0061 34.902 43.0283C33.165 45.0904 31.5689 47.2475 30.1175 49.4844C28.8782 48.9081 27.5645 48.4441 26.1862 48.1079C14.8297 45.3379 3.37787 52.2985 0.607787 63.6551C-2.1623 75.0111 4.7984 86.463 16.1549 89.2328C17.3727 89.53 18.5917 89.7153 19.8009 89.7951C20.0011 92.4846 20.3701 95.1728 20.9118 97.8439C19.8397 98.2733 18.7884 98.7967 17.7688 99.4168C7.77972 105.488 4.60386 118.508 10.6755 128.497C16.7471 138.486 29.767 141.662 39.7561 135.59C40.5501 135.107 41.3011 134.581 42.0078 134.016C44.2027 135.922 46.5101 137.666 48.9108 139.242C48.5937 140.071 48.3252 140.929 48.1095 141.814C45.3394 153.17 52.2998 164.622 63.6564 167.392C75.013 170.162 86.465 163.202 89.2348 151.846C89.406 151.145 89.5397 150.444 89.6375 149.744C92.6282 149.516 95.6164 149.079 98.5808 148.428C98.8682 149.018 99.1853 149.6 99.5326 150.171C105.604 160.16 118.624 163.336 128.613 157.264C138.602 151.192 141.778 138.173 135.706 128.184C135.359 127.613 134.99 127.063 134.599 126.537C136.516 124.236 138.26 121.817 139.824 119.303C140.471 119.529 141.134 119.726 141.814 119.892C153.17 122.661 164.622 115.701 167.392 104.345C170.162 92.988 163.202 81.5367 151.845 78.7663C151.005 78.5616 150.164 78.4098 149.326 78.3092C149.033 75.4207 148.545 72.538 147.855 69.6806C148.683 69.3134 149.495 68.8893 150.29 68.4068C160.279 62.3351 163.455 49.3157 157.383 39.3264C151.311 29.3374 138.291 26.1617 128.302 32.2333C127.283 32.8529 126.334 33.5448 125.46 34.2985C123.318 32.5716 121.08 30.9927 118.761 29.5658C119.224 28.4904 119.604 27.3618 119.89 26.1861C122.661 14.8297 115.7 3.37785 104.344 0.60778C92.9871 -2.16229 81.5352 4.79842 78.7653 16.1548C78.4341 17.5115 78.242 18.8696 78.1797 20.2141C75.5626 20.4736 72.9499 20.8936 70.3561 21.478Z" fill="#FEF151"/>
<path d="M1270.08 106L1290.64 53.2H1298.24L1318.72 106H1311.92L1306.32 91.36H1282.4L1276.8 106H1270.08ZM1291.92 66.4L1284.72 85.36H1304L1296.88 66.64L1294.4 59.28H1294.24L1291.92 66.4ZM1347.85 106.8C1344.81 106.8 1342.09 106.08 1339.69 104.64C1337.29 103.2 1335.48 101.307 1334.25 98.96L1333.85 106H1328.25V47.6H1334.65V72.24C1335.93 70.16 1337.72 68.48 1340.01 67.2C1342.36 65.8667 1345 65.2 1347.93 65.2C1351.24 65.2 1354.28 66.0267 1357.05 67.68C1359.83 69.3333 1362.04 71.7067 1363.69 74.8C1365.35 77.8933 1366.17 81.6267 1366.17 86C1366.17 90.32 1365.32 94.0533 1363.61 97.2C1361.96 100.293 1359.75 102.667 1356.97 104.32C1354.2 105.973 1351.16 106.8 1347.85 106.8ZM1347.21 101.2C1351.16 101.2 1354.23 99.8133 1356.41 97.04C1358.65 94.2667 1359.77 90.5867 1359.77 86C1359.77 81.4133 1358.68 77.7333 1356.49 74.96C1354.31 72.1867 1351.24 70.8 1347.29 70.8C1343.56 70.8 1340.52 72.2133 1338.17 75.04C1335.83 77.8667 1334.65 81.5733 1334.65 86.16C1334.65 90.7467 1335.8 94.4 1338.09 97.12C1340.44 99.84 1343.48 101.2 1347.21 101.2ZM1394.97 65.2C1398.76 65.2 1402.09 66.0267 1404.97 67.68C1407.9 69.3333 1410.2 71.7333 1411.85 74.88C1413.5 77.9733 1414.33 81.68 1414.33 86C1414.33 90.32 1413.5 94.0533 1411.85 97.2C1410.2 100.293 1407.9 102.667 1404.97 104.32C1402.09 105.973 1398.76 106.8 1394.97 106.8C1391.24 106.8 1387.9 105.973 1384.97 104.32C1382.04 102.667 1379.74 100.293 1378.09 97.2C1376.44 94.0533 1375.61 90.32 1375.61 86C1375.61 81.68 1376.44 77.9733 1378.09 74.88C1379.74 71.7333 1382.04 69.3333 1384.97 67.68C1387.9 66.0267 1391.24 65.2 1394.97 65.2ZM1394.97 70.72C1390.92 70.72 1387.74 72.08 1385.45 74.8C1383.16 77.52 1382.01 81.2533 1382.01 86C1382.01 90.7467 1383.16 94.48 1385.45 97.2C1387.74 99.92 1390.92 101.28 1394.97 101.28C1399.02 101.28 1402.2 99.92 1404.49 97.2C1406.78 94.48 1407.93 90.7467 1407.93 86C1407.93 81.2533 1406.78 77.52 1404.49 74.8C1402.2 72.08 1399.02 70.72 1394.97 70.72ZM1440.86 106.8C1438.3 106.8 1435.87 106.32 1433.58 105.36C1431.34 104.4 1429.5 102.853 1428.06 100.72C1426.67 98.5333 1425.98 95.7067 1425.98 92.24V66H1432.38V90.56C1432.38 94.6133 1433.26 97.4133 1435.02 98.96C1436.78 100.453 1439.26 101.2 1442.46 101.2C1444.48 101.2 1446.4 100.747 1448.22 99.84C1450.03 98.88 1451.52 97.4133 1452.7 95.44C1453.87 93.4667 1454.46 90.9067 1454.46 87.76V66H1460.86V106H1455.26L1454.86 99.92C1453.47 102.32 1451.58 104.08 1449.18 105.2C1446.83 106.267 1444.06 106.8 1440.86 106.8ZM1499.75 66V71.52H1485.19V94.96C1485.19 96.9333 1485.75 98.4 1486.87 99.36C1487.99 100.32 1489.43 100.8 1491.19 100.8C1492.74 100.8 1494.07 100.533 1495.19 100C1496.31 99.4667 1497.33 98.7467 1498.23 97.84L1500.47 103.2C1499.25 104.32 1497.78 105.2 1496.07 105.84C1494.42 106.48 1492.5 106.8 1490.31 106.8C1488.29 106.8 1486.39 106.453 1484.63 105.76C1482.87 105.013 1481.46 103.867 1480.39 102.32C1479.38 100.72 1478.85 98.64 1478.79 96.08V71.52H1470.79V66H1478.79V56.4L1485.19 54.64V66H1499.75ZM1588.77 53.2V106H1582.69V72.8L1583.41 58.88H1583.33L1565.97 106H1560.53L1543.17 58.88H1543.09L1543.81 72.8V106H1537.73V53.2H1547.57L1559.17 85.28L1563.17 98.48H1563.33L1567.41 85.36L1578.93 53.2H1588.77ZM1620.91 106.8C1617.12 106.8 1613.74 105.973 1610.75 104.32C1607.82 102.667 1605.52 100.293 1603.87 97.2C1602.22 94.0533 1601.39 90.32 1601.39 86C1601.39 81.68 1602.22 77.9733 1603.87 74.88C1605.52 71.7333 1607.79 69.3333 1610.67 67.68C1613.55 66.0267 1616.83 65.2 1620.51 65.2C1624.24 65.2 1627.42 66 1630.03 67.6C1632.7 69.2 1634.72 71.3867 1636.11 74.16C1637.5 76.88 1638.19 79.9467 1638.19 83.36C1638.19 84.2667 1638.16 85.0933 1638.11 85.84C1638.06 86.5867 1637.98 87.2533 1637.87 87.84H1607.71C1608.03 92.0533 1609.34 95.3333 1611.63 97.68C1613.92 100.027 1616.96 101.2 1620.75 101.2C1623.68 101.2 1626.06 100.64 1627.87 99.52C1629.74 98.4 1631.23 96.88 1632.35 94.96L1637.39 97.92C1635.9 100.64 1633.74 102.8 1630.91 104.4C1628.14 106 1624.8 106.8 1620.91 106.8ZM1620.35 70.8C1616.99 70.8 1614.22 71.8133 1612.03 73.84C1609.9 75.8133 1608.54 78.5867 1607.95 82.16H1631.79C1631.63 78.5333 1630.51 75.7333 1628.43 73.76C1626.35 71.7867 1623.66 70.8 1620.35 70.8Z" fill="white"/>
</svg>
