<svg width="275" height="275" viewBox="0 0 275 275" fill="none" xmlns="http://www.w3.org/2000/svg">
<rect x="6.66055" y="72.7271" width="206" height="206" transform="rotate(-18.7062 6.66055 72.7271)" fill="#FF7777" stroke="white" stroke-width="10"/>
<path d="M99.1852 73.0249C98.1771 71.7606 97.0289 70.5774 95.7426 69.4977C85.3377 60.7667 69.8251 62.1233 61.0938 72.5281C52.3626 82.933 53.7193 98.4458 64.1241 107.177C65.4108 108.257 66.7756 109.182 68.196 109.955C67.0527 112.872 66.1 115.841 65.3361 118.844C63.7574 118.671 62.1387 118.65 60.4965 118.794C46.9654 119.977 36.9557 131.906 38.1391 145.437C39.3223 158.967 51.2508 168.977 64.7817 167.793C66.2328 167.667 67.6434 167.416 69.004 167.053C70.2266 169.939 71.6346 172.76 73.2261 175.498C72.2062 176.37 71.2442 177.338 70.3532 178.4C61.6218 188.805 62.9785 204.318 73.3833 213.048C83.7883 221.78 99.3011 220.423 108.032 210.018C108.726 209.191 109.357 208.332 109.924 207.446C113.05 208.726 116.239 209.786 119.469 210.626C119.429 211.657 119.453 212.701 119.545 213.755C120.729 227.286 132.657 237.296 146.188 236.112C159.719 234.929 169.729 223 168.545 209.47C168.473 208.635 168.359 207.814 168.206 207.007C171.412 205.642 174.538 204.047 177.558 202.226C178.094 202.768 178.66 203.29 179.255 203.789C189.66 212.52 205.173 211.164 213.904 200.759C222.635 190.354 221.279 174.841 210.873 166.11C210.278 165.611 209.667 165.144 209.041 164.711C210.294 161.463 211.311 158.151 212.096 154.802C212.892 154.81 213.695 154.779 214.505 154.708C228.036 153.524 238.046 141.596 236.862 128.065C235.679 114.534 223.751 104.525 210.22 105.708C209.219 105.796 208.237 105.942 207.277 106.143C205.878 103.073 204.266 100.083 202.443 97.1951C203.216 96.4827 203.953 95.713 204.647 94.8861C213.378 84.4811 212.022 68.9686 201.617 60.2373C191.212 51.5062 175.699 52.863 166.968 63.268C166.077 64.3296 165.291 65.4447 164.609 66.6001C161.608 65.4977 158.556 64.5941 155.473 63.8878C155.582 62.5315 155.579 61.1479 155.456 59.7472C154.273 46.2162 142.345 36.2065 128.814 37.3897C115.283 38.5732 105.273 50.5017 106.457 64.0326C106.598 65.6492 106.892 67.2155 107.325 68.7184C104.541 69.9792 101.822 71.4152 99.1852 73.0249Z" fill="#FEACFF"/>
</svg>
