<svg width="49" height="48" viewBox="0 0 49 48" fill="none" xmlns="http://www.w3.org/2000/svg">
<path fill-rule="evenodd" clip-rule="evenodd" d="M25.6725 7.62655C25.6984 7.39892 25.7118 7.16746 25.7118 6.93288C25.7118 3.58828 23.0004 0.876953 19.6558 0.876953C16.3112 0.876953 13.5999 3.58828 13.5999 6.93288C13.5999 8.25773 14.0253 9.48321 14.747 10.4802C14.1979 10.851 13.6715 11.2529 13.1704 11.6834C12.0597 10.3393 10.3798 9.48276 8.49997 9.48276C5.15537 9.48276 2.44404 12.1941 2.44404 15.5387C2.44404 18.5455 4.63533 21.0404 7.50805 21.5138C7.40451 22.0758 7.32854 22.6476 7.28158 23.2275C7.05395 23.2015 6.82248 23.1882 6.5879 23.1882C3.2433 23.1882 0.531975 25.8995 0.531975 29.2441C0.531975 32.5887 3.2433 35.3001 6.5879 35.3001C7.91273 35.3001 9.13819 34.8746 10.1351 34.153C10.4606 34.6349 10.8099 35.0993 11.1816 35.5445C9.92785 36.654 9.13741 38.2752 9.13741 40.0811C9.13741 43.4257 11.8487 46.137 15.1933 46.137C18.0917 46.137 20.5145 44.1009 21.1094 41.381C21.7808 41.5071 22.466 41.5939 23.1626 41.6389L23.1625 41.6747C23.1625 45.0193 25.8738 47.7307 29.2184 47.7307C32.563 47.7307 35.2743 45.0193 35.2743 41.6747C35.2743 40.4712 34.9232 39.3496 34.3179 38.4069C34.7408 38.0983 35.149 37.7708 35.5412 37.4254C36.6501 38.6641 38.2614 39.4436 40.0547 39.4436C43.3993 39.4436 46.1107 36.7323 46.1107 33.3877C46.1107 30.4 43.947 27.9176 41.1011 27.4219C41.1943 26.8572 41.2598 26.2832 41.2962 25.7013C41.5166 25.7256 41.7406 25.7381 41.9676 25.7381C45.3121 25.7381 48.0235 23.0268 48.0235 19.6822C48.0235 16.3376 45.3121 13.6263 41.9676 13.6263C40.5778 13.6263 39.2974 14.0944 38.2755 14.8815C37.9454 14.4081 37.5919 13.9522 37.2168 13.5156C38.5608 12.4048 39.4173 10.725 39.4173 8.84523C39.4173 5.50063 36.706 2.7893 33.3614 2.7893C30.3547 2.7893 27.8598 4.98045 27.3863 7.85303C26.8242 7.74949 26.2524 7.67351 25.6725 7.62655Z" fill="#2971F6"/>
</svg>
