<svg width="888" height="888" viewBox="0 0 888 888" fill="none" xmlns="http://www.w3.org/2000/svg">
<path d="M368.495 99.3986L368.495 99.398C335.762 45.5472 265.574 28.4265 211.722 61.1584C157.871 93.8903 140.75 164.08 173.482 217.931L177.184 215.68L173.482 217.931C176.739 223.289 180.369 228.287 184.319 232.909C177.207 241.575 170.563 250.551 164.398 259.797C158.896 257.489 153.143 255.585 147.168 254.127C85.9458 239.194 24.2089 276.719 9.27541 337.942C-5.65808 399.162 31.8668 460.899 93.0892 475.832C98.2045 477.08 103.326 477.962 108.426 478.494C109.411 489.799 110.967 501.094 113.105 512.337C108.649 514.313 104.271 516.598 99.9972 519.197C46.1459 551.927 29.0248 622.117 61.757 675.968C94.4889 729.82 164.679 746.939 218.53 714.207C221.595 712.344 224.543 710.359 227.371 708.261C236.902 716.339 246.825 723.841 257.085 730.751C255.959 734.034 254.973 737.397 254.135 740.834C239.202 802.055 276.725 863.792 337.949 878.724C399.171 893.659 460.908 856.134 475.841 794.914C476.44 792.462 476.954 790.01 477.385 787.559C490.443 786.409 503.486 784.495 516.447 781.805C517.499 783.787 518.614 785.751 519.794 787.693L519.794 787.693C552.527 841.543 622.718 858.665 676.568 825.932C730.418 793.199 747.54 723.012 714.807 669.159L714.806 669.158C713.628 667.22 712.4 665.327 711.126 663.482C719.358 653.368 726.957 642.836 733.905 631.952C736.179 632.658 738.488 633.298 740.83 633.87L740.831 633.87C802.054 648.802 863.792 611.28 878.724 550.056C893.659 488.833 856.133 427.099 794.912 412.164L794.911 412.164C791.706 411.383 788.499 410.745 785.295 410.246C783.885 397.786 781.777 385.352 778.956 373.002C782.119 371.458 785.237 369.757 788.303 367.894L788.304 367.894C842.154 335.161 859.276 264.973 826.543 211.121L822.271 213.718L826.543 211.121C793.81 157.27 723.622 140.15 669.769 172.882L669.769 172.883C665.499 175.479 661.456 178.312 657.649 181.357C648.542 174.195 639.113 167.537 629.406 161.394C631.176 156.812 632.671 152.065 633.864 147.168C648.799 85.9458 611.273 24.2088 550.052 9.27539L549.25 12.5641L550.052 9.27538C488.829 -5.65793 427.092 31.8666 412.159 93.0884C410.727 98.9548 409.777 104.829 409.284 110.669C398.424 111.883 387.583 113.627 376.799 115.912C374.515 110.278 371.75 104.756 368.495 99.3986Z" fill="#A4EAFF" stroke="white" stroke-width="10"/>
</svg>
