<svg width="1752" height="671" viewBox="0 0 1752 671" fill="none" xmlns="http://www.w3.org/2000/svg">
<path d="M1565.55 52.5V34.5H1625.04L1663.03 72.5L1653.53 82L1666.02 94.5L1646.53 114L1621.04 88.5V70.5L1603.04 52.5H1565.55Z" fill="#2971F6"/>
<path d="M1552.06 10H1527.56V55.5L1516.07 70.5H1452.59L1439.59 57.5H1341.62L1332.62 48.5H1286.13L1257.14 77.5L1278.64 99L1257.14 120.5L1287.63 151H1304.63L1325.12 130.5H1374.11L1428.59 185V250.5L1482.58 304.5V322.5L1518.07 358H1552.56L1590.55 396V445H1622.04V570.5L1606.04 586.5V650L1627.04 671H1646.03V624.5L1713.01 557.5V532.5L1752 493.5V432.5L1695.52 376H1592.05L1556.56 340.5H1534.56L1521.07 327V301.5L1537.56 285H1573.05L1586.05 298H1603.04V277L1651.03 229V189H1679.52V164.5L1632.03 117H1603.04V164.5H1581.05L1552.06 135.5V117L1584.05 85V70.5H1567.55L1552.06 55V10Z" fill="#2971F6"/>
<path d="M1494.57 34.5V0H1475.08L1465.08 10H1409.6V34.5H1494.57Z" fill="#2971F6"/>
<path d="M283.641 289.467L295.86 277.25H314.743V257.812L350.289 222.269H404.162L417.492 208.94V173.397L426.378 164.511V145.074L402.496 168.954V208.94H370.839V197.278H343.624V160.069L393.61 110.086H507.466V133.411L495.803 145.074H480.807V161.735H500.801L566.894 95.6467H618.546V73.9877H713.519L748.509 39H811.268V53.4394L790.719 73.9877L800.716 87.3163H991.772L1012.32 107.865H1121.18V136.743L1072.31 185.615H1044.54V216.16L1015.65 245.039H997.882V211.717L1025.65 183.949H941.787L919.015 206.719V227.822H934.011V257.812L893.467 300.575L895.133 325.011L894.578 348.336L876.805 358.332H865.697L870.696 325.011L869.585 308.35L842.926 314.459L838.483 333.341L850.146 345.004V364.996L807.381 407.759H784.609V419.422L798.494 433.306V453.299L790.719 461.074H782.943L769.058 447.19H758.506V463.295L779.611 484.399V494.395L774.612 499.394L756.84 481.622V475.513L748.509 467.183V426.086H736.845L714.074 403.316H697.967V412.757L675.196 435.527V455.52L667.421 463.295H656.313L641.317 448.301V401.095H629.098L608.549 380.547H554.675L538.013 363.886L530.793 371.105L556.341 396.652H573.559V409.981L545.233 438.304H530.793L495.803 403.316V382.213H485.806V426.086L514.131 454.409H539.124V475.513L495.248 499.387V552.701L467.478 580.469V622.677L439.152 651H411.383L383.057 622.677V539.928L362.508 519.38V481.622H291.417L251.428 441.636V378.88L295.86 334.452H372.505L391.944 353.889L401.941 343.893H428.044L436.931 355H468.588L476.919 343.893L525.239 336.673L529.682 325.566L520.796 313.903V310.016L526.905 308.35L525.239 297.243L504.134 306.128L509.132 312.793L518.019 310.016V316.125L504.134 320.012V316.125L498.025 312.793L504.134 310.016L489.138 303.351L483.584 310.016L479.141 327.232H453.593L442.485 316.125H423.601L396.942 289.467L389.167 297.243L401.941 310.016L391.944 320.012L356.398 284.469L317.52 323.344H283.641V289.467Z" fill="#2971F6"/>
<path d="M875.521 369L873.76 369.682L872 371.045V372.409L872.978 373.545L875.13 374L877.868 373.545L880.019 372.864L880.997 370.591V369.909L879.237 369H875.521Z" fill="#2971F6"/>
<path d="M905.502 324.609L905.029 324.552L904.374 324.699L904.011 325.106L903.871 325.59L904.107 326.044L904.683 326.313L905.221 326.428L905.988 325.894L906.17 325.69L906.119 325.158L905.502 324.609Z" fill="#2971F6"/>
<path d="M0 201V181.5H22.9934L52.485 152H113.468L127.464 138H211.94L227.935 154V183.5L208.441 203V246L179.449 275H160.954L119.966 316H98.4719L69.98 287.5V230.5L40.4884 201H0Z" fill="#2971F6"/>
<path d="M900 323L901.5 322H902.5L903 323L902.5 324H900.5L900 323Z" fill="#2971F6"/>
<path d="M1029 469H1018.5V490L1012 496.5H1001.5L993 488V469H968L944.5 492.5V502H927.5L909 520.5V554L925.5 570.5H953L965.5 558H987L1016 587H1044.5L1065.5 566V532L1035.5 502V488L1029 481.5V469Z" fill="#2971F6"/>
<path d="M934.097 318L931.152 319.193L923.748 336.307L925.931 341.696L917.095 345.276L919.387 350.934L930.633 346.377L938.136 327.969L934.097 318Z" fill="#2971F6"/>
</svg>
