<svg width="949" height="949" viewBox="0 0 949 949" fill="none" xmlns="http://www.w3.org/2000/svg">
<path d="M397.428 121.325C394.758 113.931 391.315 106.693 387.076 99.7163C352.778 43.2901 279.233 25.3506 222.806 59.6479C166.379 93.9451 148.44 167.491 182.737 223.917C186.978 230.895 191.82 237.284 197.155 243.059C187.343 254.707 178.327 266.892 170.128 279.528C163.127 276.273 155.707 273.652 147.921 271.753C83.7703 256.105 19.081 295.424 3.43327 359.575C-12.2144 423.724 27.1053 488.413 91.2558 504.059C98.135 505.738 105.021 506.785 111.851 507.235C112.982 522.428 115.067 537.613 118.127 552.701C112.071 555.127 106.132 558.084 100.373 561.586C43.9462 595.882 26.0063 669.429 60.3038 725.854C94.6013 782.282 168.148 800.22 224.575 765.922C229.06 763.196 233.302 760.224 237.294 757.028C249.693 767.798 262.727 777.65 276.288 786.554C274.496 791.236 272.98 796.082 271.761 801.082C256.113 865.231 295.432 929.92 359.583 945.566C423.734 961.215 488.424 921.895 504.07 857.747C505.037 853.788 505.793 849.829 506.345 845.878C523.239 844.59 540.119 842.12 556.864 838.444C558.488 841.774 560.279 845.059 562.241 848.288C596.539 904.713 670.086 922.653 726.512 888.355C782.938 854.057 800.878 780.513 766.58 724.085C764.618 720.859 762.53 717.758 760.321 714.785C771.154 701.784 781.004 688.122 789.839 673.921C793.493 675.198 797.241 676.308 801.079 677.245C865.23 692.891 929.92 653.574 945.566 589.423C961.215 525.272 921.895 460.585 857.746 444.936C852.999 443.779 848.249 442.922 843.515 442.354C841.861 426.037 839.1 409.753 835.207 393.613C839.88 391.538 844.471 389.143 848.957 386.417C905.383 352.119 923.324 278.575 889.025 222.147C854.727 165.721 781.182 147.782 724.754 182.08C718.998 185.58 713.638 189.488 708.698 193.746C696.599 183.991 683.955 175.072 670.858 167.012C673.474 160.937 675.62 154.562 677.238 147.92C692.887 83.7703 653.566 19.0808 589.418 3.43324C525.266 -12.2143 460.577 27.1054 444.93 91.2555C443.059 98.9193 441.974 106.591 441.622 114.186C426.839 115.651 412.08 118.024 397.428 121.325Z" fill="white"/>
</svg>
