<svg width="167" height="167" viewBox="0 0 167 167" fill="none" xmlns="http://www.w3.org/2000/svg">
<path d="M69.9373 21.3502C69.4673 20.049 68.8616 18.7753 68.1156 17.5475C62.0799 7.61796 49.1379 4.46107 39.2082 10.4965C29.2786 16.532 26.1216 29.4742 32.1571 39.4038C32.9035 40.6317 33.7554 41.756 34.6942 42.7722C32.9676 44.822 31.381 46.9663 29.9382 49.1899C28.7063 48.617 27.4005 48.1558 26.0303 47.8216C14.7414 45.068 3.35776 51.9872 0.604169 63.2762C-2.14943 74.5647 4.76984 85.9484 16.0587 88.7017C17.2693 88.9971 18.481 89.1813 19.683 89.2606C19.882 91.9342 20.2489 94.6063 20.7873 97.2615C19.7216 97.6884 18.6766 98.2086 17.6631 98.825C7.73341 104.86 4.57646 117.803 10.6119 127.732C16.6474 137.662 29.5898 140.818 39.5195 134.783C40.3088 134.303 41.0552 133.78 41.7578 133.218C43.9396 135.113 46.2333 136.847 48.6197 138.414C48.3044 139.238 48.0376 140.09 47.8231 140.97C45.0695 152.259 51.9885 163.642 63.2775 166.396C74.5665 169.15 85.9503 162.23 88.7036 150.942C88.8738 150.245 89.0068 149.548 89.1039 148.853C92.0768 148.626 95.0472 148.192 97.994 147.545C98.2797 148.131 98.5949 148.709 98.9401 149.277C104.976 159.207 117.918 162.364 127.848 156.328C137.777 150.292 140.934 137.351 134.899 127.421C134.553 126.853 134.186 126.307 133.797 125.784C135.704 123.496 137.437 121.092 138.992 118.593C139.635 118.818 140.294 119.013 140.97 119.178C152.259 121.931 163.642 115.012 166.396 103.724C169.15 92.4346 162.23 81.0513 150.942 78.2975C150.106 78.094 149.27 77.9431 148.437 77.843C148.146 74.9717 147.66 72.1062 146.975 69.2659C147.798 68.9008 148.606 68.4793 149.395 67.9997C159.325 61.9641 162.482 49.0221 156.446 39.0923C150.41 29.1627 137.468 26.006 127.538 32.0414C126.525 32.6573 125.582 33.3452 124.713 34.0944C122.584 32.3777 120.359 30.8083 118.054 29.3899C118.514 28.3208 118.892 27.1989 119.177 26.0303C121.931 14.7415 115.011 3.35775 103.723 0.604163C92.4336 -2.14942 81.0498 4.76986 78.2965 16.0587C77.9672 17.4073 77.7763 18.7573 77.7144 20.0938C75.1128 20.3517 72.5156 20.7693 69.9373 21.3502Z" fill="#FEACFF"/>
</svg>
