<svg width="2915" height="378" viewBox="0 0 2915 378" fill="none" xmlns="http://www.w3.org/2000/svg">
<rect x="12.3091" y="0.0107422" width="2910" height="168" transform="rotate(4.12365 12.3091 0.0107422)" fill="#FDACFF"/>
<rect x="514.848" y="36.2529" width="168" height="168" transform="rotate(4.12365 514.848 36.2529)" fill="white"/>
<rect x="578.682" y="40.8555" width="40" height="168" transform="rotate(4.12365 578.682 40.8555)" fill="#FEF151"/>
<rect x="507.369" y="139.983" width="40" height="168" transform="rotate(-85.8763 507.369 139.983)" fill="#FEF151"/>
<rect x="544.464" y="70.4707" width="105" height="105" transform="rotate(4.12365 544.464 70.4707)" fill="#FEF151"/>
<path d="M2075.8 148.79L2243.36 160.871L2231.28 328.436L2063.72 316.355L2075.8 148.79Z" fill="#A3E9FF"/>
<rect x="2139.63" y="153.393" width="40" height="168" transform="rotate(4.12365 2139.63 153.393)" fill="#FEF151"/>
<rect x="2068.32" y="252.521" width="40" height="168" transform="rotate(-85.8763 2068.32 252.521)" fill="#FEF151"/>
<rect x="2105.41" y="183.008" width="105" height="105" transform="rotate(4.12365 2105.41 183.008)" fill="#FEF151"/>
<rect x="682.413" y="48.333" width="168" height="168" transform="rotate(4.12365 682.413 48.333)" fill="#A3E9FF"/>
<path fill-rule="evenodd" clip-rule="evenodd" d="M670.837 215.934C763.102 222.586 843.177 154.743 849.69 64.4028C849.786 63.0695 849.866 61.7388 849.929 60.4108C849.777 60.3995 849.625 60.3883 849.473 60.3774C757.209 53.7255 677.133 121.568 670.62 211.909C670.524 213.242 670.444 214.573 670.381 215.901C670.533 215.912 670.685 215.924 670.837 215.934Z" fill="#FDACFF"/>
<rect x="2579.49" y="185.104" width="168" height="168" transform="rotate(4.12365 2579.49 185.104)" fill="#FEF151"/>
<path fill-rule="evenodd" clip-rule="evenodd" d="M2567.91 352.706C2660.18 359.358 2740.25 291.515 2746.77 201.174C2746.86 199.841 2746.94 198.51 2747.01 197.182C2746.85 197.171 2746.7 197.16 2746.55 197.149C2654.28 190.497 2574.21 258.34 2567.7 348.681C2567.6 350.014 2567.52 351.345 2567.46 352.673C2567.61 352.684 2567.76 352.695 2567.91 352.706Z" fill="#A3E9FF"/>
<rect x="347.282" y="24.1719" width="168" height="168" transform="rotate(4.12365 347.282 24.1719)" fill="#191818"/>
<path d="M430.993 31.2093L439.331 86.3087L488.467 60.0198L455.402 104.877L508.736 121.032L453.636 129.37L479.925 178.506L435.068 145.441L418.913 198.774L410.575 143.675L361.439 169.964L394.504 125.107L341.171 108.951L396.27 100.614L369.981 51.4775L414.838 84.5429L430.993 31.2093Z" fill="#FDACFF"/>
<rect x="2747.05" y="197.186" width="168" height="168" transform="rotate(4.12365 2747.05 197.186)" fill="white"/>
<path d="M2830.76 204.223L2839.1 259.322L2888.24 233.034L2855.17 277.89L2908.51 294.046L2853.41 302.384L2879.7 351.52L2834.84 318.455L2818.68 371.788L2810.35 316.689L2761.21 342.978L2794.28 298.121L2740.94 281.965L2796.04 273.627L2769.75 224.491L2814.61 257.557L2830.76 204.223Z" fill="#FDACFF"/>
<rect x="2243.36" y="160.871" width="168" height="168" transform="rotate(4.12365 2243.36 160.871)" fill="#FEF151"/>
<path d="M2327.14 166.911L2335.5 221.69L2384.63 195.577L2351.58 240.156L2404.92 256.239L2349.83 264.504L2376.14 313.362L2331.27 280.472L2315.13 333.485L2306.77 278.706L2257.65 304.82L2290.7 260.241L2237.36 244.158L2292.45 235.892L2266.14 187.034L2311.01 219.924L2327.14 166.911Z" fill="#191818"/>
<rect x="12.1523" y="0.00976562" width="168" height="168" transform="rotate(4.12365 12.1523 0.00976562)" fill="#FEF151"/>
<circle cx="89.8945" cy="89.8327" r="84" transform="rotate(4.12365 89.8945 89.8327)" fill="white"/>
<rect x="2411.92" y="173.023" width="168" height="168" transform="rotate(4.12365 2411.92 173.023)" fill="#191818"/>
<path d="M2495.21 179.028C2517.56 180.639 2538.36 191.012 2553.03 207.864C2567.71 224.716 2575.05 246.666 2573.45 268.887C2571.85 291.107 2561.43 311.777 2544.49 326.35C2527.55 340.923 2505.48 348.204 2483.13 346.593L2489.17 262.81L2495.21 179.028Z" fill="#FDACFF"/>
<path d="M2410.43 172.916C2432.78 174.527 2453.58 184.9 2468.25 201.751C2482.93 218.603 2490.27 240.554 2488.67 262.774C2487.07 284.995 2476.65 305.665 2459.71 320.238C2442.77 334.811 2420.7 342.092 2398.35 340.481L2404.39 256.698L2410.43 172.916Z" fill="#FDACFF"/>
<rect x="179.718" y="12.0908" width="168" height="168" transform="rotate(4.12365 179.718 12.0908)" fill="#A3E9FF"/>
<path d="M248.347 38.5725C247.97 37.233 247.454 35.911 246.794 34.6252C241.457 24.2254 228.699 20.1216 218.299 25.4592C207.899 30.7967 203.796 43.5544 209.133 53.9542C209.793 55.2403 210.567 56.43 211.435 57.5175C209.554 59.4493 207.807 61.4861 206.199 63.6129C205.004 62.9489 203.727 62.3917 202.377 61.9573C191.249 58.3777 179.326 64.4969 175.747 75.6248C172.167 86.7523 178.286 98.675 189.414 102.254C190.607 102.638 191.81 102.911 193.01 103.077C193.017 105.774 193.191 108.482 193.54 111.185C192.439 111.536 191.353 111.983 190.292 112.528C179.892 117.865 175.788 130.623 181.126 141.023C186.463 151.423 199.221 155.526 209.621 150.189C210.447 149.764 211.234 149.294 211.98 148.78C214.032 150.84 216.208 152.745 218.489 154.49C218.113 155.294 217.784 156.13 217.505 156.998C213.925 168.125 220.044 180.048 231.172 183.627C242.3 187.207 254.223 181.088 257.802 169.96C258.024 169.273 258.207 168.584 258.355 167.893C261.355 167.881 264.366 167.66 267.37 167.224C267.614 167.832 267.889 168.435 268.194 169.03C273.532 179.43 286.29 183.534 296.689 178.196C307.089 172.859 311.193 160.101 305.855 149.701C305.55 149.107 305.221 148.532 304.869 147.979C306.947 145.822 308.86 143.535 310.601 141.14C311.23 141.412 311.877 141.655 312.543 141.87C323.671 145.449 335.594 139.33 339.173 128.202C342.753 117.074 336.634 105.152 325.506 101.572C324.683 101.308 323.855 101.096 323.026 100.935C322.942 98.0331 322.662 95.1227 322.18 92.2232C323.031 91.9164 323.872 91.5519 324.699 91.1278C335.099 85.79 339.203 73.0327 333.865 62.6327C328.527 52.2329 315.77 48.1292 305.37 53.4668C304.309 54.0115 303.313 54.6334 302.386 55.3223C300.374 53.4458 298.255 51.7101 296.045 50.1201C296.584 49.0807 297.044 47.9824 297.415 46.8304C300.995 35.7026 294.875 23.7798 283.748 20.2003C272.62 16.6208 260.697 22.7399 257.117 33.8678C256.69 35.1971 256.4 36.5379 256.242 37.8745C253.613 37.945 250.976 38.1761 248.347 38.5725Z" fill="#FEF151"/>
<path d="M1329.7 207.307L1333.78 150.654L1357.4 152.356C1359.9 152.537 1362.15 153.234 1364.15 154.447C1366.15 155.607 1367.86 157.121 1369.28 158.987C1370.7 160.801 1371.75 162.829 1372.45 165.071C1373.14 167.26 1373.41 169.472 1373.25 171.706C1373.03 174.792 1372.12 177.694 1370.54 180.414C1368.96 183.08 1366.85 185.201 1364.22 186.776C1361.6 188.298 1358.61 188.938 1355.26 188.697L1338.35 187.477L1336.88 207.824L1329.7 207.307ZM1338.81 181.094L1355.32 182.284C1357.29 182.426 1359.03 182.017 1360.55 181.057C1362.11 180.1 1363.36 178.746 1364.29 176.995C1365.27 175.248 1365.84 173.311 1365.99 171.183C1366.15 168.949 1365.82 166.919 1364.99 165.095C1364.16 163.217 1363.01 161.717 1361.54 160.595C1360.07 159.473 1358.4 158.845 1356.54 158.711L1340.5 157.555L1338.81 181.094ZM1402.88 176.89C1399.36 176.69 1396.19 177.37 1393.35 178.93C1390.57 180.441 1388.51 182.672 1387.17 185.623L1385.32 211.316L1378.3 210.81L1381.3 169.158L1387.84 169.63L1387.15 179.285C1388.79 176.516 1390.84 174.338 1393.31 172.751C1395.84 171.115 1398.41 170.285 1401.03 170.26C1401.56 170.298 1402.02 170.331 1402.39 170.358C1402.76 170.385 1403.08 170.434 1403.34 170.507L1402.88 176.89ZM1424.48 214.942C1420.33 214.643 1416.74 213.394 1413.69 211.196C1410.69 208.948 1408.44 206.139 1406.91 202.767C1405.4 199.343 1404.78 195.715 1405.05 191.885C1405.33 188.002 1406.47 184.501 1408.46 181.383C1410.5 178.215 1413.17 175.76 1416.45 174.018C1419.78 172.227 1423.5 171.479 1427.6 171.774C1431.75 172.073 1435.32 173.347 1438.31 175.595C1441.36 177.793 1443.64 180.604 1445.16 184.029C1446.74 187.404 1447.38 191.034 1447.1 194.917C1446.83 198.747 1445.66 202.246 1443.62 205.414C1441.63 208.532 1438.99 210.989 1435.71 212.784C1432.43 214.526 1428.69 215.245 1424.48 214.942ZM1412.23 192.483C1412.02 195.355 1412.44 198.006 1413.5 200.435C1414.61 202.867 1416.15 204.85 1418.12 206.383C1420.1 207.862 1422.37 208.694 1424.92 208.878C1427.47 209.062 1429.84 208.537 1432.01 207.304C1434.24 206.074 1436.05 204.333 1437.44 202.081C1438.89 199.779 1439.72 197.192 1439.93 194.319C1440.13 191.447 1439.68 188.794 1438.58 186.362C1437.52 183.933 1435.98 181.95 1433.95 180.414C1431.98 178.881 1429.71 178.023 1427.16 177.839C1424.61 177.654 1422.24 178.206 1420.06 179.492C1417.89 180.726 1416.08 182.467 1414.63 184.716C1413.24 186.968 1412.44 189.557 1412.23 192.483ZM1458.24 166.845L1458.87 158.068L1465.9 158.574L1465.26 167.351L1458.24 166.845ZM1447.7 230.732C1445.89 230.602 1444.18 230.211 1442.57 229.561C1440.96 228.91 1439.56 227.953 1438.37 226.691L1441.98 222.219C1442.67 222.964 1443.51 223.506 1444.51 223.845C1445.44 224.18 1446.39 224.382 1447.35 224.451C1449.05 224.574 1450.64 224.047 1452.12 222.87C1453.59 221.693 1454.4 220.12 1454.54 218.152L1457.68 174.665L1464.7 175.171L1461.6 218.179C1461.41 220.786 1460.63 223.056 1459.26 224.989C1457.89 226.976 1456.18 228.456 1454.13 229.432C1452.13 230.464 1449.99 230.897 1447.7 230.732ZM1491.43 219.768C1487.28 219.469 1483.68 218.221 1480.63 216.022C1477.58 213.824 1475.27 211.01 1473.7 207.582C1472.12 204.153 1471.48 200.498 1471.76 196.614C1472.04 192.678 1473.21 189.152 1475.25 186.038C1477.29 182.923 1479.98 180.497 1483.31 178.759C1486.7 177.025 1490.47 176.307 1494.62 176.606C1498.82 176.909 1502.39 178.183 1505.33 180.426C1508.33 182.621 1510.56 185.402 1512.03 188.77C1513.55 192.088 1514.18 195.609 1513.91 199.333C1513.83 200.503 1513.71 201.403 1513.56 202.034L1479.01 199.543C1479.02 202.271 1479.59 204.745 1480.72 206.965C1481.9 209.136 1483.48 210.908 1485.47 212.281C1487.46 213.601 1489.65 214.347 1492.04 214.519C1494.6 214.703 1497.04 214.238 1499.36 213.122C1501.74 212.01 1503.43 210.448 1504.43 208.435L1510.38 210.547C1508.82 213.537 1506.33 215.897 1502.89 217.627C1499.45 219.358 1495.63 220.071 1491.43 219.768ZM1479.12 194.658L1507.53 196.706C1507.51 193.978 1506.91 191.529 1505.73 189.358C1504.55 187.188 1502.96 185.443 1500.97 184.123C1498.98 182.803 1496.74 182.053 1494.24 181.873C1491.79 181.696 1489.49 182.118 1487.33 183.139C1485.17 184.16 1483.35 185.659 1481.87 187.638C1480.44 189.621 1479.53 191.961 1479.12 194.658ZM1538.57 223.167C1534.42 222.868 1530.82 221.619 1527.77 219.421C1524.72 217.17 1522.42 214.329 1520.84 210.901C1519.27 207.472 1518.63 203.817 1518.91 199.933C1519.19 195.997 1520.33 192.47 1522.32 189.351C1524.31 186.233 1526.97 183.831 1530.3 182.146C1533.63 180.408 1537.4 179.691 1541.6 179.994C1545.7 180.289 1549.19 181.477 1552.09 183.557C1555.05 185.588 1557.16 188.2 1558.42 191.393L1551.41 193.053C1550.49 191.008 1549.1 189.384 1547.27 188.182C1545.43 186.927 1543.34 186.215 1541 186.046C1538.45 185.862 1536.06 186.358 1533.84 187.535C1531.67 188.715 1529.89 190.432 1528.49 192.684C1527.11 194.883 1526.3 197.472 1526.09 200.451C1525.88 203.377 1526.3 206.081 1527.35 208.563C1528.46 210.995 1530 212.978 1531.97 214.511C1534 216.047 1536.29 216.907 1538.85 217.091C1540.5 217.21 1542.09 217.031 1543.62 216.553C1545.2 216.079 1546.59 215.404 1547.77 214.527C1549.02 213.6 1549.89 212.568 1550.4 211.428L1557.12 213.997C1555.67 216.941 1553.26 219.28 1549.87 221.015C1546.54 222.753 1542.77 223.47 1538.57 223.167ZM1586.07 223.704C1585.19 224.015 1583.8 224.45 1581.89 225.007C1580.03 225.568 1577.98 225.768 1575.75 225.607C1573.19 225.423 1571.03 224.572 1569.27 223.055C1567.51 221.484 1566.74 219.21 1566.96 216.231L1568.98 188.223L1563.31 187.815L1563.71 182.309L1569.37 182.718L1570.37 168.834L1577.4 169.34L1576.4 183.224L1585.73 183.897L1585.33 189.403L1576 188.73L1574.13 214.583C1574.13 216.08 1574.56 217.233 1575.41 218.043C1576.26 218.8 1577.3 219.222 1578.53 219.311C1579.91 219.41 1581.2 219.263 1582.41 218.869C1583.61 218.474 1584.41 218.184 1584.8 217.998L1586.07 223.704Z" fill="#191818"/>
</svg>
