<svg width="2855" height="916" viewBox="0 0 2855 916" fill="none" xmlns="http://www.w3.org/2000/svg">
<rect y="752.095" width="2910" height="168" transform="rotate(-14.9782 0 752.095)" fill="#191818"/>
<rect x="0.0439453" y="752.259" width="168" height="168" transform="rotate(-14.9782 0.0439453 752.259)" fill="white"/>
<rect x="61.8696" y="735.718" width="40" height="168" transform="rotate(-14.9782 61.8696 735.718)" fill="#FEF151"/>
<rect x="26.9229" y="852.726" width="40" height="168" transform="rotate(-104.978 26.9229 852.726)" fill="#FEF151"/>
<rect x="39.2271" y="774.901" width="105" height="105" transform="rotate(-14.9782 39.2271 774.901)" fill="#FEF151"/>
<rect x="2648.88" y="43.584" width="168" height="168" transform="rotate(-14.9782 2648.88 43.584)" fill="#A3E9FF"/>
<rect x="2710.71" y="27.043" width="40" height="168" transform="rotate(-14.9782 2710.71 27.043)" fill="#191818"/>
<rect x="2675.76" y="144.051" width="40" height="168" transform="rotate(-104.978 2675.76 144.051)" fill="#191818"/>
<rect x="2688.07" y="66.2266" width="105" height="105" transform="rotate(-14.9782 2688.07 66.2266)" fill="#191818"/>
<rect x="1998.75" y="217.521" width="168" height="168" transform="rotate(-14.9782 1998.75 217.521)" fill="#FEACFF"/>
<rect x="2060.57" y="200.98" width="40" height="168" transform="rotate(-14.9782 2060.57 200.98)" fill="#A3E9FF"/>
<rect x="2025.63" y="317.988" width="40" height="168" transform="rotate(-104.978 2025.63 317.988)" fill="#A3E9FF"/>
<rect x="2037.93" y="240.164" width="105" height="105" transform="rotate(-14.9782 2037.93 240.164)" fill="#A3E9FF"/>
<rect x="162.336" y="708.839" width="168" height="168" transform="rotate(-14.9782 162.336 708.839)" fill="#FEF151"/>
<path fill-rule="evenodd" clip-rule="evenodd" d="M206.244 871C295.606 847.092 349.071 756.78 325.661 669.283C325.316 667.991 324.956 666.708 324.581 665.432C324.434 665.471 324.286 665.51 324.139 665.55C234.778 689.458 181.313 779.77 204.722 867.267C205.068 868.559 205.428 869.842 205.803 871.118C205.95 871.079 206.097 871.04 206.244 871Z" fill="#FDACFF"/>
<rect x="2486.59" y="87.0039" width="168" height="168" transform="rotate(-14.9782 2486.59 87.0039)" fill="#FEF151"/>
<path fill-rule="evenodd" clip-rule="evenodd" d="M2530.5 249.165C2619.86 225.257 2673.32 134.945 2649.92 47.4476C2649.57 46.1563 2649.21 44.8728 2648.83 43.5973C2648.69 43.6362 2648.54 43.6754 2648.39 43.7148C2559.03 67.6227 2505.57 157.935 2528.98 245.432C2529.32 246.724 2529.68 248.007 2530.06 249.283C2530.2 249.244 2530.35 249.205 2530.5 249.165Z" fill="#A3E9FF"/>
<rect x="324.628" y="665.419" width="168" height="168" transform="rotate(-14.9782 324.628 665.419)" fill="#191818"/>
<path d="M406.033 644.675L431.943 694.012L469.77 653.091L453.205 706.298L508.889 704.111L459.552 730.021L500.473 767.848L447.265 751.283L449.453 806.967L423.543 757.63L385.715 798.551L402.28 745.343L346.597 747.531L395.934 721.621L355.013 683.793L408.22 700.359L406.033 644.675Z" fill="#FDACFF"/>
<rect x="2161.04" y="174.102" width="168" height="168" transform="rotate(-14.9782 2161.04 174.102)" fill="#FEF151"/>
<path d="M2242.44 153.353L2268.27 202.379L2306.14 161.628L2289.51 214.566L2345.17 212.308L2295.81 238.148L2336.66 275.707L2283.5 259.311L2285.61 314.684L2259.78 265.658L2221.91 306.409L2238.54 253.471L2182.88 255.728L2232.23 229.889L2191.39 192.33L2244.55 208.726L2242.44 153.353Z" fill="#FDACFF"/>
<rect x="486.92" y="621.999" width="168" height="168" transform="rotate(-14.9782 486.92 621.999)" fill="#A3E9FF"/>
<circle cx="589.776" cy="681.435" r="84" transform="rotate(-14.9782 589.776 681.435)" fill="white"/>
<rect x="649.212" y="578.579" width="168" height="168" transform="rotate(-14.9782 649.212 578.579)" fill="#FEF151"/>
<rect x="2324.3" y="130.424" width="168" height="168" transform="rotate(-14.9782 2324.3 130.424)" fill="#191818"/>
<path d="M2404.96 108.843C2426.61 103.051 2449.66 106.046 2469.04 117.168C2488.42 128.29 2502.54 146.629 2508.3 168.15C2514.06 189.671 2510.98 212.612 2499.74 231.926C2488.51 251.239 2470.03 265.343 2448.38 271.135L2426.67 189.989L2404.96 108.843Z" fill="#FDACFF"/>
<path d="M2322.85 130.811C2344.5 125.019 2367.55 128.013 2386.93 139.136C2406.31 150.258 2420.43 168.597 2426.19 190.118C2431.95 211.639 2428.87 234.58 2417.63 253.893C2406.39 273.207 2387.92 287.311 2366.27 293.103L2344.56 211.957L2322.85 130.811Z" fill="#FDACFF"/>
<path d="M722.729 581.144C721.934 580.001 721.014 578.921 719.97 577.922C711.522 569.842 698.124 570.139 690.044 578.586C681.963 587.033 682.26 600.431 690.707 608.511C691.752 609.51 692.872 610.382 694.049 611.125C692.904 613.566 691.919 616.062 691.095 618.598C689.749 618.362 688.36 618.253 686.942 618.285C675.255 618.544 665.992 628.228 666.251 639.914C666.51 651.601 676.194 660.864 687.88 660.605C689.134 660.577 690.359 660.441 691.548 660.206C692.436 662.752 693.488 665.254 694.701 667.694C693.776 668.386 692.896 669.163 692.071 670.026C683.991 678.472 684.288 691.871 692.735 699.951C701.182 708.032 714.58 707.734 722.661 699.287C723.303 698.616 723.893 697.913 724.429 697.184C727.042 698.459 729.722 699.547 732.448 700.45C732.356 701.332 732.319 702.23 732.339 703.141C732.598 714.827 742.282 724.091 753.968 723.832C765.655 723.573 774.919 713.889 774.66 702.203C774.644 701.481 774.592 700.77 774.506 700.069C777.336 699.076 780.109 697.881 782.805 696.486C783.235 696.981 783.692 697.461 784.175 697.924C792.622 706.004 806.02 705.707 814.101 697.26C822.181 688.813 821.884 675.415 813.437 667.334C812.954 666.872 812.455 666.437 811.941 666.03C813.199 663.311 814.258 660.524 815.119 657.691C815.803 657.742 816.494 657.761 817.194 657.745C828.88 657.486 838.144 647.802 837.885 636.116C837.626 624.429 827.942 615.166 816.256 615.425C815.391 615.444 814.539 615.515 813.704 615.634C812.674 612.919 811.457 610.261 810.053 607.679C810.757 607.11 811.433 606.49 812.075 605.819C820.156 597.372 819.859 583.974 811.411 575.893C802.964 567.813 789.566 568.11 781.486 576.557C780.661 577.419 779.924 578.333 779.274 579.287C776.758 578.172 774.188 577.226 771.579 576.446C771.749 575.288 771.824 574.099 771.797 572.89C771.538 561.203 761.854 551.939 750.168 552.198C738.481 552.458 729.217 562.142 729.476 573.828C729.507 575.224 729.672 576.586 729.96 577.901C727.499 578.828 725.083 579.909 722.729 581.144Z" fill="#FDACFF"/>
<path d="M1310.95 517.693L1296.27 462.823L1319.15 456.703C1321.57 456.055 1323.92 455.978 1326.21 456.471C1328.48 456.912 1330.59 457.783 1332.54 459.083C1334.47 460.332 1336.14 461.903 1337.53 463.794C1338.9 465.635 1339.88 467.637 1340.46 469.801C1341.26 472.789 1341.35 475.828 1340.74 478.917C1340.12 481.954 1338.83 484.647 1336.86 486.995C1334.88 489.291 1332.27 490.874 1329.02 491.742L1312.64 496.126L1317.91 515.833L1310.95 517.693ZM1310.98 489.943L1326.98 485.663C1328.89 485.153 1330.4 484.197 1331.51 482.794C1332.68 481.378 1333.41 479.69 1333.72 477.732C1334.07 475.76 1333.98 473.743 1333.42 471.682C1332.85 469.518 1331.87 467.71 1330.48 466.258C1329.09 464.755 1327.51 463.713 1325.75 463.134C1324 462.555 1322.22 462.507 1320.42 462.989L1304.88 467.145L1310.98 489.943ZM1370.15 465.004C1366.76 465.965 1363.98 467.647 1361.81 470.05C1359.68 472.388 1358.46 475.17 1358.16 478.396L1364.82 503.281L1358.02 505.101L1347.23 464.759L1353.57 463.064L1356.07 472.415C1356.71 469.261 1357.94 466.53 1359.76 464.224C1361.61 461.852 1363.76 460.225 1366.23 459.343C1366.75 459.205 1367.19 459.088 1367.55 458.992C1367.91 458.895 1368.22 458.838 1368.5 458.821L1370.15 465.004ZM1403.02 493.89C1399 494.965 1395.19 494.963 1391.59 493.884C1388.02 492.74 1384.97 490.823 1382.43 488.135C1379.88 485.396 1378.1 482.172 1377.11 478.462C1376.1 474.701 1376.03 471.022 1376.89 467.424C1377.79 463.761 1379.5 460.57 1382.03 457.85C1384.6 455.065 1387.86 453.142 1391.83 452.081C1395.85 451.006 1399.64 451.04 1403.21 452.185C1406.81 453.264 1409.88 455.173 1412.44 457.913C1415.03 460.587 1416.83 463.805 1417.84 467.566C1418.83 471.275 1418.88 474.961 1417.98 478.624C1417.12 482.222 1415.43 485.407 1412.92 488.178C1410.39 490.897 1407.09 492.801 1403.02 493.89ZM1384.09 476.678C1384.83 479.461 1386.1 481.827 1387.89 483.777C1389.73 485.713 1391.84 487.082 1394.21 487.884C1396.56 488.634 1398.97 488.679 1401.45 488.017C1403.92 487.355 1405.98 486.086 1407.63 484.209C1409.33 482.318 1410.48 480.08 1411.05 477.496C1411.67 474.847 1411.61 472.131 1410.86 469.349C1410.12 466.567 1408.82 464.208 1406.98 462.272C1405.19 460.322 1403.08 458.953 1400.66 458.165C1398.3 457.363 1395.88 457.293 1393.4 457.954C1390.93 458.616 1388.88 459.911 1387.24 461.84C1385.59 463.717 1384.45 465.954 1383.82 468.552C1383.24 471.136 1383.33 473.845 1384.09 476.678ZM1419.18 437.395L1416.9 428.894L1423.7 427.074L1425.98 435.575L1419.18 437.395ZM1430.12 501.214C1428.37 501.683 1426.63 501.873 1424.89 501.785C1423.16 501.697 1421.52 501.252 1419.98 500.449L1421.93 495.042C1422.83 495.519 1423.8 495.755 1424.85 495.751C1425.85 495.76 1426.81 495.641 1427.74 495.393C1429.39 494.952 1430.71 493.934 1431.72 492.339C1432.73 490.744 1432.98 488.993 1432.47 487.087L1421.2 444.968L1428 443.149L1439.15 484.804C1439.82 487.328 1439.83 489.728 1439.17 492.003C1438.52 494.329 1437.39 496.288 1435.77 497.88C1434.22 499.51 1432.34 500.621 1430.12 501.214ZM1467.85 476.544C1463.83 477.619 1460.02 477.617 1456.42 476.538C1452.82 475.459 1449.72 473.557 1447.11 470.831C1444.5 468.105 1442.7 464.862 1441.69 461.101C1440.67 457.288 1440.62 453.576 1441.53 449.965C1442.44 446.353 1444.19 443.181 1446.77 440.448C1449.4 437.7 1452.73 435.789 1456.74 434.714C1460.81 433.625 1464.61 433.66 1468.12 434.818C1471.67 435.911 1474.69 437.809 1477.18 440.51C1479.7 443.147 1481.45 446.268 1482.41 449.875C1482.72 451.008 1482.9 451.898 1482.96 452.544L1449.5 461.496C1450.41 464.069 1451.76 466.22 1453.55 467.95C1455.37 469.615 1457.45 470.771 1459.77 471.418C1462.09 472.014 1464.4 472.002 1466.72 471.382C1469.19 470.72 1471.35 469.482 1473.18 467.666C1475.06 465.837 1476.15 463.807 1476.44 461.577L1482.74 461.629C1482.25 464.962 1480.67 468.009 1477.98 470.77C1475.3 473.53 1471.92 475.455 1467.85 476.544ZM1448.01 456.844L1475.52 449.483C1474.61 446.911 1473.24 444.792 1471.42 443.128C1469.59 441.463 1467.52 440.333 1465.21 439.737C1462.9 439.141 1460.53 439.167 1458.11 439.815C1455.74 440.449 1453.7 441.601 1451.99 443.272C1450.29 444.943 1449.06 446.956 1448.31 449.31C1447.61 451.65 1447.51 454.161 1448.01 456.844ZM1513.51 464.328C1509.49 465.404 1505.68 465.402 1502.08 464.322C1498.47 463.192 1495.36 461.263 1492.75 458.538C1490.14 455.812 1488.34 452.569 1487.33 448.808C1486.31 444.995 1486.23 441.29 1487.09 437.692C1487.95 434.095 1489.68 430.955 1492.27 428.273C1494.85 425.54 1498.18 423.629 1502.25 422.54C1506.22 421.478 1509.91 421.456 1513.33 422.474C1516.79 423.426 1519.63 425.203 1521.88 427.806L1515.79 431.67C1514.25 430.04 1512.41 428.957 1510.28 428.423C1508.14 427.837 1505.93 427.848 1503.67 428.454C1501.19 429.116 1499.1 430.367 1497.38 432.206C1495.72 434.032 1494.6 436.236 1494.02 438.82C1493.42 441.353 1493.51 444.062 1494.29 446.947C1495.04 449.78 1496.33 452.198 1498.13 454.199C1499.97 456.136 1502.08 457.505 1504.45 458.307C1506.87 459.095 1509.31 459.158 1511.79 458.496C1513.38 458.069 1514.83 457.379 1516.12 456.426C1517.46 455.46 1518.55 454.368 1519.38 453.151C1520.25 451.869 1520.74 450.606 1520.85 449.363L1528.04 449.594C1527.64 452.847 1526.12 455.848 1523.49 458.595C1520.91 461.328 1517.58 463.239 1513.51 464.328ZM1558.57 449.291C1557.85 449.872 1556.67 450.739 1555.05 451.891C1553.47 453.03 1551.61 453.889 1549.44 454.467C1546.97 455.129 1544.65 455.031 1542.49 454.174C1540.31 453.266 1538.84 451.369 1538.07 448.484L1530.81 421.358L1525.32 422.826L1523.9 417.493L1529.38 416.025L1525.79 402.578L1532.59 400.759L1536.18 414.206L1545.23 411.787L1546.65 417.119L1537.61 419.538L1544.31 444.577C1544.8 445.992 1545.58 446.943 1546.65 447.43C1547.7 447.866 1548.82 447.925 1550.01 447.608C1551.35 447.25 1552.52 446.687 1553.53 445.92C1554.54 445.153 1555.2 444.618 1555.5 444.316L1558.57 449.291Z" fill="white"/>
</svg>
