<svg width="2903" height="611" viewBox="0 0 2903 611" fill="none" xmlns="http://www.w3.org/2000/svg">
<rect x="26" y="0.999023" width="2910" height="168" transform="rotate(8.75287 26 0.999023)" fill="#FEF151"/>
<rect x="2735.63" y="419.245" width="168" height="168" transform="rotate(8.75287 2735.63 419.245)" fill="#191818"/>
<path d="M2818.16 431.952C2840.31 435.362 2860.2 447.38 2873.47 465.361C2886.73 483.342 2892.28 505.813 2888.89 527.832C2885.5 549.851 2873.45 569.613 2855.39 582.771C2837.33 595.929 2814.74 601.406 2792.59 597.995L2805.38 514.974L2818.16 431.952Z" fill="#FDACFF"/>
<path d="M2734.15 419.017C2756.3 422.428 2776.19 434.445 2789.46 452.426C2802.72 470.407 2808.27 492.879 2804.88 514.898C2801.49 536.916 2789.44 556.679 2771.38 569.837C2753.32 582.995 2730.73 588.471 2708.58 585.061L2721.37 502.039L2734.15 419.017Z" fill="#FDACFF"/>
<rect x="689.738" y="104.247" width="168" height="168" transform="rotate(8.75287 689.738 104.247)" fill="#191818"/>
<path d="M772.266 116.954C794.416 120.364 814.312 132.382 827.577 150.363C840.842 168.344 846.39 190.815 843 212.834C839.61 234.853 827.559 254.615 809.5 267.773C791.441 280.931 768.851 286.408 746.701 282.997L759.484 199.976L772.266 116.954Z" fill="#FDACFF"/>
<path d="M688.256 104.019C710.406 107.43 730.301 119.447 743.566 137.428C756.832 155.409 762.379 177.881 758.989 199.9C755.599 221.918 743.549 241.68 725.489 254.839C707.43 267.997 684.841 273.473 662.691 270.063L675.473 187.041L688.256 104.019Z" fill="#FDACFF"/>
<rect x="523.901" y="77.7793" width="167.934" height="167.674" transform="rotate(8.75287 523.901 77.7793)" fill="#FEF151"/>
<rect width="118.763" height="118.763" transform="matrix(0.591112 0.80659 -0.806359 0.591427 606.828 90.4697)" fill="white"/>
<rect x="357.804" y="52.1289" width="168" height="168" transform="rotate(8.75287 357.804 52.1289)" fill="#A3E9FF"/>
<rect x="387.756" y="93.165" width="96" height="96" transform="rotate(8.75287 387.756 93.165)" fill="#FEF151"/>
<rect x="425.012" y="62.4766" width="32" height="168" transform="rotate(8.75287 425.012 62.4766)" fill="#FEF151"/>
<rect x="513.499" y="144.902" width="32" height="168" transform="rotate(98.7529 513.499 144.902)" fill="#FEF151"/>
<rect x="2235.68" y="341.257" width="168" height="168" transform="rotate(8.75287 2235.68 341.257)" fill="#A3E9FF"/>
<path fill-rule="evenodd" clip-rule="evenodd" d="M2316.96 494.502C2317.13 495.281 2317.26 496.079 2317.35 496.892C2318.58 508.487 2310.29 518.934 2298.83 520.226C2287.37 521.517 2277.08 513.165 2275.85 501.569C2275.36 496.976 2276.37 492.563 2278.47 488.828C2276.45 487.755 2274.5 486.565 2272.63 485.266C2269.32 490.355 2263.88 493.973 2257.43 494.699C2245.97 495.991 2235.69 487.638 2234.45 476.043C2233.35 465.619 2239.93 456.124 2249.6 453.373C2249.04 451.464 2248.57 449.511 2248.2 447.519C2247.42 447.697 2246.64 447.833 2245.83 447.923C2234.37 449.215 2224.08 440.862 2222.85 429.267C2221.62 417.672 2229.91 407.225 2241.37 405.934C2245.91 405.422 2250.27 406.424 2253.95 408.541C2254.88 406.744 2255.91 404.999 2257.02 403.312C2252.32 399.949 2249.01 394.634 2248.35 388.374C2247.11 376.779 2255.41 366.333 2266.87 365.041C2276.8 363.922 2285.85 370.045 2288.89 379.244C2291.14 378.548 2293.46 377.983 2295.83 377.558C2295.82 377.517 2295.82 377.475 2295.81 377.434C2294.58 365.839 2302.87 355.392 2314.33 354.101C2325.79 352.809 2336.08 361.162 2337.31 372.757C2337.76 376.929 2336.97 380.952 2335.24 384.453C2336.8 385.36 2338.32 386.338 2339.79 387.384C2343.14 382.662 2348.37 379.338 2354.52 378.645C2365.98 377.353 2376.27 385.706 2377.5 397.301C2378.6 407.659 2372.1 417.1 2362.53 419.918C2363.06 421.839 2363.49 423.804 2363.83 425.808C2364.58 425.638 2365.34 425.509 2366.12 425.421C2377.58 424.13 2387.87 432.482 2389.1 444.077C2390.33 455.672 2382.04 466.119 2370.58 467.411C2365.82 467.947 2361.26 466.819 2357.47 464.485C2356.51 466.253 2355.47 467.97 2354.35 469.628C2359.36 472.96 2362.91 478.453 2363.61 484.97C2364.84 496.565 2356.55 507.011 2345.09 508.303C2334.78 509.464 2325.43 502.831 2322.75 493.055C2320.86 493.631 2318.93 494.115 2316.96 494.502Z" fill="#FEF151"/>
<rect x="25.7173" y="0.999023" width="168" height="168" transform="rotate(8.75287 25.7173 0.999023)" fill="white"/>
<path fill-rule="evenodd" clip-rule="evenodd" d="M0.652008 167.12C92.0791 181.196 177.369 120.037 191.152 30.5176C191.355 29.1962 191.542 27.876 191.712 26.5572C191.562 26.5336 191.411 26.5103 191.261 26.4871C99.8336 12.4104 14.5439 73.5692 0.760926 163.089C0.557472 164.41 0.370735 165.731 0.200563 167.05C0.350967 167.073 0.501449 167.096 0.652008 167.12Z" fill="#FEF151"/>
<rect x="2401.72" y="366.822" width="168" height="168" transform="rotate(8.75287 2401.72 366.822)" fill="#FEF151"/>
<path fill-rule="evenodd" clip-rule="evenodd" d="M2376.65 532.943C2468.08 547.019 2553.37 485.86 2567.15 396.341C2567.36 395.019 2567.54 393.699 2567.71 392.38C2567.56 392.357 2567.41 392.333 2567.26 392.31C2475.84 378.234 2390.55 439.392 2376.76 528.912C2376.56 530.234 2376.37 531.554 2376.2 532.873C2376.35 532.896 2376.5 532.919 2376.65 532.943Z" fill="white"/>
<rect x="2069.64" y="315.694" width="168" height="167.998" transform="rotate(8.75287 2069.64 315.694)" fill="#191818"/>
<path d="M2152.65 328.475L2166.46 367.692L2207.62 361.83L2189.64 399.319L2222.89 424.278L2183.68 438.08L2189.54 479.239L2152.05 461.268L2127.09 494.517L2113.29 455.3L2072.13 461.162L2090.1 423.672L2056.85 398.713L2096.07 384.912L2090.21 343.753L2127.7 361.724L2152.65 328.475Z" fill="#FDACFF"/>
<rect x="2567.76" y="392.388" width="168" height="168" transform="rotate(8.75287 2567.76 392.388)" fill="#A3E9FF"/>
<rect x="2597.72" y="433.424" width="96" height="96" transform="rotate(8.75287 2597.72 433.424)" fill="#FDACFF"/>
<rect x="2634.97" y="402.735" width="32" height="168" transform="rotate(8.75287 2634.97 402.735)" fill="#FDACFF"/>
<rect x="2723.46" y="485.161" width="32" height="168" transform="rotate(98.7529 2723.46 485.161)" fill="#FDACFF"/>
<path d="M1286.31 308.161L1294.95 252.023L1318.36 255.626C1320.83 256.008 1323.02 256.884 1324.91 258.255C1326.81 259.573 1328.39 261.219 1329.66 263.194C1330.92 265.116 1331.81 267.223 1332.32 269.514C1332.84 271.752 1332.93 273.978 1332.59 276.192C1332.12 279.249 1330.99 282.069 1329.18 284.652C1327.39 287.182 1325.12 289.126 1322.38 290.484C1319.64 291.79 1316.61 292.187 1313.29 291.675L1296.53 289.095L1293.42 309.257L1286.31 308.161ZM1297.5 282.769L1313.87 285.289C1315.82 285.589 1317.59 285.322 1319.17 284.487C1320.81 283.66 1322.16 282.411 1323.23 280.741C1324.35 279.078 1325.07 277.193 1325.4 275.084C1325.74 272.87 1325.57 270.821 1324.89 268.935C1324.21 266.997 1323.19 265.409 1321.82 264.172C1320.44 262.935 1318.83 262.175 1316.99 261.891L1301.09 259.444L1297.5 282.769ZM1361.7 283.75C1358.22 283.267 1355 283.689 1352.04 285.014C1349.14 286.295 1346.91 288.353 1345.34 291.187L1341.42 316.647L1334.46 315.576L1340.82 274.302L1347.3 275.3L1345.83 284.868C1347.69 282.24 1349.92 280.235 1352.5 278.853C1355.15 277.426 1357.78 276.806 1360.4 276.993C1360.92 277.074 1361.37 277.143 1361.74 277.2C1362.11 277.257 1362.42 277.332 1362.68 277.425L1361.7 283.75ZM1380.17 323.422C1376.06 322.789 1372.57 321.254 1369.71 318.816C1366.9 316.335 1364.88 313.352 1363.64 309.869C1362.4 306.333 1362.08 302.667 1362.66 298.872C1363.25 295.024 1364.67 291.626 1366.9 288.678C1369.2 285.686 1372.05 283.454 1375.46 281.983C1378.93 280.467 1382.69 280.021 1386.75 280.646C1390.87 281.279 1394.32 282.836 1397.12 285.318C1399.99 287.756 1402.04 290.742 1403.27 294.278C1404.57 297.77 1404.92 301.439 1404.33 305.287C1403.74 309.083 1402.3 312.476 1400.01 315.469C1397.77 318.416 1394.95 320.652 1391.53 322.176C1388.12 323.648 1384.33 324.063 1380.17 323.422ZM1369.76 300.046C1369.33 302.893 1369.53 305.569 1370.39 308.075C1371.3 310.589 1372.67 312.69 1374.52 314.377C1376.37 316.011 1378.56 317.023 1381.09 317.413C1383.62 317.802 1386.02 317.47 1388.29 316.416C1390.61 315.37 1392.55 313.781 1394.12 311.648C1395.75 309.471 1396.79 306.959 1397.22 304.113C1397.66 301.266 1397.43 298.586 1396.52 296.072C1395.66 293.566 1394.29 291.465 1392.39 289.77C1390.55 288.083 1388.36 287.045 1385.83 286.655C1383.3 286.266 1380.9 286.624 1378.62 287.731C1376.35 288.785 1374.41 290.374 1372.79 292.499C1371.22 294.631 1370.21 297.147 1369.76 300.046ZM1417.7 278.206L1419.03 269.509L1425.99 270.58L1424.65 279.277L1417.7 278.206ZM1402.03 341.034C1400.24 340.758 1398.57 340.231 1397.01 339.452C1395.46 338.674 1394.14 337.607 1393.06 336.253L1397.02 332.087C1397.65 332.886 1398.44 333.494 1399.41 333.912C1400.31 334.321 1401.24 334.599 1402.19 334.745C1403.88 335.005 1405.5 334.608 1407.07 333.554C1408.63 332.5 1409.57 330.997 1409.87 329.047L1416.5 285.955L1423.46 287.026L1416.9 329.644C1416.5 332.227 1415.54 334.426 1414.02 336.243C1412.49 338.112 1410.67 339.45 1408.55 340.257C1406.47 341.124 1404.3 341.383 1402.03 341.034ZM1446.5 333.635C1442.39 333.002 1438.9 331.467 1436.04 329.03C1433.18 326.592 1431.1 323.601 1429.81 320.057C1428.52 316.513 1428.18 312.817 1428.77 308.969C1429.37 305.069 1430.81 301.648 1433.1 298.709C1435.39 295.769 1438.26 293.568 1441.72 292.105C1445.24 290.649 1449.05 290.238 1453.17 290.871C1457.33 291.512 1460.79 293.07 1463.54 295.544C1466.35 297.973 1468.35 300.925 1469.54 304.4C1470.79 307.831 1471.13 311.391 1470.56 315.081C1470.39 316.24 1470.2 317.128 1469.99 317.745L1435.76 312.473C1435.55 315.194 1435.92 317.706 1436.86 320.01C1437.86 322.268 1439.3 324.162 1441.17 325.691C1443.04 327.167 1445.17 328.088 1447.54 328.453C1450.07 328.843 1452.54 328.575 1454.95 327.651C1457.41 326.735 1459.22 325.314 1460.38 323.388L1466.14 325.974C1464.35 328.828 1461.67 330.979 1458.1 332.426C1454.53 333.873 1450.67 334.276 1446.5 333.635ZM1436.26 307.614L1464.41 311.948C1464.61 309.227 1464.21 306.737 1463.21 304.478C1462.21 302.22 1460.77 300.352 1458.89 298.876C1457.02 297.4 1454.84 296.471 1452.36 296.09C1449.94 295.716 1447.61 295.951 1445.37 296.794C1443.14 297.638 1441.21 298.986 1439.57 300.839C1437.99 302.7 1436.89 304.958 1436.26 307.614ZM1493.22 340.828C1489.1 340.195 1485.62 338.659 1482.75 336.222C1479.9 333.732 1477.83 330.715 1476.54 327.171C1475.25 323.627 1474.9 319.931 1475.5 316.083C1476.1 312.182 1477.51 308.758 1479.75 305.81C1481.98 302.863 1484.83 300.683 1488.28 299.273C1491.75 297.809 1495.56 297.398 1499.72 298.039C1503.78 298.664 1507.17 300.131 1509.89 302.438C1512.67 304.701 1514.57 307.475 1515.57 310.759L1508.44 311.847C1507.69 309.735 1506.44 308.005 1504.71 306.659C1502.98 305.259 1500.96 304.381 1498.64 304.024C1496.11 303.635 1493.69 303.937 1491.38 304.93C1489.12 305.931 1487.2 307.498 1485.64 309.631C1484.07 311.711 1483.07 314.227 1482.61 317.178C1482.16 320.078 1482.37 322.807 1483.21 325.365C1484.12 327.879 1485.5 329.98 1487.34 331.667C1489.24 333.362 1491.45 334.404 1493.98 334.794C1495.62 335.046 1497.22 334.995 1498.78 334.643C1500.4 334.298 1501.84 333.737 1503.09 332.958C1504.4 332.135 1505.36 331.176 1505.96 330.082L1512.44 333.184C1510.77 336.002 1508.17 338.139 1504.66 339.594C1501.19 341.058 1497.38 341.469 1493.22 340.828ZM1540.52 345.197C1539.62 345.436 1538.19 345.756 1536.24 346.157C1534.35 346.566 1532.29 346.601 1530.08 346.26C1527.55 345.87 1525.46 344.848 1523.83 343.194C1522.2 341.486 1521.62 339.157 1522.07 336.205L1526.35 308.452L1520.73 307.588L1521.57 302.132L1527.19 302.996L1529.3 289.238L1536.26 290.31L1534.14 304.067L1543.39 305.492L1542.55 310.948L1533.3 309.523L1529.36 335.141C1529.24 336.634 1529.57 337.818 1530.35 338.694C1531.14 339.517 1532.14 340.022 1533.35 340.208C1534.73 340.419 1536.03 340.377 1537.26 340.081C1538.49 339.785 1539.31 339.56 1539.71 339.406L1540.52 345.197Z" fill="#191818"/>
<rect x="191.762" y="26.5635" width="168" height="168" transform="rotate(8.75287 191.762 26.5635)" fill="#191818"/>
<path fill-rule="evenodd" clip-rule="evenodd" d="M273.041 179.809C273.214 180.588 273.345 181.386 273.432 182.199C274.664 193.794 266.373 204.241 254.912 205.532C243.452 206.824 233.163 198.471 231.931 186.876C231.443 182.283 232.449 177.87 234.555 174.135C232.537 173.062 230.585 171.872 228.71 170.573C225.399 175.662 219.959 179.28 213.518 180.006C202.058 181.297 191.769 172.945 190.536 161.35C189.429 150.926 196.017 141.431 205.686 138.68C205.124 136.771 204.653 134.818 204.278 132.826C203.507 133.004 202.719 133.139 201.915 133.23C190.455 134.522 180.165 126.169 178.933 114.574C177.701 102.979 185.992 92.5322 197.453 91.2406C201.992 90.729 206.348 91.7307 210.03 93.8478C210.968 92.0509 211.994 90.3055 213.104 88.6183C208.4 85.2559 205.095 79.941 204.43 73.681C203.197 62.0859 211.489 51.6393 222.949 50.3477C232.88 49.2285 241.931 55.3514 244.972 64.5507C247.225 63.8545 249.54 63.2893 251.909 62.8646C251.904 62.8234 251.9 62.7821 251.895 62.7408C250.663 51.1458 258.954 40.6991 270.414 39.4076C281.875 38.116 292.164 46.4686 293.396 58.0636C293.839 62.2354 293.05 66.2586 291.324 69.7601C292.887 70.6667 294.406 71.6448 295.877 72.6906C299.221 67.9685 304.454 64.6442 310.599 63.9517C322.059 62.6602 332.348 71.0128 333.58 82.6078C334.681 92.9653 328.182 102.406 318.614 105.224C319.142 107.146 319.578 109.111 319.917 111.114C320.663 110.945 321.425 110.815 322.202 110.728C333.662 109.436 343.951 117.789 345.183 129.384C346.415 140.979 338.124 151.426 326.664 152.717C321.903 153.254 317.343 152.126 313.552 149.792C312.595 151.56 311.552 153.277 310.428 154.935C315.443 158.267 318.996 163.759 319.689 170.276C320.921 181.871 312.63 192.318 301.17 193.61C290.867 194.771 281.511 188.138 278.831 178.362C276.943 178.938 275.011 179.422 273.041 179.809Z" fill="#FDACFF"/>
</svg>
