<svg width="2912" height="170" viewBox="0 0 2912 170" fill="none" xmlns="http://www.w3.org/2000/svg">
<rect x="1.19434" y="0.082077" width="2910" height="168" fill="#FEF151"/>
<rect x="2742.92" y="1.12511" width="168" height="168" fill="#FDACFF"/>
<path d="M2826.42 1.12509C2848.83 1.12509 2870.32 9.97506 2886.17 25.7281C2902.01 41.4812 2910.92 62.8469 2910.92 85.1251C2910.92 107.403 2902.01 128.769 2886.17 144.522C2870.32 160.275 2848.83 169.125 2826.42 169.125L2826.42 85.1251L2826.42 1.12509Z" fill="white"/>
<path d="M2741.42 1.12509C2763.83 1.12509 2785.32 9.97506 2801.17 25.7281C2817.01 41.4812 2825.92 62.8469 2825.92 85.1251C2825.92 107.403 2817.01 128.769 2801.17 144.522C2785.32 160.275 2763.83 169.125 2741.42 169.125L2741.42 85.1251L2741.42 1.12509Z" fill="white"/>
<rect x="672.915" y="1.12511" width="168" height="168" fill="#191818"/>
<path d="M756.415 1.12509C778.826 1.12509 800.319 9.97506 816.166 25.7281C832.012 41.4812 840.915 62.8469 840.915 85.1251C840.915 107.403 832.012 128.769 816.166 144.522C800.319 160.275 778.826 169.125 756.415 169.125L756.415 85.1251L756.415 1.12509Z" fill="#F6824C"/>
<path d="M671.415 1.12509C693.826 1.12509 715.319 9.97506 731.166 25.7281C747.012 41.4812 755.915 62.8469 755.915 85.1251C755.915 107.403 747.012 128.769 731.166 144.522C715.319 160.275 693.826 169.125 671.415 169.125L671.415 85.1251L671.415 1.12509Z" fill="#F6824C"/>
<rect x="504.981" y="0.201263" width="167.934" height="167.674" fill="#FEF151"/>
<rect width="118.763" height="118.763" transform="matrix(0.706968 0.707245 -0.706968 0.707245 588.873 0.125092)" fill="white"/>
<rect x="336.915" y="0.125092" width="168" height="168" fill="#F6824C"/>
<rect x="372.763" y="36.1252" width="96" height="96" fill="#FEF151"/>
<rect x="404.915" y="0.125092" width="32" height="168" fill="#FEF151"/>
<rect x="504.915" y="68.1253" width="32" height="168" transform="rotate(90 504.915 68.1253)" fill="#FEF151"/>
<rect x="2236.92" y="0.125092" width="168" height="168" fill="#191818"/>
<path fill-rule="evenodd" clip-rule="evenodd" d="M2340.57 139.217C2340.86 139.961 2341.11 140.729 2341.32 141.52C2344.3 152.792 2337.7 164.379 2326.57 167.399C2315.44 170.42 2304 163.73 2301.01 152.458C2299.83 147.992 2300.16 143.478 2301.67 139.466C2299.51 138.712 2297.4 137.833 2295.35 136.835C2292.85 142.368 2288.03 146.772 2281.77 148.469C2270.64 151.49 2259.2 144.8 2256.22 133.528C2253.54 123.394 2258.6 113.007 2267.74 108.817C2266.89 107.016 2266.13 105.157 2265.46 103.245C2264.72 103.538 2263.96 103.792 2263.18 104.004C2252.05 107.024 2240.61 100.335 2237.63 89.0623C2234.65 77.7899 2241.25 66.2031 2252.38 63.1827C2256.79 61.9862 2261.25 62.3134 2265.21 63.8456C2265.87 61.9269 2266.61 60.0457 2267.45 58.2092C2262.29 55.6018 2258.22 50.8517 2256.61 44.7659C2253.63 33.4934 2260.23 21.9066 2271.36 18.8862C2281.01 16.2688 2290.88 20.943 2295.29 29.5724C2297.41 28.5415 2299.61 27.6307 2301.89 26.8504C2301.88 26.8103 2301.87 26.7703 2301.86 26.7301C2298.87 15.4576 2305.48 3.87091 2316.61 0.850448C2327.74 -2.17 2339.18 4.51959 2342.16 15.7921C2343.23 19.8478 2343.07 23.9443 2341.89 27.6678C2343.58 28.3259 2345.23 29.0614 2346.84 29.8711C2349.43 24.6953 2354.09 20.6133 2360.06 18.9938C2371.19 15.9734 2382.63 22.663 2385.61 33.9355C2388.28 44.0049 2383.29 54.325 2374.26 58.5661C2375.08 60.3851 2375.81 62.2606 2376.45 64.1892C2377.16 63.9085 2377.89 63.6644 2378.65 63.4596C2389.78 60.4392 2401.22 67.1288 2404.2 78.4013C2407.18 89.6737 2400.58 101.26 2389.45 104.281C2384.82 105.536 2380.14 105.115 2376.04 103.385C2375.36 105.278 2374.6 107.133 2373.74 108.943C2379.2 111.473 2383.55 116.361 2385.22 122.697C2388.21 133.969 2381.6 145.556 2370.47 148.577C2360.47 151.292 2350.21 146.16 2346.07 136.906C2344.29 137.762 2342.46 138.535 2340.57 139.217Z" fill="#FEF151"/>
<rect x="0.915039" y="0.125092" width="168" height="168" fill="white"/>
<path fill-rule="evenodd" clip-rule="evenodd" d="M1.42073 168.125C93.9251 168.125 168.915 94.7 168.915 4.12527C168.915 2.78828 168.898 1.45503 168.866 0.125689C168.714 0.125291 168.561 0.125092 168.409 0.125092C75.9046 0.125092 0.915039 73.5504 0.915039 164.125C0.915039 165.462 0.931379 166.795 0.963874 168.125C1.11611 168.125 1.2684 168.125 1.42073 168.125Z" fill="#FEF151"/>
<rect x="2404.92" y="0.125092" width="168" height="168" fill="#FEF151"/>
<path fill-rule="evenodd" clip-rule="evenodd" d="M2405.42 168.125C2497.93 168.125 2572.91 94.6997 2572.91 4.12503C2572.91 2.78812 2572.9 1.45495 2572.87 0.125689C2572.71 0.125291 2572.56 0.125092 2572.41 0.125092C2479.9 0.125092 2404.92 73.5504 2404.92 164.125C2404.92 165.462 2404.93 166.795 2404.96 168.124C2405.12 168.125 2405.27 168.125 2405.42 168.125Z" fill="#FDACFF"/>
<rect x="2068.92" y="0.126801" width="168" height="167.998" fill="white"/>
<path d="M2152.92 0.125092L2172.52 36.7851L2212.31 24.7279L2200.25 64.5157L2236.92 84.1242L2200.25 103.733L2212.31 143.521L2172.52 131.463L2152.92 168.123L2133.31 131.463L2093.52 143.521L2105.58 103.733L2068.92 84.1242L2105.58 64.5157L2093.52 24.7279L2133.31 36.7851L2152.92 0.125092Z" fill="#F6824C"/>
<rect x="2572.92" y="0.125092" width="168" height="168" fill="#191818"/>
<rect x="2608.76" y="36.1252" width="96" height="96" fill="#F6824C"/>
<rect x="2640.92" y="0.125092" width="32" height="168" fill="#F6824C"/>
<rect x="2740.92" y="68.125" width="32" height="168" transform="rotate(90 2740.92 68.125)" fill="#F6824C"/>
<path d="M1310.85 55.0827H1316.93L1340.13 111.883H1332.45L1325.73 95.2427H1301.89L1295.25 111.883H1287.57L1310.85 55.0827ZM1324.13 89.6427L1313.89 63.4027L1303.33 89.6427H1324.13ZM1382.83 111.883H1375.79V88.5227C1375.79 84.096 1375.09 80.8693 1373.71 78.8427C1372.37 76.7627 1370.32 75.7227 1367.55 75.7227C1365.63 75.7227 1363.71 76.2027 1361.79 77.1627C1359.92 78.1227 1358.24 79.4293 1356.75 81.0827C1355.31 82.6827 1354.27 84.5493 1353.63 86.6827V111.883H1346.59V70.1227H1352.99V79.0827C1354.64 76.1493 1357.01 73.8027 1360.11 72.0427C1363.25 70.2827 1366.67 69.4027 1370.35 69.4027C1373.6 69.4027 1376.11 70.176 1377.87 71.7227C1379.68 73.216 1380.96 75.296 1381.71 77.9627C1382.45 80.576 1382.83 83.5627 1382.83 86.9227V111.883ZM1393.77 62.2827V53.4827H1400.81V62.2827H1393.77ZM1393.77 111.883V70.1227H1400.81V111.883H1393.77ZM1475.17 111.883H1468.13V88.5227C1468.13 84.1493 1467.41 80.9227 1465.97 78.8427C1464.59 76.7627 1462.51 75.7227 1459.73 75.7227C1456.91 75.7227 1454.35 76.7627 1452.05 78.8427C1449.76 80.8693 1448.13 83.5093 1447.17 86.7627V111.883H1440.13V88.5227C1440.13 84.096 1439.44 80.8693 1438.05 78.8427C1436.67 76.7627 1434.59 75.7227 1431.81 75.7227C1429.04 75.7227 1426.48 76.736 1424.13 78.7627C1421.84 80.736 1420.21 83.376 1419.25 86.6827V111.883H1412.21V70.1227H1418.61V79.0827C1420.32 75.9893 1422.53 73.616 1425.25 71.9627C1427.97 70.256 1431.04 69.4027 1434.45 69.4027C1437.92 69.4027 1440.69 70.3627 1442.77 72.2827C1444.85 74.1493 1446.13 76.576 1446.61 79.5627C1450.35 72.7893 1455.65 69.4027 1462.53 69.4027C1465.73 69.4027 1468.24 70.176 1470.05 71.7227C1471.92 73.216 1473.23 75.296 1473.97 77.9627C1474.77 80.576 1475.17 83.5627 1475.17 86.9227V111.883ZM1482.84 99.8027C1482.84 97.136 1483.59 94.8427 1485.08 92.9227C1486.63 90.9493 1488.73 89.4293 1491.4 88.3627C1494.07 87.296 1497.16 86.7627 1500.68 86.7627C1502.55 86.7627 1504.52 86.9227 1506.6 87.2427C1508.68 87.5093 1510.52 87.936 1512.12 88.5227V85.4827C1512.12 82.2827 1511.16 79.776 1509.24 77.9627C1507.32 76.096 1504.6 75.1627 1501.08 75.1627C1498.79 75.1627 1496.57 75.5893 1494.44 76.4427C1492.36 77.2427 1490.15 78.416 1487.8 79.9627L1485.24 75.0027C1487.96 73.136 1490.68 71.7493 1493.4 70.8427C1496.12 69.8827 1498.95 69.4027 1501.88 69.4027C1507.21 69.4027 1511.43 70.896 1514.52 73.8827C1517.61 76.816 1519.16 80.9227 1519.16 86.2027V103.883C1519.16 105.536 1519.91 106.389 1521.4 106.443V111.883C1520.71 111.989 1520.09 112.069 1519.56 112.123C1519.08 112.176 1518.68 112.203 1518.36 112.203C1516.71 112.203 1515.45 111.749 1514.6 110.843C1513.8 109.936 1513.35 108.976 1513.24 107.963L1513.08 105.323C1511.27 107.669 1508.89 109.483 1505.96 110.763C1503.03 112.043 1500.12 112.683 1497.24 112.683C1494.47 112.683 1491.99 112.123 1489.8 111.003C1487.61 109.829 1485.91 108.283 1484.68 106.363C1483.45 104.389 1482.84 102.203 1482.84 99.8027ZM1510.04 102.763C1510.68 102.016 1511.19 101.269 1511.56 100.523C1511.93 99.7227 1512.12 99.056 1512.12 98.5227V93.3227C1508.71 91.9893 1505.19 91.3227 1501.56 91.3227C1497.99 91.3227 1495.08 92.0427 1492.84 93.4827C1490.65 94.8693 1489.56 96.7893 1489.56 99.2427C1489.56 100.576 1489.91 101.883 1490.6 103.163C1491.35 104.389 1492.41 105.403 1493.8 106.203C1495.24 107.003 1497 107.403 1499.08 107.403C1501.27 107.403 1503.35 106.976 1505.32 106.123C1507.29 105.216 1508.87 104.096 1510.04 102.763ZM1551.7 109.803C1550.85 110.176 1549.49 110.709 1547.62 111.403C1545.81 112.096 1543.78 112.443 1541.54 112.443C1538.98 112.443 1536.77 111.749 1534.9 110.363C1533.04 108.923 1532.1 106.709 1532.1 103.723V75.6427H1526.42V70.1227H1532.1V56.2027H1539.14V70.1227H1548.5V75.6427H1539.14V101.563C1539.25 103.056 1539.76 104.176 1540.66 104.923C1541.57 105.616 1542.64 105.963 1543.86 105.963C1545.25 105.963 1546.53 105.723 1547.7 105.243C1548.88 104.763 1549.65 104.416 1550.02 104.203L1551.7 109.803ZM1558.23 62.2827V53.4827H1565.27V62.2827H1558.23ZM1558.23 111.883V70.1227H1565.27V111.883H1558.23ZM1594.91 112.683C1590.75 112.683 1587.07 111.696 1583.87 109.723C1580.72 107.696 1578.27 105.056 1576.51 101.803C1574.75 98.496 1573.87 94.9227 1573.87 91.0827C1573.87 87.1893 1574.75 83.616 1576.51 80.3627C1578.32 77.056 1580.8 74.416 1583.95 72.4427C1587.15 70.416 1590.8 69.4027 1594.91 69.4027C1599.07 69.4027 1602.72 70.416 1605.87 72.4427C1609.07 74.416 1611.55 77.056 1613.31 80.3627C1615.12 83.616 1616.03 87.1893 1616.03 91.0827C1616.03 94.9227 1615.12 98.496 1613.31 101.803C1611.55 105.056 1609.09 107.696 1605.95 109.723C1602.8 111.696 1599.12 112.683 1594.91 112.683ZM1581.07 91.1627C1581.07 94.0427 1581.68 96.656 1582.91 99.0027C1584.19 101.349 1585.87 103.216 1587.95 104.603C1590.03 105.936 1592.35 106.603 1594.91 106.603C1597.47 106.603 1599.79 105.909 1601.87 104.523C1604 103.136 1605.68 101.269 1606.91 98.9227C1608.19 96.5227 1608.83 93.8827 1608.83 91.0027C1608.83 88.1227 1608.19 85.5093 1606.91 83.1627C1605.68 80.816 1604 78.9493 1601.87 77.5627C1599.79 76.176 1597.47 75.4827 1594.91 75.4827C1592.35 75.4827 1590.03 76.2027 1587.95 77.6427C1585.87 79.0293 1584.19 80.896 1582.91 83.2427C1581.68 85.5893 1581.07 88.2293 1581.07 91.1627ZM1660.8 111.883H1653.76V88.5227C1653.76 84.096 1653.06 80.8693 1651.68 78.8427C1650.34 76.7627 1648.29 75.7227 1645.52 75.7227C1643.6 75.7227 1641.68 76.2027 1639.76 77.1627C1637.89 78.1227 1636.21 79.4293 1634.72 81.0827C1633.28 82.6827 1632.24 84.5493 1631.6 86.6827V111.883H1624.56V70.1227H1630.96V79.0827C1632.61 76.1493 1634.98 73.8027 1638.08 72.0427C1641.22 70.2827 1644.64 69.4027 1648.32 69.4027C1651.57 69.4027 1654.08 70.176 1655.84 71.7227C1657.65 73.216 1658.93 75.296 1659.68 77.9627C1660.42 80.576 1660.8 83.5627 1660.8 86.9227V111.883Z" fill="#191818"/>
<rect x="168.916" y="0.125092" width="168" height="168" fill="#191818"/>
<path fill-rule="evenodd" clip-rule="evenodd" d="M272.569 139.217C272.859 139.961 273.11 140.729 273.319 141.52C276.301 152.792 269.696 164.379 258.566 167.4C247.436 170.42 235.995 163.73 233.013 152.458C231.832 147.993 232.155 143.478 233.667 139.466C231.51 138.712 229.4 137.833 227.349 136.835C224.851 142.368 220.025 146.772 213.769 148.469C202.639 151.49 191.198 144.8 188.216 133.528C185.535 123.394 190.602 113.007 199.739 108.817C198.893 107.016 198.131 105.157 197.457 103.245C196.723 103.538 195.964 103.792 195.183 104.004C184.053 107.025 172.612 100.335 169.63 89.0625C166.648 77.79 173.253 66.2033 184.383 63.1829C188.792 61.9864 193.25 62.3136 197.211 63.8457C197.864 61.9271 198.613 60.0459 199.453 58.2094C194.292 55.602 190.217 50.8519 188.607 44.7661C185.624 33.4936 192.23 21.9068 203.36 18.8864C213.005 16.269 222.883 20.9432 227.288 29.5726C229.408 28.5417 231.61 27.6309 233.887 26.8506C233.876 26.8105 233.865 26.7705 233.855 26.7303C230.872 15.4578 237.478 3.87111 248.608 0.850647C259.738 -2.1698 271.178 4.51979 274.161 15.7923C275.234 19.848 275.065 23.9445 273.892 27.668C275.575 28.3261 277.226 29.0616 278.839 29.8713C281.425 24.6955 286.091 20.6135 292.059 18.994C303.189 15.9736 314.629 22.6632 317.612 33.9357C320.276 44.005 315.29 54.3252 306.262 58.5663C307.076 60.3852 307.805 62.2608 308.445 64.1894C309.157 63.9087 309.89 63.6646 310.645 63.4598C321.775 60.4393 333.215 67.1289 336.198 78.4014C339.18 89.6739 332.575 101.261 321.445 104.281C316.82 105.536 312.143 105.115 308.04 103.385C307.364 105.278 306.594 107.133 305.735 108.944C311.199 111.473 315.547 116.361 317.223 122.697C320.205 133.97 313.6 145.556 302.47 148.577C292.464 151.292 282.208 146.16 278.071 136.906C276.293 137.763 274.458 138.535 272.569 139.217Z" fill="#FDACFF"/>
</svg>
