<svg width="2912" height="169" viewBox="0 0 2912 169" fill="none" xmlns="http://www.w3.org/2000/svg">
<rect width="2910" height="168" fill="#191818"/>
<rect x="2575" y="3.05176e-05" width="168" height="168" fill="#FDACFF"/>
<path d="M2658.5 -3.69361e-06C2680.91 -4.67322e-06 2702.4 8.84997 2718.25 24.603C2734.1 40.3561 2743 61.7218 2743 84C2743 106.278 2734.1 127.644 2718.25 143.397C2702.4 159.15 2680.91 168 2658.5 168L2658.5 84L2658.5 -3.69361e-06Z" fill="white"/>
<path d="M2573.5 -3.69361e-06C2595.91 -4.67322e-06 2617.4 8.84997 2633.25 24.603C2649.1 40.3561 2658 61.7218 2658 84C2658 106.278 2649.1 127.644 2633.25 143.397C2617.4 159.15 2595.91 168 2573.5 168L2573.5 84L2573.5 -3.69361e-06Z" fill="white"/>
<rect x="2743.07" y="0.0761719" width="167.934" height="167.674" fill="#F6824C"/>
<rect width="118.763" height="118.763" transform="matrix(0.706968 0.707245 -0.706968 0.707245 2826.96 0)" fill="#191818"/>
<rect y="0.0430298" width="168" height="168" fill="white"/>
<rect x="35.8477" y="36.0431" width="96" height="96" fill="#FEF151"/>
<rect x="68" y="0.0430298" width="32" height="168" fill="#FEF151"/>
<rect x="168" y="68.0432" width="32" height="168" transform="rotate(90 168 68.0432)" fill="#FEF151"/>
<rect x="2070" width="168" height="168" fill="#FEACFF"/>
<path fill-rule="evenodd" clip-rule="evenodd" d="M2173.66 139.092C2173.94 139.836 2174.2 140.604 2174.4 141.395C2177.39 152.667 2170.78 164.254 2159.65 167.274C2148.52 170.295 2137.08 163.605 2134.1 152.333C2132.92 147.867 2133.24 143.353 2134.75 139.341C2132.6 138.587 2130.49 137.708 2128.43 136.71C2125.94 142.243 2121.11 146.647 2114.85 148.344C2103.72 151.365 2092.28 144.675 2089.3 133.403C2086.62 123.269 2091.69 112.881 2100.83 108.692C2099.98 106.89 2099.22 105.032 2098.54 103.12C2097.81 103.413 2097.05 103.667 2096.27 103.879C2085.14 106.899 2073.7 100.21 2070.72 88.9373C2067.73 77.6648 2074.34 66.078 2085.47 63.0576C2089.88 61.8611 2094.34 62.1883 2098.3 63.7205C2098.95 61.8018 2099.7 59.9206 2100.54 58.0841C2095.38 55.4767 2091.3 50.7266 2089.69 44.6408C2086.71 33.3683 2093.32 21.7816 2104.45 18.7611C2114.09 16.1437 2123.97 20.8179 2128.37 29.4473C2130.49 28.4165 2132.7 27.5056 2134.97 26.7253C2134.96 26.6853 2134.95 26.6452 2134.94 26.605C2131.96 15.3325 2138.56 3.74582 2149.69 0.725357C2160.82 -2.29509 2172.26 4.3945 2175.25 15.667C2176.32 19.7227 2176.15 23.8192 2174.98 27.5427C2176.66 28.2008 2178.31 28.9363 2179.92 29.746C2182.51 24.5702 2187.18 20.4882 2193.14 18.8687C2204.27 15.8483 2215.72 22.5379 2218.7 33.8104C2221.36 43.8798 2216.38 54.1999 2207.35 58.441C2208.16 60.26 2208.89 62.1355 2209.53 64.0641C2210.24 63.7834 2210.98 63.5393 2211.73 63.3345C2222.86 60.3141 2234.3 67.0037 2237.28 78.2762C2240.27 89.5487 2233.66 101.135 2222.53 104.156C2217.91 105.411 2213.23 104.99 2209.13 103.26C2208.45 105.153 2207.68 107.008 2206.82 108.818C2212.28 111.348 2216.63 116.236 2218.31 122.572C2221.29 133.844 2214.69 145.431 2203.56 148.452C2193.55 151.167 2183.29 146.035 2179.16 136.781C2177.38 137.637 2175.54 138.41 2173.66 139.092Z" fill="#191818"/>
<rect x="168" width="168" height="168" fill="#FEF151"/>
<path fill-rule="evenodd" clip-rule="evenodd" d="M168.506 168C261.01 168 336 94.5749 336 4.00018C336 2.66319 335.983 1.32994 335.951 0.000597103C335.799 0.000199118 335.646 0 335.494 0C242.99 0 168 73.4253 168 164C168 165.337 168.016 166.67 168.049 168C168.201 168 168.353 168 168.506 168Z" fill="#F6824C"/>
<rect x="2405.92" y="0.0430298" width="168" height="168" fill="#191818"/>
<path fill-rule="evenodd" clip-rule="evenodd" d="M2406.42 168.043C2498.93 168.043 2573.91 94.6177 2573.91 4.04297C2573.91 2.70606 2573.9 1.37288 2573.87 0.0436269C2573.71 0.0432289 2573.56 0.0430298 2573.41 0.0430298C2480.9 0.0430298 2405.92 73.4683 2405.92 164.043C2405.92 165.38 2405.93 166.713 2405.96 168.042C2406.12 168.043 2406.27 168.043 2406.42 168.043Z" fill="#F6824C"/>
<rect x="336.003" y="1.00171" width="168" height="167.998" fill="#191818"/>
<path d="M420 1L439.609 37.66L479.397 25.6028L467.34 65.3906L504 84.9991L467.34 104.608L479.397 144.396L439.609 132.338L420 168.998L400.391 132.338L360.603 144.396L372.66 104.608L336 84.9991L372.66 65.3906L360.603 25.6028L400.391 37.66L420 1Z" fill="#FDACFF"/>
<rect x="2238" width="168" height="168" fill="#FEF151"/>
<rect x="2273.85" y="36.0001" width="96" height="96" fill="#F6824C"/>
<rect x="2306" width="32" height="168" fill="#F6824C"/>
<rect x="2406" y="67.9999" width="32" height="168" transform="rotate(90 2406 67.9999)" fill="#F6824C"/>
<path d="M1287.08 55.2H1293.16L1316.36 112H1308.68L1301.96 95.36H1278.12L1271.48 112H1263.8L1287.08 55.2ZM1300.36 89.76L1290.12 63.52L1279.56 89.76H1300.36ZM1359.06 112H1352.02V88.64C1352.02 84.2133 1351.33 80.9867 1349.94 78.96C1348.61 76.88 1346.55 75.84 1343.78 75.84C1341.86 75.84 1339.94 76.32 1338.02 77.28C1336.15 78.24 1334.47 79.5467 1332.98 81.2C1331.54 82.8 1330.5 84.6667 1329.86 86.8V112H1322.82V70.24H1329.22V79.2C1330.87 76.2667 1333.25 73.92 1336.34 72.16C1339.49 70.4 1342.9 69.52 1346.58 69.52C1349.83 69.52 1352.34 70.2933 1354.1 71.84C1355.91 73.3333 1357.19 75.4133 1357.94 78.08C1358.69 80.6933 1359.06 83.68 1359.06 87.04V112ZM1370.01 62.4V53.6H1377.05V62.4H1370.01ZM1370.01 112V70.24H1377.05V112H1370.01ZM1451.41 112H1444.37V88.64C1444.37 84.2667 1443.65 81.04 1442.21 78.96C1440.82 76.88 1438.74 75.84 1435.97 75.84C1433.14 75.84 1430.58 76.88 1428.29 78.96C1425.99 80.9867 1424.37 83.6267 1423.41 86.88V112H1416.37V88.64C1416.37 84.2133 1415.67 80.9867 1414.29 78.96C1412.9 76.88 1410.82 75.84 1408.05 75.84C1405.27 75.84 1402.71 76.8533 1400.37 78.88C1398.07 80.8533 1396.45 83.4933 1395.49 86.8V112H1388.45V70.24H1394.85V79.2C1396.55 76.1067 1398.77 73.7333 1401.49 72.08C1404.21 70.3733 1407.27 69.52 1410.69 69.52C1414.15 69.52 1416.93 70.48 1419.01 72.4C1421.09 74.2667 1422.37 76.6933 1422.85 79.68C1426.58 72.9067 1431.89 69.52 1438.77 69.52C1441.97 69.52 1444.47 70.2933 1446.29 71.84C1448.15 73.3333 1449.46 75.4133 1450.21 78.08C1451.01 80.6933 1451.41 83.68 1451.41 87.04V112ZM1459.07 99.92C1459.07 97.2533 1459.82 94.96 1461.31 93.04C1462.86 91.0667 1464.97 89.5467 1467.63 88.48C1470.3 87.4133 1473.39 86.88 1476.91 86.88C1478.78 86.88 1480.75 87.04 1482.83 87.36C1484.91 87.6267 1486.75 88.0533 1488.35 88.64V85.6C1488.35 82.4 1487.39 79.8933 1485.47 78.08C1483.55 76.2133 1480.83 75.28 1477.31 75.28C1475.02 75.28 1472.81 75.7067 1470.67 76.56C1468.59 77.36 1466.38 78.5333 1464.03 80.08L1461.47 75.12C1464.19 73.2533 1466.91 71.8667 1469.63 70.96C1472.35 70 1475.18 69.52 1478.11 69.52C1483.45 69.52 1487.66 71.0133 1490.75 74C1493.85 76.9333 1495.39 81.04 1495.39 86.32V104C1495.39 105.653 1496.14 106.507 1497.63 106.56V112C1496.94 112.107 1496.33 112.187 1495.79 112.24C1495.31 112.293 1494.91 112.32 1494.59 112.32C1492.94 112.32 1491.69 111.867 1490.83 110.96C1490.03 110.053 1489.58 109.093 1489.47 108.08L1489.31 105.44C1487.5 107.787 1485.13 109.6 1482.19 110.88C1479.26 112.16 1476.35 112.8 1473.47 112.8C1470.7 112.8 1468.22 112.24 1466.03 111.12C1463.85 109.947 1462.14 108.4 1460.91 106.48C1459.69 104.507 1459.07 102.32 1459.07 99.92ZM1486.27 102.88C1486.91 102.133 1487.42 101.387 1487.79 100.64C1488.17 99.84 1488.35 99.1733 1488.35 98.64V93.44C1484.94 92.1067 1481.42 91.44 1477.79 91.44C1474.22 91.44 1471.31 92.16 1469.07 93.6C1466.89 94.9867 1465.79 96.9067 1465.79 99.36C1465.79 100.693 1466.14 102 1466.83 103.28C1467.58 104.507 1468.65 105.52 1470.03 106.32C1471.47 107.12 1473.23 107.52 1475.31 107.52C1477.5 107.52 1479.58 107.093 1481.55 106.24C1483.53 105.333 1485.1 104.213 1486.27 102.88ZM1527.94 109.92C1527.08 110.293 1525.72 110.827 1523.86 111.52C1522.04 112.213 1520.02 112.56 1517.78 112.56C1515.22 112.56 1513 111.867 1511.14 110.48C1509.27 109.04 1508.34 106.827 1508.34 103.84V75.76H1502.66V70.24H1508.34V56.32H1515.38V70.24H1524.74V75.76H1515.38V101.68C1515.48 103.173 1515.99 104.293 1516.9 105.04C1517.8 105.733 1518.87 106.08 1520.1 106.08C1521.48 106.08 1522.76 105.84 1523.94 105.36C1525.11 104.88 1525.88 104.533 1526.26 104.32L1527.94 109.92ZM1534.46 62.4V53.6H1541.5V62.4H1534.46ZM1534.46 112V70.24H1541.5V112H1534.46ZM1571.14 112.8C1566.98 112.8 1563.3 111.813 1560.1 109.84C1556.95 107.813 1554.5 105.173 1552.74 101.92C1550.98 98.6133 1550.1 95.04 1550.1 91.2C1550.1 87.3067 1550.98 83.7333 1552.74 80.48C1554.55 77.1733 1557.03 74.5333 1560.18 72.56C1563.38 70.5333 1567.03 69.52 1571.14 69.52C1575.3 69.52 1578.95 70.5333 1582.1 72.56C1585.3 74.5333 1587.78 77.1733 1589.54 80.48C1591.35 83.7333 1592.26 87.3067 1592.26 91.2C1592.26 95.04 1591.35 98.6133 1589.54 101.92C1587.78 105.173 1585.33 107.813 1582.18 109.84C1579.03 111.813 1575.35 112.8 1571.14 112.8ZM1557.3 91.28C1557.3 94.16 1557.91 96.7733 1559.14 99.12C1560.42 101.467 1562.1 103.333 1564.18 104.72C1566.26 106.053 1568.58 106.72 1571.14 106.72C1573.7 106.72 1576.02 106.027 1578.1 104.64C1580.23 103.253 1581.91 101.387 1583.14 99.04C1584.42 96.64 1585.06 94 1585.06 91.12C1585.06 88.24 1584.42 85.6267 1583.14 83.28C1581.91 80.9333 1580.23 79.0667 1578.1 77.68C1576.02 76.2933 1573.7 75.6 1571.14 75.6C1568.58 75.6 1566.26 76.32 1564.18 77.76C1562.1 79.1467 1560.42 81.0133 1559.14 83.36C1557.91 85.7067 1557.3 88.3467 1557.3 91.28ZM1637.03 112H1629.99V88.64C1629.99 84.2133 1629.3 80.9867 1627.91 78.96C1626.58 76.88 1624.52 75.84 1621.75 75.84C1619.83 75.84 1617.91 76.32 1615.99 77.28C1614.12 78.24 1612.44 79.5467 1610.95 81.2C1609.51 82.8 1608.47 84.6667 1607.83 86.8V112H1600.79V70.24H1607.19V79.2C1608.84 76.2667 1611.22 73.92 1614.31 72.16C1617.46 70.4 1620.87 69.52 1624.55 69.52C1627.8 69.52 1630.31 70.2933 1632.07 71.84C1633.88 73.3333 1635.16 75.4133 1635.91 78.08C1636.66 80.6933 1637.03 83.68 1637.03 87.04V112Z" fill="#F6824C"/>
<rect x="670.002" width="168" height="168" fill="#FEF151"/>
<path fill-rule="evenodd" clip-rule="evenodd" d="M773.655 139.092C773.945 139.836 774.196 140.604 774.405 141.395C777.387 152.667 770.782 164.254 759.652 167.275C748.522 170.295 737.081 163.605 734.099 152.333C732.918 147.867 733.241 143.353 734.753 139.341C732.596 138.587 730.486 137.708 728.435 136.71C725.937 142.243 721.111 146.647 714.855 148.344C703.725 151.365 692.284 144.675 689.302 133.403C686.621 123.269 691.688 112.882 700.825 108.692C699.979 106.891 699.217 105.032 698.543 103.12C697.809 103.413 697.05 103.667 696.269 103.879C685.139 106.9 673.698 100.21 670.716 88.9374C667.734 77.6649 674.339 66.0782 685.469 63.0578C689.878 61.8613 694.336 62.1885 698.297 63.7206C698.95 61.802 699.699 59.9208 700.539 58.0843C695.378 55.4769 691.303 50.7268 689.693 44.641C686.71 33.3685 693.315 21.7818 704.446 18.7613C714.091 16.1439 723.969 20.8181 728.374 29.4475C730.494 28.4167 732.696 27.5058 734.973 26.7255C734.962 26.6855 734.951 26.6454 734.941 26.6052C731.958 15.3327 738.564 3.74602 749.694 0.725556C760.824 -2.29489 772.264 4.3947 775.247 15.6672C776.32 19.7229 776.151 23.8194 774.978 27.5429C776.661 28.201 778.312 28.9365 779.925 29.7462C782.511 24.5704 787.177 20.4884 793.145 18.8689C804.275 15.8485 815.715 22.5381 818.698 33.8106C821.362 43.88 816.376 54.2001 807.348 58.4412C808.162 60.2601 808.891 62.1357 809.531 64.0643C810.243 63.7836 810.976 63.5395 811.731 63.3347C822.861 60.3143 834.301 67.0038 837.284 78.2763C840.266 89.5488 833.661 101.136 822.531 104.156C817.906 105.411 813.229 104.99 809.126 103.26C808.45 105.153 807.68 107.008 806.821 108.818C812.285 111.348 816.633 116.236 818.309 122.572C821.291 133.845 814.686 145.431 803.556 148.452C793.55 151.167 783.294 146.035 779.157 136.781C777.379 137.637 775.544 138.41 773.655 139.092Z" fill="#F6824C"/>
<rect x="502" width="168" height="168" fill="#F6824C"/>
<circle cx="586" cy="84" r="84" fill="white"/>
</svg>
