<svg width="2911" height="170" viewBox="0 0 2911 170" fill="none" xmlns="http://www.w3.org/2000/svg">
<rect x="0.46582" y="0.784073" width="2910" height="168" fill="#F6824C"/>
<rect x="504.31" y="0.795334" width="168" height="168" fill="#FDACFF"/>
<rect x="568.31" y="0.795334" width="40" height="168" fill="#FEF151"/>
<rect x="504.31" y="104.795" width="40" height="168" transform="rotate(-90 504.31 104.795)" fill="#FEF151"/>
<rect x="536.31" y="32.7953" width="105" height="105" fill="#FEF151"/>
<path d="M2069.31 0.795349H2237.31V168.795H2069.31V0.795349Z" fill="#191818"/>
<rect x="2133.31" y="0.795349" width="40" height="168" fill="#FEF151"/>
<rect x="2069.31" y="104.795" width="40" height="168" transform="rotate(-90 2069.31 104.795)" fill="#FEF151"/>
<rect x="2101.31" y="32.7953" width="105" height="105" fill="#FEF151"/>
<rect x="672.31" y="0.795334" width="168" height="168" fill="#191818"/>
<path fill-rule="evenodd" clip-rule="evenodd" d="M672.815 168.795C765.32 168.795 840.309 95.3698 840.309 4.79477C840.309 3.45803 840.293 2.12502 840.26 0.795931C840.108 0.795533 839.956 0.795334 839.804 0.795334C747.299 0.795334 672.31 74.2209 672.31 164.796C672.31 166.133 672.326 167.466 672.358 168.795C672.511 168.795 672.663 168.795 672.815 168.795Z" fill="#F6824C"/>
<rect x="2574.31" y="0.795349" width="168" height="168" fill="#FEF151"/>
<path fill-rule="evenodd" clip-rule="evenodd" d="M2574.82 168.795C2667.32 168.795 2742.31 95.3698 2742.31 4.79478C2742.31 3.45804 2742.29 2.12504 2742.26 0.795946C2742.11 0.795548 2741.96 0.795349 2741.8 0.795349C2649.3 0.795349 2574.31 74.2209 2574.31 164.796C2574.31 166.133 2574.33 167.466 2574.36 168.795C2574.51 168.795 2574.66 168.795 2574.82 168.795Z" fill="#191818"/>
<rect x="336.31" y="0.795349" width="168" height="168" fill="white"/>
<path d="M420.31 1.79535L432.588 56.1525L479.707 26.3984L449.952 73.5169L504.31 85.7953L449.952 98.0738L479.707 145.192L432.588 115.438L420.31 169.795L408.031 115.438L360.913 145.192L390.667 98.0738L336.31 85.7953L390.667 73.5169L360.913 26.3984L408.031 56.1525L420.31 1.79535Z" fill="#F6824C"/>
<rect x="2742.31" y="0.795349" width="168" height="168" fill="white"/>
<path d="M2826.31 1.79535L2838.59 56.1525L2885.71 26.3984L2855.95 73.5169L2910.31 85.7953L2855.95 98.0738L2885.71 145.192L2838.59 115.438L2826.31 169.795L2814.03 115.438L2766.91 145.192L2796.67 98.0738L2742.31 85.7953L2796.67 73.5169L2766.91 26.3984L2814.03 56.1525L2826.31 1.79535Z" fill="#F6824C"/>
<rect x="2237.31" y="0.795334" width="168" height="168" fill="#FEF151"/>
<path d="M2321.31 0.795334L2333.59 54.8309L2380.71 25.2528L2350.95 72.0925L2405.31 84.2983L2350.95 96.5041L2380.71 143.344L2333.59 113.766L2321.31 167.801L2309.03 113.766L2261.91 143.344L2291.67 96.5041L2237.31 84.2983L2291.67 72.0925L2261.91 25.2528L2309.03 54.8309L2321.31 0.795334Z" fill="#FDACFF"/>
<rect x="0.30957" y="0.795258" width="168" height="168" fill="#FEF151"/>
<circle cx="84.3096" cy="84.7953" r="84" fill="white"/>
<rect x="2406.31" y="0.795349" width="168" height="168" fill="#191818"/>
<path d="M2489.81 0.795223C2512.22 0.795222 2533.71 9.6452 2549.56 25.3982C2565.41 41.1513 2574.31 62.517 2574.31 84.7952C2574.31 107.073 2565.41 128.439 2549.56 144.192C2533.71 159.945 2512.22 168.795 2489.81 168.795L2489.81 84.7952L2489.81 0.795223Z" fill="#F6824C"/>
<path d="M2404.81 0.795223C2427.22 0.795222 2448.71 9.6452 2464.56 25.3982C2480.41 41.1513 2489.31 62.517 2489.31 84.7952C2489.31 107.073 2480.41 128.439 2464.56 144.192C2448.71 159.945 2427.22 168.795 2404.81 168.795L2404.81 84.7952L2404.81 0.795223Z" fill="#F6824C"/>
<rect x="168.31" y="0.795258" width="168" height="168" fill="#F6824C"/>
<path d="M238.666 22.2733C238.193 20.9644 237.583 19.6829 236.833 18.4479C230.761 8.45883 217.742 5.28304 207.753 11.3546C197.763 17.4262 194.588 30.446 200.659 40.435C201.41 41.6703 202.267 42.8013 203.212 43.8236C201.475 45.8856 199.879 48.0428 198.427 50.2797C197.188 49.7034 195.874 49.2394 194.496 48.9032C183.139 46.1331 171.687 53.0938 168.917 64.4503C166.147 75.8064 173.108 87.2583 184.464 90.0281C185.682 90.3253 186.901 90.5106 188.11 90.5903C188.311 93.2799 188.68 95.968 189.221 98.6391C188.149 99.0686 187.098 99.5919 186.078 100.212C176.089 106.283 172.913 119.303 178.985 129.292C185.057 139.281 198.077 142.457 208.066 136.385C208.86 135.903 209.611 135.376 210.317 134.811C212.512 136.717 214.82 138.461 217.22 140.038C216.903 140.867 216.635 141.724 216.419 142.61C213.649 153.966 220.609 165.418 231.966 168.187C243.323 170.958 254.775 163.997 257.544 152.641C257.716 151.94 257.849 151.239 257.947 150.54C260.938 150.312 263.926 149.874 266.89 149.224C267.178 149.813 267.495 150.395 267.842 150.966C273.914 160.955 286.934 164.131 296.923 158.059C306.912 151.988 310.088 138.968 304.016 128.979C303.669 128.408 303.299 127.859 302.908 127.333C304.826 125.031 306.569 122.612 308.134 120.098C308.78 120.325 309.444 120.521 310.123 120.687C321.48 123.457 332.932 116.496 335.702 105.14C338.472 93.7833 331.511 82.3319 320.155 79.5616C319.315 79.3568 318.474 79.2051 317.636 79.1044C317.343 76.2159 316.854 73.3332 316.165 70.4759C316.992 70.1087 317.805 69.6846 318.599 69.2021C328.588 63.1304 331.764 50.1109 325.692 40.1217C319.621 30.1326 306.601 26.957 296.612 33.0286C295.593 33.6481 294.644 34.3401 293.769 35.0938C291.627 33.3669 289.389 31.788 287.071 30.3611C287.534 29.2856 287.913 28.1571 288.2 26.9814C290.97 15.625 284.009 4.17311 272.653 1.40304C261.297 -1.36703 249.845 5.59368 247.075 16.9501C246.744 18.3068 246.552 19.6649 246.489 21.0094C243.872 21.2688 241.259 21.6889 238.666 22.2733Z" fill="#FEF151"/>
<path d="M1346.63 56.0111H1352.71L1375.91 112.811H1368.23L1361.51 96.1711H1337.67L1331.03 112.811H1323.35L1346.63 56.0111ZM1359.91 90.5711L1349.67 64.3311L1339.11 90.5711H1359.91ZM1418.61 112.811H1411.57V89.4511C1411.57 85.0244 1410.88 81.7977 1409.49 79.7711C1408.16 77.6911 1406.11 76.6511 1403.33 76.6511C1401.41 76.6511 1399.49 77.1311 1397.57 78.0911C1395.71 79.0511 1394.03 80.3577 1392.53 82.0111C1391.09 83.6111 1390.05 85.4777 1389.41 87.6111V112.811H1382.37V71.0511H1388.77V80.0111C1390.43 77.0777 1392.8 74.7311 1395.89 72.9711C1399.04 71.2111 1402.45 70.3311 1406.13 70.3311C1409.39 70.3311 1411.89 71.1044 1413.65 72.6511C1415.47 74.1444 1416.75 76.2244 1417.49 78.8911C1418.24 81.5044 1418.61 84.4911 1418.61 87.8511V112.811ZM1429.56 63.2111V54.4111H1436.6V63.2111H1429.56ZM1429.56 112.811V71.0511H1436.6V112.811H1429.56ZM1510.96 112.811H1503.92V89.4511C1503.92 85.0777 1503.2 81.8511 1501.76 79.7711C1500.37 77.6911 1498.29 76.6511 1495.52 76.6511C1492.69 76.6511 1490.13 77.6911 1487.84 79.7711C1485.54 81.7977 1483.92 84.4377 1482.96 87.6911V112.811H1475.92V89.4511C1475.92 85.0244 1475.22 81.7977 1473.84 79.7711C1472.45 77.6911 1470.37 76.6511 1467.6 76.6511C1464.82 76.6511 1462.26 77.6644 1459.92 79.6911C1457.62 81.6644 1456 84.3044 1455.04 87.6111V112.811H1448V71.0511H1454.4V80.0111C1456.1 76.9177 1458.32 74.5444 1461.04 72.8911C1463.76 71.1844 1466.82 70.3311 1470.24 70.3311C1473.7 70.3311 1476.48 71.2911 1478.56 73.2111C1480.64 75.0777 1481.92 77.5044 1482.4 80.4911C1486.13 73.7177 1491.44 70.3311 1498.32 70.3311C1501.52 70.3311 1504.02 71.1044 1505.84 72.6511C1507.7 74.1444 1509.01 76.2244 1509.76 78.8911C1510.56 81.5044 1510.96 84.4911 1510.96 87.8511V112.811ZM1518.62 100.731C1518.62 98.0644 1519.37 95.7711 1520.86 93.8511C1522.41 91.8777 1524.52 90.3577 1527.18 89.2911C1529.85 88.2244 1532.94 87.6911 1536.46 87.6911C1538.33 87.6911 1540.3 87.8511 1542.38 88.1711C1544.46 88.4377 1546.3 88.8644 1547.9 89.4511V86.4111C1547.9 83.2111 1546.94 80.7044 1545.02 78.8911C1543.1 77.0244 1540.38 76.0911 1536.86 76.0911C1534.57 76.0911 1532.36 76.5177 1530.22 77.3711C1528.14 78.1711 1525.93 79.3444 1523.58 80.8911L1521.02 75.9311C1523.74 74.0644 1526.46 72.6777 1529.18 71.7711C1531.9 70.8111 1534.73 70.3311 1537.66 70.3311C1543 70.3311 1547.21 71.8244 1550.3 74.8111C1553.4 77.7444 1554.94 81.8511 1554.94 87.1311V104.811C1554.94 106.464 1555.69 107.318 1557.18 107.371V112.811C1556.49 112.918 1555.88 112.998 1555.34 113.051C1554.86 113.104 1554.46 113.131 1554.14 113.131C1552.49 113.131 1551.24 112.678 1550.38 111.771C1549.58 110.864 1549.13 109.904 1549.02 108.891L1548.86 106.251C1547.05 108.598 1544.68 110.411 1541.74 111.691C1538.81 112.971 1535.9 113.611 1533.02 113.611C1530.25 113.611 1527.77 113.051 1525.58 111.931C1523.4 110.758 1521.69 109.211 1520.46 107.291C1519.24 105.318 1518.62 103.131 1518.62 100.731ZM1545.82 103.691C1546.46 102.944 1546.97 102.198 1547.34 101.451C1547.72 100.651 1547.9 99.9844 1547.9 99.4511V94.2511C1544.49 92.9177 1540.97 92.2511 1537.34 92.2511C1533.77 92.2511 1530.86 92.9711 1528.62 94.4111C1526.44 95.7977 1525.34 97.7177 1525.34 100.171C1525.34 101.504 1525.69 102.811 1526.38 104.091C1527.13 105.318 1528.2 106.331 1529.58 107.131C1531.02 107.931 1532.78 108.331 1534.86 108.331C1537.05 108.331 1539.13 107.904 1541.1 107.051C1543.08 106.144 1544.65 105.024 1545.82 103.691ZM1587.49 110.731C1586.63 111.104 1585.27 111.638 1583.41 112.331C1581.59 113.024 1579.57 113.371 1577.33 113.371C1574.77 113.371 1572.55 112.678 1570.69 111.291C1568.82 109.851 1567.89 107.638 1567.89 104.651V76.5711H1562.21V71.0511H1567.89V57.1311H1574.93V71.0511H1584.29V76.5711H1574.93V102.491C1575.03 103.984 1575.54 105.104 1576.45 105.851C1577.35 106.544 1578.42 106.891 1579.65 106.891C1581.03 106.891 1582.31 106.651 1583.49 106.171C1584.66 105.691 1585.43 105.344 1585.81 105.131L1587.49 110.731ZM1594.01 63.2111V54.4111H1601.05V63.2111H1594.01ZM1594.01 112.811V71.0511H1601.05V112.811H1594.01ZM1630.69 113.611C1626.53 113.611 1622.85 112.624 1619.65 110.651C1616.5 108.624 1614.05 105.984 1612.29 102.731C1610.53 99.4244 1609.65 95.8511 1609.65 92.0111C1609.65 88.1177 1610.53 84.5444 1612.29 81.2911C1614.1 77.9844 1616.58 75.3444 1619.73 73.3711C1622.93 71.3444 1626.58 70.3311 1630.69 70.3311C1634.85 70.3311 1638.5 71.3444 1641.65 73.3711C1644.85 75.3444 1647.33 77.9844 1649.09 81.2911C1650.9 84.5444 1651.81 88.1177 1651.81 92.0111C1651.81 95.8511 1650.9 99.4244 1649.09 102.731C1647.33 105.984 1644.88 108.624 1641.73 110.651C1638.58 112.624 1634.9 113.611 1630.69 113.611ZM1616.85 92.0911C1616.85 94.9711 1617.46 97.5844 1618.69 99.9311C1619.97 102.278 1621.65 104.144 1623.73 105.531C1625.81 106.864 1628.13 107.531 1630.69 107.531C1633.25 107.531 1635.57 106.838 1637.65 105.451C1639.78 104.064 1641.46 102.198 1642.69 99.8511C1643.97 97.4511 1644.61 94.8111 1644.61 91.9311C1644.61 89.0511 1643.97 86.4377 1642.69 84.0911C1641.46 81.7444 1639.78 79.8777 1637.65 78.4911C1635.57 77.1044 1633.25 76.4111 1630.69 76.4111C1628.13 76.4111 1625.81 77.1311 1623.73 78.5711C1621.65 79.9577 1619.97 81.8244 1618.69 84.1711C1617.46 86.5177 1616.85 89.1577 1616.85 92.0911ZM1696.58 112.811H1689.54V89.4511C1689.54 85.0244 1688.85 81.7977 1687.46 79.7711C1686.13 77.6911 1684.07 76.6511 1681.3 76.6511C1679.38 76.6511 1677.46 77.1311 1675.54 78.0911C1673.67 79.0511 1671.99 80.3577 1670.5 82.0111C1669.06 83.6111 1668.02 85.4777 1667.38 87.6111V112.811H1660.34V71.0511H1666.74V80.0111C1668.39 77.0777 1670.77 74.7311 1673.86 72.9711C1677.01 71.2111 1680.42 70.3311 1684.1 70.3311C1687.35 70.3311 1689.86 71.1044 1691.62 72.6511C1693.43 74.1444 1694.71 76.2244 1695.46 78.8911C1696.21 81.5044 1696.58 84.4911 1696.58 87.8511V112.811Z" fill="white"/>
</svg>
