<svg width="396" height="396" viewBox="0 0 396 396" fill="none" xmlns="http://www.w3.org/2000/svg">
<path d="M165.839 50.6267C164.725 47.5415 163.289 44.521 161.52 41.6097C147.208 18.0641 116.519 10.5783 92.9727 24.8899C69.427 39.2016 61.9412 69.891 76.2527 93.4366C78.0226 96.3483 80.0428 99.0143 82.269 101.424C78.1746 106.284 74.4125 111.369 70.9912 116.642C68.07 115.283 64.9736 114.19 61.7246 113.397C34.9558 106.868 7.96213 123.275 1.43264 150.044C-5.09685 176.812 11.3105 203.806 38.0793 210.335C40.9499 211.035 43.8232 211.472 46.6734 211.66C47.1454 218 48.0153 224.336 49.2921 230.632C46.7649 231.644 44.287 232.878 41.8837 234.34C18.3379 248.65 10.852 279.34 25.1637 302.885C39.4754 326.432 70.1651 333.917 93.7108 319.605C95.5825 318.468 97.3526 317.227 99.0184 315.894C104.192 320.388 109.631 324.499 115.29 328.214C114.542 330.168 113.909 332.19 113.401 334.277C106.871 361.045 123.278 388.038 150.047 394.567C176.816 401.097 203.81 384.69 210.339 357.922C210.743 356.27 211.058 354.618 211.288 352.969C218.338 352.432 225.381 351.401 232.369 349.867C233.047 351.256 233.794 352.628 234.613 353.975C248.925 377.52 279.615 385.006 303.16 370.694C326.705 356.382 334.192 325.693 319.88 302.147C319.061 300.801 318.19 299.507 317.268 298.266C321.788 292.842 325.898 287.14 329.585 281.215C331.11 281.748 332.674 282.211 334.275 282.602C361.044 289.131 388.038 272.724 394.567 245.955C401.097 219.186 384.69 192.194 357.922 185.664C355.94 185.181 353.958 184.823 351.983 184.586C351.293 177.777 350.141 170.982 348.516 164.247C350.466 163.382 352.382 162.382 354.254 161.245C377.799 146.933 385.286 116.244 370.974 92.6979C356.662 69.1523 325.973 61.6669 302.426 75.9785C300.024 77.4389 297.788 79.0699 295.727 80.8466C290.678 76.7759 285.402 73.0543 279.937 69.6909C281.028 67.1559 281.923 64.4957 282.599 61.7244C289.129 34.9558 272.721 7.96208 245.953 1.43263C219.184 -5.09682 192.19 11.3106 185.661 38.0792C184.88 41.2772 184.428 44.4784 184.281 47.6476C178.112 48.2591 171.953 49.2493 165.839 50.6267Z" fill="#F6824C"/>
</svg>
