<svg width="2910" height="170" viewBox="0 0 2910 170" fill="none" xmlns="http://www.w3.org/2000/svg">
<rect y="0.999634" width="2910" height="168" fill="#FF7777"/>
<rect x="504" y="0.795044" width="168" height="168" fill="#FDACFF"/>
<rect x="568" y="0.795044" width="40" height="168" fill="#FEF151"/>
<rect x="504" y="104.795" width="40" height="168" transform="rotate(-90 504 104.795)" fill="#FEF151"/>
<rect x="536" y="32.795" width="105" height="105" fill="#FEF151"/>
<path d="M2069 0.795044H2237V168.795H2069V0.795044Z" fill="#2971F6"/>
<rect x="2133" y="0.795044" width="40" height="168" fill="#FEF151"/>
<rect x="2069" y="104.795" width="40" height="168" transform="rotate(-90 2069 104.795)" fill="#FEF151"/>
<rect x="2101" y="32.795" width="105" height="105" fill="#FEF151"/>
<rect x="672" y="0.795044" width="168" height="168" fill="#2971F6"/>
<path fill-rule="evenodd" clip-rule="evenodd" d="M672.506 168.795C765.01 168.795 840 95.3695 840 4.79448C840 3.45774 839.983 2.12473 839.951 0.795641C839.799 0.795243 839.646 0.795044 839.494 0.795044C746.99 0.795044 672 74.2206 672 164.796C672 166.132 672.016 167.465 672.049 168.794C672.201 168.795 672.353 168.795 672.506 168.795Z" fill="#FF7777"/>
<rect x="2574" y="0.795044" width="168" height="168" fill="#FEF151"/>
<path fill-rule="evenodd" clip-rule="evenodd" d="M2574.51 168.795C2667.01 168.795 2742 95.3695 2742 4.79448C2742 3.45774 2741.98 2.12473 2741.95 0.795641C2741.8 0.795243 2741.65 0.795044 2741.49 0.795044C2648.99 0.795044 2574 74.2206 2574 164.796C2574 166.132 2574.02 167.465 2574.05 168.794C2574.2 168.795 2574.35 168.795 2574.51 168.795Z" fill="#2971F6"/>
<rect x="336" y="0.795044" width="168" height="168" fill="white"/>
<path d="M420 1.79504L432.278 56.1522L479.397 26.3981L449.643 73.5166L504 85.795L449.643 98.0735L479.397 145.192L432.278 115.438L420 169.795L407.722 115.438L360.603 145.192L390.357 98.0735L336 85.795L390.357 73.5166L360.603 26.3981L407.722 56.1522L420 1.79504Z" fill="#FF7777"/>
<rect x="2742" y="0.795044" width="168" height="168" fill="white"/>
<path d="M2826 1.79504L2838.28 56.1522L2885.4 26.3981L2855.64 73.5166L2910 85.795L2855.64 98.0735L2885.4 145.192L2838.28 115.438L2826 169.795L2813.72 115.438L2766.6 145.192L2796.36 98.0735L2742 85.795L2796.36 73.5166L2766.6 26.3981L2813.72 56.1522L2826 1.79504Z" fill="#FF7777"/>
<rect x="2237" y="0.795044" width="168" height="168" fill="#FEF151"/>
<path d="M2321 0.795044L2333.28 54.8306L2380.4 25.2525L2350.64 72.0922L2405 84.298L2350.64 96.5038L2380.4 143.344L2333.28 113.765L2321 167.801L2308.72 113.765L2261.6 143.344L2291.36 96.5038L2237 84.298L2291.36 72.0922L2261.6 25.2525L2308.72 54.8306L2321 0.795044Z" fill="#FDACFF"/>
<rect y="0.794922" width="168" height="168" fill="#FEF151"/>
<circle cx="84" cy="84.7949" r="84" fill="white"/>
<rect x="2406" y="0.795044" width="168" height="168" fill="#2971F6"/>
<path d="M2489.5 0.794918C2511.91 0.794917 2533.4 9.64489 2549.25 25.3979C2565.1 41.151 2574 62.5167 2574 84.7949C2574 107.073 2565.1 128.439 2549.25 144.192C2533.4 159.945 2511.91 168.795 2489.5 168.795L2489.5 84.7949L2489.5 0.794918Z" fill="#FF7777"/>
<path d="M2404.5 0.794918C2426.91 0.794917 2448.4 9.64489 2464.25 25.3979C2480.1 41.151 2489 62.5167 2489 84.7949C2489 107.073 2480.1 128.439 2464.25 144.192C2448.4 159.945 2426.91 168.795 2404.5 168.795L2404.5 84.7949L2404.5 0.794918Z" fill="#FF7777"/>
<rect x="168" y="0.794922" width="168" height="168" fill="#FF7777"/>
<path d="M238.356 22.2729C237.883 20.964 237.274 19.6826 236.523 18.4475C230.452 8.4585 217.432 5.2827 207.443 11.3543C197.454 17.4259 194.278 30.4456 200.35 40.4347C201.1 41.6699 201.958 42.801 202.902 43.8233C201.165 45.8853 199.569 48.0424 198.117 50.2794C196.878 49.703 195.565 49.239 194.186 48.9029C182.83 46.1328 171.378 53.0935 168.608 64.45C165.838 75.8061 172.798 87.2579 184.155 90.0278C185.373 90.3249 186.592 90.5102 187.801 90.59C188.001 93.2796 188.37 95.9677 188.912 98.6388C187.84 99.0683 186.788 99.5916 185.769 100.212C175.78 106.283 172.604 119.303 178.675 129.292C184.747 139.281 197.767 142.457 207.756 136.385C208.55 135.902 209.301 135.376 210.008 134.81C212.203 136.717 214.51 138.461 216.911 140.037C216.594 140.866 216.325 141.724 216.109 142.609C213.339 153.965 220.3 165.417 231.656 168.187C243.013 170.957 254.465 163.997 257.235 152.641C257.406 151.94 257.54 151.239 257.638 150.539C260.628 150.311 263.616 149.874 266.581 149.223C266.868 149.813 267.185 150.394 267.533 150.966C273.604 160.955 286.624 164.131 296.613 158.059C306.602 151.987 309.778 138.968 303.706 128.979C303.359 128.408 302.99 127.858 302.599 127.332C304.516 125.031 306.26 122.612 307.824 120.098C308.471 120.324 309.134 120.521 309.814 120.687C321.17 123.456 332.622 116.496 335.392 105.14C338.162 93.783 331.202 82.3316 319.845 79.5613C319.005 79.3565 318.164 79.2048 317.326 79.1041C317.033 76.2156 316.545 73.3329 315.855 70.4755C316.683 70.1083 317.495 69.6842 318.29 69.2018C328.279 63.13 331.455 50.1106 325.383 40.1213C319.311 30.1323 306.291 26.9566 296.302 33.0282C295.283 33.6478 294.334 34.3397 293.46 35.0935C291.318 33.3665 289.08 31.7877 286.761 30.3608C287.224 29.2853 287.604 28.1567 287.89 26.981C290.661 15.6246 283.7 4.17277 272.344 1.4027C260.987 -1.36737 249.535 5.59334 246.765 16.9497C246.434 18.3064 246.242 19.6646 246.18 21.0091C243.563 21.2685 240.95 21.6886 238.356 22.2729Z" fill="#FEF151"/>
<path d="M1386.16 68.1196C1384.83 66.6263 1382.77 65.2663 1380 64.0396C1377.23 62.813 1374.13 62.1996 1370.72 62.1996C1366.35 62.1996 1363.12 63.0263 1361.04 64.6796C1358.96 66.333 1357.92 68.5996 1357.92 71.4796C1357.92 73.5063 1358.45 75.1063 1359.52 76.2796C1360.59 77.453 1362.21 78.413 1364.4 79.1596C1366.64 79.9063 1369.47 80.6796 1372.88 81.4796C1376.83 82.333 1380.24 83.373 1383.12 84.5996C1386 85.8263 1388.21 87.4796 1389.76 89.5596C1391.31 91.5863 1392.08 94.3063 1392.08 97.7196C1392.08 101.346 1391.17 104.333 1389.36 106.68C1387.55 109.026 1385.07 110.76 1381.92 111.88C1378.83 113 1375.33 113.56 1371.44 113.56C1362.59 113.56 1354.88 110.893 1348.32 105.56L1351.76 99.4796C1352.93 100.653 1354.51 101.826 1356.48 103C1358.51 104.173 1360.8 105.16 1363.36 105.96C1365.97 106.706 1368.72 107.08 1371.6 107.08C1375.65 107.08 1378.8 106.36 1381.04 104.92C1383.28 103.426 1384.4 101.266 1384.4 98.4396C1384.4 96.3063 1383.76 94.5996 1382.48 93.3196C1381.25 92.0396 1379.41 90.973 1376.96 90.1196C1374.51 89.2663 1371.52 88.413 1368 87.5596C1364.16 86.5996 1360.93 85.5596 1358.32 84.4396C1355.71 83.2663 1353.73 81.7463 1352.4 79.8796C1351.12 78.013 1350.48 75.5863 1350.48 72.5996C1350.48 68.973 1351.36 65.9063 1353.12 63.3996C1354.88 60.893 1357.31 58.9996 1360.4 57.7196C1363.49 56.4396 1366.99 55.7996 1370.88 55.7996C1374.67 55.7996 1378.11 56.3863 1381.2 57.5596C1384.35 58.733 1387.12 60.3063 1389.52 62.2796L1386.16 68.1196ZM1418.91 113.8C1414.75 113.8 1411.07 112.813 1407.87 110.84C1404.67 108.813 1402.16 106.146 1400.35 102.84C1398.54 99.533 1397.63 95.933 1397.63 92.0396C1397.63 88.093 1398.51 84.493 1400.27 81.2396C1402.03 77.9863 1404.51 75.3996 1407.71 73.4796C1410.91 71.5063 1414.62 70.5196 1418.83 70.5196C1422.94 70.5196 1426.51 71.453 1429.55 73.3196C1432.64 75.133 1434.94 77.5863 1436.43 80.6796L1429.55 82.8396C1428.48 80.8663 1426.99 79.3463 1425.07 78.2796C1423.15 77.1596 1421.02 76.5996 1418.67 76.5996C1416.11 76.5996 1413.76 77.2663 1411.63 78.5996C1409.55 79.933 1407.9 81.773 1406.67 84.1196C1405.44 86.413 1404.83 89.053 1404.83 92.0396C1404.83 94.973 1405.44 97.6396 1406.67 100.04C1407.95 102.386 1409.63 104.253 1411.71 105.64C1413.84 107.026 1416.19 107.72 1418.75 107.72C1420.4 107.72 1421.98 107.426 1423.47 106.84C1425.02 106.253 1426.35 105.48 1427.47 104.52C1428.64 103.506 1429.44 102.413 1429.87 101.24L1436.75 103.32C1435.52 106.36 1433.28 108.866 1430.03 110.84C1426.83 112.813 1423.12 113.8 1418.91 113.8ZM1466.81 77.3996C1463.29 77.453 1460.17 78.3596 1457.45 80.1196C1454.78 81.8263 1452.89 84.1996 1451.77 87.2396V113H1444.73V71.2396H1451.29V80.9196C1452.73 78.0396 1454.62 75.7196 1456.97 73.9596C1459.37 72.1463 1461.87 71.133 1464.49 70.9196C1465.02 70.9196 1465.47 70.9196 1465.85 70.9196C1466.22 70.9196 1466.54 70.9463 1466.81 70.9996V77.3996ZM1473.79 63.3996V54.5996H1480.83V63.3996H1473.79ZM1473.79 113V71.2396H1480.83V113H1473.79ZM1514.71 113.8C1511.29 113.8 1508.25 112.946 1505.59 111.24C1502.92 109.533 1500.81 107.373 1499.27 104.76V130.04H1492.23V71.2396H1498.47V79.0796C1500.12 76.5196 1502.28 74.4663 1504.95 72.9196C1507.61 71.3196 1510.52 70.5196 1513.67 70.5196C1516.55 70.5196 1519.19 71.1063 1521.59 72.2796C1523.99 73.453 1526.07 75.053 1527.83 77.0796C1529.59 79.1063 1530.95 81.4263 1531.91 84.0396C1532.92 86.5996 1533.43 89.293 1533.43 92.1196C1533.43 96.0663 1532.63 99.693 1531.03 103C1529.48 106.306 1527.29 108.946 1524.47 110.92C1521.64 112.84 1518.39 113.8 1514.71 113.8ZM1512.55 107.72C1515.32 107.72 1517.72 106.973 1519.75 105.48C1521.77 103.986 1523.35 102.04 1524.47 99.6396C1525.64 97.2396 1526.23 94.733 1526.23 92.1196C1526.23 89.293 1525.59 86.7063 1524.31 84.3596C1523.08 82.013 1521.37 80.1463 1519.19 78.7596C1517.05 77.3196 1514.63 76.5996 1511.91 76.5996C1510.25 76.5996 1508.49 77.0263 1506.63 77.8796C1504.81 78.733 1503.21 79.8796 1501.83 81.3196C1500.49 82.7063 1499.64 84.253 1499.27 85.9596V97.8796C1500.44 100.653 1502.23 103 1504.63 104.92C1507.08 106.786 1509.72 107.72 1512.55 107.72ZM1563.05 110.92C1562.19 111.293 1560.83 111.826 1558.97 112.52C1557.15 113.213 1555.13 113.56 1552.89 113.56C1550.33 113.56 1548.11 112.866 1546.25 111.48C1544.38 110.04 1543.45 107.826 1543.45 104.84V76.7596H1537.77V71.2396H1543.45V57.3196H1550.49V71.2396H1559.85V76.7596H1550.49V102.68C1550.59 104.173 1551.1 105.293 1552.01 106.04C1552.91 106.733 1553.98 107.08 1555.21 107.08C1556.59 107.08 1557.87 106.84 1559.05 106.36C1560.22 105.88 1560.99 105.533 1561.37 105.32L1563.05 110.92Z" fill="#FEF151"/>
</svg>
