<svg width="2910" height="169" viewBox="0 0 2910 169" fill="none" xmlns="http://www.w3.org/2000/svg">
<rect width="2910" height="168" fill="#FEF151"/>
<rect x="2742" y="1" width="168" height="168" fill="#FDACFF"/>
<path d="M2825.5 0.999996C2847.91 0.999995 2869.4 9.84997 2885.25 25.603C2901.1 41.3561 2910 62.7218 2910 85C2910 107.278 2901.1 128.644 2885.25 144.397C2869.4 160.15 2847.91 169 2825.5 169L2825.5 85L2825.5 0.999996Z" fill="white"/>
<path d="M2740.5 0.999996C2762.91 0.999995 2784.4 9.84997 2800.25 25.603C2816.1 41.3561 2825 62.7218 2825 85C2825 107.278 2816.1 128.644 2800.25 144.397C2784.4 160.15 2762.91 169 2740.5 169L2740.5 85L2740.5 0.999996Z" fill="white"/>
<rect x="505" y="1" width="168" height="168" fill="#2971F6"/>
<path d="M588.5 0.999996C610.911 0.999995 632.404 9.84997 648.251 25.603C664.097 41.3561 673 62.7218 673 85C673 107.278 664.097 128.644 648.251 144.397C632.404 160.15 610.911 169 588.5 169L588.5 85L588.5 0.999996Z" fill="#FF7777"/>
<path d="M503.5 0.999996C525.911 0.999995 547.404 9.84997 563.251 25.603C579.097 41.3561 588 62.7218 588 85C588 107.278 579.097 128.644 563.251 144.397C547.404 160.15 525.911 169 503.5 169L503.5 85L503.5 0.999996Z" fill="#FF7777"/>
<rect x="336.07" y="0.0761719" width="167.934" height="167.674" fill="#FEF151"/>
<rect width="118.763" height="118.763" transform="matrix(0.706968 0.707245 -0.706968 0.707245 419.962 0)" fill="white"/>
<rect x="168" width="168" height="168" fill="#FF7777"/>
<rect x="203.848" y="36.0001" width="96" height="96" fill="#FEF151"/>
<rect x="236" width="32" height="168" fill="#FEF151"/>
<rect x="336" y="68.0002" width="32" height="168" transform="rotate(90 336 68.0002)" fill="#FEF151"/>
<rect x="2236" width="168" height="168" fill="#2971F6"/>
<path fill-rule="evenodd" clip-rule="evenodd" d="M2339.66 139.092C2339.94 139.836 2340.2 140.604 2340.4 141.395C2343.39 152.667 2336.78 164.254 2325.65 167.274C2314.52 170.295 2303.08 163.605 2300.1 152.333C2298.92 147.867 2299.24 143.353 2300.75 139.341C2298.6 138.587 2296.49 137.708 2294.43 136.71C2291.94 142.243 2287.11 146.647 2280.85 148.344C2269.72 151.365 2258.28 144.675 2255.3 133.403C2252.62 123.269 2257.69 112.881 2266.83 108.692C2265.98 106.891 2265.22 105.032 2264.54 103.12C2263.81 103.413 2263.05 103.667 2262.27 103.879C2251.14 106.899 2239.7 100.21 2236.72 88.9373C2233.73 77.6648 2240.34 66.0781 2251.47 63.0576C2255.88 61.8611 2260.34 62.1883 2264.3 63.7205C2264.95 61.8018 2265.7 59.9206 2266.54 58.0841C2261.38 55.4767 2257.3 50.7267 2255.69 44.6408C2252.71 33.3683 2259.32 21.7816 2270.45 18.7611C2280.09 16.1437 2289.97 20.8179 2294.37 29.4473C2296.49 28.4165 2298.7 27.5056 2300.97 26.7253C2300.96 26.6853 2300.95 26.6452 2300.94 26.6051C2297.96 15.3326 2304.56 3.74585 2315.69 0.725388C2326.82 -2.29506 2338.26 4.39453 2341.25 15.667C2342.32 19.7228 2342.15 23.8192 2340.98 27.5427C2342.66 28.2008 2344.31 28.9363 2345.92 29.746C2348.51 24.5703 2353.18 20.4882 2359.14 18.8688C2370.27 15.8483 2381.72 22.5379 2384.7 33.8104C2387.36 43.8798 2382.38 54.1999 2373.35 58.441C2374.16 60.26 2374.89 62.1356 2375.53 64.0641C2376.24 63.7834 2376.98 63.5393 2377.73 63.3346C2388.86 60.3141 2400.3 67.0037 2403.28 78.2762C2406.27 89.5487 2399.66 101.135 2388.53 104.156C2383.91 105.411 2379.23 104.99 2375.13 103.26C2374.45 105.153 2373.68 107.008 2372.82 108.818C2378.28 111.348 2382.63 116.236 2384.31 122.572C2387.29 133.844 2380.69 145.431 2369.56 148.452C2359.55 151.167 2349.29 146.035 2345.16 136.781C2343.38 137.637 2341.54 138.41 2339.66 139.092Z" fill="#FEF151"/>
<rect x="673" y="1" width="168" height="168" fill="white"/>
<path fill-rule="evenodd" clip-rule="evenodd" d="M673.506 169C766.01 169 841 95.5749 841 5.00018C841 3.66319 840.983 2.32994 840.951 1.0006C840.799 1.0002 840.646 1 840.494 1C747.99 1 673 74.4253 673 165C673 166.337 673.016 167.67 673.049 169C673.201 169 673.353 169 673.506 169Z" fill="#FEF151"/>
<rect x="2404" width="168" height="168" fill="#FEF151"/>
<path fill-rule="evenodd" clip-rule="evenodd" d="M2404.51 168C2497.01 168 2572 94.5746 2572 3.99994C2572 2.66303 2571.98 1.32985 2571.95 0.000597119C2571.8 0.000199123 2571.65 0 2571.49 0C2478.99 0 2404 73.4253 2404 164C2404 165.337 2404.02 166.67 2404.05 167.999C2404.2 168 2404.35 168 2404.51 168Z" fill="#FDACFF"/>
<rect x="2068" y="0.00170898" width="168" height="167.998" fill="white"/>
<path d="M2152 0L2171.61 36.66L2211.4 24.6028L2199.34 64.3906L2236 83.9991L2199.34 103.608L2211.4 143.396L2171.61 131.338L2152 167.998L2132.39 131.338L2092.6 143.396L2104.66 103.608L2068 83.9991L2104.66 64.3906L2092.6 24.6028L2132.39 36.66L2152 0Z" fill="#FF7777"/>
<rect x="2572" width="168" height="168" fill="#2971F6"/>
<rect x="2607.85" y="36.0001" width="96" height="96" fill="#FF7777"/>
<rect x="2640" width="32" height="168" fill="#FF7777"/>
<rect x="2740" y="67.9999" width="32" height="168" transform="rotate(90 2740 67.9999)" fill="#FF7777"/>
<rect x="0.00195312" width="168" height="168" fill="#2971F6"/>
<path fill-rule="evenodd" clip-rule="evenodd" d="M103.655 139.092C103.945 139.836 104.196 140.604 104.405 141.395C107.387 152.667 100.782 164.254 89.6518 167.275C78.5216 170.295 67.0812 163.605 64.0989 152.333C62.9175 147.867 63.2406 143.353 64.7534 139.341C62.5957 138.587 60.486 137.708 58.4348 136.71C55.9369 142.243 51.1106 146.647 44.8549 148.344C33.7247 151.365 22.2843 144.675 19.302 133.403C16.621 123.269 21.688 112.882 30.8252 108.692C29.9794 106.891 29.2167 105.032 28.5432 103.12C27.8086 103.413 27.0499 103.667 26.2689 103.879C15.1388 106.9 3.69841 100.21 0.716095 88.9374C-2.26622 77.6649 4.3389 66.0782 15.469 63.0578C19.878 61.8613 24.3357 62.1885 28.297 63.7206C28.9503 61.802 29.6991 59.9208 30.5392 58.0843C25.3782 55.4769 21.3028 50.7268 19.6927 44.641C16.7103 33.3685 23.3155 21.7818 34.4456 18.7613C44.0906 16.1439 53.9686 20.8181 58.3737 29.4475C60.4943 28.4167 62.696 27.5058 64.9729 26.7255C64.9621 26.6855 64.9513 26.6454 64.9407 26.6052C61.9584 15.3327 68.5635 3.74602 79.6937 0.725555C90.8238 -2.29489 102.264 4.3947 105.247 15.6672C106.32 19.7229 106.151 23.8194 104.978 27.5429C106.661 28.201 108.312 28.9365 109.925 29.7462C112.511 24.5704 117.177 20.4884 123.145 18.8689C134.275 15.8485 145.715 22.5381 148.698 33.8106C151.362 43.88 146.376 54.2001 137.348 58.4412C138.162 60.2601 138.891 62.1357 139.531 64.0643C140.243 63.7836 140.976 63.5395 141.731 63.3347C152.861 60.3143 164.301 67.0038 167.284 78.2763C170.266 89.5488 163.661 101.136 152.531 104.156C147.906 105.411 143.229 104.99 139.126 103.26C138.45 105.153 137.68 107.008 136.821 108.818C142.285 111.348 146.633 116.236 148.309 122.572C151.291 133.845 144.686 145.431 133.556 148.452C123.55 151.167 113.294 146.035 109.157 136.781C107.379 137.637 105.544 138.41 103.655 139.092Z" fill="#FDACFF"/>
<path d="M1386.55 67.9949C1385.22 66.5016 1383.17 65.1416 1380.39 63.9149C1377.62 62.6883 1374.53 62.0749 1371.11 62.0749C1366.74 62.0749 1363.51 62.9016 1361.43 64.5549C1359.35 66.2083 1358.31 68.4749 1358.31 71.3549C1358.31 73.3816 1358.85 74.9816 1359.91 76.1549C1360.98 77.3283 1362.61 78.2883 1364.79 79.0349C1367.03 79.7816 1369.86 80.5549 1373.27 81.3549C1377.22 82.2083 1380.63 83.2483 1383.51 84.4749C1386.39 85.7016 1388.61 87.3549 1390.15 89.4349C1391.7 91.4616 1392.47 94.1816 1392.47 97.5949C1392.47 101.222 1391.57 104.208 1389.75 106.555C1387.94 108.902 1385.46 110.635 1382.31 111.755C1379.22 112.875 1375.73 113.435 1371.83 113.435C1362.98 113.435 1355.27 110.768 1348.71 105.435L1352.15 99.3549C1353.33 100.528 1354.9 101.702 1356.87 102.875C1358.9 104.048 1361.19 105.035 1363.75 105.835C1366.37 106.582 1369.11 106.955 1371.99 106.955C1376.05 106.955 1379.19 106.235 1381.43 104.795C1383.67 103.302 1384.79 101.142 1384.79 98.3149C1384.79 96.1816 1384.15 94.4749 1382.87 93.1949C1381.65 91.9149 1379.81 90.8483 1377.35 89.9949C1374.9 89.1416 1371.91 88.2883 1368.39 87.4349C1364.55 86.4749 1361.33 85.4349 1358.71 84.3149C1356.1 83.1416 1354.13 81.6216 1352.79 79.7549C1351.51 77.8883 1350.87 75.4616 1350.87 72.4749C1350.87 68.8483 1351.75 65.7816 1353.51 63.2749C1355.27 60.7683 1357.7 58.8749 1360.79 57.5949C1363.89 56.3149 1367.38 55.6749 1371.27 55.6749C1375.06 55.6749 1378.5 56.2616 1381.59 57.4349C1384.74 58.6083 1387.51 60.1816 1389.91 62.1549L1386.55 67.9949ZM1419.3 113.675C1415.14 113.675 1411.46 112.688 1408.26 110.715C1405.06 108.688 1402.56 106.022 1400.74 102.715C1398.93 99.4083 1398.02 95.8083 1398.02 91.9149C1398.02 87.9683 1398.9 84.3683 1400.66 81.1149C1402.42 77.8616 1404.9 75.2749 1408.1 73.3549C1411.3 71.3816 1415.01 70.3949 1419.22 70.3949C1423.33 70.3949 1426.9 71.3283 1429.94 73.1949C1433.04 75.0083 1435.33 77.4616 1436.82 80.5549L1429.94 82.7149C1428.88 80.7416 1427.38 79.2216 1425.46 78.1549C1423.54 77.0349 1421.41 76.4749 1419.06 76.4749C1416.5 76.4749 1414.16 77.1416 1412.02 78.4749C1409.94 79.8083 1408.29 81.6483 1407.06 83.9949C1405.84 86.2883 1405.22 88.9283 1405.22 91.9149C1405.22 94.8483 1405.84 97.5149 1407.06 99.9149C1408.34 102.262 1410.02 104.128 1412.1 105.515C1414.24 106.902 1416.58 107.595 1419.14 107.595C1420.8 107.595 1422.37 107.302 1423.86 106.715C1425.41 106.128 1426.74 105.355 1427.86 104.395C1429.04 103.382 1429.84 102.288 1430.26 101.115L1437.14 103.195C1435.92 106.235 1433.68 108.742 1430.42 110.715C1427.22 112.688 1423.52 113.675 1419.3 113.675ZM1467.2 77.2749C1463.68 77.3283 1460.56 78.2349 1457.84 79.9949C1455.17 81.7016 1453.28 84.0749 1452.16 87.1149V112.875H1445.12V71.1149H1451.68V80.7949C1453.12 77.9149 1455.01 75.5949 1457.36 73.8349C1459.76 72.0216 1462.27 71.0083 1464.88 70.7949C1465.41 70.7949 1465.87 70.7949 1466.24 70.7949C1466.61 70.7949 1466.93 70.8216 1467.2 70.8749V77.2749ZM1474.18 63.2749V54.4749H1481.22V63.2749H1474.18ZM1474.18 112.875V71.1149H1481.22V112.875H1474.18ZM1515.1 113.675C1511.69 113.675 1508.65 112.822 1505.98 111.115C1503.31 109.408 1501.21 107.248 1499.66 104.635V129.915H1492.62V71.1149H1498.86V78.9549C1500.51 76.3949 1502.67 74.3416 1505.34 72.7949C1508.01 71.1949 1510.91 70.3949 1514.06 70.3949C1516.94 70.3949 1519.58 70.9816 1521.98 72.1549C1524.38 73.3283 1526.46 74.9283 1528.22 76.9549C1529.98 78.9816 1531.34 81.3016 1532.3 83.9149C1533.31 86.4749 1533.82 89.1683 1533.82 91.9949C1533.82 95.9416 1533.02 99.5683 1531.42 102.875C1529.87 106.182 1527.69 108.822 1524.86 110.795C1522.03 112.715 1518.78 113.675 1515.1 113.675ZM1512.94 107.595C1515.71 107.595 1518.11 106.848 1520.14 105.355C1522.17 103.862 1523.74 101.915 1524.86 99.5149C1526.03 97.1149 1526.62 94.6083 1526.62 91.9949C1526.62 89.1683 1525.98 86.5816 1524.7 84.2349C1523.47 81.8883 1521.77 80.0216 1519.58 78.6349C1517.45 77.1949 1515.02 76.4749 1512.3 76.4749C1510.65 76.4749 1508.89 76.9016 1507.02 77.7549C1505.21 78.6083 1503.61 79.7549 1502.22 81.1949C1500.89 82.5816 1500.03 84.1283 1499.66 85.8349V97.7549C1500.83 100.528 1502.62 102.875 1505.02 104.795C1507.47 106.662 1510.11 107.595 1512.94 107.595ZM1563.44 110.795C1562.59 111.168 1561.23 111.702 1559.36 112.395C1557.55 113.088 1555.52 113.435 1553.28 113.435C1550.72 113.435 1548.51 112.742 1546.64 111.355C1544.77 109.915 1543.84 107.702 1543.84 104.715V76.6349H1538.16V71.1149H1543.84V57.1949H1550.88V71.1149H1560.24V76.6349H1550.88V102.555C1550.99 104.048 1551.49 105.168 1552.4 105.915C1553.31 106.608 1554.37 106.955 1555.6 106.955C1556.99 106.955 1558.27 106.715 1559.44 106.235C1560.61 105.755 1561.39 105.408 1561.76 105.195L1563.44 110.795Z" fill="#2971F6"/>
</svg>
