<svg width="1075" height="1075" viewBox="0 0 1075 1075" fill="none" xmlns="http://www.w3.org/2000/svg">
<path d="M450.195 137.434C447.17 129.058 443.271 120.859 438.469 112.956C399.616 49.0378 316.307 28.7164 252.388 67.5674C188.47 106.418 168.148 189.729 206.999 253.647C211.804 261.551 217.288 268.789 223.331 275.33C212.216 288.525 202.004 302.328 192.716 316.642C184.786 312.954 176.38 309.985 167.56 307.834C94.8926 290.108 21.6144 334.648 3.88911 407.317C-13.8361 479.982 30.7041 553.26 103.372 570.984C111.164 572.885 118.964 574.071 126.702 574.582C127.983 591.792 130.345 608.993 133.811 626.084C126.95 628.832 120.224 632.181 113.699 636.149C49.781 674.998 29.4592 758.31 68.3104 822.227C107.162 886.147 190.473 906.466 254.392 867.614C259.473 864.527 264.278 861.16 268.8 857.54C282.845 869.74 297.609 880.9 312.971 890.986C310.942 896.289 309.224 901.779 307.843 907.443C290.118 980.108 334.656 1053.39 407.325 1071.11C479.994 1088.84 553.273 1044.3 570.996 971.631C572.092 967.146 572.948 962.662 573.573 958.187C592.71 956.727 611.831 953.929 630.8 949.765C632.639 953.537 634.668 957.259 636.89 960.916C675.742 1024.83 759.055 1045.16 822.972 1006.3C886.89 967.451 907.212 884.143 868.36 820.222C866.138 816.569 863.772 813.055 861.27 809.688C873.542 794.961 884.699 779.485 894.707 763.398C898.846 764.845 903.091 766.102 907.439 767.164C980.108 784.887 1053.39 740.35 1071.11 667.681C1088.84 595.013 1044.3 521.738 971.63 504.011C966.253 502.701 960.872 501.73 955.509 501.085C953.636 482.602 950.508 464.157 946.098 445.873C951.392 443.523 956.592 440.81 961.675 437.722C1025.59 398.87 1045.91 315.562 1007.06 251.642C968.21 187.724 884.901 167.404 820.98 206.255C814.46 210.219 808.388 214.647 802.793 219.47C789.087 208.42 774.765 198.317 759.929 189.186C762.892 182.304 765.323 175.083 767.156 167.56C784.882 94.8926 740.341 21.6142 667.676 3.88907C595.007 -13.8361 521.728 30.7042 504.004 103.372C501.885 112.053 500.656 120.743 500.257 129.346C483.511 131.006 466.792 133.694 450.195 137.434Z" fill="#A3E9FF"/>
</svg>
