<svg width="2912" height="169" viewBox="0 0 2912 169" fill="none" xmlns="http://www.w3.org/2000/svg">
<rect width="2910" height="168" fill="#2971F6"/>
<rect x="2575" width="168" height="168" fill="#FDACFF"/>
<path d="M2658.5 -3.69361e-06C2680.91 -4.67322e-06 2702.4 8.84997 2718.25 24.603C2734.1 40.3561 2743 61.7218 2743 84C2743 106.278 2734.1 127.644 2718.25 143.397C2702.4 159.15 2680.91 168 2658.5 168L2658.5 84L2658.5 -3.69361e-06Z" fill="white"/>
<path d="M2573.5 -3.69361e-06C2595.91 -4.67322e-06 2617.4 8.84997 2633.25 24.603C2649.1 40.3561 2658 61.7218 2658 84C2658 106.278 2649.1 127.644 2633.25 143.397C2617.4 159.15 2595.91 168 2573.5 168L2573.5 84L2573.5 -3.69361e-06Z" fill="white"/>
<rect x="2743.07" y="0.0761719" width="167.934" height="167.674" fill="#FF7777"/>
<rect width="118.763" height="118.763" transform="matrix(0.706968 0.707245 -0.706968 0.707245 2826.96 0)" fill="#2971F6"/>
<rect y="0.0430298" width="168" height="168" fill="white"/>
<rect x="35.8477" y="36.0431" width="96" height="96" fill="#FEF151"/>
<rect x="68" y="0.0430298" width="32" height="168" fill="#FEF151"/>
<rect x="168" y="68.0432" width="32" height="168" transform="rotate(90 168 68.0432)" fill="#FEF151"/>
<rect x="2070" width="168" height="168" fill="#FEACFF"/>
<path fill-rule="evenodd" clip-rule="evenodd" d="M2173.66 139.092C2173.94 139.836 2174.2 140.604 2174.4 141.395C2177.39 152.667 2170.78 164.254 2159.65 167.274C2148.52 170.295 2137.08 163.605 2134.1 152.333C2132.92 147.867 2133.24 143.353 2134.75 139.341C2132.6 138.587 2130.49 137.708 2128.43 136.71C2125.94 142.243 2121.11 146.647 2114.85 148.344C2103.72 151.365 2092.28 144.675 2089.3 133.403C2086.62 123.269 2091.69 112.881 2100.83 108.692C2099.98 106.891 2099.22 105.032 2098.54 103.12C2097.81 103.413 2097.05 103.667 2096.27 103.879C2085.14 106.899 2073.7 100.21 2070.72 88.9373C2067.73 77.6648 2074.34 66.0781 2085.47 63.0576C2089.88 61.8611 2094.34 62.1883 2098.3 63.7205C2098.95 61.8018 2099.7 59.9206 2100.54 58.0841C2095.38 55.4767 2091.3 50.7267 2089.69 44.6408C2086.71 33.3683 2093.32 21.7816 2104.45 18.7611C2114.09 16.1437 2123.97 20.8179 2128.37 29.4473C2130.49 28.4165 2132.7 27.5056 2134.97 26.7253C2134.96 26.6853 2134.95 26.6452 2134.94 26.6051C2131.96 15.3326 2138.56 3.74585 2149.69 0.725388C2160.82 -2.29506 2172.26 4.39453 2175.25 15.667C2176.32 19.7228 2176.15 23.8192 2174.98 27.5427C2176.66 28.2008 2178.31 28.9363 2179.92 29.746C2182.51 24.5703 2187.18 20.4882 2193.14 18.8688C2204.27 15.8483 2215.72 22.5379 2218.7 33.8104C2221.36 43.8798 2216.38 54.1999 2207.35 58.441C2208.16 60.26 2208.89 62.1356 2209.53 64.0641C2210.24 63.7834 2210.98 63.5393 2211.73 63.3346C2222.86 60.3141 2234.3 67.0037 2237.28 78.2762C2240.27 89.5487 2233.66 101.135 2222.53 104.156C2217.91 105.411 2213.23 104.99 2209.13 103.26C2208.45 105.153 2207.68 107.008 2206.82 108.818C2212.28 111.348 2216.63 116.236 2218.31 122.572C2221.29 133.844 2214.69 145.431 2203.56 148.452C2193.55 151.167 2183.29 146.035 2179.16 136.781C2177.38 137.637 2175.54 138.41 2173.66 139.092Z" fill="#2971F6"/>
<rect x="168" width="168" height="168" fill="#FEF151"/>
<path fill-rule="evenodd" clip-rule="evenodd" d="M168.506 168C261.01 168 336 94.5749 336 4.00018C336 2.66319 335.983 1.32994 335.951 0.000597103C335.799 0.000199118 335.646 0 335.494 0C242.99 0 168 73.4253 168 164C168 165.337 168.016 166.67 168.049 168C168.201 168 168.353 168 168.506 168Z" fill="#FF7777"/>
<rect x="2405.92" y="0.0430298" width="168" height="168" fill="#2971F6"/>
<path fill-rule="evenodd" clip-rule="evenodd" d="M2406.42 168.043C2498.93 168.043 2573.91 94.6177 2573.91 4.04297C2573.91 2.70606 2573.9 1.37288 2573.87 0.0436269C2573.71 0.0432289 2573.56 0.0430298 2573.41 0.0430298C2480.9 0.0430298 2405.92 73.4683 2405.92 164.043C2405.92 165.38 2405.93 166.713 2405.96 168.042C2406.12 168.043 2406.27 168.043 2406.42 168.043Z" fill="#FF7777"/>
<rect x="336.003" y="1.00171" width="168" height="167.998" fill="#2971F6"/>
<path d="M420 1L439.609 37.66L479.397 25.6028L467.34 65.3906L504 84.9991L467.34 104.608L479.397 144.396L439.609 132.338L420 168.998L400.391 132.338L360.603 144.396L372.66 104.608L336 84.9991L372.66 65.3906L360.603 25.6028L400.391 37.66L420 1Z" fill="#FDACFF"/>
<rect x="2238" width="168" height="168" fill="#FEF151"/>
<rect x="2273.85" y="36.0001" width="96" height="96" fill="#FF7777"/>
<rect x="2306" width="32" height="168" fill="#FF7777"/>
<rect x="2406" y="67.9999" width="32" height="168" transform="rotate(90 2406 67.9999)" fill="#FF7777"/>
<rect x="670.002" width="168" height="168" fill="#FEF151"/>
<path fill-rule="evenodd" clip-rule="evenodd" d="M773.655 139.092C773.945 139.836 774.196 140.604 774.405 141.395C777.387 152.667 770.782 164.254 759.652 167.275C748.522 170.295 737.081 163.605 734.099 152.333C732.918 147.867 733.241 143.353 734.753 139.341C732.596 138.587 730.486 137.708 728.435 136.71C725.937 142.243 721.111 146.647 714.855 148.344C703.725 151.365 692.284 144.675 689.302 133.403C686.621 123.269 691.688 112.882 700.825 108.692C699.979 106.891 699.217 105.032 698.543 103.12C697.809 103.413 697.05 103.667 696.269 103.879C685.139 106.9 673.698 100.21 670.716 88.9374C667.734 77.6649 674.339 66.0782 685.469 63.0578C689.878 61.8613 694.336 62.1885 698.297 63.7206C698.95 61.802 699.699 59.9208 700.539 58.0843C695.378 55.4769 691.303 50.7268 689.693 44.641C686.71 33.3685 693.315 21.7818 704.446 18.7613C714.091 16.1439 723.969 20.8181 728.374 29.4475C730.494 28.4167 732.696 27.5058 734.973 26.7255C734.962 26.6855 734.951 26.6454 734.941 26.6052C731.958 15.3327 738.564 3.74602 749.694 0.725555C760.824 -2.29489 772.264 4.3947 775.247 15.6672C776.32 19.7229 776.151 23.8194 774.978 27.5429C776.661 28.201 778.312 28.9365 779.925 29.7462C782.511 24.5704 787.177 20.4884 793.145 18.8689C804.275 15.8485 815.715 22.5381 818.698 33.8106C821.362 43.88 816.376 54.2001 807.348 58.4412C808.162 60.2601 808.891 62.1357 809.531 64.0643C810.243 63.7836 810.976 63.5395 811.731 63.3347C822.861 60.3143 834.301 67.0038 837.284 78.2763C840.266 89.5488 833.661 101.136 822.531 104.156C817.906 105.411 813.229 104.99 809.126 103.26C808.45 105.153 807.68 107.008 806.821 108.818C812.285 111.348 816.633 116.236 818.309 122.572C821.291 133.845 814.686 145.431 803.556 148.452C793.55 151.167 783.294 146.035 779.157 136.781C777.379 137.637 775.544 138.41 773.655 139.092Z" fill="#FF7777"/>
<rect x="502" width="168" height="168" fill="#FF7777"/>
<circle cx="586" cy="84" r="84" fill="white"/>
<path d="M1386.16 67.12C1384.83 65.6267 1382.77 64.2667 1380 63.04C1377.23 61.8133 1374.13 61.2 1370.72 61.2C1366.35 61.2 1363.12 62.0267 1361.04 63.68C1358.96 65.3333 1357.92 67.6 1357.92 70.48C1357.92 72.5067 1358.45 74.1067 1359.52 75.28C1360.59 76.4533 1362.21 77.4133 1364.4 78.16C1366.64 78.9067 1369.47 79.68 1372.88 80.48C1376.83 81.3333 1380.24 82.3733 1383.12 83.6C1386 84.8267 1388.21 86.48 1389.76 88.56C1391.31 90.5867 1392.08 93.3067 1392.08 96.72C1392.08 100.347 1391.17 103.333 1389.36 105.68C1387.55 108.027 1385.07 109.76 1381.92 110.88C1378.83 112 1375.33 112.56 1371.44 112.56C1362.59 112.56 1354.88 109.893 1348.32 104.56L1351.76 98.48C1352.93 99.6533 1354.51 100.827 1356.48 102C1358.51 103.173 1360.8 104.16 1363.36 104.96C1365.97 105.707 1368.72 106.08 1371.6 106.08C1375.65 106.08 1378.8 105.36 1381.04 103.92C1383.28 102.427 1384.4 100.267 1384.4 97.44C1384.4 95.3067 1383.76 93.6 1382.48 92.32C1381.25 91.04 1379.41 89.9733 1376.96 89.12C1374.51 88.2667 1371.52 87.4133 1368 86.56C1364.16 85.6 1360.93 84.56 1358.32 83.44C1355.71 82.2667 1353.73 80.7467 1352.4 78.88C1351.12 77.0133 1350.48 74.5867 1350.48 71.6C1350.48 67.9733 1351.36 64.9067 1353.12 62.4C1354.88 59.8933 1357.31 58 1360.4 56.72C1363.49 55.44 1366.99 54.8 1370.88 54.8C1374.67 54.8 1378.11 55.3867 1381.2 56.56C1384.35 57.7333 1387.12 59.3067 1389.52 61.28L1386.16 67.12ZM1418.91 112.8C1414.75 112.8 1411.07 111.813 1407.87 109.84C1404.67 107.813 1402.16 105.147 1400.35 101.84C1398.54 98.5333 1397.63 94.9333 1397.63 91.04C1397.63 87.0933 1398.51 83.4933 1400.27 80.24C1402.03 76.9867 1404.51 74.4 1407.71 72.48C1410.91 70.5067 1414.62 69.52 1418.83 69.52C1422.94 69.52 1426.51 70.4533 1429.55 72.32C1432.64 74.1333 1434.94 76.5867 1436.43 79.68L1429.55 81.84C1428.48 79.8667 1426.99 78.3467 1425.07 77.28C1423.15 76.16 1421.02 75.6 1418.67 75.6C1416.11 75.6 1413.76 76.2667 1411.63 77.6C1409.55 78.9333 1407.9 80.7733 1406.67 83.12C1405.44 85.4133 1404.83 88.0533 1404.83 91.04C1404.83 93.9733 1405.44 96.64 1406.67 99.04C1407.95 101.387 1409.63 103.253 1411.71 104.64C1413.84 106.027 1416.19 106.72 1418.75 106.72C1420.4 106.72 1421.98 106.427 1423.47 105.84C1425.02 105.253 1426.35 104.48 1427.47 103.52C1428.64 102.507 1429.44 101.413 1429.87 100.24L1436.75 102.32C1435.52 105.36 1433.28 107.867 1430.03 109.84C1426.83 111.813 1423.12 112.8 1418.91 112.8ZM1466.81 76.4C1463.29 76.4533 1460.17 77.36 1457.45 79.12C1454.78 80.8267 1452.89 83.2 1451.77 86.24V112H1444.73V70.24H1451.29V79.92C1452.73 77.04 1454.62 74.72 1456.97 72.96C1459.37 71.1467 1461.87 70.1333 1464.49 69.92C1465.02 69.92 1465.47 69.92 1465.85 69.92C1466.22 69.92 1466.54 69.9467 1466.81 70V76.4ZM1473.79 62.4V53.6H1480.83V62.4H1473.79ZM1473.79 112V70.24H1480.83V112H1473.79ZM1514.71 112.8C1511.29 112.8 1508.25 111.947 1505.59 110.24C1502.92 108.533 1500.81 106.373 1499.27 103.76V129.04H1492.23V70.24H1498.47V78.08C1500.12 75.52 1502.28 73.4667 1504.95 71.92C1507.61 70.32 1510.52 69.52 1513.67 69.52C1516.55 69.52 1519.19 70.1067 1521.59 71.28C1523.99 72.4533 1526.07 74.0533 1527.83 76.08C1529.59 78.1067 1530.95 80.4267 1531.91 83.04C1532.92 85.6 1533.43 88.2933 1533.43 91.12C1533.43 95.0667 1532.63 98.6933 1531.03 102C1529.48 105.307 1527.29 107.947 1524.47 109.92C1521.64 111.84 1518.39 112.8 1514.71 112.8ZM1512.55 106.72C1515.32 106.72 1517.72 105.973 1519.75 104.48C1521.77 102.987 1523.35 101.04 1524.47 98.64C1525.64 96.24 1526.23 93.7333 1526.23 91.12C1526.23 88.2933 1525.59 85.7067 1524.31 83.36C1523.08 81.0133 1521.37 79.1467 1519.19 77.76C1517.05 76.32 1514.63 75.6 1511.91 75.6C1510.25 75.6 1508.49 76.0267 1506.63 76.88C1504.81 77.7333 1503.21 78.88 1501.83 80.32C1500.49 81.7067 1499.64 83.2533 1499.27 84.96V96.88C1500.44 99.6533 1502.23 102 1504.63 103.92C1507.08 105.787 1509.72 106.72 1512.55 106.72ZM1563.05 109.92C1562.19 110.293 1560.83 110.827 1558.97 111.52C1557.15 112.213 1555.13 112.56 1552.89 112.56C1550.33 112.56 1548.11 111.867 1546.25 110.48C1544.38 109.04 1543.45 106.827 1543.45 103.84V75.76H1537.77V70.24H1543.45V56.32H1550.49V70.24H1559.85V75.76H1550.49V101.68C1550.59 103.173 1551.1 104.293 1552.01 105.04C1552.91 105.733 1553.98 106.08 1555.21 106.08C1556.59 106.08 1557.87 105.84 1559.05 105.36C1560.22 104.88 1560.99 104.533 1561.37 104.32L1563.05 109.92Z" fill="white"/>
</svg>
