<svg width="2888" height="732" viewBox="0 0 2888 732" fill="none" xmlns="http://www.w3.org/2000/svg">
<rect x="0.472168" y="565.971" width="2910" height="168" transform="rotate(-11.195 0.472168 565.971)" fill="#FEF151"/>
<rect x="2690.13" y="34.7959" width="168" height="168" transform="rotate(-11.195 2690.13 34.7959)" fill="#4B88FF"/>
<path d="M2772.04 18.5841C2794.02 14.2331 2816.83 18.7418 2835.43 31.1185C2854.03 43.4952 2866.92 62.7259 2871.24 84.5802C2875.57 106.434 2870.98 129.122 2858.49 147.652C2846.01 166.182 2826.64 179.036 2804.66 183.387L2788.35 100.986L2772.04 18.5841Z" fill="white"/>
<path d="M2688.66 35.087C2710.64 30.736 2733.44 35.2448 2752.05 47.6214C2770.65 59.9981 2783.53 79.2288 2787.86 101.083C2792.18 122.937 2787.6 145.625 2775.11 164.155C2762.62 182.685 2743.26 195.539 2721.27 199.89L2704.97 117.489L2688.66 35.087Z" fill="white"/>
<rect x="659.517" y="436.684" width="168" height="168" transform="rotate(-11.195 659.517 436.684)" fill="#191818"/>
<path d="M741.428 420.472C763.412 416.121 786.215 420.63 804.818 433.006C823.422 445.383 836.303 464.614 840.629 486.468C844.954 508.322 840.369 531.01 827.882 549.54C815.395 568.07 796.029 580.924 774.045 585.275L757.737 502.873L741.428 420.472Z" fill="#7DEDA3"/>
<path d="M658.046 436.975C680.03 432.624 702.832 437.132 721.436 449.509C740.04 461.886 752.921 481.117 757.246 502.971C761.572 524.825 756.986 547.513 744.5 566.043C732.013 584.573 712.647 597.427 690.663 601.778L674.354 519.376L658.046 436.975Z" fill="#7DEDA3"/>
<rect x="494.599" y="468.381" width="167.934" height="167.674" transform="rotate(-11.195 494.599 468.381)" fill="#FEF151"/>
<rect width="118.763" height="118.763" transform="matrix(0.830827 0.556531 -0.556206 0.831045 576.88 452.019)" fill="white"/>
<rect x="329.716" y="500.936" width="168" height="168" transform="rotate(-11.195 329.716 500.936)" fill="#7DEDA3"/>
<rect x="371.871" y="529.291" width="96" height="96" transform="rotate(-11.195 371.871 529.291)" fill="#FEF151"/>
<rect x="396.422" y="487.733" width="32" height="168" transform="rotate(-11.195 396.422 487.733)" fill="#FEF151"/>
<rect x="507.721" y="535.024" width="32" height="168" transform="rotate(78.805 507.721 535.024)" fill="#FEF151"/>
<rect x="2193.56" y="132.054" width="168" height="168" transform="rotate(-11.195 2193.56 132.054)" fill="#191818"/>
<path fill-rule="evenodd" clip-rule="evenodd" d="M2322.25 248.374C2322.68 249.048 2323.07 249.753 2323.43 250.488C2328.55 260.967 2324.32 273.615 2313.99 278.739C2303.65 283.863 2291.13 279.522 2286.02 269.043C2283.99 264.892 2283.43 260.4 2284.14 256.171C2281.87 255.851 2279.63 255.398 2277.43 254.817C2276.05 260.73 2272.17 265.987 2266.37 268.867C2256.03 273.99 2243.51 269.649 2238.4 259.17C2233.8 249.75 2236.75 238.576 2244.9 232.692C2243.72 231.09 2242.62 229.415 2241.58 227.669C2240.92 228.1 2240.23 228.496 2239.5 228.856C2229.17 233.98 2216.65 229.638 2211.53 219.159C2206.42 208.68 2210.65 196.032 2220.98 190.908C2225.07 188.878 2229.51 188.334 2233.69 189.068C2233.96 187.059 2234.33 185.068 2234.8 183.103C2229.23 181.547 2224.31 177.679 2221.55 172.022C2216.43 161.543 2220.66 148.894 2231 143.77C2239.95 139.33 2250.55 141.997 2256.54 149.607C2258.42 148.184 2260.41 146.863 2262.49 145.656C2262.47 145.619 2262.45 145.581 2262.43 145.544C2257.32 135.065 2261.55 122.417 2271.88 117.293C2282.21 112.169 2294.73 116.51 2299.85 126.989C2301.69 130.759 2302.32 134.81 2301.89 138.691C2303.67 139.01 2305.43 139.411 2307.17 139.892C2308.7 134.312 2312.49 129.402 2318.03 126.655C2328.36 121.531 2340.88 125.872 2346 136.351C2350.56 145.712 2347.68 156.803 2339.64 162.717C2340.8 164.343 2341.88 166.041 2342.88 167.809C2343.52 167.395 2344.19 167.013 2344.89 166.666C2355.23 161.542 2367.75 165.883 2372.86 176.362C2377.97 186.841 2373.75 199.49 2363.41 204.614C2359.12 206.743 2354.45 207.238 2350.09 206.337C2349.79 208.326 2349.4 210.295 2348.91 212.238C2354.76 213.659 2359.97 217.609 2362.85 223.499C2367.96 233.978 2363.73 246.627 2353.4 251.751C2344.11 256.357 2333.05 253.314 2327.2 245.039C2325.62 246.224 2323.97 247.339 2322.25 248.374Z" fill="#FEF151"/>
<rect x="0.109375" y="566.17" width="168" height="168" transform="rotate(-11.195 0.109375 566.17)" fill="white"/>
<path fill-rule="evenodd" clip-rule="evenodd" d="M33.2224 730.875C123.967 712.916 183.274 626.328 165.689 537.477C165.429 536.166 165.155 534.861 164.865 533.563C164.715 533.592 164.566 533.622 164.416 533.651C73.6721 551.611 14.3648 638.198 31.9497 727.049C32.2093 728.361 32.4842 729.666 32.7742 730.963C32.9236 730.934 33.073 730.905 33.2224 730.875Z" fill="#FEF151"/>
<rect x="2358.37" y="99.4365" width="168" height="168" transform="rotate(-11.195 2358.37 99.4365)" fill="#FEF151"/>
<path fill-rule="evenodd" clip-rule="evenodd" d="M2391.48 264.142C2482.22 246.182 2541.53 159.595 2523.95 70.7435C2523.69 69.432 2523.41 68.1274 2523.12 66.8297C2522.97 66.8589 2522.82 66.8882 2522.67 66.9178C2431.93 84.8774 2372.62 171.465 2390.21 260.316C2390.47 261.627 2390.74 262.932 2391.03 264.23C2391.18 264.201 2391.33 264.171 2391.48 264.142Z" fill="#4B88FF"/>
<rect x="2028.76" y="164.671" width="168" height="167.998" transform="rotate(-11.195 2028.76 164.671)" fill="white"/>
<path d="M2111.16 148.361L2137.51 180.517L2174.2 160.964L2170.1 202.336L2209.87 214.454L2177.72 240.807L2197.27 277.497L2155.9 273.394L2143.78 313.163L2117.42 281.008L2080.73 300.56L2084.84 259.189L2045.07 247.071L2077.22 220.718L2057.67 184.028L2099.04 188.131L2111.16 148.361Z" fill="#7DEDA3"/>
<rect x="2523.17" y="66.8193" width="168" height="168" transform="rotate(-11.195 2523.17 66.8193)" fill="#191818"/>
<rect x="2565.32" y="95.1748" width="96" height="96" transform="rotate(-11.195 2565.32 95.1748)" fill="#7DEDA3"/>
<rect x="2589.88" y="53.6172" width="32" height="168" transform="rotate(-11.195 2589.88 53.6172)" fill="#7DEDA3"/>
<rect x="2701.18" y="100.908" width="32" height="168" transform="rotate(78.805 2701.18 100.908)" fill="#7DEDA3"/>
<rect x="164.913" y="533.553" width="168" height="168" transform="rotate(-11.195 164.913 533.553)" fill="#191818"/>
<path fill-rule="evenodd" clip-rule="evenodd" d="M293.599 649.873C294.027 650.547 294.422 651.252 294.781 651.987C299.895 662.466 295.665 675.114 285.333 680.238C275.001 685.362 262.48 681.021 257.366 670.542C255.34 666.391 254.78 661.899 255.486 657.67C253.223 657.35 250.982 656.897 248.776 656.316C247.4 662.229 243.521 667.486 237.714 670.366C227.382 675.489 214.86 671.148 209.746 660.669C205.149 651.249 208.103 640.075 216.252 634.191C215.073 632.589 213.964 630.914 212.932 629.168C212.268 629.599 211.573 629.995 210.848 630.355C200.517 635.479 187.995 631.137 182.881 620.658C177.767 610.18 181.997 597.531 192.329 592.407C196.421 590.377 200.858 589.833 205.041 590.567C205.31 588.558 205.679 586.567 206.146 584.602C200.578 583.047 195.657 579.178 192.896 573.521C187.782 563.042 192.012 550.393 202.344 545.269C211.297 540.829 221.895 543.496 227.892 551.106C229.772 549.683 231.755 548.362 233.837 547.155C233.818 547.118 233.8 547.081 233.782 547.043C228.668 536.564 232.898 523.916 243.23 518.792C253.561 513.668 266.083 518.009 271.197 528.488C273.037 532.258 273.668 536.309 273.239 540.19C275.018 540.509 276.78 540.91 278.52 541.391C280.051 535.812 283.837 530.901 289.376 528.154C299.708 523.03 312.23 527.371 317.344 537.85C321.912 547.211 319.025 558.303 310.992 564.216C312.143 565.842 313.224 567.54 314.226 569.308C314.869 568.894 315.541 568.512 316.242 568.165C326.574 563.041 339.095 567.382 344.209 577.861C349.323 588.34 345.093 600.989 334.761 606.113C330.469 608.242 325.798 608.737 321.438 607.837C321.142 609.825 320.747 611.794 320.256 613.737C326.107 615.158 331.321 619.108 334.196 624.998C339.31 635.477 335.08 648.126 324.748 653.25C315.46 657.856 304.402 654.813 298.547 646.538C296.969 647.724 295.319 648.838 293.599 649.873Z" fill="#4B88FF"/>
<path d="M1340.07 385.658C1339.4 382.257 1339.32 378.821 1339.83 375.349C1340.38 371.815 1341.52 368.491 1343.24 365.378C1345 362.201 1347.38 359.502 1350.36 357.281C1353.34 355.006 1356.92 353.455 1361.1 352.627C1366.07 351.643 1370.56 351.95 1374.58 353.548C1378.58 355.094 1381.8 357.474 1384.23 360.69L1379.37 365.403C1377.8 363.266 1376.02 361.688 1374.03 360.67C1372.08 359.589 1370.05 358.957 1367.95 358.775C1365.9 358.583 1363.93 358.673 1362.05 359.045C1358.96 359.656 1356.34 360.828 1354.18 362.56C1352.07 364.281 1350.42 366.349 1349.21 368.763C1348 371.177 1347.24 373.774 1346.92 376.556C1346.64 379.275 1346.76 381.942 1347.28 384.558C1347.85 387.436 1348.87 390.115 1350.34 392.597C1351.86 395.069 1353.69 397.154 1355.82 398.852C1357.95 400.551 1360.31 401.769 1362.9 402.507C1365.49 403.244 1368.17 403.338 1370.95 402.789C1372.88 402.406 1374.8 401.673 1376.71 400.589C1378.62 399.505 1380.32 398.081 1381.82 396.316C1383.31 394.499 1384.35 392.336 1384.94 389.827L1391.46 391.879C1390.86 394.88 1389.54 397.587 1387.52 399.999C1385.5 402.411 1383.09 404.409 1380.31 405.993C1377.57 407.567 1374.77 408.639 1371.89 409.208C1368.07 409.964 1364.41 409.847 1360.89 408.857C1357.37 407.814 1354.16 406.166 1351.27 403.911C1348.42 401.594 1346 398.864 1344.02 395.722C1342.08 392.518 1340.77 389.163 1340.07 385.658ZM1419.72 400.069C1415.64 400.877 1411.84 400.623 1408.31 399.309C1404.83 397.931 1401.91 395.818 1399.56 392.968C1397.19 390.066 1395.63 386.732 1394.89 382.965C1394.13 379.146 1394.3 375.469 1395.39 371.936C1396.53 368.34 1398.45 365.269 1401.15 362.722C1403.9 360.113 1407.29 358.41 1411.32 357.612C1415.4 356.805 1419.18 357.09 1422.66 358.467C1426.18 359.781 1429.13 361.889 1431.49 364.792C1433.9 367.631 1435.49 370.96 1436.24 374.779C1436.99 378.546 1436.79 382.228 1435.66 385.824C1434.56 389.357 1432.67 392.423 1429.97 395.022C1427.27 397.569 1423.85 399.251 1419.72 400.069ZM1401.96 381.645C1402.52 384.471 1403.63 386.915 1405.29 388.979C1407 391.032 1409.01 392.537 1411.32 393.494C1413.62 394.398 1416.03 394.602 1418.54 394.105C1421.05 393.608 1423.19 392.477 1424.96 390.713C1426.79 388.938 1428.07 386.781 1428.82 384.241C1429.61 381.638 1429.72 378.924 1429.16 376.099C1428.61 373.274 1427.47 370.834 1425.76 368.781C1424.1 366.717 1422.09 365.212 1419.73 364.266C1417.42 363.309 1415.01 363.08 1412.5 363.577C1409.99 364.074 1407.85 365.23 1406.09 367.047C1404.32 368.811 1403.03 370.968 1402.23 373.519C1401.48 376.059 1401.39 378.768 1401.96 381.645ZM1484.2 386.492L1477.29 387.858L1472.76 364.943C1471.9 360.6 1470.59 357.57 1468.84 355.851C1467.13 354.069 1464.91 353.448 1462.19 353.986C1460.31 354.359 1458.52 355.203 1456.82 356.517C1455.18 357.821 1453.78 359.429 1452.64 361.341C1451.53 363.19 1450.88 365.223 1450.66 367.44L1455.56 392.161L1448.65 393.527L1440.54 352.562L1446.82 351.32L1448.56 360.109C1449.61 356.911 1451.49 354.148 1454.18 351.821C1456.92 349.483 1460.1 347.957 1463.71 347.243C1466.9 346.611 1469.51 346.883 1471.54 348.059C1473.61 349.172 1475.27 350.963 1476.52 353.434C1477.76 355.853 1478.7 358.71 1479.35 362.006L1484.2 386.492ZM1515.34 378.208C1514.58 378.74 1513.35 379.527 1511.65 380.57C1510.01 381.602 1508.08 382.335 1505.89 382.77C1503.38 383.267 1501.07 383.017 1498.97 382.019C1496.86 380.969 1495.51 378.979 1494.93 376.049L1489.48 348.503L1483.91 349.606L1482.84 344.191L1488.41 343.088L1485.71 329.433L1492.61 328.066L1495.32 341.721L1504.5 339.904L1505.57 345.319L1496.39 347.136L1501.42 372.563C1501.82 374.007 1502.53 375.008 1503.56 375.564C1504.59 376.068 1505.7 376.201 1506.91 375.963C1508.27 375.694 1509.47 375.21 1510.53 374.511C1511.59 373.813 1512.28 373.322 1512.61 373.041L1515.34 378.208ZM1516.58 367.768C1516.07 365.152 1516.35 362.758 1517.45 360.584C1518.58 358.348 1520.35 356.448 1522.76 354.884C1525.17 353.32 1528.1 352.196 1531.55 351.513C1533.38 351.15 1535.35 350.924 1537.45 350.834C1539.54 350.692 1541.43 350.753 1543.12 351.018L1542.53 348.036C1541.9 344.897 1540.48 342.624 1538.24 341.218C1535.99 339.76 1533.15 339.372 1529.69 340.056C1527.44 340.501 1525.35 341.349 1523.43 342.601C1521.54 343.789 1519.6 345.37 1517.6 347.343L1514.12 342.974C1516.43 340.615 1518.83 338.727 1521.32 337.309C1523.8 335.839 1526.48 334.82 1529.36 334.25C1534.59 333.215 1539.01 333.861 1542.63 336.191C1546.23 338.468 1548.55 342.196 1549.57 347.375L1553 364.719C1553.33 366.341 1554.22 367.033 1555.7 366.795L1556.75 372.132C1556.1 372.371 1555.51 372.569 1555 372.725C1554.54 372.87 1554.15 372.974 1553.83 373.036C1552.21 373.357 1550.9 373.156 1549.88 372.432C1548.92 371.698 1548.29 370.844 1547.99 369.871L1547.32 367.312C1546 369.966 1544.02 372.206 1541.39 374.031C1538.76 375.856 1536.04 377.048 1533.21 377.607C1530.49 378.146 1527.95 378.078 1525.59 377.404C1523.21 376.677 1521.24 375.491 1519.66 373.846C1518.08 372.148 1517.05 370.123 1516.58 367.768ZM1543.84 365.391C1544.32 364.534 1544.68 363.703 1544.9 362.899C1545.11 362.041 1545.16 361.351 1545.06 360.828L1544.05 355.727C1540.44 355.082 1536.86 355.111 1533.3 355.815C1529.8 356.509 1527.08 357.779 1525.17 359.627C1523.29 361.412 1522.59 363.507 1523.07 365.914C1523.33 367.222 1523.92 368.437 1524.85 369.558C1525.82 370.616 1527.06 371.403 1528.58 371.919C1530.15 372.424 1531.95 372.474 1533.99 372.071C1536.13 371.646 1538.09 370.824 1539.86 369.603C1541.62 368.331 1542.95 366.927 1543.84 365.391ZM1583.88 367.578C1579.8 368.386 1576 368.132 1572.48 366.818C1568.95 365.451 1565.97 363.322 1563.55 360.43C1561.13 357.538 1559.54 354.183 1558.78 350.364C1558.02 346.492 1558.18 342.79 1559.28 339.257C1560.37 335.724 1562.3 332.705 1565.07 330.2C1567.83 327.643 1571.27 325.955 1575.4 325.137C1579.43 324.34 1583.12 324.562 1586.46 325.803C1589.85 326.981 1592.57 328.942 1594.64 331.687L1588.31 335.142C1586.88 333.413 1585.12 332.212 1583.03 331.538C1580.93 330.812 1578.73 330.677 1576.43 331.133C1573.91 331.63 1571.74 332.739 1569.91 334.461C1568.13 336.173 1566.86 338.299 1566.11 340.839C1565.36 343.327 1565.27 346.036 1565.85 348.966C1566.42 351.843 1567.54 354.34 1569.21 356.456C1570.92 358.51 1572.93 360.015 1575.24 360.971C1577.6 361.917 1580.04 362.142 1582.55 361.645C1584.17 361.324 1585.65 360.731 1587.01 359.865C1588.41 358.99 1589.57 357.972 1590.48 356.813C1591.43 355.591 1592.01 354.363 1592.2 353.129L1599.35 353.834C1598.74 357.054 1597.03 359.948 1594.22 362.516C1591.46 365.073 1588.02 366.76 1583.88 367.578ZM1629.84 355.547C1629.07 356.079 1627.84 356.866 1626.15 357.909C1624.5 358.941 1622.58 359.675 1620.39 360.109C1617.87 360.606 1615.57 360.356 1613.47 359.358C1611.36 358.308 1610.01 356.318 1609.43 353.388L1603.98 325.842L1598.41 326.945L1597.34 321.53L1602.91 320.427L1600.21 306.772L1607.11 305.406L1609.81 319.061L1619 317.243L1620.07 322.658L1610.89 324.476L1615.92 349.902C1616.31 351.347 1617.03 352.347 1618.06 352.903C1619.09 353.407 1620.2 353.54 1621.4 353.302C1622.76 353.033 1623.97 352.549 1625.03 351.85C1626.09 351.152 1626.78 350.662 1627.1 350.38L1629.84 355.547Z" fill="black"/>
</svg>
