<svg width="2909" height="538" viewBox="0 0 2909 538" fill="none" xmlns="http://www.w3.org/2000/svg">
<rect x="21.5518" width="2910" height="168" transform="rotate(7.29769 21.5518 0)" fill="#191818"/>
<rect x="2575.69" y="327.088" width="168" height="168" transform="rotate(7.29769 2575.69 327.088)" fill="#4B88FF"/>
<path d="M2658.52 337.695C2680.75 340.542 2700.94 352.05 2714.66 369.689C2728.38 387.327 2734.49 409.65 2731.66 431.748C2728.83 453.846 2717.29 473.908 2699.57 487.52C2681.85 501.133 2659.41 507.181 2637.18 504.334L2647.85 421.015L2658.52 337.695Z" fill="white"/>
<path d="M2574.21 326.897C2596.43 329.744 2616.63 341.252 2630.35 358.891C2644.06 376.529 2650.18 398.853 2647.35 420.95C2644.52 443.048 2632.98 463.11 2615.26 476.722C2597.54 490.335 2575.09 496.383 2552.87 493.536L2563.54 410.217L2574.21 326.897Z" fill="white"/>
<rect x="2742.39" y="348.514" width="167.934" height="167.674" transform="rotate(7.29769 2742.39 348.514)" fill="#7DEDA3"/>
<rect width="118.763" height="118.763" transform="matrix(0.611404 0.791318 -0.791079 0.611714 2825.61 359.094)" fill="#191818"/>
<rect x="21.5464" y="0.0429688" width="168" height="168" transform="rotate(7.29769 21.5464 0.0429688)" fill="#4B88FF"/>
<rect x="52.5308" y="40.3047" width="96" height="96" transform="rotate(7.29769 52.5308 40.3047)" fill="#FEF151"/>
<rect x="88.9956" y="8.68066" width="32" height="168" transform="rotate(7.29769 88.9956 8.68066)" fill="#FEF151"/>
<rect x="179.548" y="88.832" width="32" height="168" transform="rotate(97.2977 179.548 88.832)" fill="#FEF151"/>
<rect x="2074.79" y="262.941" width="168" height="168" transform="rotate(7.29769 2074.79 262.941)" fill="#4B88FF"/>
<path fill-rule="evenodd" clip-rule="evenodd" d="M2159.93 414.073C2160.12 414.848 2160.28 415.642 2160.38 416.453C2161.91 428.013 2153.89 438.666 2142.46 440.249C2131.04 441.831 2120.54 433.742 2119.01 422.182C2118.41 417.603 2119.3 413.166 2121.31 409.379C2119.27 408.357 2117.29 407.217 2115.38 405.966C2112.2 411.137 2106.85 414.892 2100.43 415.782C2089.01 417.364 2078.51 409.275 2076.98 397.715C2075.61 387.323 2081.96 377.663 2091.55 374.668C2090.94 372.774 2090.42 370.834 2090 368.851C2089.23 369.049 2088.45 369.205 2087.64 369.316C2076.22 370.898 2065.72 362.809 2064.2 351.249C2062.67 339.689 2070.69 329.035 2082.12 327.453C2086.64 326.826 2091.02 327.717 2094.76 329.74C2095.65 327.92 2096.63 326.149 2097.7 324.434C2092.91 321.192 2089.47 315.963 2088.65 309.722C2087.12 298.162 2095.14 287.508 2106.57 285.926C2116.47 284.555 2125.67 290.446 2128.94 299.565C2131.18 298.812 2133.48 298.188 2135.84 297.703C2135.83 297.662 2135.82 297.621 2135.82 297.58C2134.29 286.02 2142.32 275.366 2153.74 273.784C2165.16 272.202 2175.66 280.29 2177.19 291.85C2177.74 296.01 2177.05 300.051 2175.41 303.596C2177 304.462 2178.54 305.401 2180.04 306.41C2183.26 301.604 2188.41 298.148 2194.53 297.3C2205.96 295.717 2216.46 303.806 2217.98 315.366C2219.35 325.692 2213.09 335.296 2203.6 338.355C2204.17 340.263 2204.66 342.216 2205.05 344.21C2205.79 344.022 2206.55 343.873 2207.32 343.766C2218.75 342.184 2229.24 350.273 2230.77 361.833C2232.3 373.393 2224.27 384.046 2212.85 385.629C2208.1 386.286 2203.52 385.274 2199.67 383.037C2198.76 384.829 2197.76 386.572 2196.67 388.258C2201.77 391.461 2205.46 396.862 2206.32 403.359C2207.85 414.919 2199.82 425.573 2188.4 427.155C2178.13 428.578 2168.61 422.184 2165.68 412.48C2163.81 413.103 2161.89 413.637 2159.93 414.073Z" fill="#191818"/>
<rect x="187.506" y="21.252" width="168" height="168" transform="rotate(7.29769 187.506 21.252)" fill="#FEF151"/>
<path fill-rule="evenodd" clip-rule="evenodd" d="M166.667 187.955C258.422 199.706 342.131 136.401 353.637 46.5598C353.806 45.2337 353.96 43.9091 354.096 42.5864C353.945 42.5667 353.794 42.5472 353.643 42.5278C261.888 30.7775 178.179 94.0825 166.674 183.923C166.504 185.25 166.351 186.574 166.214 187.897C166.365 187.917 166.516 187.936 166.667 187.955Z" fill="#7DEDA3"/>
<rect x="2407.97" y="305.653" width="168" height="168" transform="rotate(7.29769 2407.97 305.653)" fill="#191818"/>
<path fill-rule="evenodd" clip-rule="evenodd" d="M2387.13 472.357C2478.89 484.107 2562.6 420.802 2574.1 330.961C2574.27 329.635 2574.43 328.31 2574.56 326.988C2574.41 326.968 2574.26 326.949 2574.11 326.929C2482.35 315.179 2398.65 378.484 2387.14 468.325C2386.97 469.651 2386.82 470.975 2386.68 472.298C2386.83 472.318 2386.98 472.337 2387.13 472.357Z" fill="#7DEDA3"/>
<rect x="519.668" y="64.7998" width="168" height="167.998" transform="rotate(7.29769 519.668 64.7998)" fill="#191818"/>
<path d="M602.985 75.4679L617.778 114.322L658.776 107.416L641.762 145.35L675.635 169.457L636.78 184.25L643.686 225.247L605.752 208.233L581.645 242.105L566.852 203.251L525.855 210.157L542.868 172.223L508.996 148.117L547.85 133.324L540.944 92.3265L578.878 109.34L602.985 75.4679Z" fill="#4B88FF"/>
<rect x="2241.42" y="284.281" width="168" height="168" transform="rotate(7.29769 2241.42 284.281)" fill="#FEF151"/>
<rect x="2272.41" y="324.543" width="96" height="96" transform="rotate(7.29769 2272.41 324.543)" fill="#7DEDA3"/>
<rect x="2308.87" y="292.919" width="32" height="168" transform="rotate(7.29769 2308.87 292.919)" fill="#7DEDA3"/>
<rect x="2399.42" y="373.07" width="32" height="168" transform="rotate(97.2977 2399.42 373.07)" fill="#7DEDA3"/>
<rect x="686.126" y="85.1064" width="168" height="168" transform="rotate(7.29769 686.126 85.1064)" fill="#FEF151"/>
<path fill-rule="evenodd" clip-rule="evenodd" d="M771.272 236.238C771.464 237.013 771.616 237.807 771.723 238.618C773.249 250.178 765.226 260.832 753.802 262.414C742.378 263.996 731.88 255.907 730.354 244.347C729.749 239.768 730.643 235.331 732.653 231.544C730.609 230.522 728.628 229.382 726.72 228.131C723.54 233.302 718.193 237.057 711.772 237.947C700.349 239.529 689.851 231.44 688.325 219.88C686.952 209.488 693.298 199.828 702.893 196.833C702.283 194.939 701.763 192.999 701.338 191.016C700.572 191.214 699.787 191.37 698.985 191.481C687.562 193.063 677.064 184.974 675.537 173.414C674.011 161.854 682.034 151.2 693.458 149.618C697.983 148.991 702.363 149.882 706.098 151.905C706.99 150.085 707.971 148.314 709.038 146.599C704.25 143.357 700.811 138.128 699.987 131.887C698.461 120.327 706.484 109.673 717.908 108.091C727.807 106.72 737.011 112.611 740.285 121.73C742.519 120.977 744.819 120.353 747.176 119.868C747.17 119.827 747.165 119.786 747.159 119.745C745.633 108.185 753.657 97.5312 765.08 95.949C776.504 94.3668 787.002 102.455 788.528 114.015C789.077 118.175 788.39 122.216 786.753 125.761C788.339 126.627 789.883 127.567 791.38 128.575C794.602 123.769 799.75 120.313 805.875 119.465C817.298 117.883 827.796 125.971 829.323 137.531C830.686 147.857 824.429 157.461 814.936 160.521C815.512 162.428 815.998 164.381 816.388 166.375C817.129 166.187 817.887 166.038 818.662 165.931C830.086 164.349 840.584 172.438 842.11 183.998C843.636 195.558 835.613 206.211 824.189 207.794C819.443 208.451 814.856 207.439 811.007 205.202C810.096 206.994 809.097 208.737 808.015 210.423C813.112 213.626 816.804 219.027 817.662 225.524C819.189 237.084 811.165 247.738 799.741 249.32C789.472 250.743 779.95 244.349 777.022 234.645C775.15 235.269 773.231 235.802 771.272 236.238Z" fill="#7DEDA3"/>
<rect x="354.145" y="42.5928" width="168" height="168" transform="rotate(7.29769 354.145 42.5928)" fill="#7DEDA3"/>
<circle cx="426.795" cy="136.582" r="84" transform="rotate(7.29769 426.795 136.582)" fill="white"/>
<path d="M1349.36 254.929C1349.8 251.491 1350.81 248.206 1352.39 245.075C1354.03 241.898 1356.17 239.106 1358.79 236.7C1361.47 234.247 1364.58 232.44 1368.11 231.28C1371.65 230.067 1375.54 229.731 1379.77 230.273C1384.8 230.917 1388.96 232.633 1392.26 235.421C1395.57 238.157 1397.86 241.435 1399.15 245.256L1393.05 248.184C1392.24 245.661 1391.05 243.601 1389.48 242.002C1387.97 240.356 1386.25 239.114 1384.31 238.275C1382.43 237.442 1380.54 236.904 1378.63 236.66C1375.51 236.26 1372.65 236.54 1370.06 237.498C1367.51 238.462 1365.29 239.898 1363.38 241.804C1361.46 243.71 1359.92 245.931 1358.73 248.468C1357.61 250.958 1356.87 253.526 1356.54 256.171C1356.16 259.081 1356.28 261.946 1356.89 264.765C1357.55 267.592 1358.62 270.149 1360.1 272.436C1361.58 274.722 1363.43 276.626 1365.66 278.148C1367.88 279.67 1370.4 280.61 1373.2 280.969C1375.16 281.22 1377.21 281.133 1379.36 280.71C1381.51 280.286 1383.58 279.475 1385.56 278.277C1387.55 277.027 1389.22 275.305 1390.58 273.113L1396.11 277.128C1394.59 279.783 1392.49 281.933 1389.8 283.579C1387.12 285.225 1384.21 286.357 1381.06 286.976C1377.97 287.602 1374.97 287.728 1372.06 287.356C1368.2 286.861 1364.76 285.587 1361.74 283.534C1358.73 281.428 1356.21 278.847 1354.18 275.792C1352.22 272.69 1350.79 269.335 1349.91 265.727C1349.09 262.073 1348.9 258.473 1349.36 254.929ZM1420.32 293.858C1416.19 293.33 1412.67 291.884 1409.74 289.52C1406.88 287.11 1404.78 284.18 1403.45 280.729C1402.12 277.226 1401.7 273.57 1402.19 269.761C1402.68 265.899 1404.01 262.466 1406.17 259.463C1408.39 256.413 1411.18 254.11 1414.56 252.552C1417.99 250.948 1421.74 250.407 1425.81 250.929C1429.94 251.457 1433.44 252.926 1436.3 255.336C1439.22 257.7 1441.35 260.634 1442.67 264.137C1444.06 267.595 1444.5 271.254 1444.01 275.116C1443.52 278.925 1442.17 282.354 1439.95 285.404C1437.79 288.407 1435.02 290.714 1431.64 292.325C1428.27 293.882 1424.5 294.393 1420.32 293.858ZM1409.32 270.755C1408.96 273.611 1409.23 276.281 1410.15 278.765C1411.12 281.255 1412.55 283.32 1414.44 284.96C1416.33 286.546 1418.55 287.502 1421.09 287.828C1423.63 288.153 1426.02 287.76 1428.26 286.648C1430.55 285.544 1432.45 283.906 1433.97 281.734C1435.54 279.516 1436.51 276.979 1436.88 274.122C1437.24 271.265 1436.94 268.592 1435.97 266.102C1435.05 263.618 1433.62 261.553 1431.68 259.907C1429.79 258.267 1427.58 257.285 1425.04 256.96C1422.5 256.634 1420.11 257.054 1417.86 258.218C1415.62 259.329 1413.72 260.967 1412.15 263.132C1410.64 265.304 1409.69 267.845 1409.32 270.755ZM1485.77 301.434L1478.79 300.54L1481.76 277.369C1482.32 272.979 1482.04 269.69 1480.93 267.504C1479.87 265.271 1477.96 263.979 1475.21 263.626C1473.31 263.383 1471.34 263.615 1469.32 264.323C1467.34 265.038 1465.51 266.121 1463.82 267.571C1462.19 268.975 1460.92 270.695 1460.01 272.729L1456.81 297.725L1449.83 296.831L1455.13 255.409L1461.48 256.222L1460.34 265.11C1462.36 262.41 1465.01 260.384 1468.3 259.031C1471.64 257.685 1475.14 257.246 1478.79 257.713C1482.02 258.127 1484.41 259.212 1485.96 260.97C1487.57 262.681 1488.57 264.907 1488.97 267.647C1489.38 270.334 1489.37 273.344 1488.95 276.677L1485.77 301.434ZM1517.94 303.456C1517.04 303.718 1515.62 304.074 1513.69 304.525C1511.8 304.982 1509.74 305.069 1507.52 304.784C1504.98 304.459 1502.88 303.49 1501.2 301.877C1499.53 300.212 1498.89 297.898 1499.27 294.936L1502.83 267.083L1497.2 266.362L1497.9 260.886L1503.53 261.608L1505.3 247.801L1512.29 248.695L1510.52 262.502L1519.8 263.691L1519.1 269.166L1509.82 267.977L1506.52 293.687C1506.44 295.182 1506.8 296.357 1507.6 297.213C1508.42 298.016 1509.43 298.495 1510.65 298.651C1512.02 298.827 1513.32 298.752 1514.55 298.425C1515.77 298.098 1516.58 297.852 1516.98 297.688L1517.94 303.456ZM1522.42 293.949C1522.76 291.304 1523.79 289.124 1525.52 287.409C1527.3 285.649 1529.59 284.409 1532.37 283.689C1535.15 282.97 1538.28 282.834 1541.78 283.281C1543.63 283.518 1545.56 283.927 1547.59 284.509C1549.62 285.038 1551.39 285.695 1552.9 286.48L1553.29 283.465C1553.69 280.29 1553.06 277.682 1551.38 275.64C1549.72 273.544 1547.14 272.273 1543.65 271.826C1541.37 271.534 1539.12 271.677 1536.9 272.252C1534.73 272.781 1532.39 273.664 1529.86 274.9L1527.96 269.655C1530.89 268.149 1533.76 267.119 1536.58 266.565C1539.4 265.958 1542.26 265.841 1545.17 266.214C1550.46 266.891 1554.45 268.908 1557.14 272.263C1559.84 275.566 1560.85 279.836 1560.18 285.073L1557.93 302.61C1557.72 304.25 1558.35 305.191 1559.83 305.434L1559.14 310.829C1558.44 310.847 1557.82 310.849 1557.28 310.834C1556.8 310.826 1556.4 310.801 1556.08 310.761C1554.44 310.551 1553.26 309.942 1552.52 308.934C1551.85 307.933 1551.52 306.923 1551.54 305.905L1551.72 303.266C1549.62 305.363 1547.04 306.86 1543.96 307.757C1540.89 308.654 1537.93 308.92 1535.07 308.554C1532.32 308.202 1529.93 307.331 1527.91 305.943C1525.89 304.501 1524.39 302.75 1523.42 300.69C1522.45 298.577 1522.12 296.33 1522.42 293.949ZM1549.03 300.34C1549.76 299.681 1550.36 299.005 1550.82 298.312C1551.29 297.565 1551.56 296.928 1551.63 296.399L1552.29 291.241C1549.07 289.485 1545.67 288.376 1542.07 287.916C1538.53 287.462 1535.55 287.807 1533.15 288.951C1530.8 290.048 1529.47 291.814 1529.16 294.247C1528.99 295.57 1529.17 296.91 1529.69 298.268C1530.28 299.579 1531.21 300.72 1532.48 301.69C1533.81 302.666 1535.5 303.286 1537.57 303.551C1539.74 303.828 1541.85 303.669 1543.92 303.074C1545.99 302.425 1547.69 301.514 1549.03 300.34ZM1586.31 315.116C1582.18 314.587 1578.66 313.141 1575.74 310.777C1572.82 308.361 1570.67 305.397 1569.29 301.887C1567.91 298.377 1567.47 294.691 1567.97 290.829C1568.47 286.914 1569.8 283.455 1571.96 280.452C1574.12 277.448 1576.9 275.198 1580.32 273.7C1583.75 272.149 1587.55 271.641 1591.73 272.176C1595.8 272.698 1599.23 274.077 1602.01 276.315C1604.84 278.507 1606.81 281.232 1607.9 284.49L1600.8 285.758C1599.99 283.665 1598.7 281.968 1596.93 280.666C1595.17 279.311 1593.12 278.485 1590.8 278.187C1588.26 277.861 1585.85 278.225 1583.56 279.276C1581.33 280.334 1579.45 281.95 1577.94 284.121C1576.43 286.24 1575.49 288.781 1575.11 291.744C1574.74 294.653 1575.01 297.376 1575.92 299.912C1576.89 302.403 1578.32 304.468 1580.2 306.107C1582.14 307.754 1584.38 308.739 1586.92 309.065C1588.56 309.275 1590.16 309.184 1591.72 308.791C1593.33 308.406 1594.75 307.808 1595.98 306.998C1597.27 306.142 1598.2 305.159 1598.78 304.05L1605.34 306.987C1603.73 309.846 1601.19 312.048 1597.72 313.592C1594.29 315.143 1590.49 315.651 1586.31 315.116ZM1633.71 318.282C1632.81 318.544 1631.4 318.9 1629.46 319.351C1627.57 319.808 1625.52 319.895 1623.3 319.61C1620.76 319.285 1618.65 318.316 1616.97 316.704C1615.3 315.038 1614.66 312.724 1615.04 309.762L1618.61 281.909L1612.97 281.188L1613.67 275.712L1619.31 276.434L1621.08 262.627L1628.06 263.521L1626.29 277.328L1635.57 278.517L1634.87 283.992L1625.59 282.803L1622.3 308.514C1622.21 310.008 1622.57 311.184 1623.38 312.039C1624.19 312.842 1625.2 313.322 1626.42 313.477C1627.8 313.654 1629.1 313.578 1630.32 313.251C1631.55 312.924 1632.36 312.678 1632.75 312.514L1633.71 318.282Z" fill="#7DEDA3"/>
</svg>
