<svg width="2911" height="506" viewBox="0 0 2911 506" fill="none" xmlns="http://www.w3.org/2000/svg">
<rect x="19.418" y="2.18945" width="2910" height="168" transform="rotate(6.63726 19.418 2.18945)" fill="#7DEDA3"/>
<rect x="520.295" y="58.2539" width="168" height="168" transform="rotate(6.63726 520.295 58.2539)" fill="#4B88FF"/>
<rect x="583.866" y="65.6514" width="40" height="168" transform="rotate(6.63726 583.866 65.6514)" fill="#FEF151"/>
<rect x="508.274" y="161.557" width="40" height="168" transform="rotate(-83.3627 508.274 161.557)" fill="#FEF151"/>
<rect x="548.382" y="93.7383" width="105" height="105" transform="rotate(6.63726 548.382 93.7383)" fill="#FEF151"/>
<path d="M2074.81 239.142L2241.68 258.56L2222.26 425.434L2055.39 406.016L2074.81 239.142Z" fill="#191818"/>
<rect x="2138.38" y="246.539" width="40" height="168" transform="rotate(6.63726 2138.38 246.539)" fill="#FEF151"/>
<rect x="2062.79" y="342.444" width="40" height="168" transform="rotate(-83.3627 2062.79 342.444)" fill="#FEF151"/>
<rect x="2102.89" y="274.626" width="105" height="105" transform="rotate(6.63726 2102.89 274.626)" fill="#FEF151"/>
<rect x="352.428" y="38.7207" width="168" height="168" transform="rotate(6.63726 352.428 38.7207)" fill="#191818"/>
<path fill-rule="evenodd" clip-rule="evenodd" d="M333.512 205.653C425.396 216.345 508.37 152.079 518.839 62.1113C518.994 60.7835 519.132 59.4575 519.253 58.1336C519.102 58.1156 518.95 58.0978 518.799 58.0802C426.915 47.3882 343.941 111.654 333.472 201.622C333.318 202.95 333.18 204.276 333.058 205.6C333.21 205.618 333.361 205.636 333.512 205.653Z" fill="#7DEDA3"/>
<rect x="2576.42" y="297.511" width="168" height="168" transform="rotate(6.63726 2576.42 297.511)" fill="#4B88FF"/>
<path fill-rule="evenodd" clip-rule="evenodd" d="M2557.51 464.443C2649.39 475.135 2732.36 410.869 2742.83 320.901C2742.99 319.574 2743.13 318.248 2743.25 316.924C2743.1 316.906 2742.94 316.888 2742.79 316.87C2650.91 306.178 2567.93 370.444 2557.47 460.412C2557.31 461.74 2557.17 463.066 2557.05 464.39C2557.2 464.408 2557.35 464.426 2557.51 464.443Z" fill="#191818"/>
<rect x="687.169" y="77.6719" width="168" height="168" transform="rotate(6.63726 687.169 77.6719)" fill="white"/>
<path d="M770.583 87.584L776.496 142.996L826.738 118.887L791.737 162.251L844.311 180.73L788.898 186.643L813.007 236.885L769.643 201.884L751.165 254.458L745.251 199.046L695.009 223.155L730.01 179.791L677.437 161.312L732.849 155.399L708.74 105.157L752.104 140.158L770.583 87.584Z" fill="#7DEDA3"/>
<rect x="2743.3" y="316.929" width="168" height="168" transform="rotate(6.63726 2743.3 316.929)" fill="white"/>
<path d="M2826.62 327.631L2832.53 383.043L2882.77 358.934L2847.77 402.298L2900.34 420.777L2844.93 426.69L2869.04 476.932L2825.68 441.931L2807.2 494.505L2801.29 439.093L2751.04 463.201L2786.04 419.838L2733.47 401.359L2788.88 395.446L2764.77 345.204L2808.14 380.205L2826.62 327.631Z" fill="#7DEDA3"/>
<rect x="2241.68" y="258.56" width="168" height="168" transform="rotate(6.63726 2241.68 258.56)" fill="#FEF151"/>
<path d="M2325.12 268.269L2331.07 323.361L2381.29 299.427L2346.32 342.514L2398.9 360.921L2343.5 366.762L2367.64 416.727L2324.26 381.901L2305.81 434.155L2299.86 379.063L2249.64 402.996L2284.61 359.91L2232.03 341.503L2287.43 335.662L2263.29 285.697L2306.68 320.523L2325.12 268.269Z" fill="#4B88FF"/>
<rect x="19.6729" width="168" height="168" transform="rotate(6.63726 19.6729 0)" fill="#FEF151"/>
<circle cx="93.4009" cy="93.146" r="84" transform="rotate(6.63726 93.4009 93.146)" fill="white"/>
<rect x="2409.55" y="278.093" width="168" height="168" transform="rotate(6.63726 2409.55 278.093)" fill="#191818"/>
<path d="M2492.49 287.744C2514.75 290.335 2535.07 301.609 2548.99 319.089C2562.91 336.568 2569.29 358.819 2566.71 380.948C2564.14 403.077 2552.83 423.27 2535.26 437.086C2517.7 450.902 2495.33 457.209 2473.07 454.618L2482.78 371.181L2492.49 287.744Z" fill="#7DEDA3"/>
<path d="M2408.06 277.92C2430.32 280.51 2450.64 291.785 2464.56 309.264C2478.48 326.743 2484.86 348.995 2482.28 371.124C2479.71 393.253 2468.39 413.446 2450.83 427.262C2433.27 441.078 2410.9 447.384 2388.64 444.794L2398.35 361.357L2408.06 277.92Z" fill="#7DEDA3"/>
<rect x="186.547" y="19.418" width="168" height="168" transform="rotate(6.63726 186.547 19.418)" fill="#7DEDA3"/>
<path d="M253.949 48.884C253.631 47.5292 253.173 46.186 252.571 44.8724C247.694 34.2485 235.129 29.5892 224.505 34.4655C213.881 39.3418 209.222 51.9073 214.098 62.5311C214.701 63.8449 215.422 65.0674 216.242 66.192C214.278 68.0394 212.443 69.9977 210.743 72.0518C209.579 71.3361 208.327 70.7234 206.997 70.2302C196.037 66.166 183.857 71.7564 179.793 82.7167C175.729 93.6764 181.319 105.856 192.28 109.92C193.455 110.356 194.644 110.681 195.836 110.9C195.724 113.595 195.78 116.307 196.009 119.023C194.895 119.326 193.79 119.724 192.706 120.222C182.082 125.098 177.422 137.664 182.299 148.287C187.175 158.912 199.741 163.571 210.365 158.694C211.209 158.307 212.016 157.871 212.783 157.391C214.743 159.538 216.833 161.537 219.036 163.381C218.625 164.167 218.259 164.988 217.943 165.843C213.878 176.802 219.469 188.982 230.429 193.046C241.389 197.11 253.569 191.52 257.633 180.56C257.884 179.884 258.098 179.203 258.276 178.519C261.273 178.639 264.291 178.55 267.311 178.246C267.529 178.865 267.776 179.479 268.055 180.087C272.932 190.711 285.497 195.37 296.121 190.494C306.745 185.617 311.404 173.052 306.528 162.428C306.249 161.821 305.945 161.232 305.618 160.664C307.789 158.6 309.8 156.399 311.644 154.083C312.261 154.382 312.897 154.654 313.553 154.897C324.513 158.961 336.693 153.371 340.757 142.411C344.821 131.451 339.23 119.272 328.271 115.207C327.459 114.907 326.642 114.659 325.821 114.462C325.864 111.559 325.712 108.639 325.357 105.721C326.222 105.452 327.078 105.125 327.923 104.737C338.546 99.8608 343.206 87.2957 338.329 76.6716C333.453 66.0477 320.888 61.3885 310.263 66.2648C309.18 66.7624 308.157 67.3401 307.201 67.9877C305.273 66.0247 303.233 64.1977 301.095 62.5124C301.679 61.4977 302.187 60.4206 302.607 59.2859C306.671 48.3258 301.081 36.1461 290.121 32.082C279.161 28.0179 266.981 33.6083 262.917 44.5685C262.431 45.8778 262.083 47.2046 261.866 48.5329C259.237 48.4881 256.593 48.6033 253.949 48.884Z" fill="#FEF151"/>
<path d="M1349.88 240.768C1350.28 237.324 1351.25 234.028 1352.8 230.879C1354.41 227.683 1356.51 224.867 1359.1 222.431C1361.75 219.947 1364.84 218.105 1368.36 216.904C1371.89 215.65 1375.77 215.27 1380.01 215.763C1385.04 216.348 1389.23 218.016 1392.56 220.766C1395.89 223.464 1398.23 226.715 1399.56 230.521L1393.49 233.52C1392.65 231.006 1391.44 228.959 1389.85 227.378C1388.33 225.751 1386.59 224.528 1384.64 223.711C1382.75 222.901 1380.85 222.384 1378.94 222.162C1375.82 221.799 1372.96 222.111 1370.38 223.099C1367.85 224.093 1365.64 225.554 1363.75 227.482C1361.86 229.409 1360.34 231.648 1359.18 234.199C1358.08 236.702 1357.38 239.278 1357.07 241.927C1356.73 244.841 1356.88 247.704 1357.52 250.516C1358.22 253.335 1359.32 255.88 1360.82 258.149C1362.33 260.419 1364.21 262.301 1366.45 263.797C1368.69 265.293 1371.22 266.204 1374.02 266.531C1375.98 266.759 1378.04 266.649 1380.18 266.201C1382.33 265.752 1384.39 264.918 1386.35 263.697C1388.33 262.423 1389.98 260.683 1391.31 258.475L1396.89 262.426C1395.4 265.099 1393.32 267.273 1390.66 268.949C1387.99 270.626 1385.09 271.792 1381.95 272.447C1378.87 273.108 1375.87 273.27 1372.96 272.93C1369.09 272.48 1365.64 271.246 1362.59 269.228C1359.56 267.157 1357.01 264.605 1354.95 261.573C1352.94 258.494 1351.48 255.156 1350.56 251.558C1349.69 247.914 1349.47 244.317 1349.88 240.768ZM1421.28 278.876C1417.15 278.395 1413.61 276.99 1410.66 274.66C1407.77 272.283 1405.64 269.377 1404.27 265.942C1402.9 262.454 1402.44 258.803 1402.88 254.989C1403.33 251.122 1404.62 247.674 1406.74 244.646C1408.93 241.571 1411.7 239.236 1415.05 237.639C1418.46 235.996 1422.21 235.412 1426.29 235.886C1430.42 236.367 1433.93 237.796 1436.82 240.173C1439.77 242.503 1441.93 245.412 1443.3 248.9C1444.72 252.341 1445.21 255.995 1444.76 259.862C1444.32 263.676 1443 267.121 1440.82 270.196C1438.69 273.224 1435.95 275.563 1432.59 277.212C1429.24 278.808 1425.47 279.363 1421.28 278.876ZM1410.02 255.901C1409.69 258.761 1410 261.428 1410.95 263.901C1411.95 266.38 1413.4 268.428 1415.3 270.046C1417.22 271.611 1419.44 272.541 1421.99 272.837C1424.53 273.133 1426.91 272.712 1429.14 271.575C1431.42 270.445 1433.3 268.785 1434.79 266.595C1436.34 264.359 1437.28 261.811 1437.62 258.95C1437.95 256.09 1437.62 253.42 1436.62 250.941C1435.67 248.468 1434.22 246.42 1432.26 244.796C1430.35 243.178 1428.13 242.221 1425.58 241.926C1423.04 241.63 1420.65 242.077 1418.42 243.267C1416.19 244.404 1414.31 246.064 1412.77 248.247C1411.28 250.436 1410.36 252.987 1410.02 255.901ZM1486.83 285.697L1479.83 284.884L1482.53 261.68C1483.04 257.283 1482.73 253.998 1481.59 251.825C1480.5 249.605 1478.58 248.334 1475.83 248.014C1473.92 247.792 1471.96 248.047 1469.94 248.778C1467.97 249.516 1466.16 250.62 1464.48 252.089C1462.87 253.512 1461.62 255.246 1460.73 257.291L1457.82 282.322L1450.83 281.509L1455.66 240.029L1462.01 240.768L1460.98 249.668C1462.96 246.946 1465.59 244.889 1468.86 243.498C1472.19 242.114 1475.68 241.634 1479.34 242.06C1482.57 242.436 1484.97 243.494 1486.54 245.233C1488.17 246.926 1489.2 249.14 1489.63 251.875C1490.07 254.557 1490.1 257.567 1489.71 260.905L1486.83 285.697ZM1519.01 287.348C1518.12 287.62 1516.7 287.993 1514.77 288.466C1512.89 288.945 1510.84 289.055 1508.61 288.796C1506.07 288.5 1503.95 287.556 1502.26 285.963C1500.57 284.317 1499.9 282.01 1500.24 279.043L1503.49 251.152L1497.85 250.495L1498.48 245.012L1504.13 245.669L1505.73 231.842L1512.73 232.656L1511.12 246.482L1520.42 247.564L1519.78 253.047L1510.48 251.965L1507.48 277.712C1507.42 279.207 1507.79 280.378 1508.61 281.225C1509.43 282.018 1510.45 282.486 1511.66 282.628C1513.04 282.788 1514.34 282.698 1515.56 282.356C1516.78 282.015 1517.59 281.76 1517.99 281.592L1519.01 287.348ZM1523.39 277.79C1523.69 275.141 1524.7 272.95 1526.41 271.215C1528.17 269.434 1530.44 268.168 1533.21 267.416C1535.98 266.665 1539.12 266.493 1542.61 266.9C1544.47 267.115 1546.41 267.502 1548.44 268.061C1550.47 268.566 1552.25 269.202 1553.77 269.97L1554.13 266.95C1554.5 263.772 1553.83 261.171 1552.13 259.148C1550.44 257.072 1547.85 255.83 1544.35 255.424C1542.07 255.159 1539.83 255.327 1537.61 255.928C1535.45 256.482 1533.12 257.391 1530.61 258.657L1528.64 253.434C1531.55 251.894 1534.42 250.831 1537.22 250.245C1540.04 249.606 1542.9 249.456 1545.81 249.795C1551.11 250.411 1555.12 252.381 1557.85 255.706C1560.58 258.977 1561.65 263.235 1561.04 268.479L1558.99 286.041C1558.8 287.683 1559.44 288.617 1560.92 288.843L1560.29 294.246C1559.59 294.272 1558.97 294.281 1558.44 294.272C1557.95 294.269 1557.55 294.25 1557.24 294.213C1555.59 294.022 1554.4 293.426 1553.66 292.427C1552.97 291.434 1552.63 290.428 1552.64 289.409L1552.79 286.768C1550.71 288.89 1548.15 290.417 1545.08 291.349C1542.02 292.281 1539.06 292.581 1536.2 292.248C1533.45 291.928 1531.05 291.085 1529.01 289.72C1526.97 288.301 1525.45 286.568 1524.46 284.519C1523.47 282.417 1523.11 280.174 1523.39 277.79ZM1550.06 283.874C1550.78 283.207 1551.37 282.523 1551.83 281.825C1552.29 281.073 1552.56 280.433 1552.62 279.903L1553.22 274.738C1549.98 273.019 1546.56 271.95 1542.96 271.531C1539.41 271.118 1536.44 271.497 1534.05 272.668C1531.72 273.793 1530.41 275.574 1530.13 278.011C1529.97 279.335 1530.17 280.673 1530.71 282.025C1531.31 283.329 1532.25 284.459 1533.53 285.414C1534.87 286.375 1536.57 286.976 1538.64 287.216C1540.81 287.469 1542.93 287.286 1544.99 286.666C1547.05 285.994 1548.74 285.063 1550.06 283.874ZM1587.51 298.219C1583.38 297.738 1579.84 296.333 1576.89 294.003C1573.94 291.62 1571.76 288.681 1570.34 285.187C1568.92 281.693 1568.44 278.012 1568.89 274.145C1569.35 270.225 1570.64 266.751 1572.76 263.723C1574.88 260.695 1577.65 258.412 1581.05 256.875C1584.45 255.284 1588.25 254.733 1592.44 255.22C1596.51 255.694 1599.96 257.035 1602.76 259.24C1605.62 261.399 1607.62 264.101 1608.74 267.346L1601.66 268.696C1600.83 266.613 1599.52 264.93 1597.74 263.649C1595.96 262.315 1593.9 261.512 1591.57 261.241C1589.03 260.945 1586.62 261.336 1584.35 262.413C1582.13 263.497 1580.27 265.134 1578.78 267.323C1577.3 269.459 1576.39 272.011 1576.04 274.977C1575.7 277.891 1576 280.611 1576.94 283.136C1577.94 285.615 1579.4 287.664 1581.3 289.281C1583.26 290.905 1585.51 291.865 1588.06 292.161C1589.7 292.352 1591.29 292.243 1592.85 291.833C1594.45 291.429 1595.86 290.815 1597.09 289.991C1598.37 289.12 1599.29 288.126 1599.85 287.01L1606.44 289.871C1604.87 292.749 1602.36 294.98 1598.9 296.564C1595.49 298.154 1591.7 298.706 1587.51 298.219ZM1634.94 300.839C1634.05 301.111 1632.64 301.484 1630.71 301.957C1628.83 302.436 1626.77 302.546 1624.55 302.287C1622 301.991 1619.89 301.046 1618.19 299.453C1616.5 297.807 1615.83 295.501 1616.18 292.534L1619.42 264.642L1613.78 263.986L1614.42 258.503L1620.06 259.159L1621.67 245.333L1628.66 246.146L1627.05 259.973L1636.35 261.055L1635.71 266.538L1626.42 265.456L1623.42 291.202C1623.35 292.698 1623.73 293.869 1624.54 294.716C1625.36 295.509 1626.38 295.977 1627.6 296.118C1628.98 296.279 1630.28 296.188 1631.5 295.847C1632.72 295.506 1633.53 295.251 1633.92 295.082L1634.94 300.839Z" fill="black"/>
</svg>
