<svg width="266" height="180" viewBox="0 0 266 180" fill="none" xmlns="http://www.w3.org/2000/svg">
<path d="M148.631 145.741C85.9631 163.381 18.8239 121.815 18.8239 121.815C18.8239 121.815 54.3227 51.3529 116.991 33.7133C179.659 16.0737 246.88 57.5039 246.88 57.5039C246.88 57.5039 211.299 128.102 148.631 145.741Z" fill="#A3E9FF"/>
<path d="M73.1681 111.111L70.7304 111.666L67.1254 95.8208L69.5631 95.2661L73.1681 111.111ZM64.0816 110.615L62.8627 110.892L62.5854 109.673L60.1477 110.228L60.425 111.447L59.2062 111.724L59.4835 112.943L57.0458 113.497L56.7685 112.279L57.9873 112.001L57.71 110.782L58.9288 110.505L58.6515 109.286L59.8704 109.009L57.6519 99.2581L60.0896 98.7035L62.3081 108.454L63.5269 108.177L63.8042 109.396L65.0231 109.119L65.3004 110.337L66.5193 110.06L66.7966 111.279L64.3589 111.834L64.0816 110.615ZM88.5682 99.9157L86.1305 100.47L85.2985 96.8138L84.0797 97.0911L84.6343 99.5288L83.4155 99.8061L83.6928 101.025L76.3797 102.689L76.1024 101.47L74.8835 101.747L73.2196 94.4342L82.9704 92.2157L83.8024 95.8723L85.0212 95.595L84.1893 91.9384L86.627 91.3838L88.5682 99.9157ZM90.2835 90.5518L92.2247 99.0838L89.787 99.6384L87.8458 91.1065L90.2835 90.5518ZM77.3212 101.193L82.1966 100.083L80.81 93.9892L75.9346 95.0984L77.3212 101.193ZM80.2039 108.228L93.6113 105.178L93.8886 106.397L79.2624 109.725L78.9851 108.506L77.7662 108.783L76.657 103.908L79.0947 103.353L80.2039 108.228ZM104.413 96.3107L95.8813 98.2519L95.604 97.033L94.3851 97.3103L92.7212 89.9972L102.472 87.7787L102.749 88.9976L95.4363 90.6614L95.9909 93.0991L103.304 91.4353L103.581 92.6541L96.2682 94.318L96.8228 96.7557L104.136 95.0918L104.413 96.3107ZM110.507 94.9241L108.07 95.4787L106.129 86.9468L108.566 86.3921L110.507 94.9241ZM111.894 101.018L110.675 101.296L110.953 102.515L109.734 102.792L108.624 97.9164L96.4359 100.69L96.1586 99.4707L110.785 96.143L111.894 101.018ZM136.381 90.3194L136.103 89.1005L137.322 88.8232L135.936 82.729L123.747 85.5021L123.47 84.2833L138.096 80.9555L139.76 88.2686L138.541 88.5459L138.818 89.7648L141.256 89.2101L141.533 90.429L134.22 92.0929L135.33 96.9683L132.892 97.5229L131.783 92.6475L124.469 94.3114L124.192 93.0925L136.381 90.3194ZM159.539 85.0505L154.663 86.1597L154.386 84.9409L153.167 85.2182L152.89 83.9993L150.452 84.5539L150.73 85.7728L149.511 86.0501L149.788 87.269L144.913 88.3782L144.635 87.1594L148.292 86.3274L148.015 85.1086L149.233 84.8313L148.956 83.6124L150.175 83.3351L149.343 79.6785L143.249 81.0651L142.971 79.8463L157.598 76.5185L157.875 77.7374L151.781 79.1239L152.613 82.7805L153.832 82.5032L154.109 83.722L155.328 83.4447L155.605 84.6635L159.262 83.8316L159.539 85.0505ZM154.277 90.0936L161.59 88.4297L161.867 89.6485L144.803 93.5309L144.526 92.3121L151.839 90.6482L151.007 86.9916L153.445 86.437L154.277 90.0936ZM190.178 84.4892L187.74 85.0438L184.135 69.1988L186.573 68.6442L190.178 84.4892ZM181.369 85.2116L176.493 86.3208L176.216 85.1019L174.997 85.3793L174.72 84.1604L173.501 84.4377L171.56 75.9058L172.778 75.6285L172.501 74.4096L173.72 74.1323L173.443 72.9134L178.318 71.8042L178.595 73.023L179.814 72.7457L180.092 73.9646L181.31 73.6873L183.252 82.2192L182.033 82.4965L182.31 83.7154L181.091 83.9927L181.369 85.2116ZM175.216 75.0738L173.997 75.3511L175.939 83.8831L177.157 83.6058L177.435 84.8246L179.872 84.27L179.595 83.0512L180.814 82.7738L178.873 74.2419L177.654 74.5192L177.377 73.3004L174.939 73.855L175.216 75.0738ZM196.601 67.6445L200.257 66.8126L200.535 68.0314L190.784 70.2499L190.507 69.0311L194.163 68.1991L193.886 66.9803L196.324 66.4257L196.601 67.6445ZM207.242 80.6068L204.804 81.1615L201.199 65.3164L203.637 64.7618L205.301 72.0749L206.519 71.7976L204.856 64.4845L207.293 63.9298L210.898 79.7749L208.461 80.3295L206.797 73.0164L205.578 73.2937L207.242 80.6068ZM200.87 80.7746L195.995 81.8838L195.717 80.665L194.499 80.9423L194.221 79.7234L193.002 80.0007L191.616 73.9065L192.835 73.6292L192.557 72.4103L193.776 72.133L193.499 70.9141L198.374 69.8049L198.652 71.0237L199.871 70.7464L200.148 71.9653L201.367 71.688L202.753 77.7822L201.534 78.0595L201.812 79.2784L200.593 79.5557L200.87 80.7746ZM195.272 73.0745L194.054 73.3518L195.44 79.4461L196.659 79.1688L196.936 80.3876L199.374 79.833L199.097 78.6142L200.316 78.3368L198.929 72.2426L197.71 72.5199L197.433 71.3011L194.995 71.8557L195.272 73.0745Z" fill="black"/>
</svg>
