<svg width="184" height="184" viewBox="0 0 184 184" fill="none" xmlns="http://www.w3.org/2000/svg">
<path d="M77.0566 23.5235C76.5389 22.09 75.8714 20.6865 75.0495 19.3338C68.3995 8.39344 54.14 4.91519 43.1995 11.565C32.259 18.2149 28.7807 32.4746 35.4306 43.415C36.2529 44.7679 37.1916 46.0066 38.226 47.1263C36.3236 49.3847 34.5755 51.7473 32.9858 54.1973C31.6285 53.566 30.1897 53.0579 28.6801 52.6897C16.2421 49.6558 3.69957 57.2794 0.665671 69.7175C-2.36823 82.1551 5.2554 94.6976 17.6934 97.7312C19.0272 98.0567 20.3623 98.2596 21.6867 98.347C21.906 101.293 22.3102 104.237 22.9034 107.162C21.7292 107.633 20.5778 108.206 19.4611 108.885C8.52065 115.535 5.04232 129.794 11.6922 140.735C18.3421 151.675 32.602 155.153 43.5424 148.503C44.4121 147.975 45.2345 147.398 46.0086 146.779C48.4125 148.867 50.9396 150.777 53.569 152.504C53.2217 153.411 52.9276 154.351 52.6913 155.321C49.6574 167.758 57.2807 180.301 69.7189 183.334C82.1571 186.368 94.6997 178.745 97.7334 166.307C97.9209 165.539 98.0673 164.772 98.1744 164.006C101.45 163.756 104.723 163.277 107.969 162.564C108.284 163.21 108.632 163.847 109.012 164.473C115.662 175.413 129.922 178.892 140.862 172.242C151.802 165.592 155.281 151.332 148.631 140.392C148.251 139.766 147.846 139.165 147.417 138.588C149.518 136.068 151.427 133.419 153.141 130.665C153.849 130.913 154.576 131.128 155.32 131.31C167.758 134.343 180.301 126.72 183.334 114.282C186.368 101.844 178.745 89.3021 166.307 86.2679C165.386 86.0436 164.465 85.8774 163.548 85.7672C163.227 82.6036 162.692 79.4464 161.937 76.3169C162.843 75.9147 163.733 75.4502 164.603 74.9218C175.543 68.2718 179.022 54.0124 172.372 43.0718C165.722 32.1314 151.462 28.6533 140.521 35.3031C139.405 35.9817 138.366 36.7396 137.408 37.5651C135.062 35.6737 132.611 33.9444 130.072 32.3816C130.579 31.2037 130.995 29.9677 131.309 28.68C134.343 16.2421 126.719 3.69955 114.281 0.665664C101.843 -2.36822 89.3004 5.25541 86.2668 17.6934C85.904 19.1793 85.6936 20.6667 85.6254 22.1393C82.759 22.4234 79.8975 22.8835 77.0566 23.5235Z" fill="#FDACFF"/>
</svg>
