<svg width="661" height="661" viewBox="0 0 661 661" fill="none" xmlns="http://www.w3.org/2000/svg">
<path d="M276.818 84.5057C274.958 79.3558 272.56 74.314 269.607 69.4546C245.718 30.1525 194.492 17.6573 155.189 41.5461C115.887 65.4349 103.392 116.661 127.28 155.964C130.235 160.824 133.607 165.274 137.323 169.296C130.488 177.409 124.209 185.897 118.498 194.698C113.622 192.43 108.453 190.605 103.03 189.282C58.3479 178.383 13.2903 205.77 2.39135 250.452C-8.50761 295.133 18.8794 340.191 63.5617 351.089C68.3532 352.258 73.1493 352.987 77.9069 353.301C78.6948 363.883 80.1468 374.46 82.278 384.969C78.0596 386.659 73.9236 388.718 69.9119 391.158C30.6095 415.045 18.114 466.272 42.003 505.574C65.8919 544.877 117.119 557.371 156.421 533.482C159.546 531.583 162.5 529.513 165.281 527.287C173.917 534.789 182.995 541.651 192.441 547.853C191.193 551.114 190.137 554.489 189.288 557.972C178.389 602.653 205.775 647.71 250.458 658.608C295.141 669.508 340.198 642.121 351.096 597.44C351.77 594.683 352.296 591.925 352.681 589.173C364.448 588.276 376.205 586.556 387.868 583.995C388.999 586.314 390.247 588.603 391.613 590.852C415.503 630.153 466.73 642.649 506.032 618.76C545.334 594.87 557.83 543.645 533.94 504.341C532.574 502.095 531.12 499.934 529.581 497.864C537.126 488.809 543.987 479.292 550.141 469.401C552.686 470.291 555.296 471.064 557.97 471.716C602.652 482.614 647.71 455.229 658.608 410.546C669.508 365.864 642.121 320.808 597.44 309.908C594.133 309.102 590.824 308.505 587.527 308.109C586.375 296.744 584.452 285.402 581.74 274.16C584.995 272.715 588.193 271.047 591.318 269.148C630.62 245.259 643.116 194.034 619.226 154.731C595.337 115.429 544.111 102.934 504.807 126.823C500.798 129.26 497.065 131.983 493.624 134.948C485.197 128.154 476.39 121.942 467.268 116.328C469.09 112.096 470.584 107.656 471.711 103.03C482.611 58.3479 455.224 13.2902 410.543 2.39133C365.86 -8.50757 320.802 18.8795 309.904 63.5615C308.601 68.8995 307.845 74.243 307.6 79.533C297.303 80.5537 287.023 82.2065 276.818 84.5057Z" fill="#FDD337"/>
</svg>
