<svg width="185" height="185" viewBox="0 0 185 185" fill="none" xmlns="http://www.w3.org/2000/svg">
<path d="M77.5469 24.0138C77.0291 22.5802 76.3617 21.1767 75.5397 19.8241C68.8897 8.88368 54.6302 5.40542 43.6897 12.0553C32.7492 18.7051 29.271 32.9648 35.9208 43.9052C36.7432 45.2581 37.6819 46.4969 38.7162 47.6165C36.8138 49.8749 35.0657 52.2375 33.476 54.6875C32.1187 54.0563 30.68 53.5481 29.1703 53.1799C16.7323 50.146 4.18981 57.7696 1.15591 70.2077C-1.878 82.6453 5.74563 95.1878 18.1837 98.2215C19.5175 98.5469 20.8525 98.7499 22.1769 98.8372C22.3962 101.783 22.8004 104.727 23.3936 107.653C22.2194 108.123 21.0681 108.696 19.9513 109.375C9.01088 116.025 5.53256 130.285 12.1824 141.225C18.8323 152.166 33.0922 155.643 44.0326 148.993C44.9023 148.465 45.7248 147.889 46.4988 147.269C48.9028 149.357 51.4299 151.268 54.0592 152.994C53.7119 153.902 53.4179 154.841 53.1816 155.811C50.1476 168.248 57.771 180.791 70.2092 183.824C82.6473 186.859 95.1899 179.235 98.2236 166.797C98.4111 166.03 98.5576 165.262 98.6646 164.496C101.94 164.246 105.213 163.767 108.46 163.055C108.774 163.7 109.122 164.337 109.502 164.963C116.152 175.904 130.412 179.382 141.352 172.732C152.293 166.082 155.771 151.823 149.121 140.882C148.741 140.256 148.336 139.655 147.908 139.079C150.008 136.558 151.918 133.909 153.631 131.156C154.339 131.403 155.066 131.618 155.81 131.8C168.248 134.834 180.791 127.211 183.824 114.772C186.859 102.334 179.235 89.7923 166.797 86.7581C165.877 86.5339 164.956 86.3677 164.038 86.2574C163.717 83.0938 163.182 79.9366 162.427 76.8071C163.333 76.4049 164.223 75.9404 165.093 75.412C176.033 68.762 179.512 54.5027 172.862 43.562C166.212 32.6216 151.952 29.1435 141.012 35.7934C139.896 36.472 138.856 37.2298 137.899 38.0553C135.553 36.1639 133.101 34.4347 130.562 32.8719C131.069 31.694 131.485 30.4579 131.799 29.1703C134.833 16.7323 127.209 4.18979 114.771 1.1559C102.333 -1.87799 89.7907 5.74565 86.757 18.1836C86.3943 19.6695 86.1838 21.157 86.1157 22.6295C83.2493 22.9137 80.3877 23.3737 77.5469 24.0138Z" fill="#FDD337"/>
<path d="M29.2402 91.2402V89.8652H34.7402V91.2402H36.1152V99.4902H29.2402V98.1152H27.8652V95.3652H29.2402V93.9902H33.3652V91.2402H29.2402ZM33.3652 95.3652H30.6152V98.1152H33.3652V95.3652ZM47.1152 91.2402V98.1152H45.7402V99.4902H41.6152V103.615H38.8652V89.8652H45.7402V91.2402H47.1152ZM44.3652 91.2402H41.6152V98.1152H44.3652V91.2402ZM52.6152 88.4902V85.7402H55.3652V88.4902H52.6152ZM58.1152 98.1152V99.4902H49.8652V98.1152H52.6152V91.2402H49.8652V89.8652H55.3652V98.1152H58.1152ZM62.2402 93.9902V89.8652H64.9902V88.4902H62.2402V87.1152H69.1152V84.3652H71.8652V87.1152H78.7402V88.4902H75.9902V89.8652H78.7402V93.9902H75.9902V95.3652H71.8652V99.4902H80.1152V100.865H60.8652V99.4902H69.1152V95.3652H64.9902V93.9902H62.2402ZM64.9902 91.2402V92.6152H66.3652V93.9902H74.6152V92.6152H75.9902V91.2402H74.6152V89.8652H66.3652V91.2402H64.9902ZM84.2402 85.7402H91.1152V84.3652H93.8652V85.7402H100.74V87.1152H95.2402V88.4902H96.6152V89.8652H100.74V91.2402H95.2402V89.8652H93.8652V88.4902H91.1152V89.8652H89.7402V91.2402H84.2402V89.8652H88.3652V88.4902H89.7402V87.1152H84.2402V85.7402ZM85.6152 102.24V100.865H84.2402V98.1152H97.9902V96.7402H84.2402V95.3652H91.1152V93.9902H82.8652V92.6152H102.115V93.9902H93.8652V95.3652H100.74V99.4902H86.9902V100.865H100.74V102.24H85.6152ZM132.365 92.6152H136.49V93.9902H132.365V102.24H129.615V84.3652H132.365V92.6152ZM119.99 98.1152H121.365V87.1152H115.865V85.7402H124.115V98.1152H122.74V99.4902H121.365V100.865H117.24V99.4902H119.99V98.1152ZM141.99 89.8652H155.74V91.2402H140.615V89.8652H139.24V84.3652H141.99V89.8652ZM157.115 93.9902H137.865V92.6152H157.115V93.9902ZM139.24 96.7402H141.99V95.3652H152.99V96.7402H155.74V100.865H152.99V102.24H141.99V100.865H139.24V96.7402ZM143.365 98.1152H141.99V99.4902H143.365V100.865H151.615V99.4902H152.99V98.1152H151.615V96.7402H143.365V98.1152Z" fill="black"/>
</svg>
