<svg width="258" height="258" viewBox="0 0 258 258" fill="none" xmlns="http://www.w3.org/2000/svg">
<path d="M108.047 32.9841C107.321 30.974 106.385 29.0061 105.232 27.1094C95.9079 11.7691 75.9137 6.89195 60.5732 16.2162C45.2327 25.5404 40.3556 45.535 49.6798 60.8754C50.8329 62.7724 52.1491 64.5093 53.5995 66.0792C50.9319 69.2459 48.4809 72.5587 46.2518 75.994C44.3486 75.1089 42.3313 74.3963 40.2145 73.8801C22.7742 69.626 5.18745 80.3156 0.933387 97.756C-3.32067 115.196 7.36898 132.782 24.8093 137.036C26.6795 137.493 28.5515 137.777 30.4085 137.9C30.716 142.03 31.2827 146.158 32.1146 150.26C30.4681 150.92 28.8537 151.723 27.2878 152.676C11.9474 161.999 7.07021 181.994 16.3945 197.334C25.7188 212.675 45.7136 217.552 61.054 208.227C62.2734 207.486 63.4267 206.678 64.512 205.81C67.8828 208.738 71.4262 211.416 75.113 213.837C74.626 215.109 74.2137 216.427 73.8824 217.786C69.6283 235.226 80.3175 252.813 97.758 257.066C115.199 261.321 132.785 250.631 137.039 233.191C137.302 232.115 137.507 231.039 137.658 229.965C142.25 229.614 146.839 228.943 151.392 227.944C151.833 228.849 152.32 229.742 152.854 230.62C162.178 245.96 182.173 250.837 197.513 241.513C212.853 232.188 217.731 212.194 208.406 196.853C207.873 195.977 207.305 195.133 206.705 194.325C209.65 190.791 212.328 187.076 214.73 183.216C215.723 183.563 216.742 183.865 217.785 184.119C235.226 188.373 252.813 177.684 257.066 160.243C261.321 142.803 250.631 125.217 233.191 120.963C231.901 120.648 230.609 120.415 229.322 120.26C228.873 115.825 228.122 111.398 227.064 107.01C228.334 106.446 229.582 105.794 230.802 105.053C246.142 95.7289 251.019 75.7348 241.695 60.3941C232.37 45.0538 212.376 40.1769 197.035 49.5011C195.47 50.4526 194.013 51.5153 192.67 52.6728C189.381 50.0207 185.944 47.596 182.383 45.4047C183.094 43.7531 183.677 42.0199 184.117 40.2144C188.372 22.7742 177.682 5.18742 160.242 0.933377C142.802 -3.32066 125.215 7.369 120.961 24.8092C120.452 26.8927 120.157 28.9784 120.062 31.0431C116.043 31.4415 112.03 32.0867 108.047 32.9841Z" fill="#9570F7"/>
</svg>
