<svg width="177" height="177" viewBox="0 0 177 177" fill="none" xmlns="http://www.w3.org/2000/svg">
<path d="M74.1251 22.6286C73.6271 21.2496 72.985 19.8995 72.1944 18.5983C65.7973 8.07413 52.0803 4.7282 41.556 11.1251C31.0318 17.5219 27.6858 31.2392 34.0827 41.7633C34.8737 43.0648 35.7767 44.2564 36.7717 45.3334C34.9417 47.5059 33.2601 49.7786 31.7309 52.1354C30.4252 51.5282 29.0412 51.0393 27.589 50.6852C15.6242 47.7667 3.55883 55.1002 0.640347 67.0652C-2.27814 79.0296 5.05546 91.095 17.0203 94.0132C18.3034 94.3263 19.5876 94.5215 20.8616 94.6055C21.0726 97.4392 21.4614 100.271 22.0321 103.086C20.9025 103.538 19.795 104.089 18.7207 104.743C8.1965 111.139 4.8505 124.857 11.2474 135.381C17.6443 145.905 31.3617 149.251 41.8859 142.854C42.7225 142.345 43.5136 141.791 44.2582 141.195C46.5707 143.204 49.0017 145.041 51.531 146.702C51.1969 147.575 50.9141 148.479 50.6868 149.412C47.7683 161.376 55.1016 173.441 67.0666 176.36C79.0316 179.278 91.097 171.945 94.0152 159.98C94.1956 159.242 94.3365 158.503 94.4395 157.767C97.5904 157.526 100.739 157.066 103.862 156.38C104.165 157.001 104.499 157.614 104.865 158.216C111.262 168.74 124.979 172.086 135.503 165.689C146.027 159.292 149.373 145.575 142.976 135.051C142.611 134.449 142.221 133.87 141.809 133.316C143.83 130.891 145.667 128.343 147.315 125.694C147.996 125.933 148.695 126.14 149.411 126.314C161.376 129.233 173.441 121.899 176.36 109.934C179.278 97.9695 171.945 85.9047 159.98 82.986C159.095 82.7702 158.209 82.6104 157.326 82.5043C157.017 79.4611 156.502 76.424 155.776 73.4135C156.648 73.0266 157.504 72.5798 158.341 72.0715C168.865 65.6745 172.211 51.9576 165.814 41.4332C159.417 30.909 145.7 27.5632 135.175 33.9601C134.102 34.6129 133.102 35.3419 132.181 36.136C129.924 34.3165 127.566 32.6531 125.123 31.1497C125.611 30.0166 126.011 28.8276 126.313 27.589C129.232 15.6242 121.898 3.55881 109.934 0.64034C97.9686 -2.27812 85.9031 5.05548 82.9849 17.0203C82.6359 18.4496 82.4335 19.8805 82.3679 21.297C79.6106 21.5704 76.8579 22.0129 74.1251 22.6286Z" fill="#E88BFF"/>
</svg>
