<svg width="267" height="267" viewBox="0 0 267 267" fill="none" xmlns="http://www.w3.org/2000/svg">
<path d="M111.816 34.1347C111.065 32.0545 110.096 30.0179 108.903 28.0551C99.2536 12.1796 78.5619 7.13236 62.6862 16.7819C46.8106 26.4314 41.7634 47.1235 51.4128 62.9989C52.6061 64.9621 53.9683 66.7596 55.4692 68.3843C52.7086 71.6615 50.172 75.0898 47.8653 78.6449C45.8957 77.729 43.8079 76.9916 41.6173 76.4573C23.5687 72.0548 5.3684 83.1173 0.965947 101.166C-3.43651 119.214 7.62604 137.414 25.6747 141.816C27.6102 142.289 29.5475 142.583 31.4692 142.71C31.7874 146.985 32.374 151.257 33.2348 155.502C31.5309 156.184 29.8602 157.016 28.2397 158.002C12.3642 167.651 7.31685 188.343 16.9664 204.218C26.616 220.094 47.3083 225.141 63.1838 215.491C64.4458 214.724 65.6392 213.888 66.7624 212.989C70.2508 216.019 73.9178 218.791 77.7332 221.296C77.2293 222.613 76.8026 223.977 76.4597 225.384C72.0572 243.432 83.1193 261.632 101.168 266.034C119.217 270.437 137.418 259.374 141.82 241.326C142.092 240.212 142.304 239.098 142.46 237.987C147.213 237.624 151.962 236.929 156.673 235.895C157.13 236.832 157.634 237.756 158.186 238.665C167.836 254.54 188.528 259.587 204.403 249.938C220.279 240.288 225.326 219.596 215.676 203.72C215.124 202.813 214.537 201.94 213.915 201.104C216.963 197.446 219.734 193.602 222.22 189.607C223.248 189.966 224.303 190.278 225.383 190.542C243.431 194.944 261.632 183.882 266.034 165.833C270.437 147.785 259.374 129.585 241.326 125.182C239.99 124.857 238.654 124.616 237.322 124.456C236.857 119.865 236.08 115.284 234.984 110.742C236.299 110.159 237.591 109.485 238.853 108.718C254.728 99.0683 259.776 78.3767 250.126 62.5009C240.476 46.6254 219.785 41.5784 203.909 51.2279C202.289 52.2126 200.781 53.3123 199.391 54.5102C195.987 51.7656 192.43 49.2563 188.745 46.9886C189.481 45.2793 190.085 43.4857 190.54 41.6172C194.943 23.5687 183.88 5.36837 165.832 0.965937C147.783 -3.43649 129.583 7.62606 125.181 25.6746C124.654 27.8308 124.349 29.9892 124.25 32.126C120.091 32.5383 115.938 33.206 111.816 34.1347Z" fill="#7DEDA3"/>
</svg>
