<svg width="143" height="142" viewBox="0 0 143 142" fill="none" xmlns="http://www.w3.org/2000/svg">
<path d="M59.8578 18.154C59.4582 17.0477 58.9431 15.9646 58.3088 14.9207C53.1767 6.47755 42.1721 3.79324 33.7288 8.92518C25.2857 14.0571 22.6014 25.0619 27.7333 33.505C28.3679 34.5491 29.0924 35.5051 29.8906 36.3692C28.4224 38.1121 27.0734 39.9354 25.8466 41.8261C24.7991 41.339 23.6887 40.9468 22.5237 40.6627C12.9248 38.3213 3.24524 44.2047 0.903861 53.8037C-1.43752 63.4023 4.44593 73.0818 14.0448 75.423C15.0742 75.6742 16.1045 75.8308 17.1266 75.8982C17.2958 78.1716 17.6078 80.4437 18.0656 82.7014C17.1594 83.0644 16.2708 83.5067 15.409 84.0308C6.96585 89.1625 4.28149 100.167 9.41347 108.61C14.5454 117.054 25.5503 119.738 33.9935 114.606C34.6647 114.198 35.2994 113.753 35.8968 113.275C37.752 114.887 39.7022 116.361 41.7314 117.693C41.4634 118.394 41.2364 119.119 41.0541 119.867C38.7127 129.465 44.5959 139.145 54.1949 141.486C63.794 143.828 73.4736 137.944 75.8148 128.346C75.9595 127.753 76.0725 127.161 76.1552 126.57C78.683 126.377 81.2087 126.007 83.7144 125.457C83.9573 125.956 84.2253 126.447 84.5189 126.93C89.651 135.373 100.656 138.058 109.099 132.926C117.542 127.794 120.226 116.789 115.094 108.346C114.801 107.863 114.488 107.399 114.158 106.954C115.779 105.009 117.253 102.964 118.575 100.84C119.121 101.031 119.682 101.197 120.256 101.337C129.856 103.678 139.535 97.795 141.876 88.196C144.218 78.597 138.334 68.9179 128.736 66.5763C128.025 66.4032 127.315 66.275 126.606 66.1899C126.359 63.7484 125.946 61.3119 125.363 58.8967C126.062 58.5863 126.749 58.2279 127.421 57.8201C135.864 52.688 138.548 41.6835 133.416 33.2402C128.284 24.7971 117.279 22.1129 108.836 27.2448C107.975 27.7685 107.173 28.3534 106.433 28.9904C104.623 27.5308 102.731 26.1962 100.771 24.9902C101.163 24.0811 101.484 23.1272 101.726 22.1335C104.068 12.5346 98.184 2.85509 88.5854 0.513719C78.9864 -1.82765 69.3068 4.05581 66.9656 13.6547C66.6856 14.8014 66.5232 15.9493 66.4706 17.0858C64.2585 17.305 62.0501 17.6601 59.8578 18.154Z" fill="#FDACFF"/>
</svg>
