<svg width="316" height="316" viewBox="0 0 316 316" fill="none" xmlns="http://www.w3.org/2000/svg">
<path d="M132.336 40.3991C131.447 37.9371 130.301 35.5268 128.889 33.2037C117.469 14.4148 92.9796 8.4413 74.1904 19.8617C55.4014 31.2821 49.4278 55.7716 60.8481 74.5605C62.2605 76.884 63.8726 79.0114 65.649 80.9343C62.3818 84.8128 59.3797 88.8704 56.6495 93.0779C54.3185 91.9938 51.8476 91.1211 49.255 90.4888C27.894 85.2784 6.35362 98.3711 1.14322 119.732C-4.06718 141.092 9.02557 162.633 30.3865 167.843C32.6772 168.402 34.97 168.75 37.2445 168.9C37.6211 173.959 38.3153 179.015 39.3341 184.04C37.3175 184.847 35.3402 185.832 33.4223 186.998C14.6333 198.418 8.65964 222.908 20.0801 241.696C31.5005 260.486 55.9903 266.459 74.7793 255.038C76.2729 254.131 77.6854 253.141 79.0147 252.077C83.1432 255.663 87.4833 258.944 91.9989 261.909C91.4024 263.467 90.8974 265.081 90.4916 266.746C85.2812 288.106 98.3734 309.647 119.735 314.857C141.096 320.067 162.636 306.975 167.846 285.614C168.168 284.296 168.42 282.978 168.604 281.662C174.229 281.233 179.85 280.411 185.426 279.187C185.966 280.296 186.563 281.39 187.216 282.465C198.637 301.253 223.127 307.227 241.916 295.806C260.704 284.386 266.678 259.897 255.257 241.107C254.604 240.033 253.909 239 253.173 238.011C256.781 233.682 260.06 229.132 263.002 224.404C264.219 224.829 265.467 225.198 266.745 225.51C288.106 230.72 309.647 217.628 314.857 196.267C320.068 174.906 306.975 153.367 285.614 148.156C284.033 147.771 282.452 147.485 280.875 147.296C280.325 141.863 279.405 136.441 278.109 131.066C279.665 130.375 281.194 129.578 282.688 128.67C301.476 117.249 307.45 92.7605 296.029 73.9711C284.609 55.1822 260.12 49.2089 241.33 60.6293C239.413 61.7947 237.629 63.0962 235.984 64.5139C231.955 61.2657 227.745 58.2959 223.384 55.612C224.255 53.589 224.969 51.4663 225.508 49.2549C230.719 27.894 217.626 6.35358 196.266 1.14321C174.904 -4.06716 153.364 9.0256 148.154 30.3864C147.531 32.9383 147.169 35.4929 147.052 38.0218C142.13 38.5098 137.215 39.2999 132.336 40.3991Z" fill="#FEF151"/>
</svg>
