<svg width="19" height="19" viewBox="0 0 19 19" fill="none" xmlns="http://www.w3.org/2000/svg">
<path fill-rule="evenodd" clip-rule="evenodd" d="M0.391602 1.67862L1.67892 0.391296L9.47856 8.19093L18.5655 17.2779L17.2782 18.5652L15.2184 16.5106C14.1533 17.3839 12.8861 18.02 11.4979 18.338V16.2531C12.3359 16.0007 13.0982 15.5817 13.7747 15.0617L9.47856 10.7656V17.5556L4.43023 12.5072H0.391602V6.44927H5.16225L0.391602 1.67862ZM16.0011 12.1438C16.3394 11.3209 16.5463 10.4273 16.5463 9.47825C16.5463 6.27761 14.416 3.5768 11.498 2.70847V0.623535C15.5417 1.54231 18.5657 5.15689 18.5657 9.47825C18.5657 10.9927 18.187 12.4164 17.5307 13.6734L16.0011 12.1438ZM11.498 5.41431C12.9923 6.15641 14.0222 7.69617 14.0222 9.47821C14.0222 9.6953 14.007 9.91235 13.9768 10.1244L11.498 7.64568V5.41431ZM9.47837 1.40094L7.36816 3.51115L9.47837 5.62136V1.40094Z" fill="#FEF151"/>
</svg>
