<svg width="1707" height="973" viewBox="0 0 1707 973" fill="none" xmlns="http://www.w3.org/2000/svg">
<path fill-rule="evenodd" clip-rule="evenodd" d="M308.425 269.253L306.5 257L304.575 269.253L298.058 265.058L302.252 271.575L290 273.5L302.253 275.425L298.058 281.942L304.575 277.748L306.5 290L308.425 277.748L314.942 281.942L310.747 275.425L323 273.5L310.748 271.575L314.942 265.058L308.425 269.253Z" fill="white"/>
<path fill-rule="evenodd" clip-rule="evenodd" d="M760.425 48.2528L758.5 36L756.575 48.2528L750.058 44.0583L754.252 50.5752L742 52.5L754.253 54.4248L750.058 60.9422L756.575 56.7476L758.5 69L760.425 56.7476L766.942 60.9422L762.747 54.4248L775 52.5L762.748 50.5752L766.942 44.0583L760.425 48.2528Z" fill="white"/>
<path fill-rule="evenodd" clip-rule="evenodd" d="M661.916 111.565L659 93L656.084 111.565L646.209 105.209L652.564 115.084L634 118L652.565 120.916L646.209 130.791L656.084 124.436L659 143L661.916 124.436L671.791 130.791L665.435 120.916L684 118L665.436 115.084L671.791 105.209L661.916 111.565Z" fill="white"/>
<path fill-rule="evenodd" clip-rule="evenodd" d="M1545.92 823.565L1543 805L1540.08 823.565L1530.21 817.209L1536.56 827.084L1518 830L1536.56 832.916L1530.21 842.791L1540.08 836.436L1543 855L1545.92 836.436L1555.79 842.791L1549.44 832.916L1568 830L1549.44 827.084L1555.79 817.209L1545.92 823.565Z" fill="white"/>
<path fill-rule="evenodd" clip-rule="evenodd" d="M463.1 800.367L461 787L458.9 800.367L451.791 795.791L456.366 802.9L443 805L456.367 807.1L451.791 814.21L458.9 809.634L461 823L463.1 809.634L470.209 814.21L465.633 807.1L479 805L465.634 802.9L470.209 795.791L463.1 800.367Z" fill="white"/>
<path fill-rule="evenodd" clip-rule="evenodd" d="M1411.73 152.764L1408 129L1404.27 152.764L1391.63 144.629L1399.76 157.267L1376 161L1399.76 164.733L1391.63 177.374L1404.27 169.239L1408 193L1411.73 169.239L1424.37 177.374L1416.24 164.733L1440 161L1416.24 157.267L1424.37 144.629L1411.73 152.764Z" fill="white"/>
<path fill-rule="evenodd" clip-rule="evenodd" d="M130.733 921.764L127 898L123.267 921.764L110.628 913.629L118.762 926.267L95 930L118.764 933.733L110.628 946.374L123.267 938.239L127 962L130.733 938.239L143.372 946.374L135.236 933.733L159 930L135.238 926.267L143.372 913.629L130.733 921.764Z" fill="white"/>
<path fill-rule="evenodd" clip-rule="evenodd" d="M325.733 616.764L322 593L318.267 616.764L305.628 608.629L313.762 621.267L290 625L313.764 628.733L305.628 641.374L318.267 633.239L322 657L325.733 633.239L338.372 641.374L330.236 628.733L354 625L330.238 621.267L338.372 608.629L325.733 616.764Z" fill="white"/>
<path fill-rule="evenodd" clip-rule="evenodd" d="M1410.1 555.367L1408 542L1405.9 555.367L1398.79 550.791L1403.37 557.9L1390 560L1403.37 562.1L1398.79 569.21L1405.9 564.634L1408 578L1410.1 564.634L1417.21 569.21L1412.63 562.1L1426 560L1412.63 557.9L1417.21 550.791L1410.1 555.367Z" fill="white"/>
<path fill-rule="evenodd" clip-rule="evenodd" d="M1036.1 950.367L1034 937L1031.9 950.367L1024.79 945.791L1029.37 952.9L1016 955L1029.37 957.1L1024.79 964.21L1031.9 959.634L1034 973L1036.1 959.634L1043.21 964.21L1038.63 957.1L1052 955L1038.63 952.9L1043.21 945.791L1036.1 950.367Z" fill="white"/>
<path fill-rule="evenodd" clip-rule="evenodd" d="M1039.1 138.367L1037 125L1034.9 138.367L1027.79 133.791L1032.37 140.9L1019 143L1032.37 145.1L1027.79 152.21L1034.9 147.634L1037 161L1039.1 147.634L1046.21 152.21L1041.63 145.1L1055 143L1041.63 140.9L1046.21 133.791L1039.1 138.367Z" fill="white"/>
<path fill-rule="evenodd" clip-rule="evenodd" d="M1570.1 13.3672L1568 0L1565.9 13.3672L1558.79 8.7914L1563.37 15.9003L1550 18L1563.37 20.0998L1558.79 27.2103L1565.9 22.6343L1568 36L1570.1 22.6343L1577.21 27.2103L1572.63 20.0998L1586 18L1572.63 15.9003L1577.21 8.7914L1570.1 13.3672Z" fill="white"/>
<path fill-rule="evenodd" clip-rule="evenodd" d="M1691.1 439.367L1689 426L1686.9 439.367L1679.79 434.791L1684.37 441.9L1671 444L1684.37 446.1L1679.79 453.21L1686.9 448.634L1689 462L1691.1 448.634L1698.21 453.21L1693.63 446.1L1707 444L1693.63 441.9L1698.21 434.791L1691.1 439.367Z" fill="white"/>
<path fill-rule="evenodd" clip-rule="evenodd" d="M212.1 606.367L210 593L207.9 606.367L200.791 601.791L205.366 608.9L192 611L205.367 613.1L200.791 620.21L207.9 615.634L210 629L212.1 615.634L219.209 620.21L214.633 613.1L228 611L214.634 608.9L219.209 601.791L212.1 606.367Z" fill="white"/>
<path fill-rule="evenodd" clip-rule="evenodd" d="M20.0999 70.3672L18 57L15.9001 70.3672L8.79057 65.7914L13.366 72.9003L0 75L13.367 77.0998L8.79057 84.2103L15.9004 79.6343L18 93L20.0996 79.6343L27.2094 84.2103L22.633 77.0998L36 75L22.634 72.9003L27.2094 65.7914L20.0999 70.3672Z" fill="white"/>
</svg>
