<svg width="394" height="394" viewBox="0 0 394 394" fill="none" xmlns="http://www.w3.org/2000/svg">
<rect x="197" width="278.6" height="278.6" transform="rotate(45 197 0)" fill="#191818"/>
<path fill-rule="evenodd" clip-rule="evenodd" d="M112.242 163.115L111.941 161.199L111.64 163.115L110.621 162.459L111.277 163.478L109.36 163.779L111.277 164.081L110.621 165.1L111.64 164.444L111.941 166.36L112.242 164.444L113.262 165.1L112.605 164.081L114.522 163.779L112.606 163.478L113.262 162.459L112.242 163.115Z" fill="white"/>
<path fill-rule="evenodd" clip-rule="evenodd" d="M182.942 128.547L182.64 126.631L182.339 128.547L181.32 127.891L181.976 128.911L180.06 129.212L181.976 129.513L181.32 130.532L182.339 129.876L182.64 131.793L182.942 129.876L183.961 130.532L183.305 129.513L185.221 129.212L183.305 128.911L183.961 127.891L182.942 128.547Z" fill="white"/>
<path fill-rule="evenodd" clip-rule="evenodd" d="M167.533 138.45L167.077 135.547L166.621 138.45L165.077 137.456L166.071 139.001L163.167 139.457L166.071 139.913L165.077 141.458L166.621 140.464L167.077 143.367L167.533 140.464L169.078 141.458L168.084 139.913L170.988 139.457L168.084 139.001L169.078 137.456L167.533 138.45Z" fill="white"/>
<path fill-rule="evenodd" clip-rule="evenodd" d="M305.805 249.818L305.348 246.914L304.891 249.818L303.347 248.824L304.341 250.368L301.438 250.824L304.341 251.28L303.347 252.825L304.891 251.831L305.348 254.735L305.805 251.831L307.348 252.825L306.355 251.28L309.258 250.824L306.355 250.368L307.348 248.824L305.805 249.818Z" fill="white"/>
<path fill-rule="evenodd" clip-rule="evenodd" d="M136.436 246.189L136.107 244.098L135.779 246.189L134.667 245.473L135.383 246.585L133.292 246.914L135.383 247.242L134.667 248.354L135.779 247.639L136.107 249.729L136.436 247.639L137.548 248.354L136.832 247.242L138.923 246.914L136.832 246.585L137.548 245.473L136.436 246.189Z" fill="white"/>
<path fill-rule="evenodd" clip-rule="evenodd" d="M284.815 144.895L284.232 141.177L283.648 144.895L281.671 143.622L282.943 145.599L279.227 146.183L282.943 146.767L281.671 148.744L283.648 147.471L284.232 151.188L284.815 147.471L286.792 148.744L285.521 146.767L289.237 146.183L285.521 145.599L286.792 143.622L284.815 144.895Z" fill="white"/>
<path fill-rule="evenodd" clip-rule="evenodd" d="M84.4485 265.177L83.8646 261.46L83.2808 265.177L81.3038 263.905L82.5761 265.882L78.8594 266.466L82.5764 267.05L81.3038 269.027L83.2808 267.754L83.8646 271.471L84.4485 267.754L86.4255 269.027L85.1529 267.05L88.8699 266.466L85.1532 265.882L86.4255 263.905L84.4485 265.177Z" fill="white"/>
<path fill-rule="evenodd" clip-rule="evenodd" d="M114.95 217.471L114.366 213.754L113.782 217.471L111.805 216.199L113.077 218.175L109.36 218.759L113.077 219.343L111.805 221.32L113.782 220.048L114.366 223.765L114.95 220.048L116.926 221.32L115.654 219.343L119.371 218.759L115.654 218.175L116.926 216.199L114.95 217.471Z" fill="white"/>
<path fill-rule="evenodd" clip-rule="evenodd" d="M284.561 207.868L284.232 205.777L283.904 207.868L282.792 207.152L283.508 208.264L281.417 208.592L283.508 208.921L282.792 210.033L283.904 209.317L284.232 211.408L284.561 209.317L285.673 210.033L284.957 208.921L287.048 208.592L284.957 208.264L285.673 207.152L284.561 207.868Z" fill="white"/>
<path fill-rule="evenodd" clip-rule="evenodd" d="M226.061 269.651L225.732 267.561L225.404 269.651L224.292 268.936L225.008 270.048L222.917 270.376L225.008 270.705L224.292 271.817L225.404 271.101L225.732 273.192L226.061 271.101L227.173 271.817L226.457 270.705L228.548 270.376L226.457 270.048L227.173 268.936L226.061 269.651Z" fill="white"/>
<path fill-rule="evenodd" clip-rule="evenodd" d="M226.531 142.643L226.202 140.552L225.874 142.643L224.762 141.927L225.478 143.039L223.387 143.367L225.478 143.696L224.762 144.808L225.874 144.092L226.202 146.183L226.531 144.092L227.643 144.808L226.926 143.696L229.018 143.367L226.926 143.039L227.643 141.927L226.531 142.643Z" fill="white"/>
<path fill-rule="evenodd" clip-rule="evenodd" d="M309.587 123.091L309.259 121L308.93 123.091L307.818 122.375L308.535 123.487L306.443 123.815L308.535 124.144L307.818 125.256L308.93 124.54L309.259 126.631L309.587 124.54L310.699 125.256L309.983 124.144L312.074 123.815L309.983 123.487L310.699 122.375L309.587 123.091Z" fill="white"/>
<path fill-rule="evenodd" clip-rule="evenodd" d="M328.513 189.723L328.185 187.633L327.856 189.723L326.744 189.008L327.46 190.12L325.369 190.448L327.46 190.777L326.744 191.889L327.856 191.173L328.185 193.264L328.513 191.173L329.625 191.889L328.909 190.777L331 190.448L328.909 190.12L329.625 189.008L328.513 189.723Z" fill="white"/>
<path fill-rule="evenodd" clip-rule="evenodd" d="M97.1752 215.845L96.8467 213.754L96.5182 215.845L95.4063 215.129L96.1219 216.241L94.0312 216.569L96.122 216.898L95.4063 218.01L96.5182 217.294L96.8467 219.385L97.1752 217.294L98.2871 218.01L97.5714 216.898L99.6622 216.569L97.5715 216.241L98.2871 215.129L97.1752 215.845Z" fill="white"/>
<path fill-rule="evenodd" clip-rule="evenodd" d="M67.1439 132.006L66.8155 129.916L66.487 132.006L65.375 131.291L66.0906 132.403L64 132.731L66.0908 133.06L65.375 134.172L66.4871 133.456L66.8155 135.547L67.1439 133.456L68.256 134.172L67.5401 133.06L69.6309 132.731L67.5403 132.403L68.256 131.291L67.1439 132.006Z" fill="white"/>
</svg>
