<svg width="272" height="268" viewBox="0 0 272 268" fill="none" xmlns="http://www.w3.org/2000/svg">
<path fill-rule="evenodd" clip-rule="evenodd" d="M144.453 228.986C144.601 230.283 144.677 231.602 144.677 232.939C144.677 251.998 129.205 267.449 110.12 267.449C91.0345 267.449 75.5627 251.998 75.5627 232.939C75.5627 225.389 77.9902 218.406 82.1083 212.725C78.9749 210.612 75.9714 208.322 73.1121 205.868C66.7737 213.527 57.1884 218.408 46.4616 218.408C27.3762 218.408 11.9044 202.957 11.9044 183.898C11.9044 166.764 24.4079 152.546 40.8 149.848C40.2092 146.645 39.7756 143.387 39.5077 140.082C38.2091 140.23 36.8886 140.306 35.5504 140.306C16.465 140.306 0.993164 124.855 0.993164 105.796C0.993164 86.7361 16.465 71.2853 35.5504 71.2853C43.1102 71.2853 50.103 73.7095 55.7919 77.822C57.6492 75.0752 59.6433 72.4283 61.7646 69.8911C54.6115 63.5684 50.1019 54.3304 50.1019 44.0406C50.1019 24.981 65.5737 9.53027 84.6591 9.53027C101.198 9.53027 115.024 21.1332 118.418 36.6327C122.247 35.9144 126.155 35.4202 130.128 35.164C130.128 35.0959 130.128 35.0278 130.128 34.9596C130.128 15.9001 145.6 0.44928 164.685 0.44928C183.77 0.44928 199.242 15.9001 199.242 34.9596C199.242 41.8177 197.239 48.2085 193.785 53.5804C196.199 55.3394 198.529 57.2066 200.768 59.175C207.095 52.1161 216.29 47.6738 226.524 47.6738C245.609 47.6738 261.081 63.1246 261.081 82.1841C261.081 99.2104 248.734 113.357 232.494 116.181C233.026 119.398 233.4 122.669 233.607 125.985C234.864 125.846 236.141 125.775 237.436 125.775C256.521 125.775 271.993 141.226 271.993 160.285C271.993 179.345 256.521 194.796 237.436 194.796C229.506 194.796 222.201 192.129 216.369 187.644C214.486 190.341 212.47 192.939 210.329 195.427C217.999 201.756 222.886 211.329 222.886 222.041C222.886 241.101 207.415 256.552 188.329 256.552C171.172 256.552 156.935 244.065 154.233 227.696C151.026 228.286 147.763 228.719 144.453 228.986Z" fill="#FDACFF"/>
</svg>
