<svg width="335" height="332" viewBox="0 0 335 332" fill="none" xmlns="http://www.w3.org/2000/svg">
<path fill-rule="evenodd" clip-rule="evenodd" d="M148.676 259.444C148.457 260.731 148.163 262.019 147.791 263.303C142.484 281.609 123.322 292.14 104.991 286.826C86.6602 281.512 76.1024 262.364 81.4093 244.059C83.5114 236.808 87.7874 230.776 93.3245 226.466C90.9033 223.565 88.6563 220.529 86.5932 217.376C78.3729 222.967 67.8076 224.986 57.505 221.999C39.1743 216.685 28.6165 197.538 33.9235 179.232C38.6942 162.775 54.6621 152.602 71.1571 154.575C71.4815 151.334 71.9723 148.084 72.6352 144.835C71.3468 144.615 70.0574 144.32 68.7721 143.948C50.4414 138.634 39.8836 119.486 45.1906 101.18C50.4975 82.8744 69.6595 72.3426 87.9902 77.6567C95.2511 79.7617 101.292 84.0371 105.611 89.5709C108.16 87.4499 110.812 85.463 113.556 83.6168C108.446 75.5524 106.687 65.424 109.552 55.5411C114.859 37.2353 134.021 26.7036 152.352 32.0177C168.237 36.6228 178.285 51.6165 177.23 67.4482C181.107 67.8245 184.998 68.438 188.886 69.2982C188.904 69.2327 188.923 69.1672 188.942 69.1017C194.249 50.7959 213.411 40.2641 231.742 45.5783C250.072 50.8924 260.63 70.0402 255.323 88.3459C253.414 94.9328 249.71 100.513 244.897 104.711C246.726 107.072 248.444 109.515 250.046 112.028C258.089 107.011 268.157 105.304 277.985 108.154C296.316 113.468 306.874 132.615 301.567 150.921C296.826 167.274 281.029 177.423 264.644 175.614C264.26 178.852 263.708 182.098 262.984 185.34C264.23 185.557 265.476 185.844 266.719 186.205C285.05 191.519 295.608 210.666 290.301 228.972C284.994 247.278 265.832 257.81 247.501 252.496C239.886 250.288 233.611 245.692 229.259 239.761C226.7 241.827 224.04 243.76 221.291 245.554C226.895 253.769 228.924 264.324 225.941 274.613C220.634 292.918 201.472 303.45 183.141 298.136C166.663 293.359 156.466 277.402 158.429 260.928C155.184 260.601 151.929 260.109 148.676 259.444Z" fill="#FDACFF"/>
</svg>
