<svg width="318" height="318" viewBox="0 0 318 318" fill="none" xmlns="http://www.w3.org/2000/svg">
<path d="M185.78 35.0489C189.832 32.2892 195.391 33.7901 197.503 38.2142L216.415 77.8256C217.512 80.1248 219.64 81.7637 222.143 82.2386L265.268 90.42C270.085 91.3338 272.954 96.3255 271.319 100.947L256.682 142.33C255.833 144.732 256.178 147.395 257.612 149.501L282.321 185.78C285.081 189.832 283.58 195.39 279.156 197.503L239.545 216.414C237.245 217.512 235.606 219.639 235.132 222.143L226.95 265.268C226.036 270.084 221.045 272.954 216.423 271.319L175.041 256.682C172.639 255.832 169.975 256.178 167.87 257.612L131.59 282.321C127.538 285.081 121.98 283.58 119.868 279.156L100.956 239.544C99.8581 237.245 97.7308 235.606 95.2275 235.131L52.1024 226.95C47.2857 226.036 44.4166 221.044 46.0514 216.422L60.6881 175.04C61.5377 172.638 61.1923 169.975 59.7581 167.869L35.0492 131.59C32.2894 127.538 33.7903 121.98 38.2145 119.867L77.8258 100.956C80.1251 99.8578 81.7639 97.7305 82.2388 95.2273L90.4203 52.1021C91.334 47.2855 96.3258 44.4163 100.948 46.0511L142.33 60.6879C144.732 61.5375 147.395 61.1921 149.501 59.7578L185.78 35.0489Z" fill="#FF7777"/>
</svg>
