<svg width="687" height="755" viewBox="0 0 687 755" fill="none" xmlns="http://www.w3.org/2000/svg">
<path fill-rule="evenodd" clip-rule="evenodd" d="M607.569 367.726C654.105 349.216 687 303.767 687 250.635C687 181.067 630.604 124.671 561.036 124.671C529.702 124.671 501.04 136.112 479 155.044C475.461 152.95 471.868 150.936 468.225 149.006C469.606 141.536 470.327 133.834 470.327 125.964C470.327 56.3962 413.931 0 344.363 0C274.795 0 218.398 56.3962 218.398 125.964C218.398 134.274 219.203 142.396 220.739 150.256C216.818 152.384 212.959 154.608 209.162 156.926C186.972 137.392 157.852 125.543 125.964 125.543C56.3962 125.543 0 181.939 0 251.507C0 306.218 34.8799 352.782 83.6157 370.176C83.4726 373.734 83.4003 377.309 83.4003 380.902C83.4003 382.207 83.4099 383.51 83.4289 384.81C34.7908 402.256 0 448.771 0 503.412C0 572.981 56.3962 629.377 125.964 629.377C155.646 629.377 182.929 619.111 204.458 601.936C209.418 605.111 214.493 608.124 219.673 610.967C218.833 616.842 218.398 622.848 218.398 628.955C218.398 698.523 274.795 754.92 344.363 754.92C413.931 754.92 470.327 698.523 470.327 628.955C470.327 623.296 469.954 617.724 469.231 612.262C474.623 609.376 479.903 606.306 485.062 603.062C506.182 619.056 532.501 628.544 561.036 628.544C630.604 628.544 687 572.148 687 502.58C687 449.556 654.238 404.184 607.853 385.602C607.88 384.039 607.894 382.472 607.894 380.902C607.894 376.484 607.785 372.091 607.569 367.726Z" fill="#A4EAFF"/>
</svg>
