<svg width="1752" height="671" viewBox="0 0 1752 671" fill="none" xmlns="http://www.w3.org/2000/svg">
<path d="M230.838 284.905L243.911 271.837H264.115V251.046L302.146 213.028H359.786L374.048 198.772V160.754L383.556 151.25V130.459L358.004 156.002V198.772H324.132V186.297H295.015V146.497L348.496 113.035H470.314V117.984L457.835 130.459H441.791V148.279H463.183L533.897 97.5905H589.16V74.4235H690.774L728.211 37H795.359V52.4446L773.373 74.4235L784.069 88.6801H988.485L1010.47 110.659H1126.94V121.548L1074.65 173.822H1044.94V206.494L1014.04 237.383H995.022V201.742L1024.73 172.04H935.004L910.641 196.395V218.968H926.685V251.046L898.245 280.639L902.809 285.712L885.872 294.5L855.951 309.532V306.332L845.459 304.331L829.231 311.636L824.477 331.833L836.956 344.308V365.692L791.2 411.432H766.836V423.907L781.692 438.757V460.142L773.373 468.459H765.054L750.198 453.608H738.907V470.835L761.488 493.408V504.1L756.14 509.446L737.125 490.438V483.903L728.211 474.993V431.035H715.732L691.369 406.68H674.136V416.779L649.772 441.134V462.518L641.453 470.835H629.568L613.524 454.796V404.304H600.451L578.464 382.325H520.824L502.997 364.504L495.272 372.227L522.606 399.552H541.027V423.808L510.722 434.104H495.272L457.835 406.68V384.107H447.139V411.035L477.445 441.33H504.185V463.903L457.241 490.831V547.858L427.529 577.559V622.705L397.223 653H367.511L337.205 622.705V534.195L315.219 512.216V470.438H239.157L196.372 427.668V380.543L243.911 333.021H325.915L346.713 353.812L357.409 343.119H385.338L394.846 355H428.717L437.631 343.119L489.329 335.397L494.083 323.517L484.575 311.042V306.884L491.112 305.102L489.329 293.221L466.748 302.726L472.096 309.854L481.604 306.884V313.418L466.748 317.576V313.418L460.212 309.854L466.748 306.884L450.704 299.756L444.762 306.884L440.008 325.299H412.673L400.788 313.418H380.584L352.061 284.905L343.742 293.221L357.409 306.884L346.713 317.576L308.682 279.559L267.086 321.141H230.838V284.905Z" fill="#E88BFF"/>
<path d="M900.866 321.944L898.665 322.281L898.302 323.339L899.152 324.036L900.722 323.966L901.442 322.416L900.866 321.944Z" fill="#E88BFF"/>
<path d="M902 324H903.306L903.871 324.845L903.13 325.247L902 324.925V324Z" fill="#E88BFF"/>
<path d="M939.242 318L935.929 318.888L925.749 336.31L927.382 342.404L917.443 345.067L919.157 351.465L931.807 348.075L942.263 329.273L939.242 318Z" fill="#E88BFF"/>
<path d="M863.334 314.041L855.879 309.532L861.861 303.058L870.68 299.149L874.299 290.221L878.408 293.167L885.872 294.5L886.245 290.221L896.137 284.639L898.209 280.62L902.901 285.821L895.464 293.167L896.137 300.513L893.409 302.077L888.5 306.986L880.372 311.477L879.39 316.587L886.245 321.969L893.409 337.552L892.518 345.28H894.282L895.173 351.462L892.518 354.19L889.191 355.281V357.426L885.663 356.063H881.554L879.39 357.917L875.353 358.645L871.044 362.663L868.898 361.19L870.08 358.154L868.898 354.917L869.953 347.735L866.534 339.989L868.989 337.552H871.535V333.534L872.135 331.661L866.862 329.515L863.334 330.497L859.316 326.478L860.879 321.969L863.334 314.041Z" fill="#E88BFF"/>
<path d="M863.334 314.041L855.879 309.532L861.861 303.059L870.68 299.149L874.299 290.221L878.408 293.167L885.872 294.5L886.245 290.221L896.137 284.639L898.209 280.621L902.901 285.821L895.464 293.167L896.137 300.513L893.409 302.077L888.5 306.986L880.372 311.478L879.39 316.587L886.245 321.969L893.409 337.552L892.518 345.28H894.282L895.173 351.462L892.518 354.19L889.191 355.281V357.427L885.663 356.063H881.554L879.39 357.918L875.353 358.645L871.044 362.663L868.898 361.191L870.08 358.154L868.898 354.917L869.953 347.735L866.534 339.989L868.989 337.552H871.535V333.534L872.135 331.661L866.862 329.515L863.334 330.497L859.316 326.479L860.879 321.969L863.334 314.041Z" fill="#E88BFF"/>
<path d="M879.781 368H874.758L870 370.679L871.322 373.952L876.5 374.5L880.838 373.06L882.16 370.083L879.781 368Z" fill="#E88BFF"/>
<path d="M1573.61 53.9051V35.4233H1636.42L1676.52 74.4403L1666.5 84.1946L1679.69 97.0291L1659.11 117.051L1632.19 90.8686V72.3868L1613.19 53.9051H1573.61Z" fill="#E88BFF"/>
<path d="M1559.37 10.2676H1533.51V56.9854L1521.37 72.3868H1454.35L1440.62 59.0389H1337.19L1327.69 49.798H1278.61L1248 79.5742L1270.69 101.65L1248 123.725L1280.19 155.041H1298.14L1319.77 133.993H1371.49L1429.01 189.951V257.204L1486.01 312.649V331.131L1523.48 367.581H1559.89L1581.54 388.64V438.951H1614.79V567.81L1597.9 584.238V649.438L1620.07 671H1640.12V623.255L1710.84 554.462V528.793L1752 488.75V426.117L1692.37 368.105H1583.12L1564.11 349.613H1540.89L1526.65 335.752V309.569L1544.06 292.628H1581.53L1595.25 305.975H1613.19V284.413L1663.86 235.129V194.058H1693.94V168.903L1643.8 120.131H1613.19V168.903H1589.97L1559.37 139.126V120.131L1593.14 87.2749V72.3868H1575.73L1559.37 56.472V10.2676Z" fill="#E88BFF"/>
<path d="M1498.68 35.4233V0H1478.09L1467.54 10.2676H1408.96V35.4233H1498.68Z" fill="#E88BFF"/>
<path d="M1023.28 485H1014.16V503.153L1008.51 508.771H999.383L991.997 501.424V485H970.272L949.85 505.314V513.525H935.077L919 529.517V558.475L933.339 572.737H957.236L968.099 561.932H986.783L1011.98 587H1036.75L1055 568.847V539.458L1028.93 513.525V501.424L1023.28 495.805V485Z" fill="#E88BFF"/>
<path d="M0 201V181.5H22.9934L52.485 152H113.468L127.464 138H211.94L227.935 154V183.5L208.441 203V246L179.449 275H160.954L119.966 316H98.4719L69.98 287.5V230.5L40.4884 201H0Z" fill="#E88BFF"/>
</svg>
