<svg width="97" height="97" viewBox="0 0 97 97" fill="none" xmlns="http://www.w3.org/2000/svg">
<g filter="url(#filter0_d)">
<path d="M18.5 77L18.5 33.8284C18.5 32.4921 20.1157 31.8228 21.0607 32.7678L64.2322 75.9393C65.1772 76.8843 64.5079 78.5 63.1716 78.5L20 78.5C19.1716 78.5 18.5 77.8284 18.5 77Z" stroke="white"/>
</g>
<g filter="url(#filter1_d)">
<path d="M31.5 64L31.5 20.8284C31.5 19.4921 33.1157 18.8228 34.0607 19.7678L77.2322 62.9393C78.1772 63.8843 77.5079 65.5 76.1716 65.5L33 65.5C32.1716 65.5 31.5 64.8284 31.5 64Z" stroke="white"/>
</g>
<defs>
<filter id="filter0_d" x="0" y="13.8242" width="83.1756" height="83.1756" filterUnits="userSpaceOnUse" color-interpolation-filters="sRGB">
<feFlood flood-opacity="0" result="BackgroundImageFix"/>
<feColorMatrix in="SourceAlpha" type="matrix" values="0 0 0 0 0 0 0 0 0 0 0 0 0 0 0 0 0 0 127 0"/>
<feOffset/>
<feGaussianBlur stdDeviation="9"/>
<feColorMatrix type="matrix" values="0 0 0 0 1 0 0 0 0 1 0 0 0 0 1 0 0 0 1 0"/>
<feBlend mode="normal" in2="BackgroundImageFix" result="effect1_dropShadow"/>
<feBlend mode="normal" in="SourceGraphic" in2="effect1_dropShadow" result="shape"/>
</filter>
<filter id="filter1_d" x="13" y="0.824219" width="83.1756" height="83.1756" filterUnits="userSpaceOnUse" color-interpolation-filters="sRGB">
<feFlood flood-opacity="0" result="BackgroundImageFix"/>
<feColorMatrix in="SourceAlpha" type="matrix" values="0 0 0 0 0 0 0 0 0 0 0 0 0 0 0 0 0 0 127 0"/>
<feOffset/>
<feGaussianBlur stdDeviation="9"/>
<feColorMatrix type="matrix" values="0 0 0 0 1 0 0 0 0 1 0 0 0 0 1 0 0 0 1 0"/>
<feBlend mode="normal" in2="BackgroundImageFix" result="effect1_dropShadow"/>
<feBlend mode="normal" in="SourceGraphic" in2="effect1_dropShadow" result="shape"/>
</filter>
</defs>
</svg>
