<svg width="217" height="226" viewBox="0 0 217 226" fill="none" xmlns="http://www.w3.org/2000/svg">
<circle cx="108.191" cy="105.469" r="76.6538" fill="#F8F4F1" stroke="#F8F8F8" stroke-width="10"/>
<mask id="mask0" mask-type="alpha" maskUnits="userSpaceOnUse" x="-1" y="-1" width="219" height="227">
<path d="M103.511 113.215L187.804 44.2291L59.5187 0L0 142.004L121.949 225.136L216.723 105.81L103.511 113.215Z" fill="#C4C4C4" stroke="black"/>
</mask>
<g mask="url(#mask0)">
<circle cx="108.263" cy="105.684" r="76.994" fill="#F8F4F1" stroke="#FF6767" stroke-width="10" stroke-linecap="round" stroke-linejoin="round"/>
</g>
<path d="M89.2513 108.456C89.1613 114.036 88.0513 116.556 85.1413 116.556C83.1613 116.556 81.9613 115.536 81.6613 113.646H78.1813C78.6913 117.516 81.3313 119.496 85.1113 119.496C90.4513 119.496 92.7313 115.956 92.7313 106.056C92.7313 102.756 92.4013 99.9657 91.1713 98.4057C89.9113 96.3057 87.8413 95.1957 85.1713 95.1957C80.8813 95.1957 77.6413 98.1657 77.6413 103.026C77.6413 107.886 80.5513 110.826 84.7513 110.826C86.9713 110.826 88.5613 109.866 89.2513 108.456ZM89.3413 103.026C89.3413 106.086 87.6913 107.916 85.1713 107.916C82.6513 107.916 81.0313 106.086 81.0313 103.026C81.0313 99.9657 82.6513 98.1357 85.1713 98.1357C87.6913 98.1357 89.3413 99.9657 89.3413 103.026ZM103.928 106.776C106.418 106.776 107.918 108.456 107.918 111.666C107.918 114.876 106.418 116.616 103.928 116.616C101.708 116.616 100.208 115.296 99.9377 112.806H96.5777C96.8777 116.976 99.6977 119.496 103.928 119.496C108.488 119.496 111.308 116.646 111.308 111.726C111.308 106.506 108.458 103.866 104.648 103.866C102.878 103.866 101.408 104.616 100.778 105.696L101.138 98.5257H110.018V95.5857H97.9877L97.3877 108.666H100.748C101.348 107.496 102.458 106.776 103.928 106.776ZM122.984 119.106L132.614 95.5857H129.794L120.134 119.106H122.984ZM124.514 101.526C124.514 97.3257 122.714 95.1957 119.624 95.1957C116.414 95.1957 114.734 97.4157 114.734 101.526C114.734 105.696 116.384 107.886 119.624 107.886C122.744 107.886 124.514 105.786 124.514 101.526ZM121.664 101.526C121.664 104.466 121.034 105.486 119.624 105.486C118.154 105.486 117.554 104.466 117.554 101.526C117.554 98.6457 118.184 97.5957 119.624 97.5957C121.004 97.5957 121.664 98.6457 121.664 101.526ZM128.294 113.166C128.294 117.426 130.064 119.496 133.154 119.496C136.274 119.496 138.014 117.336 138.014 113.166C138.014 109.056 136.274 106.806 133.154 106.806C130.064 106.806 128.294 108.966 128.294 113.166ZM131.084 113.166C131.084 110.226 131.744 109.236 133.154 109.236C134.564 109.236 135.224 110.316 135.224 113.166C135.224 116.136 134.534 117.096 133.154 117.096C131.774 117.096 131.084 116.226 131.084 113.166Z" fill="black"/>
</svg>
