<svg width="217" height="226" viewBox="0 0 217 226" fill="none" xmlns="http://www.w3.org/2000/svg">
<circle cx="108.191" cy="105.469" r="76.6538" fill="#F8F4F1" stroke="#F8F8F8" stroke-width="10"/>
<mask id="mask0" mask-type="alpha" maskUnits="userSpaceOnUse" x="-1" y="-1" width="219" height="227">
<path d="M103.511 113.215L187.804 44.2291L59.5187 0L0 142.004L121.949 225.136L216.723 105.81L103.511 113.215Z" fill="#C4C4C4" stroke="black"/>
</mask>
<g mask="url(#mask0)">
<circle cx="108.263" cy="105.684" r="76.994" fill="#F8F4F1" stroke="#FF6767" stroke-width="10" stroke-linecap="round" stroke-linejoin="round"/>
</g>
<path d="M89.2513 108.456C89.1613 114.036 88.0513 116.556 85.1413 116.556C83.1613 116.556 81.9613 115.536 81.6613 113.646H78.1813C78.6913 117.516 81.3313 119.496 85.1113 119.496C90.4513 119.496 92.7313 115.956 92.7313 106.056C92.7313 102.756 92.4013 99.9657 91.1713 98.4057C89.9113 96.3057 87.8413 95.1957 85.1713 95.1957C80.8813 95.1957 77.6413 98.1657 77.6413 103.026C77.6413 107.886 80.5513 110.826 84.7513 110.826C86.9713 110.826 88.5613 109.866 89.2513 108.456ZM89.3413 103.026C89.3413 106.086 87.6913 107.916 85.1713 107.916C82.6513 107.916 81.0313 106.086 81.0313 103.026C81.0313 99.9657 82.6513 98.1357 85.1713 98.1357C87.6913 98.1357 89.3413 99.9657 89.3413 103.026ZM111.608 107.346C111.608 101.976 110.888 99.1557 109.208 97.2957C107.918 95.9157 106.088 95.1957 103.838 95.1957C101.588 95.1957 99.6977 95.9157 98.4377 97.2957C96.7577 99.1557 96.0377 101.976 96.0377 107.346C96.0377 112.716 96.7577 115.536 98.4377 117.396C99.6977 118.776 101.588 119.496 103.838 119.496C106.088 119.496 107.918 118.776 109.208 117.396C110.888 115.536 111.608 112.716 111.608 107.346ZM108.218 107.346C108.218 111.816 107.858 113.976 106.868 115.206C106.118 116.106 105.158 116.586 103.838 116.586C102.518 116.586 101.528 116.106 100.778 115.206C99.7877 113.976 99.3977 111.816 99.3977 107.346C99.3977 102.876 99.7877 100.716 100.778 99.4857C101.528 98.5857 102.518 98.1057 103.838 98.1057C105.158 98.1057 106.118 98.5857 106.868 99.4857C107.858 100.716 108.218 102.876 108.218 107.346ZM122.984 119.106L132.614 95.5857H129.794L120.134 119.106H122.984ZM124.514 101.526C124.514 97.3257 122.714 95.1957 119.624 95.1957C116.414 95.1957 114.734 97.4157 114.734 101.526C114.734 105.696 116.384 107.886 119.624 107.886C122.744 107.886 124.514 105.786 124.514 101.526ZM121.664 101.526C121.664 104.466 121.034 105.486 119.624 105.486C118.154 105.486 117.554 104.466 117.554 101.526C117.554 98.6457 118.184 97.5957 119.624 97.5957C121.004 97.5957 121.664 98.6457 121.664 101.526ZM128.294 113.166C128.294 117.426 130.064 119.496 133.154 119.496C136.274 119.496 138.014 117.336 138.014 113.166C138.014 109.056 136.274 106.806 133.154 106.806C130.064 106.806 128.294 108.966 128.294 113.166ZM131.084 113.166C131.084 110.226 131.744 109.236 133.154 109.236C134.564 109.236 135.224 110.316 135.224 113.166C135.224 116.136 134.534 117.096 133.154 117.096C131.774 117.096 131.084 116.226 131.084 113.166Z" fill="black"/>
</svg>
