<svg width="47" height="49" viewBox="0 0 47 49" fill="none" xmlns="http://www.w3.org/2000/svg">
<path fill-rule="evenodd" clip-rule="evenodd" d="M32 9.5C32 9.67903 31.9945 9.85676 31.9836 10.033C33.4682 8.76537 35.3947 8 37.5 8C42.1944 8 46 11.8056 46 16.5C46 20.6202 43.0685 24.0557 39.1775 24.8345C42.0305 26.2057 44 29.1229 44 32.5C44 37.1944 40.1944 41 35.5 41C34.2401 41 33.0442 40.7259 31.9687 40.234C31.5966 44.5848 27.9471 48 23.5 48C18.8056 48 15 44.1944 15 39.5C15 39.321 15.0055 39.1432 15.0164 38.967C13.5318 40.2346 11.6053 41 9.5 41C4.80558 41 1 37.1944 1 32.5C1 28.8162 3.34344 25.6797 6.62088 24.5C3.34344 23.3203 1 20.1838 1 16.5C1 11.8056 4.80558 8 9.5 8C11.6053 8 13.5318 8.76537 15.0164 10.033C15.0055 9.85676 15 9.67903 15 9.5C15 4.80558 18.8056 1 23.5 1C28.1944 1 32 4.80558 32 9.5Z" fill="white"/>
<path d="M31.9836 10.033L32.3082 10.4133L31.4117 11.1788L31.4845 10.0022L31.9836 10.033ZM39.1775 24.8345L38.9609 25.2852L37.6135 24.6376L39.0793 24.3442L39.1775 24.8345ZM31.9687 40.234L31.4706 40.1914L31.5311 39.4841L32.1767 39.7793L31.9687 40.234ZM15.0164 38.967L14.6918 38.5867L15.5883 37.8212L15.5155 38.9978L15.0164 38.967ZM6.62088 24.5L6.79022 24.0295L8.09723 24.5L6.79022 24.9704L6.62088 24.5ZM15.0164 10.033L15.5155 10.0022L15.5883 11.1788L14.6918 10.4133L15.0164 10.033ZM31.4845 10.0022C31.4948 9.83615 31.5 9.66872 31.5 9.5H32.5C32.5 9.68933 32.4941 9.87737 32.4826 10.0639L31.4845 10.0022ZM37.5 8.5C35.5182 8.5 33.7058 9.21999 32.3082 10.4133L31.6589 9.65279C33.2307 8.31075 35.2713 7.5 37.5 7.5V8.5ZM45.5 16.5C45.5 12.0817 41.9183 8.5 37.5 8.5V7.5C42.4706 7.5 46.5 11.5294 46.5 16.5H45.5ZM39.0793 24.3442C42.7412 23.6113 45.5 20.3773 45.5 16.5H46.5C46.5 20.8631 43.3957 24.5001 39.2756 25.3248L39.0793 24.3442ZM43.5 32.5C43.5 29.3223 41.6473 26.5763 38.9609 25.2852L39.394 24.3839C42.4138 25.8352 44.5 28.9235 44.5 32.5H43.5ZM35.5 40.5C39.9183 40.5 43.5 36.9183 43.5 32.5H44.5C44.5 37.4706 40.4706 41.5 35.5 41.5V40.5ZM32.1767 39.7793C33.1882 40.2419 34.3133 40.5 35.5 40.5V41.5C34.1669 41.5 32.9002 41.2098 31.7608 40.6887L32.1767 39.7793ZM23.5 47.5C27.6853 47.5 31.1204 44.2857 31.4706 40.1914L32.4669 40.2767C32.0728 44.8839 28.209 48.5 23.5 48.5V47.5ZM15.5 39.5C15.5 43.9183 19.0817 47.5 23.5 47.5V48.5C18.5294 48.5 14.5 44.4706 14.5 39.5H15.5ZM15.5155 38.9978C15.5052 39.1638 15.5 39.3313 15.5 39.5H14.5C14.5 39.3107 14.5059 39.1226 14.5174 38.9361L15.5155 38.9978ZM9.5 40.5C11.4818 40.5 13.2942 39.78 14.6918 38.5867L15.3411 39.3472C13.7693 40.6892 11.7287 41.5 9.5 41.5V40.5ZM1.5 32.5C1.5 36.9183 5.08172 40.5 9.5 40.5V41.5C4.52944 41.5 0.5 37.4706 0.5 32.5H1.5ZM6.79022 24.9704C3.70486 26.081 1.5 29.0337 1.5 32.5H0.5C0.5 28.5987 2.98202 25.2784 6.45154 24.0295L6.79022 24.9704ZM6.45154 24.9704C2.98202 23.7216 0.5 20.4013 0.5 16.5H1.5C1.5 19.9663 3.70486 22.919 6.79022 24.0295L6.45154 24.9704ZM0.5 16.5C0.5 11.5294 4.52944 7.5 9.5 7.5V8.5C5.08172 8.5 1.5 12.0817 1.5 16.5H0.5ZM9.5 7.5C11.7287 7.5 13.7693 8.31075 15.3411 9.65279L14.6918 10.4133C13.2942 9.21999 11.4818 8.5 9.5 8.5V7.5ZM15.5 9.5C15.5 9.66872 15.5052 9.83615 15.5155 10.0022L14.5174 10.0639C14.5059 9.87736 14.5 9.68933 14.5 9.5H15.5ZM23.5 1.5C19.0817 1.5 15.5 5.08172 15.5 9.5H14.5C14.5 4.52944 18.5294 0.5 23.5 0.5V1.5ZM31.5 9.5C31.5 5.08172 27.9183 1.5 23.5 1.5V0.5C28.4706 0.5 32.5 4.52944 32.5 9.5H31.5Z" fill="black"/>
<line x1="24" y1="17.5" x2="24" y2="33.5" stroke="black" stroke-linecap="round"/>
<line x1="24" y1="16.7071" x2="18.7071" y2="22" stroke="black" stroke-linecap="round" stroke-linejoin="round"/>
<line x1="0.5" y1="-0.5" x2="7.98528" y2="-0.5" transform="matrix(0.707107 0.707107 0.707107 -0.707107 24 16)" stroke="black" stroke-linecap="round" stroke-linejoin="round"/>
</svg>
