<svg width="217" height="226" viewBox="0 0 217 226" fill="none" xmlns="http://www.w3.org/2000/svg">
<circle cx="108.191" cy="105.469" r="76.6538" fill="#F8F4F1" stroke="#F8F8F8" stroke-width="10"/>
<mask id="mask0" mask-type="alpha" maskUnits="userSpaceOnUse" x="-1" y="-1" width="219" height="227">
<path d="M103.511 113.215L187.804 44.2291L59.5187 0L0 142.004L121.949 225.136L216.723 105.81L103.511 113.215Z" fill="#C4C4C4" stroke="black"/>
</mask>
<g mask="url(#mask0)">
<circle cx="108.263" cy="105.684" r="76.994" fill="#F8F4F1" stroke="#FF6767" stroke-width="10" stroke-linecap="round" stroke-linejoin="round"/>
</g>
<path d="M85.3513 108.066C87.9913 108.066 89.8813 109.716 89.8813 112.356C89.8813 114.996 87.9913 116.616 85.3513 116.616C82.6813 116.616 80.7913 114.996 80.7913 112.356C80.7913 109.716 82.6813 108.066 85.3513 108.066ZM85.3513 119.496C90.0013 119.496 93.2713 116.856 93.2713 112.536C93.2713 109.536 91.6213 107.496 88.9813 106.626C91.1713 105.846 92.5513 103.776 92.5513 101.406C92.5513 97.8357 89.8813 95.1957 85.3513 95.1957C80.7913 95.1957 78.1213 97.8357 78.1213 101.406C78.1213 103.776 79.5013 105.846 81.6913 106.626C79.0813 107.496 77.4313 109.536 77.4313 112.536C77.4313 116.856 80.6713 119.496 85.3513 119.496ZM85.3513 105.216C83.0113 105.216 81.4813 103.806 81.4813 101.646C81.4813 99.5157 83.0113 98.1057 85.3513 98.1057C87.6313 98.1057 89.1613 99.5157 89.1613 101.646C89.1613 103.806 87.6313 105.216 85.3513 105.216ZM103.838 108.066C106.478 108.066 108.368 109.716 108.368 112.356C108.368 114.996 106.478 116.616 103.838 116.616C101.168 116.616 99.2777 114.996 99.2777 112.356C99.2777 109.716 101.168 108.066 103.838 108.066ZM103.838 119.496C108.488 119.496 111.758 116.856 111.758 112.536C111.758 109.536 110.108 107.496 107.468 106.626C109.658 105.846 111.038 103.776 111.038 101.406C111.038 97.8357 108.368 95.1957 103.838 95.1957C99.2777 95.1957 96.6077 97.8357 96.6077 101.406C96.6077 103.776 97.9877 105.846 100.178 106.626C97.5677 107.496 95.9177 109.536 95.9177 112.536C95.9177 116.856 99.1577 119.496 103.838 119.496ZM103.838 105.216C101.498 105.216 99.9677 103.806 99.9677 101.646C99.9677 99.5157 101.498 98.1057 103.838 98.1057C106.118 98.1057 107.648 99.5157 107.648 101.646C107.648 103.806 106.118 105.216 103.838 105.216ZM122.984 119.106L132.614 95.5857H129.794L120.134 119.106H122.984ZM124.514 101.526C124.514 97.3257 122.714 95.1957 119.624 95.1957C116.414 95.1957 114.734 97.4157 114.734 101.526C114.734 105.696 116.384 107.886 119.624 107.886C122.744 107.886 124.514 105.786 124.514 101.526ZM121.664 101.526C121.664 104.466 121.034 105.486 119.624 105.486C118.154 105.486 117.554 104.466 117.554 101.526C117.554 98.6457 118.184 97.5957 119.624 97.5957C121.004 97.5957 121.664 98.6457 121.664 101.526ZM128.294 113.166C128.294 117.426 130.064 119.496 133.154 119.496C136.274 119.496 138.014 117.336 138.014 113.166C138.014 109.056 136.274 106.806 133.154 106.806C130.064 106.806 128.294 108.966 128.294 113.166ZM131.084 113.166C131.084 110.226 131.744 109.236 133.154 109.236C134.564 109.236 135.224 110.316 135.224 113.166C135.224 116.136 134.534 117.096 133.154 117.096C131.774 117.096 131.084 116.226 131.084 113.166Z" fill="black"/>
</svg>
