<svg width="237" height="241" viewBox="0 0 237 241" fill="none" xmlns="http://www.w3.org/2000/svg">
<path d="M230.128 126.97C233.756 64.2697 186.692 10.5323 125.007 6.9448C63.3225 3.35729 10.3763 51.2781 6.74843 113.979C3.12062 176.68 50.185 230.417 111.87 234.005C173.554 237.592 226.501 189.671 230.128 126.97Z" fill="#F8F4F1"/>
<path d="M118.5 235.002C116.331 235.002 114.161 235.002 111.992 234.691C50.0085 230.962 2.59111 176.897 6.31012 113.821C8.16962 83.3706 21.4961 55.4059 43.8101 34.8984C66.1242 14.7016 95.2564 4.44791 125.318 6.00151C187.302 9.73014 234.719 63.7953 231 126.871C227.281 187.772 177.694 235.002 118.5 235.002ZM118.5 7.5551C91.2275 7.5551 65.1944 17.4981 44.7399 36.1413C22.4258 56.338 9.40929 83.992 7.54979 113.821C3.83078 175.965 50.6283 229.409 111.682 232.826C172.736 236.555 225.422 188.704 229.141 126.561C232.86 64.4167 186.062 10.973 125.008 7.5551C122.839 7.5551 120.67 7.5551 118.5 7.5551Z" fill="#1D1D1B"/>
<path d="M85.0293 212.941L90.9177 202.688L92.4673 203.309L92.1574 208.902L95.2566 203.93L96.8062 204.552L95.5665 216.048L94.0169 215.738L94.9467 206.105L91.8475 211.698L90.6078 211.388L91.2276 205.173L86.5789 213.252L85.0293 212.941Z" fill="black"/>
<path d="M79.4518 198.026L87.1998 201.755L82.2411 212.009L74.4932 208.28L74.8031 207.348L81.3113 210.455L83.1708 206.727L78.2122 204.551L78.5221 203.619L83.4808 205.794L85.3403 202.066L78.832 198.959L79.4518 198.026Z" fill="black"/>
<path d="M70.463 192.432L77.5911 197.092L71.3927 206.725L70.153 206.103L75.7316 197.403L69.5332 193.675L70.463 192.432Z" fill="black"/>
<path d="M59.6169 187.46C60.5467 186.839 61.4765 186.839 62.4062 186.839C63.336 186.839 64.2657 187.46 65.1955 188.082C65.8153 188.703 66.4351 189.325 66.745 189.946C67.055 190.567 67.055 191.189 67.055 192.121C67.055 192.743 66.745 193.364 66.4351 194.296C66.1252 194.918 65.8153 195.539 65.1955 196.16C64.5756 196.782 64.2657 197.403 63.6459 197.714C63.026 198.025 62.4062 198.335 61.7864 198.646C61.1665 198.646 60.5467 198.646 59.6169 198.646C58.9971 198.335 58.0674 198.025 57.4475 197.403C56.8277 196.782 56.2079 196.16 55.8979 195.85C55.588 195.228 55.588 194.607 55.588 193.985L54.6583 194.918L53.7285 194.296L56.2079 191.5L57.1376 192.121C56.8277 192.432 56.8277 192.743 56.5178 193.053C56.5178 193.364 56.5178 193.985 56.5178 194.296C56.5178 194.607 56.8277 195.228 56.8277 195.539C57.1376 195.85 57.4475 196.16 57.7574 196.471C58.3773 197.093 58.9971 197.093 59.307 197.403C59.9269 197.403 60.5467 197.403 60.8566 197.403C61.4765 197.093 61.7864 197.093 62.4062 196.471C62.7161 196.16 63.336 195.85 63.6459 195.228C63.9558 194.918 64.2657 194.296 64.5756 193.675C64.8855 193.053 64.8855 192.743 65.1955 192.121C65.1955 191.5 65.1955 191.189 64.8855 190.567C64.5756 189.946 64.2657 189.635 63.6459 189.014C62.4062 188.082 60.8566 187.771 59.307 188.703L59.6169 187.46Z" fill="black"/>
<path d="M49.3892 181.247C50.009 180.626 50.6288 180.315 51.2487 180.004C51.8685 179.694 52.4883 179.383 53.1082 179.383C53.728 179.383 54.3478 179.383 55.2776 179.694C55.8974 180.004 56.5173 180.315 57.1371 181.247C57.7569 181.869 58.0668 182.49 58.3768 183.422C58.6867 184.044 58.6867 184.665 58.3768 185.597C58.0668 186.529 58.0668 186.84 57.7569 187.462C57.447 188.083 56.8272 188.704 56.2073 189.326C55.5875 189.947 54.9677 190.258 54.3478 190.569C53.728 190.879 53.1082 191.19 52.4883 191.19C51.8685 191.19 51.2487 191.19 50.3189 190.879C49.6991 190.569 49.0792 190.258 48.4594 189.326C47.8396 188.704 47.5297 188.083 47.2197 187.151C46.9098 186.529 46.9098 185.908 47.2197 184.976C47.2197 184.354 47.5297 183.733 47.8396 183.111C48.4594 182.179 49.0792 181.558 49.3892 181.247ZM50.6288 182.179C50.009 182.801 49.6991 183.111 49.3892 183.733C49.0792 184.354 48.7693 184.665 48.7693 185.286C48.7693 185.908 48.7693 186.219 48.7693 186.84C48.7693 187.462 49.0792 187.772 49.6991 188.083C50.3189 188.704 50.6288 189.015 51.2487 189.015C51.8685 189.015 52.1784 189.326 52.7983 189.015C53.4181 189.015 53.728 188.704 54.3478 188.394C54.9677 188.083 55.2776 187.772 55.5875 187.462C55.8974 187.151 56.5173 186.529 56.8272 186.219C57.1371 185.597 57.447 185.286 57.447 184.665C57.447 184.044 57.7569 183.733 57.447 183.111C57.447 182.49 57.1371 181.869 56.5173 181.558C55.8974 180.936 55.5875 180.626 54.9677 180.626C54.3478 180.626 54.0379 180.315 53.4181 180.626C52.7983 180.626 52.4883 180.936 51.8685 181.247C51.2487 181.558 50.9387 181.869 50.6288 182.179Z" fill="black"/>
<path d="M47.5302 169.128L48.46 170.371L40.712 175.964L46.9104 174.41L47.5302 175.342L44.1211 180.625L51.8691 175.032L52.7988 176.274L43.5013 183.11L42.5715 181.557L45.9806 175.964L39.7823 177.517L38.8525 175.964L47.5302 169.128Z" fill="black"/>
<path d="M42.2601 159.807L46.2891 167.575L36.3717 173.168L32.3428 165.71L33.2725 165.089L36.6816 171.303L40.4006 169.439L37.6114 164.467L38.5411 163.846L41.0205 168.507L44.7395 166.332L41.3304 160.117L42.2601 159.807Z" fill="black"/>
<path d="M27.6936 140.854L28.0035 142.097L25.2143 142.718L25.8341 145.514L34.8217 143.029L34.2019 140.854L35.1316 140.543L36.6812 146.136L35.7515 146.447L35.1316 144.272L26.144 146.757L26.7639 149.554L29.863 148.932L30.173 150.175L26.4539 151.107L23.9746 141.786L27.6936 140.854Z" fill="black"/>
<path d="M27.6952 128.425C28.315 128.425 29.2448 128.425 29.8646 128.425C30.4844 128.425 31.1043 128.736 31.7241 129.046C32.3439 129.357 32.9638 129.978 33.2737 130.6C33.8935 131.221 33.8935 132.153 34.2034 133.086C34.2034 134.018 34.2034 134.95 33.8935 135.571C33.5836 136.193 33.2737 136.814 32.6538 137.436C32.034 138.057 31.7241 138.368 30.7943 138.679C30.1745 138.989 29.2448 138.989 28.6249 139.3C28.0051 139.3 27.0753 139.3 26.4555 139.3C25.8357 139.3 25.2158 138.989 24.596 138.679C23.9762 138.368 23.3563 137.746 23.0464 137.125C22.7365 136.503 22.4266 135.882 22.1167 134.95C21.8067 134.018 22.1167 133.086 22.4266 132.464C22.7365 131.843 23.0464 131.221 23.6662 130.6C24.2861 129.978 24.596 129.668 25.5257 129.357C26.4555 129.046 26.7654 128.736 27.6952 128.425ZM27.6952 129.978C27.0753 129.978 26.1456 130.289 25.8357 130.6C25.2158 130.911 24.9059 131.221 24.2861 131.532C23.9762 131.843 23.6662 132.464 23.3563 132.775C23.0464 133.396 23.0464 133.707 23.3563 134.328C23.3563 134.95 23.6662 135.571 23.9762 136.193C24.596 136.504 24.9059 136.814 25.5257 137.125C26.1456 137.436 26.4555 137.436 27.0753 137.436C27.6952 137.436 28.315 137.436 28.9348 137.436C29.5547 137.436 30.1745 137.125 30.4844 137.125C31.1043 136.814 31.4142 136.814 32.034 136.193C32.3439 135.882 32.6538 135.261 32.9638 134.95C33.2737 134.328 33.2737 133.707 33.2737 133.086C33.2737 132.464 32.9638 131.843 32.6538 131.221C32.3439 130.911 31.7241 130.6 31.4142 130.289C31.1043 129.978 30.4844 129.978 29.8646 129.978C28.9348 129.978 28.315 129.978 27.6952 129.978Z" fill="black"/>
<path d="M34.2027 106.985L33.8928 108.539L24.5953 107.296L30.1738 110.403V111.335L23.9754 112.889L33.273 114.132L32.963 115.685L21.4961 114.442L21.806 112.578L28.0044 110.714L22.4258 107.607L22.7358 105.742L34.2027 106.985Z" fill="black"/>
<path d="M26.4556 93.002L26.1457 93.9341L30.7945 98.5949L34.5135 99.5271L35.1333 97.352L36.0631 97.6627L34.8234 103.256L33.8936 102.945L34.5135 100.77L30.7945 99.8378L24.5961 101.702L24.2862 102.634L23.3564 102.324L24.2862 98.5949L24.906 99.2163L24.5961 100.148L29.2449 98.9056L25.5259 95.4877L25.2159 96.4199L24.5961 96.7306L25.5259 93.002H26.4556Z" fill="black"/>
<path d="M37.9211 72.1847C38.8508 72.8062 39.4707 73.4276 39.4707 74.3598C39.4707 75.2919 39.1607 76.5348 38.5409 77.7777L36.9913 80.5742L41.3302 82.7492L40.7103 83.9921L30.793 78.7098L32.9624 74.6705C33.5822 73.4276 34.512 72.4955 35.4417 71.874C36.0616 71.5633 36.9913 71.5633 37.9211 72.1847ZM37.3012 73.4276C36.6814 73.1169 36.0616 73.1169 35.4417 73.4276C34.8219 73.7383 34.2021 74.3598 33.8921 74.9812L32.3426 77.7777L36.3715 79.9527L37.9211 77.1562C38.231 76.2241 38.5409 75.6027 38.5409 74.9812C38.231 74.3598 37.9211 73.7383 37.3012 73.4276Z" fill="black"/>
<path d="M46.6006 63.4841C47.2204 63.7948 47.8402 64.4162 48.1501 65.0377C48.77 65.6591 49.0799 66.2806 49.0799 66.902C49.3898 67.5234 49.3898 68.1449 49.0799 69.077C49.0799 69.6985 48.77 70.6306 48.1501 71.2521C47.5303 71.8735 46.9105 72.4949 46.2906 72.8057C45.6708 73.1164 45.051 73.4271 44.4311 73.4271C43.8113 73.4271 43.1915 73.4271 42.2617 73.1164C41.332 72.8057 41.022 72.4949 40.4022 72.1842C39.7824 71.8735 39.1625 71.2521 38.8526 70.6306C38.2328 70.0092 37.9229 69.3878 37.9229 68.7663C37.613 68.1449 37.613 67.5234 37.9229 66.5913C38.2328 65.6591 38.2328 65.0377 38.8526 64.4162C39.4725 63.7948 40.0923 63.1734 40.7121 62.8626C41.332 62.5519 41.9518 62.2412 42.5716 62.2412C43.1915 62.2412 43.8113 62.2412 44.741 62.5519C45.3609 62.5519 45.9807 62.8626 46.6006 63.4841ZM45.9807 64.4162C45.3609 64.1055 44.741 63.7948 44.1212 63.4841C43.5014 63.1734 42.8815 63.1734 42.5716 63.1734C41.9518 63.1734 41.6419 63.1734 41.022 63.4841C40.7121 63.7948 40.0923 64.1055 39.7824 64.727C39.4725 65.3484 39.1625 65.9698 39.1625 66.5913C39.1625 67.2127 39.1625 67.8342 39.4725 68.1449C39.7824 68.7663 40.0923 69.077 40.4022 69.6985C40.7121 70.0092 41.332 70.6306 41.6419 70.9413C42.2617 71.2521 42.5716 71.5628 43.1915 71.8735C43.8113 72.1842 44.1212 72.1842 44.741 72.1842C45.3609 72.1842 45.6708 72.1842 46.2906 71.8735C46.9105 71.5628 47.2204 71.2521 47.8402 70.6306C48.1501 70.0092 48.4601 69.3878 48.4601 68.7663C48.4601 68.1449 48.4601 67.5234 48.1501 67.2127C47.8402 66.5913 47.5303 66.2806 47.2204 65.9698C46.9105 65.3484 46.2906 64.727 45.9807 64.4162Z" fill="black"/>
<path d="M58.3767 58.5122L57.137 59.7551L50.9386 59.4444L49.3891 60.998L53.1081 64.4159L52.1783 65.3481L43.8105 57.5801L46.9097 54.1622C47.8395 52.9193 48.7692 52.2979 49.699 52.2979C50.6287 52.2979 51.5585 52.2979 52.1783 52.9193C52.4882 53.23 52.7982 53.5407 52.7982 54.1622C52.7982 54.4729 53.1081 55.0943 53.1081 55.405C53.1081 55.7158 53.1081 56.3372 52.7982 56.6479C52.4882 56.9586 52.1783 57.5801 51.8684 57.8908L58.3767 58.5122ZM51.2486 54.1622C50.6287 53.5407 50.0089 53.5407 49.3891 53.5407C48.7692 53.8514 48.1494 54.1622 47.5296 54.7836L45.3601 56.9586L48.7692 60.0658L50.9386 57.8908C51.5585 57.2694 51.8684 56.3372 52.1783 55.7158C52.1783 55.405 51.8684 54.7836 51.2486 54.1622Z" fill="black"/>
<path d="M61.4759 45.773L60.5462 46.3945L58.6867 44.2194L56.5173 46.0838L62.7156 53.2303L64.2652 51.6767L64.885 52.6089L60.5462 56.3375L59.9264 55.716L61.4759 54.1625L55.2776 47.0159L53.1082 48.8802L54.9677 51.0553L54.0379 51.9874L51.5586 49.1909L58.9966 42.9766L61.4759 45.773Z" fill="black"/>
<path d="M69.2235 37.0728L63.3351 41.1121L65.5045 44.53L69.8434 41.7336L70.4632 42.6657L66.1243 45.4622L68.9136 49.8123L67.6739 50.4337L61.4756 40.8014L68.6037 36.1406L69.2235 37.0728Z" fill="black"/>
<path d="M82.8614 35.2093C83.1713 35.8307 83.4812 36.4521 83.4812 37.3843C83.4812 38.0057 83.7911 38.9379 83.4812 39.5593C83.1713 40.1808 83.1713 40.8022 82.5515 41.4236C82.2416 42.0451 81.3118 42.6665 80.692 42.9772C80.0721 43.288 79.1424 43.288 78.5225 43.288C77.9027 43.288 76.973 42.9772 76.663 42.6665C76.0432 42.3558 75.4234 42.0451 75.1135 41.4236C74.4936 40.8022 74.1837 40.1808 73.8738 39.5593C73.5639 38.9379 73.254 38.3165 73.254 37.3843C73.254 36.7629 72.944 35.8307 73.254 35.2093C73.5639 34.5878 73.5639 33.9664 74.1837 33.345C74.4936 32.7235 75.4234 32.4128 76.0432 31.7914C76.973 31.4806 77.5928 31.1699 78.5225 31.1699C79.1424 31.1699 80.0721 31.4806 80.3821 31.7914C81.0019 32.1021 81.6217 32.4128 81.9316 33.0342C82.2416 33.6557 82.5515 34.2771 82.8614 35.2093ZM81.6217 35.8307C81.3118 35.2093 81.0019 34.5878 80.3821 33.9664C79.7622 33.345 79.4523 33.0342 79.1424 33.0342C78.5225 32.7235 78.2126 32.7235 77.5928 32.7235C76.973 32.7235 76.663 32.7235 76.0432 33.0342C75.4234 33.345 74.8035 33.6557 74.4936 34.2771C74.1837 34.5878 74.1837 35.2093 74.1837 35.8307C74.1837 36.4521 74.1837 37.0736 74.1837 37.3843C74.1837 38.0057 74.4936 38.6272 74.8035 38.9379C75.1135 39.5593 75.4234 39.8701 75.7333 40.4915C76.0432 41.1129 76.3531 41.4236 76.973 41.7344C77.2829 42.0451 77.9027 42.0451 78.5225 42.3558C79.1424 42.3558 79.7622 42.3558 80.3821 42.0451C81.0019 41.7344 81.6217 41.4236 81.9316 40.8022C82.2416 40.1808 82.5515 39.8701 82.5515 39.2486C82.5515 38.6272 82.5515 38.0057 82.5515 37.695C81.9316 36.7629 81.9316 36.1414 81.6217 35.8307Z" fill="black"/>
<path d="M94.6362 36.7615L86.5784 39.558L82.8594 28.6828L84.099 28.3721L87.5081 38.3151L94.3263 36.14L94.6362 36.7615Z" fill="black"/>
<path d="M103.934 34.898L98.3553 36.1409L98.0454 35.2087L100.215 34.898L98.3553 25.5764L96.1859 25.8871L95.876 24.6442L101.454 23.4014L101.764 24.6442L99.595 24.955L101.454 34.2765L103.624 33.9658L103.934 34.898Z" fill="black"/>
<path d="M116.641 27.7511C116.641 28.3726 116.641 29.3047 116.641 29.9262C116.641 30.5476 116.331 31.1691 116.021 31.7905C115.712 32.4119 115.092 32.7227 114.472 33.3441C113.542 33.6548 112.612 33.9655 111.683 33.9655C110.753 33.9655 109.823 33.9655 109.203 33.6548C108.583 33.3441 107.964 33.0334 107.654 32.4119C107.344 31.7905 106.724 31.1691 106.724 30.5476C106.724 29.9262 106.414 28.994 106.414 28.3726C106.414 27.7511 106.414 26.819 106.414 26.1976C106.414 25.5761 106.724 24.9547 107.034 24.3332C107.344 23.7118 107.964 23.4011 108.583 22.7796C109.203 22.4689 110.133 22.1582 111.063 22.1582C111.993 22.1582 112.922 22.1582 113.542 22.4689C114.162 22.7796 114.782 23.0904 115.092 23.7118C115.402 24.3332 116.021 24.9547 116.021 25.5761C116.021 26.1976 116.641 26.819 116.641 27.7511ZM115.092 27.7511C115.092 27.1297 114.782 26.1976 114.782 25.8868C114.472 25.2654 114.162 24.644 113.852 24.3332C113.542 24.0225 113.232 23.7118 112.612 23.4011C111.993 23.0904 111.683 23.0904 111.063 23.0904C110.443 23.0904 109.823 23.4011 109.203 23.7118C108.893 24.0225 108.274 24.3332 108.274 24.9547C108.274 25.5761 107.964 25.8868 107.654 26.5083C107.654 27.1297 107.654 27.7511 107.654 28.3726C107.654 28.994 107.654 29.6155 107.964 30.2369C107.964 30.8583 108.274 31.1691 108.583 31.7905C108.893 32.1012 109.203 32.7227 109.823 32.7227C110.443 33.0334 111.063 33.0334 111.683 33.0334C112.302 33.0334 112.922 32.7227 113.542 32.4119C113.852 32.1012 114.472 31.7905 114.472 31.1691C114.782 30.5476 114.782 30.2369 115.092 29.6155C115.092 28.994 115.092 28.3726 115.092 27.7511Z" fill="black"/>
<path d="M152.591 28.0615L146.703 38.3152L145.153 37.6938L145.463 32.1008L142.364 37.0723L140.814 36.4509L142.054 24.6436L143.604 25.265L142.364 34.8973L145.463 29.6151L146.703 29.9258L146.083 36.1402L151.042 27.7507L152.591 28.0615Z" fill="black"/>
<path d="M157.859 42.9765L150.111 39.2479L155.07 28.9941L162.818 32.7228L162.508 33.6549L156 30.5477L154.14 34.2764L158.789 36.4514L158.479 37.3836L153.83 35.2085L151.661 38.9372L158.169 42.0443L157.859 42.9765Z" fill="black"/>
<path d="M167.157 48.5704L160.029 43.9096L166.228 34.2773L167.157 35.2095L161.579 43.9096L167.777 47.949L167.157 48.5704Z" fill="black"/>
<path d="M178.004 53.5404C177.074 54.1618 176.144 54.1618 175.215 54.1618C174.285 54.1618 173.355 53.5404 172.425 52.9189C171.805 52.2975 171.186 51.6761 170.876 51.0546C170.256 50.4332 170.256 49.8118 170.256 48.8796C170.256 48.2582 170.566 47.6367 170.876 46.7046C171.186 46.0831 171.496 45.4617 172.115 44.8402C172.735 44.2188 173.045 43.5974 173.665 43.2867C174.285 42.9759 174.905 42.6652 175.524 42.3545C176.144 42.3545 176.764 42.3545 177.694 42.3545C178.314 42.6652 179.243 42.9759 179.863 43.5974C180.483 44.2188 181.103 44.8402 181.413 45.151C181.723 45.7724 181.723 46.3938 181.723 47.0153L182.653 46.0831L183.582 47.0153L181.103 49.8118L180.173 48.8796C180.483 48.5689 180.483 48.2582 180.793 47.9474C180.793 47.6367 180.793 47.0153 180.793 46.7046C180.793 46.3938 180.483 45.7724 180.483 45.4617C180.173 45.151 179.863 44.8402 179.553 44.5295C178.934 43.9081 178.314 43.9081 178.004 43.5974C177.694 43.2867 176.764 43.5974 176.454 43.5974C175.834 43.9081 175.524 43.9081 174.905 44.5295C174.595 44.8402 173.975 45.151 173.665 45.7724C173.355 46.0831 173.045 46.7046 172.735 47.326C172.425 47.9474 172.425 48.2582 172.115 48.8796C172.115 49.501 172.115 49.8118 172.115 50.4332C172.425 51.0546 172.735 51.3654 173.355 51.9868C174.595 52.9189 176.144 53.2297 177.694 52.2975L178.004 53.5404Z" fill="black"/>
<path d="M187.922 60.0669C187.302 60.6883 186.683 60.999 186.063 61.3097C185.443 61.6205 184.823 61.9312 184.203 61.9312C183.583 61.9312 182.964 61.9312 182.034 61.6205C181.414 61.3097 180.794 60.999 180.174 60.0669C179.554 59.4454 179.245 58.5133 178.935 57.8918C178.625 57.2704 178.625 56.3382 178.935 55.7168C178.935 55.0954 179.245 54.4739 179.554 53.8525C179.864 53.231 180.484 52.6096 181.104 52.2989C181.724 51.6774 182.344 51.3667 182.964 51.056C183.583 50.7453 184.203 50.4346 184.823 50.4346C185.443 50.4346 186.063 50.4346 186.992 50.7453C187.612 51.056 188.232 51.3667 188.852 52.2989C189.472 52.9203 189.782 53.5418 190.092 54.4739C190.402 55.0954 190.402 55.7168 190.092 56.649C190.092 57.2704 189.782 57.8918 189.472 58.5133C188.852 58.824 188.542 59.4454 187.922 60.0669ZM186.992 58.824C187.612 58.2025 187.922 57.8918 188.232 57.2704C188.542 56.649 188.852 56.3382 188.852 55.7168C188.852 55.0954 188.852 54.7846 188.852 54.1632C188.852 53.5418 188.542 53.231 187.922 52.9203C187.302 52.2989 186.992 51.9882 186.373 51.9882C185.753 51.9882 185.443 51.6774 184.823 51.9882C184.203 51.9882 183.893 52.2989 183.273 52.6096C182.654 52.9203 182.344 53.231 182.034 53.5418C181.724 53.8525 181.104 54.4739 180.794 54.7846C180.484 55.0954 180.174 55.7168 180.174 56.3382C180.174 56.9597 179.864 57.2704 180.174 57.8918C180.174 58.5133 180.484 59.1347 181.104 59.4454C181.724 60.0669 182.034 60.3776 182.654 60.3776C183.273 60.3776 183.583 60.6883 184.203 60.3776C184.823 60.3776 185.133 60.0669 185.753 59.7561C186.063 59.7561 186.373 59.4454 186.992 58.824Z" fill="black"/>
<path d="M189.472 71.8736L188.853 70.9415L196.6 65.3485L190.402 66.9021L189.782 65.97L193.191 60.6877L185.443 66.2807L184.514 65.0378L193.811 58.5127L194.741 60.0663L191.332 65.6592L197.53 64.1056L198.46 65.6592L189.472 71.8736Z" fill="black"/>
<path d="M195.05 81.5063L191.021 74.049L200.939 68.4561L204.968 75.9133L204.038 76.5348L200.629 70.3204L196.91 72.1847L199.389 76.8455L198.459 77.4669L195.98 72.8061L192.261 74.9812L195.67 81.1955L195.05 81.5063Z" fill="black"/>
<path d="M209.616 100.46L209.306 99.2169L212.095 98.5955L211.475 95.799L202.487 97.974L203.107 100.149L202.178 100.46L200.628 94.8668L201.558 94.5561L202.178 96.7312L211.165 94.5561L210.545 91.7596L207.446 92.3811L207.136 91.1382L210.855 90.2061L213.335 99.5276L209.616 100.46Z" fill="black"/>
<path d="M209.306 112.889C208.686 112.889 207.757 112.889 207.137 112.889C206.517 112.889 205.897 112.578 205.277 112.268C204.657 111.957 204.038 111.335 203.728 110.714C203.418 110.093 203.108 109.471 202.798 108.539C202.798 107.607 202.798 106.675 203.108 106.053C203.418 105.432 203.728 104.81 204.347 104.189C204.967 103.567 205.277 103.257 206.207 102.946C207.137 102.635 207.757 102.635 208.376 102.325C208.996 102.014 209.926 102.325 210.546 102.325C211.166 102.325 211.785 102.635 212.405 102.946C213.025 103.257 213.645 103.878 213.955 104.5C214.265 105.121 214.575 105.743 214.885 106.675C214.885 107.607 214.885 108.539 214.575 109.16C214.265 109.782 213.955 110.403 213.335 111.025C212.715 111.646 212.405 111.957 211.476 112.268C210.546 112.578 210.236 112.578 209.306 112.889ZM209.306 111.335C209.926 111.335 210.856 111.025 211.166 110.714C211.785 110.403 212.095 110.093 212.715 109.782C213.025 109.471 213.335 108.85 213.645 108.539C213.955 107.918 213.955 107.607 213.645 106.985C213.645 106.364 213.335 105.743 213.025 105.121C212.715 104.81 212.405 104.5 211.785 104.189C211.166 103.878 210.856 103.878 210.236 103.878C209.616 103.878 208.996 103.878 208.376 103.878C207.757 103.878 207.137 104.189 206.827 104.189C206.207 104.5 205.897 104.5 205.277 105.121C204.657 105.432 204.347 106.053 204.347 106.364C204.038 106.985 204.038 107.607 204.038 108.228C204.038 108.85 204.347 109.471 204.657 110.093C204.967 110.403 205.277 111.025 205.897 111.025C206.517 111.335 206.827 111.335 207.447 111.335C208.066 111.335 208.686 111.335 209.306 111.335Z" fill="black"/>
<path d="M202.798 134.327L203.108 132.773L212.405 134.016L206.827 130.909V129.977L213.025 128.423L203.728 127.181L204.038 125.627L215.504 126.87L215.195 128.734L208.996 130.598L214.575 133.706L214.265 135.57L202.798 134.327Z" fill="black"/>
<path d="M210.546 148.309L210.856 147.377L206.207 142.716L202.488 141.784L201.868 143.959L200.938 143.649L202.488 138.056L203.418 138.366L202.798 140.541L206.517 141.474L212.715 139.609L213.025 138.677L213.955 138.988L213.025 142.716L212.095 142.406L212.405 141.474L207.447 142.406L211.166 145.824L211.476 144.891L212.405 145.202L211.476 148.931L210.546 148.309Z" fill="black"/>
<path d="M198.769 169.129C197.84 168.507 197.22 167.886 197.22 166.954C197.22 166.021 197.53 164.779 198.15 163.536L199.699 160.739L195.36 158.564L195.98 157.321L205.898 162.604L203.728 166.643C203.108 167.886 202.179 168.818 201.249 169.439C200.629 169.75 199.699 169.75 198.769 169.129ZM199.699 167.886C200.319 168.196 200.939 168.196 201.559 167.886C202.179 167.575 202.798 166.954 203.108 166.021L204.658 163.225L200.629 161.361L199.079 164.157C198.769 165.089 198.46 165.711 198.46 166.332C198.46 166.954 198.769 167.575 199.699 167.886Z" fill="black"/>
<path d="M190.091 177.829C189.471 177.518 188.851 176.897 188.541 176.275C187.921 175.654 187.611 175.032 187.611 174.411C187.611 173.789 187.301 173.168 187.611 172.236C187.921 171.304 187.921 170.682 188.541 170.061C189.161 169.439 189.781 168.818 190.401 168.507C191.02 168.196 191.64 167.886 192.26 167.886C192.88 167.886 193.5 167.886 194.43 168.196C195.049 168.507 195.669 168.818 196.289 169.129C196.909 169.439 197.529 170.061 197.839 170.682C198.458 171.304 198.768 171.925 198.768 172.547C199.078 173.168 199.078 173.789 198.768 174.722C198.458 175.654 198.458 176.275 197.839 176.897C197.219 177.518 196.599 178.139 195.979 178.45C195.359 178.761 194.739 179.072 194.12 179.072C193.5 179.072 192.88 179.072 191.95 178.761C191.02 178.45 190.711 178.45 190.091 177.829ZM190.711 176.897C191.33 177.207 191.95 177.518 192.57 177.829C193.19 178.139 193.81 178.139 194.12 178.139C194.739 178.139 195.049 178.139 195.669 177.829C195.979 177.518 196.599 177.207 196.909 176.586C197.219 175.964 197.529 175.343 197.529 174.722C197.529 174.1 197.529 173.479 197.219 173.168C196.909 172.547 196.599 172.236 196.289 171.614C195.979 171.304 195.359 170.682 195.049 170.372C194.739 170.061 194.12 169.75 193.5 169.439C192.88 169.129 192.57 169.129 191.95 169.129C191.33 169.129 191.02 169.129 190.401 169.439C189.781 169.75 189.471 170.061 188.851 170.682C188.541 171.304 188.231 171.925 188.231 172.547C188.231 173.168 188.231 173.789 188.541 174.1C188.851 174.722 189.161 175.032 189.471 175.654C189.781 175.964 190.401 176.586 190.711 176.897Z" fill="black"/>
<path d="M178.315 182.489L179.555 181.246L185.753 181.557L187.303 180.003L183.584 176.896L184.514 175.964L192.882 183.732L189.782 187.15C188.853 188.393 187.923 189.014 186.993 189.014C186.063 189.325 185.134 189.014 184.514 188.393C184.204 188.082 183.894 187.771 183.894 187.15C183.894 186.528 183.584 186.218 183.584 185.907C183.584 185.596 183.584 184.975 183.894 184.664C184.204 184.353 184.514 183.732 184.824 183.421L178.315 182.489ZM185.444 186.839C186.063 187.46 186.683 187.46 187.303 187.46C187.923 187.46 188.543 186.839 189.163 186.218L191.332 184.043L187.923 180.935L186.063 183.11C185.444 183.732 185.134 184.664 184.824 185.285C184.514 185.907 184.824 186.218 185.444 186.839Z" fill="black"/>
<path d="M175.215 195.539L176.145 194.607L178.004 196.782L180.173 194.918L173.975 187.771L172.426 189.325L171.806 188.393L176.145 184.664L176.764 185.596L175.215 187.15L181.413 194.296L183.583 192.432L181.723 190.257L182.653 189.325L185.132 192.121L177.694 198.336L175.215 195.539Z" fill="black"/>
<path d="M167.467 204.239L173.356 200.2L171.186 196.782L166.847 199.578L166.228 198.646L170.566 195.849L167.777 191.499L169.017 190.878L175.215 200.51L168.087 205.171L167.467 204.239Z" fill="black"/>
<path d="M153.831 206.104C153.521 205.483 153.211 204.861 153.211 203.929C153.211 202.997 153.211 202.376 153.211 201.754C153.211 201.133 153.521 200.511 154.141 199.89C154.451 199.268 155.38 198.958 156 198.336C156.93 198.026 157.55 197.715 158.48 197.715C159.099 197.715 160.029 198.026 160.339 198.336C160.959 198.647 161.579 198.958 161.889 199.579C162.508 200.201 162.818 200.822 163.128 201.443C163.438 202.065 163.748 202.686 163.748 203.618C163.748 204.24 163.748 205.172 163.748 205.794C163.748 206.415 163.438 207.036 162.818 207.658C162.508 208.279 161.579 208.59 160.959 209.211C160.339 209.833 159.409 209.833 158.48 209.833C157.86 209.833 156.93 209.522 156.62 209.211C156 208.901 155.38 208.59 155.07 207.969C154.451 207.347 154.141 206.726 153.831 206.104ZM155.07 205.483C155.38 206.104 155.69 206.726 156.31 207.347C156.93 207.969 157.24 208.279 157.55 208.279C158.17 208.59 158.48 208.59 159.099 208.59C159.719 208.59 160.029 208.59 160.649 208.279C161.269 207.969 161.889 207.658 162.199 207.036C162.508 206.415 162.818 206.104 162.818 205.483C162.818 204.861 162.818 204.24 162.818 203.929C162.818 203.308 162.508 202.686 162.199 202.376C161.889 201.754 161.579 201.443 161.269 200.822C160.959 200.201 160.649 199.89 160.029 199.579C159.719 199.268 159.099 198.958 158.48 198.958C157.86 198.958 157.24 198.958 156.62 199.268C156 199.579 155.38 199.89 155.07 200.511C154.761 201.133 154.451 201.443 154.451 202.065C154.451 202.686 154.451 203.308 154.451 203.618C154.761 204.24 154.761 204.861 155.07 205.483Z" fill="black"/>
<path d="M142.055 204.24L150.113 201.443L153.832 212.319L152.592 212.629L149.183 202.686L142.365 205.172L142.055 204.24Z" fill="black"/>
<path d="M132.757 206.103L138.335 204.86L138.645 205.793L136.476 206.103L138.335 215.425L140.505 215.114L140.815 216.046L134.926 217.289L134.616 216.357L136.786 216.046L134.926 206.725L132.757 207.035V206.103Z" fill="black"/>
<path d="M120.049 213.251C120.049 212.629 120.049 211.697 120.049 211.075C120.049 210.454 120.359 209.833 120.669 209.211C120.979 208.59 121.598 208.279 122.218 207.658C122.838 207.347 123.768 207.036 124.698 207.036C125.627 207.036 126.557 207.036 127.177 207.347C127.797 207.658 128.417 207.968 128.727 208.59C129.036 209.211 129.656 209.833 129.656 210.454C129.966 211.076 129.966 212.008 129.966 212.629C129.966 213.251 129.966 214.183 129.966 214.804C129.966 215.426 129.656 216.047 129.036 216.668C128.727 217.29 128.107 217.601 127.487 218.222C126.867 218.533 125.937 218.843 125.008 218.843C124.078 218.843 123.148 218.843 122.528 218.533C121.908 218.222 121.288 217.911 120.979 217.29C120.669 216.668 120.049 216.047 120.049 215.426C120.359 214.804 120.049 213.872 120.049 213.251ZM121.598 212.94C121.598 213.561 121.908 214.493 121.908 214.804C122.218 215.426 122.528 216.047 122.838 216.358C123.148 216.668 123.458 216.979 124.078 217.29C124.698 217.601 125.007 217.601 125.627 217.601C126.247 217.601 126.867 217.29 127.487 216.979C127.797 216.668 128.417 216.358 128.417 215.736C128.417 215.115 128.727 214.804 129.036 214.183C129.036 213.561 129.036 212.94 129.036 212.318C129.036 211.697 129.036 211.076 128.727 210.454C128.727 209.833 128.417 209.522 128.107 208.9C127.797 208.59 127.487 207.968 126.867 207.968C126.247 207.968 125.627 207.968 125.008 207.968C124.388 207.968 123.768 208.279 123.148 208.59C122.838 208.9 122.218 209.211 122.218 209.833C121.908 210.454 121.908 210.765 121.598 211.386C121.598 212.008 121.288 212.629 121.598 212.94Z" fill="black"/>
<path d="M196.092 124.769C198.54 82.4549 166.865 46.1946 125.343 43.7798C83.821 41.3649 48.1762 73.7099 45.7279 116.024C43.2796 158.339 74.955 194.599 116.477 197.014C157.999 199.429 193.643 167.084 196.092 124.769Z" fill="white"/>
<path d="M120.669 197.714C119.12 197.714 117.88 197.714 116.33 197.714C96.1859 196.471 77.2809 187.46 63.9545 171.924C50.3181 156.388 43.8098 136.502 44.7396 115.995C45.9793 95.4873 54.9669 76.5334 70.1528 62.5511C85.3388 48.8794 104.864 41.7329 125.318 42.9758C167.157 45.4615 199.388 82.1264 196.909 124.695C194.43 165.71 160.649 197.714 120.669 197.714ZM120.979 44.5294C102.694 44.5294 85.3388 51.3652 71.3925 63.794C56.5164 77.1549 47.5288 95.798 46.5991 115.995C45.3594 136.192 52.1776 155.767 65.1941 170.681C78.5206 185.907 96.8057 194.607 116.64 195.85C157.55 198.335 192.88 166.331 195.359 124.384C197.839 82.4371 166.227 46.7044 125.318 44.2187C123.769 44.5294 122.219 44.5294 120.979 44.5294Z" fill="#1D1D1B"/>
<path d="M57.1379 116.616C59.3073 79.9514 89.6792 51.6759 124.7 53.8509C159.721 56.026 186.683 87.4086 184.514 124.073C182.345 160.738 151.973 189.014 116.952 186.839C81.9313 184.664 54.9685 153.281 57.1379 116.616Z" fill="#F8F4F1"/>
<path d="M120.67 187.771C119.43 187.771 118.191 187.771 116.951 187.771C99.5957 186.839 83.7899 178.76 72.323 165.399C60.856 152.039 55.2775 134.638 56.2073 116.617C58.3767 79.3303 89.0585 51.0548 124.699 52.9192C160.34 54.7835 187.612 86.7875 185.443 124.074C184.513 142.096 176.765 158.564 163.749 170.682C151.662 181.557 136.476 187.771 120.67 187.771ZM120.98 54.162C87.8188 54.162 59.6164 81.5053 57.7569 116.306C56.8271 134.017 62.4056 150.796 73.5626 163.846C84.7197 176.896 100.216 184.664 116.951 185.596C133.687 186.528 150.112 180.625 162.509 168.817C175.216 157.01 182.654 140.853 183.583 123.452C185.753 87.0983 159.1 56.0263 124.389 53.8513C123.459 54.4727 122.22 54.162 120.98 54.162Z" fill="black"/>
<path d="M124.474 88.9836L123.021 113.799L124.567 113.89L126.021 89.0746L124.474 88.9836Z" fill="black"/>
<path d="M79.1416 130.6C79.1416 130.6 100.836 173.79 148.563 115.064C148.563 115.064 153.832 149.244 130.588 159.808C108.584 170.062 97.1168 144.894 97.1168 144.894" fill="#F8F4F1"/>
<path d="M120.36 163.226C105.794 163.226 97.7364 148.311 96.4967 145.826C84.4099 142.718 78.5215 131.532 78.5215 130.911L79.7612 130.29C79.7612 130.29 86.5793 143.651 100.526 145.204C114.472 146.758 130.278 136.504 147.943 114.754L149.183 113.511L149.493 115.375C149.493 115.686 154.451 150.176 131.207 161.051C127.179 162.604 123.46 163.226 120.36 163.226ZM98.3562 146.447C99.5959 148.622 102.075 152.661 106.104 156.079C113.232 162.294 121.6 163.537 130.278 159.497C149.493 150.486 148.563 124.386 147.943 117.239C130.588 138.368 114.472 148.311 100.216 146.758C99.5959 146.447 98.976 146.447 98.3562 146.447Z" fill="black"/>
<path d="M93.0879 111.956V88.6523H94.6375V111.956H93.0879Z" fill="black"/>
<path d="M138.334 27.1291C138.024 28.6827 137.404 29.9256 135.855 31.1684C134.615 32.4113 132.756 33.3435 130.896 34.5864C130.276 34.8971 129.347 35.5185 128.727 36.14C128.417 36.14 128.417 36.4507 128.107 36.14C127.797 36.14 127.487 35.8292 127.487 35.8292C126.867 35.2078 126.247 34.2756 125.628 33.9649C124.078 32.1006 122.838 30.547 121.909 29.3041C120.979 27.7505 120.669 26.1969 120.669 24.6433C120.979 23.0898 121.599 21.8469 122.528 21.2254C123.458 20.2933 125.008 19.9826 126.247 20.2933C127.177 20.2933 128.107 20.9147 128.727 21.5362C129.347 21.5362 129.657 22.1576 129.966 22.4683C130.276 22.1576 130.896 21.8469 131.206 21.5362C132.136 20.9147 133.066 20.9147 133.995 20.9147C135.235 21.2254 136.475 21.8469 137.404 23.0898C138.334 24.0219 138.644 25.5755 138.334 27.1291Z" fill="#FF5E95"/>
<path d="M138.336 27.1304C138.026 28.684 137.406 29.9269 135.856 31.1697C134.617 32.4126 132.757 33.3448 130.898 34.5877C130.278 34.8984 129.348 35.5198 128.728 36.1413C128.418 36.1413 128.418 36.452 128.108 36.1413L129.968 22.4696C130.278 22.1589 130.898 21.8482 131.208 21.5375C132.137 20.916 133.067 20.916 133.997 20.916C135.236 21.2267 136.476 21.8482 137.406 23.091C138.336 24.0232 138.646 25.5768 138.336 27.1304Z" fill="#FF3980"/>
<path d="M99.2861 216.046C99.5961 214.493 100.216 213.25 101.456 212.007C102.695 210.764 104.245 209.832 106.414 208.278C107.034 207.968 107.964 207.346 108.584 206.725C108.894 206.725 108.894 206.414 109.203 206.414C109.513 206.414 109.823 206.414 109.823 206.725C110.443 207.346 111.063 207.968 111.683 208.589C113.232 210.453 114.782 211.696 115.402 213.25C116.332 214.803 116.951 216.357 116.642 217.6C116.332 219.154 115.712 220.396 114.782 221.329C113.852 222.261 112.303 222.571 111.063 222.571C110.133 222.571 109.203 221.95 108.274 221.329C107.964 221.018 107.654 220.396 107.344 220.086C107.034 220.396 106.414 220.707 106.104 221.018C105.175 221.639 104.245 221.639 103.315 221.639C102.075 221.329 100.836 220.707 99.906 219.775C99.596 218.843 99.2861 217.6 99.2861 216.046Z" fill="#FF5E95"/>
<path d="M99.2861 216.046C99.5961 214.493 100.216 213.25 101.456 212.007C102.695 210.764 104.245 209.832 106.414 208.278C107.034 207.968 107.964 207.346 108.584 206.725C108.894 206.725 108.894 206.414 109.203 206.414L107.654 220.396C107.344 220.707 106.724 221.018 106.414 221.329C105.484 221.95 104.555 221.95 103.625 221.95C102.385 221.639 101.146 221.018 100.216 220.086C99.596 218.843 99.2861 217.6 99.2861 216.046Z" fill="#FF3980"/>
</svg>
