<svg width="148" height="154" viewBox="0 0 148 154" fill="none" xmlns="http://www.w3.org/2000/svg">
<path d="M73.6889 153.305C72.2725 153.305 70.8915 153.27 69.4751 153.199C49.7513 152.07 31.6918 143.034 18.5898 127.75C5.48779 112.501 -1.06321 92.8409 0.140756 72.4037C2.5841 30.1881 37.7116 -2.17951 78.3986 0.114814C119.086 2.47973 150.176 38.7301 147.733 80.9104C146.529 101.348 137.747 120.126 122.981 133.786C109.241 146.422 91.8901 153.305 73.6889 153.305ZM74.2201 1.73849C36.2597 1.73849 4.21299 32.6589 1.91129 72.4743C0.742739 92.4526 7.15209 111.654 19.9354 126.585C32.7187 141.481 50.3532 150.305 69.5813 151.434C88.8093 152.529 107.329 145.822 121.777 132.48C136.224 119.137 144.794 100.783 145.962 80.8045C148.37 39.5772 117.988 4.17401 78.2923 1.84438C76.9113 1.77379 75.5657 1.73849 74.2201 1.73849Z" fill="black"/>
<path d="M78.1556 40.8705L76.4893 69.166L78.2568 69.2694L79.9231 40.9739L78.1556 40.8705Z" fill="black"/>
<path d="M42.386 67.2504L42.209 40.9186L43.9795 40.8833L44.1565 67.2504H42.386Z" fill="black"/>
<path d="M73.3703 125.491C56.8688 125.491 47.485 108.584 46.0686 105.795C32.2938 102.124 25.7074 89.4524 25.3887 88.8524L26.9822 88.0405C27.053 88.1817 34.8433 103.148 50.7074 104.842C66.5714 106.536 84.7725 94.8882 104.85 70.286L106.125 68.7329L106.409 70.7096C106.479 71.0978 112.145 110.313 85.4453 122.632C81.0898 124.644 77.053 125.491 73.3703 125.491ZM48.3703 106.289C49.7159 108.689 52.6904 113.278 57.0813 117.161C65.3674 124.361 74.645 125.667 84.7017 121.044C106.727 110.878 105.629 81.1223 104.886 73.0392C84.9496 97.0413 66.6422 108.407 50.4949 106.642C49.7867 106.536 49.0431 106.43 48.3703 106.289Z" fill="black"/>
</svg>
